<svg width="60" height="60" viewBox="0 0 60 60" fill="none" xmlns="http://www.w3.org/2000/svg">
<rect x="2.30762" y="2.30774" width="57.6923" height="57.6923" rx="15" fill="black"/>
<rect x="0.5" y="0.5" width="56.6923" height="56.6923" rx="14.5" fill="#D7CDFF" stroke="black"/>
<g clip-path="url(#clip0_2663_67)">
<path d="M28.8467 15.7211C21.5981 15.7211 15.7217 21.5975 15.7217 28.8461C15.7217 36.0946 21.5981 41.9711 28.8467 41.9711C29.5438 41.9711 30.2262 41.9119 30.8935 41.8074C30.6558 41.1809 30.4846 40.5216 30.4094 39.8316C29.8975 39.9043 29.3782 39.9518 28.8467 39.9518C22.7229 39.9518 17.7409 34.9699 17.7409 28.8461C17.7409 22.7223 22.7229 17.7403 28.8467 17.7403C32.1864 17.7403 35.1829 19.2256 37.2204 21.5668L35.6645 23.6225L41.9717 23.798L40.0915 17.7748L38.4637 19.9252C36.0668 17.3421 32.6481 15.7211 28.8467 15.7211V15.7211ZM38.438 31.8749C34.8135 31.8749 31.8755 34.8129 31.8755 38.4374C31.8755 42.0619 34.8135 44.9999 38.438 44.9999C42.0625 44.9999 45.0005 42.0619 45.0005 38.4374C45.0005 34.8129 42.0625 31.8749 38.438 31.8749ZM41.3032 36.1047L42.298 37.1015L37.9332 41.4663L34.9034 38.5962L35.7474 37.621L37.9332 38.9422L41.3032 36.1047Z" fill="black"/>
</g>
<defs>
<clipPath id="clip0_2663_67">
<rect width="32.3077" height="32.3077" fill="white" transform="translate(12.6924 12.6923)"/>
</clipPath>
</defs>
</svg>
