<svg width="60" height="60" viewBox="0 0 60 60" fill="none" xmlns="http://www.w3.org/2000/svg">
<rect x="2.30762" y="2.30774" width="57.6923" height="57.6923" rx="15" fill="black"/>
<rect x="0.5" y="0.5" width="56.6923" height="56.6923" rx="14.5" fill="#FDE4FF" stroke="black"/>
<path d="M21.2738 34.6875L17.2354 33.6779C17.2354 33.6779 17.2354 30.6491 18.245 27.6202C19.2546 24.5914 26.3219 24.5914 26.3219 24.5914L21.2738 34.6875ZM25.3123 38.726L26.3219 42.7645C26.3219 42.7645 29.3507 42.7645 32.3796 41.7548C35.4084 40.7452 35.4084 33.6779 35.4084 33.6779L25.3123 38.726ZM21.2738 34.6875L25.3123 38.726C25.3123 38.726 35.4084 34.6875 38.4373 29.6395C41.4661 24.5914 41.4661 18.5337 41.4661 18.5337C41.4661 18.5337 35.4084 18.5337 30.3604 21.5625C25.3123 24.5914 21.2738 34.6875 21.2738 34.6875Z" stroke="black" stroke-width="1.5" stroke-linecap="round" stroke-linejoin="round"/>
<path d="M16.2256 43.7741L20.264 41.7548L18.2448 39.7356L16.2256 43.7741Z" fill="black" stroke="black" stroke-width="1.5" stroke-linecap="round" stroke-linejoin="round"/>
<path d="M33.3895 27.6202C33.9471 27.6202 34.3991 27.1682 34.3991 26.6106C34.3991 26.053 33.9471 25.601 33.3895 25.601C32.8319 25.601 32.3799 26.053 32.3799 26.6106C32.3799 27.1682 32.8319 27.6202 33.3895 27.6202Z" fill="black" stroke="black" stroke-width="1.5" stroke-linecap="round" stroke-linejoin="round"/>
</svg>
