<svg width="58" height="58" viewBox="0 0 58 58" fill="none" xmlns="http://www.w3.org/2000/svg">
<rect x="2.5" y="2.5" width="55" height="55" rx="14.5" fill="black" stroke="black"/>
<rect x="0.5" y="0.5" width="55" height="55" rx="14.5" fill="#D7CDFF" stroke="black"/>
<path d="M26.25 38.5C26.25 38.5 24.5 38.5 24.5 36.75C24.5 35 26.25 29.75 33.25 29.75C40.25 29.75 42 35 42 36.75C42 38.5 40.25 38.5 40.25 38.5H26.25ZM33.25 28C34.6424 28 35.9777 27.4469 36.9623 26.4623C37.9469 25.4777 38.5 24.1424 38.5 22.75C38.5 21.3576 37.9469 20.0223 36.9623 19.0377C35.9777 18.0531 34.6424 17.5 33.25 17.5C31.8576 17.5 30.5223 18.0531 29.5377 19.0377C28.5531 20.0223 28 21.3576 28 22.75C28 24.1424 28.5531 25.4777 29.5377 26.4623C30.5223 27.4469 31.8576 28 33.25 28Z" fill="black"/>
<path fill-rule="evenodd" clip-rule="evenodd" d="M23.128 38.5C22.8686 37.9537 22.7392 37.3547 22.75 36.75C22.75 34.3788 23.94 31.9375 26.138 30.24C25.0409 29.902 23.8979 29.7367 22.75 29.75C15.75 29.75 14 35 14 36.75C14 38.5 15.75 38.5 15.75 38.5H23.128Z" fill="black"/>
<path d="M21.875 28C23.0353 28 24.1481 27.5391 24.9686 26.7186C25.7891 25.8981 26.25 24.7853 26.25 23.625C26.25 22.4647 25.7891 21.3519 24.9686 20.5314C24.1481 19.7109 23.0353 19.25 21.875 19.25C20.7147 19.25 19.6019 19.7109 18.7814 20.5314C17.9609 21.3519 17.5 22.4647 17.5 23.625C17.5 24.7853 17.9609 25.8981 18.7814 26.7186C19.6019 27.5391 20.7147 28 21.875 28Z" fill="black"/>
</svg>
