<svg width="852" height="198" viewBox="0 0 852 198" fill="none" xmlns="http://www.w3.org/2000/svg">
<mask id="mask0" mask-type="alpha" maskUnits="userSpaceOnUse" x="0" y="0" width="852" height="198">
<rect width="852" height="198" fill="#C4C4C4"/>
</mask>
<g mask="url(#mask0)">
<circle cx="7" cy="8" r="5" fill="#6CA3FF"/>
<circle cx="27" cy="8" r="5" fill="#6CA3FF"/>
<circle cx="47" cy="8" r="5" fill="#6CA3FF"/>
<circle cx="67" cy="8" r="5" fill="#6CA3FF"/>
<circle cx="87" cy="8" r="5" fill="#6CA3FF"/>
<circle cx="107" cy="8" r="5" fill="#6CA3FF"/>
<circle cx="127" cy="8" r="5" fill="#6CA3FF"/>
<circle cx="147" cy="8" r="5" fill="#6CA3FF"/>
<circle cx="167" cy="8" r="5" fill="#6CA3FF"/>
<circle cx="187" cy="8" r="5" fill="#6CA3FF"/>
<circle cx="207" cy="8" r="5" fill="#6CA3FF"/>
<circle cx="227" cy="8" r="5" fill="#6CA3FF"/>
<circle cx="247" cy="8" r="5" fill="#6CA3FF"/>
<circle cx="267" cy="8" r="5" fill="#6CA3FF"/>
<circle cx="287" cy="8" r="5" fill="#6CA3FF"/>
<circle cx="307" cy="8" r="5" fill="#6CA3FF"/>
<circle cx="327" cy="8" r="5" fill="#6CA3FF"/>
<circle cx="347" cy="8" r="5" fill="#6CA3FF"/>
<circle cx="367" cy="8" r="5" fill="#6CA3FF"/>
<circle cx="387" cy="8" r="5" fill="#6CA3FF"/>
<circle cx="407" cy="8" r="5" fill="#6CA3FF"/>
<circle cx="427" cy="8" r="5" fill="#6CA3FF"/>
<circle cx="447" cy="8" r="5" fill="#6CA3FF"/>
<circle cx="467" cy="8" r="5" fill="#6CA3FF"/>
<circle cx="487" cy="8" r="5" fill="#6CA3FF"/>
<circle cx="507" cy="8" r="5" fill="#6CA3FF"/>
<circle cx="527" cy="8" r="5" fill="#6CA3FF"/>
<circle cx="547" cy="8" r="5" fill="#6CA3FF"/>
<circle cx="567" cy="8" r="5" fill="#6CA3FF"/>
<circle cx="587" cy="8" r="5" fill="#6CA3FF"/>
<circle cx="607" cy="8" r="5" fill="#6CA3FF"/>
<circle cx="627" cy="8" r="5" fill="#6CA3FF"/>
<circle cx="647" cy="8" r="5" fill="#6CA3FF"/>
<circle cx="667" cy="8" r="5" fill="#6CA3FF"/>
<circle cx="687" cy="8" r="5" fill="#6CA3FF"/>
<circle cx="707" cy="8" r="5" fill="#6CA3FF"/>
<circle cx="727" cy="8" r="5" fill="#6CA3FF"/>
<circle cx="747" cy="8" r="5" fill="#6CA3FF"/>
<circle cx="767" cy="8" r="5" fill="#6CA3FF"/>
<circle cx="787" cy="8" r="5" fill="#6CA3FF"/>
<circle cx="807" cy="8" r="5" fill="#6CA3FF"/>
<circle cx="827" cy="8" r="5" fill="#6CA3FF"/>
<circle cx="847" cy="8" r="5" fill="#6CA3FF"/>
<circle cx="7" cy="28" r="5" fill="#6CA3FF"/>
<circle cx="27" cy="28" r="5" fill="#6CA3FF"/>
<circle cx="47" cy="28" r="5" fill="#6CA3FF"/>
<circle cx="67" cy="28" r="5" fill="#6CA3FF"/>
<circle cx="87" cy="28" r="5" fill="#6CA3FF"/>
<circle cx="107" cy="28" r="5" fill="#6CA3FF"/>
<circle cx="127" cy="28" r="5" fill="#6CA3FF"/>
<circle cx="147" cy="28" r="5" fill="#6CA3FF"/>
<circle cx="167" cy="28" r="5" fill="#6CA3FF"/>
<circle cx="187" cy="28" r="5" fill="#6CA3FF"/>
<circle cx="207" cy="28" r="5" fill="#6CA3FF"/>
<circle cx="227" cy="28" r="5" fill="#6CA3FF"/>
<circle cx="247" cy="28" r="5" fill="#6CA3FF"/>
<circle cx="267" cy="28" r="5" fill="#6CA3FF"/>
<circle cx="287" cy="28" r="5" fill="#6CA3FF"/>
<circle cx="307" cy="28" r="5" fill="#6CA3FF"/>
<circle cx="327" cy="28" r="5" fill="#6CA3FF"/>
<circle cx="347" cy="28" r="5" fill="#6CA3FF"/>
<circle cx="367" cy="28" r="5" fill="#6CA3FF"/>
<circle cx="387" cy="28" r="5" fill="#6CA3FF"/>
<circle cx="407" cy="28" r="5" fill="#6CA3FF"/>
<circle cx="427" cy="28" r="5" fill="#6CA3FF"/>
<circle cx="447" cy="28" r="5" fill="#6CA3FF"/>
<circle cx="467" cy="28" r="5" fill="#6CA3FF"/>
<circle cx="487" cy="28" r="5" fill="#6CA3FF"/>
<circle cx="507" cy="28" r="5" fill="#6CA3FF"/>
<circle cx="527" cy="28" r="5" fill="#6CA3FF"/>
<circle cx="547" cy="28" r="5" fill="#6CA3FF"/>
<circle cx="567" cy="28" r="5" fill="#6CA3FF"/>
<circle cx="587" cy="28" r="5" fill="#6CA3FF"/>
<circle cx="607" cy="28" r="5" fill="#6CA3FF"/>
<circle cx="627" cy="28" r="5" fill="#6CA3FF"/>
<circle cx="647" cy="28" r="5" fill="#6CA3FF"/>
<circle cx="667" cy="28" r="5" fill="#6CA3FF"/>
<circle cx="687" cy="28" r="5" fill="#6CA3FF"/>
<circle cx="707" cy="28" r="5" fill="#6CA3FF"/>
<circle cx="727" cy="28" r="5" fill="#6CA3FF"/>
<circle cx="747" cy="28" r="5" fill="#6CA3FF"/>
<circle cx="767" cy="28" r="5" fill="#6CA3FF"/>
<circle cx="787" cy="28" r="5" fill="#6CA3FF"/>
<circle cx="807" cy="28" r="5" fill="#6CA3FF"/>
<circle cx="827" cy="28" r="5" fill="#6CA3FF"/>
<circle cx="847" cy="28" r="5" fill="#6CA3FF"/>
<circle cx="7" cy="48" r="5" fill="#6CA3FF"/>
<circle cx="27" cy="48" r="5" fill="#6CA3FF"/>
<circle cx="47" cy="48" r="5" fill="#6CA3FF"/>
<circle cx="67" cy="48" r="5" fill="#6CA3FF"/>
<circle cx="87" cy="48" r="5" fill="#6CA3FF"/>
<circle cx="107" cy="48" r="5" fill="#6CA3FF"/>
<circle cx="127" cy="48" r="5" fill="#6CA3FF"/>
<circle cx="147" cy="48" r="5" fill="#6CA3FF"/>
<circle cx="167" cy="48" r="5" fill="#6CA3FF"/>
<circle cx="187" cy="48" r="5" fill="#6CA3FF"/>
<circle cx="207" cy="48" r="5" fill="#6CA3FF"/>
<circle cx="227" cy="48" r="5" fill="#6CA3FF"/>
<circle cx="247" cy="48" r="5" fill="#6CA3FF"/>
<circle cx="267" cy="48" r="5" fill="#6CA3FF"/>
<circle cx="287" cy="48" r="5" fill="#6CA3FF"/>
<circle cx="307" cy="48" r="5" fill="#6CA3FF"/>
<circle cx="327" cy="48" r="5" fill="#6CA3FF"/>
<circle cx="347" cy="48" r="5" fill="#6CA3FF"/>
<circle cx="367" cy="48" r="5" fill="#6CA3FF"/>
<circle cx="387" cy="48" r="5" fill="#6CA3FF"/>
<circle cx="407" cy="48" r="5" fill="#6CA3FF"/>
<circle cx="427" cy="48" r="5" fill="#6CA3FF"/>
<circle cx="447" cy="48" r="5" fill="#6CA3FF"/>
<circle cx="467" cy="48" r="5" fill="#6CA3FF"/>
<circle cx="487" cy="48" r="5" fill="#6CA3FF"/>
<circle cx="507" cy="48" r="5" fill="#6CA3FF"/>
<circle cx="527" cy="48" r="5" fill="#6CA3FF"/>
<circle cx="547" cy="48" r="5" fill="#6CA3FF"/>
<circle cx="567" cy="48" r="5" fill="#6CA3FF"/>
<circle cx="587" cy="48" r="5" fill="#6CA3FF"/>
<circle cx="607" cy="48" r="5" fill="#6CA3FF"/>
<circle cx="627" cy="48" r="5" fill="#6CA3FF"/>
<circle cx="647" cy="48" r="5" fill="#6CA3FF"/>
<circle cx="667" cy="48" r="5" fill="#6CA3FF"/>
<circle cx="687" cy="48" r="5" fill="#6CA3FF"/>
<circle cx="707" cy="48" r="5" fill="#6CA3FF"/>
<circle cx="727" cy="48" r="5" fill="#6CA3FF"/>
<circle cx="747" cy="48" r="5" fill="#6CA3FF"/>
<circle cx="767" cy="48" r="5" fill="#6CA3FF"/>
<circle cx="787" cy="48" r="5" fill="#6CA3FF"/>
<circle cx="807" cy="48" r="5" fill="#6CA3FF"/>
<circle cx="827" cy="48" r="5" fill="#6CA3FF"/>
<circle cx="847" cy="48" r="5" fill="#6CA3FF"/>
<circle cx="7" cy="68" r="5" fill="#6CA3FF"/>
<circle cx="27" cy="68" r="5" fill="#6CA3FF"/>
<circle cx="47" cy="68" r="5" fill="#6CA3FF"/>
<circle cx="67" cy="68" r="5" fill="#6CA3FF"/>
<circle cx="87" cy="68" r="5" fill="#6CA3FF"/>
<circle cx="107" cy="68" r="5" fill="#6CA3FF"/>
<circle cx="127" cy="68" r="5" fill="#6CA3FF"/>
<circle cx="147" cy="68" r="5" fill="#6CA3FF"/>
<circle cx="167" cy="68" r="5" fill="#6CA3FF"/>
<circle cx="187" cy="68" r="5" fill="#6CA3FF"/>
<circle cx="207" cy="68" r="5" fill="#6CA3FF"/>
<circle cx="227" cy="68" r="5" fill="#6CA3FF"/>
<circle cx="247" cy="68" r="5" fill="#6CA3FF"/>
<circle cx="267" cy="68" r="5" fill="#6CA3FF"/>
<circle cx="287" cy="68" r="5" fill="#6CA3FF"/>
<circle cx="307" cy="68" r="5" fill="#6CA3FF"/>
<circle cx="327" cy="68" r="5" fill="#6CA3FF"/>
<circle cx="347" cy="68" r="5" fill="#6CA3FF"/>
<circle cx="367" cy="68" r="5" fill="#6CA3FF"/>
<circle cx="387" cy="68" r="5" fill="#6CA3FF"/>
<circle cx="407" cy="68" r="5" fill="#6CA3FF"/>
<circle cx="427" cy="68" r="5" fill="#6CA3FF"/>
<circle cx="447" cy="68" r="5" fill="#6CA3FF"/>
<circle cx="467" cy="68" r="5" fill="#6CA3FF"/>
<circle cx="487" cy="68" r="5" fill="#6CA3FF"/>
<circle cx="507" cy="68" r="5" fill="#6CA3FF"/>
<circle cx="527" cy="68" r="5" fill="#6CA3FF"/>
<circle cx="547" cy="68" r="5" fill="#6CA3FF"/>
<circle cx="567" cy="68" r="5" fill="#6CA3FF"/>
<circle cx="587" cy="68" r="5" fill="#6CA3FF"/>
<circle cx="607" cy="68" r="5" fill="#6CA3FF"/>
<circle cx="627" cy="68" r="5" fill="#6CA3FF"/>
<circle cx="647" cy="68" r="5" fill="#6CA3FF"/>
<circle cx="667" cy="68" r="5" fill="#6CA3FF"/>
<circle cx="687" cy="68" r="5" fill="#6CA3FF"/>
<circle cx="707" cy="68" r="5" fill="#6CA3FF"/>
<circle cx="727" cy="68" r="5" fill="#6CA3FF"/>
<circle cx="747" cy="68" r="5" fill="#6CA3FF"/>
<circle cx="767" cy="68" r="5" fill="#6CA3FF"/>
<circle cx="787" cy="68" r="5" fill="#6CA3FF"/>
<circle cx="807" cy="68" r="5" fill="#6CA3FF"/>
<circle cx="827" cy="68" r="5" fill="#6CA3FF"/>
<circle cx="847" cy="68" r="5" fill="#6CA3FF"/>
<circle cx="7" cy="88" r="5" fill="#6CA3FF"/>
<circle cx="27" cy="88" r="5" fill="#6CA3FF"/>
<circle cx="47" cy="88" r="5" fill="#6CA3FF"/>
<circle cx="67" cy="88" r="5" fill="#6CA3FF"/>
<circle cx="87" cy="88" r="5" fill="#6CA3FF"/>
<circle cx="107" cy="88" r="5" fill="#6CA3FF"/>
<circle cx="127" cy="88" r="5" fill="#6CA3FF"/>
<circle cx="147" cy="88" r="5" fill="#6CA3FF"/>
<circle cx="167" cy="88" r="5" fill="#6CA3FF"/>
<circle cx="187" cy="88" r="5" fill="#6CA3FF"/>
<circle cx="207" cy="88" r="5" fill="#6CA3FF"/>
<circle cx="227" cy="88" r="5" fill="#6CA3FF"/>
<circle cx="247" cy="88" r="5" fill="#6CA3FF"/>
<circle cx="267" cy="88" r="5" fill="#6CA3FF"/>
<circle cx="287" cy="88" r="5" fill="#6CA3FF"/>
<circle cx="307" cy="88" r="5" fill="#6CA3FF"/>
<circle cx="327" cy="88" r="5" fill="#6CA3FF"/>
<circle cx="347" cy="88" r="5" fill="#6CA3FF"/>
<circle cx="367" cy="88" r="5" fill="#6CA3FF"/>
<circle cx="387" cy="88" r="5" fill="#6CA3FF"/>
<circle cx="407" cy="88" r="5" fill="#6CA3FF"/>
<circle cx="427" cy="88" r="5" fill="#6CA3FF"/>
<circle cx="447" cy="88" r="5" fill="#6CA3FF"/>
<circle cx="467" cy="88" r="5" fill="#6CA3FF"/>
<circle cx="487" cy="88" r="5" fill="#6CA3FF"/>
<circle cx="507" cy="88" r="5" fill="#6CA3FF"/>
<circle cx="527" cy="88" r="5" fill="#6CA3FF"/>
<circle cx="547" cy="88" r="5" fill="#6CA3FF"/>
<circle cx="567" cy="88" r="5" fill="#6CA3FF"/>
<circle cx="587" cy="88" r="5" fill="#6CA3FF"/>
<circle cx="607" cy="88" r="5" fill="#6CA3FF"/>
<circle cx="627" cy="88" r="5" fill="#6CA3FF"/>
<circle cx="647" cy="88" r="5" fill="#6CA3FF"/>
<circle cx="667" cy="88" r="5" fill="#6CA3FF"/>
<circle cx="687" cy="88" r="5" fill="#6CA3FF"/>
<circle cx="707" cy="88" r="5" fill="#6CA3FF"/>
<circle cx="727" cy="88" r="5" fill="#6CA3FF"/>
<circle cx="747" cy="88" r="5" fill="#6CA3FF"/>
<circle cx="767" cy="88" r="5" fill="#6CA3FF"/>
<circle cx="787" cy="88" r="5" fill="#6CA3FF"/>
<circle cx="807" cy="88" r="5" fill="#6CA3FF"/>
<circle cx="827" cy="88" r="5" fill="#6CA3FF"/>
<circle cx="847" cy="88" r="5" fill="#6CA3FF"/>
<circle cx="7" cy="108" r="5" fill="#6CA3FF"/>
<circle cx="27" cy="108" r="5" fill="#6CA3FF"/>
<circle cx="47" cy="108" r="5" fill="#6CA3FF"/>
<circle cx="67" cy="108" r="5" fill="#6CA3FF"/>
<circle cx="87" cy="108" r="5" fill="#6CA3FF"/>
<circle cx="107" cy="108" r="5" fill="#6CA3FF"/>
<circle cx="127" cy="108" r="5" fill="#6CA3FF"/>
<circle cx="147" cy="108" r="5" fill="#6CA3FF"/>
<circle cx="167" cy="108" r="5" fill="#6CA3FF"/>
<circle cx="187" cy="108" r="5" fill="#6CA3FF"/>
<circle cx="207" cy="108" r="5" fill="#6CA3FF"/>
<circle cx="227" cy="108" r="5" fill="#6CA3FF"/>
<circle cx="247" cy="108" r="5" fill="#6CA3FF"/>
<circle cx="267" cy="108" r="5" fill="#6CA3FF"/>
<circle cx="287" cy="108" r="5" fill="#6CA3FF"/>
<circle cx="307" cy="108" r="5" fill="#6CA3FF"/>
<circle cx="327" cy="108" r="5" fill="#6CA3FF"/>
<circle cx="347" cy="108" r="5" fill="#6CA3FF"/>
<circle cx="367" cy="108" r="5" fill="#6CA3FF"/>
<circle cx="387" cy="108" r="5" fill="#6CA3FF"/>
<circle cx="407" cy="108" r="5" fill="#6CA3FF"/>
<circle cx="427" cy="108" r="5" fill="#6CA3FF"/>
<circle cx="447" cy="108" r="5" fill="#6CA3FF"/>
<circle cx="467" cy="108" r="5" fill="#6CA3FF"/>
<circle cx="487" cy="108" r="5" fill="#6CA3FF"/>
<circle cx="507" cy="108" r="5" fill="#6CA3FF"/>
<circle cx="527" cy="108" r="5" fill="#6CA3FF"/>
<circle cx="547" cy="108" r="5" fill="#6CA3FF"/>
<circle cx="567" cy="108" r="5" fill="#6CA3FF"/>
<circle cx="587" cy="108" r="5" fill="#6CA3FF"/>
<circle cx="607" cy="108" r="5" fill="#6CA3FF"/>
<circle cx="627" cy="108" r="5" fill="#6CA3FF"/>
<circle cx="647" cy="108" r="5" fill="#6CA3FF"/>
<circle cx="667" cy="108" r="5" fill="#6CA3FF"/>
<circle cx="687" cy="108" r="5" fill="#6CA3FF"/>
<circle cx="707" cy="108" r="5" fill="#6CA3FF"/>
<circle cx="727" cy="108" r="5" fill="#6CA3FF"/>
<circle cx="747" cy="108" r="5" fill="#6CA3FF"/>
<circle cx="767" cy="108" r="5" fill="#6CA3FF"/>
<circle cx="787" cy="108" r="5" fill="#6CA3FF"/>
<circle cx="807" cy="108" r="5" fill="#6CA3FF"/>
<circle cx="827" cy="108" r="5" fill="#6CA3FF"/>
<circle cx="847" cy="108" r="5" fill="#6CA3FF"/>
<circle cx="7" cy="128" r="5" fill="#6CA3FF"/>
<circle cx="27" cy="128" r="5" fill="#6CA3FF"/>
<circle cx="47" cy="128" r="5" fill="#6CA3FF"/>
<circle cx="67" cy="128" r="5" fill="#6CA3FF"/>
<circle cx="87" cy="128" r="5" fill="#6CA3FF"/>
<circle cx="107" cy="128" r="5" fill="#6CA3FF"/>
<circle cx="127" cy="128" r="5" fill="#6CA3FF"/>
<circle cx="147" cy="128" r="5" fill="#6CA3FF"/>
<circle cx="167" cy="128" r="5" fill="#6CA3FF"/>
<circle cx="187" cy="128" r="5" fill="#6CA3FF"/>
<circle cx="207" cy="128" r="5" fill="#6CA3FF"/>
<circle cx="227" cy="128" r="5" fill="#6CA3FF"/>
<circle cx="247" cy="128" r="5" fill="#6CA3FF"/>
<circle cx="267" cy="128" r="5" fill="#6CA3FF"/>
<circle cx="287" cy="128" r="5" fill="#6CA3FF"/>
<circle cx="307" cy="128" r="5" fill="#6CA3FF"/>
<circle cx="327" cy="128" r="5" fill="#6CA3FF"/>
<circle cx="347" cy="128" r="5" fill="#6CA3FF"/>
<circle cx="367" cy="128" r="5" fill="#6CA3FF"/>
<circle cx="387" cy="128" r="5" fill="#6CA3FF"/>
<circle cx="407" cy="128" r="5" fill="#6CA3FF"/>
<circle cx="427" cy="128" r="5" fill="#6CA3FF"/>
<circle cx="447" cy="128" r="5" fill="#6CA3FF"/>
<circle cx="467" cy="128" r="5" fill="#6CA3FF"/>
<circle cx="487" cy="128" r="5" fill="#6CA3FF"/>
<circle cx="507" cy="128" r="5" fill="#6CA3FF"/>
<circle cx="527" cy="128" r="5" fill="#6CA3FF"/>
<circle cx="547" cy="128" r="5" fill="#6CA3FF"/>
<circle cx="567" cy="128" r="5" fill="#6CA3FF"/>
<circle cx="587" cy="128" r="5" fill="#6CA3FF"/>
<circle cx="607" cy="128" r="5" fill="#6CA3FF"/>
<circle cx="627" cy="128" r="5" fill="#6CA3FF"/>
<circle cx="647" cy="128" r="5" fill="#6CA3FF"/>
<circle cx="667" cy="128" r="5" fill="#6CA3FF"/>
<circle cx="687" cy="128" r="5" fill="#6CA3FF"/>
<circle cx="707" cy="128" r="5" fill="#6CA3FF"/>
<circle cx="727" cy="128" r="5" fill="#6CA3FF"/>
<circle cx="747" cy="128" r="5" fill="#6CA3FF"/>
<circle cx="767" cy="128" r="5" fill="#6CA3FF"/>
<circle cx="787" cy="128" r="5" fill="#6CA3FF"/>
<circle cx="807" cy="128" r="5" fill="#6CA3FF"/>
<circle cx="827" cy="128" r="5" fill="#6CA3FF"/>
<circle cx="847" cy="128" r="5" fill="#6CA3FF"/>
<circle cx="7" cy="148" r="5" fill="#6CA3FF"/>
<circle cx="27" cy="148" r="5" fill="#6CA3FF"/>
<circle cx="47" cy="148" r="5" fill="#6CA3FF"/>
<circle cx="67" cy="148" r="5" fill="#6CA3FF"/>
<circle cx="87" cy="148" r="5" fill="#6CA3FF"/>
<circle cx="107" cy="148" r="5" fill="#6CA3FF"/>
<circle cx="127" cy="148" r="5" fill="#6CA3FF"/>
<circle cx="147" cy="148" r="5" fill="#6CA3FF"/>
<circle cx="167" cy="148" r="5" fill="#6CA3FF"/>
<circle cx="187" cy="148" r="5" fill="#6CA3FF"/>
<circle cx="207" cy="148" r="5" fill="#6CA3FF"/>
<circle cx="227" cy="148" r="5" fill="#6CA3FF"/>
<circle cx="247" cy="148" r="5" fill="#6CA3FF"/>
<circle cx="267" cy="148" r="5" fill="#6CA3FF"/>
<circle cx="287" cy="148" r="5" fill="#6CA3FF"/>
<circle cx="307" cy="148" r="5" fill="#6CA3FF"/>
<circle cx="327" cy="148" r="5" fill="#6CA3FF"/>
<circle cx="347" cy="148" r="5" fill="#6CA3FF"/>
<circle cx="367" cy="148" r="5" fill="#6CA3FF"/>
<circle cx="387" cy="148" r="5" fill="#6CA3FF"/>
<circle cx="407" cy="148" r="5" fill="#6CA3FF"/>
<circle cx="427" cy="148" r="5" fill="#6CA3FF"/>
<circle cx="447" cy="148" r="5" fill="#6CA3FF"/>
<circle cx="467" cy="148" r="5" fill="#6CA3FF"/>
<circle cx="487" cy="148" r="5" fill="#6CA3FF"/>
<circle cx="507" cy="148" r="5" fill="#6CA3FF"/>
<circle cx="527" cy="148" r="5" fill="#6CA3FF"/>
<circle cx="547" cy="148" r="5" fill="#6CA3FF"/>
<circle cx="567" cy="148" r="5" fill="#6CA3FF"/>
<circle cx="587" cy="148" r="5" fill="#6CA3FF"/>
<circle cx="607" cy="148" r="5" fill="#6CA3FF"/>
<circle cx="627" cy="148" r="5" fill="#6CA3FF"/>
<circle cx="647" cy="148" r="5" fill="#6CA3FF"/>
<circle cx="667" cy="148" r="5" fill="#6CA3FF"/>
<circle cx="687" cy="148" r="5" fill="#6CA3FF"/>
<circle cx="707" cy="148" r="5" fill="#6CA3FF"/>
<circle cx="727" cy="148" r="5" fill="#6CA3FF"/>
<circle cx="747" cy="148" r="5" fill="#6CA3FF"/>
<circle cx="767" cy="148" r="5" fill="#6CA3FF"/>
<circle cx="787" cy="148" r="5" fill="#6CA3FF"/>
<circle cx="807" cy="148" r="5" fill="#6CA3FF"/>
<circle cx="827" cy="148" r="5" fill="#6CA3FF"/>
<circle cx="847" cy="148" r="5" fill="#6CA3FF"/>
<circle cx="7" cy="168" r="5" fill="#6CA3FF"/>
<circle cx="27" cy="168" r="5" fill="#6CA3FF"/>
<circle cx="47" cy="168" r="5" fill="#6CA3FF"/>
<circle cx="67" cy="168" r="5" fill="#6CA3FF"/>
<circle cx="87" cy="168" r="5" fill="#6CA3FF"/>
<circle cx="107" cy="168" r="5" fill="#6CA3FF"/>
<circle cx="127" cy="168" r="5" fill="#6CA3FF"/>
<circle cx="147" cy="168" r="5" fill="#6CA3FF"/>
<circle cx="167" cy="168" r="5" fill="#6CA3FF"/>
<circle cx="187" cy="168" r="5" fill="#6CA3FF"/>
<circle cx="207" cy="168" r="5" fill="#6CA3FF"/>
<circle cx="227" cy="168" r="5" fill="#6CA3FF"/>
<circle cx="247" cy="168" r="5" fill="#6CA3FF"/>
<circle cx="267" cy="168" r="5" fill="#6CA3FF"/>
<circle cx="287" cy="168" r="5" fill="#6CA3FF"/>
<circle cx="307" cy="168" r="5" fill="#6CA3FF"/>
<circle cx="327" cy="168" r="5" fill="#6CA3FF"/>
<circle cx="347" cy="168" r="5" fill="#6CA3FF"/>
<circle cx="367" cy="168" r="5" fill="#6CA3FF"/>
<circle cx="387" cy="168" r="5" fill="#6CA3FF"/>
<circle cx="407" cy="168" r="5" fill="#6CA3FF"/>
<circle cx="427" cy="168" r="5" fill="#6CA3FF"/>
<circle cx="447" cy="168" r="5" fill="#6CA3FF"/>
<circle cx="467" cy="168" r="5" fill="#6CA3FF"/>
<circle cx="487" cy="168" r="5" fill="#6CA3FF"/>
<circle cx="507" cy="168" r="5" fill="#6CA3FF"/>
<circle cx="527" cy="168" r="5" fill="#6CA3FF"/>
<circle cx="547" cy="168" r="5" fill="#6CA3FF"/>
<circle cx="567" cy="168" r="5" fill="#6CA3FF"/>
<circle cx="587" cy="168" r="5" fill="#6CA3FF"/>
<circle cx="607" cy="168" r="5" fill="#6CA3FF"/>
<circle cx="627" cy="168" r="5" fill="#6CA3FF"/>
<circle cx="647" cy="168" r="5" fill="#6CA3FF"/>
<circle cx="667" cy="168" r="5" fill="#6CA3FF"/>
<circle cx="687" cy="168" r="5" fill="#6CA3FF"/>
<circle cx="707" cy="168" r="5" fill="#6CA3FF"/>
<circle cx="727" cy="168" r="5" fill="#6CA3FF"/>
<circle cx="747" cy="168" r="5" fill="#6CA3FF"/>
<circle cx="767" cy="168" r="5" fill="#6CA3FF"/>
<circle cx="787" cy="168" r="5" fill="#6CA3FF"/>
<circle cx="807" cy="168" r="5" fill="#6CA3FF"/>
<circle cx="827" cy="168" r="5" fill="#6CA3FF"/>
<circle cx="847" cy="168" r="5" fill="#6CA3FF"/>
<circle cx="7" cy="188" r="5" fill="#6CA3FF"/>
<circle cx="27" cy="188" r="5" fill="#6CA3FF"/>
<circle cx="47" cy="188" r="5" fill="#6CA3FF"/>
<circle cx="67" cy="188" r="5" fill="#6CA3FF"/>
<circle cx="87" cy="188" r="5" fill="#6CA3FF"/>
<circle cx="107" cy="188" r="5" fill="#6CA3FF"/>
<circle cx="127" cy="188" r="5" fill="#6CA3FF"/>
<circle cx="147" cy="188" r="5" fill="#6CA3FF"/>
<circle cx="167" cy="188" r="5" fill="#6CA3FF"/>
<circle cx="187" cy="188" r="5" fill="#6CA3FF"/>
<circle cx="207" cy="188" r="5" fill="#6CA3FF"/>
<circle cx="227" cy="188" r="5" fill="#6CA3FF"/>
<circle cx="247" cy="188" r="5" fill="#6CA3FF"/>
<circle cx="267" cy="188" r="5" fill="#6CA3FF"/>
<circle cx="287" cy="188" r="5" fill="#6CA3FF"/>
<circle cx="307" cy="188" r="5" fill="#6CA3FF"/>
<circle cx="327" cy="188" r="5" fill="#6CA3FF"/>
<circle cx="347" cy="188" r="5" fill="#6CA3FF"/>
<circle cx="367" cy="188" r="5" fill="#6CA3FF"/>
<circle cx="387" cy="188" r="5" fill="#6CA3FF"/>
<circle cx="407" cy="188" r="5" fill="#6CA3FF"/>
<circle cx="427" cy="188" r="5" fill="#6CA3FF"/>
<circle cx="447" cy="188" r="5" fill="#6CA3FF"/>
<circle cx="467" cy="188" r="5" fill="#6CA3FF"/>
<circle cx="487" cy="188" r="5" fill="#6CA3FF"/>
<circle cx="507" cy="188" r="5" fill="#6CA3FF"/>
<circle cx="527" cy="188" r="5" fill="#6CA3FF"/>
<circle cx="547" cy="188" r="5" fill="#6CA3FF"/>
<circle cx="567" cy="188" r="5" fill="#6CA3FF"/>
<circle cx="587" cy="188" r="5" fill="#6CA3FF"/>
<circle cx="607" cy="188" r="5" fill="#6CA3FF"/>
<circle cx="627" cy="188" r="5" fill="#6CA3FF"/>
<circle cx="647" cy="188" r="5" fill="#6CA3FF"/>
<circle cx="667" cy="188" r="5" fill="#6CA3FF"/>
<circle cx="687" cy="188" r="5" fill="#6CA3FF"/>
<circle cx="707" cy="188" r="5" fill="#6CA3FF"/>
<circle cx="727" cy="188" r="5" fill="#6CA3FF"/>
<circle cx="747" cy="188" r="5" fill="#6CA3FF"/>
<circle cx="767" cy="188" r="5" fill="#6CA3FF"/>
<circle cx="787" cy="188" r="5" fill="#6CA3FF"/>
<circle cx="807" cy="188" r="5" fill="#6CA3FF"/>
<circle cx="827" cy="188" r="5" fill="#6CA3FF"/>
<circle cx="847" cy="188" r="5" fill="#6CA3FF"/>
</g>
</svg>
