<?xml version="1.0" encoding="UTF-8" standalone="no"?>
<!DOCTYPE svg PUBLIC "-//W3C//DTD SVG 1.1//EN" "http://www.w3.org/Graphics/SVG/1.1/DTD/svg11.dtd">
<svg width="100%" height="100%" viewBox="0 0 1083 1083" version="1.1" xmlns="http://www.w3.org/2000/svg" xmlns:xlink="http://www.w3.org/1999/xlink" xml:space="preserve" xmlns:serif="http://www.serif.com/" style="fill-rule:evenodd;clip-rule:evenodd;stroke-linejoin:round;stroke-miterlimit:2;">
    <g transform="matrix(1,0,0,1,-518,-519)">
        <g transform="matrix(4.16667,0,0,4.16667,0,0)">
            <path d="M282.489,332.733L225.24,332.733C225.24,332.733 227.838,323.163 230.505,313.311C233.926,300.67 230.604,287.216 221.762,277.556C201.597,255.526 179.397,223.076 179.397,186.842C179.397,176.046 180.338,165.637 181.999,155.671L325.786,155.671C327.392,165.637 328.388,176.046 328.388,186.842C328.388,223.085 306.141,255.543 285.986,277.574C277.162,287.219 273.841,300.647 277.24,313.271C279.897,323.137 282.489,332.733 282.489,332.733Z" style="fill:rgb(234,157,59);fill-rule:nonzero;"/>
            <path d="M228.244,321.66L228.243,321.66C228.949,319.056 229.724,316.196 230.505,313.311C229.724,316.196 228.949,319.056 228.244,321.66ZM230.505,313.311C230.513,313.281 230.521,313.251 230.529,313.221C230.521,313.251 230.513,313.281 230.505,313.311ZM277.24,313.271C276.146,309.209 275.748,305.064 276.005,300.988L276.079,300.988C275.82,305.066 276.146,309.206 277.24,313.271ZM230.533,313.207C231.614,309.164 231.936,305.045 231.679,300.988L231.752,300.988C232.008,305.042 231.614,309.166 230.533,313.207Z" style="fill:rgb(229,229,229);fill-rule:nonzero;"/>
            <path d="M279.501,321.66L228.244,321.66C228.949,319.056 229.724,316.196 230.505,313.311C230.513,313.281 230.521,313.251 230.529,313.221C230.531,313.216 230.532,313.212 230.533,313.207C231.614,309.166 232.008,305.042 231.752,300.988L276.005,300.988C275.748,305.064 276.146,309.209 277.24,313.271C278.021,316.169 278.796,319.045 279.501,321.66Z" style="fill:rgb(210,142,53);fill-rule:nonzero;"/>
            <path d="M325.902,156.4C325.864,156.157 325.825,155.913 325.786,155.671C325.825,155.914 325.864,156.156 325.902,156.4Z" style="fill:rgb(229,229,229);fill-rule:nonzero;"/>
            <path d="M327.327,167.533L180.436,167.533C180.852,163.521 181.352,159.552 181.999,155.671L325.786,155.671C325.825,155.913 325.864,156.157 325.902,156.4C326.473,160.049 326.935,163.772 327.327,167.533Z" style="fill:rgb(210,142,53);fill-rule:nonzero;"/>
            <rect x="167.517" y="130.534" width="172.695" height="25.137" style="fill:rgb(234,157,59);fill-rule:nonzero;"/>
            <path d="M340.212,140.471L340.212,130.534L340.212,140.471Z" style="fill:white;fill-rule:nonzero;"/>
            <rect x="167.517" y="130.534" width="172.695" height="9.937" style="fill:rgb(243,196,137);fill-rule:nonzero;"/>
            <path d="M340.212,155.671L325.786,155.671L340.212,155.671L340.212,145.734L340.212,155.671Z" style="fill:rgb(229,229,229);fill-rule:nonzero;"/>
            <path d="M340.212,155.671L325.786,155.671L181.999,155.671L167.517,155.671L167.517,145.734L340.212,145.734L340.212,155.671Z" style="fill:rgb(210,142,53);fill-rule:nonzero;"/>
            <rect x="192.977" y="321.66" width="119.616" height="55.987" style="fill:rgb(102,108,163);fill-rule:nonzero;"/>
            <rect x="192.977" y="321.66" width="119.616" height="14.005" style="fill:rgb(163,167,199);fill-rule:nonzero;"/>
            <rect x="192.977" y="363.642" width="119.616" height="14.005" style="fill:rgb(92,98,147);fill-rule:nonzero;"/>
            <path d="M252.785,173.932L261.665,191.926L281.523,194.812L267.154,208.818L270.546,228.596L252.785,219.258L235.024,228.596L238.416,208.818L224.047,194.812L243.904,191.926L252.785,173.932Z" style="fill:rgb(252,243,114);fill-rule:nonzero;"/>
            <path d="M235.009,228.595L238.394,208.826L227.834,198.503L238.416,208.818L235.025,228.587L235.009,228.595ZM276.696,199.532C276.693,199.531 276.689,199.529 276.686,199.527L281.523,194.812L261.665,191.926L261.655,191.904L281.531,194.805L276.696,199.532ZM224.056,194.81L224.05,194.805L243.914,191.906L243.904,191.926L224.056,194.81ZM261.584,191.761L252.785,173.932L249.675,180.234L252.791,173.908L261.584,191.761Z" style="fill:rgb(210,142,53);fill-rule:nonzero;"/>
            <path d="M235.025,228.587L238.416,208.818L227.834,198.503L224.056,194.81L243.904,191.926L243.914,191.906L243.927,191.904L249.675,180.234L252.785,173.932L261.584,191.761L261.655,191.904L261.665,191.926L281.523,194.812L276.686,199.527C273.949,198.026 270.836,197.223 267.456,197.223C256.551,197.223 247.741,206.033 247.741,216.938C247.741,218.549 247.956,220.107 248.278,221.611L235.025,228.587Z" style="fill:rgb(229,216,100);fill-rule:nonzero;"/>
            <path d="M343.892,227.413C337.607,241.273 325.95,250.889 315.475,250.889C314.722,250.889 314.024,250.781 313.326,250.674C324.822,232.194 333.739,210.384 333.739,186.855L333.739,185.726C335.136,185.941 336.533,186.264 337.768,186.801C348.781,191.797 351.574,210.384 343.892,227.413ZM282.007,273.935C271.907,285.001 268.147,300.258 272.069,314.655L272.498,316.266L235.27,316.266C235.27,315.729 243.328,293.167 225.708,273.935C186.868,231.388 181.174,198.619 186.6,161.015L321.169,161.015C322.404,169.933 322.995,178.42 322.995,186.855C322.995,221.826 300.702,253.521 282.007,273.935ZM307.201,327.01L307.201,372.297L198.364,372.297L198.364,327.01L307.201,327.01ZM163.876,227.413C156.194,210.384 158.988,191.797 170,186.801C171.236,186.264 172.632,185.941 174.029,185.726L174.029,186.855C174.029,210.384 182.947,232.248 194.443,250.674C181.604,252.5 169.356,239.5 163.876,227.413ZM172.901,150.271L172.901,135.928L334.814,135.928L334.814,150.271L172.901,150.271ZM342.227,177.024C340.616,176.325 336.371,174.767 333.202,173.854C332.934,169.61 332.558,165.366 332.02,161.015L340.186,161.015C343.194,161.015 345.558,158.651 345.558,155.643L345.558,130.556C345.558,127.548 343.194,125.184 340.186,125.184L167.529,125.184C164.574,125.184 162.157,127.548 162.157,130.556L162.157,155.643C162.157,163.325 172.471,160.424 175.802,161.015C174.674,169.181 174.513,174.391 174.459,174.928C149.909,176.487 142.496,206.247 154.099,231.872C162.533,250.567 181.711,266.736 200.728,260.075C201.158,260.666 206.798,269.1 217.811,281.187C231.939,296.712 224.204,315.138 224.15,316.266L192.992,316.266C189.984,316.266 187.62,318.684 187.62,321.638L187.62,372.297L169.678,372.297C166.67,372.297 164.306,374.66 164.306,377.669C164.306,380.623 166.67,383.041 169.678,383.041L335.888,383.041C338.896,383.041 341.26,380.623 341.26,377.669C341.26,374.66 338.896,372.297 335.888,372.297L317.945,372.297L317.945,321.638C317.945,318.684 315.582,316.266 312.573,316.266L283.618,316.266L282.437,311.861C276.312,289.46 292.428,280.811 306.987,260.182L307.04,260.075C309.726,261.042 312.52,261.633 315.475,261.633C330.248,261.633 345.611,249.653 353.669,231.872C364.145,208.772 359.095,184.652 342.227,177.024Z" style="fill:rgb(40,59,102);fill-rule:nonzero;"/>
            <path d="M263.42,204.958C262.13,206.194 261.539,207.967 261.862,209.739L263.42,218.764L255.308,214.52C254.502,214.091 253.643,213.876 252.783,213.876C251.924,213.876 251.064,214.091 250.312,214.52L242.146,218.764L243.704,209.739C244.026,207.967 243.436,206.194 242.146,204.958L235.592,198.565L244.671,197.222C246.444,197.008 247.948,195.879 248.7,194.322L252.783,186.049L256.866,194.322C257.618,195.879 259.122,197.008 260.894,197.222L269.973,198.565L263.42,204.958ZM286.627,193.14C285.982,191.206 284.317,189.809 282.275,189.487L265.246,187.016L257.618,171.544C256.704,169.718 254.824,168.536 252.783,168.536C250.741,168.536 248.861,169.718 247.948,171.544L240.32,187.016L223.291,189.487C221.249,189.809 219.584,191.206 218.939,193.14C218.295,195.074 218.832,197.222 220.282,198.673L232.638,210.706L229.737,227.682C229.361,229.723 230.22,231.764 231.886,232.947C233.498,234.128 235.7,234.29 237.527,233.376L252.783,225.318L268.04,233.376C268.845,233.752 269.705,233.967 270.564,233.967C271.639,233.967 272.767,233.645 273.68,232.947C275.345,231.764 276.205,229.723 275.829,227.682L272.928,210.706L285.284,198.673C286.734,197.222 287.271,195.074 286.627,193.14Z" style="fill:rgb(40,59,102);fill-rule:nonzero;"/>
        </g>
    </g>
</svg>
