<?xml version="1.0" encoding="UTF-8" standalone="no"?>
<!DOCTYPE svg PUBLIC "-//W3C//DTD SVG 1.1//EN" "http://www.w3.org/Graphics/SVG/1.1/DTD/svg11.dtd">
<svg width="100%" height="100%" viewBox="0 0 1453 1453" version="1.1" xmlns="http://www.w3.org/2000/svg" xmlns:xlink="http://www.w3.org/1999/xlink" xml:space="preserve" xmlns:serif="http://www.serif.com/" style="fill-rule:evenodd;clip-rule:evenodd;stroke-linecap:round;stroke-linejoin:round;stroke-miterlimit:2;">
    <g transform="matrix(1,0,0,1,-15415,-2076)">
        <g transform="matrix(4.16667,0,0,4.16667,0,0)">
            <path d="M3957.4,678.259C3957.4,728.159 3916.94,768.628 3867.04,768.628C3817.14,768.628 3776.68,728.159 3776.68,678.259C3776.68,628.36 3817.14,587.903 3867.04,587.903C3916.94,587.903 3957.4,628.36 3957.4,678.259Z" style="fill:rgb(175,220,202);fill-rule:nonzero;"/>
            <path d="M3868.76,617.013L3868.76,737.404" style="fill:none;stroke:white;stroke-width:14.54px;"/>
            <path d="M3906.34,652.942C3906.34,640.389 3893.8,630.192 3878.3,630.192L3855.79,630.192C3840.35,630.192 3827.79,640.389 3827.79,652.942L3827.79,654.152C3827.79,661.317 3834.6,667.248 3843.62,671.884L3889.59,681.024" style="fill:none;stroke:white;stroke-width:14.54px;"/>
            <path d="M3827.78,700.392C3827.78,712.964 3840.35,723.178 3855.79,723.178L3878.3,723.178C3893.78,723.178 3906.3,712.964 3906.3,700.392L3906.3,699.166C3906.3,691.992 3899.04,685.743 3889.99,681.117L3844.87,672.137" style="fill:none;stroke:white;stroke-width:14.54px;"/>
            <path d="M4015.53,665.712C4015.53,674.167 4008.67,681.031 4000.21,681.031C3991.76,681.031 3984.91,674.167 3984.91,665.712C3984.91,657.257 3991.76,650.393 4000.21,650.393C4008.67,650.393 4015.53,657.257 4015.53,665.712Z" style="fill:none;stroke:rgb(78,123,159);stroke-width:14.54px;"/>
            <path d="M3973.39,708.73C3973.39,694.226 3985.13,682.487 3999.64,682.487C4014.14,682.487 4025.89,694.226 4025.89,708.73" style="fill:none;stroke:rgb(78,123,159);stroke-width:14.54px;"/>
            <path d="M3886.64,533.473C3886.64,541.929 3879.77,548.792 3871.32,548.792C3862.86,548.792 3856,541.929 3856,533.473C3856,525.017 3862.86,518.155 3871.32,518.155C3879.77,518.155 3886.64,525.017 3886.64,533.473Z" style="fill:none;stroke:rgb(78,123,159);stroke-width:14.54px;"/>
            <path d="M3844.49,576.492C3844.49,562 3856.24,550.248 3870.74,550.248C3885.24,550.248 3896.99,562 3896.99,576.492" style="fill:none;stroke:rgb(78,123,159);stroke-width:14.54px;"/>
            <path d="M3886.64,795.358C3886.64,803.813 3879.77,810.652 3871.32,810.652C3862.86,810.652 3856,803.813 3856,795.358C3856,786.89 3862.86,780.039 3871.32,780.039C3879.77,780.039 3886.64,786.89 3886.64,795.358Z" style="fill:none;stroke:rgb(78,123,159);stroke-width:14.54px;"/>
            <path d="M3844.49,838.376C3844.49,823.885 3856.24,812.121 3870.74,812.121C3885.24,812.121 3896.99,823.885 3896.99,838.376" style="fill:none;stroke:rgb(78,123,159);stroke-width:14.54px;"/>
            <path d="M3752.46,665.712C3752.46,674.167 3745.6,681.031 3737.14,681.031C3728.69,681.031 3721.83,674.167 3721.83,665.712C3721.83,657.257 3728.69,650.393 3737.14,650.393C3745.6,650.393 3752.46,657.257 3752.46,665.712Z" style="fill:none;stroke:rgb(78,123,159);stroke-width:14.54px;"/>
            <path d="M3710.31,708.73C3710.31,694.226 3722.07,682.487 3736.57,682.487C3751.07,682.487 3762.82,694.226 3762.82,708.73" style="fill:none;stroke:rgb(78,123,159);stroke-width:14.54px;"/>
            <path d="M3822.33,805.764C3787.39,793.182 3759.22,766.387 3744.81,732.381" style="fill:none;stroke:rgb(241,173,171);stroke-width:14.54px;"/>
            <path d="M3992.73,725.85C3980.31,760.08 3954.26,787.767 3921.14,802.369" style="fill:none;stroke:rgb(241,173,171);stroke-width:14.54px;"/>
            <path d="M3916.76,556.68C3946,568.307 3970.14,590.032 3984.91,617.531" style="fill:none;stroke:rgb(241,173,171);stroke-width:14.54px;"/>
            <path d="M3747.1,623.397C3762.24,591.526 3789.66,566.617 3823.25,554.791" style="fill:none;stroke:rgb(241,173,171);stroke-width:14.54px;"/>
        </g>
    </g>
</svg>
