<?xml version="1.0" encoding="UTF-8" standalone="no"?>
<!DOCTYPE svg PUBLIC "-//W3C//DTD SVG 1.1//EN" "http://www.w3.org/Graphics/SVG/1.1/DTD/svg11.dtd">
<svg width="100%" height="100%" viewBox="0 0 1087 1091" version="1.1" xmlns="http://www.w3.org/2000/svg" xmlns:xlink="http://www.w3.org/1999/xlink" xml:space="preserve" xmlns:serif="http://www.serif.com/" style="fill-rule:evenodd;clip-rule:evenodd;stroke-linejoin:round;stroke-miterlimit:2;">
    <g transform="matrix(1,0,0,1,0,-2220)">
        <g transform="matrix(5.55556,0,0,5.55556,0,0)">
            <rect x="195.155" y="0" width="6.583" height="595.276" style="fill:white;"/>
            <rect x="0" y="393.54" width="595.275" height="6.583" style="fill:white;"/>
            <path d="M110.426,455.594C109.372,449.189 105.247,444.414 99.764,440.647C97.055,442.43 94.624,444.656 92.788,447.367C91.163,449.766 90.002,452.559 89.528,455.775C92.077,458.134 94.375,461.257 96.343,465.3C98.33,469.378 99.99,474.406 101.243,480.547C101.549,480.657 101.845,480.789 102.126,480.941C102.244,481.005 102.36,481.073 102.475,481.145C109.434,470.407 111.499,462.119 110.426,455.594Z" style="fill:rgb(151,196,96);"/>
            <path d="M129.058,472.648C132.856,467.368 133.32,461.067 132.106,454.518C128.928,453.863 125.634,453.717 122.419,454.335C119.569,454.884 116.774,456.036 114.171,457.968C114.304,461.442 113.715,465.287 112.235,469.562C110.743,473.874 108.343,478.625 104.862,483.876C104.992,484.159 105.101,484.452 105.187,484.75C105.218,484.862 105.248,484.975 105.273,485.09C117.839,482.425 125.189,478.025 129.058,472.648Z" style="fill:rgb(0,179,223);"/>
            <path d="M130.176,497.858C136.602,496.816 141.39,492.684 145.166,487.188C143.382,484.478 141.156,482.047 138.446,480.211C136.046,478.586 133.253,477.425 130.038,476.953C127.664,479.513 124.517,481.824 120.435,483.803C116.315,485.799 111.235,487.464 105.026,488.714C104.922,488.988 104.8,489.254 104.66,489.51C104.608,489.605 104.554,489.699 104.498,489.79C115.293,496.823 123.622,498.921 130.176,497.858Z" style="fill:rgb(0,172,233);"/>
            <path d="M113.153,516.473C118.435,520.28 124.741,520.746 131.295,519.531C131.95,516.351 132.096,513.057 131.477,509.843C130.929,506.994 129.776,504.198 127.844,501.594C124.354,501.728 120.489,501.133 116.192,499.64C111.859,498.134 107.083,495.713 101.806,492.203C101.549,492.324 101.285,492.427 101.014,492.513C100.911,492.545 100.807,492.575 100.702,492.602C103.363,505.217 107.768,512.592 113.153,516.473Z" style="fill:rgb(229,59,138);"/>
            <path d="M77.879,489.468C81.953,487.484 86.975,485.826 93.107,484.573C93.203,484.273 93.32,483.982 93.458,483.704C93.524,483.568 93.596,483.436 93.672,483.306C82.944,476.365 74.664,474.311 68.145,475.392C61.752,476.452 56.985,480.572 53.223,486.049C55.007,488.758 57.233,491.19 59.943,493.025C62.343,494.65 65.135,495.811 68.351,496.285C70.711,493.735 73.835,491.437 77.879,489.468Z" style="fill:rgb(239,162,64);"/>
            <path d="M85.185,456.73C79.912,452.956 73.626,452.496 67.094,453.707C66.439,456.884 66.293,460.179 66.912,463.393C67.46,466.243 68.612,469.038 70.545,471.641C74.009,471.508 77.837,472.09 82.085,473.554C86.36,475.028 91.078,477.402 96.297,480.847C96.585,480.705 96.887,480.582 97.203,480.481C97.344,480.436 97.486,480.396 97.631,480.361C94.956,467.876 90.556,460.574 85.185,456.73Z" style="fill:rgb(248,229,75);"/>
            <path d="M87.959,517.621C89.008,524.038 93.136,528.819 98.625,532.589C101.334,530.806 103.766,528.581 105.602,525.869C107.226,523.469 108.387,520.677 108.861,517.461C106.298,515.088 103.988,511.94 102.009,507.858C100.016,503.745 98.354,498.671 97.103,492.474L97.089,492.469L97.086,492.469L97.077,492.466L97.077,492.464L97.063,492.459L97.063,492.46L97.057,492.458L97.038,492.451L97.029,492.449L97.017,492.444L97.017,492.443L96.998,492.437L96.993,492.435L96.981,492.431L96.975,492.429L96.957,492.422L96.944,492.418L96.926,492.412L96.927,492.41L96.899,492.398L96.896,492.398L96.881,492.392L96.863,492.385L96.833,492.373L96.829,492.373L96.823,492.372L96.814,492.368L96.776,492.351L96.773,492.35L96.772,492.352L96.766,492.35L96.75,492.341L96.741,492.339L96.706,492.325L96.703,492.324L96.689,492.319L96.654,492.304L96.655,492.303L96.648,492.3L96.631,492.291L96.614,492.285L96.614,492.284L96.604,492.28L96.597,492.276L96.597,492.277L96.588,492.273L96.587,492.273L96.583,492.271L96.575,492.267L96.562,492.261L96.549,492.257L96.524,492.246L96.525,492.245L96.506,492.238L96.497,492.234L96.487,492.229L96.483,492.225L96.476,492.221L96.471,492.221L96.454,492.213L96.433,492.206L96.42,492.199L96.421,492.198L96.419,492.198L96.402,492.187L96.381,492.176L96.37,492.17L96.369,492.172L96.352,492.165L96.347,492.16C96.226,492.1 96.107,492.038 95.99,491.97C88.976,502.754 86.889,511.073 87.959,517.621Z" style="fill:rgb(213,63,114);"/>
            <path d="M69.315,500.619C65.533,505.894 65.071,512.183 66.282,518.718C69.461,519.373 72.755,519.519 75.97,518.901C78.819,518.352 81.614,517.201 84.218,515.268C84.085,511.794 84.674,507.948 86.154,503.671C87.644,499.368 90.037,494.626 93.507,489.389L93.481,489.345L93.481,489.327L93.479,489.328L93.47,489.31L93.468,489.302L93.466,489.298L93.466,489.297L93.466,489.293L93.448,489.257L93.44,489.242L93.437,489.235L93.435,489.235L93.427,489.217L93.418,489.2L93.41,489.183L93.401,489.165L93.393,489.147L93.395,489.147L93.392,489.141L93.385,489.124L93.38,489.117L93.38,489.116L93.366,489.09L93.36,489.077L93.362,489.076L93.36,489.071L93.356,489.067L93.353,489.06L93.349,489.043L93.346,489.038L93.344,489.039L93.34,489.031L93.323,488.998L93.319,488.987L93.322,488.986L93.32,488.982L93.315,488.969L93.311,488.958L93.303,488.942L93.3,488.936L93.295,488.923L93.287,488.901L93.283,488.893L93.267,488.852L93.263,488.845L93.262,488.846L93.255,488.829L93.256,488.829L93.246,488.802L93.245,488.8L93.244,488.798L93.235,488.777L93.229,488.759L93.225,488.746L93.212,488.711L93.211,488.712L93.21,488.707L93.197,488.673L93.194,488.665L93.193,488.666L93.191,488.659L93.188,488.648L93.185,488.641L93.186,488.64L93.182,488.629L93.178,488.618L93.174,488.609L93.167,488.59L93.163,488.586L93.16,488.577L93.16,488.574L93.154,488.557L93.154,488.548C93.11,488.421 93.07,488.293 93.035,488.165C80.499,490.836 73.171,495.24 69.315,500.619Z" style="fill:rgb(229,98,86);"/>
            <path d="M116.298,443.174C118.719,443.174 120.681,445.136 120.681,447.557C120.681,449.977 118.719,451.94 116.298,451.94C113.877,451.94 111.916,449.977 111.916,447.557C111.916,445.136 113.877,443.174 116.298,443.174Z" style="fill:rgb(0,179,223);"/>
            <path d="M142.008,467.993C143.72,469.705 143.72,472.479 142.008,474.191C140.296,475.902 137.522,475.902 135.811,474.191C134.099,472.479 134.099,469.705 135.811,467.993C137.522,466.282 140.296,466.282 142.008,467.993Z" style="fill:rgb(0,172,233);"/>
            <path d="M142.639,503.722C142.639,506.142 140.676,508.104 138.256,508.104C135.835,508.104 133.874,506.142 133.874,503.722C133.874,501.301 135.835,499.339 138.256,499.339C140.676,499.339 142.639,501.301 142.639,503.722Z" style="fill:rgb(229,59,138);"/>
            <path d="M117.82,529.432C116.108,531.143 113.334,531.143 111.622,529.432C109.911,527.72 109.911,524.946 111.622,523.234C113.334,521.523 116.108,521.523 117.82,523.234C119.532,524.946 119.532,527.72 117.82,529.432Z" style="fill:rgb(213,63,114);"/>
            <path d="M82.091,530.062C79.67,530.062 77.709,528.1 77.709,525.68C77.709,523.259 79.67,521.297 82.091,521.297C84.512,521.297 86.474,523.259 86.474,525.68C86.474,528.1 84.512,530.062 82.091,530.062Z" style="fill:rgb(229,98,86);"/>
            <path d="M56.381,505.244C54.669,503.532 54.669,500.757 56.381,499.045C58.093,497.334 60.867,497.334 62.579,499.045C64.291,500.757 64.291,503.532 62.579,505.244C60.867,506.956 58.093,506.956 56.381,505.244Z" style="fill:rgb(239,162,64);"/>
            <path d="M55.751,469.515C55.751,467.094 57.713,465.132 60.133,465.132C62.554,465.132 64.516,467.094 64.516,469.515C64.516,471.935 62.554,473.897 60.133,473.897C57.713,473.897 55.751,471.935 55.751,469.515Z" style="fill:rgb(248,229,75);"/>
            <path d="M80.569,443.804C82.281,442.093 85.056,442.093 86.767,443.804C88.479,445.516 88.479,448.291 86.767,450.002C85.056,451.714 82.281,451.714 80.569,450.002C78.857,448.291 78.857,445.516 80.569,443.804Z" style="fill:rgb(151,196,96);"/>
            <g transform="matrix(0.18,0,0,0.18,2.58508,-6.03833)">
                <text x="303.485px" y="3160.02px" style="font-family:'Gilroy-Light', 'Gilroy';font-weight:300;font-size:83.333px;fill:rgb(51,51,51);">Qipas Angin</text>
            </g>
        </g>
        <g id="Layer1">
        </g>
    </g>
</svg>
