<?xml version="1.0" encoding="UTF-8" standalone="no"?>
<!DOCTYPE svg PUBLIC "-//W3C//DTD SVG 1.1//EN" "http://www.w3.org/Graphics/SVG/1.1/DTD/svg11.dtd">
<svg width="100%" height="100%" viewBox="0 0 3133 2756" version="1.1" xmlns="http://www.w3.org/2000/svg" xmlns:xlink="http://www.w3.org/1999/xlink" xml:space="preserve" xmlns:serif="http://www.serif.com/" style="fill-rule:evenodd;clip-rule:evenodd;stroke-linejoin:round;stroke-miterlimit:2;">
    <g transform="matrix(4.16667,0,0,4.16667,-12960,-1301)">
        <g transform="matrix(1,0,0,1,24.2135,-336.005)">
            <path d="M3412.97,696.714C3278.84,696.714 3166.33,789.221 3135.72,913.909L3207.61,982.209L3135.27,1048.67C3165.22,1174.29 3278.18,1267.7 3412.97,1267.7C3570.64,1267.7 3698.46,1139.88 3698.46,982.209C3698.46,824.535 3570.64,696.714 3412.97,696.714Z" style="fill:rgb(255,229,36);fill-rule:nonzero;"/>
        </g>
        <g transform="matrix(1,0,0,1,24.2135,-336.005)">
            <path d="M3734.88,988.721C3739.03,988.721 3742.39,985.357 3742.39,981.207C3742.39,922.477 3727.23,866.08 3698.79,816.465C3698.64,816.029 3698.45,815.601 3698.21,815.186C3669.57,765.502 3628.32,723.827 3578.93,694.663C3528.05,664.62 3469.75,648.74 3410.34,648.74C3371.9,648.74 3334.22,655.253 3298.36,668.097C3263.7,680.51 3231.5,698.539 3202.67,721.682C3144.94,768.01 3103.89,832.981 3087.07,904.628C3086.47,907.179 3087.25,909.858 3089.12,911.697L3158.87,980.378L3088.95,1049.19C3085.99,1052.1 3085.96,1056.86 3088.87,1059.82C3090.34,1061.31 3092.28,1062.06 3094.22,1062.06C3096.12,1062.06 3098.03,1061.34 3099.49,1059.9L3174.85,985.733C3176.29,984.321 3177.1,982.393 3177.1,980.38C3177.1,978.366 3176.29,976.438 3174.85,975.024L3102.69,903.973C3137.68,763.096 3262.42,664.851 3407.96,663.791C3408.71,664.04 3409.51,664.181 3410.34,664.181C3585.15,664.181 3727.37,806.398 3727.37,981.207C3727.37,985.357 3730.73,988.721 3734.88,988.721Z" style="fill:rgb(0,97,255);fill-rule:nonzero;"/>
        </g>
        <g transform="matrix(1,0,0,1,24.2135,-336.005)">
            <path d="M3294.25,1277.25C3285.15,1273.5 3276.11,1269.27 3267.38,1264.68C3265.42,1263.65 3263,1264.4 3261.96,1266.36C3260.93,1268.32 3261.69,1270.74 3263.65,1271.77C3272.59,1276.47 3281.87,1280.81 3291.2,1284.66C3291.7,1284.87 3292.21,1284.96 3292.72,1284.96C3294.3,1284.96 3295.79,1284.03 3296.43,1282.48C3297.27,1280.44 3296.3,1278.09 3294.25,1277.25Z" style="fill:rgb(19,54,93);fill-rule:nonzero;"/>
        </g>
        <g transform="matrix(1,0,0,1,24.2135,-336.005)">
            <path d="M3350.93,1294.64C3341.28,1292.64 3331.6,1290.16 3322.18,1287.27C3320.06,1286.62 3317.83,1287.81 3317.18,1289.92C3316.53,1292.04 3317.72,1294.28 3319.83,1294.93C3329.49,1297.9 3339.41,1300.44 3349.3,1302.49C3349.57,1302.55 3349.85,1302.58 3350.12,1302.58C3351.98,1302.58 3353.64,1301.27 3354.04,1299.38C3354.48,1297.21 3353.09,1295.09 3350.93,1294.64Z" style="fill:rgb(19,54,93);fill-rule:nonzero;"/>
        </g>
        <g transform="matrix(1,0,0,1,24.2135,-336.005)">
            <path d="M3409.82,1301.26C3399.95,1301.06 3389.99,1300.41 3380.22,1299.31C3378.03,1299.06 3376.04,1300.65 3375.79,1302.85C3375.54,1305.05 3377.13,1307.03 3379.33,1307.28C3389.33,1308.4 3399.54,1309.07 3409.66,1309.27L3409.74,1309.27C3411.92,1309.27 3413.7,1307.53 3413.75,1305.35C3413.79,1303.13 3412.03,1301.3 3409.82,1301.26Z" style="fill:rgb(19,54,93);fill-rule:nonzero;"/>
        </g>
        <g transform="matrix(1,0,0,1,24.2135,-336.005)">
            <path d="M3241.78,1249.66C3233.53,1244.29 3225.42,1238.47 3217.69,1232.35C3215.95,1230.98 3213.43,1231.27 3212.06,1233.01C3210.69,1234.75 3210.98,1237.27 3212.72,1238.64C3220.65,1244.91 3228.96,1250.88 3237.41,1256.38C3238.09,1256.82 3238.84,1257.03 3239.59,1257.03C3240.91,1257.03 3242.19,1256.39 3242.96,1255.21C3244.16,1253.35 3243.64,1250.87 3241.78,1249.66Z" style="fill:rgb(19,54,93);fill-rule:nonzero;"/>
        </g>
        <g transform="matrix(1,0,0,1,24.2135,-336.005)">
            <path d="M3114.84,1089.82C3114.09,1087.74 3111.79,1086.67 3109.71,1087.42C3107.63,1088.17 3106.55,1090.47 3107.3,1092.55C3110.74,1102.04 3114.66,1111.49 3118.96,1120.62C3119.65,1122.07 3121.09,1122.92 3122.59,1122.92C3123.16,1122.92 3123.74,1122.8 3124.29,1122.54C3126.3,1121.6 3127.15,1119.21 3126.21,1117.21C3122.02,1108.3 3118.19,1099.08 3114.84,1089.82Z" style="fill:rgb(19,54,93);fill-rule:nonzero;"/>
        </g>
        <g transform="matrix(1,0,0,1,24.2135,-336.005)">
            <path d="M3174.77,1191.46C3173.32,1189.8 3170.78,1189.62 3169.12,1191.08C3167.45,1192.53 3167.28,1195.07 3168.73,1196.73C3175.37,1204.34 3182.44,1211.73 3189.76,1218.7C3190.53,1219.44 3191.53,1219.8 3192.52,1219.8C3193.58,1219.8 3194.64,1219.39 3195.42,1218.56C3196.95,1216.96 3196.89,1214.42 3195.29,1212.9C3188.15,1206.09 3181.24,1198.88 3174.77,1191.46Z" style="fill:rgb(19,54,93);fill-rule:nonzero;"/>
        </g>
        <g transform="matrix(1,0,0,1,24.2135,-336.005)">
            <path d="M3140.08,1143.42C3138.96,1141.51 3136.5,1140.88 3134.59,1142C3132.69,1143.13 3132.05,1145.59 3133.18,1147.49C3138.31,1156.19 3143.91,1164.75 3149.82,1172.93C3150.6,1174.02 3151.83,1174.59 3153.07,1174.59C3153.88,1174.59 3154.7,1174.35 3155.41,1173.84C3157.21,1172.54 3157.61,1170.04 3156.31,1168.24C3150.55,1160.25 3145.08,1151.9 3140.08,1143.42Z" style="fill:rgb(19,54,93);fill-rule:nonzero;"/>
        </g>
        <g transform="matrix(1,0,0,1,24.2135,-336.005)">
            <path d="M3674.1,1178.06C3672.36,1176.69 3669.84,1177 3668.48,1178.74C3662.39,1186.48 3655.86,1194.04 3649.08,1201.19C3647.56,1202.8 3647.63,1205.33 3649.24,1206.86C3650.01,1207.59 3651,1207.96 3651.99,1207.96C3653.06,1207.96 3654.12,1207.54 3654.9,1206.7C3661.85,1199.37 3668.54,1191.63 3674.78,1183.69C3676.15,1181.95 3675.84,1179.43 3674.1,1178.06Z" style="fill:rgb(19,54,93);fill-rule:nonzero;"/>
        </g>
        <g transform="matrix(1,0,0,1,24.2135,-336.005)">
            <path d="M3728.19,1071.49C3726.07,1070.85 3723.84,1072.04 3723.2,1074.16C3720.35,1083.59 3717.01,1093 3713.29,1102.13C3712.46,1104.18 3713.44,1106.51 3715.49,1107.35C3715.99,1107.55 3716.5,1107.65 3717,1107.65C3718.58,1107.65 3720.08,1106.71 3720.71,1105.15C3724.53,1095.79 3727.95,1086.15 3730.87,1076.48C3731.51,1074.36 3730.31,1072.13 3728.19,1071.49Z" style="fill:rgb(19,54,93);fill-rule:nonzero;"/>
        </g>
        <g transform="matrix(1,0,0,1,24.2135,-336.005)">
            <path d="M3706.23,1127.35C3704.27,1126.33 3701.85,1127.09 3700.83,1129.05C3699.38,1131.82 3697.87,1134.62 3696.33,1137.38L3692.72,1143.26C3690.48,1147.06 3688.13,1150.87 3685.72,1154.59C3684.52,1156.45 3685.05,1158.93 3686.91,1160.13C3687.58,1160.56 3688.34,1160.77 3689.08,1160.77C3690.4,1160.77 3691.69,1160.13 3692.45,1158.94C3694.92,1155.13 3697.33,1151.22 3699.59,1147.39L3703.21,1141.5L3703.29,1141.36C3704.88,1138.51 3706.44,1135.62 3707.93,1132.75C3708.96,1130.79 3708.19,1128.37 3706.23,1127.35Z" style="fill:rgb(19,54,93);fill-rule:nonzero;"/>
        </g>
        <g transform="matrix(1,0,0,1,24.2135,-336.005)">
            <path d="M3468.94,1297.03C3459.24,1298.63 3449.33,1299.8 3439.48,1300.5C3437.27,1300.66 3435.61,1302.58 3435.77,1304.79C3435.92,1306.9 3437.68,1308.51 3439.76,1308.51C3439.86,1308.51 3439.95,1308.51 3440.05,1308.5C3450.14,1307.78 3460.3,1306.58 3470.25,1304.94C3472.43,1304.58 3473.91,1302.52 3473.55,1300.33C3473.19,1298.15 3471.13,1296.66 3468.94,1297.03Z" style="fill:rgb(19,54,93);fill-rule:nonzero;"/>
        </g>
        <g transform="matrix(1,0,0,1,24.2135,-336.005)">
            <path d="M3739.42,1012.52C3737.23,1012.29 3735.25,1013.87 3735.01,1016.07C3733.95,1025.88 3732.42,1035.75 3730.46,1045.39C3730.02,1047.56 3731.42,1049.68 3733.58,1050.12C3733.86,1050.17 3734.12,1050.2 3734.39,1050.2C3736.25,1050.2 3737.92,1048.89 3738.31,1046.99C3740.32,1037.1 3741.89,1026.99 3742.98,1016.93C3743.21,1014.73 3741.62,1012.76 3739.42,1012.52Z" style="fill:rgb(19,54,93);fill-rule:nonzero;"/>
        </g>
        <g transform="matrix(1,0,0,1,24.2135,-336.005)">
            <path d="M3526.25,1281.99C3517,1285.37 3507.48,1288.34 3497.96,1290.85C3495.82,1291.41 3494.54,1293.6 3495.1,1295.74C3495.57,1297.54 3497.19,1298.73 3498.97,1298.73C3499.31,1298.73 3499.65,1298.69 3499.99,1298.6C3509.76,1296.03 3519.52,1292.98 3528.99,1289.52C3531.07,1288.76 3532.14,1286.46 3531.38,1284.38C3530.62,1282.3 3528.32,1281.24 3526.25,1281.99Z" style="fill:rgb(19,54,93);fill-rule:nonzero;"/>
        </g>
        <g transform="matrix(1,0,0,1,24.2135,-336.005)">
            <path d="M3627.71,1221.77C3620.31,1228.27 3612.51,1234.5 3604.54,1240.29C3602.75,1241.59 3602.35,1244.1 3603.65,1245.89C3604.44,1246.97 3605.66,1247.54 3606.9,1247.54C3607.72,1247.54 3608.54,1247.29 3609.25,1246.78C3617.42,1240.84 3625.41,1234.45 3633,1227.79C3634.66,1226.33 3634.83,1223.8 3633.37,1222.14C3631.91,1220.47 3629.37,1220.31 3627.71,1221.77Z" style="fill:rgb(19,54,93);fill-rule:nonzero;"/>
        </g>
        <g transform="matrix(1,0,0,1,24.2135,-336.005)">
            <path d="M3579.77,1256.6C3571.29,1261.63 3562.49,1266.32 3553.59,1270.54C3551.59,1271.49 3550.74,1273.88 3551.69,1275.88C3552.38,1277.33 3553.81,1278.17 3555.31,1278.17C3555.89,1278.17 3556.47,1278.05 3557.03,1277.78C3566.15,1273.46 3575.17,1268.65 3583.86,1263.49C3585.76,1262.36 3586.39,1259.9 3585.26,1258C3584.13,1256.1 3581.67,1255.47 3579.77,1256.6Z" style="fill:rgb(19,54,93);fill-rule:nonzero;"/>
        </g>
        <g transform="matrix(0.999999,0,0,0.999999,3174.31,-741.59)">
            <path d="M286.586,1430.1L361.468,1408.6C368.495,1406.59 375.747,1410.98 377.229,1418.14C378.432,1423.95 375.398,1429.82 369.956,1432.19L256.281,1490.56C242.182,1497.8 225.211,1496.51 212.373,1487.21L188.455,1469.9C184.031,1466.7 178.709,1464.97 173.247,1464.97L159.215,1464.97L159.215,1397.09L195.236,1397.09C209.769,1397.09 223.484,1403.82 232.378,1415.31L271.343,1415.31C279.766,1415.31 286.594,1422.14 286.594,1430.57C286.594,1438.99 279.766,1445.82 271.343,1445.82L234.122,1445.82L286.586,1430.1Z" style="fill:rgb(234,157,59);fill-rule:nonzero;"/>
        </g>
        <g transform="matrix(0.999999,0,0,0.999999,3174.31,-741.59)">
            <path d="M286.587,1430.1C286.342,1421.89 279.611,1415.31 271.343,1415.31L232.378,1415.31C223.484,1403.82 209.769,1397.09 195.236,1397.09L159.223,1397.09L159.223,1397.08L195.215,1397.08C209.774,1397.08 223.472,1403.79 232.39,1415.29L271.337,1415.29C279.605,1415.29 286.37,1421.94 286.593,1430.1L286.586,1430.1M376.289,1415.31C374.912,1412.39 372.477,1410.17 369.579,1409.01C372.483,1410.16 374.92,1412.39 376.289,1415.31Z" style="fill:white;fill-rule:nonzero;"/>
        </g>
        <g transform="matrix(0.999999,0,0,0.999999,3174.31,-741.59)">
            <path d="M286.593,1442.09C286.539,1440.16 286.11,1438.28 285.412,1436.56L285.412,1436.51C284.552,1434.63 283.37,1432.96 281.919,1431.51C279.18,1428.88 275.42,1427.27 271.337,1427.27L232.39,1427.27C223.472,1415.77 209.774,1409.06 195.215,1409.06L159.223,1409.06L159.223,1397.83L159.223,1397.09L195.236,1397.09C209.769,1397.09 223.484,1403.82 232.378,1415.31L271.343,1415.31C279.611,1415.31 286.342,1421.89 286.587,1430.1L286.593,1430.1L286.593,1430.11L361.479,1408.63C362.649,1408.29 363.826,1408.13 364.98,1408.13C366.579,1408.13 368.137,1408.44 369.579,1409.01C372.477,1410.17 374.912,1412.39 376.289,1415.31C376.342,1415.43 376.394,1415.54 376.444,1415.66C376.049,1414.77 375.555,1413.96 374.985,1413.22C373.91,1416.33 371.493,1418.96 368.323,1420.36L368.094,1420.48C367.072,1420.21 366.008,1420.07 364.925,1420.07C363.788,1420.07 362.631,1420.22 361.479,1420.55L286.593,1442.09Z" style="fill:rgb(243,196,137);fill-rule:nonzero;"/>
        </g>
        <g transform="matrix(0.999999,0,0,0.999999,3174.31,-741.59)">
            <path d="M237.051,1495.23C228.343,1495.23 219.688,1492.54 212.374,1487.24L188.468,1469.94C184.063,1466.72 178.745,1465 173.265,1465L159.245,1465L159.245,1464.97L173.247,1464.97C178.709,1464.97 184.031,1466.7 188.455,1469.9L212.373,1487.21C219.692,1492.51 228.353,1495.21 237.06,1495.21C243.626,1495.21 250.219,1493.68 256.281,1490.56L369.956,1432.19C375.398,1429.82 378.432,1423.95 377.229,1418.14C377.055,1417.3 376.804,1416.5 376.482,1415.75C376.813,1416.5 377.071,1417.31 377.241,1418.16C377.402,1419.02 377.509,1419.88 377.509,1420.74C377.509,1425.63 374.609,1430.19 369.989,1432.23L256.316,1490.57C250.238,1493.69 243.628,1495.23 237.051,1495.23Z" style="fill:rgb(229,229,229);fill-rule:nonzero;"/>
        </g>
        <g transform="matrix(0.999999,0,0,0.999999,3174.31,-741.59)">
            <path d="M237.06,1495.21C228.353,1495.21 219.692,1492.51 212.373,1487.21L188.455,1469.9C184.031,1466.7 178.709,1464.97 173.247,1464.97L159.245,1464.97L159.245,1453.13L171.6,1453.13C177.08,1453.13 182.398,1454.85 186.803,1458.07L210.708,1475.37C218.022,1480.66 226.678,1483.36 235.385,1483.36C241.964,1483.36 248.571,1481.82 254.652,1478.7L368.094,1420.48C371.409,1421.36 374.284,1423.58 375.93,1426.68C376.951,1424.85 377.488,1422.81 377.488,1420.71C377.488,1419.85 377.38,1418.99 377.219,1418.14C377.043,1417.27 376.781,1416.44 376.444,1415.66C376.457,1415.69 376.47,1415.72 376.482,1415.75C376.804,1416.5 377.055,1417.3 377.229,1418.14C378.432,1423.95 375.398,1429.82 369.956,1432.19L256.281,1490.56C250.219,1493.68 243.626,1495.21 237.06,1495.21Z" style="fill:rgb(210,142,53);fill-rule:nonzero;"/>
        </g>
        <g transform="matrix(0.999999,0,0,0.999999,3174.31,-741.59)">
            <path d="M375.93,1426.68C374.284,1423.58 371.409,1421.36 368.094,1420.48L368.323,1420.36C371.493,1418.96 373.91,1416.33 374.985,1413.22C375.555,1413.96 376.049,1414.77 376.444,1415.66C376.781,1416.44 377.043,1417.27 377.219,1418.14C377.38,1418.99 377.488,1419.85 377.488,1420.71C377.488,1422.81 376.951,1424.85 375.93,1426.68Z" style="fill:rgb(217,176,124);fill-rule:nonzero;"/>
        </g>
        <g transform="matrix(0.999999,0,0,0.999999,3174.31,-741.59)">
            <path d="M159.215,1397.8L159.215,1470.12C159.215,1476.05 154.413,1480.85 148.49,1480.85L130.377,1480.85L130.377,1387.08L148.49,1387.08C154.413,1387.08 159.215,1391.88 159.215,1397.8Z" style="fill:rgb(226,118,121);fill-rule:nonzero;"/>
        </g>
        <g transform="matrix(0.999999,0,0,0.999999,3174.31,-741.59)">
            <path d="M159.215,1397.8C159.215,1396.34 158.921,1394.94 158.389,1393.67C158.876,1394.83 159.166,1396.09 159.215,1397.42L159.215,1397.8Z" style="fill:white;fill-rule:nonzero;"/>
        </g>
        <g transform="matrix(0.999999,0,0,0.999999,3174.31,-741.59)">
            <path d="M159.223,1410.56C159.223,1410.42 159.22,1410.29 159.215,1410.15L159.215,1397.8L159.215,1397.42C159.22,1397.55 159.223,1397.69 159.223,1397.83L159.223,1410.56Z" style="fill:rgb(243,196,137);fill-rule:nonzero;"/>
        </g>
        <g transform="matrix(0.999999,0,0,0.999999,3174.31,-741.59)">
            <rect x="130.375" y="1387.08" width="0.002" height="12.74" style="fill:white;fill-rule:nonzero;"/>
        </g>
        <g transform="matrix(0.999999,0,0,0.999999,3174.31,-741.59)">
            <path d="M159.215,1410.15C158.999,1404.38 154.252,1399.82 148.479,1399.82L130.377,1399.82L130.377,1387.08L148.479,1387.08C152.923,1387.08 156.76,1389.79 158.389,1393.67C158.921,1394.94 159.215,1396.34 159.215,1397.8L159.215,1410.15Z" style="fill:rgb(239,173,175);fill-rule:nonzero;"/>
        </g>
        <g transform="matrix(0.999999,0,0,0.999999,3174.31,-741.59)">
            <path d="M148.479,1480.85L130.375,1480.85L130.375,1468.12L130.377,1468.12L130.377,1480.85L148.479,1480.85ZM154.665,1478.89C157.417,1476.95 159.215,1473.75 159.215,1470.12L159.215,1464.97L159.223,1464.97L159.223,1470.16C159.223,1473.77 157.418,1476.96 154.665,1478.89Z" style="fill:rgb(229,229,229);fill-rule:nonzero;"/>
        </g>
        <g transform="matrix(0.999999,0,0,0.999999,3174.31,-741.59)">
            <path d="M159.223,1464.97L159.215,1464.97L159.215,1457.83C159.22,1457.7 159.223,1457.56 159.223,1457.43L159.223,1464.97Z" style="fill:rgb(210,142,53);fill-rule:nonzero;"/>
        </g>
        <g transform="matrix(0.999999,0,0,0.999999,3174.31,-741.59)">
            <path d="M148.479,1480.85L130.377,1480.85L130.377,1468.12L148.479,1468.12C154.252,1468.12 158.999,1463.55 159.215,1457.83L159.215,1470.12C159.215,1473.75 157.417,1476.95 154.665,1478.89C152.913,1480.12 150.778,1480.85 148.479,1480.85Z" style="fill:rgb(206,106,110);fill-rule:nonzero;"/>
        </g>
        <g transform="matrix(0.999999,0,0,0.999999,3174.31,-741.59)">
            <path d="M365.359,1314.41L365.359,1328.83C365.359,1330.47 364.234,1331.89 362.644,1332.26L354.215,1334.24C352.939,1334.53 351.97,1335.53 351.643,1336.8C350.278,1342.1 348.208,1347.1 345.512,1351.71C344.855,1352.83 344.838,1354.2 345.521,1355.31L350.055,1362.68C350.909,1364.07 350.699,1365.86 349.546,1367.01L339.356,1377.2C338.203,1378.35 336.41,1378.56 335.023,1377.71L327.658,1373.18C326.55,1372.49 325.175,1372.51 324.051,1373.17C319.441,1375.86 314.447,1377.93 309.147,1379.3C307.878,1379.63 306.88,1380.59 306.581,1381.87L304.605,1390.3C304.232,1391.89 302.813,1393.01 301.179,1393.01L286.751,1393.01C285.117,1393.01 283.698,1391.89 283.326,1390.3L281.35,1381.87C281.051,1380.59 280.052,1379.63 278.784,1379.3C273.484,1377.93 268.49,1375.86 263.879,1373.17C262.756,1372.51 261.38,1372.49 260.272,1373.18L252.907,1377.71C251.52,1378.56 249.727,1378.35 248.575,1377.2L238.384,1367.01C237.232,1365.86 237.021,1364.07 237.876,1362.68L242.41,1355.31C243.092,1354.2 243.075,1352.83 242.418,1351.71C239.722,1347.1 237.653,1342.1 236.287,1336.8C235.96,1335.53 234.991,1334.53 233.715,1334.24L225.287,1332.26C223.696,1331.89 222.571,1330.47 222.571,1328.83L222.571,1314.41C222.571,1312.77 223.696,1311.35 225.287,1310.98L233.715,1309C234.991,1308.71 235.96,1307.71 236.287,1306.44C237.653,1301.14 239.722,1296.14 242.418,1291.53C243.075,1290.41 243.092,1289.04 242.41,1287.93L237.876,1280.56C237.021,1279.17 237.232,1277.38 238.384,1276.23L248.575,1266.04C249.727,1264.89 251.52,1264.68 252.907,1265.53L260.272,1270.06C261.38,1270.75 262.756,1270.73 263.879,1270.07C268.49,1267.38 273.484,1265.31 278.784,1263.94C280.052,1263.61 281.051,1262.65 281.35,1261.37L283.326,1252.94C283.698,1251.35 285.117,1250.23 286.751,1250.23L301.179,1250.23C302.813,1250.23 304.232,1251.35 304.605,1252.94L306.581,1261.37C306.88,1262.65 307.878,1263.61 309.147,1263.94C314.447,1265.31 319.441,1267.38 324.051,1270.07C325.175,1270.73 326.55,1270.75 327.658,1270.06L335.023,1265.53C336.41,1264.68 338.203,1264.89 339.356,1266.04L349.546,1276.23C350.699,1277.38 350.909,1279.17 350.055,1280.56L345.521,1287.93C344.838,1289.04 344.855,1290.41 345.512,1291.53C348.208,1296.14 350.278,1301.14 351.643,1306.44C351.97,1307.71 352.939,1308.71 354.215,1309L362.644,1310.98C364.234,1311.35 365.359,1312.77 365.359,1314.41Z" style="fill:rgb(215,141,162);fill-rule:nonzero;"/>
        </g>
        <g transform="matrix(0.999999,0,0,0.999999,3174.31,-741.59)">
            <path d="M345.062,1289.39L345.033,1289.36C345.047,1289.22 345.069,1289.09 345.1,1288.95C345.075,1289.1 345.062,1289.24 345.062,1289.39ZM242.887,1289.39C242.887,1289.32 242.883,1289.26 242.875,1289.19C242.885,1289.25 242.893,1289.31 242.899,1289.38L242.887,1289.39ZM242.724,1288.59C242.639,1288.36 242.527,1288.14 242.403,1287.94L238.69,1281.88L242.41,1287.93C242.54,1288.14 242.644,1288.36 242.724,1288.59ZM345.329,1288.28C345.385,1288.16 345.449,1288.04 345.521,1287.93L350.055,1280.56C350.602,1279.67 350.712,1278.62 350.418,1277.67C350.718,1278.62 350.607,1279.69 350.059,1280.58L345.546,1287.94C345.463,1288.05 345.391,1288.17 345.329,1288.28ZM350.417,1277.67C350.416,1277.67 350.416,1277.66 350.415,1277.66C350.416,1277.66 350.416,1277.67 350.417,1277.67ZM237.694,1277.21C237.86,1276.85 238.088,1276.52 238.374,1276.23L248.581,1266.02C248.968,1265.64 249.436,1265.36 249.941,1265.19C249.439,1265.36 248.969,1265.64 248.575,1266.04L238.384,1276.23C238.093,1276.52 237.863,1276.85 237.694,1277.21ZM344.673,1271.36L339.356,1266.04C339.021,1265.7 338.632,1265.45 338.215,1265.28C338.633,1265.45 339.025,1265.7 339.368,1266.02L344.673,1271.36ZM326.551,1270.5C326.932,1270.42 327.305,1270.27 327.657,1270.05L332.759,1266.92L327.658,1270.06C327.31,1270.28 326.936,1270.42 326.551,1270.5ZM261.288,1270.48C260.935,1270.4 260.592,1270.26 260.272,1270.06L252.907,1265.53C252.712,1265.41 252.509,1265.31 252.301,1265.23C252.518,1265.31 252.73,1265.41 252.932,1265.54L260.292,1270.05C260.601,1270.25 260.939,1270.4 261.288,1270.48ZM324.984,1270.46C324.662,1270.37 324.347,1270.25 324.051,1270.07C321.785,1268.75 319.427,1267.57 316.984,1266.56C319.429,1267.57 321.789,1268.73 324.058,1270.05C324.354,1270.24 324.665,1270.37 324.984,1270.46ZM263.216,1270.38C263.448,1270.29 263.675,1270.19 263.891,1270.05C265.313,1269.23 266.77,1268.46 268.26,1267.76C266.765,1268.47 265.304,1269.24 263.879,1270.07C263.666,1270.2 263.444,1270.3 263.216,1270.38ZM275.686,1264.83C276.704,1264.5 277.733,1264.2 278.772,1263.93C280.061,1263.61 281.028,1262.64 281.351,1261.35L282.1,1258.17L281.35,1261.37C281.051,1262.65 280.052,1263.61 278.784,1263.94C277.739,1264.21 276.706,1264.51 275.686,1264.83ZM311.004,1264.45C310.389,1264.27 309.77,1264.1 309.147,1263.94C307.878,1263.61 306.88,1262.65 306.581,1261.37L304.605,1252.94C304.328,1251.76 303.477,1250.84 302.389,1250.44C303.488,1250.84 304.332,1251.76 304.611,1252.92L306.599,1261.35C306.868,1262.64 307.888,1263.61 309.124,1263.93C309.755,1264.09 310.382,1264.27 311.004,1264.45Z" style="fill:white;fill-rule:nonzero;"/>
        </g>
        <g transform="matrix(0.999999,0,0,0.999999,3174.31,-741.59)">
            <path d="M242.899,1289.38C242.893,1289.31 242.885,1289.25 242.875,1289.19C242.852,1288.99 242.798,1288.78 242.724,1288.59C242.644,1288.36 242.54,1288.14 242.41,1287.93L238.69,1281.88L237.891,1280.58C237.25,1279.54 237.206,1278.26 237.694,1277.21C237.863,1276.85 238.093,1276.52 238.384,1276.23L248.575,1266.04C248.969,1265.64 249.439,1265.36 249.941,1265.19C250.302,1265.07 250.681,1265.01 251.063,1265.01C251.48,1265.01 251.9,1265.09 252.301,1265.23C252.509,1265.31 252.712,1265.41 252.907,1265.53L260.272,1270.06C260.592,1270.26 260.935,1270.4 261.288,1270.48C261.544,1270.54 261.807,1270.58 262.071,1270.58C262.456,1270.58 262.844,1270.51 263.216,1270.38C263.444,1270.3 263.666,1270.2 263.879,1270.07C265.304,1269.24 266.765,1268.47 268.26,1267.76C270.656,1266.62 273.135,1265.65 275.686,1264.83C276.706,1264.51 277.739,1264.21 278.784,1263.94C280.052,1263.61 281.051,1262.65 281.35,1261.37L282.1,1258.17L283.338,1252.92C283.714,1251.36 285.111,1250.23 286.776,1250.23L301.173,1250.23C301.6,1250.23 302.01,1250.3 302.389,1250.44C303.477,1250.84 304.328,1251.76 304.605,1252.94L306.581,1261.37C306.88,1262.65 307.878,1263.61 309.147,1263.94C309.77,1264.1 310.389,1264.27 311.004,1264.45C313.049,1265.06 315.043,1265.76 316.984,1266.56C319.427,1267.57 321.785,1268.75 324.051,1270.07C324.347,1270.25 324.662,1270.37 324.984,1270.46C325.271,1270.54 325.564,1270.58 325.857,1270.58C326.09,1270.58 326.322,1270.55 326.551,1270.5C326.936,1270.42 327.31,1270.28 327.658,1270.06L332.759,1266.92L335.017,1265.54C335.593,1265.18 336.234,1265.01 336.871,1265.01C337.329,1265.01 337.786,1265.1 338.215,1265.28C338.632,1265.45 339.021,1265.7 339.356,1266.04L344.673,1271.36L349.521,1276.23C349.945,1276.63 350.245,1277.13 350.415,1277.66C350.416,1277.66 350.416,1277.67 350.417,1277.67L350.418,1277.67C350.712,1278.62 350.602,1279.67 350.055,1280.56L345.521,1287.93C345.449,1288.04 345.385,1288.16 345.329,1288.28C345.218,1288.5 345.142,1288.72 345.1,1288.95C345.069,1289.09 345.047,1289.22 345.033,1289.36L339.368,1283.7C338.673,1283 337.774,1282.66 336.867,1282.66C336.232,1282.66 335.592,1282.83 335.017,1283.16L327.657,1287.73C327.105,1288.07 326.5,1288.23 325.895,1288.23C325.265,1288.23 324.633,1288.05 324.058,1287.73C319.438,1285.04 314.442,1282.94 309.124,1281.6C307.888,1281.28 306.868,1280.31 306.599,1279.02L304.611,1270.59C304.235,1269.03 302.838,1267.9 301.173,1267.9L286.776,1267.9C285.111,1267.9 283.714,1269.03 283.338,1270.59L281.351,1279.02C281.028,1280.31 280.061,1281.28 278.772,1281.6C273.507,1282.94 268.511,1285.04 263.891,1287.73C263.316,1288.05 262.67,1288.23 262.034,1288.23C261.422,1288.23 260.818,1288.07 260.292,1287.73L252.932,1283.16C252.357,1282.83 251.709,1282.66 251.066,1282.66C250.149,1282.66 249.244,1283 248.581,1283.7L242.899,1289.38Z" style="fill:rgb(231,186,198);fill-rule:nonzero;"/>
        </g>
        <g transform="matrix(0.999999,0,0,0.999999,3174.31,-741.59)">
            <path d="M301.558,1392.99C302.638,1392.88 303.59,1392.27 304.156,1391.37C303.592,1392.27 302.65,1392.88 301.558,1392.99ZM304.582,1390.39C304.584,1390.38 304.585,1390.38 304.586,1390.38C304.585,1390.38 304.584,1390.38 304.582,1390.39ZM304.587,1390.37C304.593,1390.35 304.599,1390.32 304.605,1390.3L306.581,1381.87C306.609,1381.75 306.644,1381.63 306.686,1381.51C306.651,1381.62 306.622,1381.73 306.599,1381.84L304.611,1390.27C304.604,1390.31 304.595,1390.34 304.587,1390.37ZM251.914,1378.13C252.258,1378.04 252.593,1377.9 252.907,1377.71L254.946,1376.45L252.932,1377.7C252.611,1377.9 252.267,1378.04 251.914,1378.13ZM240.723,1369.35L238.374,1367.01C238.264,1366.9 238.162,1366.78 238.07,1366.65C238.165,1366.78 238.27,1366.9 238.384,1367.01L240.723,1369.35ZM350.544,1365C350.652,1364.21 350.494,1363.39 350.055,1362.68L345.521,1355.31C345.408,1355.13 345.315,1354.94 345.24,1354.75C345.317,1354.93 345.419,1355.11 345.546,1355.3L350.059,1362.66C350.503,1363.38 350.66,1364.21 350.544,1365ZM239.183,1360.55L242.403,1355.3C242.672,1354.82 242.833,1354.34 242.887,1353.85L242.899,1353.86C242.849,1354.37 242.687,1354.86 242.41,1355.31L239.183,1360.55ZM345.107,1354.31C345.073,1354.17 345.048,1354.03 345.033,1353.88L345.062,1353.85C345.062,1354.01 345.077,1354.17 345.107,1354.31Z" style="fill:rgb(229,229,229);fill-rule:nonzero;"/>
        </g>
        <g transform="matrix(0.999999,0,0,0.999999,3174.31,-741.59)">
            <path d="M301.173,1393.01L286.776,1393.01C285.111,1393.01 283.714,1391.89 283.338,1390.27L281.351,1381.84C281.028,1380.55 280.061,1379.58 278.772,1379.26C273.507,1377.92 268.511,1375.82 263.891,1373.14C263.327,1372.81 262.696,1372.65 262.071,1372.65C261.446,1372.65 260.829,1372.81 260.292,1373.14L254.946,1376.45L252.907,1377.71C252.593,1377.9 252.258,1378.04 251.914,1378.13C251.64,1378.19 251.361,1378.23 251.083,1378.23C250.161,1378.23 249.249,1377.87 248.581,1377.17L240.723,1369.35L238.384,1367.01C238.27,1366.9 238.165,1366.78 238.07,1366.65C237.214,1365.49 237.115,1363.92 237.891,1362.66L239.183,1360.55L242.41,1355.31C242.687,1354.86 242.849,1354.37 242.899,1353.86L248.581,1359.55C249.244,1360.21 250.147,1360.56 251.062,1360.56C251.706,1360.56 252.356,1360.38 252.932,1360.03L260.292,1355.52C260.84,1355.16 261.471,1354.99 262.109,1354.99C262.721,1354.99 263.338,1355.15 263.891,1355.46C268.511,1358.2 273.507,1360.24 278.772,1361.64C280.061,1361.96 281.028,1362.93 281.351,1364.17L283.338,1372.6C283.714,1374.21 285.111,1375.34 286.776,1375.34L301.173,1375.34C302.838,1375.34 304.235,1374.21 304.611,1372.6L306.599,1364.17C306.868,1362.93 307.888,1361.96 309.124,1361.64C314.442,1360.24 319.438,1358.2 324.058,1355.46C324.611,1355.15 325.215,1354.99 325.82,1354.99C326.451,1354.99 327.082,1355.16 327.657,1355.52L335.017,1360.03C335.593,1360.38 336.234,1360.56 336.871,1360.56C337.777,1360.56 338.674,1360.21 339.368,1359.55L345.033,1353.88C345.048,1354.03 345.073,1354.17 345.107,1354.31C345.136,1354.46 345.181,1354.6 345.24,1354.75C345.315,1354.94 345.408,1355.13 345.521,1355.31L350.055,1362.68C350.494,1363.39 350.652,1364.21 350.544,1365C350.437,1365.73 350.092,1366.44 349.521,1367.01L339.368,1377.17C338.669,1377.87 337.763,1378.23 336.85,1378.23C336.22,1378.23 335.587,1378.05 335.017,1377.7L327.657,1373.14C327.093,1372.81 326.475,1372.65 325.857,1372.65C325.24,1372.65 324.622,1372.81 324.058,1373.14C319.438,1375.82 314.442,1377.92 309.124,1379.26C307.996,1379.56 307.047,1380.39 306.686,1381.51C306.644,1381.63 306.609,1381.75 306.581,1381.87L304.605,1390.3C304.599,1390.32 304.593,1390.35 304.587,1390.37L304.586,1390.38C304.585,1390.38 304.584,1390.38 304.582,1390.39C304.488,1390.74 304.342,1391.07 304.156,1391.37C303.59,1392.27 302.638,1392.88 301.558,1392.99C301.432,1393.01 301.303,1393.01 301.173,1393.01Z" style="fill:rgb(194,128,145);fill-rule:nonzero;"/>
        </g>
        <g transform="matrix(0.999999,0,0,0.999999,3174.31,-741.59)">
            <path d="M325.717,1321.61C325.717,1339.16 311.518,1353.39 293.965,1353.39C276.412,1353.39 262.214,1339.16 262.214,1321.61C262.214,1304.08 276.412,1289.85 293.965,1289.85C311.518,1289.85 325.717,1304.08 325.717,1321.61Z" style="fill:rgb(234,244,252);fill-rule:nonzero;"/>
        </g>
        <g transform="matrix(0.999999,0,0,0.999999,3174.31,-741.59)">
            <path d="M367.494,1427.41L253.823,1485.8C218.045,1504.17 201.66,1459.58 173.242,1459.58L164.593,1459.58L164.593,1402.48L195.214,1402.48C207.999,1402.48 220.301,1408.5 228.144,1418.59C229.165,1419.94 230.723,1420.69 232.388,1420.69L271.335,1420.69C276.654,1420.69 281.005,1424.88 281.22,1430.14L281.22,1430.57C281.22,1436 276.815,1440.46 271.335,1440.46L234.107,1440.46C231.153,1440.46 228.735,1442.88 228.735,1445.83C228.735,1448.79 231.153,1451.2 234.107,1451.2L271.335,1451.2C281.435,1451.2 289.922,1443.84 291.642,1434.23L362.928,1413.76C366.957,1412.63 371.094,1415.1 371.953,1419.24C372.652,1422.52 370.879,1425.9 367.494,1427.41ZM153.849,1470.11C153.849,1473.07 151.432,1475.48 148.477,1475.48L135.745,1475.48L135.745,1392.43L148.477,1392.43C151.432,1392.43 153.849,1394.85 153.849,1397.81L153.849,1470.11ZM382.482,1417.04C380.387,1406.83 370.019,1400.55 359.973,1403.45L290.675,1423.32C287.72,1415.53 280.199,1409.95 271.335,1409.95L234.913,1409.95C225.028,1398.5 210.417,1391.73 195.214,1391.73L163.358,1391.73C160.994,1385.88 155.192,1381.69 148.477,1381.69L130.373,1381.69C127.419,1381.69 125.001,1384.11 125.001,1387.06L125.001,1480.86C125.001,1483.81 127.419,1486.23 130.373,1486.23L148.477,1486.23C157.287,1486.23 164.432,1479.14 164.539,1470.33L173.242,1470.33C194.301,1470.33 217.346,1516.58 258.711,1495.36L372.114,1437.13C379.85,1433.74 384.201,1425.31 382.482,1417.04Z" style="fill:rgb(40,59,102);fill-rule:nonzero;"/>
        </g>
        <g transform="matrix(0.999999,0,0,0.999999,3174.31,-741.59)">
            <path d="M359.973,1327.38L352.99,1328.99C349.767,1329.74 347.296,1332.21 346.436,1335.44C345.2,1340.22 343.32,1344.78 340.903,1348.97C339.184,1351.82 339.237,1355.37 340.957,1358.11L344.717,1364.23L336.605,1372.34L330.481,1368.58C327.741,1366.92 324.142,1366.86 321.349,1368.53C317.105,1371 312.592,1372.88 307.811,1374.11C304.588,1374.92 302.117,1377.45 301.365,1380.67L299.7,1387.65L288.203,1387.65L286.592,1380.67C285.84,1377.45 283.369,1374.92 280.145,1374.11C275.364,1372.88 270.798,1371 266.608,1368.53C263.761,1366.86 260.161,1366.92 257.476,1368.58L251.351,1372.34L243.24,1364.23L247,1358.16C248.719,1355.37 248.719,1351.87 247.054,1348.97C244.583,1344.78 242.703,1340.22 241.467,1335.49C240.661,1332.21 238.136,1329.74 234.967,1328.99L227.929,1327.38L227.929,1315.88L234.967,1314.22C238.136,1313.46 240.661,1310.99 241.467,1307.77C242.703,1303.04 244.583,1298.48 247.054,1294.23C248.719,1291.39 248.719,1287.89 247,1285.1L243.24,1278.98L251.351,1270.86L257.476,1274.62C260.215,1276.34 263.815,1276.34 266.608,1274.73C270.798,1272.26 275.364,1270.38 280.145,1269.15C283.369,1268.29 285.84,1265.81 286.592,1262.59L288.203,1255.61L299.7,1255.61L301.365,1262.59C302.117,1265.81 304.588,1268.29 307.811,1269.15C312.592,1270.38 317.105,1272.26 321.349,1274.73C324.142,1276.34 327.741,1276.34 330.481,1274.62L336.605,1270.86L344.717,1278.98L340.957,1285.1C339.237,1287.89 339.184,1291.39 340.849,1294.23C343.32,1298.48 345.2,1303.04 346.436,1307.77C347.296,1310.99 349.767,1313.46 352.99,1314.22L359.973,1315.88L359.973,1327.38ZM363.895,1305.73L356.536,1304.01C355.193,1299.07 353.205,1294.29 350.68,1289.77L354.601,1283.38C356.804,1279.84 356.267,1275.38 353.366,1272.42L343.159,1262.22C340.312,1259.42 335.638,1258.83 332.2,1260.98L325.807,1264.9C321.349,1262.38 316.514,1260.39 311.572,1259.05L309.853,1251.74C308.886,1247.66 305.34,1244.86 301.204,1244.86L286.753,1244.86C282.617,1244.86 279.017,1247.66 278.104,1251.74L276.385,1259.05C271.389,1260.39 266.608,1262.38 262.095,1264.9L255.703,1260.98C252.318,1258.83 247.645,1259.42 244.797,1262.22L234.591,1272.42C231.636,1275.38 231.153,1279.84 233.301,1283.38L237.223,1289.77C234.698,1294.23 232.764,1299.07 231.367,1304.01L224.061,1305.73C220.032,1306.7 217.185,1310.24 217.185,1314.43L217.185,1328.83C217.185,1332.96 220.032,1336.56 224.061,1337.48L231.367,1339.2C232.764,1344.19 234.698,1348.97 237.223,1353.49L233.301,1359.88C231.153,1363.37 231.636,1367.88 234.591,1370.78L244.797,1380.99C247.591,1383.84 252.318,1384.38 255.703,1382.28L262.095,1378.36C266.608,1380.88 271.389,1382.82 276.385,1384.21L278.104,1391.52C279.017,1395.55 282.617,1398.4 286.753,1398.4L301.204,1398.4C305.34,1398.4 308.886,1395.55 309.853,1391.52L311.572,1384.21C316.514,1382.82 321.349,1380.88 325.807,1378.36L332.2,1382.28C335.638,1384.38 340.312,1383.84 343.159,1380.99L353.366,1370.78C356.267,1367.88 356.804,1363.37 354.601,1359.88L350.68,1353.49C353.205,1348.97 355.193,1344.19 356.536,1339.2L363.895,1337.48C367.924,1336.56 370.717,1332.96 370.717,1328.83L370.717,1314.43C370.717,1310.24 367.924,1306.7 363.895,1305.73Z" style="fill:rgb(40,59,102);fill-rule:nonzero;"/>
        </g>
        <g transform="matrix(0.999999,0,0,0.999999,3174.31,-741.59)">
            <path d="M293.951,1348.01C279.393,1348.01 267.575,1336.19 267.575,1321.63C267.575,1307.07 279.393,1295.25 293.951,1295.25C308.51,1295.25 320.328,1307.07 320.328,1321.63C320.328,1336.19 308.51,1348.01 293.951,1348.01ZM293.951,1284.51C273.484,1284.51 256.831,1301.16 256.831,1321.63C256.831,1342.1 273.484,1358.75 293.951,1358.75C314.419,1358.75 331.072,1342.1 331.072,1321.63C331.072,1301.16 314.419,1284.51 293.951,1284.51Z" style="fill:rgb(40,59,102);fill-rule:nonzero;"/>
        </g>
    </g>
</svg>
