<?xml version="1.0" encoding="UTF-8" standalone="no"?>
<!DOCTYPE svg PUBLIC "-//W3C//DTD SVG 1.1//EN" "http://www.w3.org/Graphics/SVG/1.1/DTD/svg11.dtd">
<svg width="100%" height="100%" viewBox="0 0 417 417" version="1.1" xmlns="http://www.w3.org/2000/svg" xmlns:xlink="http://www.w3.org/1999/xlink" xml:space="preserve" xmlns:serif="http://www.serif.com/" style="fill-rule:evenodd;clip-rule:evenodd;stroke-linejoin:round;stroke-miterlimit:2;">
    <g transform="matrix(1,0,0,1,-8,-1370)">
        <g id="Artboard4" transform="matrix(0.984076,0,0,1.0869,0.0421087,-119.191)">
            <rect x="8.087" y="1370.13" width="423.409" height="383.355" style="fill:none;"/>
            <g transform="matrix(4.23409,0,0,3.83355,-1092.87,1335.16)">
                <path d="M300.069,94.021L293.156,90.03L276.608,67.391L281.29,64.651C276.737,61.282 273.064,54.986 278.936,52.127C280.682,51.277 283.121,50.629 285.649,50.629C287.197,50.629 288.779,50.872 290.257,51.46C290.773,51.665 291.257,51.89 291.723,52.124C292.716,52.228 293.72,52.419 294.702,52.715C296.192,53.164 297.52,53.769 298.724,54.45L300.327,53.553L305.368,54.199L305.853,54.477L311.718,49.107C312.118,48.707 312.666,48.495 313.183,48.495C313.526,48.495 313.856,48.589 314.119,48.784L319.817,53.004C320.476,53.492 320.471,54.431 319.805,55.098L314.743,59.407L326.649,67.101L330.928,62.931C331.068,62.79 331.241,62.732 331.432,62.732C332.145,62.732 333.116,63.546 333.635,63.931L337.585,68.388C338.923,69.421 328.006,79.099 326.102,80.367C325.381,80.846 324.657,81.316 323.931,81.785C320.712,83.181 317.511,84.76 314.324,86.421C310.948,88.181 307.295,90.011 303.912,92.144C302.734,92.658 301.557,93.204 300.381,93.821C300.264,93.882 300.164,93.951 300.069,94.021ZM285.661,51.841C282.386,51.841 279.526,53.299 278.885,54.829C277.71,57.633 279.451,61.115 282.821,63.755L284.664,62.677C281.94,59.628 280.403,56.176 283.348,53.889C284.516,52.983 286.237,52.376 288.19,52.142C287.339,51.934 286.487,51.841 285.661,51.841ZM290.321,53.21C287.107,53.21 284.635,54.636 284.405,56.286C284.167,58.003 284.982,59.873 286.377,61.675L294.658,56.83C293.973,55.66 292.678,54.248 290.894,53.225C290.701,53.215 290.51,53.21 290.321,53.21ZM294.672,54.041C295.35,54.612 295.917,55.212 296.381,55.821L297.283,55.293C296.478,54.819 295.607,54.39 294.672,54.041Z" style="fill:rgb(2,4,0);fill-opacity:0.06;fill-rule:nonzero;"/>
            </g>
            <g transform="matrix(4.23409,0,0,3.83355,-1092.87,1335.16)">
                <path d="M307.26,35.478C301.01,38.438 300.009,48.633 301.481,54.499C301.776,55.673 303.587,55.175 303.292,54C302.11,49.29 302.857,43.46 305.581,39.416C307.383,36.741 311.842,34.995 314.388,37.594C316.375,39.623 316.622,43.728 316.21,46.379C316.027,47.563 317.836,48.072 318.022,46.878C318.54,43.539 318.092,39.792 316.228,36.917C314.225,33.827 310.223,34.075 307.26,35.478Z" style="fill:rgb(86,97,107);fill-rule:nonzero;"/>
            </g>
            <g transform="matrix(4.23409,0,0,3.83355,-1092.87,1335.16)">
                <path d="M320.743,50.988L328.958,46.245L322.246,42.268L320.743,50.988Z" style="fill:rgb(206,187,178);fill-rule:nonzero;"/>
            </g>
            <g transform="matrix(4.23409,0,0,3.83355,-1092.87,1335.16)">
                <path d="M296.23,57.289L304.455,62.231L322.469,52.536L322.246,42.268L296.23,57.289Z" style="fill:rgb(222,208,202);fill-rule:nonzero;"/>
            </g>
            <g transform="matrix(4.23409,0,0,3.83355,-1092.87,1335.16)">
                <path d="M296.23,57.289L293.156,90.03L306.444,97.701L302.942,61.266L296.23,57.289Z" style="fill:rgb(213,197,189);fill-rule:nonzero;"/>
            </g>
            <g transform="matrix(4.23409,0,0,3.83355,-1092.87,1335.16)">
                <path d="M300.318,87.9L301.24,88.145L301.468,60.392L300.563,59.856L300.318,87.9Z" style="fill:rgb(175,145,130);fill-rule:nonzero;"/>
            </g>
            <g transform="matrix(4.23409,0,0,3.83355,-1092.87,1335.16)">
                <path d="M302.942,61.266L306.444,97.701L332.461,82.681L328.958,46.245L302.942,61.266Z" style="fill:rgb(229,219,214);fill-rule:nonzero;"/>
            </g>
            <g transform="matrix(4.23409,0,0,3.83355,-1092.87,1335.16)">
                <path d="M293.156,90.03L293.576,90.272L301.319,87.981L300.95,87.469L293.156,90.03Z" style="fill:rgb(175,145,130);fill-rule:nonzero;"/>
            </g>
            <g transform="matrix(4.23409,0,0,3.83355,-1092.87,1335.16)">
                <path d="M300.458,87.635L305.584,97.205L306.444,97.701L301.005,87.485L300.458,87.635Z" style="fill:rgb(175,145,130);fill-rule:nonzero;"/>
            </g>
            <g transform="matrix(4.23409,0,0,3.83355,-1092.87,1335.16)">
                <path d="M310.505,70.429L296.985,78.235C296.081,78.757 295.346,80.03 295.346,81.073L295.346,90.101C295.346,91.145 296.081,91.569 296.985,91.048L310.505,83.242C311.297,82.784 314.697,76.45 316.122,73.748C316.213,73.576 316.212,73.397 316.12,73.331C314.696,72.306 311.296,69.972 310.505,70.429Z" style="fill:rgb(252,224,4);fill-rule:nonzero;"/>
            </g>
            <g transform="matrix(4.23409,0,0,3.83355,-1092.87,1335.16)">
                <path d="M298.34,83.192C297.684,83.283 297.398,83.283 297.398,82.909C297.398,82.604 297.639,82.204 298.136,81.917C298.634,81.629 298.996,81.586 299.2,81.581L299.456,80.363C299.154,80.38 298.732,80.485 298.159,80.816C296.961,81.508 296.237,82.691 296.237,83.692C296.237,84.545 296.787,84.767 297.632,84.619C298.242,84.519 298.483,84.589 298.483,84.954C298.483,85.338 298.204,85.751 297.677,86.056C297.187,86.339 296.712,86.43 296.403,86.426L296.169,87.658C296.456,87.674 297.029,87.518 297.609,87.183C299.003,86.378 299.659,85.164 299.659,84.18C299.659,83.353 299.237,83.057 298.34,83.192Z" style="fill:rgb(238,36,36);fill-rule:nonzero;"/>
            </g>
            <g transform="matrix(4.23409,0,0,3.83355,-1092.87,1335.16)">
                <path d="M301.787,82.185L302.089,80.766C302.172,80.379 302.247,79.892 302.323,79.5L302.338,79.491C302.413,79.796 302.503,80.179 302.594,80.475L302.911,81.537L301.787,82.185ZM301.621,78.913L300.069,85.676L301.259,84.988L301.621,83.273L303.076,82.433L303.468,83.713L304.704,82.999L303.129,78.042L301.621,78.913Z" style="fill:rgb(238,36,36);fill-rule:nonzero;"/>
            </g>
            <g transform="matrix(4.23409,0,0,3.83355,-1092.87,1335.16)">
                <path d="M306.539,76.073L305.385,76.739L305.385,82.606L308.559,80.774L308.559,79.659L306.539,80.826L306.539,76.073Z" style="fill:rgb(238,36,36);fill-rule:nonzero;"/>
            </g>
            <g transform="matrix(4.23409,0,0,3.83355,-1092.87,1335.16)">
                <path d="M310.393,77.234L312.262,76.155L312.262,75.075L310.393,76.155L310.393,74.936L312.375,73.792L312.375,72.704L309.24,74.514L309.24,80.381L312.481,78.509L312.481,77.421L310.393,78.627L310.393,77.234Z" style="fill:rgb(238,36,36);fill-rule:nonzero;"/>
            </g>
            <g transform="matrix(4.23409,0,0,3.83355,-1092.87,1335.16)">
                <path d="M342.468,61.25L329.494,68.741C328.702,69.198 325.302,75.532 323.877,78.235C323.786,78.407 323.787,78.585 323.879,78.651C325.303,79.676 328.703,82.01 329.494,81.553L342.468,74.063C343.372,73.541 344.107,72.268 344.107,71.224L344.107,62.196C344.107,61.153 343.372,60.728 342.468,61.25Z" style="fill:rgb(90,172,224);fill-rule:nonzero;"/>
            </g>
            <g transform="matrix(4.23409,0,0,3.83355,-1092.87,1335.16)">
                <path d="M332.969,73.155C332.47,73.443 332.209,72.952 332.209,72.061C332.209,71.21 332.447,70.392 332.958,70.097C333.491,69.789 333.695,70.339 333.695,71.203C333.695,72.159 333.457,72.873 332.969,73.155ZM334.976,70.372C334.976,68.918 334.262,68.257 332.992,68.99C331.733,69.717 330.928,71.334 330.928,72.854C330.928,74.451 331.812,74.909 332.935,74.261C334.001,73.646 334.976,72.153 334.976,70.372Z" style="fill:rgb(3,4,4);fill-rule:nonzero;"/>
            </g>
            <g transform="matrix(4.23409,0,0,3.83355,-1092.87,1335.16)">
                <path d="M338.664,73.402C338.165,73.69 337.904,73.199 337.915,72.302C337.915,71.451 338.142,70.639 338.664,70.338C339.197,70.03 339.39,70.587 339.39,71.451C339.39,72.407 339.152,73.121 338.664,73.402ZM338.687,69.238C337.428,69.965 336.623,71.582 336.623,73.101C336.634,74.692 337.518,75.151 338.63,74.509C339.696,73.893 340.671,72.401 340.671,70.62C340.671,69.166 339.957,68.505 338.687,69.238Z" style="fill:rgb(3,4,4);fill-rule:nonzero;"/>
            </g>
            <g transform="matrix(4.23409,0,0,3.83355,-1092.87,1335.16)">
                <path d="M337.256,66.528L333.026,77.771L334.332,77.016L338.573,65.768L337.256,66.528Z" style="fill:rgb(3,4,4);fill-rule:nonzero;"/>
            </g>
            <g transform="matrix(4.23409,0,0,3.83355,-1092.87,1335.16)">
                <path d="M340.371,40.351L326.851,48.157C326.06,48.614 322.661,54.873 321.236,57.543C321.144,57.715 321.144,57.894 321.234,57.962C322.659,59.018 326.059,61.427 326.851,60.97L340.371,53.164C341.275,52.642 342.01,51.369 342.01,50.325L342.01,41.297C342.01,40.254 341.275,39.83 340.371,40.351Z" style="fill:rgb(238,44,36);fill-rule:nonzero;"/>
            </g>
            <g transform="matrix(4.23409,0,0,3.83355,-1092.87,1335.16)">
                <path d="M328.245,52.54C328.245,53.364 328.266,54.094 328.337,54.78L328.316,54.792C328.104,54.294 327.821,53.772 327.538,53.356L326.549,51.911L325.291,52.638L325.291,58.138L326.28,57.567L326.28,55.91C326.28,55.012 326.266,54.245 326.238,53.535L326.259,53.515C326.493,54.025 326.804,54.555 327.086,54.98L328.104,56.514L329.235,55.861L329.235,50.361L328.245,50.932L328.245,52.54Z" style="fill:rgb(252,224,4);fill-rule:nonzero;"/>
            </g>
            <g transform="matrix(4.23409,0,0,3.83355,-1092.87,1335.16)">
                <path d="M331.251,52.371L333.004,51.359L333.004,50.347L331.251,51.359L331.251,50.216L333.11,49.143L333.11,48.123L330.17,49.821L330.17,55.321L333.209,53.566L333.209,52.546L331.251,53.677L331.251,52.371Z" style="fill:rgb(252,224,4);fill-rule:nonzero;"/>
            </g>
            <g transform="matrix(4.23409,0,0,3.83355,-1092.87,1335.16)">
                <path d="M338.229,47.42C338.13,48.13 338.024,48.836 337.953,49.489L337.939,49.497C337.869,48.926 337.791,48.383 337.685,47.8L337.303,45.702L336.158,46.363L335.755,48.848C335.635,49.595 335.522,50.321 335.444,50.962L335.43,50.97C335.353,50.46 335.254,49.807 335.148,49.216L334.787,47.155L333.635,47.82L334.766,52.668L335.946,51.986L336.398,49.359C336.512,48.738 336.59,48.171 336.674,47.502L336.688,47.494C336.745,48.089 336.823,48.559 336.914,49.061L337.318,51.195L338.483,50.521L339.713,44.311L338.618,44.943L338.229,47.42Z" style="fill:rgb(252,224,4);fill-rule:nonzero;"/>
            </g>
            <g transform="matrix(4.23409,0,0,3.83355,-1092.87,1335.16)">
                <path d="M309.527,38.995C304,43.143 304.721,53.506 306.244,59.381C306.548,60.553 308.36,60.056 308.055,58.882C306.754,53.86 306.516,47.457 308.871,42.723C310.366,39.719 314.385,38.004 317.091,40.564C319.545,42.886 320.218,47.379 320.515,50.577C320.626,51.773 322.505,51.784 322.394,50.577C322.057,46.953 321.313,42.534 318.827,39.701C316.376,36.906 312.458,36.795 309.527,38.995Z" style="fill:rgb(86,97,107);fill-rule:nonzero;"/>
            </g>
        </g>
    </g>
</svg>
