<?xml version="1.0" encoding="UTF-8" standalone="no"?>
<!DOCTYPE svg PUBLIC "-//W3C//DTD SVG 1.1//EN" "http://www.w3.org/Graphics/SVG/1.1/DTD/svg11.dtd">
<svg width="100%" height="100%" viewBox="0 0 417 417" version="1.1" xmlns="http://www.w3.org/2000/svg" xmlns:xlink="http://www.w3.org/1999/xlink" xml:space="preserve" xmlns:serif="http://www.serif.com/" style="fill-rule:evenodd;clip-rule:evenodd;stroke-linejoin:round;stroke-miterlimit:2;">
    <g transform="matrix(1,0,0,1,-7,-918)">
        <g id="Artboard3" transform="matrix(1.01791,0,0,0.936448,-0.481841,58.2469)">
            <rect x="7.35" y="918.1" width="409.337" height="444.944" style="fill:none;"/>
            <g transform="matrix(3.66683,0,0,3.9858,-615.165,-427.945)">
                <path d="M202.713,441.982C202.106,441.982 201.632,441.925 201.397,441.782C201.033,441.56 191.407,436.233 185.293,432.329C179.729,428.777 184.716,422.157 187.056,418.823C186.202,418.486 185.381,418.091 184.635,417.584L178.527,413.436C172.448,409.307 173.226,401.359 180.261,395.719L197.929,383.003C202.909,379.01 216.467,377.256 216.467,377.256L216.484,377.267C217.549,377.108 218.616,377.028 219.675,377.028C222.953,377.028 226.156,377.795 228.978,379.376C234.703,382.585 240.639,387.463 244.591,390.966C241.997,393.57 239.834,396.672 237.865,399.858C235.738,400.532 233.938,401.212 233.19,401.53L226.607,406.807L229.252,408.603C230.56,409.492 231.41,410.636 231.82,411.906C230.459,412.458 229.136,413.159 227.864,414.083C223.956,416.921 222.02,421.414 217.978,424.212C211.317,428.823 206.267,434.454 204.478,441.877C203.836,441.942 203.227,441.982 202.713,441.982Z" style="fill:rgb(2,4,0);fill-opacity:0.06;fill-rule:nonzero;"/>
            </g>
            <g transform="matrix(3.66683,0,0,3.9858,-615.165,-427.945)">
                <path d="M228.885,385.816L210.69,396.321C204.493,399.899 199.992,407.644 199.492,415.594C198.818,426.317 200.733,439.698 200.754,440.268C200.823,442.114 206.168,443.911 206.168,443.911C206.168,443.911 209.757,430.429 210.93,429.216L228.885,418.85C235.061,415.284 240.087,406.581 240.087,399.448L240.087,392.283C240.087,385.151 235.061,382.25 228.885,385.816Z" style="fill:rgb(22,146,205);fill-rule:nonzero;"/>
            </g>
            <g transform="matrix(3.66683,0,0,3.9858,-615.165,-427.945)">
                <path d="M233.839,388.746L215.644,399.251C209.446,402.829 204.946,410.575 204.446,418.525C203.772,429.247 205.629,442.634 205.708,443.199C205.797,443.836 206.244,444.132 206.833,443.944C206.94,443.911 207.046,443.863 207.153,443.801C207.633,443.524 208.092,442.985 208.367,442.352C209.89,438.85 214.711,433.359 215.884,432.147L233.839,421.781C240.015,418.215 245.041,409.511 245.041,402.379L245.041,395.214C245.041,388.081 240.015,385.18 233.839,388.746Z" style="fill:rgb(90,172,224);fill-rule:nonzero;"/>
            </g>
            <g transform="matrix(3.66683,0,0,3.9858,-615.165,-427.945)">
                <path d="M264.306,344.007C264.306,344.007 254.988,339.032 248.719,342.652L222.63,357.714C213.775,362.827 206.569,375.306 206.569,385.532L206.569,395.806C206.569,407.887 217.258,409.618 217.258,409.618L248.374,390.216C250.057,390.01 256.969,389.902 259.152,392.402C259.545,392.854 260.204,392.867 260.893,392.47C261.045,392.381 261.198,392.274 261.351,392.146C262.195,391.44 262.836,390.275 262.964,389.214C263.078,388.273 265.74,366.005 264.774,351.747C264.563,348.634 264.306,344.007 264.306,344.007Z" style="fill:rgb(187,187,187);fill-rule:nonzero;"/>
            </g>
            <g transform="matrix(3.66683,0,0,3.9858,-615.165,-427.945)">
                <path d="M253.672,345.582L227.584,360.644C218.728,365.757 211.523,378.237 211.523,388.463L211.523,398.737C211.523,408.963 218.728,413.122 227.584,408.01L253.327,393.147C255.01,392.941 261.923,392.832 264.106,395.333C264.5,395.785 265.158,395.798 265.847,395.4C265.999,395.312 266.152,395.205 266.305,395.077C267.149,394.371 267.79,393.206 267.918,392.144C268.031,391.203 270.694,368.936 269.728,354.677C269.011,344.107 262.558,340.452 253.672,345.582Z" style="fill:rgb(231,231,231);fill-rule:nonzero;"/>
            </g>
            <g transform="matrix(3.66683,0,0,3.9858,-615.165,-427.945)">
                <path d="M260.771,367.42L253.722,370.785C253.338,370.963 253.044,371.435 252.992,371.873L250.766,390.439C250.736,390.682 250.793,390.878 250.922,390.977C251.051,391.075 251.24,391.066 251.438,390.952L257.877,387.234C258.202,387.046 258.48,386.62 258.544,386.215L261.38,368.003C261.417,367.763 261.372,367.561 261.256,367.451C261.14,367.339 260.963,367.328 260.771,367.42Z" style="fill:rgb(204,45,39);fill-rule:nonzero;"/>
            </g>
            <g transform="matrix(3.66683,0,0,3.9858,-615.165,-427.945)">
                <path d="M261.927,356.045L245.411,363.922C245.235,364.002 245.034,364.194 244.893,364.424C244.753,364.654 244.673,364.91 244.673,365.13L244.673,378.709C244.673,378.927 244.751,379.09 244.889,379.158C245.016,379.222 245.182,379.201 245.353,379.102L245.399,379.074L261.584,368.451C261.932,368.223 262.206,367.739 262.219,367.33L262.548,356.497C262.56,356.072 262.288,355.873 261.927,356.045Z" style="fill:rgb(239,60,56);fill-rule:nonzero;"/>
            </g>
            <g transform="matrix(3.66683,0,0,3.9858,-615.165,-427.945)">
                <path d="M245.646,363.86L226.254,364.353C226.043,364.357 225.796,364.518 225.598,364.776C225.4,365.034 225.28,365.354 225.28,365.624L225.28,399.248C225.28,399.511 225.395,399.69 225.583,399.727C225.696,399.749 225.828,399.718 225.96,399.641L226.222,399.429L245.615,378.89C245.868,378.622 246.033,378.241 246.033,377.924L246.033,364.345C246.033,364.043 245.883,363.854 245.646,363.86Z" style="fill:white;fill-rule:nonzero;"/>
            </g>
        </g>
    </g>
</svg>
