<?xml version="1.0" encoding="UTF-8" standalone="no"?>
<!DOCTYPE svg PUBLIC "-//W3C//DTD SVG 1.1//EN" "http://www.w3.org/Graphics/SVG/1.1/DTD/svg11.dtd">
<svg width="100%" height="100%" viewBox="0 0 417 417" version="1.1" xmlns="http://www.w3.org/2000/svg" xmlns:xlink="http://www.w3.org/1999/xlink" xml:space="preserve" xmlns:serif="http://www.serif.com/" style="fill-rule:evenodd;clip-rule:evenodd;stroke-linejoin:round;stroke-miterlimit:2;">
    <g transform="matrix(1,0,0,1,-7,-918)">
        <g id="Artboard3" transform="matrix(1.01791,0,0,0.936448,-0.481841,58.2469)">
            <rect x="7.35" y="918.1" width="409.337" height="444.944" style="fill:none;"/>
            <g transform="matrix(3.55259,0,0,3.86162,-1176.44,291.174)">
                <path d="M372.662,255.707C369.135,255.707 365.493,255.086 361.945,253.796C348.385,248.868 338.211,234.984 340.914,221.401C343.123,210.3 352.692,203.621 364.046,203.621C369.334,203.621 375.011,205.071 380.508,208.198C395.741,216.863 400.444,233.746 393.624,244.99C389.435,251.896 381.399,255.707 372.662,255.707Z" style="fill:rgb(2,4,0);fill-opacity:0.06;fill-rule:nonzero;"/>
            </g>
            <g transform="matrix(3.55259,0,0,3.86162,-1176.44,291.174)">
                <path d="M424.96,204.435L434.053,205.31L443.147,200.784L438.99,197.232L424.96,204.435Z" style="fill:rgb(16,38,74);fill-rule:nonzero;"/>
            </g>
            <g transform="matrix(3.55259,0,0,3.86162,-1176.44,291.174)">
                <path d="M423.584,201.735L437.447,194.618L438.141,187.747L427.333,193.939L423.584,201.735Z" style="fill:rgb(16,38,74);fill-rule:nonzero;"/>
            </g>
            <g transform="matrix(3.55259,0,0,3.86162,-1176.44,291.174)">
                <path d="M399.125,188.243C394.481,185.976 388.28,186.53 381.477,190.458C367.117,198.749 355.433,218.985 355.433,235.569C355.433,242.954 357.75,248.388 361.589,251.412C363.866,253.206 368.115,255.306 368.115,255.306C368.115,255.306 377.307,253.015 381.477,250.607C395.839,242.315 407.523,222.079 407.523,205.495C407.523,199.886 405.216,191.777 405.216,191.777C405.216,191.777 400.969,189.144 399.125,188.243Z" style="fill:rgb(44,44,44);fill-rule:nonzero;"/>
            </g>
            <g transform="matrix(3.55259,0,0,3.86162,-1176.44,291.174)">
                <path d="M385.922,193.523C371.776,201.689 360.309,221.551 360.309,237.885C360.309,254.218 371.776,260.84 385.922,252.672C400.067,244.505 411.534,224.643 411.534,208.31C411.534,191.976 400.067,185.356 385.922,193.523Z" style="fill:white;fill-rule:nonzero;"/>
            </g>
            <g transform="matrix(3.55259,0,0,3.86162,-1176.44,291.174)">
                <path d="M385.921,247.046C374.486,253.648 365.182,248.276 365.182,235.071C365.182,221.866 374.486,205.751 385.921,199.149C397.358,192.546 406.661,197.918 406.661,211.123C406.661,224.328 397.358,240.443 385.921,247.046ZM385.921,193.023C371.56,201.314 359.877,221.55 359.877,238.134C359.877,254.718 371.56,261.463 385.921,253.172C400.283,244.88 411.966,224.644 411.966,208.06C411.966,191.477 400.283,184.731 385.921,193.023Z" style="fill:rgb(239,67,35);fill-rule:nonzero;"/>
            </g>
            <g transform="matrix(3.55259,0,0,3.86162,-1176.44,291.174)">
                <path d="M385.921,216.971C382.995,218.66 380.616,222.781 380.616,226.16C380.616,229.539 382.995,230.912 385.921,229.223C388.847,227.534 391.227,223.413 391.227,220.034C391.227,216.655 388.847,215.281 385.921,216.971Z" style="fill:rgb(239,67,35);fill-rule:nonzero;"/>
            </g>
            <g transform="matrix(3.55259,0,0,3.86162,-1176.44,291.174)">
                <path d="M385.921,235.35C380.071,238.727 375.311,235.979 375.311,229.223C375.311,222.467 380.071,214.222 385.921,210.845C391.773,207.466 396.532,210.215 396.532,216.971C396.532,223.727 391.773,231.971 385.921,235.35ZM385.921,204.719C377.145,209.785 370.006,222.151 370.006,232.286C370.006,242.421 377.145,246.543 385.921,241.476C394.697,236.409 401.837,224.043 401.837,213.908C401.837,203.774 394.697,199.652 385.921,204.719Z" style="fill:rgb(239,67,35);fill-rule:nonzero;"/>
            </g>
            <g transform="matrix(3.55259,0,0,3.86162,-1176.44,291.174)">
                <path d="M436.41,194.566L386.699,220.087C384.79,221.087 384.49,225.804 386.162,225.161L438.337,198.324C439.377,197.791 439.785,196.518 439.253,195.48C438.718,194.441 437.441,194.031 436.41,194.566Z" style="fill:rgb(8,103,155);fill-rule:nonzero;"/>
            </g>
        </g>
    </g>
</svg>
