<?xml version="1.0" encoding="UTF-8" standalone="no"?>
<!DOCTYPE svg PUBLIC "-//W3C//DTD SVG 1.1//EN" "http://www.w3.org/Graphics/SVG/1.1/DTD/svg11.dtd">
<svg width="100%" height="100%" viewBox="0 0 417 418" version="1.1" xmlns="http://www.w3.org/2000/svg" xmlns:xlink="http://www.w3.org/1999/xlink" xml:space="preserve" xmlns:serif="http://www.serif.com/" style="fill-rule:evenodd;clip-rule:evenodd;stroke-linejoin:round;stroke-miterlimit:2;">
    <g transform="matrix(1,0,0,1,-460,0)">
        <g id="Artboard5" transform="matrix(1.03228,0,0,1.0325,-19.9844,-9.47085)">
            <rect x="465.12" y="9.687" width="403.635" height="403.55" style="fill:none;"/>
            <g transform="matrix(3.26947,0,0,3.26878,-260.215,-697.44)">
                <path d="M293.388,311.714L264.704,294.826L274.695,288.176L308.601,308.645L306.325,310.454L293.388,311.714Z" style="fill-opacity:0.1;fill-rule:nonzero;"/>
            </g>
            <g transform="matrix(3.26947,0,0,3.26878,-260.215,-697.44)">
                <path d="M312.024,298.638L293.994,288.023L299.17,284.593C298.828,284.626 298.491,284.643 298.168,284.643C297.258,284.643 296.463,284.509 295.997,284.234L289.165,280.212L287.62,281.236L282.475,281.737L282.066,274.522L287.211,274.021L298.766,273.849L293.928,277.055L302.723,282.233C303.15,282.484 303.213,282.808 302.996,283.137L306.117,281.303L324.147,291.918L324.961,297.378L312.024,298.638Z" style="fill:rgb(2,4,0);fill-opacity:0.06;fill-rule:nonzero;"/>
            </g>
            <g transform="matrix(3.26947,0,0,3.26878,-260.215,-697.44)">
                <path d="M250.099,334.39L233.75,324.656L245.203,316.92L258.062,324.331L266.672,329.235L263.036,333.13L250.099,334.39Z" style="fill:rgb(2,4,0);fill-opacity:0.06;fill-rule:nonzero;"/>
            </g>
            <g transform="matrix(3.26947,0,0,3.26878,-260.215,-697.44)">
                <path d="M265.883,290.635C264.967,290.635 264.165,290.497 263.696,290.22L256.864,286.198L255.319,287.222L250.173,287.723L249.765,280.508L254.91,280.007L266.464,279.835L261.627,283.041L270.421,288.219C271.36,288.772 270.615,289.668 268.758,290.22C267.83,290.497 266.799,290.635 265.883,290.635Z" style="fill:rgb(2,4,0);fill-opacity:0.06;fill-rule:nonzero;"/>
            </g>
            <g transform="matrix(3.26947,0,0,3.26878,-260.215,-697.44)">
                <path d="M270.741,322.473L253.895,312.555L259.088,309.113C258.222,309.343 257.289,309.459 256.453,309.459C255.544,309.459 254.75,309.322 254.284,309.047L247.452,305.025L245.907,306.049L240.761,306.55L240.352,299.335L245.498,298.834L257.052,298.662L252.214,301.868L261.009,307.046C261.379,307.264 261.479,307.535 261.361,307.818L265.586,305.171L282.432,315.089L283.678,321.213L270.741,322.473Z" style="fill:rgb(2,4,0);fill-opacity:0.06;fill-rule:nonzero;"/>
            </g>
            <g transform="matrix(3.26947,0,0,3.26878,-260.215,-697.44)">
                <path d="M270.741,322.473L279.445,327.498L279.445,298.53L270.741,293.505L270.741,322.473Z" style="fill:rgb(217,134,39);fill-rule:nonzero;"/>
            </g>
            <g transform="matrix(3.26947,0,0,3.26878,-260.215,-697.44)">
                <path d="M279.445,327.498L288.149,322.473L288.149,293.505L279.445,298.53L279.445,327.498Z" style="fill:rgb(249,159,27);fill-rule:nonzero;"/>
            </g>
            <g transform="matrix(3.26947,0,0,3.26878,-260.215,-697.44)">
                <path d="M270.741,293.505L279.445,298.53L288.149,293.505L279.445,288.479L270.741,293.505Z" style="fill:rgb(254,192,92);fill-rule:nonzero;"/>
            </g>
            <g transform="matrix(3.26947,0,0,3.26878,-260.215,-697.44)">
                <path d="M291.382,310.555L300.086,315.581L300.086,266.255L291.382,261.23L291.382,310.555Z" style="fill:rgb(20,108,182);fill-rule:nonzero;"/>
            </g>
            <g transform="matrix(3.26947,0,0,3.26878,-260.215,-697.44)">
                <path d="M300.086,315.581L308.791,310.555L308.791,261.23L300.086,266.255L300.086,315.581Z" style="fill:rgb(47,134,199);fill-rule:nonzero;"/>
            </g>
            <g transform="matrix(3.26947,0,0,3.26878,-260.215,-697.44)">
                <path d="M291.382,261.23L300.086,266.255L308.791,261.23L300.086,256.204L291.382,261.23Z" style="fill:rgb(90,172,224);fill-rule:nonzero;"/>
            </g>
            <g transform="matrix(3.26947,0,0,3.26878,-260.215,-697.44)">
                <path d="M312.024,298.638L320.728,303.664L320.728,272.66L312.024,267.634L312.024,298.638Z" style="fill:rgb(67,166,72);fill-rule:nonzero;"/>
            </g>
            <g transform="matrix(3.26947,0,0,3.26878,-260.215,-697.44)">
                <path d="M320.728,303.664L329.432,298.638L329.432,267.634L320.728,272.66L320.728,303.664Z" style="fill:rgb(136,197,64);fill-rule:nonzero;"/>
            </g>
            <g transform="matrix(3.26947,0,0,3.26878,-260.215,-697.44)">
                <path d="M312.024,267.634L320.728,272.66L329.432,267.634L320.728,262.609L312.024,267.634Z" style="fill:rgb(175,211,91);fill-rule:nonzero;"/>
            </g>
            <g transform="matrix(3.26947,0,0,3.26878,-260.215,-697.44)">
                <path d="M250.099,334.39L258.803,339.416L258.803,319.011L250.099,313.986L250.099,334.39Z" style="fill:rgb(237,173,31);fill-rule:nonzero;"/>
            </g>
            <g transform="matrix(3.26947,0,0,3.26878,-260.215,-697.44)">
                <path d="M258.803,339.416L267.508,334.39L267.508,313.986L258.803,319.011L258.803,339.416Z" style="fill:rgb(255,198,9);fill-rule:nonzero;"/>
            </g>
            <g transform="matrix(3.26947,0,0,3.26878,-260.215,-697.44)">
                <path d="M250.099,313.986L258.803,319.011L267.508,313.986L258.803,308.96L250.099,313.986Z" style="fill:rgb(252,224,4);fill-rule:nonzero;"/>
            </g>
            <g transform="matrix(3.26947,0,0,3.26878,-260.215,-697.44)">
                <path d="M299.797,234.181C298.183,234.181 296.874,235.49 296.874,237.104L296.874,252.338C296.874,253.952 298.183,255.26 299.797,255.26C301.411,255.26 302.72,253.952 302.72,252.338L302.72,237.104C302.72,235.49 301.411,234.181 299.797,234.181Z" style="fill:rgb(238,36,36);fill-rule:nonzero;"/>
            </g>
            <g transform="matrix(3.26947,0,0,3.26878,-260.215,-697.44)">
                <path d="M298.355,225.451L291.516,239.685L294.978,241.684L305.195,231.788L301.817,227.449L298.355,225.451Z" style="fill:rgb(238,36,36);fill-rule:nonzero;"/>
            </g>
            <g transform="matrix(3.26947,0,0,3.26878,-260.215,-697.44)">
                <path d="M294.978,241.684L308.657,233.786L301.817,227.449L294.978,241.684Z" style="fill:rgb(238,36,36);fill-rule:nonzero;"/>
            </g>
            <g transform="matrix(3.26947,0,0,3.26878,-260.215,-697.44)">
                <path d="M319.819,243.282C318.205,243.282 316.896,244.591 316.896,246.205L316.896,261.439C316.896,263.053 318.205,264.362 319.819,264.362C321.433,264.362 322.741,263.053 322.741,261.439L322.741,246.205C322.741,244.591 321.433,243.282 319.819,243.282Z" style="fill:rgb(238,36,36);fill-rule:nonzero;"/>
            </g>
            <g transform="matrix(3.26947,0,0,3.26878,-260.215,-697.44)">
                <path d="M318.377,234.552L311.537,248.787L314.999,250.785L325.216,240.889L321.839,236.551L318.377,234.552Z" style="fill:rgb(238,36,36);fill-rule:nonzero;"/>
            </g>
            <g transform="matrix(3.26947,0,0,3.26878,-260.215,-697.44)">
                <path d="M314.999,250.785L328.678,242.888L321.839,236.551L314.999,250.785Z" style="fill:rgb(238,36,36);fill-rule:nonzero;"/>
            </g>
            <g transform="matrix(3.26947,0,0,3.26878,-260.215,-697.44)">
                <path d="M277.328,268.767C275.713,268.767 274.405,270.076 274.405,271.69L274.405,286.924C274.405,288.538 275.713,289.846 277.328,289.846C278.942,289.846 280.25,288.538 280.25,286.924L280.25,271.69C280.25,270.076 278.942,268.767 277.328,268.767Z" style="fill:rgb(238,36,36);fill-rule:nonzero;"/>
            </g>
            <g transform="matrix(3.26947,0,0,3.26878,-260.215,-697.44)">
                <path d="M275.886,260.036L269.046,274.271L272.508,276.27L282.725,266.374L279.348,262.035L275.886,260.036Z" style="fill:rgb(238,36,36);fill-rule:nonzero;"/>
            </g>
            <g transform="matrix(3.26947,0,0,3.26878,-260.215,-697.44)">
                <path d="M272.508,276.27L286.187,268.372L279.348,262.035L272.508,276.27Z" style="fill:rgb(238,36,36);fill-rule:nonzero;"/>
            </g>
        </g>
    </g>
</svg>
