<?xml version="1.0" encoding="UTF-8" standalone="no"?>
<!DOCTYPE svg PUBLIC "-//W3C//DTD SVG 1.1//EN" "http://www.w3.org/Graphics/SVG/1.1/DTD/svg11.dtd">
<svg width="100%" height="100%" viewBox="0 0 1276 926" version="1.1" xmlns="http://www.w3.org/2000/svg" xmlns:xlink="http://www.w3.org/1999/xlink" xml:space="preserve" xmlns:serif="http://www.serif.com/" style="fill-rule:evenodd;clip-rule:evenodd;stroke-linejoin:round;stroke-miterlimit:2;">
    <g transform="matrix(1,0,0,1,-118,-1738)">
        <g transform="matrix(1,0,0,1,-136.629,-326.763)">
            <path d="M344.228,2481.74C210.352,2409.44 206.756,2101.63 471.481,2068C570.518,2055.41 655.486,2085.89 729.719,2151.78C762.87,2181.2 794.354,2214 837.383,2228.55C932.781,2260.81 1048.93,2228.73 1147.89,2241.19C1345.1,2266.02 1567.9,2476.74 1524.28,2690.62C1512.09,2750.37 1486.5,2814.15 1448.35,2862.48C1416.22,2903.18 1378.71,2933.53 1331.35,2954.96C1285.2,2975.83 1234.51,2986.44 1184.18,2989.9C933.423,3007.18 988.013,2664.31 783.622,2573.32C722.414,2546.07 654.241,2540.26 587.973,2542.21C494.908,2544.95 430.67,2528.43 344.228,2481.74Z" style="fill:rgb(255,229,36);"/>
        </g>
    </g>
</svg>
