<?xml version="1.0" encoding="UTF-8" standalone="no"?>
<!DOCTYPE svg PUBLIC "-//W3C//DTD SVG 1.1//EN" "http://www.w3.org/Graphics/SVG/1.1/DTD/svg11.dtd">
<svg width="100%" height="100%" viewBox="0 0 966 736" version="1.1" xmlns="http://www.w3.org/2000/svg" xmlns:xlink="http://www.w3.org/1999/xlink" xml:space="preserve" xmlns:serif="http://www.serif.com/" style="fill-rule:evenodd;clip-rule:evenodd;stroke-linejoin:round;stroke-miterlimit:2;">
    <g transform="matrix(1,0,0,1,-1279,-238)">
        <path d="M1383.36,439.125C1387.72,394.012 1356.3,342.144 1394.68,303.631C1472,226.051 1562.18,303.983 1652.69,289.957C1744.31,275.758 1850.05,209.178 1943.04,253.673C2024.62,292.711 2028.4,403.673 2056.11,477.704C2069.57,513.679 2090.34,545.968 2112.93,576.807C2174.65,661.06 2290.47,767.47 2225.87,882.568C2193.21,940.775 2119.31,981.822 2052.11,971.73C1914.82,951.11 1912.97,783.491 1789.47,788.669C1638.23,795.01 1495.12,1042.93 1339.07,879.677C1185.66,719.187 1374.09,535.133 1383.36,439.125Z" style="fill:rgb(255,229,36);"/>
    </g>
</svg>
