<?xml version="1.0" encoding="UTF-8" standalone="no"?>
<!DOCTYPE svg PUBLIC "-//W3C//DTD SVG 1.1//EN" "http://www.w3.org/Graphics/SVG/1.1/DTD/svg11.dtd">
<svg width="100%" height="100%" viewBox="0 0 865 979" version="1.1" xmlns="http://www.w3.org/2000/svg" xmlns:xlink="http://www.w3.org/1999/xlink" xml:space="preserve" xmlns:serif="http://www.serif.com/" style="fill-rule:evenodd;clip-rule:evenodd;stroke-linejoin:round;stroke-miterlimit:2;">
    <g transform="matrix(1,0,0,1,-1457,-1428)">
        <g transform="matrix(1,0,0,1,51.0802,-191.653)">
            <path d="M1490.28,1843.94C1514.3,1778.69 1515.62,1699.31 1580.62,1655.92C1712.8,1567.68 1744.99,1667 1859.2,1701.95C1922.91,1721.44 2003.67,1717.21 2058.51,1759.62C2212.58,1878.78 2044.55,1925.74 2083.23,2031.02C2101.1,2079.67 2141.17,2112.14 2174.1,2150.22C2207.91,2189.31 2232.84,2235.33 2249.42,2284.19C2268.39,2340.1 2278.93,2404.33 2262.89,2462.21C2253.05,2497.68 2233.52,2530.12 2204.56,2553.1C2137.38,2606.42 2082.35,2564.47 2002.65,2573.22C1932.2,2580.94 1831.06,2626.23 1769.02,2572.59C1635.67,2457.26 1799.57,2325.37 1755.91,2261.85C1681.58,2153.7 1525.62,2218.31 1436.83,2170.94C1419.69,2161.8 1408.35,2148.67 1406.63,2128.74C1402.45,2080.31 1461.29,1922.75 1490.28,1843.94Z" style="fill:rgb(255,229,36);"/>
        </g>
    </g>
</svg>
