<?xml version="1.0" encoding="UTF-8" standalone="no"?>
<!DOCTYPE svg PUBLIC "-//W3C//DTD SVG 1.1//EN" "http://www.w3.org/Graphics/SVG/1.1/DTD/svg11.dtd">
<svg width="100%" height="100%" viewBox="0 0 1453 1453" version="1.1" xmlns="http://www.w3.org/2000/svg" xmlns:xlink="http://www.w3.org/1999/xlink" xml:space="preserve" xmlns:serif="http://www.serif.com/" style="fill-rule:evenodd;clip-rule:evenodd;stroke-linecap:round;stroke-linejoin:round;stroke-miterlimit:2;">
    <g transform="matrix(1,0,0,1,-11597,-2096)">
        <g transform="matrix(4.16667,0,0,4.16667,0,0)">
            <path d="M2843.69,614.444L3010.86,614.444" style="fill:none;stroke:rgb(175,220,202);stroke-width:14.54px;"/>
            <path d="M2843.69,570.704L2906.72,570.704" style="fill:none;stroke:rgb(175,220,202);stroke-width:14.54px;"/>
            <path d="M2947.11,570.704L2980.52,570.704" style="fill:none;stroke:rgb(175,220,202);stroke-width:14.54px;"/>
            <path d="M2832.53,787.812L2795.77,787.812L2795.77,517.03L3037.7,517.03L3037.7,564.619C3037.7,581.279 3051.33,594.91 3067.98,594.91L3119.43,594.91L3119.43,757.52C3119.43,774.172 3105.8,787.812 3089.15,787.812L3080.79,787.812" style="fill:none;stroke:rgb(78,123,159);stroke-width:14.54px;"/>
            <path d="M3119.43,594.897L3037.7,517.03L3037.7,564.619C3037.7,581.288 3051.32,594.897 3067.98,594.897L3119.43,594.897Z" style="fill:rgb(175,220,202);fill-rule:nonzero;"/>
            <path d="M3119.43,594.897L3037.7,517.03L3037.7,564.619C3037.7,581.288 3051.32,594.897 3067.98,594.897L3119.43,594.897Z" style="fill:none;stroke:rgb(78,123,159);stroke-width:14.54px;"/>
            <path d="M2965.3,790.262L3002.43,839.501L3017.17,803.982L3055.36,799.584L3020.17,752.916" style="fill:rgb(241,173,171);fill-rule:nonzero;"/>
            <path d="M2965.3,790.262L3002.43,839.501L3017.17,803.982L3055.36,799.584L3020.17,752.916" style="fill:none;stroke:rgb(78,123,159);stroke-width:14.54px;"/>
            <path d="M2949.9,790.262L2912.77,839.501L2898.04,803.982L2859.85,799.584L2894.72,752.589" style="fill:rgb(241,173,171);fill-rule:nonzero;"/>
            <path d="M2949.9,790.262L2912.77,839.501L2898.04,803.982L2859.85,799.584L2894.72,752.589" style="fill:none;stroke:rgb(78,123,159);stroke-width:14.54px;"/>
            <path d="M2992.64,714.872L2978.23,725.346C2976.57,726.562 2975.89,728.666 2976.54,730.617L2982.04,747.602C2983.44,751.929 2978.5,755.514 2974.8,752.835L2960.38,742.344C2958.72,741.152 2956.51,741.152 2954.84,742.344L2940.42,752.835C2936.73,755.514 2931.78,751.929 2933.18,747.602L2938.69,730.617C2939.33,728.666 2938.65,726.562 2936.99,725.346L2922.56,714.872C2918.89,712.212 2920.77,706.358 2925.31,706.358L2943.15,706.358C2945.22,706.358 2947,705.072 2947.64,703.121L2953.14,686.167C2954.54,681.834 2960.68,681.834 2962.09,686.167L2967.59,703.121C2968.23,705.072 2970.02,706.358 2972.07,706.358L2989.89,706.358C2994.46,706.358 2996.34,712.212 2992.64,714.872ZM2957.24,651.518C2918.98,651.518 2887.96,682.538 2887.96,720.804C2887.96,759.063 2918.98,790.064 2957.24,790.064C2995.5,790.064 3026.5,759.063 3026.5,720.804C3026.5,682.538 2995.5,651.518 2957.24,651.518Z" style="fill:rgb(249,227,133);fill-rule:nonzero;"/>
            <path d="M2992.64,714.872L2978.23,725.346C2976.57,726.562 2975.89,728.666 2976.54,730.617L2982.04,747.602C2983.44,751.929 2978.5,755.514 2974.8,752.835L2960.38,742.344C2958.72,741.152 2956.51,741.152 2954.84,742.344L2940.42,752.835C2936.73,755.514 2931.78,751.929 2933.18,747.602L2938.69,730.617C2939.33,728.666 2938.65,726.562 2936.99,725.346L2922.56,714.872C2918.89,712.212 2920.77,706.358 2925.31,706.358L2943.15,706.358C2945.22,706.358 2947,705.072 2947.64,703.121L2953.14,686.167C2954.54,681.834 2960.68,681.834 2962.09,686.167L2967.59,703.121C2968.23,705.072 2970.02,706.358 2972.07,706.358L2989.89,706.358C2994.46,706.358 2996.34,712.212 2992.64,714.872ZM2957.24,651.518C2918.98,651.518 2887.96,682.538 2887.96,720.804C2887.96,759.063 2918.98,790.064 2957.24,790.064C2995.5,790.064 3026.5,759.063 3026.5,720.804C3026.5,682.538 2995.5,651.518 2957.24,651.518Z" style="fill:none;stroke:rgb(78,123,159);stroke-width:14.54px;"/>
        </g>
    </g>
</svg>
