<?xml version="1.0" encoding="UTF-8" standalone="no"?>
<!DOCTYPE svg PUBLIC "-//W3C//DTD SVG 1.1//EN" "http://www.w3.org/Graphics/SVG/1.1/DTD/svg11.dtd">
<svg width="100%" height="100%" viewBox="0 0 1456 1456" version="1.1" xmlns="http://www.w3.org/2000/svg" xmlns:xlink="http://www.w3.org/1999/xlink" xml:space="preserve" xmlns:serif="http://www.serif.com/" style="fill-rule:evenodd;clip-rule:evenodd;stroke-linecap:round;stroke-linejoin:round;stroke-miterlimit:2;">
    <g transform="matrix(1,0,0,1,-9701,-9658)">
        <g transform="matrix(4.16667,0,0,4.16667,0,0)">
            <path d="M2602.43,2541.49C2602.43,2580.54 2570.78,2612.2 2531.72,2612.2C2492.67,2612.2 2461.02,2580.54 2461.02,2541.49C2461.02,2502.45 2492.67,2470.78 2531.72,2470.78C2570.78,2470.78 2602.43,2502.45 2602.43,2541.49Z" style="fill:white;fill-rule:nonzero;"/>
            <path d="M2481.74,2541.65L2493.67,2521.92L2530.41,2561.76L2592.1,2502.95" style="fill:none;stroke:rgb(241,173,171);stroke-width:14.54px;"/>
            <path d="M2374.98,2597.75L2394.02,2550.54L2440.51,2609.82L2465.34,2568.77" style="fill:none;stroke:rgb(241,173,171);stroke-width:14.54px;"/>
            <path d="M2413.78,2357.48L2413.78,2436.78" style="fill:none;stroke:rgb(175,220,202);stroke-width:14.54px;"/>
            <path d="M2437.85,2381.14C2437.85,2372.88 2429.82,2366.15 2419.89,2366.15L2405.46,2366.15C2395.57,2366.15 2387.54,2372.88 2387.54,2381.14L2387.54,2381.93C2387.54,2386.66 2391.89,2390.55 2397.68,2393.6L2427.12,2399.65" style="fill:none;stroke:rgb(175,220,202);stroke-width:14.54px;"/>
            <path d="M2387.52,2412.39C2387.52,2420.67 2395.57,2427.41 2405.46,2427.41L2419.89,2427.41C2429.8,2427.41 2437.82,2420.67 2437.82,2412.39L2437.82,2411.6C2437.82,2406.87 2433.17,2402.76 2427.38,2399.7L2398.48,2393.8" style="fill:none;stroke:rgb(175,220,202);stroke-width:14.54px;"/>
            <path d="M2385.99,2470.38L2437.85,2470.38" style="fill:none;stroke:rgb(177,212,233);stroke-width:14.54px;"/>
            <path d="M2385.99,2497.72L2416.85,2497.72" style="fill:none;stroke:rgb(177,212,233);stroke-width:14.54px;"/>
            <path d="M2579.75,2463.93L2579.75,2418.49L2518.44,2418.49C2502.52,2418.49 2489.47,2405.45 2489.47,2389.51L2489.47,2331.9L2339.58,2331.9L2339.58,2638.34L2534.61,2638.34" style="fill:none;stroke:rgb(78,123,159);stroke-width:14.54px;"/>
            <path d="M2579.74,2418.48L2489.47,2331.9L2489.47,2389.51C2489.47,2405.46 2502.51,2418.48 2518.44,2418.48L2579.74,2418.48Z" style="fill:rgb(215,224,232);fill-rule:nonzero;"/>
            <path d="M2579.74,2418.48L2489.47,2331.9L2489.47,2389.51C2489.47,2405.46 2502.51,2418.48 2518.44,2418.48L2579.74,2418.48Z" style="fill:none;stroke:rgb(78,123,159);stroke-width:14.54px;"/>
            <path d="M2582.43,2490.95C2610.43,2518.95 2610.43,2564.35 2582.43,2592.34C2554.42,2620.35 2509.02,2620.35 2481.03,2592.34C2453.02,2564.35 2453.02,2518.95 2481.03,2490.95C2509.02,2462.96 2554.42,2462.96 2582.43,2490.95Z" style="fill:none;stroke:rgb(78,123,159);stroke-width:14.54px;"/>
            <path d="M2582.43,2592.34L2597.28,2608.38" style="fill:none;stroke:rgb(78,123,159);stroke-width:14.54px;"/>
            <path d="M2643.96,2655.27C2639.58,2659.65 2632.39,2659.65 2628,2655.27L2597.17,2624.44C2592.79,2620.05 2592.79,2612.86 2597.17,2608.48C2601.56,2604.08 2608.75,2604.08 2613.13,2608.48L2643.96,2639.31C2648.35,2643.71 2648.35,2650.88 2643.96,2655.27Z" style="fill:rgb(215,193,183);fill-rule:nonzero;"/>
            <path d="M2643.96,2655.27C2639.58,2659.65 2632.39,2659.65 2628,2655.27L2597.17,2624.44C2592.79,2620.05 2592.79,2612.86 2597.17,2608.48C2601.56,2604.08 2608.75,2604.08 2613.13,2608.48L2643.96,2639.31C2648.35,2643.71 2648.35,2650.88 2643.96,2655.27Z" style="fill:none;stroke:rgb(78,123,159);stroke-width:14.54px;"/>
            <path d="M2635.21,2431.78L2665.13,2431.78L2665.13,2461.7" style="fill:none;stroke:rgb(241,173,171);stroke-width:14.54px;"/>
            <path d="M2608.86,2486.97L2660.42,2437.81" style="fill:none;stroke:rgb(241,173,171);stroke-width:14.54px;"/>
        </g>
    </g>
</svg>
