<?xml version="1.0" encoding="UTF-8" standalone="no"?>
<!DOCTYPE svg PUBLIC "-//W3C//DTD SVG 1.1//EN" "http://www.w3.org/Graphics/SVG/1.1/DTD/svg11.dtd">
<svg width="100%" height="100%" viewBox="0 0 3179 2762" version="1.1" xmlns="http://www.w3.org/2000/svg" xmlns:xlink="http://www.w3.org/1999/xlink" xml:space="preserve" xmlns:serif="http://www.serif.com/" style="fill-rule:evenodd;clip-rule:evenodd;stroke-linejoin:round;stroke-miterlimit:2;">
    <g transform="matrix(4.16667,0,0,4.16667,-419,-373)">
        <g transform="matrix(1,0,0,1,-155.213,-559.245)">
            <path d="M874.57,982.209C874.57,1139.88 746.75,1267.7 589.076,1267.7C431.401,1267.7 303.581,1139.88 303.581,982.209C303.581,824.535 431.401,696.714 589.076,696.714C746.75,696.714 874.57,824.535 874.57,982.209Z" style="fill:rgb(255,229,36);fill-rule:nonzero;"/>
        </g>
        <g transform="matrix(1,0,0,1,-155.213,-559.245)">
            <path d="M912.127,1012.1C909.93,1011.87 907.951,1013.46 907.713,1015.66C907.182,1020.56 906.531,1025.51 905.776,1030.37C905.437,1032.56 906.934,1034.61 909.121,1034.95C909.329,1034.98 909.536,1035 909.74,1035C911.682,1035 913.388,1033.58 913.695,1031.6C914.469,1026.62 915.136,1021.54 915.68,1016.52C915.918,1014.32 914.327,1012.34 912.127,1012.1Z" style="fill:rgb(19,54,93);fill-rule:nonzero;"/>
        </g>
        <g transform="matrix(1,0,0,1,-155.213,-559.245)">
            <path d="M539.991,1297.6C530.276,1296.1 520.521,1294.14 510.997,1291.76C508.851,1291.22 506.674,1292.52 506.138,1294.67C505.601,1296.82 506.906,1298.99 509.053,1299.53C518.815,1301.97 528.816,1303.99 538.773,1305.52C538.98,1305.55 539.185,1305.56 539.387,1305.56C541.331,1305.56 543.038,1304.15 543.342,1302.16C543.679,1299.98 542.178,1297.93 539.991,1297.6Z" style="fill:rgb(19,54,93);fill-rule:nonzero;"/>
        </g>
        <g transform="matrix(1,0,0,1,-155.213,-559.245)">
            <path d="M482.667,1283.25C473.405,1279.99 464.18,1276.26 455.247,1272.15C453.236,1271.22 450.856,1272.1 449.932,1274.11C449.007,1276.13 449.888,1278.5 451.898,1279.43C461.056,1283.64 470.513,1287.47 480.008,1290.81C480.447,1290.96 480.896,1291.04 481.337,1291.04C482.99,1291.04 484.538,1290.01 485.117,1288.36C485.851,1286.27 484.754,1283.98 482.667,1283.25Z" style="fill:rgb(19,54,93);fill-rule:nonzero;"/>
        </g>
        <g transform="matrix(1,0,0,1,-155.213,-559.245)">
            <path d="M598.98,1301.17C589.204,1301.47 579.179,1301.32 569.401,1300.73C567.182,1300.58 565.292,1302.28 565.159,1304.49C565.025,1306.7 566.708,1308.6 568.917,1308.73C575.573,1309.13 582.348,1309.34 589.053,1309.34C592.44,1309.34 595.863,1309.29 599.225,1309.18C601.437,1309.12 603.175,1307.27 603.107,1305.06C603.04,1302.85 601.173,1301.15 598.98,1301.17Z" style="fill:rgb(19,54,93);fill-rule:nonzero;"/>
        </g>
        <g transform="matrix(1,0,0,1,-155.213,-559.245)">
            <path d="M428.974,1258.55C420.471,1253.64 412.092,1248.27 404.067,1242.59C402.262,1241.31 399.761,1241.74 398.481,1243.55C397.203,1245.35 397.63,1247.85 399.437,1249.13C407.661,1254.95 416.25,1260.46 424.966,1265.49C425.598,1265.86 426.287,1266.03 426.966,1266.03C428.351,1266.03 429.698,1265.31 430.44,1264.03C431.547,1262.11 430.891,1259.66 428.974,1258.55Z" style="fill:rgb(19,54,93);fill-rule:nonzero;"/>
        </g>
        <g transform="matrix(1,0,0,1,-155.213,-559.245)">
            <path d="M293.973,1106.18C293.107,1104.15 290.755,1103.2 288.717,1104.07C286.681,1104.93 285.733,1107.29 286.599,1109.32C290.539,1118.58 294.962,1127.77 299.748,1136.64C300.472,1137.98 301.852,1138.74 303.277,1138.74C303.92,1138.74 304.572,1138.58 305.177,1138.26C307.125,1137.21 307.851,1134.78 306.8,1132.83C302.132,1124.18 297.816,1115.21 293.973,1106.18Z" style="fill:rgb(19,54,93);fill-rule:nonzero;"/>
        </g>
        <g transform="matrix(1,0,0,1,-155.213,-559.245)">
            <path d="M359.163,1204.16C357.621,1202.57 355.084,1202.53 353.497,1204.08C351.91,1205.62 351.874,1208.16 353.416,1209.74C360.432,1216.96 367.869,1223.95 375.521,1230.49C376.275,1231.14 377.202,1231.46 378.124,1231.46C379.254,1231.46 380.377,1230.98 381.17,1230.05C382.609,1228.37 382.413,1225.84 380.731,1224.41C373.267,1218.02 366.01,1211.2 359.163,1204.16Z" style="fill:rgb(19,54,93);fill-rule:nonzero;"/>
        </g>
        <g transform="matrix(1,0,0,1,-155.213,-559.245)">
            <path d="M322.036,1158.18C320.81,1156.34 318.325,1155.84 316.48,1157.06C314.638,1158.29 314.139,1160.78 315.365,1162.62C320.945,1171 326.981,1179.22 333.308,1187.06C334.099,1188.04 335.258,1188.54 336.427,1188.54C337.311,1188.54 338.201,1188.25 338.942,1187.66C340.664,1186.26 340.933,1183.74 339.542,1182.02C333.37,1174.38 327.48,1166.36 322.036,1158.18Z" style="fill:rgb(19,54,93);fill-rule:nonzero;"/>
        </g>
        <g transform="matrix(1,0,0,1,-155.213,-559.245)">
            <path d="M275.989,1049.91C275.514,1047.74 273.378,1046.38 271.215,1046.85C269.054,1047.33 267.687,1049.46 268.162,1051.63C270.324,1061.46 272.974,1071.31 276.038,1080.9C276.582,1082.6 278.157,1083.69 279.853,1083.69C280.257,1083.69 280.668,1083.63 281.073,1083.5C283.182,1082.82 284.344,1080.57 283.671,1078.46C280.683,1069.11 278.098,1059.5 275.989,1049.91Z" style="fill:rgb(19,54,93);fill-rule:nonzero;"/>
        </g>
        <g transform="matrix(1,0,0,1,-155.213,-559.245)">
            <path d="M856.121,1165.28C854.315,1164 851.814,1164.42 850.533,1166.23C844.841,1174.24 838.71,1182.08 832.308,1189.53C830.866,1191.21 831.057,1193.74 832.736,1195.18C833.492,1195.83 834.421,1196.15 835.345,1196.15C836.473,1196.15 837.594,1195.68 838.387,1194.75C844.948,1187.12 851.233,1179.08 857.066,1170.87C858.348,1169.07 857.924,1166.56 856.121,1165.28Z" style="fill:rgb(19,54,93);fill-rule:nonzero;"/>
        </g>
        <g transform="matrix(1,0,0,1,-155.213,-559.245)">
            <path d="M885.498,1113.14C883.489,1112.21 881.108,1113.09 880.18,1115.09C876.06,1124.01 871.471,1132.84 866.539,1141.35C865.429,1143.26 866.081,1145.71 867.995,1146.82C868.628,1147.19 869.319,1147.36 870.001,1147.36C871.384,1147.36 872.728,1146.65 873.471,1145.37C878.527,1136.65 883.231,1127.6 887.455,1118.46C888.383,1116.45 887.507,1114.07 885.498,1113.14Z" style="fill:rgb(19,54,93);fill-rule:nonzero;"/>
        </g>
        <g transform="matrix(1,0,0,1,-155.213,-559.245)">
            <path d="M904.75,1056.46C902.601,1055.93 900.426,1057.22 899.885,1059.37C897.484,1068.9 894.605,1078.43 891.329,1087.69C890.591,1089.78 891.685,1092.07 893.771,1092.8C894.213,1092.96 894.663,1093.04 895.107,1093.04C896.757,1093.04 898.303,1092.01 898.884,1090.36C902.243,1080.87 905.195,1071.1 907.656,1061.33C908.197,1059.18 906.896,1057 904.75,1056.46Z" style="fill:rgb(19,54,93);fill-rule:nonzero;"/>
        </g>
        <g transform="matrix(1,0,0,1,-155.213,-559.245)">
            <path d="M657.628,1293.97C648.037,1296.06 638.227,1297.73 628.469,1298.93C626.272,1299.2 624.71,1301.19 624.979,1303.39C625.228,1305.42 626.956,1306.91 628.951,1306.91C629.114,1306.91 629.278,1306.9 629.443,1306.88C639.446,1305.66 649.502,1303.95 659.334,1301.8C661.497,1301.33 662.867,1299.2 662.396,1297.04C661.925,1294.87 659.787,1293.5 657.628,1293.97Z" style="fill:rgb(19,54,93);fill-rule:nonzero;"/>
        </g>
        <g transform="matrix(1,0,0,1,-155.213,-559.245)">
            <path d="M812.022,1211.07C804.962,1217.91 797.502,1224.49 789.851,1230.65C788.127,1232.04 787.854,1234.56 789.242,1236.28C790.033,1237.27 791.194,1237.78 792.366,1237.78C793.247,1237.78 794.135,1237.49 794.875,1236.89C802.717,1230.58 810.361,1223.83 817.598,1216.82C819.188,1215.29 819.228,1212.75 817.688,1211.16C816.149,1209.57 813.613,1209.53 812.022,1211.07Z" style="fill:rgb(19,54,93);fill-rule:nonzero;"/>
        </g>
        <g transform="matrix(1,0,0,1,-155.213,-559.245)">
            <path d="M713.943,1276.09C704.899,1279.92 695.565,1283.37 686.201,1286.34C684.093,1287.01 682.926,1289.26 683.596,1291.37C684.138,1293.08 685.715,1294.17 687.414,1294.17C687.816,1294.17 688.225,1294.11 688.628,1293.98C698.227,1290.93 707.796,1287.39 717.069,1283.47C719.106,1282.6 720.059,1280.25 719.196,1278.21C718.333,1276.17 715.981,1275.22 713.943,1276.09Z" style="fill:rgb(19,54,93);fill-rule:nonzero;"/>
        </g>
        <g transform="matrix(1,0,0,1,-155.213,-559.245)">
            <path d="M765.98,1248.11C757.79,1253.55 749.253,1258.66 740.607,1263.3C738.658,1264.35 737.927,1266.78 738.976,1268.73C739.699,1270.08 741.08,1270.84 742.508,1270.84C743.149,1270.84 743.798,1270.69 744.402,1270.36C753.265,1265.6 762.015,1260.36 770.41,1254.79C772.254,1253.57 772.758,1251.08 771.534,1249.24C770.312,1247.39 767.825,1246.89 765.98,1248.11Z" style="fill:rgb(19,54,93);fill-rule:nonzero;"/>
        </g>
        <g transform="matrix(1,0,0,1,-155.213,-559.245)">
            <path d="M270.957,1020.51C270.353,1015.63 269.855,1010.67 269.477,1005.75C269.307,1003.54 267.385,1001.9 265.174,1002.06C262.967,1002.23 261.316,1004.16 261.486,1006.36C261.875,1011.4 262.385,1016.5 263.003,1021.5C263.254,1023.53 264.981,1025.01 266.975,1025.01C267.139,1025.01 267.305,1025 267.472,1024.98C269.668,1024.71 271.228,1022.71 270.957,1020.51Z" style="fill:rgb(19,54,93);fill-rule:nonzero;"/>
        </g>
        <g transform="matrix(1,0,0,1,-155.213,-559.245)">
            <path d="M1017.82,981.708L942.688,908.081L942.688,973.279L921.023,973.279C919.131,887.396 884.794,806.939 823.85,745.996C761.134,683.279 677.748,648.74 589.053,648.74C500.358,648.74 416.973,683.279 354.256,745.996C291.54,808.712 257,892.098 257,980.793C257,984.942 260.364,988.306 264.513,988.306C268.662,988.306 272.026,984.942 272.026,980.793C272.026,805.984 414.244,663.766 589.053,663.766C763.862,663.766 906.08,805.984 906.08,980.793C906.08,984.942 909.444,988.306 913.593,988.306L942.688,988.306L942.688,1055.34L1017.82,981.708Z" style="fill:rgb(0,97,255);fill-rule:nonzero;"/>
        </g>
        <g transform="matrix(0.999999,0,0,0.999999,-909.706,-580.967)">
            <path d="M1404.7,1117.89C1400.56,1121.65 1395.14,1123.53 1389.55,1123.53L1298.82,1123.53C1293.28,1123.53 1287.8,1121.6 1283.67,1117.84C1265.19,1101.29 1253.53,1077.28 1253.53,1050.53C1253.53,1043.01 1254.44,1035.75 1256.16,1028.77C1262.45,1003.31 1279.48,982.087 1302.15,970.214C1305.16,968.603 1306.98,965.38 1306.98,961.995L1306.98,908.221L1381.39,908.221L1381.39,962.102C1381.39,965.541 1383.21,968.71 1386.22,970.322C1411.84,983.859 1430.54,1009.43 1434.14,1039.41C1434.3,1040.16 1434.41,1040.91 1434.46,1041.72C1437.25,1072.01 1425.17,1099.52 1404.7,1117.89Z" style="fill:rgb(234,244,252);fill-rule:nonzero;"/>
        </g>
        <g transform="matrix(0.999999,0,0,0.999999,-909.706,-580.967)">
            <rect x="1306.98" y="908.224" width="74.41" height="10.043" style="fill:rgb(209,219,230);fill-rule:nonzero;"/>
        </g>
        <g transform="matrix(0.999999,0,0,0.999999,-909.706,-580.967)">
            <rect x="1294.93" y="876.4" width="98.53" height="31.824" style="fill:rgb(155,171,198);fill-rule:nonzero;"/>
        </g>
        <g transform="matrix(0.999999,0,0,0.999999,-909.706,-580.967)">
            <rect x="1294.93" y="876.4" width="98.53" height="10.058" style="fill:rgb(195,203,221);fill-rule:nonzero;"/>
        </g>
        <g transform="matrix(0.999999,0,0,0.999999,-909.706,-580.967)">
            <rect x="1294.93" y="898.164" width="98.53" height="10.057" style="fill:rgb(138,153,178);fill-rule:nonzero;"/>
        </g>
        <g transform="matrix(0.999999,0,0,0.999999,-909.706,-580.967)">
            <path d="M1404.7,1117.89C1400.56,1121.65 1395.14,1123.53 1389.55,1123.53L1298.82,1123.53C1293.28,1123.53 1287.8,1121.6 1283.67,1117.84C1265.19,1101.29 1253.53,1077.28 1253.53,1050.53C1253.53,1043.01 1254.44,1035.75 1256.16,1028.77C1276.52,1026.89 1304.73,1029.9 1331.64,1051.49C1361.08,1075.08 1403.84,1057.78 1434.14,1039.41C1434.3,1040.16 1434.41,1040.91 1434.46,1041.72C1437.25,1072.01 1425.17,1099.52 1404.7,1117.89Z" style="fill:rgb(226,118,121);fill-rule:nonzero;"/>
        </g>
        <g transform="matrix(0.999999,0,0,0.999999,-909.706,-580.967)">
            <path d="M1253.53,1050.53L1253.53,1050.38L1253.53,1050.53ZM1434.46,1041.72C1434.45,1041.58 1434.44,1041.44 1434.43,1041.31C1434.46,1041.44 1434.46,1041.58 1434.46,1041.72Z" style="fill:rgb(229,229,229);fill-rule:nonzero;"/>
        </g>
        <g transform="matrix(0.999999,0,0,0.999999,-909.706,-580.967)">
            <path d="M1389.55,1123.53L1298.82,1123.53C1293.28,1123.53 1287.8,1121.6 1283.67,1117.84C1265.19,1101.29 1253.53,1077.28 1253.53,1050.53L1253.53,1050.38C1253.54,1047.47 1253.7,1044.57 1254.01,1041.77C1256.27,1064.87 1267.28,1085.34 1283.67,1100C1287.8,1103.76 1293.28,1105.7 1298.82,1105.7L1389.55,1105.7C1395.14,1105.7 1400.56,1103.82 1404.7,1100.06C1421.14,1085.28 1432.2,1064.55 1434.41,1041.23C1434.42,1041.26 1434.42,1041.28 1434.43,1041.31C1434.44,1041.44 1434.45,1041.58 1434.46,1041.72C1434.73,1044.62 1434.86,1047.49 1434.86,1050.33C1434.86,1077.2 1423.21,1101.28 1404.7,1117.89C1400.56,1121.65 1395.14,1123.53 1389.55,1123.53Z" style="fill:rgb(206,106,110);fill-rule:nonzero;"/>
        </g>
        <g transform="matrix(0.999999,0,0,0.999999,-909.706,-580.967)">
            <path d="M1354.07,991.268C1354.07,996.988 1349.45,1001.61 1343.73,1001.61C1338.05,1001.61 1333.42,996.988 1333.42,991.268C1333.42,985.549 1338.05,980.926 1343.73,980.926C1349.45,980.926 1354.07,985.549 1354.07,991.268Z" style="fill:rgb(226,118,121);fill-rule:nonzero;"/>
        </g>
        <g transform="matrix(0.999999,0,0,0.999999,-909.706,-580.967)">
            <path d="M1313.81,1088.7C1313.81,1094.42 1309.19,1099.04 1303.47,1099.04C1297.79,1099.04 1293.17,1094.42 1293.17,1088.7C1293.17,1082.98 1297.79,1078.36 1303.47,1078.36C1309.19,1078.36 1313.81,1082.98 1313.81,1088.7Z" style="fill:rgb(215,141,162);fill-rule:nonzero;"/>
        </g>
        <g transform="matrix(0.999999,0,0,0.999999,-909.706,-580.967)">
            <path d="M1401.5,1080.53C1401.5,1086.25 1396.88,1090.87 1391.16,1090.87C1385.48,1090.87 1380.86,1086.25 1380.86,1080.53C1380.86,1074.81 1385.48,1070.19 1391.16,1070.19C1396.88,1070.19 1401.5,1074.81 1401.5,1080.53Z" style="fill:rgb(215,141,162);fill-rule:nonzero;"/>
        </g>
        <g transform="matrix(0.999999,0,0,0.999999,-909.706,-580.967)">
            <path d="M1367.47,944.575C1367.47,950.295 1362.85,954.917 1357.13,954.917C1351.45,954.917 1346.83,950.295 1346.83,944.575C1346.83,938.855 1351.45,934.232 1357.13,934.232C1362.85,934.232 1367.47,938.855 1367.47,944.575Z" style="fill:rgb(226,118,121);fill-rule:nonzero;"/>
        </g>
        <g transform="matrix(0.999999,0,0,0.999999,-909.706,-580.967)">
            <path d="M1491.88,968.713C1491.88,1001.61 1465.24,1028.3 1432.29,1028.3C1399.4,1028.3 1372.76,1001.61 1372.76,968.713C1372.76,935.816 1399.4,909.128 1432.29,909.128C1465.24,909.128 1491.88,935.816 1491.88,968.713Z" style="fill:rgb(234,157,59);fill-rule:nonzero;"/>
        </g>
        <g transform="matrix(0.999999,0,0,0.999999,-909.706,-580.967)">
            <path d="M1491.19,977.95C1491.19,977.94 1491.19,977.928 1491.18,977.918C1491.23,977.598 1491.28,977.276 1491.32,976.955C1491.28,977.288 1491.24,977.62 1491.19,977.95Z" style="fill:white;fill-rule:nonzero;"/>
        </g>
        <g transform="matrix(0.999999,0,0,0.999999,-909.706,-580.967)">
            <path d="M1373.43,977.95C1373.39,977.606 1373.34,977.261 1373.29,976.915C1373.34,977.25 1373.39,977.583 1373.44,977.916C1373.44,977.928 1373.44,977.938 1373.43,977.95ZM1372.74,968.716L1372.74,968.581L1372.74,968.716Z" style="fill:rgb(244,249,253);fill-rule:nonzero;"/>
        </g>
        <g transform="matrix(0.999999,0,0,0.999999,-909.706,-580.967)">
            <path d="M1491.89,968.716L1491.89,968.583L1491.89,968.716Z" style="fill:white;fill-rule:nonzero;"/>
        </g>
        <g transform="matrix(0.999999,0,0,0.999999,-909.706,-580.967)">
            <path d="M1372.74,968.57L1372.74,968.453L1372.74,968.57Z" style="fill:rgb(244,249,253);fill-rule:nonzero;"/>
        </g>
        <g transform="matrix(0.999999,0,0,0.999999,-909.706,-580.967)">
            <path d="M1491.89,968.568L1491.89,968.458L1491.89,968.568ZM1381.39,937.8L1381.39,937.779C1384.85,932.094 1389.23,927.031 1394.34,922.804C1389.23,927.036 1384.84,932.105 1381.39,937.8Z" style="fill:white;fill-rule:nonzero;"/>
        </g>
        <g transform="matrix(0.999999,0,0,0.999999,-909.706,-580.967)">
            <path d="M1373.45,959.618C1373.44,959.595 1373.44,959.573 1373.44,959.55C1374.65,951.679 1377.41,944.318 1381.39,937.779L1381.39,937.8C1377.41,944.351 1374.65,951.731 1373.45,959.618Z" style="fill:rgb(244,249,253);fill-rule:nonzero;"/>
        </g>
        <g transform="matrix(0.999999,0,0,0.999999,-909.706,-580.967)">
            <path d="M1491.18,959.575C1489.64,949.526 1485.58,940.302 1479.68,932.569C1485.58,940.297 1489.64,949.509 1491.19,959.549C1491.19,959.557 1491.18,959.566 1491.18,959.575Z" style="fill:white;fill-rule:nonzero;"/>
        </g>
        <g transform="matrix(0.999999,0,0,0.999999,-909.706,-580.967)">
            <path d="M1375.63,968.711C1374.67,965.774 1373.94,962.734 1373.45,959.618C1374.65,951.731 1377.41,944.351 1381.39,937.8C1384.84,932.105 1389.23,927.036 1394.34,922.804C1404.64,914.268 1417.87,909.135 1432.31,909.135C1451.64,909.135 1468.8,918.329 1479.68,932.569C1485.58,940.302 1489.64,949.526 1491.18,959.575C1490.69,962.707 1489.95,965.759 1488.99,968.711C1481.24,944.837 1458.81,927.561 1432.31,927.561C1405.81,927.561 1383.38,944.837 1375.63,968.711Z" style="fill:rgb(243,196,137);fill-rule:nonzero;"/>
        </g>
        <g transform="matrix(0.999999,0,0,0.999999,-909.706,-580.967)">
            <path d="M1432.31,1028.3L1432.3,1028.3C1462.12,1028.29 1486.77,1006.42 1491.18,977.882L1491.18,977.918C1486.77,1006.47 1462.12,1028.3 1432.31,1028.3Z" style="fill:rgb(229,229,229);fill-rule:nonzero;"/>
        </g>
        <g transform="matrix(0.999999,0,0,0.999999,-909.706,-580.967)">
            <path d="M1421.15,1027.26C1396.53,1022.6 1377.29,1002.82 1373.44,977.916C1373.44,977.892 1373.45,977.863 1373.45,977.838C1377.28,1002.75 1396.52,1022.59 1421.15,1027.26Z" style="fill:rgb(209,219,230);fill-rule:nonzero;"/>
        </g>
        <g transform="matrix(0.999999,0,0,0.999999,-909.706,-580.967)">
            <path d="M1491.32,976.955C1491.42,976.183 1491.51,975.404 1491.59,974.621C1491.63,974.17 1491.67,973.721 1491.71,973.268C1491.82,971.759 1491.89,970.238 1491.89,968.716L1491.89,968.723C1491.89,971.517 1491.7,974.264 1491.32,976.955Z" style="fill:rgb(229,229,229);fill-rule:nonzero;"/>
        </g>
        <g transform="matrix(0.999999,0,0,0.999999,-909.706,-580.967)">
            <path d="M1373.29,976.915C1372.93,974.237 1372.74,971.503 1372.74,968.723L1372.74,968.716C1372.74,971.474 1372.95,974.232 1373.29,976.915Z" style="fill:rgb(209,219,230);fill-rule:nonzero;"/>
        </g>
        <g transform="matrix(0.999999,0,0,0.999999,-909.706,-580.967)">
            <path d="M1491.89,968.583L1491.89,968.568L1491.89,968.583Z" style="fill:rgb(229,229,229);fill-rule:nonzero;"/>
        </g>
        <g transform="matrix(0.999999,0,0,0.999999,-909.706,-580.967)">
            <path d="M1372.74,968.581L1372.74,968.57L1372.74,968.581Z" style="fill:rgb(209,219,230);fill-rule:nonzero;"/>
        </g>
        <g transform="matrix(0.999999,0,0,0.999999,-909.706,-580.967)">
            <path d="M1491.89,968.458C1491.87,965.431 1491.64,962.454 1491.19,959.549L1491.19,959.537C1491.66,962.46 1491.88,965.433 1491.89,968.458Z" style="fill:rgb(229,229,229);fill-rule:nonzero;"/>
        </g>
        <g transform="matrix(0.999999,0,0,0.999999,-909.706,-580.967)">
            <path d="M1372.74,968.453C1372.75,965.43 1372.97,962.458 1373.43,959.537C1373.44,959.542 1373.44,959.545 1373.44,959.55C1372.99,962.453 1372.75,965.428 1372.74,968.453Z" style="fill:rgb(209,219,230);fill-rule:nonzero;"/>
        </g>
        <g transform="matrix(0.999999,0,0,0.999999,-909.706,-580.967)">
            <path d="M1432.3,1028.3C1428.49,1028.3 1424.76,1027.94 1421.15,1027.26C1396.52,1022.59 1377.28,1002.75 1373.45,977.838C1373.94,974.708 1374.67,971.66 1375.63,968.711C1383.4,992.573 1405.84,1009.87 1432.31,1009.87C1458.78,1009.87 1481.22,992.573 1488.99,968.711C1489.95,971.673 1490.69,974.737 1491.18,977.882C1486.77,1006.42 1462.12,1028.29 1432.3,1028.3ZM1491.59,974.621C1491.63,974.171 1491.67,973.72 1491.71,973.268C1491.67,973.721 1491.63,974.17 1491.59,974.621Z" style="fill:rgb(210,142,53);fill-rule:nonzero;"/>
        </g>
        <g transform="matrix(0.999999,0,0,0.999999,-909.706,-580.967)">
            <path d="M1491.18,977.918L1491.18,977.882C1491.34,976.804 1491.48,975.717 1491.59,974.621C1491.51,975.404 1491.42,976.183 1491.32,976.955C1491.28,977.276 1491.23,977.598 1491.18,977.918Z" style="fill:rgb(229,229,229);fill-rule:nonzero;"/>
        </g>
        <g transform="matrix(0.999999,0,0,0.999999,-909.706,-580.967)">
            <path d="M1373.44,977.916C1373.39,977.583 1373.34,977.25 1373.29,976.915C1372.95,974.232 1372.74,971.474 1372.74,968.716L1372.74,968.453C1372.75,965.428 1372.99,962.453 1373.44,959.55C1373.44,959.573 1373.44,959.595 1373.45,959.618C1372.99,962.583 1372.76,965.621 1372.76,968.713C1372.76,971.815 1373,974.864 1373.45,977.838C1373.45,977.863 1373.44,977.892 1373.44,977.916Z" style="fill:rgb(218,224,230);fill-rule:nonzero;"/>
        </g>
        <g transform="matrix(0.999999,0,0,0.999999,-909.706,-580.967)">
            <path d="M1491.71,973.268C1491.82,971.765 1491.88,970.245 1491.88,968.713C1491.88,965.605 1491.64,962.555 1491.18,959.575C1491.18,959.566 1491.19,959.557 1491.19,959.549C1491.64,962.454 1491.87,965.431 1491.89,968.458L1491.89,968.716C1491.89,970.238 1491.82,971.759 1491.71,973.268Z" style="fill:rgb(229,229,229);fill-rule:nonzero;"/>
        </g>
        <g transform="matrix(0.999999,0,0,0.999999,-909.706,-580.967)">
            <path d="M1491.18,977.882C1490.69,974.737 1489.95,971.673 1488.99,968.711C1489.95,965.759 1490.69,962.707 1491.18,959.575C1491.64,962.555 1491.88,965.605 1491.88,968.713C1491.88,970.245 1491.82,971.765 1491.71,973.268C1491.67,973.72 1491.63,974.171 1491.59,974.621C1491.48,975.717 1491.34,976.804 1491.18,977.882ZM1373.45,977.838C1373,974.864 1372.76,971.815 1372.76,968.713C1372.76,965.621 1372.99,962.583 1373.45,959.618C1373.94,962.734 1374.67,965.774 1375.63,968.711C1374.67,971.66 1373.94,974.708 1373.45,977.838Z" style="fill:rgb(217,176,124);fill-rule:nonzero;"/>
        </g>
        <g transform="matrix(0.999999,0,0,0.999999,-909.706,-580.967)">
            <path d="M1436.08,1022.77C1406.81,1025.3 1378.76,1001.77 1378.12,969.805L1378.12,968.731C1378.12,938.809 1402.4,914.474 1432.27,914.474C1462.19,914.474 1486.53,938.809 1486.53,968.731C1486.53,997.31 1464.23,1020.84 1436.08,1022.77ZM1429.42,1048.99C1429.48,1051.73 1429.42,1054.47 1429.21,1057.15C1429.15,1057.53 1429.15,1057.91 1429.1,1058.28C1427.11,1080.31 1416.8,1099.81 1401.11,1113.94C1398.05,1116.68 1393.97,1118.18 1389.56,1118.18L1298.83,1118.18C1281.37,1118.18 1251.82,1077.89 1260.58,1033.84C1285.67,1032.44 1308.55,1039.86 1328.27,1055.7C1352.01,1074.67 1387.2,1072.03 1429.42,1048.4L1429.42,1048.99ZM1304.63,974.962C1309.41,972.491 1312.37,967.495 1312.37,961.962L1312.37,913.614L1376.02,913.614L1376.02,936.391C1370.49,945.9 1367.38,956.966 1367.38,968.731C1367.38,1002.95 1394.02,1031.15 1427.7,1033.46C1427.92,1034.48 1428.08,1035.56 1428.24,1036.58C1404.93,1050.28 1383.44,1057.58 1366.03,1057.58C1353.95,1057.58 1343.52,1054.09 1334.98,1047.32C1314.84,1031.15 1291.74,1022.93 1266.33,1022.93C1265.41,1022.93 1264.45,1023.04 1263.53,1023.04C1270.57,1002.47 1285.18,985.169 1304.63,974.962ZM1300.28,902.87L1300.28,881.758L1388.06,881.758L1388.06,902.87L1300.28,902.87ZM1497.27,968.731C1497.27,932.9 1468.1,903.729 1432.27,903.729C1414.54,903.729 1398.48,910.874 1386.77,922.424L1386.77,913.614L1393.43,913.614C1396.44,913.614 1398.8,911.197 1398.8,908.242L1398.8,876.386C1398.8,873.431 1396.44,871.014 1393.43,871.014L1294.91,871.014C1291.95,871.014 1289.53,873.431 1289.53,876.386L1289.53,908.242C1289.53,911.197 1291.95,913.614 1294.91,913.614L1301.62,913.614L1301.62,961.962C1301.62,963.466 1300.82,964.809 1299.63,965.454C1275.3,978.186 1257.63,1000.69 1251.02,1027.29C1251.02,1027.39 1250.96,1027.45 1250.96,1027.5C1246.4,1045.87 1247.26,1065.43 1254.62,1084.66C1261.92,1103.68 1278.36,1128.92 1298.83,1128.92L1389.56,1128.92C1396.65,1128.92 1403.31,1126.4 1408.31,1121.89C1432.7,1099.97 1444.73,1066.82 1438.66,1033.36C1471.54,1030.13 1497.27,1002.36 1497.27,968.731Z" style="fill:rgb(40,59,102);fill-rule:nonzero;"/>
        </g>
        <g transform="matrix(0.999999,0,0,0.999999,-909.706,-580.967)">
            <path d="M1441.56,984.959C1443.02,983.761 1443.75,982.248 1443.75,980.419C1443.75,978.593 1443.18,977.143 1442.03,976.073C1440.88,975.002 1438.74,973.999 1435.61,973.059L1435.61,987.151C1438.11,986.893 1440.09,986.16 1441.56,984.959ZM1425.07,950.626C1423.74,951.798 1423.08,953.261 1423.08,955.01C1423.08,956.759 1423.6,958.142 1424.65,959.158C1425.69,960.178 1427.67,961.156 1430.6,962.096L1430.6,948.548C1428.25,948.759 1426.41,949.45 1425.07,950.626ZM1430.6,1001.17L1430.6,995.451C1423.44,994.721 1417.02,991.876 1411.33,986.918L1417.05,980.107C1421.43,983.917 1425.95,986.186 1430.6,986.918L1430.6,971.727C1424.7,970.319 1420.38,968.465 1417.64,966.167C1414.9,963.87 1413.53,960.464 1413.53,955.95C1413.53,951.435 1415.1,947.742 1418.26,944.868C1421.42,941.998 1425.53,940.433 1430.6,940.172L1430.6,936.257L1435.61,936.257L1435.61,940.249C1441.35,940.669 1446.78,942.625 1451.89,946.124L1446.8,953.328C1443.36,950.874 1439.63,949.361 1435.61,948.784L1435.61,963.504L1435.84,963.504C1441.84,964.915 1446.25,966.821 1449.07,969.22C1451.89,971.622 1453.3,975.108 1453.3,979.673C1453.3,984.242 1451.68,987.963 1448.45,990.831C1445.21,993.705 1440.93,995.269 1435.61,995.53L1435.61,1001.17L1430.6,1001.17Z" style="fill:white;fill-rule:nonzero;"/>
        </g>
    </g>
</svg>
