<?xml version="1.0" encoding="UTF-8" standalone="no"?>
<!DOCTYPE svg PUBLIC "-//W3C//DTD SVG 1.1//EN" "http://www.w3.org/Graphics/SVG/1.1/DTD/svg11.dtd">
<svg width="100%" height="100%" viewBox="0 0 3125 2758" version="1.1" xmlns="http://www.w3.org/2000/svg" xmlns:xlink="http://www.w3.org/1999/xlink" xml:space="preserve" xmlns:serif="http://www.serif.com/" style="fill-rule:evenodd;clip-rule:evenodd;stroke-linejoin:round;stroke-miterlimit:2;">
    <g transform="matrix(4.16667,0,0,4.16667,-3507,-3713)">
        <g transform="matrix(1,0,0,1,-125.128,240.658)">
            <path d="M1292.29,696.714C1160.91,696.714 1050.28,785.465 1017.03,906.277L1096.96,982.209L1016.49,1056.14C1049.06,1177.97 1160.19,1267.7 1292.29,1267.7C1449.97,1267.7 1577.79,1139.88 1577.79,982.209C1577.79,824.535 1449.97,696.714 1292.29,696.714Z" style="fill:rgb(255,229,36);fill-rule:nonzero;"/>
        </g>
        <g transform="matrix(1,0,0,1,-125.128,240.658)">
            <path d="M1418.05,684.821C1427.15,688.612 1436.17,692.877 1444.87,697.5C1445.47,697.818 1446.12,697.968 1446.75,697.968C1448.18,697.968 1449.57,697.196 1450.29,695.84C1451.33,693.885 1450.59,691.459 1448.63,690.421C1439.71,685.684 1430.46,681.311 1421.14,677.425C1419.1,676.574 1416.75,677.538 1415.9,679.581C1415.05,681.623 1416.01,683.97 1418.05,684.821Z" style="fill:rgb(19,54,93);fill-rule:nonzero;"/>
        </g>
        <g transform="matrix(1,0,0,1,-125.128,240.658)">
            <path d="M1302.61,660.354C1312.49,660.59 1322.44,661.286 1332.2,662.42C1332.36,662.438 1332.52,662.447 1332.67,662.447C1334.68,662.447 1336.41,660.943 1336.65,658.903C1336.9,656.705 1335.33,654.716 1333.13,654.459C1323.12,653.297 1312.92,652.584 1302.81,652.342C1300.61,652.278 1298.76,654.04 1298.7,656.251C1298.65,658.463 1300.4,660.301 1302.61,660.354Z" style="fill:rgb(19,54,93);fill-rule:nonzero;"/>
        </g>
        <g transform="matrix(1,0,0,1,-125.128,240.658)">
            <path d="M1470.4,712.612C1478.63,718.012 1486.72,723.868 1494.43,730.016C1495.17,730.604 1496.05,730.89 1496.92,730.89C1498.1,730.89 1499.27,730.373 1500.06,729.38C1501.44,727.65 1501.16,725.129 1499.42,723.75C1491.52,717.448 1483.24,711.447 1474.8,705.911C1472.95,704.699 1470.46,705.212 1469.25,707.063C1468.04,708.913 1468.55,711.397 1470.4,712.612Z" style="fill:rgb(19,54,93);fill-rule:nonzero;"/>
        </g>
        <g transform="matrix(1,0,0,1,-125.128,240.658)">
            <path d="M1361.48,667.208C1371.11,669.248 1380.77,671.767 1390.18,674.695C1390.57,674.818 1390.97,674.877 1391.37,674.877C1393.08,674.877 1394.66,673.776 1395.19,672.059C1395.85,669.946 1394.67,667.7 1392.56,667.043C1382.91,664.042 1373.02,661.459 1363.13,659.368C1360.97,658.906 1358.84,660.294 1358.39,662.458C1357.93,664.624 1359.31,666.75 1361.48,667.208Z" style="fill:rgb(19,54,93);fill-rule:nonzero;"/>
        </g>
        <g transform="matrix(1,0,0,1,-125.128,240.658)">
            <path d="M1571.69,819.256C1572.44,820.53 1573.78,821.242 1575.16,821.242C1575.84,821.242 1576.54,821.064 1577.17,820.693C1579.08,819.576 1579.73,817.122 1578.61,815.211C1573.52,806.5 1567.95,797.917 1562.07,789.701C1560.78,787.902 1558.28,787.49 1556.48,788.776C1554.68,790.064 1554.26,792.568 1555.55,794.367C1561.29,802.383 1566.72,810.757 1571.69,819.256Z" style="fill:rgb(19,54,93);fill-rule:nonzero;"/>
        </g>
        <g transform="matrix(1,0,0,1,-125.128,240.658)">
            <path d="M1537.19,771.069C1537.98,771.984 1539.09,772.453 1540.22,772.453C1541.15,772.453 1542.08,772.131 1542.84,771.475C1544.51,770.026 1544.69,767.496 1543.24,765.823C1536.63,758.19 1529.59,750.773 1522.3,743.778C1520.71,742.244 1518.17,742.297 1516.64,743.893C1515.1,745.489 1515.16,748.026 1516.75,749.558C1523.86,756.384 1530.74,763.621 1537.19,771.069Z" style="fill:rgb(19,54,93);fill-rule:nonzero;"/>
        </g>
        <g transform="matrix(1,0,0,1,-125.128,240.658)">
            <path d="M1611.37,930.385C1611.68,932.359 1613.39,933.768 1615.33,933.768C1615.53,933.768 1615.74,933.751 1615.96,933.718C1618.14,933.372 1619.63,931.32 1619.29,929.135C1617.71,919.15 1615.65,909.131 1613.15,899.354C1612.61,897.209 1610.43,895.913 1608.28,896.462C1606.14,897.009 1604.84,899.19 1605.39,901.335C1607.82,910.872 1609.83,920.646 1611.37,930.385Z" style="fill:rgb(19,54,93);fill-rule:nonzero;"/>
        </g>
        <g transform="matrix(1,0,0,1,-125.128,240.658)">
            <path d="M1596.73,872.968C1597.31,874.607 1598.85,875.629 1600.5,875.629C1600.95,875.629 1601.4,875.554 1601.85,875.395C1603.93,874.65 1605.02,872.357 1604.27,870.274C1600.88,860.771 1596.99,851.307 1592.72,842.144C1591.79,840.138 1589.41,839.274 1587.4,840.204C1585.39,841.14 1584.52,843.523 1585.46,845.529C1589.63,854.467 1593.42,863.699 1596.73,872.968Z" style="fill:rgb(19,54,93);fill-rule:nonzero;"/>
        </g>
        <g transform="matrix(1,0,0,1,-125.128,240.658)">
            <path d="M1242.83,664.395C1243.05,664.395 1243.26,664.377 1243.48,664.343C1253.18,662.781 1263.1,661.653 1272.95,660.991C1275.16,660.842 1276.83,658.932 1276.68,656.724C1276.53,654.516 1274.61,652.857 1272.41,652.995C1262.31,653.674 1252.15,654.83 1242.2,656.431C1240.02,656.782 1238.53,658.838 1238.88,661.023C1239.2,662.993 1240.9,664.395 1242.83,664.395Z" style="fill:rgb(19,54,93);fill-rule:nonzero;"/>
        </g>
        <g transform="matrix(1,0,0,1,-125.128,240.658)">
            <path d="M1081.76,739.95C1082.69,739.95 1083.63,739.626 1084.39,738.965C1091.82,732.495 1099.64,726.294 1107.63,720.535C1109.43,719.242 1109.84,716.737 1108.54,714.942C1107.25,713.147 1104.75,712.739 1102.95,714.033C1094.76,719.935 1086.74,726.29 1079.13,732.921C1077.46,734.375 1077.28,736.906 1078.74,738.575C1079.53,739.485 1080.64,739.95 1081.76,739.95Z" style="fill:rgb(19,54,93);fill-rule:nonzero;"/>
        </g>
        <g transform="matrix(1,0,0,1,-125.128,240.658)">
            <path d="M983.407,888.919C983.8,889.04 984.198,889.098 984.589,889.098C986.301,889.098 987.886,887.991 988.417,886.27C991.318,876.851 994.7,867.457 998.467,858.351C999.313,856.306 998.341,853.963 996.296,853.116C994.251,852.27 991.908,853.242 991.062,855.287C987.2,864.625 983.733,874.254 980.758,883.91C980.106,886.024 981.292,888.267 983.407,888.919Z" style="fill:rgb(19,54,93);fill-rule:nonzero;"/>
        </g>
        <g transform="matrix(1,0,0,1,-125.128,240.658)">
            <path d="M1037.82,782.485C1038.56,783.069 1039.44,783.352 1040.31,783.352C1041.49,783.352 1042.66,782.832 1043.45,781.833C1049.57,774.113 1056.13,766.584 1062.94,759.457C1064.46,757.856 1064.41,755.32 1062.8,753.792C1061.2,752.263 1058.67,752.323 1057.14,753.922C1050.16,761.228 1043.45,768.943 1037.17,776.856C1035.8,778.59 1036.09,781.11 1037.82,782.485Z" style="fill:rgb(19,54,93);fill-rule:nonzero;"/>
        </g>
        <g transform="matrix(1,0,0,1,-125.128,240.658)">
            <path d="M1184.74,679.391C1185.19,679.391 1185.65,679.315 1186.1,679.153C1195.37,675.813 1204.9,672.87 1214.44,670.409C1216.58,669.856 1217.87,667.671 1217.32,665.527C1216.77,663.384 1214.58,662.094 1212.44,662.649C1202.66,665.173 1192.88,668.189 1183.38,671.614C1181.3,672.364 1180.22,674.66 1180.97,676.742C1181.56,678.375 1183.1,679.391 1184.74,679.391Z" style="fill:rgb(19,54,93);fill-rule:nonzero;"/>
        </g>
        <g transform="matrix(1,0,0,1,-125.128,240.658)">
            <path d="M1005.66,833.163C1006.26,833.477 1006.9,833.626 1007.52,833.626C1008.96,833.626 1010.35,832.849 1011.07,831.488C1015.67,822.776 1020.73,814.171 1026.11,805.912C1027.32,804.058 1026.8,801.575 1024.95,800.366C1023.09,799.157 1020.61,799.679 1019.4,801.533C1013.88,810 1008.69,818.82 1003.98,827.75C1002.95,829.707 1003.7,832.131 1005.66,833.163Z" style="fill:rgb(19,54,93);fill-rule:nonzero;"/>
        </g>
        <g transform="matrix(1,0,0,1,-125.128,240.658)">
            <path d="M1130.45,704.884C1131.14,704.884 1131.84,704.705 1132.47,704.329C1140.97,699.332 1149.79,694.677 1158.7,690.492C1160.71,689.552 1161.57,687.165 1160.63,685.162C1159.69,683.159 1157.3,682.296 1155.3,683.239C1146.16,687.527 1137.12,692.299 1128.41,697.422C1126.5,698.544 1125.87,701 1126.99,702.908C1127.74,704.177 1129.07,704.884 1130.45,704.884Z" style="fill:rgb(19,54,93);fill-rule:nonzero;"/>
        </g>
        <g transform="matrix(1,0,0,1,-125.128,240.658)">
            <path d="M1618.23,1009.03C1614.1,1008.57 1610.4,1011.57 1609.95,1015.69C1608.07,1033.09 1604.81,1050.02 1600.29,1066.39C1600.05,1066.84 1599.86,1067.31 1599.71,1067.82C1561.14,1203.24 1435.75,1297.82 1294.78,1297.82C1147.88,1297.82 1021.9,1198.98 986.955,1056.93L1059.29,985.733C1060.73,984.321 1061.54,982.393 1061.54,980.38C1061.54,978.366 1060.73,976.438 1059.29,975.024L984.098,900.989C981.141,898.079 976.384,898.114 973.473,901.072C970.562,904.028 970.599,908.786 973.556,911.697L1043.31,980.378L973.391,1049.19C971.526,1051.03 970.75,1053.7 971.343,1056.25C988.03,1128.06 1029.04,1193.21 1086.83,1239.68C1115.69,1262.89 1147.92,1280.98 1182.63,1293.43C1217.76,1306.03 1254.63,1312.54 1292.26,1312.82C1293.05,1313.1 1293.89,1313.26 1294.78,1313.26C1377.17,1313.26 1456.19,1282.87 1517.28,1227.69C1577.93,1172.91 1616.14,1098.2 1624.89,1017.31C1625.34,1013.18 1622.35,1009.48 1618.23,1009.03Z" style="fill:rgb(0,97,255);fill-rule:nonzero;"/>
        </g>
        <g transform="matrix(1,0,0,1,-125.128,240.658)">
            <path d="M1721.04,981.708L1645.91,908.081L1645.91,977.2L1623.3,977.2C1623.24,972.454 1623.08,967.672 1622.82,962.89L1622.54,959.309C1622.36,957.104 1620.45,955.452 1618.23,955.631C1616.02,955.806 1614.38,957.735 1614.55,959.942L1614.83,963.425C1615.15,969.313 1615.31,975.296 1615.31,981.207L1615.31,985.214L1645.91,985.214L1645.91,1055.34L1721.04,981.708Z" style="fill:rgb(0,97,255);fill-rule:nonzero;"/>
        </g>
        <g transform="matrix(0.999999,0,0,0.999999,530.178,-537.328)">
            <rect x="646.859" y="1622.24" width="26.645" height="20.31" style="fill:rgb(102,108,163);fill-rule:nonzero;"/>
        </g>
        <g transform="matrix(0.999999,0,0,0.999999,530.178,-537.328)">
            <path d="M682.099,1758.37L682.099,1772.92C682.099,1775.02 680.38,1776.69 678.285,1776.69L642.078,1776.69C639.982,1776.69 638.318,1775.02 638.318,1772.92L638.318,1758.37L682.099,1758.37Z" style="fill:rgb(102,108,163);fill-rule:nonzero;"/>
        </g>
        <g transform="matrix(0.999999,0,0,0.999999,530.178,-537.328)">
            <path d="M672.806,1776.69L672.806,1783.94C672.806,1784.42 672.806,1784.9 672.752,1785.33C672.054,1791.67 666.682,1796.56 660.182,1796.56C656.69,1796.56 653.52,1795.16 651.264,1792.85C649.276,1790.92 647.934,1788.29 647.611,1785.33C647.557,1784.9 647.557,1784.42 647.557,1783.94L647.557,1776.69L672.806,1776.69Z" style="fill:rgb(102,108,163);fill-rule:nonzero;"/>
        </g>
        <g transform="matrix(0.999999,0,0,0.999999,530.178,-537.328)">
            <path d="M694.989,1651.16L694.989,1749.75C694.989,1754.5 691.142,1758.34 686.397,1758.34L633.993,1758.34C629.247,1758.34 625.4,1754.5 625.4,1749.75L625.4,1651.16C625.4,1646.41 629.247,1642.56 633.993,1642.56L686.397,1642.56C691.142,1642.56 694.989,1646.41 694.989,1651.16Z" style="fill:rgb(110,113,152);fill-rule:nonzero;"/>
        </g>
        <g transform="matrix(0.999999,0,0,0.999999,530.178,-537.328)">
            <path d="M694.992,1664.36C694.992,1664.28 694.991,1664.21 694.989,1664.13L694.989,1651.16C694.989,1646.41 691.142,1642.56 686.397,1642.56L633.993,1642.56C631.839,1642.56 629.869,1643.36 628.361,1644.67C629.868,1643.35 631.844,1642.55 634.02,1642.55L686.397,1642.55C691.124,1642.55 694.992,1646.41 694.992,1651.14L694.992,1664.36Z" style="fill:white;fill-rule:nonzero;"/>
        </g>
        <g transform="matrix(0.999999,0,0,0.999999,530.178,-537.328)">
            <path d="M625.425,1664.36L625.425,1651.14C625.425,1648.57 626.557,1646.24 628.361,1644.67C629.869,1643.36 631.839,1642.56 633.993,1642.56L686.397,1642.56C691.142,1642.56 694.989,1646.41 694.989,1651.16L694.989,1664.13C694.87,1659.51 691.05,1655.76 686.397,1655.76L634.02,1655.76C629.239,1655.76 625.425,1659.63 625.425,1664.36Z" style="fill:rgb(168,170,193);fill-rule:nonzero;"/>
        </g>
        <g transform="matrix(0.999999,0,0,0.999999,530.178,-537.328)">
            <rect x="646.859" y="1633.04" width="26.645" height="9.51" style="fill:rgb(92,98,147);fill-rule:nonzero;"/>
        </g>
        <g transform="matrix(0.999999,0,0,0.999999,530.178,-537.328)">
            <path d="M686.397,1758.34L634.02,1758.34L686.397,1758.34C691.142,1758.34 694.989,1754.5 694.989,1749.75L694.989,1736.81C694.991,1736.74 694.992,1736.66 694.992,1736.59L694.992,1749.75C694.992,1754.53 691.124,1758.34 686.397,1758.34ZM630.571,1757.63L630.558,1757.63L630.571,1757.63ZM630.545,1757.62C629.576,1757.2 628.702,1756.6 627.963,1755.87C628.704,1756.6 629.578,1757.2 630.545,1757.62Z" style="fill:rgb(229,229,229);fill-rule:nonzero;"/>
        </g>
        <g transform="matrix(0.999999,0,0,0.999999,530.178,-537.328)">
            <path d="M686.397,1758.34L634.02,1758.34C632.79,1758.34 631.624,1758.09 630.571,1757.63L630.558,1757.63C630.554,1757.63 630.55,1757.63 630.545,1757.62C629.578,1757.2 628.704,1756.6 627.963,1755.87C626.392,1754.32 625.425,1752.16 625.425,1749.75L625.425,1736.59C625.425,1741.31 629.239,1745.18 634.02,1745.18L686.397,1745.18C691.05,1745.18 694.87,1741.43 694.989,1736.81L694.989,1749.75C694.989,1754.5 691.142,1758.34 686.397,1758.34Z" style="fill:rgb(98,101,136);fill-rule:nonzero;"/>
        </g>
        <g transform="matrix(0.999999,0,0,0.999999,530.178,-537.328)">
            <rect x="638.318" y="1758.37" width="43.781" height="9.13" style="fill:rgb(92,98,147);fill-rule:nonzero;"/>
        </g>
        <g transform="matrix(0.999999,0,0,0.999999,530.178,-537.328)">
            <path d="M672.752,1785.33L647.611,1785.33C647.559,1784.92 647.557,1784.45 647.557,1783.98L647.557,1783.94L647.557,1776.69L672.806,1776.69L672.806,1783.94C672.806,1784.42 672.806,1784.9 672.752,1785.33Z" style="fill:rgb(92,98,147);fill-rule:nonzero;"/>
        </g>
        <g transform="matrix(0.999999,0,0,0.999999,530.178,-537.328)">
            <path d="M589.659,1869.36L685.937,1869.36L589.659,1869.36Z" style="fill:rgb(102,108,163);fill-rule:nonzero;"/>
        </g>
        <g transform="matrix(0.999999,0,0,0.999999,530.178,-537.328)">
            <path d="M658.597,1848.54L658.597,1869.36L616.999,1869.36L616.999,1848.54C616.999,1837.09 626.272,1827.76 637.772,1827.76C643.522,1827.76 648.703,1830.1 652.484,1833.88C656.266,1837.61 658.597,1842.84 658.597,1848.54Z" style="fill:rgb(150,174,205);fill-rule:nonzero;"/>
        </g>
        <g transform="matrix(0.999999,0,0,0.999999,530.178,-537.328)">
            <path d="M616.991,1860.81L616.991,1848.56C616.991,1842.88 619.265,1837.73 622.954,1833.98C619.269,1837.73 616.999,1842.87 616.999,1848.54L616.999,1857.06L616.991,1857.06L616.991,1860.81ZM658.624,1857.06L658.597,1857.06L658.597,1848.54C658.597,1843.55 656.811,1838.92 653.83,1835.34C656.809,1838.9 658.624,1843.53 658.624,1848.56L658.624,1857.06Z" style="fill:white;fill-rule:nonzero;"/>
        </g>
        <g transform="matrix(0.999999,0,0,0.999999,530.178,-537.328)">
            <path d="M658.597,1857.06L658.277,1857.06C657.492,1852.85 655.416,1849.06 652.499,1846.14C648.685,1842.38 643.528,1840.02 637.78,1840.02C627.57,1840.02 619.097,1847.39 617.33,1857.06L616.999,1857.06L616.999,1848.54C616.999,1842.87 619.269,1837.73 622.954,1833.98C626.724,1830.15 631.971,1827.77 637.78,1827.77C643.528,1827.77 648.685,1830.08 652.499,1833.9C652.965,1834.36 653.409,1834.84 653.83,1835.34C656.811,1838.92 658.597,1843.55 658.597,1848.54L658.597,1857.06Z" style="fill:rgb(191,206,225);fill-rule:nonzero;"/>
        </g>
        <g transform="matrix(0.999999,0,0,0.999999,530.178,-537.328)">
            <path d="M658.624,1869.36L658.597,1869.36L658.597,1859.77C658.615,1860.12 658.624,1860.46 658.624,1860.81L658.624,1857.06L658.624,1869.36ZM616.999,1869.36L616.991,1869.36L616.991,1860.81C616.991,1860.61 616.993,1860.42 616.999,1860.22L616.999,1869.36Z" style="fill:rgb(229,229,229);fill-rule:nonzero;"/>
        </g>
        <g transform="matrix(0.999999,0,0,0.999999,530.178,-537.328)">
            <path d="M658.624,1869.36L658.597,1869.36L658.624,1869.36ZM616.999,1869.36L616.991,1869.36L616.999,1869.36Z" style="fill:rgb(92,98,147);fill-rule:nonzero;"/>
        </g>
        <g transform="matrix(0.999999,0,0,0.999999,530.178,-537.328)">
            <path d="M658.597,1869.36L616.999,1869.36L616.999,1860.22C617.029,1859.15 617.141,1858.09 617.33,1857.06L658.277,1857.06C658.443,1857.95 658.551,1858.85 658.597,1859.77L658.597,1869.36Z" style="fill:rgb(134,156,184);fill-rule:nonzero;"/>
        </g>
        <g transform="matrix(0.999999,0,0,0.999999,530.178,-537.328)">
            <path d="M658.624,1860.81C658.624,1860.46 658.615,1860.12 658.597,1859.77L658.597,1857.06L658.624,1857.06L658.624,1860.81Z" style="fill:rgb(229,229,229);fill-rule:nonzero;"/>
        </g>
        <g transform="matrix(0.999999,0,0,0.999999,530.178,-537.328)">
            <path d="M658.597,1859.77C658.551,1858.85 658.443,1857.95 658.277,1857.06L658.597,1857.06L658.597,1859.77Z" style="fill:rgb(172,185,202);fill-rule:nonzero;"/>
        </g>
        <g transform="matrix(0.999999,0,0,0.999999,530.178,-537.328)">
            <path d="M616.991,1860.81L616.991,1857.06L616.999,1857.06L616.999,1860.22C616.993,1860.42 616.991,1860.61 616.991,1860.81Z" style="fill:rgb(229,229,229);fill-rule:nonzero;"/>
        </g>
        <g transform="matrix(0.999999,0,0,0.999999,530.178,-537.328)">
            <path d="M616.999,1860.22L616.999,1857.06L617.33,1857.06C617.141,1858.09 617.029,1859.15 616.999,1860.22Z" style="fill:rgb(172,185,202);fill-rule:nonzero;"/>
        </g>
        <g transform="matrix(0.999999,0,0,0.999999,530.178,-537.328)">
            <path d="M636.888,1827.76L712.342,1827.76" style="fill:none;fill-rule:nonzero;"/>
        </g>
        <g transform="matrix(0.999999,0,0,0.999999,530.178,-537.328)">
            <path d="M638.689,1686.06C638.689,1694.71 631.629,1701.77 622.988,1701.77C614.347,1701.77 607.343,1694.71 607.343,1686.06C607.343,1677.42 614.347,1670.42 622.988,1670.42C631.629,1670.42 638.689,1677.42 638.689,1686.06Z" style="fill:rgb(150,174,205);fill-rule:nonzero;"/>
        </g>
        <g transform="matrix(0.999999,0,0,0.999999,530.178,-537.328)">
            <path d="M611.767,1696.99C609.01,1694.17 607.321,1690.31 607.321,1686.06C607.321,1680.96 609.768,1676.44 613.55,1673.59C609.779,1676.44 607.343,1680.97 607.343,1686.06C607.343,1690.3 609.029,1694.16 611.767,1696.99Z" style="fill:rgb(229,229,229);fill-rule:nonzero;"/>
        </g>
        <g transform="matrix(0.999999,0,0,0.999999,530.178,-537.328)">
            <path d="M615.594,1699.87C614.171,1699.11 612.882,1698.14 611.767,1696.99C609.029,1694.16 607.343,1690.3 607.343,1686.06C607.343,1680.97 609.779,1676.44 613.55,1673.59C616.181,1671.6 619.459,1670.43 623.007,1670.43C631.334,1670.43 638.264,1676.98 638.64,1685.25C636.437,1684.02 633.912,1683.37 631.173,1683.37C622.524,1683.37 615.54,1690.36 615.54,1699.01C615.54,1699.27 615.54,1699.6 615.594,1699.87Z" style="fill:rgb(134,156,184);fill-rule:nonzero;"/>
        </g>
        <g transform="matrix(0.999999,0,0,0.999999,530.178,-537.328)">
            <path d="M653.206,1864.01L622.371,1864.01L622.371,1848.54C622.371,1840.1 629.248,1833.23 637.628,1833.12L637.95,1833.12C646.169,1833.23 653.206,1839.94 653.206,1848.54L653.206,1864.01ZM622.962,1675.77C628.818,1675.77 633.33,1680.66 633.33,1686.09C633.33,1691.73 628.656,1696.4 622.962,1696.4C617.429,1696.4 612.702,1691.78 612.702,1686.09C612.702,1680.13 617.59,1675.77 622.962,1675.77ZM630.752,1651.17C630.752,1649.4 632.202,1647.95 633.975,1647.95L686.406,1647.95C688.178,1647.95 689.629,1649.4 689.629,1651.17L689.629,1749.75C689.629,1751.52 688.178,1752.97 686.406,1752.97L633.921,1752.97C632.148,1752.92 630.752,1751.52 630.752,1749.75L630.752,1705.64C638.541,1702.58 644.074,1694.95 644.074,1686.09C644.074,1677.22 638.541,1669.6 630.752,1666.53L630.752,1651.17ZM652.24,1627.64L668.141,1627.64L668.141,1637.2L652.24,1637.2L652.24,1627.64ZM676.682,1771.34L643.698,1771.34L643.698,1763.71L676.682,1763.71L676.682,1771.34ZM667.443,1783.91C667.443,1787.94 664.166,1791.17 660.19,1791.17C656.215,1791.17 652.938,1787.94 652.938,1783.91L652.938,1782.09L667.443,1782.09L667.443,1783.91ZM712.352,1822.38C694.893,1822.38 638.541,1822.38 636.661,1822.43C623.177,1823.13 613.292,1833.23 611.842,1845.37C574.936,1839.24 546.733,1807.07 546.733,1768.44C546.733,1732.83 570.692,1702.74 603.354,1693.45C605.933,1700.54 612.326,1705.86 620.007,1706.93L620.007,1749.75C620.007,1757.05 625.756,1763.12 632.954,1763.66L632.954,1772.9C632.954,1777.95 637.037,1782.09 642.086,1782.09L642.194,1782.09L642.194,1783.91C642.194,1793.85 650.252,1801.91 660.19,1801.91C670.128,1801.91 678.187,1793.85 678.187,1783.91L678.187,1782.09L678.294,1782.09C683.343,1782.09 687.426,1777.95 687.426,1772.9L687.426,1763.66C694.625,1763.12 700.373,1757.05 700.373,1749.75L700.373,1651.17C700.373,1643.44 694.087,1637.2 686.406,1637.2L678.885,1637.2L678.885,1627.64L684.418,1627.64C687.372,1627.64 689.79,1625.22 689.79,1622.27C689.79,1619.26 687.372,1616.9 684.418,1616.9L635.963,1616.9C633.008,1616.9 630.591,1619.26 630.591,1622.27C630.591,1625.22 633.008,1627.64 635.963,1627.64L641.496,1627.64L641.496,1637.2L633.975,1637.2C626.293,1637.2 620.007,1643.44 620.007,1651.17L620.007,1665.25C610.983,1666.53 603.784,1673.63 602.28,1682.6C564.192,1692.54 535.989,1727.29 535.989,1768.44C535.989,1812.92 568.866,1849.88 611.627,1856.22L611.627,1864.01L589.655,1864.01C586.701,1864.01 584.283,1866.37 584.283,1869.38C584.283,1872.34 586.701,1874.75 589.655,1874.75L685.922,1874.75C688.877,1874.75 691.294,1872.34 691.294,1869.38C691.294,1866.37 688.877,1864.01 685.922,1864.01L663.951,1864.01L663.951,1848.54C663.951,1842.95 662.124,1837.53 658.847,1833.12L712.352,1833.12C715.307,1833.12 717.724,1830.7 717.724,1827.75C717.724,1824.79 715.307,1822.38 712.352,1822.38Z" style="fill:rgb(40,59,102);fill-rule:nonzero;"/>
        </g>
        <g transform="matrix(0.999999,0,0,0.999999,530.178,-537.328)">
            <path d="M632.202,1848.54C632.202,1851.65 634.673,1854.18 637.789,1854.18C640.905,1854.18 643.429,1851.65 643.429,1848.54C643.429,1845.48 640.905,1842.95 637.789,1842.95C634.673,1842.95 632.202,1845.48 632.202,1848.54Z" style="fill:rgb(40,59,102);fill-rule:nonzero;"/>
        </g>
    </g>
</svg>
