<?xml version="1.0" encoding="UTF-8" standalone="no"?>
<!DOCTYPE svg PUBLIC "-//W3C//DTD SVG 1.1//EN" "http://www.w3.org/Graphics/SVG/1.1/DTD/svg11.dtd">
<svg width="100%" height="100%" viewBox="0 0 3125 2758" version="1.1" xmlns="http://www.w3.org/2000/svg" xmlns:xlink="http://www.w3.org/1999/xlink" xml:space="preserve" xmlns:serif="http://www.serif.com/" style="fill-rule:evenodd;clip-rule:evenodd;stroke-linejoin:round;stroke-miterlimit:2;">
    <g transform="matrix(4.16667,0,0,4.16667,-3507,-3713)">
        <g transform="matrix(1,0,0,1,-125.128,240.658)">
            <path d="M1292.29,696.714C1160.91,696.714 1050.28,785.465 1017.03,906.277L1096.96,982.209L1016.49,1056.14C1049.06,1177.97 1160.19,1267.7 1292.29,1267.7C1449.97,1267.7 1577.79,1139.88 1577.79,982.209C1577.79,824.535 1449.97,696.714 1292.29,696.714Z" style="fill:rgb(255,229,36);fill-rule:nonzero;"/>
        </g>
        <g transform="matrix(1,0,0,1,-125.128,240.658)">
            <path d="M1418.05,684.821C1427.15,688.612 1436.17,692.877 1444.87,697.5C1445.47,697.818 1446.12,697.968 1446.75,697.968C1448.18,697.968 1449.57,697.196 1450.29,695.84C1451.33,693.885 1450.59,691.459 1448.63,690.421C1439.71,685.684 1430.46,681.311 1421.14,677.425C1419.1,676.574 1416.75,677.538 1415.9,679.581C1415.05,681.623 1416.01,683.97 1418.05,684.821Z" style="fill:rgb(19,54,93);fill-rule:nonzero;"/>
        </g>
        <g transform="matrix(1,0,0,1,-125.128,240.658)">
            <path d="M1302.61,660.354C1312.49,660.59 1322.44,661.286 1332.2,662.42C1332.36,662.438 1332.52,662.447 1332.67,662.447C1334.68,662.447 1336.41,660.943 1336.65,658.903C1336.9,656.705 1335.33,654.716 1333.13,654.459C1323.12,653.297 1312.92,652.584 1302.81,652.342C1300.61,652.278 1298.76,654.04 1298.7,656.251C1298.65,658.463 1300.4,660.301 1302.61,660.354Z" style="fill:rgb(19,54,93);fill-rule:nonzero;"/>
        </g>
        <g transform="matrix(1,0,0,1,-125.128,240.658)">
            <path d="M1470.4,712.612C1478.63,718.012 1486.72,723.868 1494.43,730.016C1495.17,730.604 1496.05,730.89 1496.92,730.89C1498.1,730.89 1499.27,730.373 1500.06,729.38C1501.44,727.65 1501.16,725.129 1499.42,723.75C1491.52,717.448 1483.24,711.447 1474.8,705.911C1472.95,704.699 1470.46,705.212 1469.25,707.063C1468.04,708.913 1468.55,711.397 1470.4,712.612Z" style="fill:rgb(19,54,93);fill-rule:nonzero;"/>
        </g>
        <g transform="matrix(1,0,0,1,-125.128,240.658)">
            <path d="M1361.48,667.208C1371.11,669.248 1380.77,671.767 1390.18,674.695C1390.57,674.818 1390.97,674.877 1391.37,674.877C1393.08,674.877 1394.66,673.776 1395.19,672.059C1395.85,669.946 1394.67,667.7 1392.56,667.043C1382.91,664.042 1373.02,661.459 1363.13,659.368C1360.97,658.906 1358.84,660.294 1358.39,662.458C1357.93,664.624 1359.31,666.75 1361.48,667.208Z" style="fill:rgb(19,54,93);fill-rule:nonzero;"/>
        </g>
        <g transform="matrix(1,0,0,1,-125.128,240.658)">
            <path d="M1571.69,819.256C1572.44,820.53 1573.78,821.242 1575.16,821.242C1575.84,821.242 1576.54,821.064 1577.17,820.693C1579.08,819.576 1579.73,817.122 1578.61,815.211C1573.52,806.5 1567.95,797.917 1562.07,789.701C1560.78,787.902 1558.28,787.49 1556.48,788.776C1554.68,790.064 1554.26,792.568 1555.55,794.367C1561.29,802.383 1566.72,810.757 1571.69,819.256Z" style="fill:rgb(19,54,93);fill-rule:nonzero;"/>
        </g>
        <g transform="matrix(1,0,0,1,-125.128,240.658)">
            <path d="M1537.19,771.069C1537.98,771.984 1539.09,772.453 1540.22,772.453C1541.15,772.453 1542.08,772.131 1542.84,771.475C1544.51,770.026 1544.69,767.496 1543.24,765.823C1536.63,758.19 1529.59,750.773 1522.3,743.778C1520.71,742.244 1518.17,742.297 1516.64,743.893C1515.1,745.489 1515.16,748.026 1516.75,749.558C1523.86,756.384 1530.74,763.621 1537.19,771.069Z" style="fill:rgb(19,54,93);fill-rule:nonzero;"/>
        </g>
        <g transform="matrix(1,0,0,1,-125.128,240.658)">
            <path d="M1611.37,930.385C1611.68,932.359 1613.39,933.768 1615.33,933.768C1615.53,933.768 1615.74,933.751 1615.96,933.718C1618.14,933.372 1619.63,931.32 1619.29,929.135C1617.71,919.15 1615.65,909.131 1613.15,899.354C1612.61,897.209 1610.43,895.913 1608.28,896.462C1606.14,897.009 1604.84,899.19 1605.39,901.335C1607.82,910.872 1609.83,920.646 1611.37,930.385Z" style="fill:rgb(19,54,93);fill-rule:nonzero;"/>
        </g>
        <g transform="matrix(1,0,0,1,-125.128,240.658)">
            <path d="M1596.73,872.968C1597.31,874.607 1598.85,875.629 1600.5,875.629C1600.95,875.629 1601.4,875.554 1601.85,875.395C1603.93,874.65 1605.02,872.357 1604.27,870.274C1600.88,860.771 1596.99,851.307 1592.72,842.144C1591.79,840.138 1589.41,839.274 1587.4,840.204C1585.39,841.14 1584.52,843.523 1585.46,845.529C1589.63,854.467 1593.42,863.699 1596.73,872.968Z" style="fill:rgb(19,54,93);fill-rule:nonzero;"/>
        </g>
        <g transform="matrix(1,0,0,1,-125.128,240.658)">
            <path d="M1242.83,664.395C1243.05,664.395 1243.26,664.377 1243.48,664.343C1253.18,662.781 1263.1,661.653 1272.95,660.991C1275.16,660.842 1276.83,658.932 1276.68,656.724C1276.53,654.516 1274.61,652.857 1272.41,652.995C1262.31,653.674 1252.15,654.83 1242.2,656.431C1240.02,656.782 1238.53,658.838 1238.88,661.023C1239.2,662.993 1240.9,664.395 1242.83,664.395Z" style="fill:rgb(19,54,93);fill-rule:nonzero;"/>
        </g>
        <g transform="matrix(1,0,0,1,-125.128,240.658)">
            <path d="M1081.76,739.95C1082.69,739.95 1083.63,739.626 1084.39,738.965C1091.82,732.495 1099.64,726.294 1107.63,720.535C1109.43,719.242 1109.84,716.737 1108.54,714.942C1107.25,713.147 1104.75,712.739 1102.95,714.033C1094.76,719.935 1086.74,726.29 1079.13,732.921C1077.46,734.375 1077.28,736.906 1078.74,738.575C1079.53,739.485 1080.64,739.95 1081.76,739.95Z" style="fill:rgb(19,54,93);fill-rule:nonzero;"/>
        </g>
        <g transform="matrix(1,0,0,1,-125.128,240.658)">
            <path d="M983.407,888.919C983.8,889.04 984.198,889.098 984.589,889.098C986.301,889.098 987.886,887.991 988.417,886.27C991.318,876.851 994.7,867.457 998.467,858.351C999.313,856.306 998.341,853.963 996.296,853.116C994.251,852.27 991.908,853.242 991.062,855.287C987.2,864.625 983.733,874.254 980.758,883.91C980.106,886.024 981.292,888.267 983.407,888.919Z" style="fill:rgb(19,54,93);fill-rule:nonzero;"/>
        </g>
        <g transform="matrix(1,0,0,1,-125.128,240.658)">
            <path d="M1037.82,782.485C1038.56,783.069 1039.44,783.352 1040.31,783.352C1041.49,783.352 1042.66,782.832 1043.45,781.833C1049.57,774.113 1056.13,766.584 1062.94,759.457C1064.46,757.856 1064.41,755.32 1062.8,753.792C1061.2,752.263 1058.67,752.323 1057.14,753.922C1050.16,761.228 1043.45,768.943 1037.17,776.856C1035.8,778.59 1036.09,781.11 1037.82,782.485Z" style="fill:rgb(19,54,93);fill-rule:nonzero;"/>
        </g>
        <g transform="matrix(1,0,0,1,-125.128,240.658)">
            <path d="M1184.74,679.391C1185.19,679.391 1185.65,679.315 1186.1,679.153C1195.37,675.813 1204.9,672.87 1214.44,670.409C1216.58,669.856 1217.87,667.671 1217.32,665.527C1216.77,663.384 1214.58,662.094 1212.44,662.649C1202.66,665.173 1192.88,668.189 1183.38,671.614C1181.3,672.364 1180.22,674.66 1180.97,676.742C1181.56,678.375 1183.1,679.391 1184.74,679.391Z" style="fill:rgb(19,54,93);fill-rule:nonzero;"/>
        </g>
        <g transform="matrix(1,0,0,1,-125.128,240.658)">
            <path d="M1005.66,833.163C1006.26,833.477 1006.9,833.626 1007.52,833.626C1008.96,833.626 1010.35,832.849 1011.07,831.488C1015.67,822.776 1020.73,814.171 1026.11,805.912C1027.32,804.058 1026.8,801.575 1024.95,800.366C1023.09,799.157 1020.61,799.679 1019.4,801.533C1013.88,810 1008.69,818.82 1003.98,827.75C1002.95,829.707 1003.7,832.131 1005.66,833.163Z" style="fill:rgb(19,54,93);fill-rule:nonzero;"/>
        </g>
        <g transform="matrix(1,0,0,1,-125.128,240.658)">
            <path d="M1130.45,704.884C1131.14,704.884 1131.84,704.705 1132.47,704.329C1140.97,699.332 1149.79,694.677 1158.7,690.492C1160.71,689.552 1161.57,687.165 1160.63,685.162C1159.69,683.159 1157.3,682.296 1155.3,683.239C1146.16,687.527 1137.12,692.299 1128.41,697.422C1126.5,698.544 1125.87,701 1126.99,702.908C1127.74,704.177 1129.07,704.884 1130.45,704.884Z" style="fill:rgb(19,54,93);fill-rule:nonzero;"/>
        </g>
        <g transform="matrix(1,0,0,1,-125.128,240.658)">
            <path d="M1618.23,1009.03C1614.1,1008.57 1610.4,1011.57 1609.95,1015.69C1608.07,1033.09 1604.81,1050.02 1600.29,1066.39C1600.05,1066.84 1599.86,1067.31 1599.71,1067.82C1561.14,1203.24 1435.75,1297.82 1294.78,1297.82C1147.88,1297.82 1021.9,1198.98 986.955,1056.93L1059.29,985.733C1060.73,984.321 1061.54,982.393 1061.54,980.38C1061.54,978.366 1060.73,976.438 1059.29,975.024L984.098,900.989C981.141,898.079 976.384,898.114 973.473,901.072C970.562,904.028 970.599,908.786 973.556,911.697L1043.31,980.378L973.391,1049.19C971.526,1051.03 970.75,1053.7 971.343,1056.25C988.03,1128.06 1029.04,1193.21 1086.83,1239.68C1115.69,1262.89 1147.92,1280.98 1182.63,1293.43C1217.76,1306.03 1254.63,1312.54 1292.26,1312.82C1293.05,1313.1 1293.89,1313.26 1294.78,1313.26C1377.17,1313.26 1456.19,1282.87 1517.28,1227.69C1577.93,1172.91 1616.14,1098.2 1624.89,1017.31C1625.34,1013.18 1622.35,1009.48 1618.23,1009.03Z" style="fill:rgb(0,97,255);fill-rule:nonzero;"/>
        </g>
        <g transform="matrix(1,0,0,1,-125.128,240.658)">
            <path d="M1721.04,981.708L1645.91,908.081L1645.91,977.2L1623.3,977.2C1623.24,972.454 1623.08,967.672 1622.82,962.89L1622.54,959.309C1622.36,957.104 1620.45,955.452 1618.23,955.631C1616.02,955.806 1614.38,957.735 1614.55,959.942L1614.83,963.425C1615.15,969.313 1615.31,975.296 1615.31,981.207L1615.31,985.214L1645.91,985.214L1645.91,1055.34L1721.04,981.708Z" style="fill:rgb(0,97,255);fill-rule:nonzero;"/>
        </g>
        <g transform="matrix(0.999999,0,0,0.999999,196.842,-148.417)">
            <path d="M1035.22,1390.51L1059.99,1415.28L1042.16,1433.11L1017.39,1408.34L1035.22,1390.51Z" style="fill:rgb(150,174,205);fill-rule:nonzero;"/>
        </g>
        <g transform="matrix(0.999999,0,0,0.999999,196.842,-148.417)">
            <path d="M1117.09,1460.03L1066.16,1409.11L1035.99,1439.28L1086.92,1490.21C1095.25,1498.54 1108.76,1498.54 1117.09,1490.21C1125.42,1481.87 1125.42,1468.36 1117.09,1460.03Z" style="fill:rgb(150,174,205);fill-rule:nonzero;"/>
        </g>
        <g transform="matrix(0.999999,0,0,0.999999,196.842,-148.417)">
            <path d="M1102,1490.95C1097.86,1490.95 1093.73,1489.43 1090.72,1486.39L1081,1476.67C1093.17,1476.29 1104.06,1470.65 1111.4,1461.95L1113.28,1463.83C1119.51,1470.06 1119.51,1480.16 1113.28,1486.39C1110.27,1489.43 1106.14,1490.95 1102,1490.95Z" style="fill:rgb(134,156,184);fill-rule:nonzero;"/>
        </g>
        <g transform="matrix(0.999999,0,0,0.999999,196.842,-148.417)">
            <path d="M1040.16,1413.34C1002.66,1450.78 941.844,1450.78 904.399,1413.34C866.844,1375.78 866.844,1314.97 904.344,1277.47C941.844,1239.97 1002.66,1239.97 1040.21,1277.47C1077.66,1314.97 1077.66,1375.78 1040.16,1413.34Z" style="fill:rgb(192,143,132);fill-rule:nonzero;"/>
        </g>
        <g transform="matrix(0.999999,0,0,0.999999,196.842,-148.417)">
            <path d="M1062.08,1331.62C1057.41,1319.31 1050.13,1307.79 1040.23,1297.86C1021.46,1279.08 996.854,1269.69 972.257,1269.69C947.659,1269.69 923.069,1279.08 904.321,1297.86C894.583,1307.59 887.397,1318.87 882.729,1330.91C885.717,1312.18 894.492,1294.92 908.125,1281.29C925.262,1264.15 948.039,1254.7 972.267,1254.7C996.494,1254.7 1019.27,1264.15 1036.41,1281.24C1051.27,1296.15 1059.47,1313.75 1062.08,1331.62Z" style="fill:rgb(217,188,181);fill-rule:nonzero;"/>
        </g>
        <g transform="matrix(0.999999,0,0,0.999999,196.842,-148.417)">
            <path d="M972.267,1436.06C948.039,1436.06 925.315,1426.66 908.179,1409.52C894.52,1395.86 885.741,1378.62 882.741,1359.92C887.419,1371.95 894.626,1383.23 904.375,1392.98C923.096,1411.7 947.673,1421.06 972.257,1421.06C996.84,1421.06 1021.43,1411.7 1040.18,1392.98C1049.77,1383.36 1056.9,1372.25 1061.59,1360.39C1054.37,1400.92 1020.18,1436.06 972.267,1436.06Z" style="fill:rgb(172,128,119);fill-rule:nonzero;"/>
        </g>
        <g transform="matrix(0.999999,0,0,0.999999,196.842,-148.417)">
            <path d="M1113.28,1486.39C1107.27,1492.46 1096.74,1492.46 1090.72,1486.39L1043.61,1439.28C1044.14,1438.74 1066.17,1416.72 1066.17,1416.72L1113.28,1463.83C1119.51,1470.06 1119.51,1480.16 1113.28,1486.39ZM1038.67,1422.04C1040.49,1420.53 1042.26,1418.87 1043.98,1417.15C1045.7,1415.38 1047.37,1413.6 1048.93,1411.78L1052.42,1415.27L1042.16,1425.53L1038.67,1422.04ZM972.267,1436.06C948.039,1436.06 925.315,1426.66 908.179,1409.52C891.042,1392.38 881.587,1369.61 881.587,1345.38C881.587,1321.15 891.042,1298.37 908.125,1281.29C925.262,1264.15 948.039,1254.7 972.267,1254.7C996.494,1254.7 1019.27,1264.15 1036.41,1281.24C1093.73,1338.77 1051.99,1436.06 972.267,1436.06ZM1120.91,1456.26L1069.98,1405.33C1067.94,1403.29 1064.4,1403.29 1062.36,1405.33L1059.99,1407.64L1055.53,1403.18C1082.98,1363.64 1079.12,1308.85 1043.98,1273.66C1024.81,1254.54 999.342,1243.96 972.267,1243.96C945.138,1243.96 919.675,1254.54 900.55,1273.66C881.372,1292.84 870.843,1318.3 870.843,1345.38C870.843,1372.45 881.426,1397.97 900.604,1417.15C919.729,1436.27 945.192,1446.8 972.267,1446.8C993.272,1446.8 1013.26,1440.46 1030.12,1428.7L1034.53,1433.1L1032.22,1435.47C1030.07,1437.56 1030.07,1441 1032.22,1443.1L1083.09,1494.02C1093.57,1504.44 1110.44,1504.44 1120.91,1494.02C1131.33,1483.55 1131.33,1466.68 1120.91,1456.26Z" style="fill:rgb(40,59,102);fill-rule:nonzero;"/>
        </g>
        <g transform="matrix(0.999999,0,0,0.999999,196.842,-148.417)">
            <path d="M1019.87,1392.99C1005.42,1407.39 986.029,1413.89 967.173,1412.44C955.033,1411.53 943.16,1407.39 932.9,1399.93C930.858,1398.47 928.925,1396.92 927.098,1395.2C926.292,1394.5 925.487,1393.75 924.734,1392.99C923.606,1391.87 922.532,1390.74 921.565,1389.56C898.465,1363.07 899.54,1322.94 924.734,1297.86C939.508,1283.03 959.491,1276.53 978.831,1278.46C981.463,1278.73 984.095,1279.11 986.674,1279.7C989.091,1280.24 991.509,1280.88 993.872,1281.69C1003.38,1284.91 1012.3,1290.28 1019.87,1297.86C1021.32,1299.31 1022.67,1300.76 1023.96,1302.32C1046.03,1328.69 1044.64,1368.12 1019.87,1392.99Z" style="fill:rgb(234,244,252);fill-rule:nonzero;"/>
        </g>
        <g transform="matrix(0.999999,0,0,0.999999,196.842,-148.417)">
            <path d="M983.483,1319.48L961.053,1371.29L983.483,1319.48Z" style="fill:rgb(234,244,252);fill-rule:nonzero;"/>
        </g>
        <g transform="matrix(0.999999,0,0,0.999999,196.842,-148.417)">
            <path d="M961.052,1376.67C960.338,1376.67 959.614,1376.52 958.919,1376.22C956.196,1375.04 954.945,1371.88 956.126,1369.16L978.555,1317.35C979.731,1314.62 982.896,1313.37 985.62,1314.55C988.342,1315.73 989.593,1318.89 988.413,1321.62L965.983,1373.43C965.107,1375.46 963.129,1376.67 961.052,1376.67Z" style="fill:rgb(40,59,102);fill-rule:nonzero;"/>
        </g>
        <g transform="matrix(0.999999,0,0,0.999999,196.842,-148.417)">
            <path d="M994.428,1378.86C992.864,1378.86 991.314,1378.18 990.252,1376.87C988.384,1374.56 988.736,1371.18 991.041,1369.31L1002.52,1360L991.041,1350.68C988.736,1348.81 988.384,1345.43 990.252,1343.12C992.127,1340.82 995.514,1340.47 997.809,1342.33L1014.44,1355.82C1015.7,1356.84 1016.42,1358.38 1016.42,1360C1016.42,1361.61 1015.7,1363.15 1014.44,1364.17L997.809,1377.66C996.815,1378.46 995.616,1378.86 994.428,1378.86Z" style="fill:rgb(40,59,102);fill-rule:nonzero;"/>
        </g>
        <g transform="matrix(0.999999,0,0,0.999999,196.842,-148.417)">
            <path d="M950.108,1349.64C948.917,1349.64 947.721,1349.25 946.727,1348.44L930.1,1334.95C928.841,1333.93 928.111,1332.4 928.111,1330.78C928.111,1329.16 928.841,1327.63 930.1,1326.61L946.727,1313.12C949.025,1311.25 952.411,1311.6 954.284,1313.91C956.152,1316.21 955.8,1319.6 953.495,1321.47L942.011,1330.78L953.495,1340.09C955.8,1341.96 956.152,1345.35 954.284,1347.65C953.222,1348.96 951.672,1349.64 950.108,1349.64Z" style="fill:rgb(40,59,102);fill-rule:nonzero;"/>
        </g>
        <g transform="matrix(0.999999,0,0,0.999999,196.842,-148.417)">
            <path d="M927.098,1395.2C926.292,1394.5 925.487,1393.75 924.734,1392.99C923.606,1391.87 922.532,1390.74 921.565,1389.56L943.929,1346.17L946.727,1348.44C947.721,1349.25 948.917,1349.64 950.108,1349.64C950.276,1349.64 950.443,1349.63 950.61,1349.62L927.098,1395.2ZM954.76,1341.57C954.441,1341.02 954.018,1340.52 953.495,1340.09L948.958,1336.41L978.831,1278.46C981.463,1278.73 984.095,1279.11 986.674,1279.7L954.76,1341.57Z" style="fill:rgb(244,249,253);fill-rule:nonzero;"/>
        </g>
        <g transform="matrix(0.999999,0,0,0.999999,196.842,-148.417)">
            <path d="M950.108,1349.64C948.917,1349.64 947.721,1349.25 946.727,1348.44L943.929,1346.17L948.958,1336.41L953.495,1340.09C954.018,1340.52 954.441,1341.02 954.76,1341.57L950.61,1349.62C950.443,1349.63 950.276,1349.64 950.108,1349.64Z" style="fill:rgb(127,138,164);fill-rule:nonzero;"/>
        </g>
        <g transform="matrix(0.999999,0,0,0.999999,196.842,-148.417)">
            <path d="M967.173,1412.44C955.033,1411.53 943.16,1407.39 932.9,1399.93L993.872,1281.69C1003.38,1284.91 1012.3,1290.28 1019.87,1297.86C1021.32,1299.31 1022.67,1300.76 1023.96,1302.32L1001.7,1345.49L997.809,1342.33C996.817,1341.53 995.621,1341.14 994.431,1341.14C992.868,1341.14 991.316,1341.82 990.252,1343.12C988.384,1345.43 988.736,1348.81 991.041,1350.68L996.665,1355.24L967.173,1412.44ZM983.484,1314.11C981.407,1314.11 979.43,1315.32 978.555,1317.35L956.126,1369.16C954.945,1371.88 956.196,1375.04 958.919,1376.22C959.614,1376.52 960.338,1376.67 961.052,1376.67C963.129,1376.67 965.107,1375.46 965.983,1373.43L988.413,1321.62C989.593,1318.89 988.342,1315.73 985.62,1314.55C984.923,1314.25 984.198,1314.11 983.484,1314.11Z" style="fill:rgb(244,249,253);fill-rule:nonzero;"/>
        </g>
        <g transform="matrix(0.999999,0,0,0.999999,196.842,-148.417)">
            <path d="M961.052,1376.67C960.338,1376.67 959.614,1376.52 958.919,1376.22C956.196,1375.04 954.945,1371.88 956.126,1369.16L978.555,1317.35C979.43,1315.32 981.407,1314.11 983.484,1314.11C984.198,1314.11 984.923,1314.25 985.62,1314.55C988.342,1315.73 989.593,1318.89 988.413,1321.62L965.983,1373.43C965.107,1375.46 963.129,1376.67 961.052,1376.67Z" style="fill:rgb(127,138,164);fill-rule:nonzero;"/>
        </g>
        <g transform="matrix(0.999999,0,0,0.999999,196.842,-148.417)">
            <path d="M996.665,1355.24L991.041,1350.68C988.736,1348.81 988.384,1345.43 990.252,1343.12C991.316,1341.82 992.868,1341.14 994.431,1341.14C995.621,1341.14 996.817,1341.53 997.809,1342.33L1001.7,1345.49L996.665,1355.24Z" style="fill:rgb(127,138,164);fill-rule:nonzero;"/>
        </g>
        <g transform="matrix(0.999999,0,0,0.999999,196.842,-148.417)">
            <path d="M1016.05,1389.16C1004.34,1400.87 988.813,1407.27 972.267,1407.27C955.721,1407.27 940.196,1400.87 928.485,1389.16C916.774,1377.45 910.328,1361.87 910.381,1345.33C910.381,1328.83 916.828,1313.31 928.539,1301.65C940.196,1289.94 955.721,1283.49 972.267,1283.49C988.813,1283.49 1004.34,1289.94 1016.05,1301.65C1040.17,1325.72 1040.17,1364.99 1016.05,1389.16ZM1023.62,1294.02C1009.92,1280.32 991.66,1272.75 972.267,1272.75C952.874,1272.75 934.609,1280.32 920.91,1294.02C907.212,1307.72 899.637,1325.93 899.637,1345.33C899.583,1364.77 907.158,1383.04 920.91,1396.79C934.609,1410.49 952.874,1418.01 972.267,1418.01C991.66,1418.01 1009.92,1410.49 1023.68,1396.79C1051.93,1368.43 1051.93,1322.33 1023.62,1294.02Z" style="fill:rgb(40,59,102);fill-rule:nonzero;"/>
        </g>
    </g>
</svg>
