<svg width="58" height="58" viewBox="0 0 58 58" fill="none" xmlns="http://www.w3.org/2000/svg">
<rect x="2.5" y="2.5" width="55" height="55" rx="15.5" fill="black" stroke="black"/>
<rect x="0.5" y="0.5" width="55" height="55" rx="15.5" fill="#FFFB9E" stroke="black"/>
<path d="M17.3052 35.2828C17.3052 35.2866 17.3052 35.2937 17.3008 35.3035C17.3024 35.297 17.3035 35.2899 17.3052 35.2828ZM38.0571 36.1813C37.877 36.1774 37.6992 36.1403 37.5326 36.0719L34.4274 34.971L34.4045 34.9617C34.3367 34.9335 34.264 34.9194 34.1906 34.9202C34.123 34.9203 34.0559 34.9325 33.9927 34.9563C33.9172 34.9847 33.2374 35.2401 32.5243 35.4359C32.1376 35.542 30.7918 35.8882 29.7117 35.8882C26.951 35.8882 24.3698 34.8272 22.4442 32.9006C21.5035 31.9657 20.7576 30.8535 20.2497 29.6284C19.7417 28.4032 19.4818 27.0895 19.485 25.7633C19.485 25.0723 19.5594 24.3832 19.7071 23.7081C20.1878 21.4867 21.4609 19.466 23.2919 18.0206C25.17 16.5474 27.4887 15.7477 29.8757 15.75C32.731 15.75 35.3916 16.8438 37.368 18.8224C39.2361 20.6965 40.2599 23.1607 40.2517 25.7606C40.2501 27.6924 39.6732 29.5801 38.5947 31.1828L38.5843 31.1981L38.5438 31.2528C38.5345 31.2654 38.5252 31.2774 38.5164 31.29L38.5082 31.3048C38.4865 31.3418 38.4668 31.3799 38.4492 31.4191L39.31 34.4783C39.348 34.6045 39.3686 34.7353 39.3712 34.8671C39.3714 35.0398 39.3376 35.2108 39.2716 35.3703C39.2057 35.5298 39.1089 35.6748 38.9868 35.7969C38.8647 35.9189 38.7198 36.0157 38.5602 36.0817C38.4007 36.1477 38.2297 36.1815 38.0571 36.1813V36.1813Z" fill="black"/>
<path d="M30.3991 37.2638C30.3426 37.1539 30.2631 37.0574 30.166 36.981C30.0689 36.9045 29.9565 36.8499 29.8364 36.8208C29.5203 36.7371 29.1517 36.7513 28.87 36.7306C26.2108 36.5457 23.7083 35.4044 21.8252 33.5176C20.1511 31.8528 19.0631 29.6893 18.725 27.3526C18.6484 26.8199 18.6484 26.6876 18.6484 26.6876C18.6484 26.5099 18.5943 26.3364 18.4932 26.1902C18.3922 26.044 18.249 25.932 18.0827 25.8692C17.9165 25.8064 17.7351 25.7957 17.5626 25.8385C17.3901 25.8814 17.2348 25.9757 17.1172 26.109C17.1172 26.109 16.6863 26.5782 16.4828 27.0491C15.9123 28.3637 15.669 29.7971 15.7737 31.2264C15.8785 32.6557 16.3282 34.0382 17.0844 35.2556C17.2266 35.4924 17.2266 35.6018 17.1949 35.8479C17.0456 36.6195 16.7842 37.9807 16.648 38.6868C16.6029 38.9157 16.6197 39.1526 16.6966 39.3729C16.7735 39.5932 16.9077 39.789 17.0855 39.9402L17.1106 39.9615C17.3458 40.1483 17.6372 40.2501 17.9375 40.2503C18.1064 40.2504 18.2737 40.2172 18.4297 40.1524L21.356 39.0231C21.4568 38.9848 21.5681 38.9848 21.6688 39.0231C22.8211 39.4518 24.0204 39.6793 25.1568 39.6793C26.5727 39.6807 27.9715 39.3696 29.2534 38.7682C29.552 38.6282 30.019 38.4762 30.2924 38.1601C30.3959 38.0375 30.4612 37.8872 30.4801 37.7279C30.4991 37.5686 30.4709 37.4072 30.3991 37.2638V37.2638Z" fill="black"/>
</svg>
