<?xml version="1.0" encoding="UTF-8" standalone="no"?>
<!DOCTYPE svg PUBLIC "-//W3C//DTD SVG 1.1//EN" "http://www.w3.org/Graphics/SVG/1.1/DTD/svg11.dtd">
<svg width="100%" height="100%" viewBox="0 0 417 417" version="1.1" xmlns="http://www.w3.org/2000/svg" xmlns:xlink="http://www.w3.org/1999/xlink" xml:space="preserve" xmlns:serif="http://www.serif.com/" style="fill-rule:evenodd;clip-rule:evenodd;stroke-linejoin:round;stroke-miterlimit:2;">
    <g transform="matrix(1,0,0,1,-4,-459)">
        <g id="Artboard2" transform="matrix(1.01433,0,0,0.900408,-0.841097,45.5263)">
            <rect x="4.773" y="459.207" width="410.779" height="462.753" style="fill:none;"/>
            <g transform="matrix(3.18948,0,0,3.59303,-310.879,116.766)">
                <path d="M158.801,187.383C158.675,187.383 158.547,187.381 158.42,187.378C146.539,187.07 132.705,177.907 128.229,175.2C117.533,168.73 120.497,164.385 120.82,164.014C121.035,163.766 121.301,163.535 121.618,163.32C121.934,163.106 122.299,162.909 122.714,162.73C122.921,162.641 123.14,162.556 123.371,162.475C124.11,162.218 124.975,162.01 125.951,161.849L125.946,161.847L163.814,156.107L171.205,152.11L171.259,152.086L171.328,152.043L171.349,152.051C172.223,151.62 173.634,151.381 175.519,151.381C176.626,151.381 177.897,151.463 179.32,151.637C187.191,152.599 196.616,155.961 200.365,159.148C202.187,160.696 202.303,161.909 201.073,162.643L201.087,162.65L201.023,162.681L200.918,162.739L199.667,163.41L211.399,172.132C213.4,173.832 213.578,176.294 210.037,177.428C209.133,177.717 208.208,177.845 207.299,177.845C204.765,177.844 202.354,176.852 200.881,175.601L192.737,170.123C192.892,169.596 193.153,169.199 193.285,168.662C193.526,167.686 193.105,167.204 192.535,167.204C191.982,167.204 191.288,167.657 190.922,168.555C189.629,171.723 188.131,174.769 186.496,177.737C186.148,177.802 185.807,177.975 185.52,178.302C184.641,179.302 183.734,180.267 182.811,181.212C183.025,180.173 181.969,179.295 180.928,179.295C180.473,179.295 180.02,179.463 179.677,179.86C178.984,180.662 178.288,181.454 177.596,182.246C177.311,182.085 176.986,181.991 176.658,181.991C176.338,181.991 176.015,182.081 175.724,182.285C175.218,182.639 174.713,182.96 174.207,183.277C173.902,182.836 173.427,182.524 172.87,182.524C172.665,182.524 172.448,182.567 172.225,182.661C169.939,183.625 164.894,187.383 158.801,187.383Z" style="fill:rgb(2,4,0);fill-opacity:0.06;fill-rule:nonzero;"/>
            </g>
            <g transform="matrix(3.18948,0,0,3.59303,-310.879,116.766)">
                <path d="M120.904,171.976L120.896,171.976L120.89,171.976L120.887,171.976L107.65,171.649L107.444,171.609L107.296,171.52L105.334,169.243L105.331,169.157L105.471,169.125L105.474,169.125L110.58,169.251L105.689,166.697L105.587,166.573C105.598,166.541 105.642,166.518 105.718,166.518C105.729,166.518 105.742,166.518 105.755,166.519L118.041,167.028C118.179,167.034 118.335,167.094 118.389,167.162L120.193,169.434C120.242,169.496 120.201,169.548 120.078,169.548C120.066,169.548 120.054,169.547 120.041,169.546L116.339,169.393L120.888,171.768L121.039,171.858C121.099,171.925 121.008,171.976 120.904,171.976Z" style="fill:rgb(2,4,0);fill-opacity:0.06;fill-rule:nonzero;"/>
            </g>
            <g transform="matrix(3.18948,0,0,3.59303,-310.879,116.766)">
                <path d="M145.175,203.052L140.659,201.019L143.588,198.156L139.382,195.563L139.208,195.39L139.18,195.244L143.142,191.476L148.657,192.839L145.031,196.431L148.991,198.873L149.164,199.042L149.197,199.19L145.175,203.052Z" style="fill:rgb(2,4,0);fill-opacity:0.06;fill-rule:nonzero;"/>
            </g>
            <g transform="matrix(3.18948,0,0,3.59303,-310.879,116.766)">
                <path d="M125.901,187.373L125.89,187.373L125.678,187.326L121.329,185.551C121.198,185.498 121.162,185.422 121.246,185.382L124.419,183.871L117.962,182.746C117.861,182.728 117.772,182.691 117.728,182.647L117.751,182.537L125.676,179.12L125.857,179.1L126.067,179.15L130.315,180.971C130.442,181.025 130.475,181.1 130.386,181.139L127.999,182.168L134.078,183.227C134.177,183.244 134.266,183.281 134.31,183.323L134.295,183.434L126.068,187.35L125.901,187.373Z" style="fill:rgb(2,4,0);fill-opacity:0.06;fill-rule:nonzero;"/>
            </g>
            <g transform="matrix(3.18948,0,0,3.59303,-310.879,116.766)">
                <path d="M208.017,139.145C204.228,139.145 201.157,142.217 201.157,146.005L201.157,170.872C201.157,174.66 204.228,177.732 208.017,177.732C211.805,177.732 214.877,174.66 214.877,170.872L214.877,146.005C214.877,142.217 211.805,139.145 208.017,139.145Z" style="fill:rgb(218,50,39);fill-rule:nonzero;"/>
            </g>
            <g transform="matrix(3.18948,0,0,3.59303,-310.879,116.766)">
                <path d="M208.956,119.505C205.954,117.774 203.245,117.596 201.244,118.667L201.234,118.646L201.125,118.716L201.05,118.753L188.656,125.931L204.982,152.782L216.738,146.021L216.895,145.928L216.987,145.88L216.981,145.864C218.891,144.663 220.086,142.235 220.086,138.784C220.086,131.684 215.1,123.053 208.956,119.505Z" style="fill:rgb(239,60,56);fill-rule:nonzero;"/>
            </g>
            <g transform="matrix(3.18948,0,0,3.59303,-310.879,116.766)">
                <path d="M196.887,126.466C194.531,125.106 192.35,124.695 190.552,125.097L190.55,125.094L149.339,128.635L182.087,186.093L206.54,151.268C207.474,149.926 208.016,148.065 208.016,145.741C208.016,138.645 203.036,130.014 196.887,126.466Z" style="fill:rgb(239,237,233);fill-rule:nonzero;"/>
            </g>
            <g transform="matrix(3.18948,0,0,3.59303,-310.879,116.766)">
                <path d="M161.63,131.845C148.331,124.162 137.56,130.382 137.56,145.728C137.56,161.084 148.331,179.739 161.63,187.41C174.93,195.107 185.7,188.873 185.7,173.529C185.7,158.184 174.93,139.517 161.63,131.845Z" style="fill:rgb(76,175,171);fill-rule:nonzero;"/>
            </g>
            <g transform="matrix(3.18948,0,0,3.59303,-310.879,116.766)">
                <path d="M161.63,135.098C149.889,128.315 140.379,133.808 140.379,147.356C140.379,160.914 149.889,177.385 161.63,184.157C173.372,190.953 182.882,185.448 182.882,171.901C182.882,158.353 173.372,141.873 161.63,135.098Z" style="fill:rgb(206,206,207);fill-rule:nonzero;"/>
            </g>
            <g transform="matrix(3.18948,0,0,3.59303,-310.879,116.766)">
                <path d="M134.284,140.531L120.617,139.442C120.512,139.423 120.42,139.48 120.364,139.563L120.345,139.843L123.201,145.596L117.426,145.336L117.424,145.336L117.226,145.409L117.135,145.602L116.904,150.743L116.977,150.943L117.17,151.034L132.14,151.706L132.143,151.707L132.15,151.707C132.271,151.712 132.44,151.595 132.446,151.438L132.369,151.236L129.713,145.888L133.831,146.216C133.995,146.241 134.119,146.114 134.131,145.96L134.54,140.831C134.552,140.678 134.438,140.543 134.284,140.531Z" style="fill:rgb(80,121,188);fill-rule:nonzero;"/>
            </g>
            <g transform="matrix(3.18948,0,0,3.59303,-310.879,116.766)">
                <path d="M164.283,195.47L158.236,195.424L160.388,191.898L160.421,191.687L160.295,191.515L155.903,188.835C155.773,188.754 155.6,188.797 155.52,188.928L148.378,200.63L148.372,200.911C148.421,200.999 148.514,201.054 148.614,201.055L155.035,201.104L152.197,206.138L152.171,206.35L152.302,206.519L156.785,209.045L156.929,209.081L156.997,209.071L157.165,208.939L164.524,195.887L164.522,195.61C164.473,195.524 164.382,195.471 164.283,195.47Z" style="fill:rgb(80,121,188);fill-rule:nonzero;"/>
            </g>
            <g transform="matrix(3.18948,0,0,3.59303,-310.879,116.766)">
                <path d="M136.482,174.2L140.144,172.291C140.281,172.219 140.333,172.051 140.262,171.915L137.884,167.352L137.721,167.214L137.508,167.233L125.351,173.571C125.262,173.618 125.205,173.709 125.201,173.81C125.198,173.91 125.249,174.004 125.334,174.057L130.809,177.412L125.779,180.26C125.646,180.336 125.598,180.507 125.674,180.641L128.209,185.118L128.377,185.25L128.388,185.252L128.59,185.224L141.629,177.839C141.715,177.79 141.769,177.7 141.771,177.601C141.773,177.502 141.721,177.409 141.637,177.358L136.482,174.2Z" style="fill:rgb(80,121,188);fill-rule:nonzero;"/>
            </g>
            <g transform="matrix(3.18948,0,0,3.59303,-310.879,116.766)">
                <path d="M171.391,141.554C168.237,143.523 166.132,147.015 166.132,151.007C166.132,157.164 171.122,162.154 177.279,162.154C179.09,162.154 180.795,161.713 182.307,160.946C181.092,158.014 179.556,155.235 178.31,152.236C176.598,148.117 173.758,145.113 171.391,141.554Z" style="fill:rgb(80,121,188);fill-rule:nonzero;"/>
            </g>
            <g transform="matrix(3.18948,0,0,3.59303,-310.879,116.766)">
                <path d="M161.63,184.157C149.889,177.385 140.379,160.914 140.379,147.356C140.379,133.807 149.889,128.315 161.63,135.098C173.372,141.873 182.882,158.353 182.882,171.901C182.882,185.448 173.372,190.953 161.63,184.157ZM161.63,131.845C148.331,124.162 137.56,130.383 137.56,145.728C137.56,161.084 148.331,179.739 161.63,187.41C174.93,195.107 185.7,188.873 185.7,173.529C185.7,158.184 174.93,139.517 161.63,131.845Z" style="fill:rgb(218,50,39);fill-rule:nonzero;"/>
            </g>
        </g>
    </g>
</svg>
