<?xml version="1.0" encoding="UTF-8" standalone="no"?>
<!DOCTYPE svg PUBLIC "-//W3C//DTD SVG 1.1//EN" "http://www.w3.org/Graphics/SVG/1.1/DTD/svg11.dtd">
<svg width="100%" height="100%" viewBox="0 0 417 417" version="1.1" xmlns="http://www.w3.org/2000/svg" xmlns:xlink="http://www.w3.org/1999/xlink" xml:space="preserve" xmlns:serif="http://www.serif.com/" style="fill-rule:evenodd;clip-rule:evenodd;stroke-linejoin:round;stroke-miterlimit:2;">
    <g id="Artboard1" transform="matrix(0.975879,0,0,0.803797,-1935.41,-158.447)">
        <rect x="1983.25" y="197.123" width="426.965" height="518.373" style="fill:none;"/>
        <g transform="matrix(3.11553,0,0,3.78253,1676.98,-614.493)">
            <path d="M155.618,316.35C154.852,316.35 154.279,316.219 153.938,315.98L147.715,311.63C142.888,311.515 117.765,311.025 117.765,311.025L117.782,311.017C108.712,310.871 105.413,306.87 110.559,300.849C112.18,298.951 114.49,297.041 117.25,295.216C117.252,294.323 118.065,293.359 119.571,292.666C120.632,292.178 121.852,291.92 123.021,291.867C123.979,291.375 124.954,290.892 125.961,290.428C131.534,287.864 137.784,285.788 143.781,284.606C144.241,284.138 144.863,283.694 145.675,283.32C147.086,282.671 148.741,282.346 150.274,282.346C151.808,282.346 153.221,282.671 154.15,283.32C154.27,283.404 154.349,283.5 154.447,283.591C160.809,283.835 164.087,286.083 163.299,289.632L163.325,289.62C163.325,289.62 163.305,289.686 163.269,289.804C163.237,289.927 163.196,290.053 163.154,290.179C162.34,292.849 158.816,304.418 158.105,306.854L164.324,311.202C164.829,311.555 164.825,312.141 164.197,312.877C162.94,314.348 159.653,315.86 156.854,316.256C156.4,316.319 155.986,316.35 155.618,316.35Z" style="fill:rgb(2,4,0);fill-opacity:0.06;fill-rule:nonzero;"/>
        </g>
        <g transform="matrix(3.11553,0,0,3.78253,1676.98,-614.493)">
            <path d="M175.68,339.416C173.931,339.416 172.277,338.87 170.717,337.779L174.209,333.692L177.866,333.177C178.323,333.417 178.768,333.588 179.203,333.704C179.316,333.605 179.437,333.505 179.577,333.409L175.203,330.351C173.995,331.143 172.999,331.66 172.22,331.892C171.728,332.045 171.24,332.137 170.754,332.183L170.75,332.189C170.75,332.189 167.538,332.669 167.03,332.713C166.84,332.729 166.651,332.738 166.462,332.738C164.982,332.738 163.527,332.237 162.097,331.237C160.145,329.873 159.112,328.063 159,325.809C158.913,324.087 159.522,322.251 160.828,320.302L158.931,318.975L162.193,315.157L165.851,314.642L166.445,315.057C167.207,314.655 167.996,314.34 168.812,314.116C169.215,314.004 169.616,313.92 170.014,313.864C170.748,313.761 173.345,313.403 173.345,313.403L173.345,313.404C173.85,313.313 174.351,313.268 174.848,313.268C176.518,313.268 178.142,313.779 179.717,314.802L176.179,318.942L172.703,319.432L175.736,321.553C177.165,320.587 178.444,319.939 179.553,319.65C179.906,319.562 180.257,319.501 180.606,319.468C181.319,319.401 183.551,319.055 183.926,318.996L184.003,318.984C184.303,318.944 184.601,318.924 184.898,318.924C186.357,318.924 187.779,319.408 189.165,320.376C191.154,321.767 192.193,323.638 192.282,325.991C192.308,327.784 191.656,329.705 190.326,331.753L192.029,332.943L188.767,336.761L185.109,337.276L184.903,337.132C183.813,337.825 182.708,338.321 181.587,338.612C181.044,338.748 180.512,338.825 179.986,338.864C178.886,339.033 176.909,339.334 176.593,339.367C176.286,339.399 175.982,339.416 175.68,339.416Z" style="fill:rgb(2,4,0);fill-opacity:0.06;fill-rule:nonzero;"/>
        </g>
        <g transform="matrix(3.11553,0,0,3.78253,1676.98,-614.493)">
            <path d="M183.479,285.758C183.479,286.594 184.033,287.427 185.135,288.067C187.346,289.341 190.927,289.341 193.136,288.067C194.24,287.427 194.793,286.594 194.793,285.758L194.793,274.647L183.479,274.647L183.479,285.758Z" style="fill:rgb(44,137,162);fill-rule:nonzero;"/>
        </g>
        <g transform="matrix(3.11553,0,0,3.78253,1676.98,-614.493)">
            <path d="M183.983,276.013C184.257,276.361 184.641,276.687 185.137,276.972C187.346,278.248 190.929,278.248 193.141,276.972C193.63,276.69 194.011,276.369 194.284,276.026C194.644,275.574 214.42,254.278 214.42,254.278L164.368,254.914C164.368,254.914 183.647,275.585 183.983,276.013Z" style="fill:rgb(83,174,199);fill-rule:nonzero;"/>
        </g>
        <g transform="matrix(3.11553,0,0,3.78253,1676.98,-614.493)">
            <path d="M208.652,235.859C197.86,229.628 180.362,229.628 169.569,235.859C158.777,242.09 158.777,252.193 169.569,258.424C180.362,264.655 197.86,264.655 208.652,258.424C219.444,252.193 219.444,242.09 208.652,235.859Z" style="fill:rgb(45,127,165);fill-rule:nonzero;"/>
        </g>
        <g transform="matrix(3.11553,0,0,3.78253,1676.98,-614.493)">
            <path d="M207.348,255.735C202.53,258.517 196.054,260.048 189.111,260.048C182.168,260.048 175.691,258.517 170.874,255.735C166.636,253.288 164.301,250.236 164.301,247.142C164.301,244.047 166.636,240.995 170.874,238.548C175.691,235.766 182.168,234.235 189.111,234.235C196.054,234.235 202.53,235.766 207.348,238.548C211.586,240.995 213.92,244.047 213.92,247.142C213.92,250.236 211.586,253.288 207.348,255.735ZM209.024,235.645C203.525,232.47 196.318,230.882 189.111,230.882C181.904,230.882 174.696,232.47 169.197,235.645C158.2,241.994 158.2,252.289 169.197,258.638C174.696,261.814 181.904,263.401 189.111,263.401C196.318,263.401 203.525,261.814 209.024,258.638C220.022,252.289 220.022,241.994 209.024,235.645Z" style="fill:rgb(112,199,217);fill-rule:nonzero;"/>
        </g>
        <g transform="matrix(3.11553,0,0,3.78253,1676.98,-614.493)">
            <path d="M190.645,323.441C190.375,323.721 190.052,324 189.676,324.28L189.676,315.985C190.698,315.767 191.478,315.689 192.016,315.751C192.931,315.907 193.389,316.575 193.389,317.755C193.389,319.744 192.474,321.639 190.645,323.441ZM183.944,310.625C183.029,310.843 182.384,310.935 182.007,310.905C180.984,310.874 180.473,310.205 180.473,308.9C180.473,307.471 180.984,306.089 182.007,304.752C182.545,304.069 183.191,303.385 183.944,302.702L183.944,310.625ZM196.86,307.828C195.676,307.455 193.9,307.611 191.532,308.295L189.676,308.9L189.676,299.859L189.837,299.859L189.918,299.906C191.478,299.874 192.313,300.884 192.42,302.935L195.308,304.602L198.636,299.346C198.577,297.35 198.652,294.829 198.652,294.829C198.652,294.829 196.609,293.633 196.03,293.298C195.716,293.116 195.374,292.973 195.003,292.868C193.496,292.433 191.72,292.588 189.676,293.334L192.563,291.674L189.676,290.007L183.944,293.316L183.944,296.457C181.254,298.383 179.128,300.604 177.567,303.121C175.522,306.415 174.5,309.677 174.5,312.908C174.5,315.58 175.118,317.363 176.354,318.258C176.729,318.529 179.292,319.953 179.292,319.953C179.292,319.953 180.877,318.765 183.944,317.802L183.944,327.496C182.814,327.776 181.906,328.61 181.906,328.61L183.038,326.04L180.15,324.373L174.015,327.915C174.015,330.944 174.805,332.987 176.384,334.044C176.717,334.267 179.68,335.88 179.68,335.88C179.68,335.88 181.307,334.829 183.944,333.741L183.944,336.654L186.832,338.321L189.676,330.525C192.474,328.475 194.707,326.16 196.376,323.581C198.528,320.163 199.605,316.808 199.605,313.514C199.605,312.104 200.41,309.802 200.41,309.802C200.41,309.802 198.303,308.668 197.722,308.262C197.462,308.08 197.174,307.935 196.86,307.828Z" style="fill:rgb(204,123,41);fill-rule:nonzero;"/>
        </g>
        <g transform="matrix(3.11553,0,0,3.78253,1676.98,-614.493)">
            <path d="M193.532,325.108C193.263,325.388 192.941,325.668 192.563,325.948L192.563,317.652C193.586,317.435 194.366,317.357 194.904,317.419C195.819,317.574 196.277,318.242 196.277,319.423C196.277,321.411 195.362,323.307 193.532,325.108ZM186.832,312.292C185.917,312.51 185.272,312.603 184.895,312.572C183.872,312.541 183.361,311.872 183.361,310.568C183.361,309.138 183.872,307.756 184.895,306.42C185.433,305.736 186.079,305.052 186.832,304.369L186.832,312.292ZM199.748,309.496C198.564,309.123 196.788,309.278 194.42,309.962L192.563,310.568L192.563,301.526L192.725,301.526L192.806,301.573C194.366,301.542 195.201,302.551 195.308,304.602L201.524,301.013C201.416,297.347 200.206,295.188 197.891,294.536C196.384,294.1 194.608,294.256 192.563,295.001L192.563,291.674L186.832,294.983L186.832,298.124C184.142,300.051 182.016,302.272 180.455,304.789C178.41,308.082 177.388,311.344 177.388,314.576C177.388,318.056 178.437,320.029 180.536,320.495C181.666,320.774 183.765,320.433 186.832,319.47L186.832,329.164C185.702,329.443 184.841,329.35 184.249,328.884C183.603,328.386 183.199,327.439 183.038,326.04L176.903,329.583C176.903,333.249 178.06,335.471 180.374,336.248C182.043,336.776 184.195,336.496 186.832,335.409L186.832,338.321L192.563,335.012L192.563,332.193C195.362,330.142 197.595,327.827 199.264,325.248C201.416,321.83 202.493,318.475 202.493,315.182C202.493,312.012 201.578,310.117 199.748,309.496Z" style="fill:rgb(253,202,6);fill-rule:nonzero;"/>
        </g>
        <g transform="matrix(3.11553,0,0,3.78253,1676.98,-614.493)">
            <path d="M176.48,246.06C173.405,246.06 170.912,248.553 170.912,251.628C170.912,254.704 173.405,257.198 176.48,257.198C179.556,257.198 182.049,254.704 182.049,251.628C182.049,248.553 179.556,246.06 176.48,246.06Z" style="fill:rgb(253,202,6);fill-rule:nonzero;"/>
        </g>
        <g transform="matrix(3.11553,0,0,3.78253,1676.98,-614.493)">
            <path d="M176.48,247.717C174.32,247.717 172.569,249.468 172.569,251.628C172.569,253.788 174.32,255.539 176.48,255.539C178.64,255.539 180.392,253.788 180.392,251.628C180.392,249.468 178.64,247.717 176.48,247.717Z" style="fill:rgb(20,108,182);fill-rule:nonzero;"/>
        </g>
        <g transform="matrix(3.11553,0,0,3.78253,1676.98,-614.493)">
            <path d="M207.745,227.587C204.171,227.587 201.274,230.484 201.274,234.058C201.274,237.632 204.171,240.529 207.745,240.529C211.319,240.529 214.217,237.632 214.217,234.058C214.217,230.484 211.319,227.587 207.745,227.587Z" style="fill:rgb(253,202,6);fill-rule:nonzero;"/>
        </g>
        <g transform="matrix(3.11553,0,0,3.78253,1676.98,-614.493)">
            <path d="M207.745,228.755C204.817,228.755 202.442,231.129 202.442,234.058C202.442,236.987 204.817,239.361 207.745,239.361C210.674,239.361 213.048,236.987 213.048,234.058C213.048,231.129 210.674,228.755 207.745,228.755Z" style="fill:rgb(67,166,72);fill-rule:nonzero;"/>
        </g>
        <g transform="matrix(3.11553,0,0,3.78253,1676.98,-614.493)">
            <path d="M180.799,224.64C177.693,224.64 175.176,227.157 175.176,230.262C175.176,233.368 177.693,235.885 180.799,235.885C183.904,235.885 186.421,233.368 186.421,230.262C186.421,227.157 183.904,224.64 180.799,224.64Z" style="fill:rgb(253,202,6);fill-rule:nonzero;"/>
        </g>
        <g transform="matrix(3.11553,0,0,3.78253,1676.98,-614.493)">
            <path d="M180.799,226.363C178.645,226.363 176.899,228.109 176.899,230.262C176.899,232.416 178.645,234.162 180.799,234.162C182.953,234.162 184.699,232.416 184.699,230.262C184.699,228.109 182.953,226.363 180.799,226.363Z" style="fill:rgb(238,36,36);fill-rule:nonzero;"/>
        </g>
        <g transform="matrix(3.11553,0,0,3.78253,1676.98,-614.493)">
            <path d="M195.493,239.529C192.898,239.529 190.794,241.633 190.794,244.228C190.794,246.823 192.898,248.927 195.493,248.927C198.088,248.927 200.192,246.823 200.192,244.228C200.192,241.633 198.088,239.529 195.493,239.529Z" style="fill:rgb(253,202,6);fill-rule:nonzero;"/>
        </g>
        <g transform="matrix(3.11553,0,0,3.78253,1676.98,-614.493)">
            <path d="M195.493,240.969C193.693,240.969 192.233,242.428 192.233,244.228C192.233,246.028 193.693,247.488 195.493,247.488C197.293,247.488 198.752,246.028 198.752,244.228C198.752,242.428 197.293,240.969 195.493,240.969Z" style="fill:rgb(238,36,36);fill-rule:nonzero;"/>
        </g>
    </g>
</svg>
