<?xml version="1.0" encoding="UTF-8" standalone="no"?>
<!DOCTYPE svg PUBLIC "-//W3C//DTD SVG 1.1//EN" "http://www.w3.org/Graphics/SVG/1.1/DTD/svg11.dtd">
<svg width="100%" height="100%" viewBox="0 0 292 310" version="1.1" xmlns="http://www.w3.org/2000/svg" xmlns:xlink="http://www.w3.org/1999/xlink" xml:space="preserve" xmlns:serif="http://www.serif.com/" style="fill-rule:evenodd;clip-rule:evenodd;stroke-miterlimit:10;">
    <g transform="matrix(1,0,0,1,-334,-104)">
        <g transform="matrix(1,-0,-0,1,334,104)">
        </g>
        <g id="OBJECTS">
            <g>
                <clipPath id="_clip1">
                    <rect x="117.5" y="80.815" width="515" height="335" clip-rule="nonzero"/>
                </clipPath>
                <g clip-path="url(#_clip1)">
                    <g transform="matrix(1,0,0,1,0,-40)">
                        <g transform="matrix(1,0,0,1,514.967,159.384)">
                            <path d="M0,7.533C1.21,6.378 -0.453,5.17 0.888,3.849C2.924,1.843 7.458,4.455 9.246,2.15C11.809,-1.152 2.775,0.718 1.55,1.14C0.795,1.401 -5.748,5.221 -4.725,6.366C-5.126,6.23 -5.45,6.15 -4.452,6.546C-3.218,6.836 -1.208,8.685 0,7.533Z" style="fill:none;fill-rule:nonzero;stroke:rgb(0,97,255);stroke-opacity:0.52;stroke-width:0.9px;"/>
                        </g>
                        <g transform="matrix(1,0,0,1,429.937,216.719)">
                            <path d="M0,21.017C-1.303,18.715 -1.424,17.197 -4.001,15.681C-4.937,15.129 -6.006,15.029 -6.91,14.382C-7.637,13.862 -8.213,13.35 -8.619,12.546C-8.839,12.11 -8.348,11.311 -8.563,10.86C-8.418,11.288 -10.774,10.69 -10.159,10.692C-10.671,10.69 -11.438,10.699 -11.908,10.68C-11.88,10.681 -14.534,10.924 -14.271,11.027C-14.636,10.885 -14.851,9.944 -15.016,9.89C-16.269,9.478 -17.353,9.013 -18.554,9.458C-19.815,9.927 -20.398,12.055 -21.579,12.499C-21.989,12.654 -24.211,12.686 -24.687,12.592C-26.39,12.255 -26.47,11.812 -26.597,10.225C-26.709,8.817 -25.444,7.413 -26.822,6.107C-27.913,5.073 -29.357,6.079 -29.974,4.708C-30.497,3.543 -28.589,1.273 -29.6,0.133C-30.912,-1.348 -32.411,0.904 -33.08,1.363C-34.188,2.124 -34.822,3.269 -36.533,2.272C-37.829,1.517 -37.681,0.702 -37.708,-0.681C-37.756,-3.157 -38.161,-5.259 -35.896,-6.309C-34.824,-6.806 -33.532,-6.899 -32.426,-7.315C-31.693,-7.59 -30.905,-8.306 -30.227,-8.399C-27.673,-8.747 -27.137,-6.709 -26.014,-5.208C-23.512,-1.864 -24.344,-6.178 -24.252,-7.687C-24.104,-10.108 -22.109,-11.177 -20.935,-13.258C-19.969,-14.969 -20.062,-17.928 -18.695,-19.074C-17.703,-19.906 -16.586,-19.587 -15.728,-20.762C-15.562,-20.989 -16.1,-21.851 -15.634,-22.43C-15.172,-23.005 -14.469,-23.302 -13.743,-23.276C-13.159,-23.255 -13.071,-22.258 -12.338,-22.197C-11.724,-22.146 -11.673,-22.379 -11.056,-22.497C-10.142,-22.672 -9.39,-23.153 -8.754,-23.777C-6.971,-25.527 -8.068,-26.458 -4.952,-26.2C-3.187,-26.055 -1.899,-25.725 -2.457,-27.723C-2.896,-29.293 -4.769,-28.989 -5.119,-29.714C-5.447,-30.395 -4.076,-31.67 -4.354,-32.621C-4.378,-32.7 -6.417,-34.779 -6.553,-34.878C-7.582,-35.625 -8.302,-35.643 -9.129,-36.656C-9.71,-37.368 -10.352,-39.713 -11.291,-40.055C-12.926,-40.648 -12.255,-38.888 -13.401,-38.815C-14.678,-38.734 -14.58,-39.605 -15.059,-39.927C-16.348,-40.796 -18.517,-42.341 -20.483,-42.1C-22.023,-41.912 -22.301,-40.778 -22.628,-39.387C-22.996,-37.82 -22.989,-39.16 -22.705,-37.859C-22.441,-36.649 -21.54,-36.398 -22.247,-35.203C-22.011,-35.603 -24.388,-34.329 -23.953,-34.506C-25.321,-33.948 -24.604,-33.628 -25.907,-34.3C-26.474,-34.592 -26.659,-35.332 -27.3,-35.612C-27.981,-35.91 -29.015,-35.791 -29.781,-36.031C-31.293,-36.505 -35.267,-37.787 -34.898,-39.761C-34.75,-40.555 -32.852,-42.074 -32.261,-42.409C-30.853,-43.208 -30.289,-42.615 -28.742,-42.579C-27.725,-42.555 -24.337,-42.376 -24.006,-43.166C-23.558,-44.24 -26.101,-44.453 -26.098,-45.146C-26.093,-45.959 -25.515,-45.304 -25.357,-46.089C-25.359,-46.081 -24.667,-46.615 -24.582,-46.85C-24.411,-47.323 -25.031,-48.579 -25.127,-48.365C-24.746,-49.208 -22.312,-49.174 -21.753,-48.448C-21.231,-47.771 -21.939,-47.182 -22.186,-46.493C-22.245,-46.324 -21.785,-46.103 -21.886,-45.826C-21.987,-45.545 -22.541,-45.728 -22.579,-45.398C-22.717,-44.234 -23.119,-44.019 -22.146,-43.25C-21.134,-42.45 -18.78,-43.057 -17.46,-42.59C-15.647,-41.95 -14.009,-40.166 -12.223,-41.531C-10.729,-42.672 -11.989,-42.421 -12.002,-43.746C-12.005,-44.035 -12.03,-44.241 -12.064,-44.387C-11.818,-44.249 -11.31,-44.161 -10.335,-44.395C-6.534,-45.305 -11.343,-47.22 -12.276,-47.897C-13.241,-48.598 -13.304,-49.648 -14.159,-50.391C-14.893,-51.029 -16.065,-51.05 -16.984,-51.266C-19.051,-51.753 -20.682,-53.063 -22.68,-53.617C-24.223,-54.046 -25.862,-53.413 -27.465,-53.473C-29.122,-53.534 -30.84,-53.939 -32.479,-54.165C-36.951,-54.781 -41.424,-55.399 -45.896,-56.016C-47.492,-56.464 -46.914,-59.802 -49.325,-59.141C-50.329,-58.866 -50.48,-57.156 -50.971,-57.028C-52.032,-56.753 -53.117,-58.184 -54.451,-57.935C-55.77,-57.688 -56.814,-56.462 -57.692,-55.557C-57.992,-55.249 -57.693,-54.741 -57.874,-54.559C-58.146,-54.286 -58.707,-54.463 -58.919,-54.233C-59.527,-53.576 -60.395,-53.198 -60.483,-52.138C-60.503,-51.897 -60.332,-51.017 -60.336,-50.956C-60.36,-50.636 -59.364,-50.941 -59.459,-50.471C-59.63,-49.622 -64.361,-49.93 -65.321,-49.864C-66.054,-49.814 -66.84,-50.082 -67.557,-50C-68.542,-49.887 -68.834,-49.226 -69.982,-49.149C-71.296,-49.06 -73.635,-49.848 -75.083,-49.998C-76.985,-50.196 -79.068,-50.192 -80.917,-50.654C-81.979,-50.92 -84.136,-52.124 -85.115,-51.981C-86.186,-51.824 -87.348,-50.939 -88.65,-50.442C-89.356,-50.173 -92.143,-49.277 -92.327,-48.558C-92.577,-47.579 -90.781,-46.881 -89.914,-46.286C-90.545,-46.719 -92.831,-46.983 -93.575,-46.066C-95.339,-43.89 -92.375,-44.194 -91.96,-42.961C-91.687,-42.146 -93.442,-40.87 -92.423,-39.449C-91.744,-38.502 -90.343,-38.826 -89.61,-38.627C-89.915,-38.71 -88.151,-37.79 -88.265,-37.847C-88.085,-37.756 -87.336,-38.304 -87.031,-37.91C-86.209,-36.849 -89.391,-35.954 -90.062,-35.24C-92.4,-32.748 -87.656,-34.439 -86.23,-34.984C-85.442,-35.285 -84.53,-35.558 -83.781,-35.881C-83.18,-36.141 -82.492,-35.695 -81.982,-36.307C-81.383,-37.026 -82.182,-37.625 -81.834,-38.33C-80.446,-41.144 -75.607,-39.658 -73.16,-38.906C-70.99,-38.239 -69.324,-36.91 -67.888,-35.219C-66.985,-34.156 -66.889,-32.262 -65.657,-31.601C-64.595,-31.031 -64.322,-31.905 -63.267,-30.811C-62.063,-29.564 -60.302,-26.93 -59.759,-25.298C-58.801,-22.418 -60.753,-19.634 -58.837,-17.008C-57.643,-15.37 -55.87,-14.166 -54.748,-12.472C-53.973,-11.302 -53.318,-9.837 -52.753,-8.555C-52.317,-7.566 -52.537,-5.837 -52.126,-5.197C-51.74,-4.595 -50.279,-4.548 -49.722,-4.097C-48.97,-3.489 -48.825,-1.99 -48.087,-1.534C-47.151,-0.956 -46.482,-1.897 -45.781,-1.508C-44.444,-0.766 -44.471,1.776 -43.322,2.836C-42.48,3.614 -41.015,3.786 -40.068,4.442C-39.459,4.865 -38.974,5.731 -38.338,6.042C-37.207,6.595 -36.782,5.949 -35.611,6.208C-34.36,6.486 -32.861,8.164 -31.628,8.782C-30.109,9.544 -30.131,9.307 -29.235,10.729C-28.604,11.733 -28.639,12.81 -27.355,13.521C-25.996,14.274 -20.159,14.038 -22.6,17.125C-24.29,19.265 -25.995,18.302 -26.786,21.356C-27.149,22.76 -26.665,23.188 -26.75,24.517C-26.809,25.449 -27.567,26.003 -27.63,26.586C-27.812,28.289 -27.104,28.192 -26.142,29.721C-24.622,32.135 -25.222,35.673 -23.356,37.791C-20.583,40.943 -16.103,40.418 -17.024,45.612C-17.45,48.014 -18.159,50.169 -18.186,52.601C-18.198,53.774 -17.896,55.177 -18.119,56.33C-18.321,57.374 -19.235,58.302 -19.404,59.349C-19.722,61.308 -18.725,63.296 -19.206,65.51C-19.385,66.331 -20.07,67.148 -20.191,67.927C-20.389,69.202 -20.036,70.792 -19.941,72.106C-19.825,73.714 -19.735,76.079 -18.658,77.391C-17.701,78.558 -13.53,80.819 -13.383,78.673C-13.318,77.73 -14.49,76.581 -14.662,75.634C-14.873,74.47 -14.615,73.782 -14.338,72.625C-13.7,69.972 -12.648,68.593 -10.827,66.635C-7.376,62.926 -4.743,59.328 -1.808,55.207C-0.8,53.793 0.533,52.581 1.358,51.081C1.976,49.96 2.094,48.334 3.017,47.387C4.312,46.057 6.136,46.241 7.138,44.378C8.343,42.14 8.12,39.187 9.129,36.873C10.034,34.797 12.253,32.116 12.19,29.77C12.02,23.398 2.315,25.107 0,21.017Z" style="fill:none;fill-rule:nonzero;stroke:rgb(0,97,255);stroke-opacity:0.52;stroke-width:0.9px;"/>
                        </g>
                        <g transform="matrix(1,0,0,1,421.374,227.549)">
                            <path d="M0,0.03C-0.003,0.021 -0.008,0.01 -0.014,0C-0.009,0.009 -0.005,0.02 0,0.03Z" style="fill:none;fill-rule:nonzero;stroke:rgb(0,97,255);stroke-opacity:0.52;stroke-width:1px;"/>
                        </g>
                        <g transform="matrix(1,0,0,1,421.36,227.459)">
                            <path d="M0,0.09C-0.019,0.058 -0.04,0.028 -0.066,0C-0.033,0.034 -0.015,0.063 0,0.09Z" style="fill:none;fill-rule:nonzero;stroke:rgb(0,97,255);stroke-opacity:0.52;stroke-width:1px;"/>
                        </g>
                        <g transform="matrix(1,0,0,1,586.503,283.783)">
                            <path d="M0,-3.5C-1.563,-3.034 -3.31,-2.391 -0.919,-0.815C1.728,0.929 1.344,-4.429 0,-3.5Z" style="fill:none;fill-rule:nonzero;stroke:rgb(0,97,255);stroke-opacity:0.52;stroke-width:0.9px;"/>
                        </g>
                        <g transform="matrix(1,0,0,1,571.231,230.664)">
                            <path d="M0,-1.762C-0.922,-3.12 -1.145,-1.784 -2.509,-2.137C-4.987,-1.834 -3.199,1.358 -1.194,0.95C-0.085,0.725 0.725,-0.695 0,-1.762Z" style="fill:none;fill-rule:nonzero;stroke:rgb(0,97,255);stroke-opacity:0.52;stroke-width:0.9px;"/>
                        </g>
                        <g transform="matrix(1,0,0,1,584.343,264.688)">
                            <path d="M0,-11.98C-0.824,-14.252 -2,-17.983 1.624,-16.613C2.56,-16.259 3.454,-14.46 4.136,-16.268C4.609,-17.522 2.825,-18.955 2.145,-19.769C0.028,-22.297 -1.27,-23.965 -4.573,-24.86C-6,-25.248 -9.794,-26.464 -10.211,-24.583C-10.333,-24.033 -9.14,-22.422 -8.743,-22.006C-7.607,-20.813 -6.133,-20.831 -5.278,-19.401C-4.884,-18.739 -5.234,-18.184 -4.663,-17.42C-4.488,-17.186 -3.738,-17.067 -3.429,-16.801C-2.072,-15.636 -2.088,-14.819 -2.14,-13.151C-2.204,-11.076 -2.868,-6.454 -5.426,-10.116C-6.217,-11.249 -5.203,-12.241 -5.774,-13.183C-6.235,-13.943 -8.095,-14.218 -8.838,-14.161C-9.972,-14.074 -9.525,-14.451 -10.694,-13.535C-11.034,-13.268 -11.688,-12.367 -11.939,-12.215C-12.573,-11.832 -12.794,-11.972 -13.375,-11.806C-15.15,-11.298 -15.168,-11.341 -16.421,-9.785C-17.101,-8.94 -17.759,-7.473 -18.369,-6.841C-20.001,-5.151 -23.547,-5.26 -24.563,-2.761C-25.39,-0.729 -24.5,2.722 -23.683,4.649C-23.152,5.899 -22.925,6.725 -22.914,8.008C-22.902,9.329 -24.076,10.637 -22.001,11.028C-18.253,11.735 -12.355,3.249 -8.62,7.78C-7.629,8.981 -8.365,9.891 -6.704,10.495C-4.752,11.205 -4.925,10.187 -3.539,12.207C-2.255,14.082 -1.692,14.484 0.576,14.281C2.129,14.141 3.299,14.111 4.396,12.741C9.106,6.865 6.607,0.651 4.078,-5.377C1.881,-7.668 1.074,-9.015 0,-11.98Z" style="fill:none;fill-rule:nonzero;stroke:rgb(0,97,255);stroke-opacity:0.52;stroke-width:0.9px;"/>
                        </g>
                        <g transform="matrix(1,0,0,1,568.026,250.023)">
                            <path d="M0,-1.976C-0.608,-1.369 -0.741,-0.782 -0.787,0.162C-0.791,0.214 -0.794,0.273 -0.797,0.342C-0.675,0.888 -0.635,0.81 -0.637,0.577C0.19,1.132 3.699,-0.811 2.86,-2.268C2.376,-3.108 0.536,-2.511 0,-1.976Z" style="fill:none;fill-rule:nonzero;stroke:rgb(0,97,255);stroke-opacity:0.52;stroke-width:1px;"/>
                        </g>
                        <g transform="matrix(1,0,0,1,607.716,285.582)">
                            <path d="M0,-10.543C-0.179,-10.375 0.094,-7.819 0.09,-7.385C0.069,-4.865 -0.316,-6.011 -1.797,-4.522C-2.531,-3.785 -4.768,-2.255 -4.995,-1.31C-5.223,-0.366 -4.253,1.284 -3.077,1.098C-2.142,0.949 -0.716,-1.988 -0.124,-2.71C0.804,-3.843 1.646,-3.956 2.58,-4.854C4.846,-7.028 1.365,-11.827 0,-10.543Z" style="fill:none;fill-rule:nonzero;stroke:rgb(0,97,255);stroke-opacity:0.52;stroke-width:0.9px;"/>
                        </g>
                        <g transform="matrix(-0.576416,0.817156,0.817156,0.576416,569.209,239.415)">
                            <path d="M3.876,-0.649C4.116,0.195 3.037,0.467 3.089,1C3.141,1.544 3.819,1.457 3.876,2.142C3.153,4.8 -1.336,-0.044 0.667,-1.512C1.382,-2.037 3.59,-1.655 3.876,-0.649Z" style="fill:none;fill-rule:nonzero;stroke:rgb(0,97,255);stroke-opacity:0.52;stroke-width:0.9px;"/>
                        </g>
                        <g transform="matrix(1,0,0,1,494.853,227.385)">
                            <path d="M0,-20.831C-2.136,-20.453 -5.523,-21.814 -7.687,-22.199C-9.117,-22.508 -9.805,-20.612 -11.469,-20.897C-12.459,-21.067 -13.828,-22.113 -14.688,-22.62C-16.078,-23.44 -16.051,-23.614 -16.759,-25.022C-17.5,-26.498 -17.661,-26.987 -19.607,-27.098C-20.869,-27.17 -25.007,-25.513 -25.693,-26.546C-26.354,-27.539 -23.088,-31.047 -22.347,-31.628C-21.439,-32.339 -20.396,-32.769 -19.066,-32.722C-17.285,-32.659 -17.437,-32.204 -16.1,-31.109C-15.36,-30.504 -14.322,-29.817 -13.505,-29.35C-12.995,-29.058 -13.208,-28.559 -12.526,-28.433C-11.589,-28.26 -11.797,-29.418 -11.256,-29.433C-9.266,-29.486 -9.905,-28.197 -8.634,-27.331C-6.781,-26.07 -7.49,-27.698 -6.554,-28.633C-5.147,-30.036 -5.3,-28.762 -4.58,-27.657C-3.768,-26.411 -2.83,-25.842 -1.347,-25.623C0.455,-25.358 2.157,-26.319 2.251,-23.8C2.303,-22.422 1.263,-21.055 0,-20.831ZM117.761,-58.667C116.938,-60.65 113.449,-61.037 111.506,-60.831C110.01,-60.673 111.68,-59.942 109.915,-59.882C108.802,-59.844 108.918,-60.27 108.008,-60.451C106.818,-60.689 106.006,-60.58 104.771,-60.581C102.534,-60.583 100.797,-61.644 98.489,-61.609C97.181,-61.59 96.093,-61.285 94.878,-61.898C94.03,-62.327 94.254,-63.273 92.956,-63.631C92.223,-63.833 90.677,-63.173 90.035,-63.791C89.262,-64.536 90.211,-65.579 89.266,-66.542C88.894,-66.92 87.004,-67.264 86.411,-67.212C84.549,-67.052 85.081,-66.671 84.756,-65.324C84.576,-64.58 85.333,-62.74 84.118,-62.085C83.538,-61.773 81.79,-62.374 81.074,-62.379C81.022,-62.379 78.681,-62.299 79.017,-62.191C77.335,-62.73 80.017,-61.223 78.331,-62.196C77.216,-62.84 77.683,-64.404 76.109,-64.892C74.235,-65.473 72.089,-63.924 70.218,-63.867C69.289,-63.839 67.316,-64.033 66.489,-64.443C64.867,-65.249 65.55,-66.245 64.467,-67.108C63.423,-67.94 58.995,-68.247 57.55,-68.235C55.74,-68.219 53.737,-67.151 51.897,-66.869C49.83,-66.552 47.86,-66.396 45.83,-65.898C43.224,-65.258 40.553,-64.347 37.899,-63.952C36.238,-63.705 34.563,-64.147 33.153,-62.991C32.191,-65.968 29.233,-63.225 28.554,-61.864C27.724,-60.2 29.026,-58.748 27.125,-58.919C26.324,-58.992 25.639,-59.99 24.84,-60.113C23.643,-60.298 23.54,-59.856 22.505,-59.58C20.791,-59.122 19.258,-58.914 17.375,-58.785C16.019,-58.692 14.671,-58.548 13.317,-58.603C12.366,-58.643 11.585,-58.861 10.651,-58.665C9.527,-58.429 9.529,-57.563 8.096,-57.708C5.064,-58.015 2.177,-60.432 -0.891,-60.991C-3.793,-61.521 -8.049,-61.987 -10.757,-60.35C-12.203,-59.477 -12.529,-57.79 -13.747,-56.678C-15.091,-55.45 -17.157,-55.214 -18.575,-54.106C-19.891,-53.079 -21.147,-51.34 -20.828,-49.518C-20.701,-48.793 -20.12,-48.214 -19.752,-47.622C-18.939,-46.314 -18.754,-47.452 -19.127,-45.652C-19.416,-44.26 -20.527,-42.661 -22.297,-42.378C-24.274,-42.062 -25.315,-44.26 -26.147,-45.832C-27.048,-47.535 -27.382,-49.595 -29.627,-48.667C-30.715,-48.217 -30.53,-47.906 -31.096,-47.035C-31.25,-46.797 -30.808,-46.518 -31.157,-45.995C-31.454,-45.55 -32.349,-45.388 -32.569,-45.027C-33.802,-43.014 -33.735,-41.956 -31.398,-41.207C-30.414,-40.892 -29.654,-41.893 -28.919,-40.313C-28.504,-39.422 -28.825,-38.779 -29.519,-38.012C-28.646,-37.534 -27.758,-36.789 -27.552,-35.783C-27.121,-33.674 -28.268,-34.354 -29.488,-33.77C-31.946,-32.594 -34.03,-30.484 -32.889,-27.499C-32.324,-26.023 -31.371,-26.57 -31.546,-24.606C-31.643,-23.523 -32.429,-22.197 -32.802,-21.179C-33.719,-18.675 -35.055,-17.687 -36.64,-15.587C-37.771,-14.088 -38.633,-12.085 -38.716,-10.195C-38.763,-9.126 -38.244,-8.033 -38.23,-6.962C-38.213,-5.689 -38.708,-4.472 -38.806,-3.211C-39.065,0.147 -36.833,-0.553 -35.288,1.911C-34.187,3.669 -34.37,7.586 -31.192,7.204C-30.536,7.125 -29.838,6.261 -29.228,6.014C-28.175,5.586 -26.911,5.425 -25.79,5.299C-23.183,5.007 -22.288,5.683 -20.122,6.79C-19.396,7.161 -18.159,7.037 -17.787,7.761C-17.236,8.833 -18.377,10.631 -18.396,11.704C-18.441,14.169 -16.371,16.019 -15.706,18.325C-14.406,22.835 -16.997,26.602 -15.558,30.792C-14.869,32.796 -14.032,34.625 -13.664,36.707C-13.248,39.054 -12.44,40.548 -11.683,42.768C-10.959,44.889 -11.527,46.495 -8.762,46.954C-5.979,47.416 -4.26,45.706 -2.24,44.149C0.985,41.665 2.652,37.203 3.473,33.267C3.74,31.982 3.669,31.441 4.391,30.338C5.021,29.374 6.197,28.825 6.771,27.793C8.36,24.937 7.16,22.176 7.068,19.256C7,17.064 8.096,14.907 8.955,12.899C9.852,10.805 11.322,9.967 12.639,8.177C13.66,6.788 14.458,4.928 14.961,3.269C15.368,1.928 15.919,0.793 14.384,-0.111C12.783,-1.054 11.559,0.905 10.198,0.225C7.251,-1.249 14.216,-3.09 14.981,-3.494C16.876,-4.492 19.58,-6.046 20.896,-7.771C21.31,-8.312 22.116,-9.754 22.177,-10.424C22.328,-12.089 21.801,-11.659 20.945,-12.826C20.554,-13.359 19.183,-15.053 19.647,-15.796C20.346,-16.913 21.893,-15.094 22.716,-14.587C24.953,-13.207 26.454,-15.027 28.342,-13.414C29.296,-12.599 29.436,-11.147 30.312,-10.458C31.812,-9.281 31.551,-10.727 32.234,-8.906C32.853,-7.257 32.67,-5.151 33.252,-3.392C33.712,-2.003 34.521,1.601 35.627,2.457C37.881,4.203 38.515,0.392 38.736,-0.982C39.197,-3.837 39.842,-4.479 41.798,-6.759C42.692,-7.802 44.857,-11.365 46.723,-10.849C47.971,-10.504 47.958,-9.174 48.417,-8.187C48.632,-7.727 48.684,-6.977 48.991,-6.568C49.849,-5.425 49.988,-6.013 50.952,-5.342C52.565,-4.219 53.043,-1.456 53.271,0.764C53.368,1.705 52.976,2.4 53.212,3.376C53.522,4.662 54.476,6.03 55.043,7.222C55.5,8.181 57.297,12.47 58.149,9.399C58.546,7.97 56.409,5.196 55.861,3.859C55.322,2.546 53.719,-2.04 56.308,-0.008C57.001,0.536 57.097,1.758 57.951,2.144C59.528,2.855 60.982,1.287 61.657,0.057C62.794,-2.013 62.063,-3.967 61.036,-5.873C60.574,-6.73 59.466,-7.746 59.622,-8.65C60.093,-11.378 60.807,-9.369 61.316,-9.013C61.692,-8.751 61.188,-8.329 61.641,-8.068C62.562,-7.537 63.077,-8.058 63.769,-8.56C64.398,-9.017 64.727,-10.104 65.249,-10.7C66.806,-12.475 69.393,-13.648 70.718,-15.591C71.987,-17.452 72.066,-19.818 71.505,-21.873C71.077,-23.44 70.831,-23.255 71.366,-24.937C71.427,-25.131 71.936,-25.379 72.053,-25.629C72.303,-26.16 72.014,-26.924 72.265,-27.468C73.794,-30.789 74.337,-24.73 75.451,-23.951C79.205,-21.326 77.186,-27.647 77.186,-28.372C77.183,-31.396 79.851,-31.438 81.897,-32.414C83.904,-33.371 84.85,-35.491 85.903,-37.273C88.069,-40.934 86.691,-35.98 88.349,-35.372C89.804,-34.837 89.451,-40.161 89.224,-41.155C89.014,-42.072 88.994,-42.97 88.287,-43.643C87.769,-44.136 85.986,-43.83 85.544,-44.331C84.545,-45.461 87.467,-48.245 88.954,-48.784C90.586,-49.376 93.07,-49.041 94.835,-49.004C95.823,-48.984 96.449,-48.894 97.308,-49.216C98.365,-49.613 99.437,-51.084 100.546,-51.237C105.086,-51.861 99.326,-48.14 98.755,-47.289C97.77,-45.825 97.646,-42.379 98.385,-40.842C99.553,-38.415 100.968,-41.656 102.17,-43.263C103.494,-45.032 104.727,-46.878 106.09,-48.618C108.426,-51.6 113.367,-49.649 116.444,-52.295C117.756,-53.423 118.419,-57.078 117.761,-58.667Z" style="fill:none;fill-rule:nonzero;stroke:rgb(0,97,255);stroke-opacity:0.52;stroke-width:0.9px;"/>
                        </g>
                        <g transform="matrix(1,0,0,1,451.279,164.408)">
                            <path d="M0,-4.767C0.266,-7.621 0.672,-7.386 2.784,-9.517C4.039,-10.784 4.947,-12.848 2.348,-12.643C0.23,-12.475 -0.606,-10.36 -2.191,-12.524C-3.856,-14.796 -2.702,-16.469 -6.063,-16.469C-8.168,-16.47 -9.455,-17.401 -11.511,-17.724C-13.485,-18.034 -15.663,-17.511 -17.544,-16.955C-19.659,-16.33 -20.906,-15.236 -22.474,-14.437C-22.571,-14.388 -22.982,-15.034 -23.405,-14.742C-23.749,-14.505 -23.581,-13.867 -23.836,-13.64C-24.754,-12.824 -24.554,-12.267 -26.179,-12.248C-28.821,-12.216 -29.553,-12.406 -32.03,-10.954C-33.617,-10.023 -34.506,-8.843 -35.857,-7.602C-37.114,-6.448 -39.899,-6.282 -39.06,-4.688C-38.118,-2.901 -35.167,-3.421 -33.533,-3.099C-31.428,-2.684 -29.315,-2.819 -27.935,-0.869C-26.938,0.539 -27.3,2.443 -26.648,3.861C-26.441,4.314 -25.77,4.582 -25.497,5.085C-24.841,6.297 -25.038,7.972 -24.383,9.185C-23.914,10.053 -22.781,11.332 -21.941,11.818C-21.157,12.273 -19.496,13.267 -18.743,13.129C-18.014,12.994 -17.81,12.438 -17.382,11.931C-17.194,11.709 -17.158,10.846 -17.009,10.548C-16.805,10.141 -16.243,10.129 -15.983,9.682C-15.105,8.168 -15.586,8.077 -13.529,7.306C-12.21,6.812 -11.299,5.998 -10.139,5.485C-8.731,4.862 -7.033,4.773 -5.58,4.211C-4.814,3.915 -3.075,3.457 -2.687,2.694C-2.484,2.295 -3.208,-0.268 -2.506,-0.366C0.152,-0.019 -0.173,-2.906 0,-4.767Z" style="fill:none;fill-rule:nonzero;stroke:rgb(0,97,255);stroke-opacity:0.52;stroke-width:0.9px;"/>
                        </g>
                        <g transform="matrix(1,0,0,1,457.539,173.918)">
                            <path d="M0,-2.575C-0.591,-3.947 -4.71,-3.267 -5.778,-3.059C-6.719,-2.876 -7.058,-3.664 -7.63,-2.393C-8.276,-0.958 -7.548,-1.1 -6.737,-0.501C-5.479,0.428 -2.959,1.372 -1.98,-0.311C-0.758,-0.498 0.584,-1.218 0,-2.575Z" style="fill:none;fill-rule:nonzero;stroke:rgb(0,97,255);stroke-opacity:0.52;stroke-width:0.9px;"/>
                        </g>
                        <g transform="matrix(-0.649262,0.760565,0.760565,0.649262,511.562,259.557)">
                            <path d="M2.053,-7.622C3.27,-7.202 7.325,-3.988 7.88,-2.963C10.119,1.173 3.656,-1.164 2.053,-1.908C-0.181,-2.944 -3.599,-4.26 -4.515,-6.1C-4.386,-8.042 0.529,-8.148 2.053,-7.622Z" style="fill:none;fill-rule:nonzero;stroke:rgb(0,97,255);stroke-opacity:0.52;stroke-width:1px;"/>
                        </g>
                        <g transform="matrix(1,0,0,1,560.632,240.885)">
                            <path d="M0,8.107C0.387,7.781 0.415,7.613 0.089,7.6C0.598,7.471 -1.583,5.674 -2.52,5.524C-3.663,5.34 -6.227,5.854 -6.859,4.431C-7.403,3.207 -5.794,2.084 -6.805,0.724C-7.472,-0.171 -8.952,-0.717 -10.049,-0.534C-14.01,0.126 -8.617,5.393 -6.982,6.427C-5.976,7.064 -4.938,6.846 -3.779,7.184C-2.591,7.529 -1.331,8.824 0,8.107Z" style="fill:none;fill-rule:nonzero;stroke:rgb(0,97,255);stroke-opacity:0.52;stroke-width:0.9px;"/>
                        </g>
                        <g transform="matrix(1,0,0,1,579.517,200.402)">
                            <path d="M0,2.443C-1.276,3.339 -2.378,2.429 -3.56,3.02C-4.484,3.482 -7.067,6.253 -6.035,7.528C-5.07,8.719 -2.632,6.88 -1.48,6.471C0.021,5.94 1.584,5.095 2.613,3.816C4.043,2.04 3.132,0.599 3.689,-1.275C4.256,-3.182 6.632,-2.108 7.123,-3.743C7.656,-5.518 4.339,-6.276 3.113,-5.548C1.225,-4.427 1.41,-0.478 1.442,0.384C1.11,1.153 0.69,1.958 0,2.443Z" style="fill:none;fill-rule:nonzero;stroke:rgb(0,97,255);stroke-opacity:0.52;stroke-width:0.9px;"/>
                        </g>
                        <g transform="matrix(1,0,0,1,559.794,234.191)">
                            <path d="M0,-0.03C-0.027,-0.021 -0.051,0 0,-0.03Z" style="fill:none;fill-rule:nonzero;stroke:rgb(0,97,255);stroke-opacity:0.52;stroke-width:1px;"/>
                        </g>
                        <g transform="matrix(1,0,0,1,559.823,234.297)">
                            <path d="M0,-0.108C-0.017,-0.079 -0.039,-0.041 -0.062,0C-0.048,-0.023 -0.029,-0.046 -0.017,-0.069C-0.007,-0.086 -0.003,-0.098 0,-0.108Z" style="fill:none;fill-rule:nonzero;stroke:rgb(0,97,255);stroke-opacity:0.52;stroke-width:1px;"/>
                        </g>
                        <g transform="matrix(1,0,0,1,559.807,240.024)">
                            <path d="M0,-5.797C-0.284,-5.31 -0.155,-5.539 -0.046,-5.728C-0.451,-5.083 -1.313,-4.341 -1.942,-3.919C-2.092,-3.819 -3.489,-3.57 -3.486,-3.574C-4.33,-2.522 -3.58,-0.063 -2.935,0.906C-2.166,2.059 -0.346,3.183 1.126,2.988C3.42,2.684 2.646,1.223 3.284,-0.457C3.524,-1.089 4.262,-1.461 4.373,-2.178C4.539,-3.248 3.62,-4.08 3.7,-5.139C3.758,-5.897 4.919,-5.655 4.814,-6.539C4.712,-7.412 4.199,-6.531 4.054,-6.89C3.202,-8.98 3.065,-8.799 1.775,-7.576C1.79,-7.277 1.806,-6.978 1.821,-6.679C1.229,-6.738 0.754,-6.557 0.396,-6.136C0.149,-5.964 0.035,-5.891 -0.013,-5.863C0.007,-5.87 0.027,-5.869 0.017,-5.836C0.056,-5.902 0.068,-5.92 0,-5.797Z" style="fill:none;fill-rule:nonzero;stroke:rgb(0,97,255);stroke-opacity:0.52;stroke-width:0.9px;"/>
                        </g>
                    </g>
                    <g transform="matrix(1,0,0,1,0,33)">
                        <g transform="matrix(-43.0784,453.593,453.593,43.0784,519.186,55.7264)">
                            <path d="M0.485,-0.168C0.486,-0.177 0.495,-0.184 0.504,-0.183L0.705,-0.164L0.672,0.185L0.471,0.166C0.462,0.165 0.455,0.157 0.455,0.147L0.485,-0.168Z" style="fill:url(#_Linear2);fill-rule:nonzero;"/>
                        </g>
                        <g transform="matrix(149.523,-4.26326e-14,-4.26326e-14,-149.523,416.174,324.634)">
                            <rect x="0.043" y="-0.241" width="0.963" height="0.482" style="fill:url(#_Linear3);"/>
                        </g>
                        <g transform="matrix(-1,0,0,1,405.707,368.634)">
                            <path d="M-177.064,11.468L0,11.468C6.333,11.468 11.468,6.334 11.468,0L-188.532,0C-188.532,6.334 -183.398,11.468 -177.064,11.468" style="fill:rgb(0,97,255);fill-opacity:0.61;fill-rule:nonzero;"/>
                        </g>
                        <g transform="matrix(-1,0,0,1,477.448,368.634)">
                            <path d="M-32.248,3.876L0.001,3.876C2.142,3.876 3.876,2.141 3.876,0L-36.124,0C-36.124,2.141 -34.389,3.876 -32.248,3.876" style="fill:rgb(239,239,239);fill-rule:nonzero;"/>
                        </g>
                        <g transform="matrix(1,0,0,1,566.572,280.634)">
                            <path d="M0,8L-144,8L-144,4C-144,1.791 -142.209,0 -140,0L-4,0C-1.79,0 0,1.791 0,4L0,8Z" style="fill:white;fill-rule:nonzero;"/>
                        </g>
                        <g transform="matrix(-4.26326e-13,314.267,314.267,4.26326e-13,428.574,178.908)">
                            <ellipse cx="0.336" cy="0" rx="0.006" ry="0.006" style="fill:url(#_Linear4);"/>
                        </g>
                        <g transform="matrix(0,-1,-1,0,434.573,282.634)">
                            <path d="M-2,-2C-3.104,-2 -4,-1.104 -4,0C-4,1.104 -3.104,2 -2,2C-0.896,2 0,1.104 0,0C0,-1.104 -0.896,-2 -2,-2" style="fill:rgb(255,205,72);fill-rule:nonzero;"/>
                        </g>
                        <g transform="matrix(0,-1,-1,0,439.573,282.634)">
                            <path d="M-2,-2C-3.104,-2 -4,-1.104 -4,0C-4,1.104 -3.104,2 -2,2C-0.896,2 0,1.104 0,0C0,-1.104 -0.896,-2 -2,-2" style="fill:rgb(0,226,184);fill-rule:nonzero;"/>
                        </g>
                        <g transform="matrix(1,0,0,1,390,380.102)">
                            <path d="M0,0L217.735,0" style="fill:none;fill-rule:nonzero;stroke:rgb(60,46,91);stroke-width:1px;"/>
                        </g>
                        <g transform="matrix(1,0,0,1,380.742,380.102)">
                            <path d="M0,0L7.258,0" style="fill:none;fill-rule:nonzero;stroke:rgb(60,46,91);stroke-width:1px;"/>
                        </g>
                        <g transform="matrix(2.20587,-68.3823,-68.3823,-2.20587,492.673,357.163)">
                            <path d="M0.812,0.452C0.804,0.694 0.602,0.884 0.36,0.876L-0.079,0.862L-0.022,-0.891L0.416,-0.877C0.658,-0.869 0.848,-0.667 0.84,-0.425L0.812,0.452Z" style="fill:url(#_Linear5);fill-rule:nonzero;"/>
                        </g>
                        <g transform="matrix(32.7903,-27.9325,-27.9325,-32.7903,472.805,308.412)">
                            <path d="M0.548,0.437L0.217,0.049L0.262,-0.437L0.747,-0.403L1.079,-0.014L0.548,0.437Z" style="fill:url(#_Linear6);fill-rule:nonzero;"/>
                        </g>
                        <g transform="matrix(1,0,0,1,478.602,295.191)">
                            <path d="M0,-16.44L0,-10.848C0,-5.44 8.927,0 15,0C21.073,0 30,-4.504 30,-10.848L30,-16.44L0,-16.44Z" style="fill:rgb(247,170,146);fill-rule:nonzero;"/>
                        </g>
                        <g transform="matrix(-0.00885743,0.999961,0.999961,0.00885743,512.908,256.648)">
                            <path d="M7,-7.062C10.865,-7.062 13.999,-3.929 14,-0.062C14,3.804 10.866,6.938 7,6.938C3.133,6.938 0,3.805 0,-0.061C-0.001,-3.928 3.133,-7.062 7,-7.062" style="fill:rgb(247,170,146);fill-rule:nonzero;"/>
                        </g>
                        <g transform="matrix(-0.0088568,-0.999961,-0.999961,0.0088568,474.236,256.648)">
                            <path d="M-7,-7.062C-10.865,-7.062 -14,-3.928 -14,-0.063C-14,3.804 -10.866,6.938 -7,6.938C-3.134,6.938 0,3.804 -0.001,-0.062C0,-3.928 -3.134,-7.063 -7,-7.062" style="fill:rgb(247,170,146);fill-rule:nonzero;"/>
                        </g>
                        <g transform="matrix(17.7455,51.189,51.189,-17.7455,486.132,237.294)">
                            <path d="M0.136,-0.277L0.471,-0.393C0.656,-0.457 0.858,-0.359 0.922,-0.174C0.986,0.011 0.888,0.213 0.703,0.277L0.368,0.393C0.183,0.457 -0.019,0.359 -0.083,0.174C-0.148,-0.011 -0.05,-0.213 0.136,-0.277Z" style="fill:url(#_Linear7);fill-rule:nonzero;"/>
                        </g>
                        <g transform="matrix(1,0,0,1,494.853,254.331)">
                            <path d="M0,4.504L0,7.067C0,7.774 -0.573,8.347 -1.28,8.347C-1.987,8.347 -2.562,7.774 -2.562,7.067L-2.562,0.512C-2.562,-1.088 -3.02,-2.581 -3.812,-3.843" style="fill:none;fill-rule:nonzero;stroke:rgb(247,170,146);stroke-width:1px;"/>
                        </g>
                        <g transform="matrix(-0.999584,-0.0288405,-0.0288405,0.999584,499.032,243.613)">
                            <path d="M-9.121,5.222C-9.121,5.222 -5.252,-0.022 -0.072,5.222" style="fill:none;fill-rule:nonzero;stroke:rgb(60,46,91);stroke-width:2px;stroke-linecap:round;stroke-linejoin:round;"/>
                        </g>
                        <g transform="matrix(1,0,0,1,504.477,253.348)">
                            <path d="M0,3L-2,3L-2,1C-2,0.448 -1.553,0 -1,0C-0.448,0 0,0.448 0,1L0,3Z" style="fill:rgb(57,62,79);fill-rule:nonzero;"/>
                        </g>
                        <g transform="matrix(0.999584,-0.0288437,-0.0288437,-0.999584,479.225,249.226)">
                            <path d="M-0.075,0.132C-0.075,0.132 3.793,5.376 8.973,0.132" style="fill:none;fill-rule:nonzero;stroke:rgb(60,46,91);stroke-width:2px;stroke-linecap:round;stroke-linejoin:round;"/>
                        </g>
                        <g transform="matrix(1,0,0,1,482.668,253.348)">
                            <path d="M0,3L2,3L2,1C2,0.448 1.552,0 1,0C0.447,0 0,0.448 0,1L0,3Z" style="fill:rgb(57,62,79);fill-rule:nonzero;"/>
                        </g>
                        <g transform="matrix(1,0,0,1,493.602,267.572)">
                            <path d="M0,10C-2.209,10 -4,8.21 -4,6L-4,0L4,0L4,6C4,8.21 2.209,10 0,10" style="fill:white;fill-rule:nonzero;"/>
                        </g>
                        <g transform="matrix(-20.0339,66.6245,66.6245,20.0339,503.339,210.608)">
                            <path d="M0.374,-0.198C0.374,-0.198 0.298,-0.321 0.353,-0.305C0.433,-0.281 0.398,-0.19 0.398,-0.19C0.398,-0.19 0.496,-0.155 0.476,-0.041C0.464,0.029 0.432,-0.006 0.41,-0.043C0.435,0.014 0.465,0.117 0.432,0.229C0.432,0.229 0.563,0.26 0.594,0.321L0.357,0.332C0.307,0.334 0.258,0.313 0.227,0.274C0.17,0.201 0.165,0.109 0.19,0.024C0.22,-0.076 0.293,-0.165 0.374,-0.198Z" style="fill:url(#_Linear8);fill-rule:nonzero;"/>
                        </g>
                        <g transform="matrix(-20.0339,66.6244,66.6244,20.0339,487.546,205.859)">
                            <path d="M0.533,-0.039L0.754,0.028C0.737,0.083 0.587,0.014 0.587,0.014C0.562,0.096 0.434,0.068 0.434,0.068L0.398,0.047C0.4,0.038 0.402,0.031 0.404,0.024C0.436,-0.084 0.533,-0.039 0.533,-0.039Z" style="fill:url(#_Linear9);fill-rule:nonzero;"/>
                        </g>
                        <g transform="matrix(54.6896,-24.3086,-24.3086,-54.6896,461.948,320.82)">
                            <path d="M0.221,-0.058L0.437,-0.058L0.52,-0.133L0.39,0.194L0.221,-0.058Z" style="fill:url(#_Linear10);fill-rule:nonzero;"/>
                        </g>
                        <g transform="matrix(56.8843,-18.602,-18.602,-56.8843,482.416,315.914)">
                            <path d="M0.18,-0.051L0.291,-0.051L0.452,-0.196L0.495,0.105L0.18,-0.051Z" style="fill:url(#_Linear11);fill-rule:nonzero;"/>
                        </g>
                        <g transform="matrix(25.0205,0,0,-25.0205,530.786,271.034)">
                            <path d="M0.036,0.151C0.007,0.091 -0.005,0.024 0.002,-0.042C0.025,-0.278 0.235,-0.45 0.471,-0.426C0.498,-0.393 0.547,-0.388 0.58,-0.416L0.589,-0.423C0.84,-0.398 1.023,-0.174 0.998,0.077L0.986,0.19L0.189,0.471L0.036,0.151Z" style="fill:url(#_Linear12);fill-rule:nonzero;"/>
                        </g>
                        <g transform="matrix(6.98789,0,0,-6.98789,533.834,252.664)">
                            <path d="M0.207,1.716C0.081,1.703 -0.011,1.591 0.001,1.465L0.318,-1.717L1,-1.649L0.749,0.865C0.721,1.156 0.597,1.43 0.397,1.644C0.353,1.691 0.293,1.717 0.229,1.717C0.222,1.717 0.214,1.716 0.207,1.716Z" style="fill:url(#_Linear13);fill-rule:nonzero;"/>
                        </g>
                        <g transform="matrix(1,0,0,1,552.794,265.631)">
                            <path d="M0,-2.035C-1.315,-1.904 -2.488,-2.864 -2.62,-4.18L-2.62,-4.181L-2.857,-6.562C-2.727,-5.247 -3.687,-4.074 -5.003,-3.943C-6.318,-3.812 -7.491,-4.772 -7.622,-6.088L-7.622,-6.089L-7.859,-8.471C-7.729,-7.155 -8.689,-5.982 -10.005,-5.851C-11.32,-5.721 -12.494,-6.681 -12.625,-7.996L-11.794,0.343C-11.663,1.659 -10.49,2.619 -9.175,2.488C-7.858,2.358 -6.792,2.251 -6.792,2.251C-6.661,3.568 -5.487,4.527 -4.172,4.397C-2.856,4.266 -1.789,4.159 -1.789,4.159C-1.658,5.476 -0.485,6.436 0.831,6.305C2.146,6.174 3.107,5.001 2.977,3.685L2.146,-4.654C2.276,-3.339 1.315,-2.166 0,-2.035" style="fill:rgb(247,170,146);fill-rule:nonzero;"/>
                        </g>
                        <g transform="matrix(5.50115,0,0,-5.50115,540.098,260.495)">
                            <path d="M0.392,1.104C0.153,1.081 -0.022,0.867 0.002,0.628L0.132,-0.671C0.155,-0.91 0.369,-1.085 0.608,-1.061C0.847,-1.037 1.022,-0.824 0.998,-0.585L0.868,0.715C0.846,0.939 0.657,1.107 0.436,1.107C0.421,1.107 0.407,1.106 0.392,1.104Z" style="fill:url(#_Linear14);fill-rule:nonzero;"/>
                        </g>
                        <g transform="matrix(10.503,0,0,-10.503,532.553,265.102)">
                            <path d="M0.393,0.452L0.062,0.047C-0.034,-0.07 -0.017,-0.244 0.101,-0.34L0.309,-0.511C0.369,-0.56 0.457,-0.551 0.506,-0.491L0.923,0.018C1.042,0.164 1.021,0.38 0.875,0.499C0.811,0.552 0.734,0.577 0.658,0.577C0.559,0.577 0.461,0.534 0.393,0.452Z" style="fill:url(#_Linear15);fill-rule:nonzero;"/>
                        </g>
                        <g transform="matrix(0.633506,-0.773738,-0.773738,-0.633506,535.614,266.92)">
                            <path d="M2.102,3.328L5.754,3.328C7.738,3.328 9.346,1.72 9.346,-0.264C9.346,-2.248 7.738,-3.855 5.754,-3.857L0.621,-3.855" style="fill:none;fill-rule:nonzero;stroke:rgb(247,170,146);stroke-width:1px;"/>
                        </g>
                        <g transform="matrix(5.50114,0,0,-5.50114,545.1,262.403)">
                            <path d="M0.392,1.105C0.153,1.081 -0.021,0.868 0.002,0.628L0.132,-0.671C0.155,-0.91 0.369,-1.085 0.608,-1.061C0.847,-1.037 1.022,-0.824 0.998,-0.585L0.868,0.715C0.846,0.939 0.657,1.107 0.436,1.107C0.421,1.107 0.407,1.106 0.392,1.105Z" style="fill:url(#_Linear16);fill-rule:nonzero;"/>
                        </g>
                        <g transform="matrix(5.50124,0,0,-5.50124,550.103,264.311)">
                            <path d="M0.392,1.104C0.153,1.081 -0.022,0.867 0.002,0.628L0.132,-0.671C0.155,-0.91 0.369,-1.085 0.608,-1.061C0.847,-1.037 1.022,-0.824 0.998,-0.585L0.868,0.714C0.846,0.939 0.657,1.107 0.436,1.107C0.421,1.107 0.407,1.106 0.392,1.104Z" style="fill:url(#_Linear17);fill-rule:nonzero;"/>
                        </g>
                        <g transform="matrix(1,0,0,1,541.067,276.105)">
                            <path d="M0,-9.759L-2.345,-6.897C-2.345,-6.897 2.764,-5.858 3.348,0" style="fill:none;fill-rule:nonzero;stroke:rgb(247,170,146);stroke-width:1px;"/>
                        </g>
                        <g transform="matrix(1,0,0,1,531.59,360.277)">
                            <path d="M0,-35.56C0,-35.56 -4.617,-35.917 -4.617,-27.752L-4.617,0.357" style="fill:none;fill-rule:nonzero;stroke:rgb(60,46,91);stroke-width:1px;stroke-linecap:round;stroke-linejoin:round;"/>
                        </g>
                        <g transform="matrix(21.9132,0,0,-21.9132,531.59,304.992)">
                            <path d="M0,-0.9C-0.002,-1.173 0.219,-1.396 0.492,-1.396L0.507,-1.396C0.779,-1.397 1,-1.176 1,-0.904L1,1.318L0.017,1.397L0,-0.9Z" style="fill:url(#_Linear18);fill-rule:nonzero;"/>
                        </g>
                        <g transform="matrix(0.995615,0.0935435,0.0935435,-0.995615,533.027,337.562)">
                            <path d="M-0.398,-0.838C-0.398,-0.838 9.517,-9.277 17.166,-0.838" style="fill:none;fill-rule:nonzero;stroke:rgb(60,46,91);stroke-width:1px;stroke-linecap:round;stroke-linejoin:round;"/>
                        </g>
                        <g transform="matrix(1,0,0,1,460.172,343.039)">
                            <path d="M0,17.595L0,8.414C0,8.414 -6.968,8.35 -11.755,0" style="fill:none;fill-rule:nonzero;stroke:rgb(60,46,91);stroke-width:1px;stroke-linecap:round;stroke-linejoin:round;"/>
                        </g>
                    </g>
                    <g transform="matrix(1,0,0,1,0,-40)">
                        <g transform="matrix(209.401,-239.537,-239.537,-209.401,269.176,314.35)">
                            <path d="M0.588,0.003L0.559,0.035C0.558,0.036 0.556,0.037 0.555,0.036L0.516,0.001C0.515,0 0.515,-0.001 0.516,-0.003L0.545,-0.035C0.546,-0.036 0.548,-0.037 0.549,-0.036L0.588,-0.001C0.589,0 0.589,0.001 0.588,0.003C0.588,0.003 0.588,0.003 0.588,0.003Z" style="fill:url(#_Linear19);fill-rule:nonzero;"/>
                        </g>
                        <g transform="matrix(-1,0.000995558,0.000995558,1,378.235,174.29)">
                            <rect x="-13.064" y="-0.007" width="13.057" height="13.058" style="fill:rgb(255,247,237);"/>
                        </g>
                        <g transform="matrix(189.31,-216.355,-216.355,-189.31,293.427,289.14)">
                            <path d="M0.488,0.016L0.467,0.011L0.491,-0.017L0.495,-0.004C0.495,-0.003 0.494,-0.001 0.493,-0.001L0.488,-0.002C0.486,-0.002 0.485,-0.001 0.486,0L0.491,0.014C0.491,0.015 0.491,0.015 0.49,0.016C0.49,0.016 0.489,0.016 0.488,0.016Z" style="fill:url(#_Linear20);fill-rule:nonzero;"/>
                        </g>
                        <g transform="matrix(189.311,-216.355,-216.355,-189.311,291.704,287.633)">
                            <path d="M0.514,0.004C0.512,0.007 0.507,0.008 0.504,0.005C0.502,0.003 0.501,-0.002 0.504,-0.004C0.506,-0.007 0.511,-0.008 0.513,-0.005C0.516,-0.003 0.516,0.002 0.514,0.004C0.514,0.004 0.514,0.004 0.514,0.004Z" style="fill:url(#_Linear21);fill-rule:nonzero;"/>
                        </g>
                        <g transform="matrix(209.401,-239.537,-239.537,-209.401,322.703,361.143)">
                            <path d="M0.844,0.017L0.842,0.018L0.806,-0.013L0.807,-0.015C0.807,-0.017 0.809,-0.017 0.81,-0.016L0.845,0.014C0.846,0.015 0.846,0.016 0.845,0.017C0.845,0.017 0.845,0.017 0.844,0.017Z" style="fill:url(#_Linear22);fill-rule:nonzero;"/>
                        </g>
                        <g transform="matrix(-1.9684,287.48,287.48,1.9684,493.649,-62.9557)">
                            <path d="M0.776,-0.024L0.797,-0.024L0.813,0.009L0.761,0.009L0.776,-0.024Z" style="fill:url(#_Linear23);fill-rule:nonzero;"/>
                        </g>
                        <g transform="matrix(209.401,-239.536,-239.536,-209.401,314.659,354.111)">
                            <path d="M0.794,0.013L0.785,0.005C0.784,0.004 0.783,0.001 0.785,0L0.785,0L0.793,-0.01L0.796,-0.013L0.797,-0.015L0.812,-0.002L0.799,0.012C0.799,0.012 0.799,0.012 0.799,0.012C0.798,0.014 0.796,0.014 0.794,0.013Z" style="fill:url(#_Linear24);fill-rule:nonzero;"/>
                        </g>
                        <g transform="matrix(189.311,-216.356,-216.356,-189.311,341.118,330.87)">
                            <path d="M0.736,-0.004C0.735,-0.006 0.735,-0.008 0.736,-0.009L0.739,-0.013C0.741,-0.015 0.744,-0.015 0.746,-0.013L0.756,0.005L0.747,0.016L0.736,-0.004Z" style="fill:url(#_Linear25);fill-rule:nonzero;"/>
                        </g>
                        <g transform="matrix(189.311,-216.355,-216.355,-189.311,335.103,325.606)">
                            <path d="M0.75,0.004L0.748,0.001C0.746,-0.001 0.745,-0.004 0.747,-0.006L0.758,0.003C0.758,0.003 0.758,0.003 0.758,0.003C0.756,0.005 0.752,0.005 0.75,0.004Z" style="fill:url(#_Linear26);fill-rule:nonzero;"/>
                        </g>
                        <g transform="matrix(189.311,-216.356,-216.356,-189.311,424.558,403.88)">
                            <path d="M0.864,0.001C0.863,0.001 0.862,0.002 0.863,0.002C0.868,0.014 0.86,0.03 0.848,0.023C0.833,0.015 0.835,-0.017 0.836,-0.022C0.836,-0.022 0.836,-0.022 0.836,-0.022C0.841,-0.023 0.873,-0.03 0.882,-0.016C0.886,-0.011 0.885,-0.007 0.882,-0.003C0.878,0.001 0.87,0.004 0.864,0.001Z" style="fill:url(#_Linear27);fill-rule:nonzero;"/>
                        </g>
                        <g transform="matrix(1,0,0,1,438.857,195.996)">
                            <path d="M0,8.548L-7.707,4.206L0,0" style="fill:none;fill-rule:nonzero;stroke:rgb(8,108,255);stroke-width:1px;"/>
                        </g>
                        <g transform="matrix(-4.43379e-12,318.161,318.161,4.43379e-12,438.858,-4.78932)">
                            <circle cx="0.631" cy="0" r="0.007" style="fill:url(#_Linear28);"/>
                        </g>
                        <g transform="matrix(-2.52953e-12,318.161,318.161,2.52953e-12,438.858,10.194)">
                            <circle cx="0.611" cy="0" r="0.007" style="fill:url(#_Linear29);"/>
                        </g>
                        <g transform="matrix(2.01794e-12,318.161,318.161,-2.01794e-12,431.151,7.65585)">
                            <ellipse cx="0.605" cy="0" rx="0.007" ry="0.007" style="fill:url(#_Linear30);"/>
                        </g>
                        <g transform="matrix(189.311,-216.355,-216.355,-189.311,360.371,347.716)">
                            <path d="M0.609,0.008C0.608,0.008 0.608,0.008 0.607,0.008L0.599,0.001C0.599,0 0.599,0 0.599,-0.001L0.605,-0.008C0.605,-0.008 0.606,-0.008 0.607,-0.008L0.615,-0.001C0.615,0 0.615,0 0.615,0.001L0.609,0.008Z" style="fill:url(#_Linear31);fill-rule:nonzero;"/>
                        </g>
                        <g transform="matrix(189.311,-216.355,-216.355,-189.311,356.85,344.635)">
                            <path d="M0.603,0.01C0.603,0.011 0.602,0.011 0.602,0.011L0.587,-0.002C0.587,-0.002 0.587,-0.003 0.587,-0.004L0.593,-0.01C0.594,-0.011 0.594,-0.011 0.595,-0.011L0.609,0.002C0.61,0.002 0.61,0.003 0.609,0.004L0.603,0.01Z" style="fill:url(#_Linear32);fill-rule:nonzero;"/>
                        </g>
                        <g transform="matrix(189.311,-216.356,-216.356,-189.311,353.327,341.553)">
                            <path d="M0.598,0.013C0.597,0.014 0.597,0.014 0.596,0.013L0.576,-0.005C0.575,-0.005 0.575,-0.006 0.575,-0.006L0.581,-0.013C0.582,-0.014 0.582,-0.014 0.583,-0.013L0.604,0.005C0.604,0.005 0.604,0.006 0.604,0.006L0.598,0.013Z" style="fill:url(#_Linear33);fill-rule:nonzero;"/>
                        </g>
                        <g transform="matrix(189.31,-216.355,-216.355,-189.31,343.905,333.308)">
                            <path d="M0.397,0.027C0.394,0.03 0.388,0.031 0.385,0.028L0.369,0.014C0.365,0.011 0.365,0.005 0.368,0.001L0.393,-0.027C0.396,-0.03 0.402,-0.031 0.405,-0.028L0.421,-0.014C0.425,-0.011 0.425,-0.005 0.422,-0.001L0.397,0.027Z" style="fill:url(#_Linear34);fill-rule:nonzero;"/>
                        </g>
                        <g transform="matrix(1,0,0,1,421.99,247.617)">
                            <path d="M0,0.474L-4.948,2.948C-5.124,3.036 -5.331,2.908 -5.331,2.711L-5.331,-2.237C-5.331,-2.434 -5.124,-2.562 -4.948,-2.474L0,0C0.195,0.098 0.195,0.376 0,0.474" style="fill:white;fill-rule:nonzero;"/>
                        </g>
                        <g transform="matrix(209.401,-239.537,-239.537,-209.401,358.149,392.129)">
                            <path d="M0.901,0.023C0.899,0.024 0.898,0.024 0.896,0.023L0.879,0.008C0.878,0.007 0.878,0.005 0.879,0.004L0.902,-0.023C0.903,-0.024 0.905,-0.024 0.906,-0.023L0.923,-0.008C0.925,-0.007 0.925,-0.005 0.924,-0.004L0.901,0.023Z" style="fill:url(#_Linear35);fill-rule:nonzero;"/>
                        </g>
                        <g transform="matrix(1,0,0,1,542.292,177.323)">
                            <path d="M0,-3.948L4.572,0L9.144,-3.948" style="fill:none;fill-rule:nonzero;stroke:rgb(255,247,237);stroke-width:1px;"/>
                        </g>
                        <g transform="matrix(1.98952e-13,287.486,287.486,-1.98952e-13,539.397,-19.74)">
                            <circle cx="0.783" cy="0" r="0.033" style="fill:url(#_Linear36);"/>
                        </g>
                        <g transform="matrix(0,1,1,0,539.397,199.864)">
                            <path d="M5.452,-5.452C8.463,-5.452 10.904,-3.011 10.904,0C10.904,3.011 8.463,5.452 5.452,5.452C2.441,5.452 0,3.011 0,0C0,-3.011 2.441,-5.452 5.452,-5.452" style="fill:rgb(255,247,237);fill-rule:nonzero;"/>
                        </g>
                        <g transform="matrix(-4.12115e-12,287.486,287.486,4.12115e-12,539.397,-19.7398)">
                            <ellipse cx="0.783" cy="0" rx="0.007" ry="0.007" style="fill:url(#_Linear37);"/>
                        </g>
                        <g transform="matrix(-0.707107,-0.707107,-0.707107,0.707107,534.945,194.568)">
                            <path d="M-10.748,4.452L1.844,4.452" style="fill:none;fill-rule:nonzero;stroke:rgb(8,108,255);stroke-width:1px;"/>
                        </g>
                        <g transform="matrix(209.401,-239.536,-239.536,-209.401,359.029,392.899)">
                            <path d="M0.826,0.007L0.82,0.001C0.82,0.001 0.82,0.001 0.819,0.001L0.814,0.008C0.814,0.008 0.814,0.008 0.814,0.008L0.813,0C0.813,0 0.813,0 0.813,-0.001L0.819,-0.008C0.819,-0.008 0.819,-0.008 0.819,-0.008L0.826,-0.001L0.827,0.007C0.827,0.007 0.827,0.007 0.827,0.007C0.827,0.007 0.826,0.007 0.826,0.007Z" style="fill:url(#_Linear38);fill-rule:nonzero;"/>
                        </g>
                        <g transform="matrix(209.4,-239.536,-239.536,-209.4,415.78,442.51)">
                            <path d="M0.787,0.018C0.785,0.021 0.781,0.021 0.778,0.019L0.767,0.01L0.757,0C0.755,-0.001 0.756,-0.004 0.758,-0.004L0.768,-0.002C0.769,-0.002 0.77,-0.003 0.77,-0.003L0.784,-0.018C0.786,-0.021 0.79,-0.021 0.792,-0.019L0.803,-0.01C0.806,-0.007 0.806,-0.003 0.804,-0.001L0.787,0.018Z" style="fill:url(#_Linear39);fill-rule:nonzero;"/>
                        </g>
                        <g transform="matrix(1,0,0,1,577.082,253.083)">
                            <path d="M0,0L6.242,0" style="fill:none;fill-rule:nonzero;stroke:rgb(255,247,237);stroke-width:0.5px;"/>
                        </g>
                        <g transform="matrix(1,0,0,1,577.082,254.424)">
                            <path d="M0,0L6.242,0" style="fill:none;fill-rule:nonzero;stroke:rgb(255,247,237);stroke-width:0.5px;"/>
                        </g>
                        <g transform="matrix(1,0,0,1,577.082,255.765)">
                            <path d="M0,0L6.242,0" style="fill:none;fill-rule:nonzero;stroke:rgb(255,247,237);stroke-width:0.5px;"/>
                        </g>
                        <g transform="matrix(189.31,-216.355,-216.355,-189.31,448.11,424.487)">
                            <path d="M0.754,0.025C0.751,0.028 0.747,0.028 0.744,0.026L0.732,0.015C0.729,0.013 0.729,0.009 0.731,0.006L0.746,-0.011C0.747,-0.012 0.747,-0.013 0.747,-0.014L0.744,-0.024C0.743,-0.026 0.746,-0.028 0.748,-0.027L0.772,-0.006C0.774,-0.003 0.775,0.001 0.772,0.004L0.754,0.025Z" style="fill:url(#_Linear40);fill-rule:nonzero;"/>
                        </g>
                        <g transform="matrix(-1,0,0,1,586.245,259.577)">
                            <path d="M-6.242,0L0,0" style="fill:none;fill-rule:nonzero;stroke:rgb(255,247,237);stroke-width:0.5px;"/>
                        </g>
                        <g transform="matrix(-1,0,0,1,586.245,260.918)">
                            <path d="M-6.242,0L0,0" style="fill:none;fill-rule:nonzero;stroke:rgb(255,247,237);stroke-width:0.5px;"/>
                        </g>
                        <g transform="matrix(-1,0,0,1,586.245,262.26)">
                            <path d="M-6.242,0L0,0" style="fill:none;fill-rule:nonzero;stroke:rgb(255,247,237);stroke-width:0.5px;"/>
                        </g>
                    </g>
                </g>
            </g>
        </g>
        <g id="DESIGNED-BY-FREEPIK" serif:id="DESIGNED BY FREEPIK">
        </g>
    </g>
    <defs>
        <linearGradient id="_Linear2" x1="0" y1="0" x2="1" y2="0" gradientUnits="userSpaceOnUse" gradientTransform="matrix(1,1.38778e-17,1.38778e-17,-1,0,0.00083786)"><stop offset="0" style="stop-color:rgb(53,103,198);stop-opacity:1"/><stop offset="1" style="stop-color:rgb(60,46,91);stop-opacity:1"/></linearGradient>
        <linearGradient id="_Linear3" x1="0" y1="0" x2="1" y2="0" gradientUnits="userSpaceOnUse" gradientTransform="matrix(0.494989,0.868899,0.868899,-0.494989,0.264789,-0.455584)"><stop offset="0" style="stop-color:rgb(53,103,198);stop-opacity:1"/><stop offset="0.62" style="stop-color:rgb(255,180,209);stop-opacity:1"/><stop offset="1" style="stop-color:rgb(255,163,64);stop-opacity:1"/></linearGradient>
        <linearGradient id="_Linear4" x1="0" y1="0" x2="1" y2="0" gradientUnits="userSpaceOnUse" gradientTransform="matrix(-0.752577,0.658504,0.658504,0.752577,0.589599,-0.221533)"><stop offset="0" style="stop-color:rgb(53,103,198);stop-opacity:1"/><stop offset="0.62" style="stop-color:rgb(255,180,209);stop-opacity:1"/><stop offset="1" style="stop-color:rgb(255,163,64);stop-opacity:1"/></linearGradient>
        <linearGradient id="_Linear5" x1="0" y1="0" x2="1" y2="0" gradientUnits="userSpaceOnUse" gradientTransform="matrix(1,-6.93889e-18,-6.93889e-18,-1,0,-0.00757779)"><stop offset="0" style="stop-color:rgb(255,98,64);stop-opacity:1"/><stop offset="1" style="stop-color:rgb(255,163,64);stop-opacity:1"/></linearGradient>
        <linearGradient id="_Linear6" x1="0" y1="0" x2="1" y2="0" gradientUnits="userSpaceOnUse" gradientTransform="matrix(1,0,0,-1,0,-2.58925e-05)"><stop offset="0" style="stop-color:rgb(247,170,146);stop-opacity:1"/><stop offset="1" style="stop-color:rgb(251,196,178);stop-opacity:1"/></linearGradient>
        <linearGradient id="_Linear7" x1="0" y1="0" x2="1" y2="0" gradientUnits="userSpaceOnUse" gradientTransform="matrix(1,5.55112e-17,5.55112e-17,-1,0,2.54873e-05)"><stop offset="0" style="stop-color:rgb(247,170,146);stop-opacity:1"/><stop offset="1" style="stop-color:rgb(251,196,178);stop-opacity:1"/></linearGradient>
        <linearGradient id="_Linear8" x1="0" y1="0" x2="1" y2="0" gradientUnits="userSpaceOnUse" gradientTransform="matrix(1,0,0,-1,0,0.0127206)"><stop offset="0" style="stop-color:rgb(53,103,198);stop-opacity:1"/><stop offset="1" style="stop-color:rgb(60,46,91);stop-opacity:1"/></linearGradient>
        <linearGradient id="_Linear9" x1="0" y1="0" x2="1" y2="0" gradientUnits="userSpaceOnUse" gradientTransform="matrix(1,0,0,-1,0,0.0123024)"><stop offset="0" style="stop-color:rgb(53,103,198);stop-opacity:1"/><stop offset="1" style="stop-color:rgb(60,46,91);stop-opacity:1"/></linearGradient>
        <linearGradient id="_Linear10" x1="0" y1="0" x2="1" y2="0" gradientUnits="userSpaceOnUse" gradientTransform="matrix(-0.494015,-0.869454,-0.869454,0.494015,0.634383,0.369184)"><stop offset="0" style="stop-color:rgb(53,103,198);stop-opacity:1"/><stop offset="1" style="stop-color:rgb(60,46,91);stop-opacity:1"/></linearGradient>
        <linearGradient id="_Linear11" x1="0" y1="0" x2="1" y2="0" gradientUnits="userSpaceOnUse" gradientTransform="matrix(-0.40273,-0.915319,-0.915319,0.40273,0.51919,0.338785)"><stop offset="0" style="stop-color:rgb(53,103,198);stop-opacity:1"/><stop offset="1" style="stop-color:rgb(60,46,91);stop-opacity:1"/></linearGradient>
        <linearGradient id="_Linear12" x1="0" y1="0" x2="1" y2="0" gradientUnits="userSpaceOnUse" gradientTransform="matrix(1,0,0,-1,0,0.0213267)"><stop offset="0" style="stop-color:rgb(247,170,146);stop-opacity:1"/><stop offset="1" style="stop-color:rgb(251,196,178);stop-opacity:1"/></linearGradient>
        <linearGradient id="_Linear13" x1="0" y1="0" x2="1" y2="0" gradientUnits="userSpaceOnUse" gradientTransform="matrix(1,0,0,-1,0,-2.32688e-05)"><stop offset="0" style="stop-color:rgb(247,170,146);stop-opacity:1"/><stop offset="1" style="stop-color:rgb(251,196,178);stop-opacity:1"/></linearGradient>
        <linearGradient id="_Linear14" x1="0" y1="0" x2="1" y2="0" gradientUnits="userSpaceOnUse" gradientTransform="matrix(1,0,0,-1,0,0.0216694)"><stop offset="0" style="stop-color:rgb(247,170,146);stop-opacity:1"/><stop offset="1" style="stop-color:rgb(251,196,178);stop-opacity:1"/></linearGradient>
        <linearGradient id="_Linear15" x1="0" y1="0" x2="1" y2="0" gradientUnits="userSpaceOnUse" gradientTransform="matrix(1,0,0,-1,0,0.0173636)"><stop offset="0" style="stop-color:rgb(247,170,146);stop-opacity:1"/><stop offset="1" style="stop-color:rgb(251,196,178);stop-opacity:1"/></linearGradient>
        <linearGradient id="_Linear16" x1="0" y1="0" x2="1" y2="0" gradientUnits="userSpaceOnUse" gradientTransform="matrix(1,0,0,-1,0,0.0217662)"><stop offset="0" style="stop-color:rgb(247,170,146);stop-opacity:1"/><stop offset="1" style="stop-color:rgb(251,196,178);stop-opacity:1"/></linearGradient>
        <linearGradient id="_Linear17" x1="0" y1="0" x2="1" y2="0" gradientUnits="userSpaceOnUse" gradientTransform="matrix(1,0,0,-1,0,0.0217087)"><stop offset="0" style="stop-color:rgb(247,170,146);stop-opacity:1"/><stop offset="1" style="stop-color:rgb(251,196,178);stop-opacity:1"/></linearGradient>
        <linearGradient id="_Linear18" x1="0" y1="0" x2="1" y2="0" gradientUnits="userSpaceOnUse" gradientTransform="matrix(1,0,0,-1,0,0.00036149)"><stop offset="0" style="stop-color:rgb(247,170,146);stop-opacity:1"/><stop offset="1" style="stop-color:rgb(251,196,178);stop-opacity:1"/></linearGradient>
        <linearGradient id="_Linear19" x1="0" y1="0" x2="1" y2="0" gradientUnits="userSpaceOnUse" gradientTransform="matrix(1,0,0,-1,0,1.27785e-06)"><stop offset="0" style="stop-color:rgb(67,40,173);stop-opacity:1"/><stop offset="1" style="stop-color:rgb(107,188,240);stop-opacity:1"/></linearGradient>
        <linearGradient id="_Linear20" x1="0" y1="0" x2="1" y2="0" gradientUnits="userSpaceOnUse" gradientTransform="matrix(1,0,0,-1,0,-0.000128847)"><stop offset="0" style="stop-color:rgb(53,103,198);stop-opacity:1"/><stop offset="0.62" style="stop-color:rgb(255,180,209);stop-opacity:1"/><stop offset="1" style="stop-color:rgb(255,163,64);stop-opacity:1"/></linearGradient>
        <linearGradient id="_Linear21" x1="0" y1="0" x2="1" y2="0" gradientUnits="userSpaceOnUse" gradientTransform="matrix(1,0,0,-1,0,-5.72619e-08)"><stop offset="0" style="stop-color:rgb(53,103,198);stop-opacity:1"/><stop offset="0.62" style="stop-color:rgb(255,180,209);stop-opacity:1"/><stop offset="1" style="stop-color:rgb(255,163,64);stop-opacity:1"/></linearGradient>
        <linearGradient id="_Linear22" x1="0" y1="0" x2="1" y2="0" gradientUnits="userSpaceOnUse" gradientTransform="matrix(1,0,0,-1,0,0.000484231)"><stop offset="0" style="stop-color:rgb(67,40,173);stop-opacity:1"/><stop offset="1" style="stop-color:rgb(107,188,240);stop-opacity:1"/></linearGradient>
        <linearGradient id="_Linear23" x1="0" y1="0" x2="1" y2="0" gradientUnits="userSpaceOnUse" gradientTransform="matrix(-0.757068,0.653336,0.653336,0.757068,1.38033,-0.513253)"><stop offset="0" style="stop-color:rgb(53,103,198);stop-opacity:1"/><stop offset="0.62" style="stop-color:rgb(255,180,209);stop-opacity:1"/><stop offset="1" style="stop-color:rgb(255,163,64);stop-opacity:1"/></linearGradient>
        <linearGradient id="_Linear24" x1="0" y1="0" x2="1" y2="0" gradientUnits="userSpaceOnUse" gradientTransform="matrix(1,5.55112e-17,5.55112e-17,-1,0,-0.000430678)"><stop offset="0" style="stop-color:rgb(67,40,173);stop-opacity:1"/><stop offset="1" style="stop-color:rgb(107,188,240);stop-opacity:1"/></linearGradient>
        <linearGradient id="_Linear25" x1="0" y1="0" x2="1" y2="0" gradientUnits="userSpaceOnUse" gradientTransform="matrix(1,-5.55112e-17,-5.55112e-17,-1,0,0.000605487)"><stop offset="0" style="stop-color:rgb(53,103,198);stop-opacity:1"/><stop offset="0.62" style="stop-color:rgb(255,180,209);stop-opacity:1"/><stop offset="1" style="stop-color:rgb(255,163,64);stop-opacity:1"/></linearGradient>
        <linearGradient id="_Linear26" x1="0" y1="0" x2="1" y2="0" gradientUnits="userSpaceOnUse" gradientTransform="matrix(1,0,0,-1,0,-0.000605651)"><stop offset="0" style="stop-color:rgb(53,103,198);stop-opacity:1"/><stop offset="0.62" style="stop-color:rgb(255,180,209);stop-opacity:1"/><stop offset="1" style="stop-color:rgb(255,163,64);stop-opacity:1"/></linearGradient>
        <linearGradient id="_Linear27" x1="0" y1="0" x2="1" y2="0" gradientUnits="userSpaceOnUse" gradientTransform="matrix(1,0,0,-1,0,-1.22548e-05)"><stop offset="0" style="stop-color:rgb(53,103,198);stop-opacity:1"/><stop offset="0.62" style="stop-color:rgb(255,180,209);stop-opacity:1"/><stop offset="1" style="stop-color:rgb(255,163,64);stop-opacity:1"/></linearGradient>
        <linearGradient id="_Linear28" x1="0" y1="0" x2="1" y2="0" gradientUnits="userSpaceOnUse" gradientTransform="matrix(-0.752878,0.65816,0.65816,0.752878,1.1062,-0.41535)"><stop offset="0" style="stop-color:rgb(67,40,173);stop-opacity:1"/><stop offset="1" style="stop-color:rgb(107,188,240);stop-opacity:1"/></linearGradient>
        <linearGradient id="_Linear29" x1="0" y1="0" x2="1" y2="0" gradientUnits="userSpaceOnUse" gradientTransform="matrix(-0.752878,0.65816,0.65816,0.752878,1.07075,-0.402038)"><stop offset="0" style="stop-color:rgb(67,40,173);stop-opacity:1"/><stop offset="1" style="stop-color:rgb(107,188,240);stop-opacity:1"/></linearGradient>
        <linearGradient id="_Linear30" x1="0" y1="0" x2="1" y2="0" gradientUnits="userSpaceOnUse" gradientTransform="matrix(-0.752878,0.65816,0.65816,0.752878,1.06081,-0.398307)"><stop offset="0" style="stop-color:rgb(67,40,173);stop-opacity:1"/><stop offset="1" style="stop-color:rgb(107,188,240);stop-opacity:1"/></linearGradient>
        <linearGradient id="_Linear31" x1="0" y1="0" x2="1" y2="0" gradientUnits="userSpaceOnUse" gradientTransform="matrix(1,0,0,-1,0,-3.54605e-08)"><stop offset="0" style="stop-color:rgb(53,103,198);stop-opacity:1"/><stop offset="0.62" style="stop-color:rgb(255,180,209);stop-opacity:1"/><stop offset="1" style="stop-color:rgb(255,163,64);stop-opacity:1"/></linearGradient>
        <linearGradient id="_Linear32" x1="0" y1="0" x2="1" y2="0" gradientUnits="userSpaceOnUse" gradientTransform="matrix(1,5.55112e-17,5.55112e-17,-1,0,4.0567e-06)"><stop offset="0" style="stop-color:rgb(53,103,198);stop-opacity:1"/><stop offset="0.62" style="stop-color:rgb(255,180,209);stop-opacity:1"/><stop offset="1" style="stop-color:rgb(255,163,64);stop-opacity:1"/></linearGradient>
        <linearGradient id="_Linear33" x1="0" y1="0" x2="1" y2="0" gradientUnits="userSpaceOnUse" gradientTransform="matrix(1,0,0,-1,0,-1.84131e-06)"><stop offset="0" style="stop-color:rgb(53,103,198);stop-opacity:1"/><stop offset="0.62" style="stop-color:rgb(255,180,209);stop-opacity:1"/><stop offset="1" style="stop-color:rgb(255,163,64);stop-opacity:1"/></linearGradient>
        <linearGradient id="_Linear34" x1="0" y1="0" x2="1" y2="0" gradientUnits="userSpaceOnUse" gradientTransform="matrix(1,5.55112e-17,5.55112e-17,-1,0,2.32974e-06)"><stop offset="0" style="stop-color:rgb(53,103,198);stop-opacity:1"/><stop offset="0.62" style="stop-color:rgb(255,180,209);stop-opacity:1"/><stop offset="1" style="stop-color:rgb(255,163,64);stop-opacity:1"/></linearGradient>
        <linearGradient id="_Linear35" x1="0" y1="0" x2="1" y2="0" gradientUnits="userSpaceOnUse" gradientTransform="matrix(1,0,0,-1,0,3.86888e-06)"><stop offset="0" style="stop-color:rgb(67,40,173);stop-opacity:1"/><stop offset="1" style="stop-color:rgb(107,188,240);stop-opacity:1"/></linearGradient>
        <linearGradient id="_Linear36" x1="0" y1="0" x2="1" y2="0" gradientUnits="userSpaceOnUse" gradientTransform="matrix(-0.752577,0.658504,0.658504,0.752577,1.37199,-0.515504)"><stop offset="0" style="stop-color:rgb(53,103,198);stop-opacity:1"/><stop offset="0.62" style="stop-color:rgb(255,180,209);stop-opacity:1"/><stop offset="1" style="stop-color:rgb(255,163,64);stop-opacity:1"/></linearGradient>
        <linearGradient id="_Linear37" x1="0" y1="0" x2="1" y2="0" gradientUnits="userSpaceOnUse" gradientTransform="matrix(-0.752577,0.658504,0.658504,0.752577,1.37199,-0.515505)"><stop offset="0" style="stop-color:rgb(53,103,198);stop-opacity:1"/><stop offset="0.62" style="stop-color:rgb(255,180,209);stop-opacity:1"/><stop offset="1" style="stop-color:rgb(255,163,64);stop-opacity:1"/></linearGradient>
        <linearGradient id="_Linear38" x1="0" y1="0" x2="1" y2="0" gradientUnits="userSpaceOnUse" gradientTransform="matrix(1,5.55112e-17,5.55112e-17,-1,0,-6.67717e-05)"><stop offset="0" style="stop-color:rgb(67,40,173);stop-opacity:1"/><stop offset="1" style="stop-color:rgb(107,188,240);stop-opacity:1"/></linearGradient>
        <linearGradient id="_Linear39" x1="0" y1="0" x2="1" y2="0" gradientUnits="userSpaceOnUse" gradientTransform="matrix(1,5.55112e-17,5.55112e-17,-1,0,-8.45241e-07)"><stop offset="0" style="stop-color:rgb(67,40,173);stop-opacity:1"/><stop offset="1" style="stop-color:rgb(107,188,240);stop-opacity:1"/></linearGradient>
        <linearGradient id="_Linear40" x1="0" y1="0" x2="1" y2="0" gradientUnits="userSpaceOnUse" gradientTransform="matrix(1,0,0,-1,0,0.000201652)"><stop offset="0" style="stop-color:rgb(53,103,198);stop-opacity:1"/><stop offset="0.62" style="stop-color:rgb(255,180,209);stop-opacity:1"/><stop offset="1" style="stop-color:rgb(255,163,64);stop-opacity:1"/></linearGradient>
    </defs>
</svg>
