<?xml version="1.0" encoding="UTF-8" standalone="no"?>
<!DOCTYPE svg PUBLIC "-//W3C//DTD SVG 1.1//EN" "http://www.w3.org/Graphics/SVG/1.1/DTD/svg11.dtd">
<svg width="100%" height="100%" viewBox="0 0 1456 1456" version="1.1" xmlns="http://www.w3.org/2000/svg" xmlns:xlink="http://www.w3.org/1999/xlink" xml:space="preserve" xmlns:serif="http://www.serif.com/" style="fill-rule:evenodd;clip-rule:evenodd;stroke-linecap:round;stroke-linejoin:round;stroke-miterlimit:2;">
    <g transform="matrix(1,0,0,1,-17286,-9658)">
        <g transform="matrix(4.16667,0,0,4.16667,0,0)">
            <path d="M4388.05,2574.43C4388.05,2620.34 4350.83,2657.56 4304.92,2657.56C4259.01,2657.56 4221.79,2620.34 4221.79,2574.43C4221.79,2528.53 4259.01,2491.31 4304.92,2491.31C4350.83,2491.31 4388.05,2528.53 4388.05,2574.43Z" style="fill:rgb(251,240,188);fill-rule:nonzero;"/>
            <path d="M4478.17,2472.71C4478.17,2502.1 4454.34,2525.93 4424.95,2525.93C4395.55,2525.93 4371.72,2502.1 4371.72,2472.71C4371.72,2443.32 4395.55,2419.48 4424.95,2419.48C4454.34,2419.48 4478.17,2443.32 4478.17,2472.71Z" style="fill:rgb(175,220,202);fill-rule:nonzero;"/>
            <path d="M4345.92,2386.34C4345.92,2409.09 4327.48,2427.55 4304.71,2427.55C4281.94,2427.55 4263.5,2409.09 4263.5,2386.34C4263.5,2363.57 4281.94,2345.12 4304.71,2345.12C4327.48,2345.12 4345.92,2363.57 4345.92,2386.34Z" style="fill:rgb(241,173,171);fill-rule:nonzero;"/>
            <path d="M4327.2,2541.74C4327.2,2530.91 4316.38,2522.12 4303.02,2522.12L4283.62,2522.12C4270.32,2522.12 4259.48,2530.91 4259.48,2541.74L4259.48,2542.78C4259.48,2548.97 4265.35,2554.06 4273.13,2558.06L4312.76,2565.94" style="fill:none;stroke:rgb(78,123,159);stroke-width:14.54px;"/>
            <path d="M4259.47,2576.39L4259.47,2582.64C4259.47,2593.48 4270.32,2602.28 4283.62,2602.28L4303.03,2602.28C4316.37,2602.28 4327.17,2593.48 4327.17,2582.64L4327.17,2581.59C4327.17,2575.4 4320.91,2570.01 4313.1,2566.01L4274.22,2558.29" style="fill:none;stroke:rgb(78,123,159);stroke-width:14.54px;"/>
            <path d="M4294.81,2507.23L4294.81,2616.46" style="fill:none;stroke:rgb(78,123,159);stroke-width:14.54px;"/>
            <path d="M4384.99,2562.65C4384.99,2613.28 4343.95,2654.31 4293.33,2654.31C4242.72,2654.31 4201.68,2613.28 4201.68,2562.65C4201.68,2512.04 4242.72,2471.01 4293.33,2471.01C4343.95,2471.01 4384.99,2512.04 4384.99,2562.65Z" style="fill:none;stroke:rgb(78,123,159);stroke-width:14.54px;"/>
            <path d="M4440.22,2495.95C4435.6,2497.99 4430.44,2499.12 4425,2499.12C4405.27,2499.12 4389.24,2484.2 4389.24,2465.82C4389.24,2447.42 4405.27,2432.5 4425,2432.5C4430.55,2432.5 4435.81,2433.7 4440.53,2435.82" style="fill:none;stroke:rgb(78,123,159);stroke-width:14.54px;"/>
            <path d="M4376.84,2456.59L4433.8,2456.59" style="fill:none;stroke:rgb(78,123,159);stroke-width:14.54px;"/>
            <path d="M4376.84,2475.04L4433.8,2475.04" style="fill:none;stroke:rgb(78,123,159);stroke-width:14.54px;"/>
            <path d="M4483.09,2465.81C4483.09,2501.99 4453.76,2531.3 4417.59,2531.3C4381.42,2531.3 4352.09,2501.99 4352.09,2465.81C4352.09,2429.64 4381.42,2400.32 4417.59,2400.32C4453.76,2400.32 4483.09,2429.64 4483.09,2465.81Z" style="fill:none;stroke:rgb(78,123,159);stroke-width:14.54px;"/>
            <path d="M4278.88,2380.02L4313.12,2380.02" style="fill:none;stroke:rgb(78,123,159);stroke-width:14.54px;"/>
            <path d="M4311.59,2356.24C4311.59,2356.24 4285.62,2353.39 4286.38,2367.72C4286.38,2367.72 4286.36,2372.02 4294.6,2378.46C4301.52,2383.86 4286.38,2400.44 4286.38,2400.44L4315.74,2400.44" style="fill:none;stroke:rgb(78,123,159);stroke-width:14.54px;"/>
            <path d="M4345.26,2379.76C4345.26,2405.64 4324.27,2426.63 4298.4,2426.63C4272.51,2426.63 4251.53,2405.64 4251.53,2379.76C4251.53,2353.89 4272.51,2332.9 4298.4,2332.9C4324.27,2332.9 4345.26,2353.89 4345.26,2379.76Z" style="fill:none;stroke:rgb(78,123,159);stroke-width:14.54px;"/>
            <path d="M4183.85,2629.8C4171.06,2610.57 4163.6,2587.48 4163.6,2562.64C4163.6,2523.52 4182.12,2488.72 4210.87,2466.52C4220.45,2459.13 4231.18,2453.13 4242.72,2448.84" style="fill:none;stroke:rgb(78,123,159);stroke-width:14.54px;"/>
            <path d="M4358.38,2332.9C4358.38,2332.9 4372.38,2346.03 4371.7,2364.99" style="fill:none;stroke:rgb(78,123,159);stroke-width:14.54px;"/>
        </g>
    </g>
</svg>
