<?xml version="1.0" encoding="UTF-8" standalone="no"?>
<!DOCTYPE svg PUBLIC "-//W3C//DTD SVG 1.1//EN" "http://www.w3.org/Graphics/SVG/1.1/DTD/svg11.dtd">
<svg width="100%" height="100%" viewBox="0 0 500 500" version="1.1" xmlns="http://www.w3.org/2000/svg" xmlns:xlink="http://www.w3.org/1999/xlink" xml:space="preserve" xmlns:serif="http://www.serif.com/" style="fill-rule:evenodd;clip-rule:evenodd;stroke-linejoin:round;stroke-miterlimit:2;">
    <g id="BACKGROUND">
        <g opacity="0.2">
            <g transform="matrix(1,0,0,1,437.534,246.78)">
                <path d="M0,-48.327L1.814,-43.324C5.055,-34.385 0.43,-24.5 -8.508,-21.26L-82.996,5.746C-91.935,8.986 -96.56,18.872 -93.318,27.809L-91.505,32.814C-88.258,41.769 -78.379,46.376 -69.44,43.135L-44.341,34.036C-35.402,30.795 -25.518,35.42 -22.277,44.358L-20.464,49.362C-17.216,58.318 -21.847,68.185 -30.786,71.425L-232.664,144.617C-241.603,147.857 -251.481,143.25 -254.728,134.294L-256.542,129.291C-259.782,120.352 -255.159,110.466 -246.22,107.226L-186.565,85.598C-177.626,82.358 -172.996,72.49 -176.242,63.535L-178.057,58.531C-181.297,49.592 -191.182,44.968 -200.12,48.21L-309.164,87.743C-318.103,90.983 -327.987,86.36 -331.228,77.421L-333.042,72.418C-336.283,63.478 -331.658,53.594 -322.72,50.353L-298.965,41.741C-290.025,38.5 -285.401,28.616 -288.642,19.677L-290.457,14.673C-293.697,5.735 -303.581,1.111 -312.52,4.351L-353.002,19.028C-361.957,22.275 -371.826,17.645 -375.066,8.706L-376.881,3.702C-380.122,-5.236 -375.513,-15.116 -366.559,-18.362L-255.911,-58.477C-246.972,-61.718 -242.348,-71.602 -245.589,-80.541L-247.402,-85.544C-250.643,-94.483 -260.528,-99.107 -269.466,-95.867L-306.711,-82.364C-315.649,-79.123 -325.528,-83.731 -328.774,-92.686L-330.588,-97.689C-333.829,-106.628 -329.205,-116.513 -320.266,-119.753L-118.388,-192.944C-109.449,-196.184 -99.564,-191.561 -96.324,-182.621L-94.51,-177.619C-91.263,-168.663 -95.894,-158.795 -104.832,-155.555L-138.303,-143.42C-147.241,-140.179 -151.866,-130.295 -148.625,-121.356L-146.811,-116.353C-143.57,-107.413 -133.685,-102.79 -124.747,-106.031L-61.595,-128.926C-52.655,-132.167 -42.771,-127.542 -39.531,-118.604L-37.716,-113.6C-34.476,-104.66 -39.099,-94.777 -48.039,-91.536L-124.681,-63.749C-133.618,-60.509 -138.243,-50.624 -135.003,-41.686L-133.188,-36.682C-129.948,-27.743 -120.063,-23.12 -111.126,-26.36L-22.063,-58.649C-13.124,-61.89 -3.24,-57.266 0,-48.327" style="fill-rule:nonzero;"/>
            </g>
        </g>
    </g>
    <g id="OBJECTS">
        <g opacity="0.5">
            <g transform="matrix(0,-1,-1,0,243.206,269.107)">
                <path d="M-142.284,-142.285C-164.354,-142.285 -182.247,-78.582 -182.247,0C-182.247,78.581 -164.354,142.284 -142.284,142.284C-120.214,142.284 -102.322,78.581 -102.322,0C-102.322,-78.582 -120.214,-142.285 -142.284,-142.285" style="fill-rule:nonzero;"/>
            </g>
        </g>
        <g transform="matrix(1,0,0,1,244.377,412.53)">
            <path d="M0,-351.222L0,-42.99C0,-36.828 -3.856,-31.325 -9.649,-29.222L-113.103,14.98C-114.535,15.499 -130.603,14.401 -132.009,14.367C-138.116,14.226 -143.456,9.245 -143.456,2.632L-143.456,-310.473C-143.456,-316.665 -139.563,-322.188 -133.731,-324.27L-19.573,-365.018C-14.804,-366.721 1.816,-365.804 5.517,-363.196C9.218,-360.587 0,-356.286 0,-351.222" style="fill:rgb(53,53,61);fill-rule:nonzero;"/>
        </g>
        <g transform="matrix(1,0,0,1,261.066,412.884)">
            <path d="M0,-349.723L0,-41.492C0,-35.329 -3.856,-29.826 -9.648,-27.722L-123.807,13.733C-133.359,17.202 -143.456,10.127 -143.456,-0.036L-143.456,-308.974C-143.456,-315.166 -139.563,-320.689 -133.731,-322.771L-19.573,-363.519C-10.034,-366.925 0,-359.852 0,-349.723" style="fill:rgb(71,71,81);fill-rule:nonzero;"/>
        </g>
        <g transform="matrix(1,0,0,1,254.441,381.125)">
            <path d="M0,-298.89L0,-37.013C0,-33.64 -2.307,-30.629 -5.771,-29.48L-117.106,7.514C-122.822,9.413 -128.863,5.54 -128.863,-0.018L-128.863,-262.526C-128.863,-263.675 -128.594,-264.786 -128.094,-265.787C-127.149,-267.751 -125.352,-269.326 -123.044,-270.077L-97.548,-278.406L-11.71,-306.441C-6.003,-308.303 0,-304.43 0,-298.89" style="fill:rgb(139,160,229);fill-rule:nonzero;"/>
        </g>
        <g opacity="0.5">
            <g transform="matrix(1,0,0,1,254.441,296.204)">
                <path d="M0,-213.969L0,9.413C-83.549,-6.531 -122.313,-131.123 -128.094,-180.866C-127.149,-182.83 -125.352,-184.405 -123.044,-185.156L-97.548,-193.485L-11.71,-221.52C-6.003,-223.382 0,-219.509 0,-213.969" style="fill:rgb(100,129,220);fill-rule:nonzero;"/>
            </g>
        </g>
        <g transform="matrix(1,0,0,1,175.846,385.615)">
            <path d="M0,1.147L0,10.979C0,13.964 2.97,16.04 5.774,15.012L38.663,2.963C40.355,2.343 41.481,0.733 41.481,-1.07L41.481,-9.887C41.481,-12.823 38.602,-14.893 35.819,-13.959L2.93,-2.925C1.179,-2.338 0,-0.699 0,1.147" style="fill:rgb(53,53,61);fill-rule:nonzero;"/>
        </g>
        <g transform="matrix(1,0,0,1,169.331,70.7036)">
            <path d="M0,20.479L43.295,5.566C44.505,5.149 45.309,4 45.285,2.72C45.247,0.73 43.291,-0.652 41.403,-0.023L-1.902,14.388C-3.127,14.795 -3.945,15.953 -3.921,17.244L-3.911,17.745C-3.873,19.748 -1.894,21.131 0,20.479" style="fill:rgb(53,53,61);fill-rule:nonzero;"/>
        </g>
        <g transform="matrix(1,0,0,1,424.059,172.161)">
            <path d="M0,-20.695C-3.235,-18.485 -5.525,-19.209 -8.72,-20.925C-10.854,-22.072 -13.229,-23.167 -15.718,-22.753C-21.439,-21.799 -22.349,-16.813 -24.826,-12.469C-25.646,-11.03 -26.94,-9.828 -28.354,-8.995C-30.444,-7.764 -32.998,-9.749 -34.833,-10.662C-37.574,-12.027 -40.308,-12.522 -43.327,-11.926C-45.939,-11.41 -48.083,-9.533 -49.394,-7.297C-50.956,-4.633 -50.366,-1.128 -54.095,-0.359C-55.729,-0.022 -55.035,2.472 -53.407,2.136C-51.036,1.646 -49.373,0.231 -48.5,-2.038C-47.193,-5.437 -46.611,-8.312 -42.639,-9.432C-38.713,-10.54 -35.758,-7.77 -32.333,-6.544C-29.478,-5.521 -27.191,-6.365 -24.968,-8.284C-20.961,-11.745 -20.969,-19.864 -14.713,-20.253C-11.903,-20.428 -9.429,-18.092 -6.916,-17.176C-3.884,-16.07 -1.321,-16.667 1.306,-18.462C2.674,-19.396 1.382,-21.638 0,-20.695" style="fill:white;fill-rule:nonzero;"/>
        </g>
        <g transform="matrix(1,0,0,1,370.634,218.817)">
            <path d="M0,-9.96C3.89,-10.431 5.59,-8.732 7.633,-5.737C9,-3.736 10.603,-1.671 13.003,-0.891C18.52,0.899 21.625,-3.108 25.824,-5.822C27.215,-6.72 28.918,-7.192 30.559,-7.28C32.979,-7.409 34.332,-4.471 35.538,-2.815C37.343,-0.34 39.539,1.358 42.495,2.22C45.052,2.966 47.818,2.288 50.014,0.906C52.627,-0.738 53.718,-4.121 57.382,-3.085C58.986,-2.632 59.521,-5.164 57.92,-5.616C55.591,-6.274 53.463,-5.784 51.643,-4.171C48.917,-1.758 47.075,0.526 43.033,-0.311C39.039,-1.137 37.692,-4.957 35.218,-7.623C33.154,-9.846 30.736,-10.15 27.879,-9.471C22.728,-8.246 18.994,-1.036 13.262,-3.573C10.688,-4.712 9.568,-7.925 7.761,-9.896C5.578,-12.276 3.03,-12.926 -0.13,-12.544C-1.774,-12.345 -1.661,-9.758 0,-9.96" style="fill:white;fill-rule:nonzero;"/>
        </g>
        <g transform="matrix(1,0,0,1,430.629,184.413)">
            <path d="M0,5.266C-3.815,6.156 -5.689,4.651 -8.047,1.896C-9.621,0.054 -11.438,-1.825 -13.909,-2.339C-19.588,-3.521 -22.24,0.799 -26.12,3.952C-27.406,4.996 -29.049,5.649 -30.668,5.913C-33.062,6.305 -34.725,3.531 -36.104,2.016C-38.166,-0.249 -40.533,-1.699 -43.564,-2.236C-46.187,-2.701 -48.863,-1.726 -50.896,-0.115C-53.316,1.804 -54.033,5.284 -57.788,4.652C-59.434,4.375 -59.689,6.95 -58.05,7.225C-55.662,7.627 -53.601,6.91 -51.965,5.11C-49.517,2.415 -47.935,-0.055 -43.825,0.338C-39.765,0.726 -38.012,4.378 -35.264,6.76C-32.972,8.746 -30.534,8.787 -27.768,7.802C-22.779,6.026 -19.849,-1.546 -13.877,0.355C-11.194,1.208 -9.732,4.281 -7.722,6.044C-5.294,8.173 -2.69,8.543 0.409,7.821C2.022,7.445 1.629,4.886 0,5.266" style="fill:white;fill-rule:nonzero;"/>
        </g>
        <g transform="matrix(1,0,0,1,209.35,290.524)">
            <path d="M0,16.089C3.743,15.767 7.264,15.327 10.658,14.624C14.039,13.914 17.271,12.946 20.227,11.498C21.708,10.783 23.124,9.957 24.477,9.023C25.814,8.068 27.084,7.005 28.309,5.84C30.723,3.474 32.831,0.659 34.999,-2.435C34.805,1.333 33.515,5.063 31.344,8.339C30.239,9.964 28.896,11.443 27.398,12.758C25.876,14.048 24.181,15.126 22.397,16.001C18.815,17.747 14.871,18.509 11.038,18.524C7.205,18.499 3.387,17.81 0,16.089" style="fill:rgb(100,129,220);fill-rule:nonzero;"/>
        </g>
        <g transform="matrix(1,0,0,1,204.743,261.876)">
            <path d="M0,-18.666C3.554,-20.33 7.545,-20.961 11.542,-20.871C15.541,-20.748 19.619,-19.717 23.22,-17.677C26.81,-15.623 29.809,-12.555 31.784,-9.029C33.741,-5.488 34.857,-1.606 35.014,2.295C33.238,-1.18 31.415,-4.448 29.168,-7.282C26.934,-10.12 24.266,-12.451 21.237,-14.205C18.189,-15.929 14.793,-17.08 11.21,-17.754C7.622,-18.438 3.886,-18.695 0,-18.666" style="fill:rgb(100,129,220);fill-rule:nonzero;"/>
        </g>
        <g transform="matrix(1,0,0,1,177.699,305.807)">
            <path d="M0,-34.594C0.117,-30.847 0.583,-27.284 1.451,-23.884C2.311,-20.489 3.611,-17.288 5.4,-14.387C6.277,-12.927 7.282,-11.54 8.406,-10.241C8.934,-9.56 9.569,-8.973 10.141,-8.319C10.782,-7.737 11.365,-7.079 12.043,-6.522C14.659,-4.17 17.615,-2.102 20.741,0C17.012,-0.548 13.408,-1.945 10.146,-4.013C9.312,-4.502 8.563,-5.122 7.779,-5.699C7.042,-6.334 6.288,-6.957 5.615,-7.671C4.908,-8.352 4.293,-9.119 3.659,-9.871C3.079,-10.665 2.487,-11.455 1.986,-12.305C-0.083,-15.665 -1.306,-19.516 -1.641,-23.369C-1.812,-25.297 -1.771,-27.23 -1.506,-29.121C-1.221,-31.006 -0.805,-32.875 0,-34.594" style="fill:rgb(100,129,220);fill-rule:nonzero;"/>
        </g>
        <g transform="matrix(1,0,0,1,302.632,213.343)">
            <path d="M0,-5.87L0,6.972L8.907,6.972L8.907,-12.842L0,-12.842L0,-5.87Z" style="fill:rgb(255,117,41);fill-rule:nonzero;"/>
        </g>
        <g opacity="0.5">
            <g transform="matrix(-1,0,0,1,618.624,-79.183)">
                <rect x="307.084" y="279.683" width="4.456" height="19.817" style="fill:rgb(224,82,18);"/>
            </g>
        </g>
        <g transform="matrix(1,0,0,1,294.845,208.205)">
            <path d="M0,-69.082C0,-69.082 10.791,-98.358 -18.115,-99.987C-18.115,-99.987 -31.755,-119.123 -57.2,-113.626C-82.646,-108.129 -82.036,-95.712 -96.489,-92.862C-110.942,-90.012 -139.917,-98.358 -160.544,-75.016C-181.817,-50.943 -171.477,-26.96 -161.095,-19.631C-150.713,-12.303 -133.868,-13.808 -130.145,-5.804C-125.667,3.826 -147.933,27.718 -133.538,37.42C-114.81,50.041 -94.86,20.524 -84.845,18.285C-72.744,15.579 -5.091,35.31 0,-69.082" style="fill:rgb(33,18,90);fill-rule:nonzero;"/>
        </g>
        <g opacity="0.5">
            <g transform="matrix(1,0,0,1,294.845,208.208)">
                <path d="M0,-69.087C-5.086,35.308 -72.747,15.575 -84.846,18.28C-94.861,20.521 -114.809,50.039 -133.542,37.421C-136.896,35.151 -138.258,32.121 -138.424,28.674C-138.341,28.74 -138.249,28.805 -138.156,28.869C-120.664,40.653 -102.033,13.091 -92.684,10.997C-81.381,8.468 -14.906,-0.114 -15.885,-67.067C-15.885,-67.067 -3.362,-97.937 -30.36,-99.457C-30.36,-99.457 -40.449,-113.613 -59.433,-113.113C-58.71,-113.289 -57.969,-113.465 -57.2,-113.632C-31.76,-119.126 -18.112,-99.994 -18.112,-99.994C10.793,-98.363 0,-69.087 0,-69.087" style="fill:rgb(25,14,68);fill-rule:nonzero;"/>
            </g>
        </g>
        <g transform="matrix(1,0,0,1,296.459,158.18)">
            <path d="M0,7.46C-0.195,9.903 -0.514,12.345 -0.986,14.748C-3.11,25.52 -8.338,35.373 -19.526,39.705C-25.405,41.984 -30.837,42.766 -35.754,42.563C-39.549,42.408 -43.035,41.675 -46.193,40.592C-58.855,36.252 -66.143,26.375 -66.143,26.375C-66.143,26.375 -79.888,29.934 -79.88,14.365C-79.88,8.307 -75.238,4.683 -71.737,4.39C-65.63,3.877 -62.886,7.036 -62.886,7.036C-62.886,7.036 -55.15,6.629 -53.318,-1.106C-51.486,-8.842 -49.654,-22.277 -41.511,-26.755C-33.369,-31.234 -19.526,-28.384 -17.083,-35.306C-17.083,-35.306 -9.959,-25.127 -3.038,-25.738C-3.038,-25.738 1.351,-9.249 0,7.46" style="fill:rgb(255,194,164);fill-rule:nonzero;"/>
        </g>
        <g opacity="0.5">
            <g transform="matrix(1,0,0,1,296.456,167.748)">
                <path d="M0,-2.112C-0.194,0.334 -0.509,2.78 -0.981,5.18C-3.103,15.954 -8.338,25.803 -19.52,30.138C-25.403,32.418 -30.832,33.196 -35.752,32.992C-39.55,32.844 -43.033,32.103 -46.193,31.028C-58.849,26.683 -66.14,16.806 -66.14,16.806C-66.14,16.806 -76.748,19.549 -79.314,9.673C-75.414,15.037 -67.836,13.073 -67.836,13.073C-67.836,13.073 -60.553,22.95 -47.889,27.285C-44.729,28.369 -41.246,29.101 -37.447,29.258C-32.536,29.462 -27.099,28.684 -21.225,26.405C-10.032,22.069 -4.808,12.221 -2.686,1.446C-2.214,-0.954 -1.889,-3.4 -1.694,-5.845C-0.73,-17.714 -2.677,-29.48 -3.872,-35.289C-3.595,-35.279 -3.315,-35.279 -3.038,-35.308C-3.038,-35.308 1.354,-18.816 0,-2.112" style="fill:rgb(232,161,130);fill-rule:nonzero;"/>
            </g>
        </g>
        <g transform="matrix(1,0,0,1,293.116,221.552)">
            <path d="M0,1.884C0,1.884 -1.832,10.433 5.293,13.385C5.293,13.385 9.873,11.146 11.705,10.943C13.537,10.739 21.781,11.655 22.901,10.128C24.021,8.601 23.767,7.176 23.767,7.176C23.767,7.176 25.802,6.057 26.158,4.836C26.514,3.614 24.937,1.884 24.937,1.884C24.937,1.884 27.074,0.509 26.819,-1.526C26.565,-3.561 24.071,-4.121 24.071,-4.121C24.071,-4.121 24.682,-6.106 23.613,-7.684C22.545,-9.262 18.27,-8.905 18.27,-8.905L18.27,-4.681C18.27,-4.681 13.537,-1.526 9.516,-4.681L9.516,-11.501C9.516,-11.501 6.311,-8.447 5.751,-6.361C5.19,-4.274 5.903,-1.933 5.242,-0.966C4.58,0.001 0,1.884 0,1.884" style="fill:rgb(255,194,164);fill-rule:nonzero;"/>
        </g>
        <g opacity="0.5">
            <g transform="matrix(1,0,0,1,318.053,221.373)">
                <path d="M0,2.066C0,2.066 1.575,3.789 1.224,5.012C0.861,6.235 -1.167,7.356 -1.167,7.356C-1.167,7.356 -0.917,8.783 -2.038,10.312C-2.408,10.812 -3.548,11.053 -4.984,11.146C-3.938,9.654 -4.178,8.301 -4.178,8.301C-4.178,8.301 -2.149,7.18 -1.787,5.957C-1.436,4.734 -3.011,3.002 -3.011,3.002C-3.011,3.002 -0.871,1.63 -1.13,-0.408C-1.38,-2.436 -3.872,-3.002 -3.872,-3.002C-3.872,-3.002 -3.271,-4.984 -4.335,-6.559C-4.762,-7.189 -5.698,-7.514 -6.671,-7.671L-6.671,-8.727C-6.671,-8.727 -2.39,-9.08 -1.324,-7.504C-0.26,-5.929 -0.861,-3.947 -0.861,-3.947C-0.861,-3.947 1.631,-3.381 1.882,-1.343C2.14,0.686 0,2.066 0,2.066" style="fill:rgb(232,161,130);fill-rule:nonzero;"/>
            </g>
        </g>
        <g transform="matrix(1,0,0,1,342.605,121.387)">
            <path d="M0,-5.307C-0.482,-0.87 -7.838,10.017 -8.672,11.239C-8.718,11.314 -8.746,11.351 -8.746,11.351C-15.027,13.824 -20.392,10.081 -20.392,10.081C-20.392,10.081 -19.354,5.931 -21.717,3.883C-23.819,2.076 -30.462,-2.936 -28.109,-4.399C-25.747,-5.863 -21.068,-1.148 -19.873,-2.889C-19.15,-3.936 -18.928,-8.902 -18.242,-12.691C-17.798,-15.156 -17.158,-17.129 -16.056,-17.213C-15.194,-17.278 -14.814,-14.22 -14.647,-10.996C-14.463,-7.457 -14.546,-3.723 -14.546,-3.723C-14.546,-3.723 -14.018,-6.651 -13.202,-9.931C-12.137,-14.229 -10.58,-19.131 -9.089,-18.862C-7.134,-18.5 -9.145,-4.418 -9.256,-3.594C-9.015,-4.279 -5.077,-15.638 -3.752,-15.026C-1.232,-13.868 -5.086,-2.12 -5.271,-1.564C-5.003,-1.954 0.501,-9.912 0,-5.307" style="fill:rgb(255,194,164);fill-rule:nonzero;"/>
        </g>
        <g transform="matrix(1,0,0,1,298.412,269.568)">
            <path d="M0,-34.631L-14.213,-28.545L-19.049,-26.469C-19.354,-25.497 -19.809,-24.626 -20.337,-23.839L-20.346,-23.839C-23.218,-19.641 -28.601,-18.038 -28.601,-18.038C-39.394,0.075 -65.039,23.079 -65.039,23.079C-65.039,23.079 -86.014,29.388 -99.652,20.837C-112.993,12.48 -106.666,-9.7 -106.378,-10.673C-106.378,-10.7 -106.369,-10.711 -106.369,-10.711C-91.508,-11.321 -74.405,-34.631 -74.405,-34.631C-74.405,-34.631 -75.628,-53.865 -72.368,-58.349C-69.115,-62.824 -49.438,-63.444 -49.438,-63.444C-44.74,-64.019 -41.22,-63.955 -38.532,-63.491C-38.532,-63.491 -38.495,-63.482 -38.421,-63.473C-31.741,-62.296 -30.314,-58.627 -29.008,-56.311C-28.592,-55.561 -27.841,-54.347 -26.924,-52.911C-26.914,-52.911 -26.914,-52.902 -26.905,-52.902C-26.554,-52.327 -26.154,-51.716 -25.756,-51.086C-24.922,-49.779 -24.015,-48.389 -23.153,-47.074C-20.967,-43.73 -19.039,-40.839 -19.039,-40.839L-18.576,-41.015L-5.3,-46.129L-5.291,-46.129L0,-34.631Z" style="fill:rgb(255,161,181);fill-rule:nonzero;"/>
        </g>
        <g transform="matrix(1,0,0,1,262.891,201.288)">
            <path d="M0,18.075C-6.198,20.586 -14.249,6.772 -14.249,6.772L-12.627,-2.511C-9.468,-1.437 -5.984,-0.696 -2.187,-0.547L-3.159,5.762C-3.159,5.762 4.271,16.343 0,18.075" style="fill:rgb(255,194,164);fill-rule:nonzero;"/>
        </g>
        <g opacity="0.8">
            <g transform="matrix(-0.152422,0.988315,0.988315,0.152422,256.53,208.665)">
                <path d="M-8.468,2.917L-2.085,2.917C-2.031,-2.585 -5.726,-7.759 -5.726,-7.759L-8.818,-7.701C-8.238,-4.414 -8.036,-0.859 -8.468,2.917" style="fill:rgb(232,161,130);fill-rule:nonzero;"/>
            </g>
        </g>
        <g transform="matrix(1,0,0,1,334.258,218.501)">
            <path d="M0,-86.218C0,-86.218 -11.813,-22.801 -58.999,3.993C-61.315,0.454 -63.918,-3.576 -64.854,-5.244C-66.16,-7.56 -67.587,-11.229 -74.267,-12.406C-72.09,-12.165 -35.846,-9.246 -11.841,-88.646C-11.841,-88.646 -6.227,-90.211 -1.678,-87.478C-1.112,-87.145 -0.575,-86.746 -0.057,-86.264C-0.037,-86.255 -0.02,-86.237 0,-86.218" style="fill:rgb(244,125,157);fill-rule:nonzero;"/>
        </g>
        <g opacity="0.5">
            <g transform="matrix(1,0,0,1,334.258,221.28)">
                <path d="M0,-88.997C0,-88.997 -11.813,-25.58 -58.999,1.214C-60.99,-1.834 -63.205,-5.253 -64.372,-7.199C-20.577,-29.665 -3.623,-83.327 -1.612,-90.211C-1.066,-89.895 -0.557,-89.506 -0.057,-89.043C-0.037,-89.034 -0.02,-89.016 0,-88.997" style="fill:rgb(183,94,118);fill-rule:nonzero;"/>
            </g>
        </g>
        <g transform="matrix(1,0,0,1,278.918,166.564)">
            <path d="M0,-7.277C2.823,-7.277 2.875,0 0,0C-2.876,0 -2.596,-7.277 0,-7.277" style="fill:rgb(239,153,123);fill-rule:nonzero;"/>
        </g>
        <g transform="matrix(0,-1,-1,0,259.426,160.059)">
            <path d="M-3.665,-3.664C-5.688,-3.664 -7.329,-2.023 -7.329,0C-7.329,2.023 -5.688,3.665 -3.665,3.665C-1.641,3.665 0,2.023 0,0C0,-2.023 -1.641,-3.664 -3.665,-3.664" style="fill:rgb(25,22,45);fill-rule:nonzero;"/>
        </g>
        <g transform="matrix(1,0,0,1,261.299,161.913)">
            <path d="M0,-1.337C-0.904,-1.644 -1.818,-1.524 -2.668,-1.3C-3.521,-1.057 -4.331,-0.66 -5.106,-0.198L-5.689,0.154C-5.923,0.275 -6.134,0.432 -6.396,0.505C-6.889,0.692 -7.445,0.767 -7.963,0.663C-9.007,0.476 -9.842,-0.191 -10.346,-0.997C-9.582,-0.439 -8.725,-0.043 -7.891,-0.014C-7.477,-0.004 -7.073,-0.08 -6.706,-0.262C-6.516,-0.333 -6.345,-0.461 -6.165,-0.56L-5.555,-0.953C-4.714,-1.438 -3.796,-1.843 -2.805,-1.973C-1.838,-2.104 -0.738,-1.985 0,-1.337" style="fill:rgb(25,22,45);fill-rule:nonzero;"/>
        </g>
        <g transform="matrix(0,-1,-1,0,292.259,158.089)">
            <path d="M-3.121,-3.121C-4.845,-3.121 -6.242,-1.724 -6.242,0C-6.242,1.724 -4.845,3.121 -3.121,3.121C-1.397,3.121 0,1.724 0,0C0,-1.724 -1.397,-3.121 -3.121,-3.121" style="fill:rgb(25,22,45);fill-rule:nonzero;"/>
        </g>
        <g transform="matrix(1,0,0,1,290.633,159.752)">
            <path d="M0,-1.127C0.629,-1.667 1.556,-1.783 2.377,-1.667C3.218,-1.557 3.996,-1.213 4.708,-0.802L5.226,-0.469C5.378,-0.385 5.523,-0.276 5.684,-0.217C5.995,-0.062 6.337,0.002 6.688,-0.006C7.392,-0.035 8.128,-0.358 8.77,-0.839C8.336,-0.165 7.638,0.414 6.75,0.568C6.311,0.656 5.839,0.592 5.421,0.434C5.199,0.372 5.021,0.238 4.822,0.136L4.328,-0.163C3.671,-0.554 2.984,-0.89 2.262,-1.096C1.543,-1.281 0.764,-1.398 0,-1.127" style="fill:rgb(25,22,45);fill-rule:nonzero;"/>
        </g>
        <g transform="matrix(0.0206408,0.999787,0.999787,-0.0206408,255.542,143.169)">
            <path d="M6.54,-5.083C7.598,-6.091 10.405,-5.273 10.243,-3.233C10.081,-1.194 6.88,1.292 6.54,5.77C6.401,7.605 1.342,7.742 1.672,4.056C1.983,0.593 4.277,-2.923 6.54,-5.083" style="fill:rgb(33,18,90);fill-rule:nonzero;"/>
        </g>
        <g transform="matrix(0.0206345,-0.999787,-0.999787,-0.0206345,295.011,142.799)">
            <path d="M-5.492,-4.267C-6.379,-5.114 -8.736,-4.428 -8.6,-2.715C-8.466,-1.002 -5.777,1.083 -5.492,4.844C-5.375,6.384 -1.127,6.501 -1.404,3.406C-1.665,0.499 -3.592,-2.455 -5.492,-4.267" style="fill:rgb(33,18,90);fill-rule:nonzero;"/>
        </g>
        <g transform="matrix(1,0,0,1,280.972,176.339)">
            <path d="M0,7.239C-1.792,9.201 -4.552,10.74 -8.664,10.822C-15.577,10.96 -18.794,6.669 -19.827,3.314C-20.398,1.474 -20.309,-0.09 -19.812,-0.488C-19.729,-0.553 -19.641,-0.619 -19.543,-0.684C-15.04,-3.721 1.839,-2.866 2.727,-1.18C2.824,-0.993 2.89,-0.7 2.923,-0.342C3.069,1.343 2.378,4.657 0,7.239" style="fill:rgb(61,0,11);fill-rule:nonzero;"/>
        </g>
        <g transform="matrix(1,0,0,1,280.972,180.88)">
            <path d="M0,2.698C-1.792,4.66 -4.552,6.199 -8.664,6.281C-15.577,6.419 -18.794,2.128 -19.827,-1.227C-16.408,-2.465 -6.414,-3.721 0,2.698" style="fill:rgb(255,161,181);fill-rule:nonzero;"/>
        </g>
        <g transform="matrix(1,0,0,1,283.894,173.716)">
            <path d="M0,2.281C-7.15,3.38 -18.484,2.362 -22.466,1.939C-17.963,-1.099 -1.084,-0.243 -0.196,1.442C-0.099,1.629 -0.033,1.922 0,2.281" style="fill:rgb(255,247,243);fill-rule:nonzero;"/>
        </g>
        <g transform="matrix(0,-1,-1,0,248.637,163.926)">
            <path d="M-8.008,-8.007C-10.518,-8.007 -12.554,-4.422 -12.554,-0.001C-12.554,4.423 -10.518,8.008 -8.008,8.008C-5.497,8.008 -3.461,4.423 -3.461,-0.001C-3.461,-4.422 -5.497,-8.007 -8.008,-8.007" style="fill:rgb(255,161,181);fill-rule:nonzero;"/>
        </g>
        <g transform="matrix(1,0,0,1,296.459,172.928)">
            <path d="M0,-7.288C-0.195,-4.845 -0.514,-2.403 -0.986,0C-3.339,-0.872 -4.877,-2.419 -4.724,-4.023C-4.568,-5.701 -2.614,-6.946 0,-7.288" style="fill:rgb(255,161,181);fill-rule:nonzero;"/>
        </g>
        <g transform="matrix(1,0,0,1,226.04,169.629)">
            <path d="M0,10.04C0.052,9.341 0.224,8.652 0.471,7.985C0.719,7.319 1.077,6.673 1.602,6.136C2.126,5.6 2.867,5.245 3.631,5.16C4.41,5.041 5.149,5.267 5.854,5.488L5.313,5.998C4.886,4.932 4.276,3.876 3.524,2.998C2.771,2.119 1.828,1.409 0.737,1.113C-0.341,0.773 -1.503,1.042 -2.455,1.721C-3.404,2.409 -4.178,3.378 -4.783,4.442C-4.381,3.284 -3.728,2.179 -2.772,1.32C-1.833,0.462 -0.376,0 0.924,0.36C2.232,0.64 3.344,1.465 4.184,2.428C5.023,3.412 5.647,4.514 6.087,5.735L6.379,6.546L5.547,6.246C4.943,6.028 4.314,5.816 3.695,5.875C3.076,5.898 2.48,6.138 1.98,6.548C0.997,7.406 0.379,8.71 0,10.04" style="fill:rgb(232,161,130);fill-rule:nonzero;"/>
        </g>
        <g transform="matrix(1,0,0,1,293.075,240.985)">
            <path d="M0,-17.528C-0.214,-17.445 -1.177,-17.065 -2.705,-16.453C-4.466,-15.777 -6.968,-14.767 -9.996,-13.627C-11.016,-13.238 -12.1,-12.831 -13.23,-12.404C-15.407,-11.571 -17.761,-10.681 -20.244,-9.773C-20.271,-9.755 -20.308,-9.745 -20.336,-9.736C-24.135,-8.356 -28.183,-6.883 -32.231,-5.41C-36.299,-3.983 -40.366,-2.556 -44.211,-1.287C-45.174,-0.972 -46.12,-0.657 -47.056,-0.379C-47.547,-0.249 -47.954,-0.11 -48.51,-0.008C-48.631,0 -48.742,0 -48.779,-0.008C-48.946,-0.064 -48.854,-0.036 -48.899,-0.064L-48.937,-0.092L-49.011,-0.157C-49.066,-0.212 -49.075,-0.24 -49.094,-0.267C-49.177,-0.406 -49.223,-0.518 -49.279,-0.629C-49.372,-0.861 -49.455,-1.083 -49.529,-1.305C-50.123,-3.094 -50.539,-4.789 -50.947,-6.355C-51.744,-9.495 -52.299,-12.126 -52.717,-13.97C-53.06,-15.582 -53.272,-16.592 -53.318,-16.824C-53.254,-16.601 -52.985,-15.601 -52.559,-14.007C-52.086,-12.182 -51.373,-9.588 -50.501,-6.475C-50.066,-4.928 -49.594,-3.232 -48.974,-1.509C-48.899,-1.296 -48.816,-1.083 -48.723,-0.879C-48.677,-0.787 -48.631,-0.684 -48.584,-0.62C-48.584,-0.629 -48.584,-0.629 -48.575,-0.638C-48.195,-0.721 -47.695,-0.879 -47.25,-1.018C-46.333,-1.324 -45.388,-1.639 -44.434,-1.954C-40.616,-3.251 -36.559,-4.715 -32.501,-6.169C-28.442,-7.615 -24.385,-9.05 -20.577,-10.403C-20.429,-10.459 -20.271,-10.515 -20.123,-10.561C-17.982,-11.311 -15.927,-12.034 -14.008,-12.711C-12.655,-13.183 -11.358,-13.637 -10.154,-14.063C-7.097,-15.11 -4.549,-15.99 -2.761,-16.601C-1.195,-17.13 -0.223,-17.454 0,-17.528" style="fill:rgb(244,125,157);fill-rule:nonzero;"/>
        </g>
        <g transform="matrix(1,0,0,1,353.222,167.387)">
            <path d="M0,42.664L-41.126,34.27L-41.126,13.008L0,0C0,0 0.964,2.743 1.882,7.171C3.604,15.435 5.17,29.573 0,42.664" style="fill:rgb(255,117,41);fill-rule:nonzero;"/>
        </g>
        <g transform="matrix(1,0,0,1,312.096,201.861)">
            <path d="M0,-21.466L0,0L-10.313,0C-10.313,0 -13.684,-2.548 -13.684,-10.728C-13.684,-10.95 -13.684,-11.163 -13.665,-11.386L-13.665,-11.404C-13.434,-17.139 -10.313,-21.466 -10.313,-21.466L0,-21.466Z" style="fill:rgb(255,205,46);fill-rule:nonzero;"/>
        </g>
        <g transform="matrix(1,0,0,1,353.777,166.776)">
            <path d="M0,43.813C-0.981,46.212 -4.928,45.166 -3.928,42.738C-3.909,42.692 -3.891,42.646 -3.872,42.599C-0.102,33.297 0.501,22.606 -1.13,12.47C-1.75,8.579 -2.705,4.762 -3.928,1.149C-4.771,-1.343 -0.842,-2.399 0,0.074C0.482,1.482 0.918,2.928 1.307,4.392C4.753,17.14 4.957,31.713 0,43.813" style="fill:rgb(255,205,46);fill-rule:nonzero;"/>
        </g>
        <g opacity="0.5">
            <g transform="matrix(1,0,0,1,271.488,231.212)">
                <path d="M0,-14.555C0.01,-14.555 0.01,-14.546 0.019,-14.546C0.37,-13.971 0.77,-13.36 1.168,-12.73C2.002,-11.423 2.909,-10.034 3.771,-8.718C5.438,-6.161 6.958,-3.873 7.579,-2.937C7.773,-2.64 7.885,-2.483 7.885,-2.483L8.348,-2.659C8.356,-2.65 8.356,-2.64 8.356,-2.631C6.18,-1.798 3.826,-0.908 1.343,0C1.39,-0.26 1.437,-0.528 1.464,-0.787C2.538,-8.662 0.13,-14.268 0,-14.555" style="fill:rgb(244,125,157);fill-rule:nonzero;"/>
            </g>
        </g>
        <g opacity="0.5">
            <g transform="matrix(1,0,0,1,269.293,295.436)">
                <path d="M0,-48.705C4.938,-50.438 8.598,-51.725 10.034,-52.226C10.023,-52.206 10.023,-52.188 10.015,-52.18C7.977,-46.129 0.519,-43.905 0.519,-43.905C-10.274,-25.793 -35.92,-2.788 -35.92,-2.788C-35.92,-2.788 -56.895,3.521 -70.533,-5.03C-83.874,-13.388 -77.546,-35.567 -77.259,-36.541C-77.259,-36.567 -77.25,-36.578 -77.25,-36.578C-77.25,-36.578 -43.961,-11.868 -9.302,-42.655C-8.043,-43.767 -6.902,-44.888 -5.865,-46.009C-5.559,-46.333 -5.272,-46.648 -4.994,-46.973C-3.215,-47.574 -1.547,-48.159 0,-48.705" style="fill:rgb(244,125,157);fill-rule:nonzero;"/>
            </g>
        </g>
        <g opacity="0.5">
            <g transform="matrix(1,0,0,1,298.412,238.197)">
                <path d="M0,-3.26L-14.213,2.826L-19.049,4.902C-19.059,4.939 -19.076,4.976 -19.085,5.013C-19.085,5.032 -19.096,5.05 -19.104,5.059C-19.595,5.254 -20.346,5.559 -21.31,5.958C-23.153,6.69 -25.775,7.764 -28.962,8.96C-30.102,9.386 -31.306,9.849 -32.565,10.322L-37.698,11.498C-7.458,0.223 -5.3,-14.758 -5.3,-14.758L0,-3.26Z" style="fill:rgb(244,125,157);fill-rule:nonzero;"/>
            </g>
        </g>
        <g transform="matrix(1,0,0,1,279.938,250.039)">
            <path d="M0,-7.041C-0.094,-7.004 -0.306,-6.921 -0.631,-6.783C-1.121,-6.588 -1.872,-6.282 -2.836,-5.883C-4.68,-5.151 -7.302,-4.077 -10.488,-2.882C-11.628,-2.456 -12.832,-1.993 -14.092,-1.52C-14.88,-1.224 -15.686,-0.918 -16.511,-0.612C-18.066,-0.038 -19.697,0.555 -21.383,1.139C-25.395,2.547 -29.694,4.011 -34.039,5.327C-36.217,5.966 -38.412,6.578 -40.607,7.059C-41.72,7.292 -42.776,7.514 -43.961,7.569C-44.268,7.606 -44.518,7.56 -44.796,7.55C-45.139,7.477 -45.425,7.429 -45.694,7.292C-46.25,7.059 -46.686,6.689 -47.112,6.328C-48.733,4.798 -49.715,2.936 -50.624,1.204C-51.513,-0.547 -52.217,-2.251 -52.846,-3.846C-54.079,-7.023 -54.894,-9.737 -55.459,-11.636C-56.015,-13.545 -56.274,-14.647 -56.274,-14.647C-56.274,-14.647 -55.941,-13.563 -55.311,-11.692C-54.681,-9.812 -53.718,-7.144 -52.42,-4.012C-51.763,-2.456 -51.012,-0.77 -50.095,0.926C-49.641,1.779 -49.141,2.63 -48.576,3.474C-48.01,4.298 -47.39,5.132 -46.64,5.808C-46.26,6.124 -45.852,6.457 -45.407,6.633C-45.203,6.753 -44.925,6.772 -44.75,6.828C-44.49,6.828 -44.193,6.875 -43.953,6.836C-42.952,6.782 -41.831,6.559 -40.765,6.319C-38.607,5.828 -36.438,5.207 -34.271,4.548C-29.935,3.27 -25.637,1.843 -21.615,0.472C-20.809,0.194 -20.013,-0.075 -19.234,-0.343L-19.225,-0.343C-17.993,-0.77 -16.798,-1.178 -15.64,-1.576C-13.86,-2.177 -12.192,-2.762 -10.646,-3.308C-5.707,-5.041 -2.048,-6.328 -0.611,-6.829C-0.297,-6.94 -0.094,-7.014 0,-7.041" style="fill:rgb(244,125,157);fill-rule:nonzero;"/>
        </g>
        <g opacity="0.5">
            <g transform="matrix(-0.979796,-0.200002,-0.200002,0.979796,319.819,176.207)">
                <path d="M-36.112,26.481L2.478,26.481L3.741,20.291C2.653,20.059 -27.405,13.423 -32.773,-3.588C-36.398,6.017 -37.947,16.613 -36.112,26.481" style="fill:rgb(224,82,18);fill-rule:nonzero;"/>
            </g>
        </g>
        <g opacity="0.5">
            <g transform="matrix(1,0,0,1,312.096,196.997)">
                <path d="M0,-1.658L0,4.864L-10.313,4.864C-10.313,4.864 -13.684,2.317 -13.684,-5.864C-13.684,-6.086 -13.684,-6.299 -13.665,-6.522C-12.415,0.436 0,-1.658 0,-1.658" style="fill:rgb(232,178,26);fill-rule:nonzero;"/>
            </g>
        </g>
        <g opacity="0.5">
            <g transform="matrix(1,0,0,1,353.777,173.567)">
                <path d="M0,37.022C-0.981,39.421 -4.928,38.375 -3.928,35.947C-3.909,35.901 -3.891,35.855 -3.872,35.808C-0.102,26.506 0.501,15.815 -1.13,5.679C-1.13,5.679 0.971,0.761 1.307,-2.399C4.753,10.349 4.957,24.922 0,37.022" style="fill:rgb(232,178,26);fill-rule:nonzero;"/>
            </g>
        </g>
        <g opacity="0.5">
            <g transform="matrix(1,0,0,1,262.391,181.644)">
                <path d="M0,-67.368C-8.201,-67.051 -16.069,-62.456 -21.26,-56.233C-27.825,-48.365 -27.985,-38.163 -38.092,-33.198C-48.023,-28.319 -59.766,-28.881 -69.088,-22.458C-76.034,-17.673 -78.795,-9.451 -80.567,-1.606C-80.829,-0.447 -79.049,0.046 -78.787,-1.116C-76.7,-10.355 -73.313,-18.3 -64.619,-23.031C-56.204,-27.611 -45.93,-27.774 -37.161,-31.604C-29.671,-34.876 -26.862,-41.607 -23.625,-48.597C-19.372,-57.78 -10.433,-65.118 0,-65.522C1.186,-65.569 1.19,-67.414 0,-67.368" style="fill:rgb(25,14,68);fill-rule:nonzero;"/>
            </g>
        </g>
        <g opacity="0.5">
            <g transform="matrix(1,0,0,1,230.888,155.365)">
                <path d="M0,-51.617C-9.756,-45.636 -16.9,-37.365 -28.714,-35.343C-38.663,-33.64 -48.606,-34.493 -58.472,-31.86C-73.97,-27.723 -86.592,-17.179 -88.241,-0.559C-88.358,0.625 -86.511,0.614 -86.395,-0.559C-84.564,-19.018 -68.706,-28.222 -51.984,-31.455C-42.648,-33.26 -33.029,-32.166 -23.768,-34.501C-14.071,-36.946 -7.318,-44.966 0.932,-50.024C1.944,-50.644 1.018,-52.242 0,-51.617" style="fill:rgb(25,14,68);fill-rule:nonzero;"/>
            </g>
        </g>
        <g opacity="0.5">
            <g transform="matrix(1,0,0,1,233.938,230.599)">
                <path d="M0,-36.2C-1.966,-30.888 -8.678,-27.69 -13.424,-25.342C-19.568,-22.302 -25.798,-21.783 -32.396,-20.326C-45.422,-17.45 -51.038,-0.733 -65.121,-0.745C-66.311,-0.746 -66.311,1.1 -65.121,1.101C-58.726,1.106 -53.759,-2.241 -49.105,-6.317C-46.525,-8.577 -44.127,-11.041 -41.571,-13.329C-37.387,-17.074 -32.75,-18.536 -27.328,-19.409C-20.723,-20.473 -15.147,-22.217 -9.262,-25.428C-5.002,-27.751 0.018,-30.95 1.781,-35.71C2.194,-36.828 0.41,-37.306 0,-36.2" style="fill:rgb(25,14,68);fill-rule:nonzero;"/>
            </g>
        </g>
        <g opacity="0.5">
            <g transform="matrix(1,0,0,1,227.777,155.154)">
                <path d="M0,-27.682C-2.498,-23.873 -4.361,-20.057 -8.086,-17.23C-11.823,-14.393 -16.445,-12.889 -20.844,-11.432C-27.675,-9.169 -34.034,-6.939 -38.767,-1.232C-39.521,-0.324 -38.223,0.99 -37.462,0.072C-31.353,-7.293 -22.104,-8.634 -13.685,-12.069C-10.426,-13.398 -7.463,-15.238 -4.804,-17.531C-1.976,-19.969 -0.414,-23.688 1.594,-26.75C2.25,-27.748 0.651,-28.672 0,-27.682" style="fill:rgb(25,14,68);fill-rule:nonzero;"/>
            </g>
        </g>
        <g transform="matrix(1,0,0,1,193.065,298.706)">
            <path d="M0,-49.468C-2.046,-42.532 -3.109,-35.479 -2.435,-28.805C-2.096,-25.479 -1.264,-22.287 0.087,-19.375C0.792,-17.934 1.53,-16.51 2.497,-15.227C2.945,-14.569 3.462,-13.937 3.958,-13.326C4.485,-12.758 4.982,-12.16 5.575,-11.659C10.087,-7.387 16.633,-5.436 23.417,-4.851C30.245,-4.264 37.341,-4.784 44.521,-5.764C41.314,-4.007 37.844,-2.807 34.303,-1.814C30.748,-0.865 27.065,-0.273 23.301,-0.135C19.542,0 15.679,-0.347 11.9,-1.452C8.138,-2.543 4.442,-4.468 1.477,-7.279C0.714,-7.957 0.059,-8.737 -0.615,-9.499C-1.235,-10.287 -1.855,-11.049 -2.389,-11.889C-3.501,-13.532 -4.4,-15.321 -5.138,-17.156C-6.588,-20.845 -7.231,-24.795 -7.133,-28.63C-7.04,-32.471 -6.308,-36.212 -5.084,-39.719C-3.816,-43.209 -2.221,-46.559 0,-49.468" style="fill:rgb(100,129,220);fill-rule:nonzero;"/>
        </g>
        <g transform="matrix(0,-1,-1,0,136.295,203.037)">
            <path d="M-17.823,-17.824C-27.667,-17.824 -35.647,-9.844 -35.647,0C-35.647,9.843 -27.667,17.823 -17.823,17.823C-7.98,17.823 0,9.843 0,0C0,-9.844 -7.98,-17.824 -17.823,-17.824" style="fill:rgb(219,40,40);fill-rule:nonzero;"/>
        </g>
        <g transform="matrix(1,0,0,1,136.295,211.045)">
            <path d="M0,20.209C-10.581,15.591 -12.053,6.011 -8.144,3.448C-2.874,0 0,7.521 0,7.521C0,7.521 2.875,0 8.145,3.448C12.053,6.011 10.581,15.591 0,20.209" style="fill:white;fill-rule:nonzero;"/>
        </g>
        <g transform="matrix(-0.360283,-0.932843,-0.932843,0.360283,73.7797,268.803)">
            <path d="M-16.627,-24.245C-26.47,-24.244 -34.451,-16.265 -34.45,-6.422C-34.451,3.422 -26.47,11.401 -16.627,11.402C-6.783,11.401 1.197,3.421 1.197,-6.422C1.198,-16.265 -6.782,-24.245 -16.627,-24.245" style="fill:rgb(219,40,40);fill-rule:nonzero;"/>
        </g>
        <g transform="matrix(0.932861,-0.360236,-0.360236,-0.932861,92.8134,289.56)">
            <path d="M-3.856,-0.801C-14.437,3.817 -15.909,13.396 -12.001,15.96C-6.731,19.409 -3.856,11.888 -3.856,11.888C-3.856,11.888 -0.983,19.409 4.288,15.96C8.195,13.398 6.725,3.819 -3.856,-0.801" style="fill:white;fill-rule:nonzero;"/>
        </g>
        <g transform="matrix(0.248603,-0.968605,-0.968605,-0.248603,122.209,155.832)">
            <path d="M-11.034,-8.56C-17.325,-8.56 -22.426,-3.46 -22.426,2.83C-22.426,9.123 -17.325,14.222 -11.034,14.223C-4.743,14.223 0.358,9.123 0.358,2.832C0.358,-3.46 -4.742,-8.559 -11.034,-8.56" style="fill:rgb(219,40,40);fill-rule:nonzero;"/>
        </g>
        <g transform="matrix(0.968608,0.248595,0.248595,-0.968608,113.522,171.562)">
            <path d="M1.673,-0.281C-5.09,2.67 -6.031,8.793 -3.532,10.431C-0.164,12.634 1.673,7.828 1.673,7.828C1.673,7.828 3.511,12.635 6.878,10.432C9.376,8.794 8.435,2.671 1.673,-0.281" style="fill:white;fill-rule:nonzero;"/>
        </g>
        <g transform="matrix(0.248603,-0.968605,-0.968605,-0.248603,193.736,49.9109)">
            <path d="M-11.034,-8.56C-17.325,-8.56 -22.426,-3.46 -22.426,2.831C-22.426,9.123 -17.325,14.222 -11.034,14.223C-4.743,14.223 0.358,9.123 0.358,2.832C0.358,-3.46 -4.742,-8.559 -11.034,-8.56" style="fill:rgb(219,40,40);fill-rule:nonzero;"/>
        </g>
        <g transform="matrix(0.9686,0.248625,0.248625,-0.9686,185.049,65.6403)">
            <path d="M1.673,-0.281C-5.09,2.67 -6.031,8.792 -3.533,10.431C-0.165,12.635 1.673,7.827 1.673,7.827C1.673,7.827 3.51,12.635 6.878,10.431C9.375,8.793 8.436,2.67 1.673,-0.281" style="fill:white;fill-rule:nonzero;"/>
        </g>
        <g transform="matrix(-0.209941,-0.977714,-0.977714,0.209941,76.9563,111.403)">
            <path d="M-10.442,-12.924C-16.342,-12.925 -21.124,-8.142 -21.125,-2.243C-21.125,3.656 -16.341,8.438 -10.442,8.439C-4.544,8.439 0.239,3.657 0.239,-2.243C0.239,-8.142 -4.543,-12.924 -10.442,-12.924" style="fill:rgb(219,40,40);fill-rule:nonzero;"/>
        </g>
        <g transform="matrix(0.977695,-0.210032,-0.210032,-0.977695,83.8953,126.756)">
            <path d="M-1.317,-0.203C-7.659,2.564 -8.541,8.305 -6.198,9.841C-3.04,11.908 -1.317,7.4 -1.317,7.4C-1.317,7.4 0.406,11.907 3.564,9.841C5.906,8.304 5.023,2.564 -1.317,-0.203" style="fill:white;fill-rule:nonzero;"/>
        </g>
        <g transform="matrix(-0.209941,-0.977714,-0.977714,0.209941,304.926,69.2858)">
            <path d="M-10.443,-12.925C-16.342,-12.924 -21.125,-8.142 -21.126,-2.244C-21.125,3.655 -16.343,8.437 -10.443,8.438C-4.545,8.438 0.238,3.655 0.239,-2.242C0.238,-8.142 -4.544,-12.925 -10.443,-12.925" style="fill:rgb(219,40,40);fill-rule:nonzero;"/>
        </g>
        <g transform="matrix(0.977695,-0.210032,-0.210032,-0.977695,311.866,84.6402)">
            <path d="M-1.318,-0.203C-7.659,2.564 -8.542,8.306 -6.198,9.842C-3.04,11.908 -1.318,7.4 -1.318,7.4C-1.318,7.4 0.407,11.908 3.563,9.842C5.905,8.304 5.023,2.564 -1.318,-0.203" style="fill:white;fill-rule:nonzero;"/>
        </g>
        <g transform="matrix(1,0,0,1,140.588,168.921)">
            <path d="M0,18.806C-0.528,18.708 -1.048,18.467 -1.593,18.744C-1.802,18.851 -1.826,18.653 -1.874,18.534C-2.717,16.406 -3.555,14.277 -4.396,12.15C-4.458,11.995 -4.498,11.865 -4.363,11.713C-3.061,10.251 -2.993,8.359 -2.539,6.589C-2.055,4.697 -2.318,2.958 -3.266,1.291C-3.523,0.839 -3.384,0.538 -2.99,0.269C-2.518,-0.054 -1.944,-0.115 -1.625,0.172C-0.837,0.885 -0.099,1.655 0.404,2.595C0.816,3.366 0.837,4.266 1.051,5.104C1.208,5.718 1.299,6.35 1.422,6.986C1.605,7.033 1.75,6.914 1.903,6.855C3.704,6.149 5.501,5.438 7.3,4.728C8.059,4.431 8.515,4.501 8.819,4.962C9.196,5.538 9.116,6.306 8.65,6.831C8.543,6.953 8.276,6.987 8.343,7.204C8.412,7.425 8.653,7.304 8.812,7.342C9.638,7.531 9.881,8.499 9.338,9.329C9.206,9.529 8.832,9.607 8.929,9.877C9.007,10.091 9.336,9.96 9.543,10.049C10.273,10.361 10.395,11.434 9.764,12.134C9.683,12.225 9.563,12.285 9.497,12.383C9.431,12.478 9.37,12.579 9.591,12.634C10.589,12.884 10.878,13.663 10.317,14.539C10.261,14.625 10.206,14.712 10.148,14.799C9.946,15.12 9.608,15.25 9.284,15.379C6.466,16.498 3.644,17.61 0.824,18.72C0.559,18.824 0.289,18.921 0,18.806" style="fill:rgb(254,254,254);"/>
        </g>
        <g transform="matrix(1,0,0,1,131.087,184.978)">
            <path d="M0,2.157C-0.534,0.804 -1.062,-0.551 -1.606,-1.899C-1.716,-2.173 -1.741,-2.319 -1.402,-2.447C0.256,-3.079 1.904,-3.731 3.547,-4.399C3.868,-4.53 3.963,-4.438 4.075,-4.151C5.139,-1.425 6.211,1.298 7.298,4.015C7.436,4.36 7.38,4.495 7.031,4.628C5.424,5.241 3.822,5.868 2.232,6.524C1.836,6.687 1.726,6.569 1.593,6.219C1.079,4.858 0.534,3.511 0,2.157" style="fill:rgb(61,97,211);"/>
        </g>
        <g transform="matrix(1,0,0,1,93.3911,229.235)">
            <path d="M0,18.22C-0.485,17.697 -0.849,17.028 -1.651,16.891C-1.959,16.84 -1.826,16.609 -1.784,16.445C-0.994,13.504 -0.199,10.565 0.592,7.626C0.649,7.413 0.709,7.242 0.974,7.187C3.524,6.66 5.1,4.695 6.989,3.165C9.008,1.53 10.107,-0.536 10.418,-3.066C10.504,-3.752 10.892,-3.965 11.525,-3.939C12.286,-3.909 12.947,-3.518 13.059,-2.959C13.334,-1.573 13.51,-0.163 13.302,1.239C13.129,2.389 12.436,3.367 12,4.432C11.68,5.212 11.276,5.957 10.903,6.734C11.061,6.93 11.31,6.917 11.52,6.977C14.002,7.652 16.485,8.321 18.969,8.991C20.016,9.274 20.446,9.713 20.404,10.447C20.349,11.36 19.654,12.116 18.741,12.307C18.53,12.351 18.217,12.177 18.116,12.461C18.014,12.751 18.368,12.813 18.508,12.98C19.24,13.84 18.73,15.065 17.491,15.519C17.192,15.628 16.73,15.415 16.619,15.779C16.533,16.071 16.989,16.191 17.139,16.451C17.67,17.365 16.948,18.607 15.72,18.853C15.561,18.885 15.385,18.852 15.237,18.904C15.091,18.955 14.946,19.014 15.138,19.248C16.005,20.306 15.694,21.37 14.401,21.857C14.273,21.905 14.144,21.954 14.015,22.002C13.543,22.185 13.08,22.054 12.63,21.935C8.733,20.892 4.841,19.838 0.948,18.783C0.583,18.684 0.217,18.575 0,18.22" style="fill:rgb(254,254,254);"/>
        </g>
        <g transform="matrix(1,0,0,1,83.7192,241.476)">
            <path d="M0,-2.194C0.504,-4.06 1.017,-5.927 1.505,-7.798C1.606,-8.179 1.695,-8.355 2.159,-8.222C4.43,-7.579 6.706,-6.966 8.991,-6.377C9.439,-6.26 9.466,-6.088 9.357,-5.692C8.33,-1.937 7.312,1.82 6.314,5.583C6.188,6.063 6.022,6.161 5.544,6.025C3.342,5.404 1.133,4.802 -1.084,4.24C-1.636,4.099 -1.66,3.886 -1.525,3.407C-0.993,1.546 -0.505,-0.324 0,-2.194" style="fill:rgb(61,97,211);"/>
        </g>
        <g transform="matrix(1,0,0,1,177.227,98.2053)">
            <path d="M0,18.221C-0.485,17.697 -0.849,17.029 -1.651,16.892C-1.959,16.84 -1.826,16.61 -1.784,16.446C-0.994,13.504 -0.199,10.566 0.592,7.627C0.649,7.413 0.708,7.242 0.974,7.187C3.524,6.661 5.1,4.696 6.989,3.166C9.008,1.531 10.107,-0.536 10.418,-3.066C10.504,-3.751 10.892,-3.964 11.524,-3.938C12.286,-3.908 12.946,-3.518 13.059,-2.959C13.334,-1.572 13.51,-0.162 13.302,1.24C13.129,2.389 12.436,3.367 12,4.432C11.68,5.212 11.276,5.958 10.903,6.735C11.061,6.93 11.31,6.918 11.52,6.977C14.002,7.653 16.485,8.321 18.969,8.992C20.016,9.275 20.446,9.714 20.403,10.447C20.349,11.361 19.654,12.117 18.741,12.307C18.53,12.352 18.217,12.177 18.116,12.462C18.014,12.752 18.368,12.814 18.508,12.981C19.24,13.84 18.73,15.066 17.491,15.52C17.192,15.629 16.73,15.416 16.619,15.78C16.533,16.071 16.989,16.192 17.139,16.452C17.67,17.365 16.948,18.607 15.72,18.853C15.561,18.885 15.385,18.852 15.237,18.905C15.091,18.955 14.946,19.014 15.138,19.249C16.005,20.307 15.694,21.37 14.401,21.858C14.273,21.906 14.144,21.955 14.015,22.003C13.543,22.185 13.08,22.055 12.63,21.936C8.733,20.893 4.841,19.839 0.948,18.784C0.583,18.685 0.217,18.575 0,18.221" style="fill:rgb(254,254,254);"/>
        </g>
        <g transform="matrix(1,0,0,1,167.555,110.447)">
            <path d="M0,-2.194C0.504,-4.06 1.017,-5.927 1.505,-7.798C1.606,-8.179 1.695,-8.355 2.159,-8.222C4.43,-7.579 6.706,-6.966 8.991,-6.377C9.439,-6.26 9.466,-6.088 9.357,-5.692C8.33,-1.937 7.312,1.821 6.314,5.583C6.188,6.063 6.022,6.161 5.544,6.025C3.341,5.404 1.133,4.802 -1.084,4.24C-1.636,4.099 -1.66,3.886 -1.525,3.407C-0.993,1.546 -0.505,-0.324 0,-2.194" style="fill:rgb(61,97,211);"/>
        </g>
        <g transform="matrix(1,0,0,1,128.187,287.272)">
            <path d="M0,31.385C-0.798,30.948 -1.508,30.285 -2.534,30.444C-2.927,30.505 -2.859,30.173 -2.874,29.957C-3.103,26.08 -3.327,22.205 -3.555,18.329C-3.571,18.047 -3.569,17.817 -3.271,17.643C-0.396,15.978 0.718,12.964 2.387,10.353C4.169,7.561 4.666,4.616 4.022,1.43C3.85,0.567 4.233,0.153 5.01,-0.072C5.942,-0.343 6.899,-0.136 7.261,0.495C8.154,2.062 8.934,3.698 9.247,5.476C9.502,6.937 9.058,8.4 8.96,9.864C8.887,10.937 8.699,12.002 8.561,13.093C8.83,13.266 9.126,13.149 9.405,13.137C12.681,12.952 15.954,12.76 19.23,12.572C20.611,12.491 21.308,12.849 21.552,13.752C21.855,14.881 21.319,16.075 20.291,16.675C20.054,16.814 19.605,16.729 19.598,17.114C19.591,17.505 20.044,17.438 20.28,17.582C21.513,18.328 21.39,20.016 20.074,21.066C19.757,21.318 19.111,21.246 19.124,21.731C19.137,22.119 19.738,22.081 20.024,22.335C21.035,23.226 20.662,25.02 19.275,25.813C19.096,25.914 18.87,25.947 18.711,26.07C18.556,26.191 18.403,26.32 18.73,26.526C20.207,27.457 20.26,28.868 18.891,29.98C18.756,30.09 18.619,30.201 18.482,30.311C17.985,30.722 17.372,30.751 16.78,30.788C11.645,31.097 6.51,31.392 1.374,31.684C0.893,31.712 0.406,31.728 0,31.385" style="fill:rgb(254,254,254);"/>
        </g>
        <g transform="matrix(1,0,0,1,113.19,312.219)">
            <path d="M0,0.45C-0.143,-2.01 -0.275,-4.477 -0.438,-6.937C-0.47,-7.438 -0.434,-7.687 0.181,-7.714C3.188,-7.851 6.189,-8.028 9.192,-8.236C9.781,-8.275 9.883,-8.078 9.911,-7.554C10.181,-2.597 10.466,2.36 10.776,7.314C10.817,7.946 10.655,8.133 10.021,8.16C7.107,8.297 4.191,8.458 1.282,8.673C0.558,8.725 0.444,8.475 0.414,7.841C0.307,5.377 0.143,2.917 0,0.45" style="fill:rgb(61,97,211);"/>
        </g>
        <g transform="matrix(1,0,0,1,346.592,59.74)">
            <path d="M0,31.386C-0.798,30.948 -1.508,30.286 -2.533,30.444C-2.927,30.506 -2.858,30.174 -2.874,29.958C-3.103,26.08 -3.327,22.205 -3.555,18.329C-3.571,18.048 -3.568,17.817 -3.271,17.643C-0.396,15.978 0.718,12.965 2.387,10.353C4.17,7.561 4.666,4.617 4.022,1.43C3.851,0.567 4.233,0.153 5.01,-0.072C5.942,-0.342 6.899,-0.136 7.262,0.495C8.154,2.062 8.935,3.698 9.247,5.476C9.503,6.938 9.059,8.401 8.96,9.865C8.887,10.938 8.699,12.002 8.561,13.094C8.83,13.266 9.127,13.15 9.405,13.138C12.681,12.953 15.954,12.761 19.23,12.573C20.611,12.492 21.308,12.849 21.553,13.753C21.855,14.881 21.319,16.075 20.291,16.676C20.054,16.814 19.605,16.729 19.598,17.114C19.591,17.506 20.045,17.438 20.28,17.583C21.513,18.328 21.39,20.017 20.074,21.066C19.757,21.318 19.111,21.247 19.124,21.731C19.138,22.119 19.738,22.081 20.024,22.336C21.035,23.226 20.662,25.02 19.275,25.814C19.096,25.915 18.87,25.947 18.712,26.07C18.557,26.191 18.403,26.32 18.73,26.527C20.207,27.457 20.26,28.869 18.892,29.98C18.757,30.09 18.619,30.201 18.482,30.311C17.985,30.723 17.372,30.752 16.78,30.789C11.645,31.097 6.51,31.392 1.374,31.684C0.893,31.713 0.406,31.728 0,31.386" style="fill:rgb(254,254,254);"/>
        </g>
        <g transform="matrix(1,0,0,1,331.595,84.6872)">
            <path d="M0,0.45C-0.143,-2.01 -0.274,-4.476 -0.437,-6.936C-0.47,-7.438 -0.434,-7.686 0.182,-7.715C3.188,-7.851 6.189,-8.028 9.192,-8.236C9.781,-8.275 9.884,-8.078 9.911,-7.554C10.182,-2.597 10.466,2.36 10.776,7.315C10.817,7.946 10.655,8.133 10.021,8.159C7.107,8.296 4.191,8.458 1.282,8.673C0.559,8.725 0.444,8.475 0.414,7.841C0.307,5.377 0.144,2.916 0,0.45" style="fill:rgb(61,97,211);"/>
        </g>
        <g transform="matrix(1,0,0,1,78.252,154.546)">
            <path d="M0,16.055C-0.4,15.804 -0.748,15.439 -1.284,15.49C-1.489,15.51 -1.444,15.34 -1.445,15.228C-1.448,13.213 -1.448,11.2 -1.449,9.186C-1.449,9.04 -1.44,8.919 -1.281,8.839C0.258,8.063 0.925,6.537 1.867,5.233C2.875,3.841 3.221,2.332 2.983,0.662C2.919,0.209 3.13,0.006 3.539,-0.087C4.03,-0.199 4.52,-0.063 4.688,0.275C5.103,1.113 5.458,1.984 5.566,2.914C5.655,3.679 5.382,4.422 5.286,5.178C5.216,5.731 5.087,6.278 4.982,6.838C5.117,6.936 5.274,6.885 5.419,6.887C7.12,6.889 8.821,6.888 10.523,6.888C11.24,6.888 11.591,7.095 11.691,7.571C11.813,8.163 11.5,8.766 10.95,9.046C10.823,9.11 10.593,9.052 10.577,9.251C10.563,9.454 10.799,9.433 10.917,9.515C11.532,9.938 11.418,10.809 10.705,11.313C10.534,11.433 10.201,11.378 10.193,11.629C10.189,11.829 10.5,11.827 10.641,11.969C11.138,12.46 10.891,13.377 10.148,13.748C10.053,13.795 9.935,13.804 9.849,13.863C9.765,13.92 9.682,13.983 9.846,14.099C10.583,14.626 10.567,15.359 9.825,15.893C9.752,15.946 9.678,15.999 9.604,16.053C9.333,16.25 9.015,16.247 8.707,16.248C6.039,16.254 3.371,16.252 0.703,16.25C0.453,16.25 0.2,16.242 0,16.055" style="fill:rgb(254,254,254);"/>
        </g>
        <g transform="matrix(1,0,0,1,70.665,167.124)">
            <path d="M0,-0.075C0,-1.354 0.006,-2.635 -0.004,-3.914C-0.006,-4.175 0.021,-4.302 0.339,-4.299C1.901,-4.28 3.46,-4.28 5.021,-4.297C5.328,-4.3 5.375,-4.195 5.373,-3.923C5.364,-1.347 5.362,1.227 5.375,3.803C5.377,4.13 5.288,4.223 4.958,4.217C3.444,4.2 1.931,4.197 0.417,4.221C0.041,4.227 -0.011,4.094 -0.007,3.765C0.012,2.485 0,1.206 0,-0.075" style="fill:rgb(61,97,211);"/>
        </g>
        <g transform="matrix(0,-1,-1,0,154.119,244.951)">
            <path d="M-18.524,-18.525C-28.754,-18.525 -37.049,-10.231 -37.049,-0.001C-37.049,10.23 -28.754,18.524 -18.524,18.524C-8.294,18.524 0,10.23 0,-0.001C0,-10.231 -8.294,-18.525 -18.524,-18.525" style="fill:rgb(255,205,46);fill-rule:nonzero;"/>
        </g>
        <g transform="matrix(1,0,0,1,167.122,278.034)">
            <path d="M0,-12.996C0,-9.885 -1.091,-7.036 -2.915,-4.797C-5.292,-1.873 -8.933,0 -13.004,0C-17.076,0 -20.715,-1.873 -23.093,-4.797C-24.917,-7.036 -26.008,-9.885 -26.008,-12.996L0,-12.996Z" style="fill:rgb(61,0,11);fill-rule:nonzero;"/>
        </g>
        <g transform="matrix(0,-1,-1,0,154.121,263.145)">
            <path d="M-10.093,-10.086C-13.017,-7.709 -14.89,-4.068 -14.89,0.004C-14.89,4.076 -13.017,7.715 -10.093,10.093C-7.162,7.715 -5.289,4.082 -5.289,0.004C-5.289,-4.076 -7.162,-7.709 -10.093,-10.086" style="fill:rgb(255,161,181);fill-rule:nonzero;"/>
        </g>
        <g transform="matrix(1,0,0,1,150.357,257.661)">
            <path d="M0,2.117C0,2.15 -0.009,2.182 -0.009,2.207C-0.033,2.467 -0.172,2.712 -0.464,2.826C-0.497,2.841 -0.538,2.858 -0.579,2.865L-0.733,2.906L-8.241,4.933C-9.25,5.203 -9.674,3.639 -8.665,3.363L-2.915,1.815L-8.086,-1.165C-8.99,-1.686 -8.175,-3.086 -7.272,-2.565L-0.538,1.31C-0.407,1.351 -0.302,1.433 -0.212,1.531C-0.204,1.539 -0.196,1.547 -0.196,1.555C-0.033,1.718 0.016,1.921 0,2.117" style="fill:rgb(61,0,11);fill-rule:nonzero;"/>
        </g>
        <g transform="matrix(1,0,0,1,157.88,257.661)">
            <path d="M0,2.117C0,2.15 0.009,2.182 0.009,2.207C0.033,2.467 0.172,2.712 0.464,2.826C0.497,2.841 0.538,2.858 0.579,2.865L0.733,2.906L8.241,4.933C9.25,5.203 9.674,3.639 8.664,3.363L2.916,1.815L8.086,-1.165C8.989,-1.686 8.175,-3.086 7.272,-2.565L0.538,1.31C0.407,1.351 0.301,1.433 0.212,1.531C0.204,1.539 0.196,1.547 0.196,1.555C0.033,1.718 -0.016,1.921 0,2.117" style="fill:rgb(61,0,11);fill-rule:nonzero;"/>
        </g>
        <g transform="matrix(0.280704,-0.959794,-0.959794,-0.280704,110.898,185.941)">
            <path d="M-12.173,-9.122C-19.177,-9.122 -24.855,-3.444 -24.854,3.56C-24.855,10.565 -19.177,16.242 -12.173,16.242C-5.168,16.242 0.51,10.564 0.51,3.561C0.509,-3.444 -5.168,-9.122 -12.173,-9.122" style="fill:rgb(255,205,46);fill-rule:nonzero;"/>
        </g>
        <g transform="matrix(1,0,0,1,112.308,201.975)">
            <path d="M0,-1.824C-0.598,0.22 -1.862,1.883 -3.491,3.004C-5.615,4.468 -8.367,4.999 -11.042,4.217C-13.717,3.434 -15.749,1.504 -16.75,-0.874C-17.518,-2.696 -17.687,-4.778 -17.089,-6.823L0,-1.824Z" style="fill:rgb(61,0,11);fill-rule:nonzero;"/>
        </g>
        <g transform="matrix(0.28072,-0.95979,-0.95979,-0.28072,105.913,197.219)">
            <path d="M-6.633,-4.966C-8.634,-3.338 -9.916,-0.846 -9.917,1.941C-9.916,4.728 -8.634,7.22 -6.633,8.849C-4.626,7.221 -3.343,4.734 -3.344,1.941C-3.343,-0.852 -4.626,-3.338 -6.633,-4.966" style="fill:rgb(255,161,181);fill-rule:nonzero;"/>
        </g>
        <g transform="matrix(1,0,0,1,102.302,188.867)">
            <path d="M0,4.606C-0.006,4.627 -0.018,4.648 -0.023,4.664C-0.088,4.83 -0.227,4.964 -0.441,4.982C-0.466,4.986 -0.496,4.99 -0.524,4.987L-0.633,4.984L-5.956,4.875C-6.671,4.856 -6.649,3.748 -5.932,3.76L-1.857,3.848L-4.683,0.896C-5.175,0.38 -4.372,-0.384 -3.878,0.132L-0.198,3.973C-0.12,4.025 -0.066,4.099 -0.026,4.18C-0.022,4.187 -0.019,4.194 -0.02,4.199C0.056,4.337 0.048,4.481 0,4.606" style="fill:rgb(61,0,11);fill-rule:nonzero;"/>
        </g>
        <g transform="matrix(1,0,0,1,107.247,196.877)">
            <path d="M0,-1.958C-0.006,-1.937 -0.007,-1.913 -0.012,-1.897C-0.046,-1.722 -0.002,-1.534 0.168,-1.403C0.187,-1.386 0.21,-1.368 0.235,-1.354L0.33,-1.298L4.873,1.477C5.485,1.848 6.064,0.902 5.454,0.526L1.973,-1.596L5.944,-2.561C6.637,-2.729 6.371,-3.806 5.678,-3.637L0.507,-2.384C0.414,-2.383 0.329,-2.349 0.251,-2.302C0.245,-2.298 0.237,-2.295 0.236,-2.29C0.098,-2.214 0.026,-2.089 0,-1.958" style="fill:rgb(61,0,11);fill-rule:nonzero;"/>
        </g>
        <g transform="matrix(-0.125291,-0.99212,-0.99212,0.125291,213.426,70.9287)">
            <path d="M-12.583,-14.271C-19.587,-14.271 -25.264,-8.594 -25.265,-1.59C-25.265,5.416 -19.587,11.093 -12.583,11.093C-5.578,11.093 0.1,5.416 0.1,-1.59C0.1,-8.594 -5.578,-14.272 -12.583,-14.271" style="fill:rgb(255,205,46);fill-rule:nonzero;"/>
        </g>
        <g transform="matrix(1,0,0,1,225.545,93.4512)">
            <path d="M0,-10.292C0.267,-8.179 -0.229,-6.15 -1.276,-4.473C-2.64,-2.283 -4.953,-0.699 -7.717,-0.349C-10.483,0 -13.116,-0.96 -14.981,-2.742C-16.413,-4.106 -17.398,-5.948 -17.665,-8.061L0,-10.292Z" style="fill:rgb(61,0,11);fill-rule:nonzero;"/>
        </g>
        <g transform="matrix(-0.125309,-0.992118,-0.992118,0.125309,215.702,83.1506)">
            <path d="M-6.855,-7.769C-8.856,-6.142 -10.139,-3.649 -10.14,-0.862C-10.14,1.926 -8.856,4.417 -6.855,6.045C-4.849,4.418 -3.566,1.931 -3.567,-0.862C-3.566,-3.655 -4.848,-6.142 -6.855,-7.769" style="fill:rgb(255,161,181);fill-rule:nonzero;"/>
        </g>
        <g transform="matrix(1,0,0,1,213.706,81.0814)">
            <path d="M0,-0.057C0.003,-0.035 0,-0.012 0.002,0.005C0.008,0.184 -0.065,0.361 -0.254,0.464C-0.275,0.478 -0.302,0.492 -0.329,0.502L-0.43,0.543L-5.355,2.564C-6.018,2.833 -6.44,1.807 -5.778,1.532L-2.006,-0.012L-5.774,-1.593C-6.431,-1.869 -5.999,-2.89 -5.34,-2.614L-0.434,-0.559C-0.342,-0.542 -0.263,-0.495 -0.194,-0.437C-0.187,-0.432 -0.182,-0.427 -0.181,-0.422C-0.056,-0.326 -0.006,-0.191 0,-0.057" style="fill:rgb(61,0,11);fill-rule:nonzero;"/>
        </g>
        <g transform="matrix(1,0,0,1,218.817,77.4469)">
            <path d="M0,2.932C0.003,2.954 0.011,2.976 0.014,2.992C0.052,3.167 0.168,3.322 0.376,3.373C0.399,3.382 0.428,3.389 0.457,3.391L0.566,3.406L5.839,4.139C6.548,4.235 6.702,3.137 5.992,3.036L1.954,2.477L5.211,0.009C5.78,-0.422 5.106,-1.303 4.538,-0.872L0.295,2.338C0.211,2.377 0.146,2.442 0.094,2.516C0.089,2.522 0.083,2.528 0.084,2.534C-0.012,2.658 -0.028,2.801 0,2.932" style="fill:rgb(61,0,11);fill-rule:nonzero;"/>
        </g>
        <g transform="matrix(-0.15095,-0.988541,-0.988541,0.15095,137.695,136.144)">
            <path d="M-8.622,-10.038C-13.439,-10.038 -17.343,-6.133 -17.343,-1.316C-17.343,3.501 -13.438,7.405 -8.622,7.405C-3.804,7.405 0.1,3.501 0.1,-1.317C0.1,-6.134 -3.805,-10.038 -8.622,-10.038" style="fill:rgb(255,205,46);fill-rule:nonzero;"/>
        </g>
        <g transform="matrix(1,0,0,1,146.46,151.533)">
            <path d="M0,-7.261C0.221,-5.813 -0.083,-4.409 -0.774,-3.238C-1.672,-1.709 -3.234,-0.578 -5.128,-0.289C-7.023,0 -8.85,-0.613 -10.165,-1.804C-11.173,-2.717 -11.883,-3.966 -12.104,-5.413L0,-7.261Z" style="fill:rgb(61,0,11);fill-rule:nonzero;"/>
        </g>
        <g transform="matrix(-0.15095,-0.988541,-0.988541,0.15095,139.575,144.476)">
            <path d="M-4.698,-5.464C-6.074,-4.346 -6.956,-2.631 -6.956,-0.715C-6.955,1.203 -6.074,2.916 -4.698,4.036C-3.317,2.916 -2.436,1.207 -2.436,-0.714C-2.436,-2.635 -3.317,-4.346 -4.698,-5.464" style="fill:rgb(255,161,181);fill-rule:nonzero;"/>
        </g>
        <g transform="matrix(1,0,0,1,138.283,143.268)">
            <path d="M0,-0.254C0.003,-0.238 0.001,-0.222 0.003,-0.211C0.01,-0.088 -0.037,0.035 -0.165,0.109C-0.179,0.12 -0.197,0.13 -0.216,0.136L-0.284,0.166L-3.634,1.643C-4.085,1.84 -4.394,1.142 -3.943,0.942L-1.378,-0.187L-3.996,-1.207C-4.453,-1.384 -4.174,-2.094 -3.716,-1.916L-0.307,-0.59C-0.243,-0.581 -0.188,-0.55 -0.14,-0.511C-0.135,-0.508 -0.131,-0.505 -0.13,-0.502C-0.043,-0.437 -0.006,-0.346 0,-0.254" style="fill:rgb(61,0,11);fill-rule:nonzero;"/>
        </g>
        <g transform="matrix(1,0,0,1,141.785,140.258)">
            <path d="M0,2.222C0.002,2.238 0.009,2.252 0.01,2.264C0.04,2.383 0.122,2.487 0.267,2.519C0.283,2.524 0.303,2.529 0.322,2.53L0.397,2.538L4.035,2.949C4.524,3.001 4.61,2.244 4.121,2.187L1.335,1.876L3.53,0.12C3.914,-0.186 3.435,-0.779 3.051,-0.473L0.193,1.809C0.135,1.837 0.091,1.883 0.057,1.935C0.053,1.939 0.05,1.944 0.051,1.947C-0.013,2.035 -0.021,2.133 0,2.222" style="fill:rgb(61,0,11);fill-rule:nonzero;"/>
        </g>
    </g>
</svg>
