<?xml version="1.0" encoding="UTF-8" standalone="no"?>
<!DOCTYPE svg PUBLIC "-//W3C//DTD SVG 1.1//EN" "http://www.w3.org/Graphics/SVG/1.1/DTD/svg11.dtd">
<svg width="100%" height="100%" viewBox="0 0 3139 2758" version="1.1" xmlns="http://www.w3.org/2000/svg" xmlns:xlink="http://www.w3.org/1999/xlink" xml:space="preserve" xmlns:serif="http://www.serif.com/" style="fill-rule:evenodd;clip-rule:evenodd;stroke-linejoin:round;stroke-miterlimit:2;">
    <g transform="matrix(4.16667,0,0,4.16667,-6745,-479)">
        <g transform="matrix(1,0,0,1,-56.4278,-535.386)">
            <path d="M1997.52,696.714C1866.69,696.714 1756.42,784.722 1722.66,904.764L1804.18,982.209L1722.11,1057.61C1755.18,1178.69 1865.95,1267.7 1997.52,1267.7C2155.19,1267.7 2283.01,1139.88 2283.01,982.209C2283.01,824.535 2155.19,696.714 1997.52,696.714Z" style="fill:rgb(255,229,36);fill-rule:nonzero;"/>
        </g>
        <g transform="matrix(1,0,0,1,-56.4278,-535.386)">
            <path d="M1992.97,1301.67C1983.1,1301.48 1973.14,1300.82 1963.37,1299.73C1961.18,1299.46 1959.19,1301.06 1958.94,1303.26C1958.7,1305.46 1960.28,1307.44 1962.48,1307.69C1972.49,1308.81 1982.69,1309.49 1992.81,1309.69L1992.9,1309.69C1995.07,1309.69 1996.86,1307.95 1996.9,1305.76C1996.94,1303.55 1995.19,1301.72 1992.97,1301.67Z" style="fill:rgb(19,54,93);fill-rule:nonzero;"/>
        </g>
        <g transform="matrix(1,0,0,1,-56.4278,-535.386)">
            <path d="M2052.1,1297.45C2042.39,1299.05 2032.48,1300.22 2022.63,1300.92C2020.43,1301.08 2018.77,1302.99 2018.92,1305.2C2019.07,1307.31 2020.83,1308.92 2022.92,1308.92C2023.01,1308.92 2023.11,1308.92 2023.2,1308.91C2033.29,1308.19 2043.45,1307 2053.4,1305.35C2055.58,1304.99 2057.06,1302.93 2056.7,1300.75C2056.34,1298.57 2054.29,1297.08 2052.1,1297.45Z" style="fill:rgb(19,54,93);fill-rule:nonzero;"/>
        </g>
        <g transform="matrix(1,0,0,1,-56.4278,-535.386)">
            <path d="M1824.94,1250.08C1816.68,1244.71 1808.58,1238.89 1800.84,1232.77C1799.1,1231.39 1796.58,1231.69 1795.21,1233.42C1793.84,1235.16 1794.13,1237.68 1795.87,1239.05C1803.8,1245.32 1812.11,1251.29 1820.57,1256.8C1821.24,1257.24 1822,1257.45 1822.75,1257.45C1824.06,1257.45 1825.34,1256.8 1826.11,1255.62C1827.32,1253.77 1826.79,1251.29 1824.94,1250.08Z" style="fill:rgb(19,54,93);fill-rule:nonzero;"/>
        </g>
        <g transform="matrix(1,0,0,1,-56.4278,-535.386)">
            <path d="M1877.4,1277.67C1868.3,1273.91 1859.26,1269.68 1850.53,1265.09C1848.57,1264.06 1846.15,1264.81 1845.12,1266.77C1844.09,1268.73 1844.84,1271.15 1846.8,1272.18C1855.75,1276.89 1865.02,1281.23 1874.35,1285.08C1874.85,1285.28 1875.37,1285.38 1875.88,1285.38C1877.45,1285.38 1878.94,1284.44 1879.58,1282.9C1880.42,1280.85 1879.45,1278.51 1877.4,1277.67Z" style="fill:rgb(19,54,93);fill-rule:nonzero;"/>
        </g>
        <g transform="matrix(1,0,0,1,-56.4278,-535.386)">
            <path d="M1697.99,1090.24C1697.24,1088.16 1694.94,1087.08 1692.86,1087.83C1690.78,1088.59 1689.7,1090.88 1690.46,1092.96C1693.89,1102.46 1697.81,1111.9 1702.11,1121.04C1702.8,1122.49 1704.24,1123.34 1705.74,1123.34C1706.31,1123.34 1706.89,1123.21 1707.45,1122.95C1709.45,1122.01 1710.31,1119.62 1709.36,1117.62C1705.17,1108.71 1701.34,1099.5 1697.99,1090.24Z" style="fill:rgb(19,54,93);fill-rule:nonzero;"/>
        </g>
        <g transform="matrix(1,0,0,1,-56.4278,-535.386)">
            <path d="M1723.23,1143.83C1722.11,1141.93 1719.65,1141.3 1717.74,1142.42C1715.84,1143.54 1715.21,1146 1716.33,1147.91C1721.46,1156.6 1727.06,1165.16 1732.97,1173.35C1733.75,1174.43 1734.98,1175.01 1736.22,1175.01C1737.03,1175.01 1737.85,1174.76 1738.56,1174.25C1740.36,1172.96 1740.76,1170.45 1739.47,1168.66C1733.7,1160.67 1728.24,1152.32 1723.23,1143.83Z" style="fill:rgb(19,54,93);fill-rule:nonzero;"/>
        </g>
        <g transform="matrix(1,0,0,1,-56.4278,-535.386)">
            <path d="M1757.92,1191.88C1756.47,1190.21 1753.94,1190.04 1752.27,1191.5C1750.6,1192.95 1750.43,1195.48 1751.88,1197.15C1758.52,1204.75 1765.59,1212.14 1772.91,1219.11C1773.69,1219.85 1774.68,1220.22 1775.67,1220.22C1776.73,1220.22 1777.79,1219.8 1778.57,1218.97C1780.1,1217.37 1780.04,1214.84 1778.44,1213.31C1771.3,1206.51 1764.4,1199.3 1757.92,1191.88Z" style="fill:rgb(19,54,93);fill-rule:nonzero;"/>
        </g>
        <g transform="matrix(1,0,0,1,-56.4278,-535.386)">
            <path d="M1934.08,1295.06C1924.43,1293.06 1914.76,1290.58 1905.34,1287.68C1903.22,1287.04 1900.98,1288.22 1900.33,1290.34C1899.68,1292.46 1900.87,1294.7 1902.98,1295.35C1912.64,1298.31 1922.56,1300.85 1932.45,1302.91C1932.73,1302.96 1933,1302.99 1933.27,1302.99C1935.13,1302.99 1936.8,1301.69 1937.19,1299.8C1937.64,1297.63 1936.25,1295.51 1934.08,1295.06Z" style="fill:rgb(19,54,93);fill-rule:nonzero;"/>
        </g>
        <g transform="matrix(1,0,0,1,-56.4278,-535.386)">
            <path d="M2311.35,1071.9C2309.23,1071.26 2306.99,1072.46 2306.35,1074.58C2303.5,1084 2300.17,1093.41 2296.45,1102.54C2295.61,1104.59 2296.59,1106.93 2298.64,1107.76C2299.14,1107.97 2299.65,1108.06 2300.15,1108.06C2301.73,1108.06 2303.23,1107.12 2303.87,1105.57C2307.68,1096.21 2311.1,1086.56 2314.02,1076.9C2314.66,1074.78 2313.46,1072.54 2311.35,1071.9Z" style="fill:rgb(19,54,93);fill-rule:nonzero;"/>
        </g>
        <g transform="matrix(1,0,0,1,-56.4278,-535.386)">
            <path d="M2289.38,1127.76C2287.43,1126.74 2285,1127.5 2283.98,1129.46C2282.53,1132.24 2281.02,1135.04 2279.49,1137.79L2275.87,1143.67C2273.63,1147.47 2271.28,1151.28 2268.88,1155C2267.67,1156.86 2268.21,1159.34 2270.07,1160.54C2270.74,1160.98 2271.49,1161.19 2272.24,1161.19C2273.55,1161.19 2274.84,1160.54 2275.61,1159.35C2278.07,1155.54 2280.48,1151.63 2282.74,1147.8L2286.36,1141.91L2286.44,1141.77C2288.03,1138.93 2289.59,1136.04 2291.09,1133.17C2292.11,1131.2 2291.35,1128.78 2289.38,1127.76Z" style="fill:rgb(19,54,93);fill-rule:nonzero;"/>
        </g>
        <g transform="matrix(1,0,0,1,-56.4278,-535.386)">
            <path d="M2322.58,1012.93C2320.39,1012.7 2318.4,1014.29 2318.16,1016.49C2317.1,1026.3 2315.57,1036.16 2313.61,1045.81C2313.17,1047.98 2314.57,1050.09 2316.74,1050.53C2317.01,1050.59 2317.28,1050.61 2317.54,1050.61C2319.41,1050.61 2321.08,1049.3 2321.46,1047.4C2323.47,1037.52 2325.04,1027.4 2326.13,1017.35C2326.37,1015.15 2324.78,1013.17 2322.58,1012.93Z" style="fill:rgb(19,54,93);fill-rule:nonzero;"/>
        </g>
        <g transform="matrix(1,0,0,1,-56.4278,-535.386)">
            <path d="M2109.4,1282.41C2100.15,1285.78 2090.64,1288.76 2081.11,1291.26C2078.97,1291.82 2077.69,1294.01 2078.25,1296.15C2078.72,1297.95 2080.35,1299.14 2082.12,1299.14C2082.46,1299.14 2082.8,1299.1 2083.14,1299.01C2092.91,1296.45 2102.67,1293.39 2112.14,1289.93C2114.22,1289.18 2115.29,1286.88 2114.54,1284.8C2113.78,1282.72 2111.47,1281.65 2109.4,1282.41Z" style="fill:rgb(19,54,93);fill-rule:nonzero;"/>
        </g>
        <g transform="matrix(1,0,0,1,-56.4278,-535.386)">
            <path d="M2257.26,1178.48C2255.52,1177.11 2253,1177.41 2251.63,1179.15C2245.54,1186.9 2239.02,1194.45 2232.24,1201.61C2230.72,1203.21 2230.79,1205.75 2232.39,1207.27C2233.17,1208.01 2234.16,1208.37 2235.15,1208.37C2236.21,1208.37 2237.27,1207.95 2238.06,1207.12C2245,1199.78 2251.69,1192.04 2257.93,1184.1C2259.3,1182.36 2259,1179.84 2257.26,1178.48Z" style="fill:rgb(19,54,93);fill-rule:nonzero;"/>
        </g>
        <g transform="matrix(1,0,0,1,-56.4278,-535.386)">
            <path d="M2162.92,1257.01C2154.45,1262.05 2145.64,1266.74 2136.75,1270.96C2134.75,1271.91 2133.89,1274.29 2134.84,1276.29C2135.53,1277.74 2136.97,1278.58 2138.47,1278.58C2139.04,1278.58 2139.63,1278.46 2140.18,1278.2C2149.3,1273.87 2158.33,1269.06 2167.01,1263.91C2168.91,1262.78 2169.54,1260.32 2168.41,1258.41C2167.28,1256.51 2164.82,1255.88 2162.92,1257.01Z" style="fill:rgb(19,54,93);fill-rule:nonzero;"/>
        </g>
        <g transform="matrix(1,0,0,1,-56.4278,-535.386)">
            <path d="M2210.87,1222.18C2203.46,1228.68 2195.67,1234.92 2187.69,1240.71C2185.9,1242.01 2185.51,1244.52 2186.81,1246.31C2187.59,1247.38 2188.81,1247.96 2190.05,1247.96C2190.87,1247.96 2191.69,1247.71 2192.4,1247.19C2200.57,1241.25 2208.56,1234.87 2216.15,1228.21C2217.81,1226.75 2217.98,1224.22 2216.52,1222.55C2215.06,1220.89 2212.53,1220.72 2210.87,1222.18Z" style="fill:rgb(19,54,93);fill-rule:nonzero;"/>
        </g>
        <g transform="matrix(1,0,0,1,-56.4278,-535.386)">
            <path d="M2427.26,981.708L2352.13,908.081L2352.13,974.109L2331.47,974.109C2330.24,918.069 2315.18,864.346 2287.94,816.841C2287.79,816.419 2287.61,816.003 2287.38,815.601C2258.73,765.917 2217.49,724.242 2168.09,695.078C2117.21,665.035 2058.92,649.154 1999.5,649.154C1961.06,649.154 1923.39,655.667 1887.52,668.512C1852.86,680.925 1820.67,698.954 1791.83,722.096C1734.1,768.424 1693.05,833.396 1676.24,905.042C1675.64,907.594 1676.41,910.272 1678.28,912.112L1748.04,980.792L1678.11,1049.61C1675.16,1052.52 1675.12,1057.27 1678.03,1060.23C1679.5,1061.72 1681.44,1062.47 1683.38,1062.47C1685.29,1062.47 1687.19,1061.75 1688.65,1060.32L1764.02,986.147C1765.45,984.735 1766.26,982.807 1766.26,980.794C1766.26,978.78 1765.45,976.852 1764.02,975.438L1691.85,904.388C1726.84,763.511 1851.58,665.266 1997.13,664.205C1997.87,664.455 1998.67,664.595 1999.5,664.595C2174.31,664.595 2316.53,806.813 2316.53,981.622C2316.53,985.771 2319.89,989.135 2324.04,989.135L2352.13,989.135L2352.13,1055.34L2427.26,981.708Z" style="fill:rgb(0,97,255);fill-rule:nonzero;"/>
        </g>
        <g transform="matrix(0.999999,0,0,0.999999,595.437,-1286.38)">
            <path d="M1325.46,1869.35C1315.47,1869.35 1306.82,1862.42 1304.67,1852.64L1288.93,1780.22L1286.57,1769.27L1330.08,1769.27L1332.5,1780.22L1335.78,1795.21L1342.6,1826.64L1346.25,1843.56C1349.16,1856.83 1339.06,1869.35 1325.46,1869.35Z" style="fill:rgb(244,142,158);fill-rule:nonzero;"/>
        </g>
        <g transform="matrix(0.999999,0,0,0.999999,595.437,-1286.38)">
            <path d="M1325.46,1869.35C1315.47,1869.35 1306.82,1862.42 1304.67,1852.64L1302.05,1840.58L1305.62,1840.58C1308.74,1848.71 1316.55,1854.25 1325.46,1854.25C1334.74,1854.25 1342.32,1848.45 1345.3,1840.58L1345.6,1840.58L1346.25,1843.56C1346.59,1845.12 1346.76,1846.66 1346.75,1848.18C1346.74,1859.59 1337.46,1869.35 1325.46,1869.35Z" style="fill:rgb(229,128,143);fill-rule:nonzero;"/>
        </g>
        <g transform="matrix(0.999999,0,0,0.999999,595.437,-1286.38)">
            <path d="M1343.88,1684.65L1343.88,1769.29L1279.85,1769.29C1275.3,1769.29 1271.61,1765.6 1271.61,1761.05L1271.61,1692.89C1271.61,1688.34 1275.3,1684.65 1279.85,1684.65L1343.88,1684.65Z" style="fill:rgb(226,118,121);fill-rule:nonzero;"/>
        </g>
        <g transform="matrix(0.999999,0,0,0.999999,595.437,-1286.38)">
            <path d="M1271.64,1706.68L1271.64,1695.56L1271.64,1692.88C1271.64,1688.36 1275.29,1684.66 1279.86,1684.66L1343.88,1684.66L1343.88,1701.74L1279.86,1701.74C1275.29,1701.74 1271.64,1703.94 1271.64,1706.68Z" style="fill:rgb(239,173,175);fill-rule:nonzero;"/>
        </g>
        <g transform="matrix(0.999999,0,0,0.999999,595.437,-1286.38)">
            <path d="M1343.88,1769.27L1279.86,1769.27C1275.29,1769.27 1271.64,1765.61 1271.64,1761.05L1271.64,1758.36L1271.64,1747.29C1271.64,1749.98 1275.29,1752.18 1279.86,1752.18L1343.88,1752.18L1343.88,1769.27Z" style="fill:rgb(206,106,110);fill-rule:nonzero;"/>
        </g>
        <g transform="matrix(0.999999,0,0,0.999999,595.437,-1286.38)">
            <path d="M1332.5,1780.22L1288.93,1780.22L1286.58,1769.29L1330.09,1769.29L1332.5,1780.22Z" style="fill:rgb(229,128,143);fill-rule:nonzero;"/>
        </g>
        <g transform="matrix(0.999999,0,0,0.999999,595.437,-1286.38)">
            <path d="M1330.09,1769.29L1286.58,1769.29L1286.57,1769.27L1330.08,1769.27L1330.09,1769.29Z" style="fill:rgb(206,106,110);fill-rule:nonzero;"/>
        </g>
        <g transform="matrix(0.999999,0,0,0.999999,595.437,-1286.38)">
            <path d="M1252.71,1702.61L1252.71,1751.34C1252.71,1755.22 1255.86,1758.38 1259.75,1758.38L1271.61,1758.38L1271.61,1695.57L1259.75,1695.57C1255.86,1695.57 1252.71,1698.72 1252.71,1702.61Z" style="fill:rgb(203,210,233);fill-rule:nonzero;"/>
        </g>
        <g transform="matrix(0.999999,0,0,0.999999,595.437,-1286.38)">
            <path d="M1256.33,1696.45C1257.34,1695.89 1258.51,1695.56 1259.76,1695.56L1271.61,1695.56L1271.61,1695.57L1259.75,1695.57C1258.51,1695.57 1257.34,1695.89 1256.33,1696.45Z" style="fill:white;fill-rule:nonzero;"/>
        </g>
        <g transform="matrix(0.999999,0,0,0.999999,595.437,-1286.38)">
            <path d="M1271.64,1710.23L1271.61,1710.23L1271.61,1695.57L1271.61,1695.56L1271.64,1695.56L1271.64,1710.23Z" style="fill:rgb(239,173,175);fill-rule:nonzero;"/>
        </g>
        <g transform="matrix(0.999999,0,0,0.999999,595.437,-1286.38)">
            <path d="M1252.73,1713.99L1252.73,1702.6C1252.73,1699.97 1254.17,1697.66 1256.33,1696.45C1257.34,1695.89 1258.51,1695.57 1259.75,1695.57L1271.61,1695.57L1271.61,1710.23L1259.76,1710.23C1255.84,1710.23 1252.73,1711.89 1252.73,1713.99Z" style="fill:rgb(223,227,241);fill-rule:nonzero;"/>
        </g>
        <g transform="matrix(0.999999,0,0,0.999999,595.437,-1286.38)">
            <path d="M1271.64,1758.36L1271.61,1758.36L1271.61,1743.75L1271.64,1743.75L1271.64,1758.36Z" style="fill:rgb(206,106,110);fill-rule:nonzero;"/>
        </g>
        <g transform="matrix(0.999999,0,0,0.999999,595.437,-1286.38)">
            <path d="M1271.61,1758.36L1259.76,1758.36C1255.84,1758.36 1252.73,1755.24 1252.73,1751.32L1252.73,1739.99C1252.73,1742.03 1255.84,1743.75 1259.76,1743.75L1271.61,1743.75L1271.61,1758.36Z" style="fill:rgb(182,189,208);fill-rule:nonzero;"/>
        </g>
        <g transform="matrix(0.999999,0,0,0.999999,595.437,-1286.38)">
            <path d="M1467.14,1634.81L1467.14,1819.13C1467.14,1828.8 1456.65,1834.84 1448.29,1829.97L1343.88,1769.29L1343.88,1684.65L1448.29,1623.97C1456.65,1619.11 1467.14,1625.14 1467.14,1634.81Z" style="fill:rgb(203,210,233);fill-rule:nonzero;"/>
        </g>
        <g transform="matrix(0.999999,0,0,0.999999,595.437,-1286.38)">
            <path d="M1448.29,1623.97L1438.87,1629.44L1438.87,1824.5L1448.29,1829.97C1456.65,1834.83 1467.14,1828.8 1467.14,1819.13L1467.14,1634.81C1467.14,1625.14 1456.65,1619.11 1448.29,1623.97Z" style="fill:rgb(151,189,228);fill-rule:nonzero;"/>
        </g>
        <g transform="matrix(0.999999,0,0,0.999999,595.437,-1286.38)">
            <path d="M1374.59,1666.8L1448.27,1623.95C1450.3,1622.78 1452.45,1622.25 1454.55,1622.25C1455.17,1622.25 1455.78,1622.29 1456.39,1622.38C1455.79,1622.3 1455.18,1622.25 1454.57,1622.25C1453.07,1622.25 1451.55,1622.52 1450.06,1623.11C1449.46,1623.34 1448.87,1623.63 1448.29,1623.97L1442.69,1627.22L1438.87,1629.44L1374.59,1666.8Z" style="fill:white;fill-rule:nonzero;"/>
        </g>
        <g transform="matrix(0.999999,0,0,0.999999,595.437,-1286.38)">
            <path d="M1343.89,1696.64L1343.89,1684.66L1374.59,1666.8L1438.87,1629.44L1438.87,1657.09L1343.89,1696.64ZM1442.69,1627.22L1448.29,1623.97C1448.87,1623.63 1449.46,1623.34 1450.06,1623.11C1449.46,1623.34 1448.87,1623.63 1448.29,1623.97L1442.69,1627.22Z" style="fill:rgb(223,227,241);fill-rule:nonzero;"/>
        </g>
        <g transform="matrix(0.999999,0,0,0.999999,595.437,-1286.38)">
            <path d="M1467.12,1660.91C1467.12,1655.67 1461.13,1651.94 1454.59,1651.94C1452.48,1651.94 1450.31,1652.32 1448.27,1653.18L1438.87,1657.09L1438.87,1629.44L1442.69,1627.22L1448.29,1623.97C1448.87,1623.63 1449.46,1623.34 1450.06,1623.11C1451.55,1622.52 1453.07,1622.25 1454.57,1622.25C1455.18,1622.25 1455.79,1622.3 1456.39,1622.38C1462.19,1623.25 1467.12,1628.17 1467.12,1634.8L1467.12,1660.91Z" style="fill:rgb(191,216,240);fill-rule:nonzero;"/>
        </g>
        <g transform="matrix(0.999999,0,0,0.999999,595.437,-1286.38)">
            <path d="M1454.56,1831.7C1452.46,1831.7 1450.3,1831.16 1448.27,1829.97L1431.72,1820.35L1448.29,1829.97C1450.32,1831.15 1452.47,1831.69 1454.57,1831.69C1456.07,1831.69 1457.54,1831.42 1458.92,1830.91C1457.54,1831.42 1456.07,1831.7 1454.56,1831.7Z" style="fill:rgb(229,229,229);fill-rule:nonzero;"/>
        </g>
        <g transform="matrix(0.999999,0,0,0.999999,595.437,-1286.38)">
            <path d="M1454.57,1831.69C1452.47,1831.69 1450.32,1831.15 1448.29,1829.97L1431.72,1820.35L1343.89,1769.27L1343.89,1757.29L1438.87,1796.88L1438.87,1824.5L1448.29,1829.97C1450.32,1831.15 1452.47,1831.69 1454.57,1831.69C1456.11,1831.69 1457.61,1831.4 1459.02,1830.87C1458.98,1830.88 1458.95,1830.9 1458.92,1830.91C1457.54,1831.42 1456.07,1831.69 1454.57,1831.69Z" style="fill:rgb(182,189,208);fill-rule:nonzero;"/>
        </g>
        <g transform="matrix(0.999999,0,0,0.999999,595.437,-1286.38)">
            <path d="M1454.57,1831.69C1452.47,1831.69 1450.32,1831.15 1448.29,1829.97L1438.87,1824.5L1438.87,1796.88L1448.27,1800.8C1450.3,1801.65 1452.45,1802.03 1454.55,1802.03C1461.11,1802.03 1467.12,1798.26 1467.12,1793.01L1467.12,1819.12C1467.12,1824.72 1463.61,1829.12 1459.02,1830.87C1457.61,1831.4 1456.11,1831.69 1454.57,1831.69Z" style="fill:rgb(130,171,218);fill-rule:nonzero;"/>
        </g>
        <g transform="matrix(0.999999,0,0,0.999999,595.437,-1286.38)">
            <path d="M1467.14,1686.44L1467.14,1767.5C1482.23,1760.24 1492.68,1744.85 1492.68,1726.97C1492.68,1709.09 1482.23,1693.71 1467.14,1686.44Z" style="fill:rgb(234,157,59);fill-rule:nonzero;"/>
        </g>
        <g transform="matrix(0.999999,0,0,0.999999,595.437,-1286.38)">
            <rect x="1467.12" y="1747.24" width="0.02" height="20.25" style="fill:rgb(130,171,218);fill-rule:nonzero;"/>
        </g>
        <g transform="matrix(0.999999,0,0,0.999999,595.437,-1286.38)">
            <path d="M1486.32,1750.01C1490.23,1743.48 1492.53,1735.88 1492.67,1727.74C1492.69,1727.49 1492.69,1727.24 1492.69,1726.99C1492.69,1735.4 1490.36,1743.28 1486.32,1750.01Z" style="fill:rgb(229,229,229);fill-rule:nonzero;"/>
        </g>
        <g transform="matrix(0.999999,0,0,0.999999,595.437,-1286.38)">
            <path d="M1467.14,1767.49L1467.14,1747.24C1481.8,1743.74 1492.1,1736.33 1492.67,1727.74C1492.53,1735.88 1490.23,1743.48 1486.32,1750.01C1481.79,1757.55 1475.11,1763.65 1467.14,1767.49Z" style="fill:rgb(210,142,53);fill-rule:nonzero;"/>
        </g>
        <g transform="matrix(0.999999,0,0,0.999999,595.437,-1286.38)">
            <path d="M1492.69,1726.99C1492.69,1726.74 1492.69,1726.49 1492.67,1726.25C1492.39,1708.68 1482.03,1693.61 1467.14,1686.44L1467.14,1706.69L1467.14,1686.44C1482.23,1693.69 1492.69,1709.1 1492.69,1726.99Z" style="fill:white;fill-rule:nonzero;"/>
        </g>
        <g transform="matrix(0.999999,0,0,0.999999,595.437,-1286.38)">
            <path d="M1467.14,1706.69C1467.13,1706.68 1467.13,1706.68 1467.12,1706.68L1467.12,1686.43C1467.13,1686.43 1467.13,1686.43 1467.14,1686.44L1467.14,1706.69Z" style="fill:rgb(191,216,240);fill-rule:nonzero;"/>
        </g>
        <g transform="matrix(0.999999,0,0,0.999999,595.437,-1286.38)">
            <path d="M1492.67,1726.25C1492.11,1717.6 1481.81,1710.24 1467.14,1706.69L1467.14,1686.44C1482.03,1693.61 1492.39,1708.68 1492.67,1726.25Z" style="fill:rgb(243,196,137);fill-rule:nonzero;"/>
        </g>
        <g transform="matrix(0.999999,0,0,0.999999,595.437,-1286.38)">
            <path d="M1342.58,1826.63C1341.7,1826.79 1340.77,1826.89 1339.83,1826.89C1330.89,1826.89 1323.66,1819.72 1323.66,1810.77C1323.66,1803.29 1328.81,1797 1335.77,1795.23L1342.58,1826.63Z" style="fill:rgb(155,171,198);fill-rule:nonzero;"/>
        </g>
        <g transform="matrix(0.999999,0,0,0.999999,595.437,-1286.38)">
            <path d="M1472.5,1757.81L1472.5,1696.13C1481.79,1703.55 1487.33,1714.72 1487.33,1726.97C1487.33,1739.22 1481.79,1750.39 1472.5,1757.81ZM1461.76,1819.15C1461.76,1825.06 1455.2,1827.8 1451.01,1825.33L1444.24,1821.41L1444.24,1632.53L1451.01,1628.61C1455.25,1626.14 1461.76,1628.77 1461.76,1634.84L1461.76,1819.15ZM1433.5,1815.18L1349.26,1766.19L1349.26,1687.75L1433.5,1638.76L1433.5,1815.18ZM1338.52,1763.93L1279.86,1763.93L1279.7,1763.93C1278.14,1763.82 1277.01,1762.59 1277.01,1761.03L1277.01,1692.91C1277.01,1691.3 1278.25,1690.01 1279.86,1690.01L1338.52,1690.01L1338.52,1763.93ZM1332.02,1803.36C1332.13,1803.9 1335.57,1819.69 1335.83,1820.77C1328.69,1817.92 1326.76,1808.84 1332.02,1803.36ZM1338.31,1832.1L1341.05,1844.72C1343.14,1854.61 1335.62,1864.01 1325.47,1864.01C1317.95,1864.01 1311.55,1858.85 1309.94,1851.49L1293.23,1774.67L1325.79,1774.67L1329.55,1792.03C1322.78,1795.68 1318.27,1802.77 1318.27,1810.77C1318.27,1822.11 1327.13,1831.29 1338.31,1832.1ZM1266.27,1753.02L1259.77,1753.02C1258.85,1753.02 1258.1,1752.27 1258.1,1751.36L1258.1,1702.58C1258.1,1701.67 1258.85,1700.92 1259.77,1700.92L1266.27,1700.92L1266.27,1753.02ZM1472.5,1683.35L1472.5,1634.84C1472.5,1624.9 1464.44,1616.9 1454.56,1616.9C1451.44,1616.9 1448.32,1617.7 1445.59,1619.31C1419.48,1634.52 1357.65,1670.46 1342.44,1679.27L1279.86,1679.27C1273.25,1679.27 1267.77,1683.99 1266.54,1690.17L1259.77,1690.17C1252.89,1690.17 1247.36,1695.76 1247.36,1702.58L1247.36,1751.36C1247.36,1758.18 1252.89,1763.77 1259.77,1763.77L1266.54,1763.77C1267.77,1769.95 1273.25,1774.67 1279.86,1774.67L1282.28,1774.67L1299.41,1853.75C1302.15,1866.1 1312.84,1874.75 1325.47,1874.75C1342.44,1874.75 1355.12,1859.07 1351.52,1842.41C1351.52,1842.41 1351.52,1842.31 1351.41,1841.88L1351.41,1841.82L1351.36,1841.72L1351.31,1841.45C1351.25,1841.13 1351.2,1840.86 1351.15,1840.64C1351.09,1840.53 1351.09,1840.37 1351.04,1840.21C1350.93,1839.73 1350.93,1839.57 1350.93,1839.57C1349.64,1833.71 1346.04,1817.06 1336.8,1774.67L1342.44,1774.67C1356.03,1782.57 1420.98,1820.34 1445.59,1834.63C1457.73,1841.66 1472.5,1832.58 1472.5,1819.15L1472.5,1770.59C1488.29,1761.62 1498.07,1745.29 1498.07,1726.97C1498.07,1708.65 1488.29,1692.32 1472.5,1683.35Z" style="fill:rgb(40,59,102);fill-rule:nonzero;"/>
        </g>
    </g>
</svg>
