<svg width="164" height="40" viewBox="0 0 164 40" fill="none" xmlns="http://www.w3.org/2000/svg">
<path d="M50.8711 28.6469V12.7562H53.8657V25.9228H61.1255V28.6469H50.8711Z" fill="#121C74"/>
<path d="M67.5909 28.9648C66.4717 28.9648 65.4659 28.7378 64.5736 28.2837C63.6812 27.8298 62.9779 27.1714 62.4637 26.3088C61.9495 25.4461 61.6924 24.4095 61.6924 23.1987V22.8355C61.6924 21.6248 61.9495 20.5881 62.4637 19.7255C62.9779 18.8628 63.6812 18.2045 64.5736 17.7504C65.4659 17.2965 66.4717 17.0695 67.5909 17.0695C68.7101 17.0695 69.716 17.2965 70.6083 17.7504C71.5006 18.2045 72.2039 18.8628 72.7182 19.7255C73.2324 20.5881 73.4895 21.6248 73.4895 22.8355V23.1987C73.4895 24.4095 73.2324 25.4461 72.7182 26.3088C72.2039 27.1714 71.5006 27.8298 70.6083 28.2837C69.716 28.7378 68.7101 28.9648 67.5909 28.9648ZM67.5909 26.4222C68.4681 26.4222 69.1941 26.1422 69.7689 25.5823C70.3436 25.0072 70.631 24.1899 70.631 23.1306V22.9036C70.631 21.8442 70.3436 21.0345 69.7689 20.4745C69.2092 19.8995 68.4833 19.6119 67.5909 19.6119C66.7137 19.6119 65.9877 19.8995 65.413 20.4745C64.8382 21.0345 64.5509 21.8442 64.5509 22.9036V23.1306C64.5509 24.1899 64.8382 25.0072 65.413 25.5823C65.9877 26.1422 66.7137 26.4222 67.5909 26.4222Z" fill="#121C74"/>
<path d="M74.5625 23.0625V22.6993C74.5625 21.5188 74.7969 20.5124 75.2658 19.68C75.7346 18.8326 76.3547 18.1894 77.1261 17.7504C77.9126 17.2965 78.7671 17.0695 79.6897 17.0695C80.7182 17.0695 81.4971 17.251 82.0264 17.6142C82.5558 17.9775 82.9414 18.3558 83.1834 18.7493H83.5919V17.3872H86.405V30.6446C86.405 31.4165 86.1782 32.0294 85.7244 32.4834C85.2706 32.9526 84.6657 33.1871 83.9094 33.1871H76.3775V30.69H82.9112C83.3348 30.69 83.5464 30.463 83.5464 30.009V27.0806H83.1381C82.9869 27.3227 82.7751 27.5724 82.5029 27.8297C82.2307 28.0718 81.8677 28.2762 81.4139 28.4426C80.9602 28.6091 80.3855 28.6924 79.6897 28.6924C78.7671 28.6924 77.9126 28.4729 77.1261 28.034C76.3547 27.58 75.7346 26.9368 75.2658 26.1044C74.7969 25.257 74.5625 24.2429 74.5625 23.0625ZM80.5065 26.1952C81.3837 26.1952 82.1172 25.9152 82.7071 25.3553C83.2969 24.7953 83.5919 24.0084 83.5919 22.9944V22.7674C83.5919 21.7382 83.2969 20.9513 82.7071 20.4064C82.1323 19.8465 81.3988 19.5665 80.5065 19.5665C79.6292 19.5665 78.8957 19.8465 78.3058 20.4064C77.7159 20.9513 77.421 21.7382 77.421 22.7674V22.9944C77.421 24.0084 77.7159 24.7953 78.3058 25.3553C78.8957 25.9152 79.6292 26.1952 80.5065 26.1952Z" fill="#121C74"/>
<path d="M93.9074 28.9648C92.7882 28.9648 91.7824 28.7378 90.89 28.2837C89.9977 27.8298 89.2944 27.1714 88.7802 26.3088C88.266 25.4461 88.0088 24.4095 88.0088 23.1987V22.8355C88.0088 21.6248 88.266 20.5881 88.7802 19.7255C89.2944 18.8628 89.9977 18.2045 90.89 17.7504C91.7824 17.2965 92.7882 17.0695 93.9074 17.0695C95.0266 17.0695 96.0324 17.2965 96.9248 17.7504C97.8171 18.2045 98.5204 18.8628 99.0347 19.7255C99.5489 20.5881 99.806 21.6248 99.806 22.8355V23.1987C99.806 24.4095 99.5489 25.4461 99.0347 26.3088C98.5204 27.1714 97.8171 27.8298 96.9248 28.2837C96.0324 28.7378 95.0266 28.9648 93.9074 28.9648ZM93.9074 26.4222C94.7846 26.4222 95.5106 26.1422 96.0853 25.5823C96.6601 25.0072 96.9474 24.1899 96.9474 23.1306V22.9036C96.9474 21.8442 96.6601 21.0345 96.0853 20.4745C95.5257 19.8995 94.7998 19.6119 93.9074 19.6119C93.0301 19.6119 92.3043 19.8995 91.7295 20.4745C91.1547 21.0345 90.8674 21.8442 90.8674 22.9036V23.1306C90.8674 24.1899 91.1547 25.0072 91.7295 25.5823C92.3043 26.1422 93.0301 26.4222 93.9074 26.4222Z" fill="#121C74"/>
<path d="M101.424 28.647V17.3873H104.283V28.647H101.424ZM102.853 16.0707C102.339 16.0707 101.901 15.9041 101.537 15.5712C101.19 15.2383 101.016 14.7994 101.016 14.2546C101.016 13.7097 101.19 13.2708 101.537 12.9379C101.901 12.605 102.339 12.4385 102.853 12.4385C103.383 12.4385 103.822 12.605 104.169 12.9379C104.517 13.2708 104.691 13.7097 104.691 14.2546C104.691 14.7994 104.517 15.2383 104.169 15.5712C103.822 15.9041 103.383 16.0707 102.853 16.0707Z" fill="#121C74"/>
<path d="M106.43 33.1871V17.3872H109.243V18.7493H109.651C109.908 18.3104 110.308 17.9245 110.853 17.5915C111.397 17.2435 112.176 17.0695 113.19 17.0695C114.097 17.0695 114.937 17.2965 115.708 17.7504C116.48 18.1894 117.1 18.8401 117.568 19.7027C118.037 20.5654 118.272 21.6097 118.272 22.8355V23.1987C118.272 24.4246 118.037 25.4688 117.568 26.3314C117.1 27.194 116.48 27.8524 115.708 28.3064C114.937 28.7453 114.097 28.9648 113.19 28.9648C112.51 28.9648 111.935 28.8816 111.466 28.715C111.012 28.5637 110.642 28.3669 110.354 28.1248C110.082 27.8675 109.863 27.6102 109.696 27.353H109.287V33.1871H106.43ZM112.327 26.4676C113.221 26.4676 113.954 26.1877 114.528 25.6277C115.118 25.0526 115.413 24.2203 115.413 23.1306V22.9036C115.413 21.8139 115.118 20.9892 114.528 20.4292C113.938 19.854 113.205 19.5665 112.327 19.5665C111.451 19.5665 110.717 19.854 110.127 20.4292C109.537 20.9892 109.243 21.8139 109.243 22.9036V23.1306C109.243 24.2203 109.537 25.0526 110.127 25.6277C110.717 26.1877 111.451 26.4676 112.327 26.4676Z" fill="#121C74"/>
<path d="M124.549 28.9648C123.082 28.9648 121.88 28.6469 120.942 28.0113C120.005 27.3757 119.437 26.4676 119.24 25.2872L121.872 24.6061C121.978 25.1359 122.152 25.552 122.394 25.8547C122.651 26.1574 122.961 26.3769 123.325 26.5131C123.702 26.6341 124.11 26.6946 124.549 26.6946C125.215 26.6946 125.706 26.5812 126.023 26.3541C126.341 26.112 126.5 25.8169 126.5 25.4688C126.5 25.1207 126.349 24.8559 126.047 24.6742C125.743 24.4776 125.26 24.3186 124.595 24.1976L123.959 24.084C123.172 23.9327 122.455 23.7284 121.804 23.4711C121.153 23.1987 120.632 22.8279 120.239 22.3587C119.846 21.8897 119.649 21.2843 119.649 20.5427C119.649 19.4227 120.057 18.5677 120.874 17.9775C121.69 17.3721 122.765 17.0695 124.096 17.0695C125.351 17.0695 126.395 17.3494 127.226 17.9094C128.058 18.4694 128.602 19.2033 128.86 20.1114L126.206 20.9286C126.085 20.3536 125.835 19.9449 125.457 19.7027C125.093 19.4606 124.64 19.3395 124.096 19.3395C123.551 19.3395 123.135 19.4379 122.848 19.6346C122.56 19.8163 122.417 20.0736 122.417 20.4064C122.417 20.7697 122.568 21.0421 122.87 21.2237C123.172 21.3901 123.581 21.5188 124.096 21.6097L124.73 21.7231C125.578 21.8744 126.341 22.0788 127.022 22.3361C127.718 22.5782 128.262 22.9338 128.656 23.403C129.063 23.8571 129.268 24.4776 129.268 25.2645C129.268 26.445 128.837 27.3606 127.975 28.0113C127.128 28.6469 125.986 28.9648 124.549 28.9648Z" fill="#121C74"/>
<path d="M135.04 28.8286C134.162 28.8286 133.391 28.6318 132.725 28.2383C132.075 27.8297 131.569 27.2697 131.205 26.5584C130.842 25.8471 130.661 25.0299 130.661 24.1067V17.3872H133.52V23.8797C133.52 24.7272 133.724 25.3628 134.132 25.7866C134.555 26.2103 135.153 26.4222 135.924 26.4222C136.802 26.4222 137.482 26.1347 137.966 25.5596C138.45 24.9694 138.692 24.1521 138.692 23.1079V17.3872H141.551V28.6469H138.737V27.1714H138.33C138.148 27.5497 137.807 27.9205 137.309 28.2837C136.809 28.6469 136.053 28.8286 135.04 28.8286Z" fill="#121C74"/>
<path d="M143.711 28.6468V17.3871H146.524V18.613H146.932C147.129 18.2346 147.455 17.9093 147.908 17.6369C148.362 17.3493 148.959 17.2056 149.7 17.2056C150.502 17.2056 151.145 17.3645 151.629 17.6822C152.113 17.985 152.483 18.386 152.74 18.8855H153.149C153.406 18.4012 153.769 18.0001 154.238 17.6822C154.707 17.3645 155.372 17.2056 156.234 17.2056C156.93 17.2056 157.558 17.3569 158.118 17.6596C158.692 17.9471 159.146 18.3936 159.479 18.9989C159.827 19.5892 160 20.3382 160 21.2463V28.6468H157.142V21.4506C157.142 20.8302 156.983 20.3686 156.666 20.0659C156.348 19.7481 155.901 19.5892 155.327 19.5892C154.677 19.5892 154.17 19.801 153.807 20.2248C153.459 20.6334 153.285 21.2236 153.285 21.9954V28.6468H150.427V21.4506C150.427 20.8302 150.268 20.3686 149.95 20.0659C149.632 19.7481 149.187 19.5892 148.611 19.5892C147.961 19.5892 147.454 19.801 147.091 20.2248C146.743 20.6334 146.57 21.2236 146.57 21.9954V28.6468H143.711Z" fill="#121C74"/>
<path d="M41.8113 20.1343C41.8113 16.1205 40.2177 12.271 37.3813 9.43274C34.5448 6.59451 30.6977 5 26.6864 5C22.675 5 18.828 6.59451 15.9915 9.43274C13.155 12.271 11.5615 16.1205 11.5615 20.1343H16.2881C17.8543 20.1343 19.0758 18.821 19.6495 17.3626C20.0262 16.4052 20.5977 15.5253 21.3389 14.7835C22.7571 13.3644 24.6807 12.5672 26.6864 12.5672C28.6921 12.5672 30.6156 13.3644 32.0339 14.7835C33.4521 16.2026 34.2488 18.1274 34.2488 20.1343H41.8113Z" fill="url(#paint0_linear_2200_116)"/>
<path d="M33.0985 25.9259C33.8586 24.0897 34.2499 22.1217 34.2499 20.1343H41.8115C41.8115 28.4927 35.0398 35.2685 26.6866 35.2685C25.3784 35.2685 24.109 35.1024 22.8984 34.79C23.5834 34.6134 24.2566 34.3885 24.913 34.1165C26.748 33.3559 28.4154 32.2412 29.8199 30.8358C31.2244 29.4305 32.3385 27.7621 33.0985 25.9259Z" fill="#FBCF8E"/>
<path d="M4 20.1342C4 22.1217 4.39122 24.0897 5.15131 25.9259C5.91141 27.7621 7.02549 29.4304 8.42997 30.8358C9.83444 32.2411 11.5018 33.3559 13.3368 34.1165C15.1718 34.8771 17.1386 35.2685 19.1249 35.2685C21.1111 35.2685 23.0778 34.8771 24.9129 34.1165C26.7479 33.3559 28.4153 32.2411 29.8198 30.8358C31.2242 29.4304 32.3383 27.7621 33.0984 25.9259C33.8585 24.0897 34.2498 22.1217 34.2498 20.1342H29.5232C27.9569 20.1342 26.7354 21.4475 26.1618 22.9058C26.1455 22.9473 26.1287 22.9887 26.1116 23.0301C25.7316 23.9481 25.1746 24.7824 24.4723 25.485C23.7701 26.1876 22.9364 26.7451 22.0189 27.1254C21.1014 27.5057 20.118 27.7014 19.1249 27.7014C18.1317 27.7014 17.1484 27.5057 16.2309 27.1254C15.3133 26.7451 14.4797 26.1876 13.7774 25.485C13.0752 24.7824 12.5181 23.9481 12.1381 23.0301C11.758 22.1119 11.5624 21.1279 11.5624 20.1342H4Z" fill="url(#paint1_linear_2200_116)"/>
<path d="M4.00146 20.1343C4.00146 11.7758 10.7731 5 19.1263 5C20.4341 5 21.7032 5.16609 22.9137 5.47836C20.3163 6.14787 17.9204 7.50278 15.9915 9.43275C13.1551 12.271 11.5616 16.1205 11.5616 20.1343H4.00146Z" fill="#73E5E2"/>
<defs>
<linearGradient id="paint0_linear_2200_116" x1="41.8113" y1="12.5672" x2="11.5615" y2="12.5672" gradientUnits="userSpaceOnUse">
<stop stop-color="#73E5E2"/>
<stop offset="1" stop-color="#394F87"/>
</linearGradient>
<linearGradient id="paint1_linear_2200_116" x1="4" y1="27.7014" x2="34.2498" y2="27.7014" gradientUnits="userSpaceOnUse">
<stop stop-color="#FBDC8E"/>
<stop offset="1" stop-color="#FB958E"/>
</linearGradient>
</defs>
</svg>
