<svg width="60" height="60" viewBox="0 0 60 60" fill="none" xmlns="http://www.w3.org/2000/svg">
<rect x="2.30762" y="2.30774" width="57.6923" height="57.6923" rx="15" fill="black"/>
<rect x="0.5" y="0.5" width="56.6923" height="56.6923" rx="14.5" fill="#FFFB9E" stroke="black"/>
<path d="M28.8463 15.3845C21.4236 15.3845 15.3848 21.4234 15.3848 28.8461V34.4232C15.3848 35.8016 16.5923 36.923 18.0771 36.923H19.4232C19.7802 36.923 20.1226 36.7812 20.3751 36.5287C20.6276 36.2763 20.7694 35.9339 20.7694 35.5768V28.6536C20.7694 28.2965 20.6276 27.9541 20.3751 27.7017C20.1226 27.4492 19.7802 27.3074 19.4232 27.3074H18.2009C18.9494 22.0978 23.4321 18.0768 28.8463 18.0768C34.2605 18.0768 38.7432 22.0978 39.4917 27.3074H38.2694C37.9124 27.3074 37.57 27.4492 37.3175 27.7017C37.0651 27.9541 36.9232 28.2965 36.9232 28.6536V36.923C36.9232 38.4078 35.7157 39.6153 34.2309 39.6153H31.5386V38.2691H26.154V42.3076H34.2309C37.2005 42.3076 39.6155 39.8926 39.6155 36.923C41.1003 36.923 42.3078 35.8016 42.3078 34.4232V28.8461C42.3078 21.4234 36.269 15.3845 28.8463 15.3845Z" fill="black"/>
</svg>
