<svg width="273" height="368" viewBox="0 0 273 368" fill="none" xmlns="http://www.w3.org/2000/svg">
<path fill-rule="evenodd" clip-rule="evenodd" d="M124.254 47.0394L124.254 47.0395C124.241 47.1518 124.229 47.2635 124.215 47.3737C124.262 47.4052 124.316 47.4249 124.371 47.4447C124.425 47.4645 124.48 47.4843 124.526 47.5158C124.605 47.3992 124.687 47.3021 124.77 47.2051C124.852 47.108 124.935 47.011 125.013 46.8944C126.493 44.4998 127.972 42.1052 129.358 39.6477C129.878 38.7769 129.772 38.2303 129.32 37.9938C128.869 37.7574 128.306 37.9883 127.865 38.844C126.651 41.1464 125.562 43.4651 124.488 45.8619C124.34 46.2379 124.297 46.6429 124.254 47.0394ZM113.604 60.0038L113.604 60.0038C113.571 60.2105 113.535 60.4362 113.472 60.6857C113.65 60.6129 113.796 60.5643 113.904 60.5284C114.024 60.4884 114.097 60.4641 114.113 60.4395L114.22 60.3293C114.856 59.6719 115.459 59.0475 115.966 58.2966C117.023 56.7959 118.025 55.2881 119.032 53.7733L119.032 53.7733L119.032 53.7732C119.537 53.0133 120.043 52.2515 120.558 51.4881C120.684 51.3016 120.778 51.1617 120.826 50.9903C121.016 50.5077 121.081 50.0088 120.646 49.6477C120.211 49.2865 119.696 49.3461 119.273 49.6714C118.85 49.9968 118.396 50.3687 118.159 50.8199L117.769 51.5598C116.445 54.0742 115.102 56.6227 113.824 59.1587C113.699 59.4052 113.655 59.6812 113.604 60.0038ZM120.731 45.2955C120.479 45.1927 120.224 45.0929 119.969 44.993C119.204 44.6934 118.439 44.3939 117.727 44.0156C115.861 42.9602 114.057 41.8116 112.254 40.6629L112.021 40.5056C111.259 39.9243 111.09 39.4709 111.373 39.0512C111.656 38.6315 112.046 38.7585 112.854 39.3713C114.339 40.4635 115.831 41.5 117.33 42.5413C118.074 43.0584 118.82 43.5767 119.568 44.1035L120.92 45.0157C120.847 45.0569 120.816 45.1261 120.784 45.1953C120.768 45.2298 120.752 45.2644 120.731 45.2955ZM133.014 54.6541C133.143 54.6697 133.269 54.685 133.38 54.7089C133.417 54.6543 133.437 54.5889 133.455 54.5347C133.467 54.4963 133.477 54.4636 133.49 54.4443C132.324 53.7593 131.146 53.0665 129.968 52.3737C128.79 51.6809 127.612 50.9881 126.445 50.3031C125.715 49.8779 125.199 49.9375 125.041 50.3735C124.772 51.0741 125.238 51.3886 125.768 51.6099C126.786 52.052 127.789 52.4971 128.786 52.9397C129.998 53.4777 131.201 54.0119 132.413 54.5321C132.579 54.6013 132.8 54.6281 133.014 54.6541Z" fill="black"/>
<path fill-rule="evenodd" clip-rule="evenodd" d="M225.591 16.5167C226.187 13.9658 226.765 11.4795 227.35 8.99453C227.568 8.06746 227.746 7.12498 228.047 6.22449C228.436 5.06123 229.297 4.83422 230.292 5.08157C232.972 5.74882 234.098 7.79682 235.083 10.0433C235.332 10.6121 235.642 11.1554 235.936 11.7045C236.351 12.4813 236.435 12.4843 236.989 11.7495C237.96 10.4619 238.373 8.92465 238.896 7.43925C239.616 5.39124 240.163 3.28255 241.015 1.28113C241.364 0.462648 242.292 -0.165236 242.884 0.0388101C243.495 0.249089 244.088 0.534163 244.657 0.84384C246.224 1.69545 247.125 3.14247 247.932 4.64854C249.405 7.39956 250.973 10.1027 252.175 12.9915C252.334 13.374 252.614 13.7552 252.509 14.1708C252.405 14.5789 252.311 15.2839 251.623 14.5989C251.514 14.491 251.401 14.4067 251.232 14.4588C250.092 14.8102 249.661 13.9759 249.19 13.2247C247.812 11.0301 246.443 8.82985 245.062 6.63684C244.928 6.42427 244.844 6.05653 244.521 6.13821C244.289 6.1966 244.329 6.54499 244.237 6.7592C243.57 8.31514 243.421 10.0184 242.856 11.6035C242.546 12.4751 242.214 13.3349 241.705 14.1154C241.379 14.616 241.066 15.1136 240.398 15.2327C240.209 15.2665 239.984 15.4033 239.88 15.5617C239.263 16.5085 238.379 16.1578 237.55 16.0738C235.269 15.8422 233.542 14.7117 232.282 12.8209C232.238 12.7549 232.14 12.7244 232.001 12.6349C231.816 13.2263 231.534 13.706 231.432 14.3427C231.069 16.6239 230.754 18.9222 229.937 21.1139C229.615 21.9787 228.997 22.497 228.237 22.7886C227.582 23.0396 226.918 22.4799 226.185 22.5446C224.761 22.6705 223.923 21.6933 223.172 20.6694C222.822 20.1921 222.529 19.6731 222.206 19.1673C221.315 20.0353 221.376 21.2396 221.102 22.2775C220.694 23.8249 220.137 25.3031 219.558 26.7813C219.187 27.7297 219.031 28.7493 218.377 29.6071C217.837 30.316 217.147 29.9732 216.598 29.9352C216.218 29.9092 215.836 29.3407 216.074 28.6594C217.735 23.9023 218.471 18.9623 218.899 13.9645C218.982 12.9954 219.567 12.2009 220.185 12.2908C220.783 12.3774 221.375 12.5768 221.941 12.7976C223.352 13.3467 224.217 14.4769 224.956 15.7307C225.102 15.9797 225.154 16.3005 225.591 16.5167" fill="black"/>
<path fill-rule="evenodd" clip-rule="evenodd" d="M106.729 190.131C106.658 190.131 106.626 190.141 106.605 190.13C106.302 189.967 106.042 190.035 105.797 190.258C105.643 190.397 105.483 190.549 105.313 190.646C104.953 190.851 104.774 191.205 104.528 191.495C104.239 191.834 104.062 192.258 103.863 192.663C103.572 193.255 103.447 193.877 103.391 194.52C103.355 194.935 103.44 195.338 103.538 195.743C103.571 195.876 103.673 195.996 103.64 196.145C103.809 196.212 103.61 196.42 103.791 196.507C103.903 196.562 103.973 196.705 104.062 196.809C104.079 196.829 104.103 196.845 104.113 196.868C104.264 197.191 104.558 197.362 104.837 197.544C105.125 197.732 105.464 197.833 105.79 197.854C106.285 197.885 106.794 197.938 107.284 197.786C107.546 197.705 107.825 197.678 108.069 197.545C108.544 197.286 109.026 197.056 109.457 196.703C110.009 196.251 110.457 195.735 110.798 195.122C110.953 194.842 111.075 194.537 111.168 194.231C111.263 193.918 111.327 193.591 111.361 193.265C111.409 192.811 111.329 192.362 111.202 191.926C111.136 191.701 111.059 191.466 110.927 191.278C110.775 191.062 110.581 190.855 110.361 190.713C110.114 190.554 109.872 190.344 109.542 190.362C109.472 190.18 109.36 190.393 109.26 190.329C109.07 190.208 108.851 190.154 108.636 190.085C108.503 190.043 108.378 190.078 108.253 190.042C107.948 189.955 107.948 189.961 107.627 190.039C107.605 190.044 107.57 189.999 107.539 189.976C107.486 190.025 107.431 190.077 107.375 190.129C107.265 189.983 107.153 190.064 107.042 190.118C106.993 190.069 106.946 190.021 106.897 189.973C106.84 190.026 106.783 190.08 106.729 190.131M107.465 198.997C107.261 198.997 107.113 199.005 106.966 198.995C106.508 198.963 106.055 198.91 105.61 198.773C105.373 198.7 105.11 198.682 104.882 198.584C104.643 198.481 104.389 198.41 104.18 198.228C103.989 198.061 103.773 197.917 103.563 197.774C103.233 197.549 102.981 197.274 102.805 196.921C102.593 196.82 102.596 196.575 102.47 196.413C102.351 196.259 102.306 196.051 102.222 195.875C102.159 195.743 102.265 195.568 102.1 195.481C102.132 195.308 102.04 195.153 102.026 194.99C102.002 194.71 101.982 194.421 102.027 194.146C102.118 193.604 102.24 193.069 102.447 192.55C102.65 192.043 102.976 191.615 103.233 191.144C103.295 191.031 103.402 190.924 103.515 190.864C103.634 190.799 103.576 190.585 103.762 190.605C103.956 190.312 104.246 190.128 104.521 189.925C104.867 189.67 105.252 189.495 105.655 189.357C105.823 189.3 106.01 189.27 106.174 189.262C106.463 189.247 106.732 189.182 106.99 189.079C107.353 188.936 107.722 189.038 108.087 189.003C108.204 189.129 108.361 189.098 108.495 189.076C108.642 189.053 108.732 189.161 108.865 189.171C109.32 189.203 109.737 189.387 110.163 189.532C110.628 189.691 111.046 189.941 111.452 190.213C112.051 190.614 112.529 191.124 112.824 191.791C112.936 192.043 113.003 192.308 113.073 192.576C113.186 193.012 113.142 193.444 113.13 193.874C113.12 194.248 112.997 194.614 112.859 194.967C112.755 195.232 112.651 195.498 112.545 195.763C112.536 195.786 112.498 195.803 112.498 195.823C112.505 196.214 112.235 196.449 112.005 196.707C111.953 196.766 111.882 196.818 111.855 196.886C111.668 197.349 111.252 197.583 110.888 197.867C110.51 198.162 110.079 198.369 109.649 198.571C109.276 198.747 108.87 198.833 108.466 198.927C108.11 199.009 107.761 198.978 107.465 198.997" fill="black"/>
<path d="M23.4953 131.451C22.5108 131.54 21.5263 131.584 20.5642 131.717C19.1323 131.939 18.0359 132.694 17.3647 133.982C16.9172 134.848 16.5145 135.736 16.1789 136.668C15.2839 139.088 14.7469 141.619 14.0757 144.084C13.9862 144.417 13.9638 144.794 13.8967 145.127C13.8743 145.261 13.8519 145.416 13.7848 145.527C13.6282 145.86 13.3373 146.038 13.0017 145.993C12.6661 145.949 12.3976 145.682 12.3752 145.305C12.3528 145.105 12.3528 144.883 12.3976 144.661C12.5318 143.817 12.4871 142.996 12.3976 142.175C12.2186 140.554 11.9725 138.933 11.4579 137.379C10.809 135.536 9.82453 133.915 8.28069 132.65C7.49759 132.006 6.69211 131.384 5.88663 130.741C4.65604 129.764 3.24646 129.12 1.79212 128.543C1.56838 128.454 1.29988 128.432 1.03139 128.343C0.852397 128.298 0.651027 128.254 0.472032 128.165C0.0916677 127.987 -0.0649529 127.61 0.0245446 127.233C0.114042 126.877 0.449658 126.655 0.852397 126.7C1.14326 126.722 1.45651 126.789 1.74737 126.877C3.40308 127.388 5.10353 127.277 6.80398 127.122C7.43047 127.077 8.05695 127.011 8.66106 126.877C10.0706 126.544 11.167 125.767 11.8158 124.457C12.3305 123.436 12.6884 122.37 12.9346 121.238C13.3373 119.484 13.8967 117.752 14.1204 115.954C14.2323 115.044 14.3665 114.133 14.4784 113.201C14.5231 112.957 14.5455 112.713 14.6126 112.468C14.7469 112.224 14.9483 112.024 15.2391 112.002C15.53 111.98 15.7985 112.135 15.888 112.446C15.9999 112.779 16.0894 113.134 16.1117 113.49C16.2236 115.133 16.3355 116.776 16.4473 118.441C16.5592 119.95 16.6263 121.46 16.783 122.948C16.9172 124.169 17.3423 125.323 18.0359 126.367C18.6624 127.321 19.535 127.921 20.5642 128.343C21.2355 128.609 21.8843 128.898 22.5556 129.12C22.9135 129.253 23.3163 129.297 23.6966 129.386C24.435 129.564 25.1957 129.719 25.9341 129.919C26.2697 130.008 26.4934 130.252 26.5158 130.607C26.5606 130.94 26.3592 131.273 26.0012 131.407C25.7551 131.495 25.4866 131.562 25.2181 131.562C24.6364 131.584 24.0323 131.562 23.4505 131.562C23.4953 131.518 23.4953 131.473 23.4953 131.451Z" fill="black"/>
<path d="M195 145.789C195.349 131.419 200.638 118.447 211.764 108.019C216.105 103.978 221.094 100.785 226.333 98.0405C231.372 95.446 236.811 94.2486 242.449 94.049C251.28 93.6997 259.712 95.1965 267.595 99.2379C282.413 106.822 291.644 118.946 295.286 135.111C299.327 152.923 293.639 171.733 280.517 184.406C272.285 192.339 262.456 196.979 251.08 198.276C231.871 200.472 213.161 191.142 202.833 174.377C197.644 165.846 195.1 156.516 195 145.789Z" fill="#F7D046"/>
<mask id="mask0_2653_72" style="mask-type:alpha" maskUnits="userSpaceOnUse" x="195" y="94" width="102" height="105">
<path d="M195 145.789C195.349 131.419 200.638 118.447 211.764 108.019C216.105 103.978 221.094 100.785 226.333 98.0405C231.372 95.446 236.811 94.2486 242.449 94.049C251.28 93.6997 259.712 95.1965 267.595 99.2379C282.413 106.822 291.644 118.946 295.286 135.111C299.327 152.923 293.639 171.733 280.517 184.406C272.285 192.339 262.456 196.979 251.08 198.276C231.871 200.472 213.161 191.142 202.833 174.377C197.644 165.846 195.1 156.516 195 145.789Z" fill="black"/>
</mask>
<g mask="url(#mask0_2653_72)">
<path d="M199.83 183.035C199.48 183.234 199.181 183.434 198.832 183.634C197.335 184.582 195.888 185.53 194.391 186.478C193.992 186.727 193.543 186.976 193.094 187.076C192.795 187.126 192.346 186.976 192.146 186.777C191.996 186.527 191.947 186.028 192.096 185.779C192.346 185.33 192.745 184.981 193.144 184.681C195.24 183.085 197.335 181.488 199.48 179.991C208.96 173.356 218.64 167.019 228.618 161.132C240.443 154.196 252.318 147.261 264.242 140.526C276.616 133.491 289.538 127.454 302.61 121.816C305.554 120.518 308.498 119.171 311.441 117.874C312.04 117.625 312.589 117.325 313.238 117.176C315.134 116.577 316.58 117.176 317.429 118.922C317.878 119.92 318.227 121.017 318.427 122.115C319.474 127.254 319.674 132.393 319.424 137.582C318.776 151.003 314.285 163.077 306.801 174.104C298.968 185.579 288.69 194.361 276.566 200.997C266.986 206.235 256.808 209.778 246.031 211.374C239.794 212.322 233.558 212.572 227.321 211.474C222.132 210.576 217.292 208.83 212.852 206.036C207.164 202.493 203.123 197.454 200.179 191.567C199.031 189.272 198.882 186.927 199.58 184.482C199.68 184.133 199.78 183.783 199.83 183.434C199.93 183.185 199.88 183.135 199.83 183.035Z" fill="#4CA96D"/>
<mask id="mask1_2653_72" style="mask-type:alpha" maskUnits="userSpaceOnUse" x="192" y="116" width="128" height="97">
<path d="M199.83 183.035C199.48 183.234 199.181 183.434 198.832 183.634C197.335 184.582 195.888 185.53 194.391 186.478C193.992 186.727 193.543 186.976 193.094 187.076C192.795 187.126 192.346 186.976 192.146 186.777C191.996 186.527 191.947 186.028 192.096 185.779C192.346 185.33 192.745 184.981 193.144 184.681C195.24 183.085 197.335 181.488 199.48 179.991C208.96 173.356 218.64 167.019 228.618 161.132C240.443 154.196 252.318 147.261 264.242 140.526C276.616 133.491 289.538 127.454 302.61 121.816C305.554 120.518 308.498 119.171 311.441 117.874C312.04 117.625 312.589 117.325 313.238 117.176C315.134 116.577 316.58 117.176 317.429 118.922C317.878 119.92 318.227 121.017 318.427 122.115C319.474 127.254 319.674 132.393 319.424 137.582C318.776 151.003 314.285 163.077 306.801 174.104C298.968 185.579 288.69 194.361 276.566 200.997C266.986 206.235 256.808 209.778 246.031 211.374C239.794 212.322 233.558 212.572 227.321 211.474C222.132 210.576 217.292 208.83 212.852 206.036C207.164 202.493 203.123 197.454 200.179 191.567C199.031 189.272 198.882 186.927 199.58 184.482C199.68 184.133 199.78 183.783 199.83 183.434C199.93 183.185 199.88 183.135 199.83 183.035Z" fill="#4CA96D"/>
</mask>
<g mask="url(#mask1_2653_72)">
<path d="M295.385 191.341C295.535 190.842 295.685 190.294 295.784 189.795C296.184 187.1 295.884 184.456 295.635 181.812C294.986 175.176 293.439 168.69 292.042 162.154C290.995 157.364 289.947 152.574 289.697 147.635C289.548 144.192 289.498 140.699 289.598 137.207C289.747 131.22 290.346 125.282 291.444 119.345C292.092 115.952 292.841 112.56 294.088 109.267C294.787 107.371 295.685 105.525 296.982 103.928C297.73 102.98 298.628 102.232 299.826 101.483C299.726 101.733 299.726 101.882 299.626 101.932C297.281 103.828 295.984 106.423 295.086 109.217C293.938 112.609 293.24 116.052 292.741 119.594C291.394 128.476 290.895 137.357 291.294 146.337C291.494 150.429 292.242 154.42 293.09 158.412C294.288 164.199 295.535 169.937 296.633 175.775C297.331 179.517 297.78 183.259 297.73 187.05C297.73 188.048 297.631 189.046 297.481 190.044C297.381 190.643 297.181 191.291 296.882 191.84C296.283 192.988 295.086 193.237 294.188 192.339C293.489 191.691 292.891 190.892 292.491 190.044C291.544 188.048 290.645 186.003 289.797 183.907C287.452 177.87 285.656 171.683 283.86 165.447C281.166 156.266 278.122 147.186 274.729 138.255C274.081 136.558 273.332 134.962 272.534 133.315C272.235 132.716 271.836 132.118 271.436 131.619C270.738 130.821 270.139 130.821 269.441 131.619C268.992 132.168 268.593 132.816 268.343 133.465C267.495 135.311 267.096 137.357 266.896 139.352C266.347 144.342 266.497 149.331 266.746 154.32C267.195 163.002 268.393 171.633 269.441 180.265C270.089 185.554 270.688 190.792 270.788 196.131C270.838 199.923 270.788 203.715 269.99 207.457C269.79 208.355 269.54 209.253 269.191 210.101C268.143 212.546 266.148 212.895 264.352 210.85C263.553 209.952 262.955 208.904 262.356 207.856C261.108 205.561 260.21 203.066 259.462 200.522C257.666 194.534 256.319 188.497 255.171 182.36C253.375 172.681 251.629 163.002 249.932 153.273C249.284 149.58 248.785 145.888 248.186 142.146C248.036 141.348 247.837 140.5 247.537 139.702C247.388 139.253 247.039 138.803 246.839 138.404C246.041 138.504 245.592 139.003 245.292 139.502C244.644 140.6 243.945 141.647 243.396 142.795C241.65 146.537 240.902 150.528 240.502 154.57C239.804 161.854 240.203 169.089 240.952 176.323C241.55 181.911 242.199 187.499 242.548 193.137C242.897 198.276 242.897 203.416 241.75 208.505C241.5 209.503 241.151 210.5 240.752 211.448C240.453 212.147 240.004 212.746 239.455 213.294C238.357 214.392 236.96 214.492 235.813 213.394C235.064 212.646 234.316 211.798 233.867 210.85C232.869 208.754 231.921 206.559 231.123 204.363C229.077 198.526 227.78 192.439 226.582 186.402C225.285 179.716 224.337 173.03 223.988 166.245C223.688 160.906 223.738 155.568 223.589 150.229C223.589 149.431 223.489 148.583 223.389 147.535C222.641 148.134 222.291 148.782 221.942 149.381C220.395 152.225 219.148 155.218 218.1 158.262C215.206 166.744 213.56 175.425 213.51 184.406C213.46 188.946 213.41 193.487 213.261 198.077C213.161 201.619 212.812 205.162 211.614 208.555C211.315 209.453 210.866 210.301 210.417 211.149C210.217 211.498 209.868 211.847 209.519 212.097C208.92 212.496 208.571 212.247 208.371 211.349C208.471 211.398 208.621 211.398 208.67 211.448C208.77 211.498 208.82 211.598 208.97 211.698C209.618 211.249 209.868 210.6 210.167 209.952C210.966 208.105 211.415 206.16 211.614 204.164C211.864 201.569 212.063 198.925 212.113 196.281C212.213 191.291 212.163 186.302 212.313 181.313C212.512 174.228 213.909 167.293 216.055 160.507C217.252 156.715 218.699 153.073 220.545 149.58C221.044 148.682 221.593 147.784 222.241 146.986C222.591 146.537 223.04 146.188 223.688 146.387C224.287 146.587 224.487 147.086 224.537 147.635C224.686 149.231 224.786 150.828 224.836 152.424C224.986 156.466 224.936 160.507 225.185 164.499C225.983 177.67 228.179 190.643 232.07 203.266C232.769 205.561 233.717 207.756 234.715 209.952C235.114 210.85 235.713 211.648 236.411 212.396C237.16 213.245 237.958 213.195 238.656 212.346C239.155 211.698 239.704 210.949 239.904 210.201C240.403 208.355 240.852 206.509 241.101 204.613C241.55 200.871 241.6 197.129 241.251 193.387C240.652 187.001 239.954 180.614 239.355 174.228C238.706 167.343 238.507 160.457 239.305 153.572C239.754 149.63 240.652 145.789 242.349 142.196C242.798 141.248 243.297 140.35 243.845 139.502C244.145 139.003 244.544 138.504 244.993 138.105C246.24 136.957 247.537 137.107 248.286 138.654C248.735 139.602 249.084 140.65 249.284 141.697C249.982 145.689 250.581 149.63 251.23 153.622C253.525 167.642 255.72 181.662 259.163 195.482C259.961 198.626 260.959 201.769 262.056 204.862C262.605 206.409 263.503 207.856 264.352 209.303C264.701 209.852 265.2 210.351 265.749 210.75C266.497 211.349 267.046 211.199 267.545 210.401C267.844 209.852 268.143 209.253 268.243 208.654C268.593 206.309 268.992 204.014 269.141 201.669C269.441 196.331 268.942 191.042 268.343 185.803C267.395 177.271 266.297 168.789 265.449 160.258C264.801 153.921 264.601 147.585 265.1 141.248C265.3 138.554 265.699 135.91 266.796 133.465C267.195 132.567 267.694 131.669 268.343 130.92C269.59 129.423 271.187 129.473 272.434 130.92C273.083 131.669 273.632 132.517 274.031 133.465C275.428 136.758 276.825 140.101 278.072 143.444C281.016 151.277 283.161 159.409 285.506 167.442C287.402 173.829 289.398 180.165 291.993 186.352C292.541 187.649 293.14 188.897 293.839 190.094C294.138 190.643 294.637 191.142 295.036 191.641C295.136 191.391 295.286 191.341 295.385 191.341Z" fill="black"/>
</g>
</g>
<path d="M151.394 315.376C151.874 315.595 152.234 315.721 152.578 315.892C155.98 317.287 159.337 318.666 162.739 320.06C163.849 320.5 164.031 321.423 163.263 322.316C163.017 322.583 162.788 322.806 162.513 323.013C157.594 327.1 152.249 330.381 146.435 332.84C141.532 334.861 136.789 337.292 132.12 339.799C129.504 341.207 126.859 342.553 124.169 343.884C121.662 345.128 119.226 346.599 116.909 348.162C114.487 349.738 111.932 351.116 109.377 352.495C108.692 352.861 107.875 353.03 107.09 353.108C106.426 353.128 105.614 352.995 105.015 352.684C103.071 351.598 102.647 349.782 103.987 347.978C104.849 346.814 105.934 345.881 106.961 344.826C107.344 344.455 107.772 344.099 108.109 343.713C113.619 337.508 119.1 331.243 124.61 325.039C127.819 321.363 130.996 317.777 134.248 314.267C140.044 308.113 147.016 303.937 155.121 301.573C156.409 301.216 157.68 300.904 159.013 300.562C158.117 299.945 157.681 299.893 157.354 300.537C156.859 300.363 156.364 300.19 155.869 300.016C155.419 299.858 155.014 299.716 154.841 299.201C154.769 298.973 154.44 298.757 154.2 298.723C153.223 298.482 152.186 298.27 151.209 298.029C150.878 297.963 150.547 297.898 150.232 297.788C149.872 297.661 149.238 297.742 149.292 297.155C149.333 296.462 149.981 296.487 150.463 296.554C151.833 296.681 153.204 296.808 154.543 297.024C158.274 297.625 162.142 298.122 165.88 299.28C166.931 299.598 167.95 300.006 168.969 300.414C170.198 300.946 170.472 301.749 170.03 303.009C169.746 303.819 169.285 304.415 168.614 304.888C167.409 305.729 166.25 306.586 165.032 307.321C160.892 309.761 156.723 312.14 152.583 314.58C152.203 314.8 151.867 315.037 151.394 315.376Z" fill="#55BBDA"/>
<path d="M138.489 317.708C141.966 318.714 145.443 319.72 148.872 320.709C150.025 321.06 151.162 321.459 152.316 321.81C153.026 322.059 153.639 322.433 153.786 323.229C153.916 324.073 153.525 324.733 152.835 325.183C152.257 325.618 151.601 325.973 150.961 326.281C136.272 333.896 121.722 341.72 107.589 350.328C106.725 350.823 105.86 351.317 104.948 351.795C104.339 352.167 103.685 352.363 103.027 351.813C102.416 351.28 102.442 350.598 102.675 349.935C103.303 348.294 103.979 346.669 104.702 345.061C106.163 341.957 107.687 338.821 109.148 335.717C110.788 332.25 112.318 328.797 114.006 325.347C115.744 321.754 117.607 318.259 119.423 314.747C120.241 313.173 121.012 311.581 121.863 309.912C121.342 309.729 120.868 309.563 120.442 309.414C119.004 308.963 117.503 308.543 116.082 308.045C114.33 307.431 114.077 306.331 115.304 304.953C116.079 304.108 116.901 303.28 117.771 302.468C118.93 301.438 120.183 300.441 121.373 299.475C124.894 296.561 128.463 293.664 131.936 290.733C133.19 289.736 134.353 289.453 135.791 289.903C138.097 290.606 140.421 291.261 142.727 291.963C147.973 293.536 153.266 295.125 158.495 296.745C159.886 297.18 161.259 297.661 162.585 298.126C163.059 298.292 163.485 298.441 163.926 298.702C165.453 299.503 165.72 300.714 164.526 301.997C163.993 302.608 163.35 303.074 162.692 303.588C158.341 306.743 153.681 309.418 148.99 312.028C145.9 313.711 142.702 315.249 139.534 316.851C139.151 317.035 138.767 317.22 138.414 317.468C138.445 317.532 138.475 317.596 138.489 317.708Z" fill="#FBE8DE"/>
<path d="M121.959 309.945C121.39 309.746 120.964 309.596 120.49 309.43C119.069 308.932 117.568 308.512 116.147 308.014C114.489 307.433 114.189 306.317 115.352 304.97C116.063 304.155 116.869 303.374 117.722 302.609C118.945 301.549 120.198 300.552 121.405 299.539C124.99 296.594 128.558 293.697 132.049 290.719C133.191 289.736 134.401 289.469 135.839 289.92C138.098 290.605 140.374 291.244 142.633 291.929C147.927 293.519 153.203 295.156 158.544 296.762C159.886 297.179 161.213 297.644 162.539 298.109C162.918 298.242 163.297 298.375 163.659 298.555C165.582 299.442 165.877 300.875 164.268 302.279C162.948 303.465 161.456 304.537 159.949 305.498C153.954 309.247 147.898 312.868 141.518 315.897C140.495 316.389 139.519 316.898 138.367 317.452C138.883 317.952 139.471 317.945 139.944 318.111C143.847 319.266 147.798 320.438 151.701 321.594C152.032 321.71 152.38 321.779 152.743 321.959C153.972 322.549 154.27 323.824 153.286 324.809C152.739 325.308 152.066 325.71 151.41 326.065C146.257 328.78 141.103 331.494 135.95 334.209C126.86 339.053 117.892 344.153 109.047 349.509C107.829 350.252 106.564 350.979 105.316 351.658C105.043 351.828 104.723 351.982 104.437 352.041C103.432 352.327 102.615 351.775 102.663 350.728C102.72 350.11 102.889 349.478 103.152 348.878C104.862 345.063 106.619 341.265 108.359 337.514C110.296 333.353 112.169 329.223 114.201 325.096C115.906 321.598 117.753 318.15 119.536 314.733C120.353 313.158 121.124 311.567 121.959 309.945ZM106.146 348.226C106.224 348.307 106.303 348.387 106.397 348.421C120.405 339.715 135.016 332.02 149.601 323.942C148.606 323.594 147.865 323.281 147.091 323.062C143.361 322.021 139.661 321.043 135.931 320.002C135.536 319.916 135.157 319.783 134.794 319.603C133.392 318.899 133.223 317.563 134.398 316.486C134.929 316.034 135.585 315.679 136.241 315.324C140.018 313.35 143.887 311.568 147.602 309.467C152.117 306.901 156.446 304.111 160.853 301.401C161.19 301.199 161.512 300.887 162.073 300.499C160.889 300.084 160.006 299.721 159.09 299.453C151.253 297.078 143.416 294.703 135.596 292.281C134.916 292.096 134.533 292.281 134.082 292.655C130.561 295.569 127.04 298.483 123.519 301.397C122.168 302.519 120.818 303.641 119.467 304.763C119.161 305.029 118.839 305.341 118.419 305.779C118.988 305.978 119.414 306.128 119.793 306.261C121.183 306.695 122.59 307.081 123.9 307.594C125.114 308.073 125.403 308.918 124.829 310.1C123.928 311.912 122.963 313.754 122.015 315.549C120.036 319.376 118.025 323.139 116.14 326.999C113.255 332.954 110.481 338.896 107.676 344.773C107.166 345.924 106.656 347.075 106.146 348.226Z" fill="black"/>
</svg>
