<svg width="58" height="58" viewBox="0 0 58 58" fill="none" xmlns="http://www.w3.org/2000/svg">
<rect x="2.5" y="2.5" width="55" height="55" rx="14.5" fill="black" stroke="black"/>
<rect x="0.5" y="0.5" width="55" height="55" rx="14.5" fill="#DCFFDB" stroke="black"/>
<path d="M26.6875 32.8123C26.6875 33.1604 26.8258 33.4943 27.0719 33.7404C27.3181 33.9865 27.6519 34.1248 28 34.1248C28.3481 34.1248 28.682 33.9865 28.9281 33.7404C29.1742 33.4943 29.3125 33.1604 29.3125 32.8123C29.3125 32.4642 29.1742 32.1304 28.9281 31.8843C28.682 31.6381 28.3481 31.4998 28 31.4998C27.6519 31.4998 27.3181 31.6381 27.0719 31.8843C26.8258 32.1304 26.6875 32.4642 26.6875 32.8123ZM28.6563 29.7498C28.7766 29.7498 28.875 29.6514 28.875 29.5311V22.0936C28.875 21.9733 28.7766 21.8748 28.6563 21.8748H27.3438C27.2235 21.8748 27.125 21.9733 27.125 22.0936V29.5311C27.125 29.6514 27.2235 29.7498 27.3438 29.7498H28.6563ZM38.3907 32.9764H36.6352C36.4848 32.9764 36.3453 33.0557 36.2633 33.1815C35.8752 33.7981 35.4184 34.3687 34.9016 34.8822C34.0133 35.7712 32.9612 36.4797 31.8035 36.9686C30.6033 37.4748 29.3135 37.7342 28.011 37.7315C26.6957 37.7315 25.4188 37.4744 24.2184 36.9686C23.0607 36.4797 22.0086 35.7712 21.1203 34.8822C20.2292 33.9963 19.5195 32.9448 19.0313 31.7869C18.5227 30.5893 18.2657 29.3123 18.2657 27.9998C18.2657 26.6873 18.5227 25.4104 19.0313 24.2127C19.5207 23.0533 20.2235 22.0116 21.1203 21.1174C22.0172 20.2233 23.059 19.5205 24.2184 19.0311C25.4186 18.5249 26.7084 18.2655 28.011 18.2682C29.3262 18.2682 30.6032 18.5252 31.8035 19.0311C32.9629 19.5205 34.0047 20.2233 34.9016 21.1174C35.4211 21.6369 35.875 22.2057 36.2633 22.8182C36.3426 22.9467 36.4848 23.0233 36.6352 23.0233H38.3907C38.5547 23.0233 38.6586 22.851 38.5875 22.7061C36.6625 18.8807 32.7223 16.242 28.1559 16.1873C21.6262 16.1108 16.2012 21.451 16.1875 27.978C16.1739 34.5104 21.4731 39.8123 28.011 39.8123C32.6375 39.8123 36.6407 37.16 38.5848 33.2936C38.6016 33.2603 38.6095 33.2233 38.608 33.1861C38.6065 33.1489 38.5955 33.1127 38.576 33.0809C38.5566 33.0492 38.5293 33.0229 38.4969 33.0046C38.4645 32.9863 38.4279 32.9766 38.3907 32.9764Z" fill="black"/>
<path d="M37.9726 24.6094H39.5941C39.7718 24.6094 39.8757 24.8117 39.7718 24.9566L35.2382 31.2102C35.1974 31.2661 35.1439 31.3116 35.0821 31.343C35.0203 31.3743 34.952 31.3907 34.8828 31.3907C34.8135 31.3907 34.7452 31.3743 34.6834 31.343C34.6217 31.3116 34.5682 31.2661 34.5273 31.2102L31.5414 27.0895C31.4375 26.9445 31.5414 26.7422 31.7191 26.7422H33.3406C33.3753 26.7419 33.4095 26.7499 33.4404 26.7656C33.4714 26.7813 33.4981 26.8042 33.5183 26.8324L34.8828 28.7137L37.7949 24.6996C37.8359 24.6422 37.9015 24.6094 37.9726 24.6094Z" fill="black"/>
</svg>
