<svg width="58" height="58" viewBox="0 0 58 58" fill="none" xmlns="http://www.w3.org/2000/svg">
<rect x="2.5" y="2.5" width="55" height="55" rx="14.5" fill="black" stroke="black"/>
<rect x="0.5" y="0.5" width="55" height="55" rx="14.5" fill="#FFFB9E" stroke="black"/>
<path d="M23.625 23.625H18.375C17.6788 23.625 17.0111 23.9016 16.5188 24.3938C16.0266 24.8861 15.75 25.5538 15.75 26.25V28H17.5V26.25C17.5 26.0179 17.5922 25.7954 17.7563 25.6313C17.9204 25.4672 18.1429 25.375 18.375 25.375H23.625C23.8571 25.375 24.0796 25.4672 24.2437 25.6313C24.4078 25.7954 24.5 26.0179 24.5 26.25V28H26.25V26.25C26.25 25.5538 25.9734 24.8861 25.4812 24.3938C24.9889 23.9016 24.3212 23.625 23.625 23.625ZM21 22.75C21.6922 22.75 22.3689 22.5447 22.9445 22.1601C23.5201 21.7756 23.9687 21.2289 24.2336 20.5894C24.4985 19.9499 24.5678 19.2461 24.4327 18.5672C24.2977 17.8883 23.9644 17.2646 23.4749 16.7751C22.9854 16.2856 22.3617 15.9523 21.6828 15.8173C21.0039 15.6822 20.3001 15.7515 19.6606 16.0164C19.0211 16.2813 18.4744 16.7299 18.0899 17.3055C17.7053 17.8811 17.5 18.5578 17.5 19.25C17.5 20.1783 17.8687 21.0685 18.5251 21.7249C19.1815 22.3813 20.0717 22.75 21 22.75ZM21 17.5C21.3461 17.5 21.6845 17.6026 21.9722 17.7949C22.26 17.9872 22.4843 18.2605 22.6168 18.5803C22.7492 18.9001 22.7839 19.2519 22.7164 19.5914C22.6488 19.9309 22.4822 20.2427 22.2374 20.4874C21.9927 20.7322 21.6809 20.8989 21.3414 20.9664C21.0019 21.0339 20.6501 20.9992 20.3303 20.8668C20.0105 20.7343 19.7372 20.51 19.5449 20.2222C19.3526 19.9345 19.25 19.5961 19.25 19.25C19.25 18.7859 19.4344 18.3408 19.7626 18.0126C20.0908 17.6844 20.5359 17.5 21 17.5ZM37.625 35.875H32.375C31.6788 35.875 31.0111 36.1516 30.5188 36.6438C30.0266 37.1361 29.75 37.8038 29.75 38.5V40.25H31.5V38.5C31.5 38.2679 31.5922 38.0454 31.7563 37.8813C31.9204 37.7172 32.1429 37.625 32.375 37.625H37.625C37.8571 37.625 38.0796 37.7172 38.2437 37.8813C38.4078 38.0454 38.5 38.2679 38.5 38.5V40.25H40.25V38.5C40.25 37.8038 39.9734 37.1361 39.4812 36.6438C38.9889 36.1516 38.3212 35.875 37.625 35.875ZM31.5 31.5C31.5 32.1922 31.7053 32.8689 32.0899 33.4445C32.4744 34.0201 33.0211 34.4687 33.6606 34.7336C34.3001 34.9985 35.0039 35.0678 35.6828 34.9328C36.3617 34.7977 36.9854 34.4644 37.4749 33.9749C37.9644 33.4854 38.2977 32.8618 38.4327 32.1828C38.5678 31.5039 38.4985 30.8002 38.2336 30.1606C37.9687 29.5211 37.5201 28.9744 36.9445 28.5899C36.3689 28.2053 35.6922 28 35 28C34.0717 28 33.1815 28.3688 32.5251 29.0251C31.8687 29.6815 31.5 30.5717 31.5 31.5ZM36.75 31.5C36.75 31.8461 36.6474 32.1845 36.4551 32.4722C36.2628 32.76 35.9895 32.9843 35.6697 33.1168C35.3499 33.2492 34.9981 33.2839 34.6586 33.2164C34.3191 33.1489 34.0073 32.9822 33.7626 32.7374C33.5178 32.4927 33.3511 32.1809 33.2836 31.8414C33.2161 31.5019 33.2508 31.1501 33.3832 30.8303C33.5157 30.5105 33.74 30.2372 34.0278 30.0449C34.3155 29.8526 34.6539 29.75 35 29.75C35.4641 29.75 35.9092 29.9344 36.2374 30.2626C36.5656 30.5908 36.75 31.0359 36.75 31.5Z" fill="black"/>
<path d="M35 24.5V23.625C35 23.0505 34.8868 22.4816 34.667 21.9508C34.4471 21.42 34.1248 20.9377 33.7186 20.5314C33.3123 20.1252 32.83 19.8029 32.2992 19.583C31.7684 19.3632 31.1995 19.25 30.625 19.25H28V17.5H30.625C32.2495 17.5 33.8074 18.1453 34.956 19.294C36.1047 20.4426 36.75 22.0005 36.75 23.625V24.5H35Z" fill="black"/>
<path d="M19.25 31.5V32.375C19.25 33.5353 19.7109 34.6481 20.5314 35.4686C21.3519 36.2891 22.4647 36.75 23.625 36.75H26.25V38.5H23.625C22.0005 38.5 20.4426 37.8547 19.294 36.706C18.1453 35.5574 17.5 33.9995 17.5 32.375V31.5H19.25Z" fill="black"/>
</svg>
