<svg width="58" height="58" viewBox="0 0 58 58" fill="none" xmlns="http://www.w3.org/2000/svg">
<rect x="2.5" y="2.5" width="55" height="55" rx="14.5" fill="black" stroke="black"/>
<rect x="0.5" y="0.5" width="55" height="55" rx="14.5" fill="#FBE8DE" stroke="black"/>
<path d="M38.3608 23.7365C37.83 22.4479 37.0657 21.2801 36.1208 20.2858C34.0802 18.1385 31.1968 16.7998 28.0008 16.7998C21.8152 16.7998 16.8008 21.8142 16.8008 27.9998M39.2008 27.9998C39.2008 34.1854 34.1864 39.1998 28.0008 39.1998C24.9483 39.1998 22.181 37.9787 20.1608 35.9982C19.1414 34.999 18.3123 33.8063 17.7327 32.4798" stroke="black" stroke-width="2" stroke-linecap="square" stroke-linejoin="round"/>
<path d="M18.9004 27.9999H22.4004L25.2004 32.4799L30.2404 22.3999L34.1604 27.9999H37.1004" stroke="black" stroke-width="2" stroke-linecap="square" stroke-linejoin="round"/>
</svg>
