<svg width="1021" height="535" viewBox="0 0 1021 535" fill="none" xmlns="http://www.w3.org/2000/svg">
<rect x="5" y="5" width="1016" height="530" rx="15" fill="black"/>
<rect x="1" y="1" width="1016" height="530" rx="15" fill="#F7F4ED"/>
<rect x="8" y="8" width="1002" height="42" rx="8" fill="#0F1410"/>
<circle cx="29" cy="29" r="7" fill="#FF605A"/>
<circle cx="51" cy="29" r="7" fill="#FFBE2F"/>
<circle cx="73" cy="29" r="7" fill="#2BCA41"/>
<rect x="8" y="57" width="225" height="467" rx="8" fill="#0F1410"/>
<mask id="mask0_2545_59" style="mask-type:alpha" maskUnits="userSpaceOnUse" x="959" y="60" width="30" height="30">
<path d="M989 75C989 66.7157 982.284 60 974 60C965.716 60 959 66.7157 959 75C959 83.2843 965.716 90 974 90C982.284 90 989 83.2843 989 75Z" fill="white"/>
</mask>
<g mask="url(#mask0_2545_59)">
<path d="M989 60H959V90H989V60Z" fill="#FFB391"/>
<path d="M957.387 55.7054L971.471 82.1938L974.782 80.4333L960.698 53.9449L957.387 55.7054Z" fill="#FC2F68"/>
<path d="M970.625 84.375C973.939 84.375 976.625 81.6887 976.625 78.375C976.625 75.0613 973.939 72.375 970.625 72.375C967.311 72.375 964.625 75.0613 964.625 78.375C964.625 81.6887 967.311 84.375 970.625 84.375Z" fill="#472F5F"/>
<path d="M980.889 61.0645L964.113 85.9356" stroke="#08295E" stroke-width="3.2"/>
</g>
<path d="M21.6655 73.3636H24.4212L27.0746 78.375H27.1882L29.8416 73.3636H32.5973L28.353 80.8864V85H25.9098V80.8864L21.6655 73.3636ZM36.0107 85.1705C35.1281 85.1705 34.3648 84.983 33.7209 84.608C33.0807 84.2292 32.5864 83.7027 32.2379 83.0284C31.8894 82.3504 31.7152 81.5644 31.7152 80.6705C31.7152 79.7689 31.8894 78.9811 32.2379 78.3068C32.5864 77.6288 33.0807 77.1023 33.7209 76.7273C34.3648 76.3485 35.1281 76.1591 36.0107 76.1591C36.8932 76.1591 37.6546 76.3485 38.2947 76.7273C38.9387 77.1023 39.4349 77.6288 39.7834 78.3068C40.1319 78.9811 40.3061 79.7689 40.3061 80.6705C40.3061 81.5644 40.1319 82.3504 39.7834 83.0284C39.4349 83.7027 38.9387 84.2292 38.2947 84.608C37.6546 84.983 36.8932 85.1705 36.0107 85.1705ZM36.022 83.2955C36.4235 83.2955 36.7588 83.1818 37.0277 82.9545C37.2966 82.7235 37.4993 82.4091 37.6357 82.0114C37.7758 81.6136 37.8459 81.161 37.8459 80.6534C37.8459 80.1458 37.7758 79.6932 37.6357 79.2955C37.4993 78.8977 37.2966 78.5833 37.0277 78.3523C36.7588 78.1212 36.4235 78.0057 36.022 78.0057C35.6167 78.0057 35.2758 78.1212 34.9993 78.3523C34.7266 78.5833 34.5201 78.8977 34.38 79.2955C34.2436 79.6932 34.1754 80.1458 34.1754 80.6534C34.1754 81.161 34.2436 81.6136 34.38 82.0114C34.5201 82.4091 34.7266 82.7235 34.9993 82.9545C35.2758 83.1818 35.6167 83.2955 36.022 83.2955ZM47.4766 81.2841V76.2727H49.897V85H47.5732V83.4148H47.4822C47.2853 83.9261 46.9576 84.3371 46.4993 84.6477C46.0447 84.9583 45.4898 85.1136 44.8345 85.1136C44.2512 85.1136 43.7379 84.9811 43.2947 84.7159C42.8516 84.4508 42.505 84.0739 42.255 83.5852C42.0088 83.0966 41.8838 82.5114 41.88 81.8295V76.2727H44.3004V81.3977C44.3042 81.9129 44.4425 82.3201 44.7152 82.6193C44.9879 82.9186 45.3535 83.0682 45.8118 83.0682C46.1035 83.0682 46.3762 83.0019 46.63 82.8693C46.8838 82.733 47.0883 82.5322 47.2436 82.267C47.4027 82.0019 47.4804 81.6742 47.4766 81.2841ZM51.8331 85V76.2727H54.1797V77.7955H54.2706C54.4297 77.2538 54.6967 76.8447 55.0717 76.5682C55.4467 76.2879 55.8786 76.1477 56.3672 76.1477C56.4884 76.1477 56.6191 76.1553 56.7592 76.1705C56.8994 76.1856 57.0225 76.2064 57.1286 76.233V78.3807C57.0149 78.3466 56.8577 78.3163 56.657 78.2898C56.4562 78.2633 56.2725 78.25 56.1058 78.25C55.7498 78.25 55.4316 78.3277 55.1513 78.483C54.8748 78.6345 54.6551 78.8466 54.4922 79.1193C54.3331 79.392 54.2536 79.7064 54.2536 80.0625V85H51.8331ZM66.7251 76.2727V78.0909H61.4695V76.2727H66.7251ZM62.6626 74.1818H65.0831V82.3182C65.0831 82.5417 65.1172 82.7159 65.1854 82.8409C65.2536 82.9621 65.3482 83.0473 65.4695 83.0966C65.5945 83.1458 65.7384 83.1705 65.9013 83.1705C66.0149 83.1705 66.1286 83.161 66.2422 83.142C66.3558 83.1193 66.4429 83.1023 66.5036 83.0909L66.8842 84.892C66.763 84.9299 66.5926 84.9735 66.3729 85.0227C66.1532 85.0758 65.8861 85.108 65.5717 85.1193C64.9884 85.142 64.477 85.0644 64.0376 84.8864C63.602 84.7083 63.263 84.4318 63.0206 84.0568C62.7782 83.6818 62.6589 83.2083 62.6626 82.6364V74.1818ZM72.1854 85.1705C71.2876 85.1705 70.5149 84.9886 69.8672 84.625C69.2232 84.2576 68.727 83.7386 68.3786 83.0682C68.0301 82.3939 67.8558 81.5966 67.8558 80.6761C67.8558 79.7784 68.0301 78.9905 68.3786 78.3125C68.727 77.6345 69.2176 77.1061 69.8501 76.7273C70.4865 76.3485 71.2327 76.1591 72.0888 76.1591C72.6645 76.1591 73.2005 76.2519 73.6967 76.4375C74.1967 76.6193 74.6323 76.8939 75.0036 77.2614C75.3786 77.6288 75.6702 78.0909 75.8786 78.6477C76.0869 79.2008 76.1911 79.8485 76.1911 80.5909V81.2557H68.8217V79.7557H73.9126C73.9126 79.4072 73.8369 79.0985 73.6854 78.8295C73.5339 78.5606 73.3236 78.3504 73.0547 78.1989C72.7895 78.0436 72.4808 77.9659 72.1286 77.9659C71.7611 77.9659 71.4354 78.0511 71.1513 78.2216C70.871 78.3883 70.6513 78.6136 70.4922 78.8977C70.3331 79.178 70.2517 79.4905 70.2479 79.8352V81.2614C70.2479 81.6932 70.3274 82.0663 70.4865 82.3807C70.6494 82.6951 70.8786 82.9375 71.174 83.108C71.4695 83.2784 71.8198 83.3636 72.2251 83.3636C72.4941 83.3636 72.7403 83.3258 72.9638 83.25C73.1873 83.1742 73.3786 83.0606 73.5376 82.9091C73.6967 82.7576 73.8179 82.572 73.9013 82.3523L76.1399 82.5C76.0263 83.0379 75.7933 83.5076 75.4411 83.9091C75.0926 84.3068 74.6418 84.6174 74.0888 84.8409C73.5395 85.0606 72.9051 85.1705 72.1854 85.1705ZM80.2592 85.1648C79.7024 85.1648 79.2062 85.0682 78.7706 84.875C78.335 84.678 77.9903 84.3883 77.7365 84.0057C77.4865 83.6193 77.3615 83.1383 77.3615 82.5625C77.3615 82.0777 77.4505 81.6705 77.6286 81.3409C77.8066 81.0114 78.049 80.7462 78.3558 80.5455C78.6626 80.3447 79.0111 80.1932 79.4013 80.0909C79.7952 79.9886 80.2081 79.9167 80.6399 79.875C81.1475 79.822 81.5566 79.7727 81.8672 79.7273C82.1778 79.678 82.4032 79.6061 82.5433 79.5114C82.6835 79.4167 82.7536 79.2765 82.7536 79.0909V79.0568C82.7536 78.697 82.6399 78.4186 82.4126 78.2216C82.1892 78.0246 81.871 77.9261 81.4581 77.9261C81.0225 77.9261 80.6759 78.0227 80.4183 78.2159C80.1607 78.4053 79.9903 78.6439 79.907 78.9318L77.6683 78.75C77.782 78.2197 78.0054 77.7614 78.3388 77.375C78.6721 76.9848 79.102 76.6856 79.6286 76.4773C80.1589 76.2652 80.7725 76.1591 81.4695 76.1591C81.9543 76.1591 82.4183 76.2159 82.8615 76.3295C83.3085 76.4432 83.7043 76.6193 84.049 76.858C84.3975 77.0966 84.6721 77.4034 84.8729 77.7784C85.0736 78.1496 85.174 78.5947 85.174 79.1136V85H82.8786V83.7898H82.8104C82.6702 84.0625 82.4827 84.303 82.2479 84.5114C82.013 84.7159 81.7308 84.8769 81.4013 84.9943C81.0717 85.108 80.6911 85.1648 80.2592 85.1648ZM80.9524 83.4943C81.3085 83.4943 81.6229 83.4242 81.8956 83.2841C82.1683 83.1402 82.3823 82.947 82.5376 82.7045C82.6929 82.4621 82.7706 82.1875 82.7706 81.8807V80.9545C82.6948 81.0038 82.5907 81.0492 82.4581 81.0909C82.3293 81.1288 82.1835 81.1648 82.0206 81.1989C81.8577 81.2292 81.6948 81.2576 81.532 81.2841C81.3691 81.3068 81.2214 81.3277 81.0888 81.3466C80.8047 81.3883 80.5566 81.4545 80.3445 81.5455C80.1323 81.6364 79.9676 81.7595 79.8501 81.9148C79.7327 82.0663 79.674 82.2557 79.674 82.483C79.674 82.8125 79.7933 83.0644 80.032 83.2386C80.2744 83.4091 80.5812 83.4943 80.9524 83.4943ZM87.0518 85V76.2727H89.3587V77.8125H89.4609C89.6428 77.3011 89.9458 76.8977 90.37 76.6023C90.7943 76.3068 91.3018 76.1591 91.8928 76.1591C92.4912 76.1591 93.0007 76.3087 93.4212 76.608C93.8416 76.9034 94.1219 77.3049 94.2621 77.8125H94.353C94.531 77.3125 94.853 76.9129 95.3189 76.6136C95.7886 76.3106 96.3435 76.1591 96.9837 76.1591C97.7981 76.1591 98.459 76.4186 98.9666 76.9375C99.478 77.4527 99.7337 78.1837 99.7337 79.1307V85H97.3189V79.608C97.3189 79.1231 97.1901 78.7595 96.9325 78.517C96.675 78.2746 96.353 78.1534 95.9666 78.1534C95.5272 78.1534 95.1844 78.2936 94.9382 78.5739C94.692 78.8504 94.5689 79.2159 94.5689 79.6705V85H92.2223V79.5568C92.2223 79.1288 92.0992 78.7879 91.853 78.5341C91.6106 78.2803 91.2905 78.1534 90.8928 78.1534C90.6238 78.1534 90.3814 78.2216 90.1655 78.358C89.9534 78.4905 89.7848 78.678 89.6598 78.9205C89.5348 79.1591 89.4723 79.4394 89.4723 79.7614V85H87.0518ZM108.907 78.7614L106.691 78.8977C106.653 78.7083 106.572 78.5379 106.447 78.3864C106.322 78.2311 106.157 78.108 105.952 78.017C105.752 77.9223 105.511 77.875 105.231 77.875C104.856 77.875 104.54 77.9545 104.282 78.1136C104.024 78.2689 103.896 78.4773 103.896 78.7386C103.896 78.947 103.979 79.1231 104.146 79.267C104.312 79.411 104.598 79.5265 105.004 79.6136L106.583 79.9318C107.432 80.1061 108.064 80.3864 108.481 80.7727C108.897 81.1591 109.106 81.6667 109.106 82.2955C109.106 82.8674 108.937 83.3693 108.6 83.8011C108.267 84.233 107.808 84.5701 107.225 84.8125C106.646 85.0511 105.977 85.1705 105.219 85.1705C104.064 85.1705 103.144 84.9299 102.458 84.4489C101.776 83.964 101.377 83.3049 101.259 82.4716L103.64 82.3466C103.712 82.6989 103.886 82.9678 104.163 83.1534C104.439 83.3352 104.793 83.4261 105.225 83.4261C105.649 83.4261 105.99 83.3447 106.248 83.1818C106.509 83.0152 106.642 82.8011 106.646 82.5398C106.642 82.3201 106.549 82.1402 106.367 82C106.185 81.8561 105.905 81.7462 105.526 81.6705L104.015 81.3693C103.163 81.1989 102.528 80.9034 102.112 80.483C101.699 80.0625 101.492 79.5265 101.492 78.875C101.492 78.3144 101.644 77.8314 101.947 77.4261C102.254 77.0208 102.683 76.7083 103.237 76.4886C103.793 76.2689 104.445 76.1591 105.191 76.1591C106.293 76.1591 107.161 76.392 107.793 76.858C108.43 77.3239 108.801 77.9583 108.907 78.7614Z" fill="white"/>
<rect x="20" y="112" width="34" height="34" rx="17" fill="white"/>
<rect x="66" y="124" width="126" height="10" rx="5" fill="white"/>
<rect x="20" y="162" width="34" height="34" rx="17" fill="#4B4B4B"/>
<rect x="66" y="174" width="126" height="10" rx="5" fill="#4B4B4B"/>
<rect x="20" y="212" width="34" height="34" rx="17" fill="#4B4B4B"/>
<rect x="66" y="223" width="126" height="10" rx="5" fill="#4B4B4B"/>
<rect x="20" y="262" width="34" height="34" rx="17" fill="#4B4B4B"/>
<rect x="66" y="274" width="126" height="10" rx="5" fill="#4B4B4B"/>
<rect x="269" y="69" width="126" height="10" rx="5" fill="#CCCCCC"/>
<rect x="901" y="69" width="47" height="10" rx="5" fill="#CCCCCC"/>
<rect x="269.5" y="257.5" width="229" height="243" rx="7.5" fill="#FEFEFE" stroke="black"/>
<path d="M294.746 289H290.621V277.364H294.78C295.95 277.364 296.958 277.597 297.803 278.062C298.647 278.525 299.297 279.189 299.751 280.057C300.21 280.924 300.439 281.962 300.439 283.17C300.439 284.383 300.21 285.424 299.751 286.295C299.297 287.167 298.643 287.835 297.791 288.301C296.943 288.767 295.928 289 294.746 289ZM293.081 286.892H294.643C295.371 286.892 295.982 286.763 296.479 286.506C296.979 286.244 297.354 285.841 297.604 285.295C297.857 284.746 297.984 284.038 297.984 283.17C297.984 282.311 297.857 281.608 297.604 281.062C297.354 280.517 296.981 280.116 296.484 279.858C295.988 279.6 295.376 279.472 294.649 279.472H293.081V286.892ZM304.705 289.165C304.148 289.165 303.652 289.068 303.216 288.875C302.78 288.678 302.436 288.388 302.182 288.006C301.932 287.619 301.807 287.138 301.807 286.562C301.807 286.078 301.896 285.67 302.074 285.341C302.252 285.011 302.494 284.746 302.801 284.545C303.108 284.345 303.456 284.193 303.847 284.091C304.241 283.989 304.653 283.917 305.085 283.875C305.593 283.822 306.002 283.773 306.312 283.727C306.623 283.678 306.848 283.606 306.989 283.511C307.129 283.417 307.199 283.277 307.199 283.091V283.057C307.199 282.697 307.085 282.419 306.858 282.222C306.634 282.025 306.316 281.926 305.903 281.926C305.468 281.926 305.121 282.023 304.864 282.216C304.606 282.405 304.436 282.644 304.352 282.932L302.114 282.75C302.227 282.22 302.451 281.761 302.784 281.375C303.117 280.985 303.547 280.686 304.074 280.477C304.604 280.265 305.218 280.159 305.915 280.159C306.4 280.159 306.864 280.216 307.307 280.33C307.754 280.443 308.15 280.619 308.494 280.858C308.843 281.097 309.117 281.403 309.318 281.778C309.519 282.15 309.619 282.595 309.619 283.114V289H307.324V287.79H307.256C307.116 288.062 306.928 288.303 306.693 288.511C306.458 288.716 306.176 288.877 305.847 288.994C305.517 289.108 305.136 289.165 304.705 289.165ZM305.398 287.494C305.754 287.494 306.068 287.424 306.341 287.284C306.614 287.14 306.828 286.947 306.983 286.705C307.138 286.462 307.216 286.187 307.216 285.881V284.955C307.14 285.004 307.036 285.049 306.903 285.091C306.775 285.129 306.629 285.165 306.466 285.199C306.303 285.229 306.14 285.258 305.977 285.284C305.814 285.307 305.667 285.328 305.534 285.347C305.25 285.388 305.002 285.455 304.79 285.545C304.578 285.636 304.413 285.759 304.295 285.915C304.178 286.066 304.119 286.256 304.119 286.483C304.119 286.812 304.239 287.064 304.477 287.239C304.72 287.409 305.027 287.494 305.398 287.494ZM311.497 289V280.273H313.918V289H311.497ZM312.713 279.148C312.353 279.148 312.045 279.028 311.787 278.79C311.533 278.547 311.406 278.258 311.406 277.92C311.406 277.587 311.533 277.301 311.787 277.062C312.045 276.82 312.353 276.699 312.713 276.699C313.073 276.699 313.38 276.82 313.634 277.062C313.891 277.301 314.02 277.587 314.02 277.92C314.02 278.258 313.891 278.547 313.634 278.79C313.38 279.028 313.073 279.148 312.713 279.148ZM318.277 277.364V289H315.857V277.364H318.277ZM321.71 292.273C321.403 292.273 321.116 292.248 320.847 292.199C320.581 292.153 320.362 292.095 320.188 292.023L320.733 290.216C321.017 290.303 321.273 290.35 321.5 290.358C321.731 290.366 321.93 290.313 322.097 290.199C322.267 290.085 322.405 289.892 322.511 289.619L322.653 289.25L319.523 280.273H322.068L323.875 286.682H323.966L325.79 280.273H328.352L324.96 289.943C324.797 290.413 324.576 290.822 324.295 291.17C324.019 291.523 323.669 291.794 323.244 291.983C322.82 292.176 322.309 292.273 321.71 292.273ZM332.896 279.392V277.364H342.453V279.392H338.891V289H336.459V279.392H332.896ZM345.283 289.165C344.726 289.165 344.23 289.068 343.794 288.875C343.358 288.678 343.014 288.388 342.76 288.006C342.51 287.619 342.385 287.138 342.385 286.562C342.385 286.078 342.474 285.67 342.652 285.341C342.83 285.011 343.072 284.746 343.379 284.545C343.686 284.345 344.035 284.193 344.425 284.091C344.819 283.989 345.232 283.917 345.663 283.875C346.171 283.822 346.58 283.773 346.891 283.727C347.201 283.678 347.427 283.606 347.567 283.511C347.707 283.417 347.777 283.277 347.777 283.091V283.057C347.777 282.697 347.663 282.419 347.436 282.222C347.213 282.025 346.894 281.926 346.482 281.926C346.046 281.926 345.699 282.023 345.442 282.216C345.184 282.405 345.014 282.644 344.93 282.932L342.692 282.75C342.805 282.22 343.029 281.761 343.362 281.375C343.696 280.985 344.125 280.686 344.652 280.477C345.182 280.265 345.796 280.159 346.493 280.159C346.978 280.159 347.442 280.216 347.885 280.33C348.332 280.443 348.728 280.619 349.072 280.858C349.421 281.097 349.696 281.403 349.896 281.778C350.097 282.15 350.197 282.595 350.197 283.114V289H347.902V287.79H347.834C347.694 288.062 347.506 288.303 347.271 288.511C347.036 288.716 346.754 288.877 346.425 288.994C346.095 289.108 345.714 289.165 345.283 289.165ZM345.976 287.494C346.332 287.494 346.646 287.424 346.919 287.284C347.192 287.14 347.406 286.947 347.561 286.705C347.716 286.462 347.794 286.187 347.794 285.881V284.955C347.718 285.004 347.614 285.049 347.482 285.091C347.353 285.129 347.207 285.165 347.044 285.199C346.881 285.229 346.718 285.258 346.555 285.284C346.393 285.307 346.245 285.328 346.112 285.347C345.828 285.388 345.58 285.455 345.368 285.545C345.156 285.636 344.991 285.759 344.874 285.915C344.756 286.066 344.697 286.256 344.697 286.483C344.697 286.812 344.817 287.064 345.055 287.239C345.298 287.409 345.605 287.494 345.976 287.494ZM359.337 282.761L357.121 282.898C357.083 282.708 357.001 282.538 356.876 282.386C356.751 282.231 356.587 282.108 356.382 282.017C356.181 281.922 355.941 281.875 355.661 281.875C355.286 281.875 354.969 281.955 354.712 282.114C354.454 282.269 354.325 282.477 354.325 282.739C354.325 282.947 354.409 283.123 354.575 283.267C354.742 283.411 355.028 283.527 355.433 283.614L357.013 283.932C357.861 284.106 358.494 284.386 358.911 284.773C359.327 285.159 359.536 285.667 359.536 286.295C359.536 286.867 359.367 287.369 359.03 287.801C358.696 288.233 358.238 288.57 357.655 288.812C357.075 289.051 356.407 289.17 355.649 289.17C354.494 289.17 353.573 288.93 352.888 288.449C352.206 287.964 351.806 287.305 351.689 286.472L354.07 286.347C354.142 286.699 354.316 286.968 354.592 287.153C354.869 287.335 355.223 287.426 355.655 287.426C356.079 287.426 356.42 287.345 356.678 287.182C356.939 287.015 357.071 286.801 357.075 286.54C357.071 286.32 356.979 286.14 356.797 286C356.615 285.856 356.335 285.746 355.956 285.67L354.445 285.369C353.592 285.199 352.958 284.903 352.541 284.483C352.128 284.062 351.922 283.527 351.922 282.875C351.922 282.314 352.073 281.831 352.376 281.426C352.683 281.021 353.113 280.708 353.666 280.489C354.223 280.269 354.875 280.159 355.621 280.159C356.723 280.159 357.59 280.392 358.223 280.858C358.859 281.324 359.231 281.958 359.337 282.761ZM363.253 286.489L363.259 283.585H363.611L366.406 280.273H369.185L365.429 284.659H364.855L363.253 286.489ZM361.06 289V277.364H363.48V289H361.06ZM366.514 289L363.946 285.199L365.56 283.489L369.349 289H366.514ZM377.634 282.761L375.418 282.898C375.38 282.708 375.298 282.538 375.173 282.386C375.048 282.231 374.884 282.108 374.679 282.017C374.478 281.922 374.238 281.875 373.957 281.875C373.582 281.875 373.266 281.955 373.009 282.114C372.751 282.269 372.622 282.477 372.622 282.739C372.622 282.947 372.705 283.123 372.872 283.267C373.039 283.411 373.325 283.527 373.73 283.614L375.31 283.932C376.158 284.106 376.791 284.386 377.207 284.773C377.624 285.159 377.832 285.667 377.832 286.295C377.832 286.867 377.664 287.369 377.327 287.801C376.993 288.233 376.535 288.57 375.952 288.812C375.372 289.051 374.704 289.17 373.946 289.17C372.791 289.17 371.87 288.93 371.185 288.449C370.503 287.964 370.103 287.305 369.986 286.472L372.366 286.347C372.438 286.699 372.613 286.968 372.889 287.153C373.166 287.335 373.52 287.426 373.952 287.426C374.376 287.426 374.717 287.345 374.974 287.182C375.236 287.015 375.368 286.801 375.372 286.54C375.368 286.32 375.276 286.14 375.094 286C374.912 285.856 374.632 285.746 374.253 285.67L372.741 285.369C371.889 285.199 371.255 284.903 370.838 284.483C370.425 284.062 370.219 283.527 370.219 282.875C370.219 282.314 370.37 281.831 370.673 281.426C370.98 281.021 371.41 280.708 371.963 280.489C372.52 280.269 373.171 280.159 373.918 280.159C375.02 280.159 375.887 280.392 376.52 280.858C377.156 281.324 377.527 281.958 377.634 282.761Z" fill="black"/>
<rect x="289" y="317" width="191" height="32" rx="7" fill="#EAEAEA"/>
<rect x="293" y="321" width="24" height="24" rx="5" fill="#FF605A"/>
<rect x="328" y="329" width="112" height="7" rx="3.5" fill="#CCCCCC"/>
<rect x="288" y="357" width="192" height="32" rx="7" fill="#EAEAEA"/>
<rect x="292" y="361" width="24" height="24" rx="5" fill="#FFBE2F"/>
<rect x="327" y="369" width="113" height="7" rx="3.5" fill="#CCCCCC"/>
<rect x="288" y="397" width="192" height="32" rx="7" fill="#EAEAEA"/>
<rect x="292" y="401" width="24" height="24" rx="5" fill="#2BCA41"/>
<rect x="327" y="409" width="113" height="7" rx="3.5" fill="#CCCCCC"/>
<rect x="288" y="437" width="192" height="32" rx="7" fill="#EAEAEA"/>
<rect x="292" y="441" width="24" height="24" rx="5" fill="#315AFF"/>
<rect x="327" y="449" width="113" height="7" rx="3.5" fill="#CCCCCC"/>
<rect x="269.5" y="106.5" width="347" height="126" rx="7.5" fill="#FEFEFE" stroke="black"/>
<rect x="641.5" y="106.5" width="347" height="126" rx="7.5" fill="#FEFEFE" stroke="black"/>
<path d="M661.568 127.392V125.364H671.125V127.392H667.562V137H665.131V127.392H661.568ZM672.653 137V128.273H675.074V137H672.653ZM673.869 127.148C673.509 127.148 673.201 127.028 672.943 126.79C672.689 126.547 672.562 126.258 672.562 125.92C672.562 125.587 672.689 125.301 672.943 125.062C673.201 124.82 673.509 124.699 673.869 124.699C674.229 124.699 674.536 124.82 674.79 125.062C675.047 125.301 675.176 125.587 675.176 125.92C675.176 126.258 675.047 126.547 674.79 126.79C674.536 127.028 674.229 127.148 673.869 127.148ZM677.013 137V128.273H679.32V129.812H679.422C679.604 129.301 679.907 128.898 680.331 128.602C680.755 128.307 681.263 128.159 681.854 128.159C682.452 128.159 682.962 128.309 683.382 128.608C683.803 128.903 684.083 129.305 684.223 129.812H684.314C684.492 129.312 684.814 128.913 685.28 128.614C685.75 128.311 686.304 128.159 686.945 128.159C687.759 128.159 688.42 128.419 688.928 128.938C689.439 129.453 689.695 130.184 689.695 131.131V137H687.28V131.608C687.28 131.123 687.151 130.759 686.893 130.517C686.636 130.275 686.314 130.153 685.928 130.153C685.488 130.153 685.145 130.294 684.899 130.574C684.653 130.85 684.53 131.216 684.53 131.67V137H682.183V131.557C682.183 131.129 682.06 130.788 681.814 130.534C681.571 130.28 681.251 130.153 680.854 130.153C680.585 130.153 680.342 130.222 680.126 130.358C679.914 130.491 679.746 130.678 679.621 130.92C679.496 131.159 679.433 131.439 679.433 131.761V137H677.013ZM695.584 137.17C694.686 137.17 693.913 136.989 693.266 136.625C692.622 136.258 692.125 135.739 691.777 135.068C691.429 134.394 691.254 133.597 691.254 132.676C691.254 131.778 691.429 130.991 691.777 130.312C692.125 129.634 692.616 129.106 693.249 128.727C693.885 128.348 694.631 128.159 695.487 128.159C696.063 128.159 696.599 128.252 697.095 128.438C697.595 128.619 698.031 128.894 698.402 129.261C698.777 129.629 699.069 130.091 699.277 130.648C699.485 131.201 699.589 131.848 699.589 132.591V133.256H692.22V131.756H697.311C697.311 131.407 697.235 131.098 697.084 130.83C696.932 130.561 696.722 130.35 696.453 130.199C696.188 130.044 695.879 129.966 695.527 129.966C695.16 129.966 694.834 130.051 694.55 130.222C694.269 130.388 694.05 130.614 693.891 130.898C693.732 131.178 693.65 131.491 693.646 131.835V133.261C693.646 133.693 693.726 134.066 693.885 134.381C694.048 134.695 694.277 134.938 694.572 135.108C694.868 135.278 695.218 135.364 695.624 135.364C695.893 135.364 696.139 135.326 696.362 135.25C696.586 135.174 696.777 135.061 696.936 134.909C697.095 134.758 697.216 134.572 697.3 134.352L699.538 134.5C699.425 135.038 699.192 135.508 698.839 135.909C698.491 136.307 698.04 136.617 697.487 136.841C696.938 137.061 696.304 137.17 695.584 137.17ZM704.918 137V125.364H709.509C710.387 125.364 711.137 125.521 711.759 125.835C712.384 126.146 712.859 126.587 713.185 127.159C713.514 127.727 713.679 128.396 713.679 129.165C713.679 129.937 713.512 130.602 713.179 131.159C712.846 131.712 712.363 132.136 711.73 132.432C711.101 132.727 710.34 132.875 709.446 132.875H706.372V130.898H709.048C709.518 130.898 709.908 130.833 710.219 130.705C710.529 130.576 710.76 130.383 710.912 130.125C711.067 129.867 711.145 129.547 711.145 129.165C711.145 128.778 711.067 128.453 710.912 128.188C710.76 127.922 710.527 127.722 710.213 127.585C709.902 127.445 709.51 127.375 709.037 127.375H707.378V137H704.918ZM711.202 131.705L714.094 137H711.378L708.548 131.705H711.202ZM719.209 137.17C718.311 137.17 717.538 136.989 716.891 136.625C716.247 136.258 715.75 135.739 715.402 135.068C715.054 134.394 714.879 133.597 714.879 132.676C714.879 131.778 715.054 130.991 715.402 130.312C715.75 129.634 716.241 129.106 716.874 128.727C717.51 128.348 718.256 128.159 719.112 128.159C719.688 128.159 720.224 128.252 720.72 128.438C721.22 128.619 721.656 128.894 722.027 129.261C722.402 129.629 722.694 130.091 722.902 130.648C723.11 131.201 723.214 131.848 723.214 132.591V133.256H715.845V131.756H720.936C720.936 131.407 720.86 131.098 720.709 130.83C720.557 130.561 720.347 130.35 720.078 130.199C719.813 130.044 719.504 129.966 719.152 129.966C718.785 129.966 718.459 130.051 718.175 130.222C717.894 130.388 717.675 130.614 717.516 130.898C717.357 131.178 717.275 131.491 717.271 131.835V133.261C717.271 133.693 717.351 134.066 717.51 134.381C717.673 134.695 717.902 134.938 718.197 135.108C718.493 135.278 718.843 135.364 719.249 135.364C719.518 135.364 719.764 135.326 719.987 135.25C720.211 135.174 720.402 135.061 720.561 134.909C720.72 134.758 720.841 134.572 720.925 134.352L723.163 134.5C723.05 135.038 722.817 135.508 722.464 135.909C722.116 136.307 721.665 136.617 721.112 136.841C720.563 137.061 719.929 137.17 719.209 137.17ZM724.794 137V128.273H727.101V129.812H727.203C727.385 129.301 727.688 128.898 728.112 128.602C728.536 128.307 729.044 128.159 729.635 128.159C730.233 128.159 730.743 128.309 731.163 128.608C731.584 128.903 731.864 129.305 732.004 129.812H732.095C732.273 129.312 732.595 128.913 733.061 128.614C733.531 128.311 734.086 128.159 734.726 128.159C735.54 128.159 736.201 128.419 736.709 128.938C737.22 129.453 737.476 130.184 737.476 131.131V137H735.061V131.608C735.061 131.123 734.932 130.759 734.675 130.517C734.417 130.275 734.095 130.153 733.709 130.153C733.269 130.153 732.927 130.294 732.68 130.574C732.434 130.85 732.311 131.216 732.311 131.67V137H729.964V131.557C729.964 131.129 729.841 130.788 729.595 130.534C729.353 130.28 729.033 130.153 728.635 130.153C728.366 130.153 728.124 130.222 727.908 130.358C727.696 130.491 727.527 130.678 727.402 130.92C727.277 131.159 727.214 131.439 727.214 131.761V137H724.794ZM741.876 137.165C741.32 137.165 740.823 137.068 740.388 136.875C739.952 136.678 739.607 136.388 739.354 136.006C739.104 135.619 738.979 135.138 738.979 134.562C738.979 134.078 739.068 133.67 739.246 133.341C739.424 133.011 739.666 132.746 739.973 132.545C740.28 132.345 740.628 132.193 741.018 132.091C741.412 131.989 741.825 131.917 742.257 131.875C742.765 131.822 743.174 131.773 743.484 131.727C743.795 131.678 744.02 131.606 744.161 131.511C744.301 131.417 744.371 131.277 744.371 131.091V131.057C744.371 130.697 744.257 130.419 744.03 130.222C743.806 130.025 743.488 129.926 743.075 129.926C742.64 129.926 742.293 130.023 742.036 130.216C741.778 130.405 741.607 130.644 741.524 130.932L739.286 130.75C739.399 130.22 739.623 129.761 739.956 129.375C740.289 128.985 740.719 128.686 741.246 128.477C741.776 128.265 742.39 128.159 743.087 128.159C743.571 128.159 744.036 128.216 744.479 128.33C744.926 128.443 745.321 128.619 745.666 128.858C746.015 129.097 746.289 129.403 746.49 129.778C746.691 130.15 746.791 130.595 746.791 131.114V137H744.496V135.79H744.428C744.287 136.062 744.1 136.303 743.865 136.511C743.63 136.716 743.348 136.877 743.018 136.994C742.689 137.108 742.308 137.165 741.876 137.165ZM742.57 135.494C742.926 135.494 743.24 135.424 743.513 135.284C743.786 135.14 744 134.947 744.155 134.705C744.31 134.462 744.388 134.187 744.388 133.881V132.955C744.312 133.004 744.208 133.049 744.075 133.091C743.946 133.129 743.801 133.165 743.638 133.199C743.475 133.229 743.312 133.258 743.149 133.284C742.986 133.307 742.839 133.328 742.706 133.347C742.422 133.388 742.174 133.455 741.962 133.545C741.75 133.636 741.585 133.759 741.467 133.915C741.35 134.066 741.291 134.256 741.291 134.483C741.291 134.812 741.411 135.064 741.649 135.239C741.892 135.409 742.198 135.494 742.57 135.494ZM748.669 137V128.273H751.089V137H748.669ZM749.885 127.148C749.525 127.148 749.216 127.028 748.959 126.79C748.705 126.547 748.578 126.258 748.578 125.92C748.578 125.587 748.705 125.301 748.959 125.062C749.216 124.82 749.525 124.699 749.885 124.699C750.245 124.699 750.552 124.82 750.805 125.062C751.063 125.301 751.192 125.587 751.192 125.92C751.192 126.258 751.063 126.547 750.805 126.79C750.552 127.028 750.245 127.148 749.885 127.148ZM755.449 131.955V137H753.028V128.273H755.335V129.812H755.438C755.631 129.305 755.955 128.903 756.409 128.608C756.864 128.309 757.415 128.159 758.062 128.159C758.669 128.159 759.197 128.292 759.648 128.557C760.098 128.822 760.449 129.201 760.699 129.693C760.949 130.182 761.074 130.765 761.074 131.443V137H758.653V131.875C758.657 131.341 758.521 130.924 758.244 130.625C757.968 130.322 757.587 130.17 757.102 130.17C756.777 130.17 756.489 130.241 756.239 130.381C755.992 130.521 755.799 130.725 755.659 130.994C755.523 131.259 755.453 131.58 755.449 131.955ZM762.982 137V128.273H765.402V137H762.982ZM764.197 127.148C763.838 127.148 763.529 127.028 763.271 126.79C763.018 126.547 762.891 126.258 762.891 125.92C762.891 125.587 763.018 125.301 763.271 125.062C763.529 124.82 763.838 124.699 764.197 124.699C764.557 124.699 764.864 124.82 765.118 125.062C765.375 125.301 765.504 125.587 765.504 125.92C765.504 126.258 765.375 126.547 765.118 126.79C764.864 127.028 764.557 127.148 764.197 127.148ZM769.761 131.955V137H767.341V128.273H769.648V129.812H769.75C769.943 129.305 770.267 128.903 770.722 128.608C771.176 128.309 771.727 128.159 772.375 128.159C772.981 128.159 773.509 128.292 773.96 128.557C774.411 128.822 774.761 129.201 775.011 129.693C775.261 130.182 775.386 130.765 775.386 131.443V137H772.966V131.875C772.97 131.341 772.833 130.924 772.557 130.625C772.28 130.322 771.9 130.17 771.415 130.17C771.089 130.17 770.801 130.241 770.551 130.381C770.305 130.521 770.112 130.725 769.972 130.994C769.835 131.259 769.765 131.58 769.761 131.955ZM781.226 140.455C780.442 140.455 779.769 140.347 779.209 140.131C778.652 139.919 778.209 139.629 777.879 139.261C777.55 138.894 777.336 138.481 777.237 138.023L779.476 137.722C779.544 137.896 779.652 138.059 779.8 138.21C779.947 138.362 780.143 138.483 780.385 138.574C780.631 138.669 780.93 138.716 781.283 138.716C781.809 138.716 782.243 138.587 782.584 138.33C782.929 138.076 783.101 137.65 783.101 137.051V135.455H782.999C782.893 135.697 782.733 135.926 782.521 136.142C782.309 136.358 782.036 136.534 781.703 136.67C781.37 136.807 780.972 136.875 780.51 136.875C779.855 136.875 779.258 136.723 778.72 136.42C778.186 136.114 777.76 135.646 777.442 135.017C777.127 134.384 776.97 133.585 776.97 132.619C776.97 131.631 777.131 130.805 777.453 130.142C777.775 129.479 778.203 128.983 778.737 128.653C779.275 128.324 779.864 128.159 780.504 128.159C780.993 128.159 781.402 128.242 781.732 128.409C782.061 128.572 782.326 128.777 782.527 129.023C782.732 129.265 782.889 129.504 782.999 129.739H783.089V128.273H785.493V137.085C785.493 137.828 785.311 138.449 784.947 138.949C784.584 139.449 784.08 139.824 783.436 140.074C782.796 140.328 782.059 140.455 781.226 140.455ZM781.277 135.057C781.667 135.057 781.997 134.96 782.266 134.767C782.538 134.57 782.747 134.29 782.891 133.926C783.038 133.559 783.112 133.119 783.112 132.608C783.112 132.097 783.04 131.653 782.896 131.278C782.752 130.9 782.544 130.606 782.271 130.398C781.999 130.189 781.667 130.085 781.277 130.085C780.879 130.085 780.544 130.193 780.271 130.409C779.999 130.621 779.792 130.917 779.652 131.295C779.512 131.674 779.442 132.112 779.442 132.608C779.442 133.112 779.512 133.547 779.652 133.915C779.796 134.278 780.002 134.561 780.271 134.761C780.544 134.958 780.879 135.057 781.277 135.057Z" fill="black"/>
<path d="M300.705 131.182C300.705 132.451 300.464 133.53 299.983 134.42C299.506 135.311 298.854 135.991 298.028 136.46C297.206 136.926 296.282 137.159 295.256 137.159C294.222 137.159 293.294 136.924 292.472 136.455C291.65 135.985 291 135.305 290.523 134.415C290.045 133.525 289.807 132.447 289.807 131.182C289.807 129.913 290.045 128.833 290.523 127.943C291 127.053 291.65 126.375 292.472 125.909C293.294 125.439 294.222 125.205 295.256 125.205C296.282 125.205 297.206 125.439 298.028 125.909C298.854 126.375 299.506 127.053 299.983 127.943C300.464 128.833 300.705 129.913 300.705 131.182ZM298.21 131.182C298.21 130.36 298.087 129.667 297.841 129.102C297.598 128.538 297.256 128.11 296.812 127.818C296.369 127.527 295.85 127.381 295.256 127.381C294.661 127.381 294.142 127.527 293.699 127.818C293.256 128.11 292.911 128.538 292.665 129.102C292.422 129.667 292.301 130.36 292.301 131.182C292.301 132.004 292.422 132.697 292.665 133.261C292.911 133.826 293.256 134.254 293.699 134.545C294.142 134.837 294.661 134.983 295.256 134.983C295.85 134.983 296.369 134.837 296.812 134.545C297.256 134.254 297.598 133.826 297.841 133.261C298.087 132.697 298.21 132.004 298.21 131.182ZM310.618 128.273L307.567 137H304.839L301.788 128.273H304.345L306.158 134.517H306.249L308.055 128.273H310.618ZM315.553 137.17C314.655 137.17 313.882 136.989 313.234 136.625C312.59 136.258 312.094 135.739 311.746 135.068C311.397 134.394 311.223 133.597 311.223 132.676C311.223 131.778 311.397 130.991 311.746 130.312C312.094 129.634 312.585 129.106 313.217 128.727C313.854 128.348 314.6 128.159 315.456 128.159C316.032 128.159 316.568 128.252 317.064 128.438C317.564 128.619 318 128.894 318.371 129.261C318.746 129.629 319.037 130.091 319.246 130.648C319.454 131.201 319.558 131.848 319.558 132.591V133.256H312.189V131.756H317.28C317.28 131.407 317.204 131.098 317.053 130.83C316.901 130.561 316.691 130.35 316.422 130.199C316.157 130.044 315.848 129.966 315.496 129.966C315.128 129.966 314.803 130.051 314.518 130.222C314.238 130.388 314.018 130.614 313.859 130.898C313.7 131.178 313.619 131.491 313.615 131.835V133.261C313.615 133.693 313.695 134.066 313.854 134.381C314.017 134.695 314.246 134.938 314.541 135.108C314.837 135.278 315.187 135.364 315.592 135.364C315.861 135.364 316.107 135.326 316.331 135.25C316.554 135.174 316.746 135.061 316.905 134.909C317.064 134.758 317.185 134.572 317.268 134.352L319.507 134.5C319.393 135.038 319.161 135.508 318.808 135.909C318.46 136.307 318.009 136.617 317.456 136.841C316.907 137.061 316.272 137.17 315.553 137.17ZM321.138 137V128.273H323.484V129.795H323.575C323.734 129.254 324.001 128.845 324.376 128.568C324.751 128.288 325.183 128.148 325.672 128.148C325.793 128.148 325.924 128.155 326.064 128.17C326.204 128.186 326.327 128.206 326.433 128.233V130.381C326.32 130.347 326.162 130.316 325.962 130.29C325.761 130.263 325.577 130.25 325.411 130.25C325.054 130.25 324.736 130.328 324.456 130.483C324.179 130.634 323.96 130.847 323.797 131.119C323.638 131.392 323.558 131.706 323.558 132.062V137H321.138ZM329.923 137.165C329.366 137.165 328.87 137.068 328.435 136.875C327.999 136.678 327.654 136.388 327.401 136.006C327.151 135.619 327.026 135.138 327.026 134.562C327.026 134.078 327.115 133.67 327.293 133.341C327.471 133.011 327.713 132.746 328.02 132.545C328.327 132.345 328.675 132.193 329.065 132.091C329.459 131.989 329.872 131.917 330.304 131.875C330.812 131.822 331.221 131.773 331.531 131.727C331.842 131.678 332.067 131.606 332.207 131.511C332.348 131.417 332.418 131.277 332.418 131.091V131.057C332.418 130.697 332.304 130.419 332.077 130.222C331.853 130.025 331.535 129.926 331.122 129.926C330.687 129.926 330.34 130.023 330.082 130.216C329.825 130.405 329.654 130.644 329.571 130.932L327.332 130.75C327.446 130.22 327.67 129.761 328.003 129.375C328.336 128.985 328.766 128.686 329.293 128.477C329.823 128.265 330.437 128.159 331.134 128.159C331.618 128.159 332.082 128.216 332.526 128.33C332.973 128.443 333.368 128.619 333.713 128.858C334.062 129.097 334.336 129.403 334.537 129.778C334.738 130.15 334.838 130.595 334.838 131.114V137H332.543V135.79H332.474C332.334 136.062 332.147 136.303 331.912 136.511C331.677 136.716 331.395 136.877 331.065 136.994C330.736 137.108 330.355 137.165 329.923 137.165ZM330.616 135.494C330.973 135.494 331.287 135.424 331.56 135.284C331.832 135.14 332.046 134.947 332.202 134.705C332.357 134.462 332.435 134.187 332.435 133.881V132.955C332.359 133.004 332.255 133.049 332.122 133.091C331.993 133.129 331.848 133.165 331.685 133.199C331.522 133.229 331.359 133.258 331.196 133.284C331.033 133.307 330.885 133.328 330.753 133.347C330.469 133.388 330.221 133.455 330.009 133.545C329.796 133.636 329.632 133.759 329.514 133.915C329.397 134.066 329.338 134.256 329.338 134.483C329.338 134.812 329.457 135.064 329.696 135.239C329.938 135.409 330.245 135.494 330.616 135.494ZM339.136 125.364V137H336.716V125.364H339.136ZM343.496 125.364V137H341.075V125.364H343.496ZM349.183 137V125.364H353.774C354.657 125.364 355.409 125.532 356.03 125.869C356.651 126.203 357.125 126.667 357.45 127.261C357.78 127.852 357.945 128.534 357.945 129.307C357.945 130.08 357.778 130.761 357.445 131.352C357.111 131.943 356.628 132.403 355.996 132.733C355.367 133.062 354.606 133.227 353.712 133.227H350.786V131.256H353.314C353.787 131.256 354.178 131.174 354.484 131.011C354.795 130.845 355.026 130.616 355.178 130.324C355.333 130.028 355.411 129.689 355.411 129.307C355.411 128.92 355.333 128.583 355.178 128.295C355.026 128.004 354.795 127.778 354.484 127.619C354.174 127.456 353.78 127.375 353.303 127.375H351.643V137H349.183ZM359.497 137V128.273H361.844V129.795H361.935C362.094 129.254 362.361 128.845 362.736 128.568C363.111 128.288 363.543 128.148 364.031 128.148C364.152 128.148 364.283 128.155 364.423 128.17C364.563 128.186 364.687 128.206 364.793 128.233V130.381C364.679 130.347 364.522 130.316 364.321 130.29C364.12 130.263 363.937 130.25 363.77 130.25C363.414 130.25 363.096 130.328 362.815 130.483C362.539 130.634 362.319 130.847 362.156 131.119C361.997 131.392 361.918 131.706 361.918 132.062V137H359.497ZM369.581 137.17C368.698 137.17 367.935 136.983 367.291 136.608C366.651 136.229 366.157 135.703 365.808 135.028C365.46 134.35 365.286 133.564 365.286 132.67C365.286 131.769 365.46 130.981 365.808 130.307C366.157 129.629 366.651 129.102 367.291 128.727C367.935 128.348 368.698 128.159 369.581 128.159C370.464 128.159 371.225 128.348 371.865 128.727C372.509 129.102 373.005 129.629 373.354 130.307C373.702 130.981 373.876 131.769 373.876 132.67C373.876 133.564 373.702 134.35 373.354 135.028C373.005 135.703 372.509 136.229 371.865 136.608C371.225 136.983 370.464 137.17 369.581 137.17ZM369.592 135.295C369.994 135.295 370.329 135.182 370.598 134.955C370.867 134.723 371.07 134.409 371.206 134.011C371.346 133.614 371.416 133.161 371.416 132.653C371.416 132.146 371.346 131.693 371.206 131.295C371.07 130.898 370.867 130.583 370.598 130.352C370.329 130.121 369.994 130.006 369.592 130.006C369.187 130.006 368.846 130.121 368.57 130.352C368.297 130.583 368.09 130.898 367.95 131.295C367.814 131.693 367.746 132.146 367.746 132.653C367.746 133.161 367.814 133.614 367.95 134.011C368.09 134.409 368.297 134.723 368.57 134.955C368.846 135.182 369.187 135.295 369.592 135.295ZM379.382 140.455C378.598 140.455 377.926 140.347 377.365 140.131C376.808 139.919 376.365 139.629 376.036 139.261C375.706 138.894 375.492 138.481 375.393 138.023L377.632 137.722C377.7 137.896 377.808 138.059 377.956 138.21C378.104 138.362 378.299 138.483 378.541 138.574C378.787 138.669 379.087 138.716 379.439 138.716C379.965 138.716 380.399 138.587 380.74 138.33C381.085 138.076 381.257 137.65 381.257 137.051V135.455H381.155C381.049 135.697 380.89 135.926 380.678 136.142C380.465 136.358 380.193 136.534 379.859 136.67C379.526 136.807 379.128 136.875 378.666 136.875C378.011 136.875 377.414 136.723 376.876 136.42C376.342 136.114 375.916 135.646 375.598 135.017C375.284 134.384 375.126 133.585 375.126 132.619C375.126 131.631 375.287 130.805 375.609 130.142C375.931 129.479 376.359 128.983 376.893 128.653C377.431 128.324 378.02 128.159 378.661 128.159C379.149 128.159 379.558 128.242 379.888 128.409C380.217 128.572 380.482 128.777 380.683 129.023C380.888 129.265 381.045 129.504 381.155 129.739H381.246V128.273H383.649V137.085C383.649 137.828 383.467 138.449 383.104 138.949C382.74 139.449 382.236 139.824 381.592 140.074C380.952 140.328 380.215 140.455 379.382 140.455ZM379.433 135.057C379.823 135.057 380.153 134.96 380.422 134.767C380.695 134.57 380.903 134.29 381.047 133.926C381.195 133.559 381.268 133.119 381.268 132.608C381.268 132.097 381.196 131.653 381.053 131.278C380.909 130.9 380.7 130.606 380.428 130.398C380.155 130.189 379.823 130.085 379.433 130.085C379.036 130.085 378.7 130.193 378.428 130.409C378.155 130.621 377.948 130.917 377.808 131.295C377.668 131.674 377.598 132.112 377.598 132.608C377.598 133.112 377.668 133.547 377.808 133.915C377.952 134.278 378.159 134.561 378.428 134.761C378.7 134.958 379.036 135.057 379.433 135.057ZM385.575 137V128.273H387.922V129.795H388.013C388.172 129.254 388.439 128.845 388.814 128.568C389.189 128.288 389.621 128.148 390.109 128.148C390.231 128.148 390.361 128.155 390.501 128.17C390.642 128.186 390.765 128.206 390.871 128.233V130.381C390.757 130.347 390.6 130.316 390.399 130.29C390.198 130.263 390.015 130.25 389.848 130.25C389.492 130.25 389.174 130.328 388.893 130.483C388.617 130.634 388.397 130.847 388.234 131.119C388.075 131.392 387.996 131.706 387.996 132.062V137H385.575ZM395.693 137.17C394.795 137.17 394.023 136.989 393.375 136.625C392.731 136.258 392.235 135.739 391.886 135.068C391.538 134.394 391.364 133.597 391.364 132.676C391.364 131.778 391.538 130.991 391.886 130.312C392.235 129.634 392.725 129.106 393.358 128.727C393.994 128.348 394.741 128.159 395.597 128.159C396.172 128.159 396.708 128.252 397.205 128.438C397.705 128.619 398.14 128.894 398.511 129.261C398.886 129.629 399.178 130.091 399.386 130.648C399.595 131.201 399.699 131.848 399.699 132.591V133.256H392.33V131.756H397.42C397.42 131.407 397.345 131.098 397.193 130.83C397.042 130.561 396.831 130.35 396.562 130.199C396.297 130.044 395.989 129.966 395.636 129.966C395.269 129.966 394.943 130.051 394.659 130.222C394.379 130.388 394.159 130.614 394 130.898C393.841 131.178 393.759 131.491 393.756 131.835V133.261C393.756 133.693 393.835 134.066 393.994 134.381C394.157 134.695 394.386 134.938 394.682 135.108C394.977 135.278 395.328 135.364 395.733 135.364C396.002 135.364 396.248 135.326 396.472 135.25C396.695 135.174 396.886 135.061 397.045 134.909C397.205 134.758 397.326 134.572 397.409 134.352L399.648 134.5C399.534 135.038 399.301 135.508 398.949 135.909C398.6 136.307 398.15 136.617 397.597 136.841C397.047 137.061 396.413 137.17 395.693 137.17ZM408.54 130.761L406.324 130.898C406.286 130.708 406.205 130.538 406.08 130.386C405.955 130.231 405.79 130.108 405.585 130.017C405.384 129.922 405.144 129.875 404.864 129.875C404.489 129.875 404.172 129.955 403.915 130.114C403.657 130.269 403.528 130.477 403.528 130.739C403.528 130.947 403.612 131.123 403.778 131.267C403.945 131.411 404.231 131.527 404.636 131.614L406.216 131.932C407.064 132.106 407.697 132.386 408.114 132.773C408.53 133.159 408.739 133.667 408.739 134.295C408.739 134.867 408.57 135.369 408.233 135.801C407.9 136.233 407.441 136.57 406.858 136.812C406.278 137.051 405.61 137.17 404.852 137.17C403.697 137.17 402.777 136.93 402.091 136.449C401.409 135.964 401.009 135.305 400.892 134.472L403.273 134.347C403.345 134.699 403.519 134.968 403.795 135.153C404.072 135.335 404.426 135.426 404.858 135.426C405.282 135.426 405.623 135.345 405.881 135.182C406.142 135.015 406.275 134.801 406.278 134.54C406.275 134.32 406.182 134.14 406 134C405.818 133.856 405.538 133.746 405.159 133.67L403.648 133.369C402.795 133.199 402.161 132.903 401.744 132.483C401.331 132.062 401.125 131.527 401.125 130.875C401.125 130.314 401.277 129.831 401.58 129.426C401.886 129.021 402.316 128.708 402.869 128.489C403.426 128.269 404.078 128.159 404.824 128.159C405.926 128.159 406.794 128.392 407.426 128.858C408.063 129.324 408.434 129.958 408.54 130.761ZM417.524 130.761L415.308 130.898C415.27 130.708 415.189 130.538 415.064 130.386C414.939 130.231 414.774 130.108 414.57 130.017C414.369 129.922 414.128 129.875 413.848 129.875C413.473 129.875 413.157 129.955 412.899 130.114C412.642 130.269 412.513 130.477 412.513 130.739C412.513 130.947 412.596 131.123 412.763 131.267C412.929 131.411 413.215 131.527 413.621 131.614L415.2 131.932C416.049 132.106 416.681 132.386 417.098 132.773C417.515 133.159 417.723 133.667 417.723 134.295C417.723 134.867 417.554 135.369 417.217 135.801C416.884 136.233 416.426 136.57 415.842 136.812C415.263 137.051 414.594 137.17 413.837 137.17C412.681 137.17 411.761 136.93 411.075 136.449C410.393 135.964 409.994 135.305 409.876 134.472L412.257 134.347C412.329 134.699 412.503 134.968 412.78 135.153C413.056 135.335 413.411 135.426 413.842 135.426C414.267 135.426 414.607 135.345 414.865 135.182C415.126 135.015 415.259 134.801 415.263 134.54C415.259 134.32 415.166 134.14 414.984 134C414.803 133.856 414.522 133.746 414.143 133.67L412.632 133.369C411.78 133.199 411.145 132.903 410.729 132.483C410.316 132.062 410.109 131.527 410.109 130.875C410.109 130.314 410.261 129.831 410.564 129.426C410.871 129.021 411.301 128.708 411.854 128.489C412.411 128.269 413.062 128.159 413.808 128.159C414.911 128.159 415.778 128.392 416.411 128.858C417.047 129.324 417.418 129.958 417.524 130.761Z" fill="black"/>
<path d="M293.386 202L308.46 172.17V171.922H290.9V165.636H316.415V172.011L301.322 202H293.386ZM334.295 202.497C331.643 202.497 329.282 202.041 327.21 201.13C325.151 200.207 323.523 198.94 322.327 197.33C321.144 195.709 320.534 193.838 320.499 191.719H328.24C328.287 192.607 328.577 193.388 329.11 194.063C329.655 194.726 330.377 195.241 331.276 195.608C332.176 195.975 333.188 196.158 334.312 196.158C335.484 196.158 336.52 195.951 337.42 195.537C338.319 195.123 339.024 194.549 339.533 193.815C340.042 193.081 340.296 192.234 340.296 191.276C340.296 190.305 340.024 189.447 339.479 188.701C338.947 187.943 338.177 187.352 337.171 186.925C336.177 186.499 334.993 186.286 333.62 186.286H330.229V180.64H333.62C334.78 180.64 335.804 180.439 336.692 180.036C337.591 179.634 338.29 179.077 338.787 178.367C339.284 177.645 339.533 176.805 339.533 175.846C339.533 174.934 339.314 174.135 338.876 173.449C338.45 172.75 337.846 172.206 337.065 171.815C336.295 171.425 335.396 171.229 334.366 171.229C333.324 171.229 332.371 171.419 331.507 171.798C330.643 172.165 329.951 172.691 329.43 173.378C328.909 174.064 328.631 174.869 328.595 175.793H321.227C321.262 173.697 321.86 171.851 323.02 170.253C324.18 168.655 325.742 167.406 327.707 166.506C329.684 165.595 331.915 165.139 334.401 165.139C336.911 165.139 339.107 165.595 340.989 166.506C342.871 167.418 344.333 168.649 345.374 170.2C346.428 171.738 346.949 173.467 346.937 175.384C346.949 177.42 346.315 179.119 345.037 180.48C343.77 181.841 342.119 182.705 340.083 183.072V183.357C342.758 183.7 344.794 184.629 346.191 186.144C347.6 187.647 348.298 189.53 348.286 191.79C348.298 193.862 347.7 195.703 346.493 197.312C345.297 198.922 343.646 200.189 341.539 201.112C339.432 202.036 337.017 202.497 334.295 202.497ZM373.717 195.182V193.264C373.717 191.808 374.025 190.471 374.64 189.251C375.267 188.02 376.173 187.038 377.357 186.304C378.552 185.558 380.008 185.185 381.725 185.185C383.465 185.185 384.927 185.552 386.11 186.286C387.306 187.02 388.205 188.003 388.809 189.234C389.425 190.453 389.732 191.796 389.732 193.264V195.182C389.732 196.638 389.425 197.981 388.809 199.212C388.194 200.432 387.288 201.408 386.093 202.142C384.897 202.888 383.441 203.261 381.725 203.261C379.985 203.261 378.523 202.888 377.339 202.142C376.155 201.408 375.256 200.432 374.64 199.212C374.025 197.981 373.717 196.638 373.717 195.182ZM378.884 193.264V195.182C378.884 196.022 379.085 196.815 379.487 197.561C379.902 198.307 380.647 198.68 381.725 198.68C382.802 198.68 383.536 198.313 383.926 197.579C384.329 196.845 384.53 196.046 384.53 195.182V193.264C384.53 192.4 384.341 191.595 383.962 190.849C383.583 190.104 382.837 189.731 381.725 189.731C380.659 189.731 379.919 190.104 379.505 190.849C379.091 191.595 378.884 192.4 378.884 193.264ZM355.056 174.372V172.455C355.056 170.987 355.369 169.643 355.997 168.424C356.624 167.193 357.53 166.21 358.713 165.477C359.909 164.743 361.353 164.376 363.046 164.376C364.798 164.376 366.265 164.743 367.449 165.477C368.633 166.21 369.532 167.193 370.148 168.424C370.763 169.643 371.071 170.987 371.071 172.455V174.372C371.071 175.84 370.758 177.183 370.13 178.403C369.515 179.622 368.609 180.598 367.414 181.332C366.23 182.054 364.774 182.415 363.046 182.415C361.317 182.415 359.856 182.049 358.66 181.315C357.476 180.569 356.577 179.592 355.961 178.385C355.357 177.166 355.056 175.828 355.056 174.372ZM360.258 172.455V174.372C360.258 175.236 360.459 176.035 360.862 176.769C361.276 177.503 362.004 177.87 363.046 177.87C364.135 177.87 364.874 177.503 365.265 176.769C365.668 176.035 365.869 175.236 365.869 174.372V172.455C365.869 171.59 365.679 170.786 365.301 170.04C364.922 169.294 364.17 168.921 363.046 168.921C361.992 168.921 361.264 169.3 360.862 170.058C360.459 170.815 360.258 171.614 360.258 172.455ZM357.399 202L382.399 165.636H387.051L362.051 202H357.399Z" fill="black"/>
<path d="M667.947 202V196.46L680.891 184.475C681.992 183.41 682.915 182.451 683.661 181.599C684.419 180.746 684.993 179.912 685.384 179.095C685.774 178.267 685.969 177.373 685.969 176.414C685.969 175.349 685.727 174.431 685.241 173.662C684.756 172.881 684.093 172.283 683.253 171.869C682.412 171.442 681.46 171.229 680.394 171.229C679.281 171.229 678.311 171.454 677.482 171.904C676.654 172.354 676.014 172.999 675.565 173.839C675.115 174.68 674.89 175.68 674.89 176.84H667.592C667.592 174.461 668.131 172.395 669.208 170.643C670.285 168.892 671.795 167.536 673.736 166.577C675.677 165.619 677.914 165.139 680.447 165.139C683.052 165.139 685.318 165.601 687.248 166.524C689.189 167.436 690.698 168.702 691.776 170.324C692.853 171.946 693.391 173.804 693.391 175.899C693.391 177.272 693.119 178.628 692.575 179.965C692.042 181.303 691.089 182.788 689.716 184.422C688.343 186.044 686.407 187.991 683.91 190.263L678.601 195.466V195.714H693.871V202H667.947ZM699.182 202L696.807 193.273H699.256L700.608 199.136H700.687L702.096 193.273H704.5L705.932 199.102H706.006L707.335 193.273H709.778L707.409 202H704.846L703.346 196.511H703.238L701.738 202H699.182ZM730.195 202.497C727.544 202.497 725.182 202.041 723.111 201.13C721.051 200.207 719.423 198.94 718.228 197.33C717.044 195.709 716.434 193.838 716.399 191.719H724.14C724.188 192.607 724.478 193.388 725.01 194.063C725.555 194.726 726.277 195.241 727.177 195.608C728.076 195.975 729.088 196.158 730.213 196.158C731.385 196.158 732.421 195.951 733.32 195.537C734.22 195.123 734.924 194.549 735.433 193.815C735.942 193.081 736.197 192.234 736.197 191.276C736.197 190.305 735.924 189.447 735.38 188.701C734.847 187.943 734.078 187.352 733.072 186.925C732.077 186.499 730.894 186.286 729.52 186.286H726.129V180.64H729.52C730.68 180.64 731.704 180.439 732.592 180.036C733.492 179.634 734.19 179.077 734.687 178.367C735.184 177.645 735.433 176.805 735.433 175.846C735.433 174.934 735.214 174.135 734.776 173.449C734.35 172.75 733.746 172.206 732.965 171.815C732.196 171.425 731.296 171.229 730.266 171.229C729.224 171.229 728.272 171.419 727.407 171.798C726.543 172.165 725.851 172.691 725.33 173.378C724.809 174.064 724.531 174.869 724.496 175.793H717.127C717.162 173.697 717.76 171.851 718.92 170.253C720.08 168.655 721.643 167.406 723.608 166.506C725.585 165.595 727.816 165.139 730.302 165.139C732.811 165.139 735.007 165.595 736.889 166.506C738.771 167.418 740.233 168.649 741.275 170.2C742.328 171.738 742.849 173.467 742.837 175.384C742.849 177.42 742.216 179.119 740.937 180.48C739.671 181.841 738.019 182.705 735.983 183.072V183.357C738.659 183.7 740.695 184.629 742.091 186.144C743.5 187.647 744.198 189.53 744.187 191.79C744.198 193.862 743.601 195.703 742.393 197.312C741.198 198.922 739.546 200.189 737.439 201.112C735.332 202.036 732.918 202.497 730.195 202.497ZM750.947 202.142C750.285 202.142 749.684 201.972 749.146 201.631C748.612 201.286 748.188 200.78 747.874 200.114C747.563 199.443 747.408 198.621 747.408 197.648C747.408 196.648 747.569 195.816 747.891 195.153C748.213 194.487 748.641 193.989 749.175 193.659C749.713 193.326 750.302 193.159 750.942 193.159C751.43 193.159 751.838 193.242 752.163 193.409C752.493 193.572 752.758 193.777 752.959 194.023C753.163 194.265 753.319 194.504 753.425 194.739H753.499V190.364H755.913V202H753.527V200.602H753.425C753.311 200.845 753.15 201.085 752.942 201.324C752.737 201.559 752.47 201.754 752.141 201.909C751.815 202.064 751.417 202.142 750.947 202.142ZM751.714 200.216C752.105 200.216 752.434 200.11 752.703 199.898C752.976 199.682 753.184 199.381 753.328 198.994C753.476 198.608 753.55 198.155 753.55 197.636C753.55 197.117 753.478 196.667 753.334 196.284C753.19 195.902 752.982 195.606 752.709 195.398C752.436 195.189 752.105 195.085 751.714 195.085C751.317 195.085 750.982 195.193 750.709 195.409C750.436 195.625 750.23 195.924 750.089 196.307C749.949 196.689 749.879 197.133 749.879 197.636C749.879 198.144 749.949 198.593 750.089 198.983C750.233 199.369 750.44 199.672 750.709 199.892C750.982 200.108 751.317 200.216 751.714 200.216Z" fill="black"/>
<path d="M413.992 179.29V172.568H415.33V179.29H413.992ZM411.303 176.595V175.263H418.024V176.595H411.303ZM424.167 170.818V181H422.625V172.359H422.566L420.13 173.95V172.479L422.67 170.818H424.167ZM430.282 181.139C429.658 181.139 429.098 181.02 428.601 180.781C428.107 180.539 427.713 180.208 427.418 179.787C427.123 179.366 426.966 178.885 426.946 178.345H428.437C428.474 178.783 428.667 179.142 429.019 179.424C429.37 179.706 429.791 179.847 430.282 179.847C430.673 179.847 431.019 179.757 431.321 179.578C431.626 179.396 431.864 179.146 432.037 178.827C432.212 178.509 432.3 178.146 432.3 177.739C432.3 177.324 432.211 176.955 432.032 176.63C431.853 176.305 431.606 176.05 431.291 175.864C430.979 175.679 430.621 175.584 430.217 175.581C429.909 175.581 429.599 175.634 429.287 175.74C428.976 175.846 428.724 175.985 428.532 176.158L427.125 175.949L427.696 170.818H433.294V172.136H428.974L428.651 174.984H428.711C428.909 174.792 429.173 174.631 429.501 174.502C429.833 174.373 430.187 174.308 430.565 174.308C431.185 174.308 431.737 174.456 432.221 174.751C432.708 175.046 433.091 175.448 433.369 175.959C433.651 176.466 433.79 177.049 433.787 177.709C433.79 178.368 433.641 178.957 433.339 179.474C433.041 179.991 432.627 180.398 432.096 180.697C431.569 180.992 430.964 181.139 430.282 181.139ZM440.917 179.091V178.554C440.917 178.17 440.997 177.818 441.156 177.5C441.318 177.179 441.553 176.922 441.862 176.729C442.173 176.534 442.549 176.436 442.99 176.436C443.441 176.436 443.819 176.532 444.124 176.724C444.429 176.917 444.659 177.174 444.815 177.495C444.974 177.817 445.053 178.17 445.053 178.554V179.091C445.053 179.475 444.974 179.828 444.815 180.15C444.656 180.468 444.422 180.725 444.114 180.92C443.809 181.113 443.434 181.209 442.99 181.209C442.543 181.209 442.165 181.113 441.857 180.92C441.548 180.725 441.315 180.468 441.156 180.15C440.997 179.828 440.917 179.475 440.917 179.091ZM442.075 178.554V179.091C442.075 179.376 442.143 179.634 442.279 179.866C442.415 180.098 442.652 180.214 442.99 180.214C443.325 180.214 443.559 180.098 443.691 179.866C443.824 179.634 443.89 179.376 443.89 179.091V178.554C443.89 178.269 443.825 178.01 443.696 177.778C443.57 177.546 443.335 177.43 442.99 177.43C442.659 177.43 442.423 177.546 442.284 177.778C442.145 178.01 442.075 178.269 442.075 178.554ZM435.796 173.264V172.727C435.796 172.343 435.876 171.99 436.035 171.668C436.197 171.347 436.433 171.09 436.741 170.898C437.052 170.705 437.429 170.609 437.869 170.609C438.32 170.609 438.698 170.705 439.003 170.898C439.308 171.09 439.538 171.347 439.694 171.668C439.85 171.99 439.928 172.343 439.928 172.727V173.264C439.928 173.649 439.848 174.002 439.689 174.323C439.533 174.641 439.301 174.898 438.993 175.094C438.688 175.286 438.314 175.382 437.869 175.382C437.419 175.382 437.039 175.286 436.731 175.094C436.426 174.898 436.194 174.641 436.035 174.323C435.876 174.002 435.796 173.649 435.796 173.264ZM436.96 172.727V173.264C436.96 173.549 437.026 173.808 437.159 174.04C437.294 174.272 437.531 174.388 437.869 174.388C438.201 174.388 438.433 174.272 438.566 174.04C438.701 173.808 438.769 173.549 438.769 173.264V172.727C438.769 172.442 438.705 172.184 438.575 171.952C438.446 171.72 438.211 171.604 437.869 171.604C437.538 171.604 437.303 171.72 437.164 171.952C437.028 172.184 436.96 172.442 436.96 172.727ZM436.269 181L443.269 170.818H444.457L437.457 181H436.269Z" fill="black"/>
<rect x="410" y="192" width="184" height="10" rx="5" fill="#EAEAEA"/>
<rect x="410" y="192" width="126" height="10" rx="5" fill="#2BCA41"/>
<rect x="782" y="192" width="184" height="10" rx="5" fill="#EAEAEA"/>
<rect x="782" y="192" width="89" height="10" rx="5" fill="#2BCA41"/>
<rect x="523.5" y="257.5" width="465" height="243" rx="7.5" fill="#FEFEFE" stroke="black"/>
<path d="M713 397C713 438.421 679.421 472 638 472C596.579 472 563 438.421 563 397C563 355.579 596.579 322 638 322C679.421 322 713 355.579 713 397ZM581.75 397C581.75 428.066 606.934 453.25 638 453.25C669.066 453.25 694.25 428.066 694.25 397C694.25 365.934 669.066 340.75 638 340.75C606.934 340.75 581.75 365.934 581.75 397Z" fill="#EAEAEA"/>
<path d="M703.625 397C708.803 397 713.06 401.214 712.415 406.351C710.967 417.871 706.858 428.943 700.36 438.668C692.119 451.001 680.406 460.614 666.701 466.291C652.997 471.968 637.917 473.453 623.368 470.559C608.82 467.665 595.456 460.522 584.967 450.033C574.478 439.544 567.335 426.18 564.441 411.632C561.547 397.083 563.032 382.003 568.709 368.299C574.386 354.594 583.999 342.881 596.332 334.64C606.057 328.142 617.129 324.033 628.649 322.585C633.786 321.94 638 326.197 638 331.375V331.375C638 336.553 633.774 340.67 628.668 341.529C620.864 342.842 613.388 345.794 606.749 350.23C597.499 356.411 590.289 365.196 586.032 375.474C581.774 385.752 580.66 397.062 582.831 407.974C585.001 418.885 590.359 428.908 598.225 436.775C606.092 444.641 616.115 449.999 627.026 452.169C637.938 454.34 649.248 453.226 659.526 448.968C669.804 444.711 678.589 437.501 684.77 428.251C689.206 421.612 692.158 414.136 693.471 406.332C694.33 401.226 698.447 397 703.625 397V397Z" fill="#2BCA41"/>
<path d="M703.625 397C708.803 397 713.06 401.213 712.415 406.351C711.386 414.538 709.01 422.521 705.364 429.971C700.34 440.237 693.036 449.218 684.01 456.229C674.985 463.24 664.476 468.096 653.288 470.425C642.099 472.755 630.526 472.497 619.452 469.67C608.378 466.844 598.097 461.524 589.393 454.117C580.689 446.71 573.794 437.412 569.232 426.933C564.671 416.454 562.565 405.071 563.075 393.654C563.445 385.368 565.186 377.222 568.206 369.543C570.102 364.725 575.858 363.068 580.402 365.549V365.549C584.947 368.03 586.536 373.713 584.843 378.606C583.076 383.711 582.048 389.061 581.806 394.49C581.424 403.053 583.003 411.591 586.424 419.45C589.845 427.309 595.017 434.283 601.545 439.838C608.073 445.393 615.784 449.383 624.089 451.503C632.394 453.623 641.074 453.816 649.466 452.069C657.857 450.322 665.739 446.68 672.508 441.422C679.277 436.163 684.755 429.427 688.523 421.729C690.912 416.847 692.574 411.66 693.471 406.332C694.33 401.226 698.447 397 703.625 397V397Z" fill="#315AFF"/>
<path d="M703.625 397C708.803 397 713.06 401.214 712.415 406.351C710.822 419.03 706.006 431.148 698.36 441.516C688.851 454.41 675.462 463.92 660.156 468.653C644.849 473.386 628.43 473.093 613.302 467.817C601.138 463.574 590.323 456.29 581.851 446.722C578.419 442.846 579.555 436.965 583.829 434.042V434.042C588.103 431.12 593.887 432.284 597.478 436.014C603.573 442.344 611.098 447.19 619.476 450.113C630.822 454.069 643.137 454.289 654.617 450.74C666.097 447.19 676.138 440.057 683.27 430.387C688.537 423.245 692.013 414.997 693.471 406.332C694.33 401.226 698.447 397 703.625 397V397Z" fill="#FFBE2F"/>
<path d="M703.625 397C708.803 397 713.06 401.213 712.415 406.351C711.321 415.056 708.705 423.526 704.662 431.367C699.184 441.995 691.243 451.158 681.503 458.094C671.764 465.029 660.507 469.535 648.672 471.237C639.94 472.492 631.08 472.194 622.496 470.38C617.43 469.31 614.841 463.908 616.535 459.015V459.015C618.228 454.122 623.568 451.613 628.674 452.472C634.387 453.432 640.233 453.507 646.004 452.678C654.88 451.402 663.323 448.022 670.628 442.82C677.932 437.619 683.888 430.746 687.997 422.776C690.669 417.593 692.509 412.044 693.471 406.332C694.33 401.226 698.447 397 703.625 397V397Z" fill="#FF605A"/>
<rect x="782.5" y="319.5" width="184" height="35" rx="6.5" stroke="black" stroke-opacity="0.1"/>
<rect x="822" y="329" width="57" height="5" rx="2.5" fill="#1E1E1E"/>
<rect x="822" y="339" width="69" height="5" rx="2.5" fill="#CCCCCC"/>
<circle cx="802" cy="337" r="12" fill="#FF605A"/>
<path d="M950.25 336.5C950.25 336.832 950.382 337.149 950.616 337.384C950.851 337.618 951.168 337.75 951.5 337.75C951.832 337.75 952.149 337.618 952.384 337.384C952.618 337.149 952.75 336.832 952.75 336.5C952.75 336.168 952.618 335.851 952.384 335.616C952.149 335.382 951.832 335.25 951.5 335.25C951.168 335.25 950.851 335.382 950.616 335.616C950.382 335.851 950.25 336.168 950.25 336.5ZM950.25 332.75C950.25 333.082 950.382 333.399 950.616 333.634C950.851 333.868 951.168 334 951.5 334C951.832 334 952.149 333.868 952.384 333.634C952.618 333.399 952.75 333.082 952.75 332.75C952.75 332.418 952.618 332.101 952.384 331.866C952.149 331.632 951.832 331.5 951.5 331.5C951.168 331.5 950.851 331.632 950.616 331.866C950.382 332.101 950.25 332.418 950.25 332.75V332.75ZM950.25 340.25C950.25 340.582 950.382 340.899 950.616 341.134C950.851 341.368 951.168 341.5 951.5 341.5C951.832 341.5 952.149 341.368 952.384 341.134C952.618 340.899 952.75 340.582 952.75 340.25C952.75 339.918 952.618 339.601 952.384 339.366C952.149 339.132 951.832 339 951.5 339C951.168 339 950.851 339.132 950.616 339.366C950.382 339.601 950.25 339.918 950.25 340.25Z" fill="#CCCCCC"/>
<rect x="782.5" y="361.5" width="184" height="35" rx="6.5" stroke="black" stroke-opacity="0.1"/>
<rect x="822" y="371" width="57" height="5" rx="2.5" fill="#1E1E1E"/>
<rect x="822" y="381" width="69" height="5" rx="2.5" fill="#CCCCCC"/>
<circle cx="802" cy="379" r="12" fill="#FFBE2F"/>
<path d="M950.25 378.5C950.25 378.832 950.382 379.149 950.616 379.384C950.851 379.618 951.168 379.75 951.5 379.75C951.832 379.75 952.149 379.618 952.384 379.384C952.618 379.149 952.75 378.832 952.75 378.5C952.75 378.168 952.618 377.851 952.384 377.616C952.149 377.382 951.832 377.25 951.5 377.25C951.168 377.25 950.851 377.382 950.616 377.616C950.382 377.851 950.25 378.168 950.25 378.5ZM950.25 374.75C950.25 375.082 950.382 375.399 950.616 375.634C950.851 375.868 951.168 376 951.5 376C951.832 376 952.149 375.868 952.384 375.634C952.618 375.399 952.75 375.082 952.75 374.75C952.75 374.418 952.618 374.101 952.384 373.866C952.149 373.632 951.832 373.5 951.5 373.5C951.168 373.5 950.851 373.632 950.616 373.866C950.382 374.101 950.25 374.418 950.25 374.75V374.75ZM950.25 382.25C950.25 382.582 950.382 382.899 950.616 383.134C950.851 383.368 951.168 383.5 951.5 383.5C951.832 383.5 952.149 383.368 952.384 383.134C952.618 382.899 952.75 382.582 952.75 382.25C952.75 381.918 952.618 381.601 952.384 381.366C952.149 381.132 951.832 381 951.5 381C951.168 381 950.851 381.132 950.616 381.366C950.382 381.601 950.25 381.918 950.25 382.25Z" fill="#CCCCCC"/>
<rect x="782.5" y="403.5" width="184" height="35" rx="6.5" stroke="black" stroke-opacity="0.1"/>
<rect x="822" y="413" width="57" height="5" rx="2.5" fill="#1E1E1E"/>
<rect x="822" y="423" width="69" height="5" rx="2.5" fill="#CCCCCC"/>
<circle cx="802" cy="421" r="12" fill="#315AFF"/>
<path d="M950.25 420.5C950.25 420.832 950.382 421.149 950.616 421.384C950.851 421.618 951.168 421.75 951.5 421.75C951.832 421.75 952.149 421.618 952.384 421.384C952.618 421.149 952.75 420.832 952.75 420.5C952.75 420.168 952.618 419.851 952.384 419.616C952.149 419.382 951.832 419.25 951.5 419.25C951.168 419.25 950.851 419.382 950.616 419.616C950.382 419.851 950.25 420.168 950.25 420.5ZM950.25 416.75C950.25 417.082 950.382 417.399 950.616 417.634C950.851 417.868 951.168 418 951.5 418C951.832 418 952.149 417.868 952.384 417.634C952.618 417.399 952.75 417.082 952.75 416.75C952.75 416.418 952.618 416.101 952.384 415.866C952.149 415.632 951.832 415.5 951.5 415.5C951.168 415.5 950.851 415.632 950.616 415.866C950.382 416.101 950.25 416.418 950.25 416.75V416.75ZM950.25 424.25C950.25 424.582 950.382 424.899 950.616 425.134C950.851 425.368 951.168 425.5 951.5 425.5C951.832 425.5 952.149 425.368 952.384 425.134C952.618 424.899 952.75 424.582 952.75 424.25C952.75 423.918 952.618 423.601 952.384 423.366C952.149 423.132 951.832 423 951.5 423C951.168 423 950.851 423.132 950.616 423.366C950.382 423.601 950.25 423.918 950.25 424.25Z" fill="#CCCCCC"/>
<rect x="782.5" y="445.5" width="184" height="35" rx="6.5" stroke="black" stroke-opacity="0.1"/>
<rect x="822" y="455" width="57" height="5" rx="2.5" fill="#1E1E1E"/>
<rect x="822" y="465" width="69" height="5" rx="2.5" fill="#CCCCCC"/>
<circle cx="802" cy="463" r="12" fill="#2BCA41"/>
<path d="M950.25 462.5C950.25 462.832 950.382 463.149 950.616 463.384C950.851 463.618 951.168 463.75 951.5 463.75C951.832 463.75 952.149 463.618 952.384 463.384C952.618 463.149 952.75 462.832 952.75 462.5C952.75 462.168 952.618 461.851 952.384 461.616C952.149 461.382 951.832 461.25 951.5 461.25C951.168 461.25 950.851 461.382 950.616 461.616C950.382 461.851 950.25 462.168 950.25 462.5ZM950.25 458.75C950.25 459.082 950.382 459.399 950.616 459.634C950.851 459.868 951.168 460 951.5 460C951.832 460 952.149 459.868 952.384 459.634C952.618 459.399 952.75 459.082 952.75 458.75C952.75 458.418 952.618 458.101 952.384 457.866C952.149 457.632 951.832 457.5 951.5 457.5C951.168 457.5 950.851 457.632 950.616 457.866C950.382 458.101 950.25 458.418 950.25 458.75V458.75ZM950.25 466.25C950.25 466.582 950.382 466.899 950.616 467.134C950.851 467.368 951.168 467.5 951.5 467.5C951.832 467.5 952.149 467.368 952.384 467.134C952.618 466.899 952.75 466.582 952.75 466.25C952.75 465.918 952.618 465.601 952.384 465.366C952.149 465.132 951.832 465 951.5 465C951.168 465 950.851 465.132 950.616 465.366C950.382 465.601 950.25 465.918 950.25 466.25Z" fill="#CCCCCC"/>
<path d="M551.472 277.364V289H549.011V277.364H551.472ZM555.871 283.955V289H553.45V280.273H555.757V281.812H555.859C556.053 281.305 556.376 280.903 556.831 280.608C557.286 280.309 557.837 280.159 558.484 280.159C559.09 280.159 559.619 280.292 560.07 280.557C560.52 280.822 560.871 281.201 561.121 281.693C561.371 282.182 561.496 282.765 561.496 283.443V289H559.075V283.875C559.079 283.341 558.943 282.924 558.666 282.625C558.39 282.322 558.009 282.17 557.524 282.17C557.198 282.17 556.911 282.241 556.661 282.381C556.414 282.521 556.221 282.725 556.081 282.994C555.945 283.259 555.875 283.58 555.871 283.955ZM566.619 289.142C565.956 289.142 565.356 288.972 564.818 288.631C564.284 288.286 563.86 287.78 563.545 287.114C563.235 286.443 563.08 285.621 563.08 284.648C563.08 283.648 563.241 282.816 563.562 282.153C563.884 281.487 564.313 280.989 564.847 280.659C565.384 280.326 565.973 280.159 566.614 280.159C567.102 280.159 567.509 280.242 567.835 280.409C568.165 280.572 568.43 280.777 568.631 281.023C568.835 281.265 568.991 281.504 569.097 281.739H569.17V277.364H571.585V289H569.199V287.602H569.097C568.983 287.845 568.822 288.085 568.614 288.324C568.409 288.559 568.142 288.754 567.812 288.909C567.487 289.064 567.089 289.142 566.619 289.142ZM567.386 287.216C567.777 287.216 568.106 287.11 568.375 286.898C568.648 286.682 568.856 286.381 569 285.994C569.148 285.608 569.222 285.155 569.222 284.636C569.222 284.117 569.15 283.667 569.006 283.284C568.862 282.902 568.653 282.606 568.381 282.398C568.108 282.189 567.777 282.085 567.386 282.085C566.989 282.085 566.653 282.193 566.381 282.409C566.108 282.625 565.902 282.924 565.761 283.307C565.621 283.689 565.551 284.133 565.551 284.636C565.551 285.144 565.621 285.593 565.761 285.983C565.905 286.369 566.112 286.672 566.381 286.892C566.653 287.108 566.989 287.216 567.386 287.216ZM573.575 289V280.273H575.996V289H573.575ZM574.791 279.148C574.431 279.148 574.123 279.028 573.865 278.79C573.611 278.547 573.484 278.258 573.484 277.92C573.484 277.587 573.611 277.301 573.865 277.062C574.123 276.82 574.431 276.699 574.791 276.699C575.151 276.699 575.458 276.82 575.712 277.062C575.969 277.301 576.098 277.587 576.098 277.92C576.098 278.258 575.969 278.547 575.712 278.79C575.458 279.028 575.151 279.148 574.791 279.148ZM586.071 280.273L583.02 289H580.293L577.241 280.273H579.798L581.611 286.517H581.702L583.509 280.273H586.071ZM587.31 289V280.273H589.73V289H587.31ZM588.526 279.148C588.166 279.148 587.857 279.028 587.599 278.79C587.346 278.547 587.219 278.258 587.219 277.92C587.219 277.587 587.346 277.301 587.599 277.062C587.857 276.82 588.166 276.699 588.526 276.699C588.885 276.699 589.192 276.82 589.446 277.062C589.704 277.301 589.832 277.587 589.832 277.92C589.832 278.258 589.704 278.547 589.446 278.79C589.192 279.028 588.885 279.148 588.526 279.148ZM594.885 289.142C594.222 289.142 593.622 288.972 593.084 288.631C592.55 288.286 592.125 287.78 591.811 287.114C591.5 286.443 591.345 285.621 591.345 284.648C591.345 283.648 591.506 282.816 591.828 282.153C592.15 281.487 592.578 280.989 593.112 280.659C593.65 280.326 594.239 280.159 594.879 280.159C595.368 280.159 595.775 280.242 596.101 280.409C596.43 280.572 596.696 280.777 596.896 281.023C597.101 281.265 597.256 281.504 597.362 281.739H597.436V277.364H599.851V289H597.464V287.602H597.362C597.249 287.845 597.088 288.085 596.879 288.324C596.675 288.559 596.408 288.754 596.078 288.909C595.752 289.064 595.355 289.142 594.885 289.142ZM595.652 287.216C596.042 287.216 596.372 287.11 596.641 286.898C596.913 286.682 597.122 286.381 597.266 285.994C597.413 285.608 597.487 285.155 597.487 284.636C597.487 284.117 597.415 283.667 597.271 283.284C597.127 282.902 596.919 282.606 596.646 282.398C596.374 282.189 596.042 282.085 595.652 282.085C595.254 282.085 594.919 282.193 594.646 282.409C594.374 282.625 594.167 282.924 594.027 283.307C593.887 283.689 593.817 284.133 593.817 284.636C593.817 285.144 593.887 285.593 594.027 285.983C594.171 286.369 594.377 286.672 594.646 286.892C594.919 287.108 595.254 287.216 595.652 287.216ZM607.438 285.284V280.273H609.858V289H607.534V287.415H607.443C607.246 287.926 606.919 288.337 606.46 288.648C606.006 288.958 605.451 289.114 604.795 289.114C604.212 289.114 603.699 288.981 603.256 288.716C602.813 288.451 602.466 288.074 602.216 287.585C601.97 287.097 601.845 286.511 601.841 285.83V280.273H604.261V285.398C604.265 285.913 604.403 286.32 604.676 286.619C604.949 286.919 605.314 287.068 605.773 287.068C606.064 287.068 606.337 287.002 606.591 286.869C606.845 286.733 607.049 286.532 607.205 286.267C607.364 286.002 607.441 285.674 607.438 285.284ZM614.283 289.165C613.726 289.165 613.23 289.068 612.794 288.875C612.358 288.678 612.014 288.388 611.76 288.006C611.51 287.619 611.385 287.138 611.385 286.562C611.385 286.078 611.474 285.67 611.652 285.341C611.83 285.011 612.072 284.746 612.379 284.545C612.686 284.345 613.035 284.193 613.425 284.091C613.819 283.989 614.232 283.917 614.663 283.875C615.171 283.822 615.58 283.773 615.891 283.727C616.201 283.678 616.427 283.606 616.567 283.511C616.707 283.417 616.777 283.277 616.777 283.091V283.057C616.777 282.697 616.663 282.419 616.436 282.222C616.213 282.025 615.894 281.926 615.482 281.926C615.046 281.926 614.699 282.023 614.442 282.216C614.184 282.405 614.014 282.644 613.93 282.932L611.692 282.75C611.805 282.22 612.029 281.761 612.362 281.375C612.696 280.985 613.125 280.686 613.652 280.477C614.182 280.265 614.796 280.159 615.493 280.159C615.978 280.159 616.442 280.216 616.885 280.33C617.332 280.443 617.728 280.619 618.072 280.858C618.421 281.097 618.696 281.403 618.896 281.778C619.097 282.15 619.197 282.595 619.197 283.114V289H616.902V287.79H616.834C616.694 288.062 616.506 288.303 616.271 288.511C616.036 288.716 615.754 288.877 615.425 288.994C615.095 289.108 614.714 289.165 614.283 289.165ZM614.976 287.494C615.332 287.494 615.646 287.424 615.919 287.284C616.192 287.14 616.406 286.947 616.561 286.705C616.716 286.462 616.794 286.187 616.794 285.881V284.955C616.718 285.004 616.614 285.049 616.482 285.091C616.353 285.129 616.207 285.165 616.044 285.199C615.881 285.229 615.718 285.258 615.555 285.284C615.393 285.307 615.245 285.328 615.112 285.347C614.828 285.388 614.58 285.455 614.368 285.545C614.156 285.636 613.991 285.759 613.874 285.915C613.756 286.066 613.697 286.256 613.697 286.483C613.697 286.812 613.817 287.064 614.055 287.239C614.298 287.409 614.605 287.494 614.976 287.494ZM623.496 277.364V289H621.075V277.364H623.496ZM639.45 281.438H636.962C636.916 281.116 636.823 280.83 636.683 280.58C636.543 280.326 636.363 280.11 636.143 279.932C635.924 279.754 635.67 279.617 635.382 279.523C635.098 279.428 634.789 279.381 634.456 279.381C633.854 279.381 633.329 279.53 632.882 279.83C632.435 280.125 632.089 280.557 631.842 281.125C631.596 281.689 631.473 282.375 631.473 283.182C631.473 284.011 631.596 284.708 631.842 285.273C632.092 285.837 632.441 286.263 632.888 286.551C633.335 286.839 633.852 286.983 634.439 286.983C634.768 286.983 635.073 286.939 635.354 286.852C635.638 286.765 635.89 286.638 636.109 286.472C636.329 286.301 636.511 286.095 636.655 285.852C636.803 285.61 636.905 285.333 636.962 285.023L639.45 285.034C639.386 285.568 639.225 286.083 638.967 286.58C638.714 287.072 638.371 287.513 637.939 287.903C637.511 288.29 637 288.597 636.405 288.824C635.814 289.047 635.145 289.159 634.399 289.159C633.361 289.159 632.433 288.924 631.615 288.455C630.801 287.985 630.157 287.305 629.683 286.415C629.214 285.525 628.979 284.447 628.979 283.182C628.979 281.913 629.217 280.833 629.695 279.943C630.172 279.053 630.82 278.375 631.638 277.909C632.456 277.439 633.376 277.205 634.399 277.205C635.073 277.205 635.698 277.299 636.274 277.489C636.854 277.678 637.367 277.955 637.814 278.318C638.261 278.678 638.625 279.119 638.905 279.642C639.189 280.165 639.371 280.763 639.45 281.438ZM645.112 289.17C644.23 289.17 643.466 288.983 642.822 288.608C642.182 288.229 641.688 287.703 641.339 287.028C640.991 286.35 640.817 285.564 640.817 284.67C640.817 283.769 640.991 282.981 641.339 282.307C641.688 281.629 642.182 281.102 642.822 280.727C643.466 280.348 644.23 280.159 645.112 280.159C645.995 280.159 646.756 280.348 647.396 280.727C648.04 281.102 648.536 281.629 648.885 282.307C649.233 282.981 649.408 283.769 649.408 284.67C649.408 285.564 649.233 286.35 648.885 287.028C648.536 287.703 648.04 288.229 647.396 288.608C646.756 288.983 645.995 289.17 645.112 289.17ZM645.124 287.295C645.525 287.295 645.86 287.182 646.129 286.955C646.398 286.723 646.601 286.409 646.737 286.011C646.877 285.614 646.947 285.161 646.947 284.653C646.947 284.146 646.877 283.693 646.737 283.295C646.601 282.898 646.398 282.583 646.129 282.352C645.86 282.121 645.525 282.006 645.124 282.006C644.718 282.006 644.377 282.121 644.101 282.352C643.828 282.583 643.622 282.898 643.482 283.295C643.345 283.693 643.277 284.146 643.277 284.653C643.277 285.161 643.345 285.614 643.482 286.011C643.622 286.409 643.828 286.723 644.101 286.955C644.377 287.182 644.718 287.295 645.124 287.295ZM653.402 283.955V289H650.982V280.273H653.288V281.812H653.391C653.584 281.305 653.908 280.903 654.362 280.608C654.817 280.309 655.368 280.159 656.016 280.159C656.622 280.159 657.15 280.292 657.601 280.557C658.052 280.822 658.402 281.201 658.652 281.693C658.902 282.182 659.027 282.765 659.027 283.443V289H656.607V283.875C656.61 283.341 656.474 282.924 656.197 282.625C655.921 282.322 655.54 282.17 655.055 282.17C654.73 282.17 654.442 282.241 654.192 282.381C653.946 282.521 653.752 282.725 653.612 282.994C653.476 283.259 653.406 283.58 653.402 283.955ZM665.577 280.273V282.091H660.321V280.273H665.577ZM661.514 278.182H663.935V286.318C663.935 286.542 663.969 286.716 664.037 286.841C664.105 286.962 664.2 287.047 664.321 287.097C664.446 287.146 664.59 287.17 664.753 287.17C664.866 287.17 664.98 287.161 665.094 287.142C665.207 287.119 665.295 287.102 665.355 287.091L665.736 288.892C665.615 288.93 665.444 288.973 665.224 289.023C665.005 289.076 664.738 289.108 664.423 289.119C663.84 289.142 663.329 289.064 662.889 288.886C662.454 288.708 662.115 288.432 661.872 288.057C661.63 287.682 661.51 287.208 661.514 286.636V278.182ZM667.153 289V280.273H669.5V281.795H669.591C669.75 281.254 670.017 280.845 670.392 280.568C670.767 280.288 671.199 280.148 671.688 280.148C671.809 280.148 671.939 280.155 672.08 280.17C672.22 280.186 672.343 280.206 672.449 280.233V282.381C672.335 282.347 672.178 282.316 671.977 282.29C671.777 282.263 671.593 282.25 671.426 282.25C671.07 282.25 670.752 282.328 670.472 282.483C670.195 282.634 669.975 282.847 669.812 283.119C669.653 283.392 669.574 283.706 669.574 284.062V289H667.153ZM673.7 289V280.273H676.121V289H673.7ZM674.916 279.148C674.556 279.148 674.248 279.028 673.99 278.79C673.736 278.547 673.609 278.258 673.609 277.92C673.609 277.587 673.736 277.301 673.99 277.062C674.248 276.82 674.556 276.699 674.916 276.699C675.276 276.699 675.583 276.82 675.837 277.062C676.094 277.301 676.223 277.587 676.223 277.92C676.223 278.258 676.094 278.547 675.837 278.79C675.583 279.028 675.276 279.148 674.916 279.148ZM678.105 289V277.364H680.526V281.739H680.599C680.705 281.504 680.859 281.265 681.06 281.023C681.264 280.777 681.529 280.572 681.855 280.409C682.185 280.242 682.594 280.159 683.082 280.159C683.719 280.159 684.306 280.326 684.844 280.659C685.382 280.989 685.812 281.487 686.134 282.153C686.455 282.816 686.616 283.648 686.616 284.648C686.616 285.621 686.459 286.443 686.145 287.114C685.834 287.78 685.41 288.286 684.872 288.631C684.338 288.972 683.74 289.142 683.077 289.142C682.607 289.142 682.207 289.064 681.878 288.909C681.552 288.754 681.285 288.559 681.077 288.324C680.868 288.085 680.709 287.845 680.599 287.602H680.491V289H678.105ZM680.474 284.636C680.474 285.155 680.546 285.608 680.69 285.994C680.834 286.381 681.043 286.682 681.315 286.898C681.588 287.11 681.92 287.216 682.31 287.216C682.704 287.216 683.037 287.108 683.31 286.892C683.582 286.672 683.789 286.369 683.929 285.983C684.073 285.593 684.145 285.144 684.145 284.636C684.145 284.133 684.075 283.689 683.935 283.307C683.795 282.924 683.588 282.625 683.315 282.409C683.043 282.193 682.707 282.085 682.31 282.085C681.916 282.085 681.582 282.189 681.31 282.398C681.041 282.606 680.834 282.902 680.69 283.284C680.546 283.667 680.474 284.117 680.474 284.636ZM693.828 285.284V280.273H696.249V289H693.925V287.415H693.834C693.637 287.926 693.309 288.337 692.851 288.648C692.396 288.958 691.841 289.114 691.186 289.114C690.603 289.114 690.089 288.981 689.646 288.716C689.203 288.451 688.857 288.074 688.607 287.585C688.36 287.097 688.235 286.511 688.232 285.83V280.273H690.652V285.398C690.656 285.913 690.794 286.32 691.067 286.619C691.339 286.919 691.705 287.068 692.163 287.068C692.455 287.068 692.728 287.002 692.982 286.869C693.235 286.733 693.44 286.532 693.595 286.267C693.754 286.002 693.832 285.674 693.828 285.284ZM702.827 280.273V282.091H697.571V280.273H702.827ZM698.764 278.182H701.185V286.318C701.185 286.542 701.219 286.716 701.287 286.841C701.355 286.962 701.45 287.047 701.571 287.097C701.696 287.146 701.84 287.17 702.003 287.17C702.116 287.17 702.23 287.161 702.344 287.142C702.457 287.119 702.545 287.102 702.605 287.091L702.986 288.892C702.865 288.93 702.694 288.973 702.474 289.023C702.255 289.076 701.988 289.108 701.673 289.119C701.09 289.142 700.579 289.064 700.139 288.886C699.704 288.708 699.365 288.432 699.122 288.057C698.88 287.682 698.76 287.208 698.764 286.636V278.182ZM704.403 289V280.273H706.824V289H704.403ZM705.619 279.148C705.259 279.148 704.951 279.028 704.693 278.79C704.439 278.547 704.312 278.258 704.312 277.92C704.312 277.587 704.439 277.301 704.693 277.062C704.951 276.82 705.259 276.699 705.619 276.699C705.979 276.699 706.286 276.82 706.54 277.062C706.797 277.301 706.926 277.587 706.926 277.92C706.926 278.258 706.797 278.547 706.54 278.79C706.286 279.028 705.979 279.148 705.619 279.148ZM712.706 289.17C711.823 289.17 711.06 288.983 710.416 288.608C709.776 288.229 709.282 287.703 708.933 287.028C708.585 286.35 708.411 285.564 708.411 284.67C708.411 283.769 708.585 282.981 708.933 282.307C709.282 281.629 709.776 281.102 710.416 280.727C711.06 280.348 711.823 280.159 712.706 280.159C713.589 280.159 714.35 280.348 714.99 280.727C715.634 281.102 716.13 281.629 716.479 282.307C716.827 282.981 717.001 283.769 717.001 284.67C717.001 285.564 716.827 286.35 716.479 287.028C716.13 287.703 715.634 288.229 714.99 288.608C714.35 288.983 713.589 289.17 712.706 289.17ZM712.717 287.295C713.119 287.295 713.454 287.182 713.723 286.955C713.992 286.723 714.195 286.409 714.331 286.011C714.471 285.614 714.541 285.161 714.541 284.653C714.541 284.146 714.471 283.693 714.331 283.295C714.195 282.898 713.992 282.583 713.723 282.352C713.454 282.121 713.119 282.006 712.717 282.006C712.312 282.006 711.971 282.121 711.695 282.352C711.422 282.583 711.215 282.898 711.075 283.295C710.939 283.693 710.871 284.146 710.871 284.653C710.871 285.161 710.939 285.614 711.075 286.011C711.215 286.409 711.422 286.723 711.695 286.955C711.971 287.182 712.312 287.295 712.717 287.295ZM720.996 283.955V289H718.575V280.273H720.882V281.812H720.984C721.178 281.305 721.501 280.903 721.956 280.608C722.411 280.309 722.962 280.159 723.609 280.159C724.215 280.159 724.744 280.292 725.195 280.557C725.645 280.822 725.996 281.201 726.246 281.693C726.496 282.182 726.621 282.765 726.621 283.443V289H724.2V283.875C724.204 283.341 724.068 282.924 723.791 282.625C723.515 282.322 723.134 282.17 722.649 282.17C722.323 282.17 722.036 282.241 721.786 282.381C721.539 282.521 721.346 282.725 721.206 282.994C721.07 283.259 721 283.58 720.996 283.955Z" fill="black"/>
<path d="M782.568 279.392V277.364H792.125V279.392H788.562V289H786.131V279.392H782.568ZM796.365 289.17C795.467 289.17 794.695 288.989 794.047 288.625C793.403 288.258 792.907 287.739 792.558 287.068C792.21 286.394 792.036 285.597 792.036 284.676C792.036 283.778 792.21 282.991 792.558 282.312C792.907 281.634 793.397 281.106 794.03 280.727C794.666 280.348 795.412 280.159 796.268 280.159C796.844 280.159 797.38 280.252 797.876 280.438C798.376 280.619 798.812 280.894 799.183 281.261C799.558 281.629 799.85 282.091 800.058 282.648C800.267 283.201 800.371 283.848 800.371 284.591V285.256H793.001V283.756H798.092C798.092 283.407 798.017 283.098 797.865 282.83C797.714 282.561 797.503 282.35 797.234 282.199C796.969 282.044 796.661 281.966 796.308 281.966C795.941 281.966 795.615 282.051 795.331 282.222C795.051 282.388 794.831 282.614 794.672 282.898C794.513 283.178 794.431 283.491 794.428 283.835V285.261C794.428 285.693 794.507 286.066 794.666 286.381C794.829 286.695 795.058 286.938 795.354 287.108C795.649 287.278 796 287.364 796.405 287.364C796.674 287.364 796.92 287.326 797.143 287.25C797.367 287.174 797.558 287.061 797.717 286.909C797.876 286.758 797.998 286.572 798.081 286.352L800.32 286.5C800.206 287.038 799.973 287.508 799.621 287.909C799.272 288.307 798.821 288.617 798.268 288.841C797.719 289.061 797.085 289.17 796.365 289.17ZM804.439 289.165C803.882 289.165 803.386 289.068 802.95 288.875C802.515 288.678 802.17 288.388 801.916 288.006C801.666 287.619 801.541 287.138 801.541 286.562C801.541 286.078 801.63 285.67 801.808 285.341C801.986 285.011 802.229 284.746 802.536 284.545C802.842 284.345 803.191 284.193 803.581 284.091C803.975 283.989 804.388 283.917 804.82 283.875C805.327 283.822 805.736 283.773 806.047 283.727C806.357 283.678 806.583 283.606 806.723 283.511C806.863 283.417 806.933 283.277 806.933 283.091V283.057C806.933 282.697 806.82 282.419 806.592 282.222C806.369 282.025 806.051 281.926 805.638 281.926C805.202 281.926 804.856 282.023 804.598 282.216C804.34 282.405 804.17 282.644 804.087 282.932L801.848 282.75C801.962 282.22 802.185 281.761 802.518 281.375C802.852 280.985 803.282 280.686 803.808 280.477C804.339 280.265 804.952 280.159 805.649 280.159C806.134 280.159 806.598 280.216 807.041 280.33C807.488 280.443 807.884 280.619 808.229 280.858C808.577 281.097 808.852 281.403 809.053 281.778C809.253 282.15 809.354 282.595 809.354 283.114V289H807.058V287.79H806.99C806.85 288.062 806.662 288.303 806.428 288.511C806.193 288.716 805.911 288.877 805.581 288.994C805.251 289.108 804.871 289.165 804.439 289.165ZM805.132 287.494C805.488 287.494 805.803 287.424 806.075 287.284C806.348 287.14 806.562 286.947 806.717 286.705C806.873 286.462 806.95 286.187 806.95 285.881V284.955C806.875 285.004 806.77 285.049 806.638 285.091C806.509 285.129 806.363 285.165 806.2 285.199C806.037 285.229 805.875 285.258 805.712 285.284C805.549 285.307 805.401 285.328 805.268 285.347C804.984 285.388 804.736 285.455 804.524 285.545C804.312 285.636 804.147 285.759 804.03 285.915C803.912 286.066 803.854 286.256 803.854 286.483C803.854 286.812 803.973 287.064 804.212 287.239C804.454 287.409 804.761 287.494 805.132 287.494ZM811.232 289V280.273H813.538V281.812H813.641C813.822 281.301 814.125 280.898 814.55 280.602C814.974 280.307 815.482 280.159 816.072 280.159C816.671 280.159 817.18 280.309 817.601 280.608C818.021 280.903 818.302 281.305 818.442 281.812H818.533C818.711 281.312 819.033 280.913 819.499 280.614C819.968 280.311 820.523 280.159 821.163 280.159C821.978 280.159 822.639 280.419 823.146 280.938C823.658 281.453 823.913 282.184 823.913 283.131V289H821.499V283.608C821.499 283.123 821.37 282.759 821.112 282.517C820.855 282.275 820.533 282.153 820.146 282.153C819.707 282.153 819.364 282.294 819.118 282.574C818.872 282.85 818.749 283.216 818.749 283.67V289H816.402V283.557C816.402 283.129 816.279 282.788 816.033 282.534C815.79 282.28 815.47 282.153 815.072 282.153C814.804 282.153 814.561 282.222 814.345 282.358C814.133 282.491 813.964 282.678 813.839 282.92C813.714 283.159 813.652 283.439 813.652 283.761V289H811.232ZM829.574 277.364H832.608L835.812 285.182H835.949L839.153 277.364H842.188V289H839.801V281.426H839.705L836.693 288.943H835.068L832.057 281.398H831.96V289H829.574V277.364ZM848.146 289.17C847.249 289.17 846.476 288.989 845.828 288.625C845.184 288.258 844.688 287.739 844.339 287.068C843.991 286.394 843.817 285.597 843.817 284.676C843.817 283.778 843.991 282.991 844.339 282.312C844.688 281.634 845.179 281.106 845.811 280.727C846.447 280.348 847.194 280.159 848.05 280.159C848.625 280.159 849.161 280.252 849.658 280.438C850.158 280.619 850.593 280.894 850.964 281.261C851.339 281.629 851.631 282.091 851.839 282.648C852.048 283.201 852.152 283.848 852.152 284.591V285.256H844.783V283.756H849.874C849.874 283.407 849.798 283.098 849.646 282.83C849.495 282.561 849.285 282.35 849.016 282.199C848.75 282.044 848.442 281.966 848.089 281.966C847.722 281.966 847.396 282.051 847.112 282.222C846.832 282.388 846.612 282.614 846.453 282.898C846.294 283.178 846.213 283.491 846.209 283.835V285.261C846.209 285.693 846.288 286.066 846.447 286.381C846.61 286.695 846.839 286.938 847.135 287.108C847.43 287.278 847.781 287.364 848.186 287.364C848.455 287.364 848.701 287.326 848.925 287.25C849.148 287.174 849.339 287.061 849.499 286.909C849.658 286.758 849.779 286.572 849.862 286.352L852.101 286.5C851.987 287.038 851.754 287.508 851.402 287.909C851.054 288.307 850.603 288.617 850.05 288.841C849.5 289.061 848.866 289.17 848.146 289.17ZM853.732 289V280.273H856.038V281.812H856.141C856.322 281.301 856.625 280.898 857.05 280.602C857.474 280.307 857.982 280.159 858.572 280.159C859.171 280.159 859.68 280.309 860.101 280.608C860.521 280.903 860.802 281.305 860.942 281.812H861.033C861.211 281.312 861.533 280.913 861.999 280.614C862.468 280.311 863.023 280.159 863.663 280.159C864.478 280.159 865.139 280.419 865.646 280.938C866.158 281.453 866.413 282.184 866.413 283.131V289H863.999V283.608C863.999 283.123 863.87 282.759 863.612 282.517C863.355 282.275 863.033 282.153 862.646 282.153C862.207 282.153 861.864 282.294 861.618 282.574C861.372 282.85 861.249 283.216 861.249 283.67V289H858.902V283.557C858.902 283.129 858.779 282.788 858.533 282.534C858.29 282.28 857.97 282.153 857.572 282.153C857.304 282.153 857.061 282.222 856.845 282.358C856.633 282.491 856.464 282.678 856.339 282.92C856.214 283.159 856.152 283.439 856.152 283.761V289H853.732ZM868.371 289V277.364H870.791V281.739H870.865C870.971 281.504 871.125 281.265 871.325 281.023C871.53 280.777 871.795 280.572 872.121 280.409C872.45 280.242 872.859 280.159 873.348 280.159C873.984 280.159 874.571 280.326 875.109 280.659C875.647 280.989 876.077 281.487 876.399 282.153C876.721 282.816 876.882 283.648 876.882 284.648C876.882 285.621 876.725 286.443 876.411 287.114C876.1 287.78 875.676 288.286 875.138 288.631C874.604 288.972 874.005 289.142 873.342 289.142C872.873 289.142 872.473 289.064 872.143 288.909C871.818 288.754 871.551 288.559 871.342 288.324C871.134 288.085 870.975 287.845 870.865 287.602H870.757V289H868.371ZM870.74 284.636C870.74 285.155 870.812 285.608 870.956 285.994C871.1 286.381 871.308 286.682 871.581 286.898C871.854 287.11 872.185 287.216 872.575 287.216C872.969 287.216 873.303 287.108 873.575 286.892C873.848 286.672 874.054 286.369 874.195 285.983C874.339 285.593 874.411 285.144 874.411 284.636C874.411 284.133 874.34 283.689 874.2 283.307C874.06 282.924 873.854 282.625 873.581 282.409C873.308 282.193 872.973 282.085 872.575 282.085C872.181 282.085 871.848 282.189 871.575 282.398C871.306 282.606 871.1 282.902 870.956 283.284C870.812 283.667 870.74 284.117 870.74 284.636ZM882.474 289.17C881.577 289.17 880.804 288.989 880.156 288.625C879.512 288.258 879.016 287.739 878.668 287.068C878.319 286.394 878.145 285.597 878.145 284.676C878.145 283.778 878.319 282.991 878.668 282.312C879.016 281.634 879.507 281.106 880.139 280.727C880.776 280.348 881.522 280.159 882.378 280.159C882.954 280.159 883.49 280.252 883.986 280.438C884.486 280.619 884.921 280.894 885.293 281.261C885.668 281.629 885.959 282.091 886.168 282.648C886.376 283.201 886.48 283.848 886.48 284.591V285.256H879.111V283.756H884.202C884.202 283.407 884.126 283.098 883.974 282.83C883.823 282.561 883.613 282.35 883.344 282.199C883.079 282.044 882.77 281.966 882.418 281.966C882.05 281.966 881.724 282.051 881.44 282.222C881.16 282.388 880.94 282.614 880.781 282.898C880.622 283.178 880.541 283.491 880.537 283.835V285.261C880.537 285.693 880.616 286.066 880.776 286.381C880.938 286.695 881.168 286.938 881.463 287.108C881.759 287.278 882.109 287.364 882.514 287.364C882.783 287.364 883.029 287.326 883.253 287.25C883.476 287.174 883.668 287.061 883.827 286.909C883.986 286.758 884.107 286.572 884.19 286.352L886.429 286.5C886.315 287.038 886.082 287.508 885.73 287.909C885.382 288.307 884.931 288.617 884.378 288.841C883.829 289.061 883.194 289.17 882.474 289.17ZM888.06 289V280.273H890.406V281.795H890.497C890.656 281.254 890.923 280.845 891.298 280.568C891.673 280.288 892.105 280.148 892.594 280.148C892.715 280.148 892.846 280.155 892.986 280.17C893.126 280.186 893.249 280.206 893.355 280.233V282.381C893.241 282.347 893.084 282.316 892.884 282.29C892.683 282.263 892.499 282.25 892.332 282.25C891.976 282.25 891.658 282.328 891.378 282.483C891.101 282.634 890.882 282.847 890.719 283.119C890.56 283.392 890.48 283.706 890.48 284.062V289H888.06ZM901.868 282.761L899.652 282.898C899.614 282.708 899.533 282.538 899.408 282.386C899.283 282.231 899.118 282.108 898.913 282.017C898.713 281.922 898.472 281.875 898.192 281.875C897.817 281.875 897.5 281.955 897.243 282.114C896.985 282.269 896.857 282.477 896.857 282.739C896.857 282.947 896.94 283.123 897.107 283.267C897.273 283.411 897.559 283.527 897.964 283.614L899.544 283.932C900.393 284.106 901.025 284.386 901.442 284.773C901.858 285.159 902.067 285.667 902.067 286.295C902.067 286.867 901.898 287.369 901.561 287.801C901.228 288.233 900.769 288.57 900.186 288.812C899.607 289.051 898.938 289.17 898.18 289.17C897.025 289.17 896.105 288.93 895.419 288.449C894.737 287.964 894.338 287.305 894.22 286.472L896.601 286.347C896.673 286.699 896.847 286.968 897.124 287.153C897.4 287.335 897.754 287.426 898.186 287.426C898.61 287.426 898.951 287.345 899.209 287.182C899.47 287.015 899.603 286.801 899.607 286.54C899.603 286.32 899.51 286.14 899.328 286C899.146 285.856 898.866 285.746 898.487 285.67L896.976 285.369C896.124 285.199 895.489 284.903 895.072 284.483C894.66 284.062 894.453 283.527 894.453 282.875C894.453 282.314 894.605 281.831 894.908 281.426C895.214 281.021 895.644 280.708 896.197 280.489C896.754 280.269 897.406 280.159 898.152 280.159C899.254 280.159 900.122 280.392 900.754 280.858C901.391 281.324 901.762 281.958 901.868 282.761Z" fill="black"/>
<line x1="756.5" y1="257" x2="756.5" y2="501" stroke="black"/>
<path d="M451.709 174.958L455.501 171.167L459.292 174.958M455.501 179.833V171.167V179.833Z" stroke="#2BCA41" stroke-width="2" stroke-linecap="round" stroke-linejoin="round"/>
<path d="M606.885 408L616.533 388.909V388.75H605.294V384.727H621.624V388.807L611.964 408H606.885ZM633.183 408.318C631.577 408.318 630.145 408.023 628.888 407.432C627.638 406.841 626.645 406.027 625.911 404.989C625.176 403.951 624.793 402.761 624.763 401.42H629.536C629.589 402.322 629.967 403.053 630.672 403.614C631.376 404.174 632.214 404.455 633.183 404.455C633.956 404.455 634.638 404.284 635.229 403.943C635.827 403.595 636.293 403.114 636.626 402.5C636.967 401.879 637.138 401.167 637.138 400.364C637.138 399.545 636.964 398.826 636.615 398.205C636.274 397.583 635.801 397.098 635.195 396.75C634.589 396.402 633.895 396.223 633.115 396.216C632.433 396.216 631.77 396.356 631.126 396.636C630.49 396.917 629.994 397.299 629.638 397.784L625.263 397L626.365 384.727H640.592V388.75H630.422L629.82 394.58H629.956C630.365 394.004 630.982 393.527 631.808 393.148C632.634 392.769 633.558 392.58 634.581 392.58C635.982 392.58 637.232 392.909 638.331 393.568C639.429 394.227 640.297 395.133 640.933 396.284C641.57 397.428 641.884 398.746 641.876 400.239C641.884 401.807 641.52 403.201 640.786 404.42C640.058 405.633 639.039 406.587 637.729 407.284C636.426 407.973 634.911 408.318 633.183 408.318ZM658.047 403.636V402.409C658.047 401.477 658.244 400.621 658.638 399.841C659.039 399.053 659.619 398.424 660.376 397.955C661.142 397.477 662.073 397.239 663.172 397.239C664.286 397.239 665.221 397.473 665.979 397.943C666.744 398.413 667.32 399.042 667.706 399.83C668.1 400.61 668.297 401.47 668.297 402.409V403.636C668.297 404.568 668.1 405.428 667.706 406.216C667.312 406.996 666.732 407.621 665.967 408.091C665.202 408.568 664.27 408.807 663.172 408.807C662.058 408.807 661.123 408.568 660.365 408.091C659.607 407.621 659.032 406.996 658.638 406.216C658.244 405.428 658.047 404.568 658.047 403.636ZM661.354 402.409V403.636C661.354 404.174 661.482 404.682 661.74 405.159C662.005 405.636 662.482 405.875 663.172 405.875C663.861 405.875 664.331 405.64 664.581 405.17C664.839 404.701 664.967 404.189 664.967 403.636V402.409C664.967 401.856 664.846 401.341 664.604 400.864C664.361 400.386 663.884 400.148 663.172 400.148C662.49 400.148 662.017 400.386 661.751 400.864C661.486 401.341 661.354 401.856 661.354 402.409ZM646.104 390.318V389.091C646.104 388.152 646.304 387.292 646.706 386.511C647.107 385.723 647.687 385.095 648.445 384.625C649.21 384.155 650.134 383.92 651.217 383.92C652.339 383.92 653.278 384.155 654.036 384.625C654.793 385.095 655.369 385.723 655.763 386.511C656.157 387.292 656.354 388.152 656.354 389.091V390.318C656.354 391.258 656.153 392.117 655.751 392.898C655.357 393.678 654.778 394.303 654.013 394.773C653.255 395.235 652.323 395.466 651.217 395.466C650.111 395.466 649.176 395.231 648.411 394.761C647.653 394.284 647.077 393.659 646.683 392.886C646.297 392.106 646.104 391.25 646.104 390.318ZM649.433 389.091V390.318C649.433 390.871 649.562 391.383 649.82 391.852C650.085 392.322 650.551 392.557 651.217 392.557C651.914 392.557 652.388 392.322 652.638 391.852C652.895 391.383 653.024 390.871 653.024 390.318V389.091C653.024 388.538 652.903 388.023 652.661 387.545C652.418 387.068 651.937 386.83 651.217 386.83C650.543 386.83 650.077 387.072 649.82 387.557C649.562 388.042 649.433 388.553 649.433 389.091ZM647.604 408L663.604 384.727H666.581L650.581 408H647.604Z" fill="black"/>
<rect x="0.5" y="0.5" width="1017" height="531" rx="15.5" stroke="black"/>
</svg>
