<svg width="291" height="334" viewBox="0 0 291 334" fill="none" xmlns="http://www.w3.org/2000/svg">
<path d="M0 260.876C0.477977 241.211 7.71591 223.457 22.9429 209.186C28.8835 203.655 35.7117 199.285 42.8814 195.53C49.7779 191.979 57.2207 190.34 64.9366 190.067C77.0226 189.589 88.5623 191.638 99.3509 197.168C119.631 207.547 132.263 224.14 137.248 246.263C142.779 270.64 134.994 296.383 117.036 313.727C105.769 324.583 92.3178 330.934 76.7495 332.709C50.4607 335.713 24.8548 322.945 10.7203 300.002C3.61897 288.325 0.136565 275.557 0 260.876Z" fill="#F7D046"/>
<mask id="mask0_2574_1253" style="mask-type:alpha" maskUnits="userSpaceOnUse" x="0" y="190" width="139" height="144">
<path d="M0 260.876C0.477977 241.211 7.71591 223.457 22.9429 209.186C28.8835 203.655 35.7117 199.285 42.8814 195.53C49.7779 191.979 57.2207 190.34 64.9366 190.067C77.0226 189.589 88.5623 191.638 99.3509 197.168C119.631 207.547 132.263 224.14 137.248 246.263C142.779 270.64 134.994 296.383 117.036 313.727C105.769 324.583 92.3178 330.934 76.7495 332.709C50.4607 335.713 24.8548 322.945 10.7203 300.002C3.61897 288.325 0.136565 275.557 0 260.876Z" fill="black"/>
</mask>
<g mask="url(#mask0_2574_1253)">
<path d="M6.60981 311.85C6.13183 312.123 5.72214 312.396 5.24416 312.669C3.19569 313.967 1.21549 315.264 -0.832979 316.561C-1.37924 316.903 -1.99378 317.244 -2.60832 317.381C-3.01802 317.449 -3.63256 317.244 -3.90569 316.971C-4.11054 316.63 -4.17882 315.947 -3.97397 315.605C-3.63256 314.991 -3.0863 314.513 -2.54004 314.103C0.327823 311.918 3.19568 309.733 6.13183 307.685C19.1055 298.603 32.3523 289.931 46.0088 281.874C62.1917 272.383 78.4429 262.891 94.7624 253.673C111.696 244.045 129.382 235.783 147.272 228.067C151.3 226.292 155.329 224.448 159.358 222.673C160.177 222.332 160.928 221.922 161.816 221.717C164.411 220.898 166.391 221.717 167.552 224.107C168.166 225.473 168.644 226.975 168.917 228.477C170.351 235.51 170.624 242.543 170.283 249.645C169.395 268.013 163.25 284.537 153.007 299.627C142.287 315.332 128.221 327.35 111.628 336.432C98.518 343.601 84.5883 348.449 69.8393 350.634C61.304 351.932 52.7687 352.273 44.2334 350.771C37.1321 349.542 30.5087 347.152 24.4315 343.328C16.6473 338.48 11.1164 331.583 7.08778 323.526C5.51729 320.385 5.31244 317.176 6.26839 313.83C6.40496 313.352 6.54152 312.874 6.60981 312.396C6.74637 312.055 6.67809 311.986 6.60981 311.85Z" fill="#4CA96D"/>
<mask id="mask1_2574_1253" style="mask-type:alpha" maskUnits="userSpaceOnUse" x="-5" y="221" width="176" height="131">
<path d="M6.60981 311.85C6.13183 312.123 5.72214 312.396 5.24416 312.669C3.19569 313.967 1.21549 315.264 -0.832979 316.561C-1.37924 316.903 -1.99378 317.244 -2.60832 317.381C-3.01802 317.449 -3.63256 317.244 -3.90569 316.971C-4.11054 316.63 -4.17882 315.947 -3.97397 315.605C-3.63256 314.991 -3.0863 314.513 -2.54004 314.103C0.327823 311.918 3.19568 309.733 6.13183 307.685C19.1055 298.603 32.3523 289.931 46.0088 281.874C62.1917 272.383 78.4429 262.891 94.7624 253.673C111.696 244.045 129.382 235.783 147.272 228.067C151.3 226.292 155.329 224.448 159.358 222.673C160.177 222.332 160.928 221.922 161.816 221.717C164.411 220.898 166.391 221.717 167.552 224.107C168.166 225.473 168.644 226.975 168.917 228.477C170.351 235.51 170.624 242.543 170.283 249.645C169.395 268.013 163.25 284.537 153.007 299.627C142.287 315.332 128.221 327.35 111.628 336.432C98.518 343.601 84.5883 348.449 69.8393 350.634C61.304 351.932 52.7687 352.273 44.2334 350.771C37.1321 349.542 30.5087 347.152 24.4315 343.328C16.6473 338.48 11.1164 331.583 7.08778 323.526C5.51729 320.385 5.31244 317.176 6.26839 313.83C6.40496 313.352 6.54152 312.874 6.60981 312.396C6.74637 312.055 6.67809 311.986 6.60981 311.85Z" fill="#4CA96D"/>
</mask>
<g mask="url(#mask1_2574_1253)">
<path d="M137.383 323.218C137.588 322.535 137.793 321.784 137.93 321.101C138.476 317.414 138.066 313.795 137.725 310.176C136.837 301.094 134.72 292.218 132.808 283.273C131.375 276.717 129.941 270.162 129.599 263.402C129.394 258.691 129.326 253.911 129.463 249.131C129.667 240.937 130.487 232.812 131.989 224.686C132.877 220.043 133.901 215.4 135.608 210.893C136.564 208.298 137.793 205.772 139.568 203.587C140.593 202.29 141.822 201.265 143.461 200.241C143.324 200.583 143.324 200.787 143.187 200.856C139.978 203.45 138.203 207.001 136.974 210.825C135.403 215.468 134.447 220.18 133.764 225.028C131.921 237.182 131.238 249.336 131.784 261.627C132.057 267.226 133.082 272.689 134.242 278.151C135.881 286.072 137.588 293.925 139.09 301.914C140.046 307.035 140.661 312.156 140.593 317.345C140.593 318.711 140.456 320.077 140.251 321.442C140.115 322.262 139.842 323.149 139.432 323.901C138.612 325.471 136.974 325.812 135.745 324.583C134.789 323.696 133.969 322.603 133.423 321.442C132.126 318.711 130.897 315.912 129.736 313.044C126.526 304.781 124.068 296.314 121.61 287.779C117.923 275.215 113.758 262.788 109.114 250.565C108.227 248.244 107.203 246.059 106.11 243.805C105.7 242.986 105.154 242.167 104.608 241.484C103.652 240.391 102.832 240.391 101.877 241.484C101.262 242.235 100.716 243.122 100.374 244.01C99.2135 246.537 98.6672 249.336 98.3941 252.067C97.643 258.896 97.8479 265.724 98.1893 272.552C98.8038 284.433 100.443 296.246 101.877 308.059C102.764 315.297 103.584 322.467 103.72 329.773C103.788 334.962 103.72 340.152 102.628 345.273C102.355 346.502 102.013 347.731 101.535 348.892C100.101 352.238 97.3699 352.716 94.9117 349.916C93.8192 348.687 92.9998 347.253 92.1804 345.819C90.4734 342.678 89.2443 339.264 88.22 335.782C85.7619 327.588 83.9182 319.326 82.3477 310.927C79.8896 297.68 77.4997 284.433 75.1781 271.118C74.2904 266.065 73.6076 261.012 72.7882 255.891C72.5834 254.799 72.3102 253.638 71.9005 252.545C71.6957 251.931 71.2177 251.316 70.9446 250.77C69.8521 250.907 69.2375 251.589 68.8278 252.272C67.9402 253.775 66.9842 255.208 66.2331 256.779C63.8432 261.9 62.819 267.363 62.2727 272.894C61.3168 282.863 61.863 292.764 62.8873 302.665C63.7066 310.312 64.5943 317.96 65.0723 325.676C65.5503 332.709 65.5503 339.742 63.9798 346.707C63.6384 348.073 63.1604 349.438 62.6141 350.736C62.2044 351.692 61.5899 352.511 60.8388 353.262C59.3366 354.764 57.4247 354.901 55.8542 353.399C54.8299 352.374 53.8057 351.214 53.1912 349.916C51.8255 347.048 50.5281 344.044 49.4356 341.039C46.636 333.05 44.8607 324.72 43.2219 316.458C41.4466 307.308 40.1492 298.158 39.6712 288.872C39.2615 281.565 39.3298 274.259 39.125 266.953C39.125 265.861 38.9884 264.7 38.8518 263.266C37.8276 264.085 37.3496 264.973 36.8716 265.792C34.7549 269.684 33.0478 273.781 31.6139 277.946C27.6535 289.555 25.4002 301.436 25.3319 313.726C25.2636 319.94 25.1954 326.154 24.9905 332.436C24.8539 337.284 24.376 342.132 22.7372 346.775C22.3275 348.004 21.7129 349.165 21.0984 350.326C20.8253 350.804 20.3473 351.282 19.8693 351.623C19.0499 352.169 18.572 351.828 18.2988 350.599C18.4354 350.667 18.6402 350.667 18.7085 350.736C18.8451 350.804 18.9134 350.94 19.1182 351.077C20.0059 350.462 20.3473 349.575 20.757 348.687C21.8495 346.161 22.4641 343.498 22.7372 340.766C23.0786 337.216 23.3517 333.597 23.42 329.978C23.5566 323.149 23.4883 316.321 23.6931 309.493C23.9663 299.797 25.8782 290.306 28.8143 281.019C30.4531 275.83 32.4333 270.845 34.9597 266.065C35.6426 264.836 36.3937 263.607 37.2813 262.515C37.7593 261.9 38.3739 261.422 39.2615 261.695C40.0809 261.968 40.3541 262.651 40.4223 263.402C40.6272 265.587 40.7637 267.772 40.832 269.957C41.0369 275.488 40.9686 281.019 41.31 286.482C42.4025 304.508 45.407 322.262 50.733 339.537C51.6889 342.678 52.9863 345.683 54.352 348.687C54.8982 349.916 55.7176 351.009 56.6736 352.033C57.6978 353.194 58.7903 353.125 59.7463 351.965C60.4291 351.077 61.1802 350.053 61.4533 349.029C62.1361 346.502 62.7507 343.976 63.0921 341.381C63.7066 336.26 63.7749 331.139 63.2969 326.017C62.4776 317.277 61.5216 308.537 60.7022 299.797C59.8145 290.374 59.5414 280.951 60.6339 271.528C61.2485 266.134 62.4776 260.876 64.7992 255.96C65.4137 254.662 66.0965 253.433 66.8476 252.272C67.2573 251.589 67.8036 250.907 68.4181 250.36C70.1252 248.79 71.9005 248.995 72.9248 251.112C73.5393 252.409 74.0173 253.843 74.2904 255.277C75.2464 260.739 76.0658 266.134 76.9534 271.596C80.0944 290.784 83.0989 309.971 87.8103 328.885C88.9029 333.187 90.2685 337.489 91.7707 341.722C92.5218 343.839 93.7509 345.819 94.9117 347.799C95.3897 348.551 96.0725 349.233 96.8236 349.78C97.8479 350.599 98.599 350.394 99.2818 349.302C99.6915 348.551 100.101 347.731 100.238 346.912C100.716 343.702 101.262 340.561 101.467 337.352C101.877 330.046 101.194 322.808 100.374 315.638C99.0769 303.962 97.5747 292.354 96.4139 280.678C95.5263 272.006 95.2531 263.334 95.936 254.662C96.2091 250.975 96.7553 247.356 98.2576 244.01C98.8038 242.781 99.4866 241.552 100.374 240.528C102.081 238.479 104.266 238.548 105.973 240.528C106.861 241.552 107.612 242.713 108.159 244.01C110.07 248.517 111.982 253.092 113.689 257.667C117.718 268.387 120.654 279.517 123.863 290.51C126.458 299.251 129.189 307.922 132.74 316.39C133.491 318.165 134.311 319.872 135.267 321.511C135.676 322.262 136.359 322.945 136.905 323.627C137.042 323.286 137.247 323.218 137.383 323.218Z" fill="black"/>
</g>
</g>
<path fill-rule="evenodd" clip-rule="evenodd" d="M275.862 186.523C275.912 185.586 276.01 184.649 276.109 183.712C276.093 183.493 276.082 183.28 276.072 183.071L276.072 183.071C276.05 182.621 276.028 182.193 275.961 181.789C275.912 181.493 275.616 181 275.418 181C275.123 181 274.629 181.247 274.482 181.493C274.087 182.134 273.693 182.874 273.495 183.613C272.854 185.931 272.312 188.248 271.819 190.615C271.523 191.996 271.474 193.376 271.967 194.708C272.263 195.447 272.706 196.039 273.594 196.039C274.482 196.039 274.975 195.447 275.221 194.708C275.468 194.017 275.566 193.278 275.616 192.538C275.665 191.527 275.702 190.529 275.739 189.53C275.776 188.532 275.813 187.533 275.862 186.523ZM269.206 219.46C269.304 219.904 269.452 220.397 270.142 220.496C270.192 220.239 270.243 219.98 270.295 219.719C270.502 218.678 270.714 217.606 270.833 216.502C271.277 213.297 271.622 210.092 271.967 206.887L271.967 206.887C272.016 206.443 271.967 205.95 271.868 205.506C271.572 204.52 270.783 203.978 269.945 204.126C269.107 204.273 268.713 204.914 268.713 205.999C268.762 207.281 268.762 208.613 268.762 209.895C268.762 210.587 268.756 211.279 268.751 211.969L268.751 211.969C268.74 213.344 268.729 214.712 268.762 216.058C268.762 217.003 268.933 217.948 269.104 218.893C269.138 219.082 269.173 219.271 269.206 219.46ZM290.274 201.785L290.274 201.785C289.611 201.95 288.937 202.117 288.288 202.153L287.815 202.197C284.278 202.528 280.783 202.854 277.243 203.09C276.651 203.139 275.961 202.991 275.419 202.745C274.679 202.449 274.728 201.66 275.419 201.315C275.813 201.118 276.257 201.019 276.651 201.019C281.336 200.871 286.02 200.822 290.704 201.216C290.803 201.216 290.901 201.266 291 201.315V201.611C290.761 201.664 290.519 201.724 290.274 201.785ZM266.592 198.833C267.168 198.784 267.743 198.734 268.318 198.702C268.318 198.603 268.318 198.504 268.368 198.356C268.17 198.332 267.985 198.295 267.801 198.258C267.616 198.221 267.431 198.184 267.233 198.159C265.483 197.962 263.745 197.765 262.007 197.568C260.269 197.37 258.531 197.173 256.78 196.976C256.484 196.951 256.188 196.914 255.893 196.877C255.597 196.84 255.301 196.803 255.005 196.779C254.512 196.779 254.118 196.976 254.019 197.469C253.92 198.011 254.216 198.406 254.709 198.554C255.054 198.652 255.449 198.751 255.843 198.751C256.433 198.775 257.026 198.802 257.621 198.829C259.46 198.913 261.315 198.997 263.141 198.997C264.291 199.03 265.442 198.932 266.592 198.833Z" fill="black"/>
<path d="M173.919 19.8016C172.917 19.892 171.914 19.9372 170.935 20.0728C169.477 20.2988 168.361 21.0673 167.678 22.3782C167.222 23.2597 166.812 24.1638 166.47 25.1131C165.559 27.5767 165.013 30.1533 164.329 32.6622C164.238 33.0012 164.215 33.3854 164.147 33.7245C164.124 33.8601 164.102 34.0183 164.033 34.1313C163.874 34.4703 163.578 34.6511 163.236 34.6059C162.894 34.5607 162.621 34.2895 162.598 33.9053C162.575 33.7019 162.575 33.4758 162.621 33.2498C162.758 32.3909 162.712 31.5547 162.621 30.7184C162.439 29.0684 162.188 27.4185 161.664 25.8363C161.004 23.9604 160.002 22.3104 158.43 21.0221C157.633 20.3666 156.813 19.7338 155.993 19.0783C154.74 18.0838 153.305 17.4283 151.824 16.8407C151.597 16.7503 151.323 16.7277 151.05 16.6373C150.868 16.5921 150.663 16.5469 150.481 16.4565C150.093 16.2756 149.934 15.8914 150.025 15.5072C150.116 15.1455 150.458 14.9195 150.868 14.9647C151.164 14.9873 151.483 15.0551 151.779 15.1455C153.464 15.6654 155.196 15.5524 156.927 15.3942C157.564 15.3489 158.202 15.2811 158.817 15.1455C160.252 14.8065 161.368 14.0154 162.029 12.6819C162.553 11.6422 162.917 10.5573 163.168 9.4046C163.578 7.61903 164.147 5.85607 164.375 4.0253C164.489 3.09861 164.625 2.17193 164.739 1.22264C164.785 0.974015 164.808 0.725392 164.876 0.476769C165.013 0.228145 165.218 0.0247266 165.514 0.0021245C165.81 -0.0204776 166.083 0.137737 166.174 0.454167C166.288 0.793198 166.379 1.15483 166.402 1.51647C166.516 3.18902 166.63 4.86158 166.744 6.55673C166.858 8.09368 166.926 9.63062 167.085 11.145C167.222 12.3881 167.655 13.5634 168.361 14.6257C168.999 15.5976 169.887 16.2078 170.935 16.6373C171.618 16.9085 172.279 17.2023 172.962 17.4283C173.327 17.564 173.737 17.6092 174.124 17.6996C174.875 17.8804 175.65 18.0386 176.401 18.242C176.743 18.3324 176.971 18.5811 176.994 18.9427C177.039 19.2817 176.834 19.6207 176.47 19.7564C176.219 19.8468 175.946 19.9146 175.673 19.9146C175.08 19.9372 174.465 19.9146 173.873 19.9146C173.919 19.8694 173.919 19.8242 173.919 19.8016Z" fill="black"/>
</svg>
