<svg width="292" height="353" viewBox="0 0 292 353" fill="none" xmlns="http://www.w3.org/2000/svg">
<path d="M272.287 326.016C271.752 326.753 271.217 327.489 270.7 328.2C270.46 328.53 270.195 328.842 269.897 329.092C269.141 329.706 268.25 329.757 267.481 329.16C266.585 328.47 265.727 327.73 264.868 326.989C264.346 326.533 264.055 325.972 264.188 325.254C264.204 325.072 264.17 324.853 264.098 324.684C262.849 322.612 261.83 320.436 260.749 318.293C260.321 317.439 259.894 316.586 259.342 315.797C257.64 313.28 255.92 310.788 254.174 308.278C253.121 306.737 252.342 305.085 251.762 303.267C251.445 302.261 250.96 301.326 250.457 300.417C249.881 299.34 249.394 298.248 249.269 297.032C249.218 296.568 249.054 296.1 248.933 295.624C248.744 294.711 248.958 293.935 249.645 293.309C250.079 292.926 250.624 292.817 251.189 292.84C254.356 292.968 257.497 293.077 260.67 293.249C262.461 293.347 264.222 293.54 265.994 293.664C270.425 293.973 274.861 294.17 279.313 294.184C280.751 294.181 282.228 294.284 283.649 294.463C285.184 294.647 286.458 295.457 287.684 296.386C288.014 296.626 288.139 296.988 288.001 297.392C287.833 297.891 287.664 298.389 287.402 298.858C284.201 304.758 280.982 310.684 277.756 316.566C276.797 318.313 275.82 320.086 274.791 321.822C273.959 323.235 273.05 324.592 272.192 325.986C272.261 325.998 272.287 326.016 272.287 326.016ZM266.899 322.645C267.164 322.333 267.381 322.142 267.547 321.913C268.149 321.031 268.795 320.142 269.371 319.242C271.089 316.61 272.757 313.942 274.158 311.158C274.975 309.5 275.74 307.806 276.651 306.179C277.628 304.406 278.751 302.7 279.824 300.957C279.964 300.71 280.105 300.463 280.257 300.147C280.031 300.138 279.936 300.108 279.823 300.103C275.104 300.244 270.38 300.071 265.681 299.916C264.689 299.893 263.673 300.009 262.688 300.03C261.37 300.082 260.027 300.115 258.684 300.148C258.527 300.15 258.319 300.116 258.155 300.074C257.431 299.897 256.916 299.484 256.754 298.745C256.592 298.007 256.859 297.425 257.436 296.952C257.554 296.843 257.653 296.76 257.87 296.569C256.097 296.445 254.445 296.37 252.806 296.382C252.767 297.13 253.022 297.741 253.338 298.32C254.036 299.603 254.795 300.853 255.156 302.28C255.561 303.699 256.171 304.995 256.993 306.213C258.02 307.736 259.085 309.208 260.113 310.731C261.205 312.378 262.404 313.986 263.371 315.698C264.469 317.659 265.372 319.673 266.363 321.674C266.506 322.01 266.686 322.297 266.899 322.645Z" fill="#4CA96D"/>
<path d="M263.182 333.796C262.549 333.064 261.854 332.365 261.302 331.576C258.683 327.811 256.332 323.892 254.043 319.939C250.858 314.444 247.984 308.786 245.155 303.122C244.397 301.601 243.676 300.03 243.237 298.392C243.077 297.81 243.005 297.215 242.934 296.62C242.862 296.024 243.12 295.669 243.702 295.509C244.002 295.417 244.308 295.368 244.579 295.37C246.016 295.367 247.447 295.32 248.873 295.387C253.053 295.669 257.239 295.994 261.408 296.345C262.935 296.485 264.456 296.582 265.991 296.765C268.35 297.044 270.755 297.045 273.141 297.071C275.772 297.082 278.334 297.507 280.886 298.159C281.403 298.302 281.934 298.533 282.384 298.821C283.151 299.261 283.47 299.997 283.339 300.872C283.258 301.357 283.134 301.848 282.915 302.31C282.246 303.764 281.457 305.17 280.491 306.447C277.684 310.15 275.491 314.183 273.186 318.211C270.99 322.087 268.726 325.951 266.505 329.808C265.869 330.898 265.29 332.068 264.705 333.195C264.649 333.271 264.619 333.366 264.589 333.46C264.156 334.271 263.962 334.324 263.182 333.796Z" fill="black"/>
<mask id="mask0_2653_71" style="mask-type:alpha" maskUnits="userSpaceOnUse" x="242" y="295" width="42" height="40">
<path d="M263.182 333.796C262.549 333.064 261.854 332.365 261.302 331.576C258.683 327.811 256.332 323.892 254.043 319.939C250.858 314.444 247.984 308.786 245.155 303.122C244.397 301.601 243.676 300.03 243.237 298.392C243.077 297.81 243.005 297.215 242.934 296.62C242.862 296.024 243.12 295.669 243.702 295.509C244.002 295.417 244.308 295.368 244.579 295.37C246.016 295.367 247.447 295.32 248.873 295.387C253.053 295.669 257.239 295.994 261.408 296.345C262.935 296.485 264.456 296.582 265.991 296.765C268.35 297.044 270.755 297.045 273.141 297.071C275.772 297.082 278.334 297.507 280.886 298.159C281.403 298.302 281.934 298.533 282.384 298.821C283.151 299.261 283.47 299.997 283.339 300.872C283.258 301.357 283.134 301.848 282.915 302.31C282.246 303.764 281.457 305.17 280.491 306.447C277.684 310.15 275.491 314.183 273.186 318.211C270.99 322.087 268.726 325.951 266.505 329.808C265.869 330.898 265.29 332.068 264.705 333.195C264.649 333.271 264.619 333.366 264.589 333.46C264.156 334.271 263.962 334.324 263.182 333.796Z" fill="black"/>
</mask>
<g mask="url(#mask0_2653_71)">
<path d="M277.721 336.854C277.245 336.69 276.947 336.317 276.732 335.902C276.382 335.208 276.016 334.501 275.721 333.769C274.708 331.141 273.965 328.425 273.281 325.7C271.816 319.92 270.627 314.081 269.638 308.181C268.643 302.146 268.422 296.078 268.783 289.992C268.863 288.6 268.914 287.212 268.983 285.837C268.995 285.535 268.995 285.25 268.865 284.896C268.558 285.14 268.39 285.406 268.256 285.698C267.854 286.571 267.423 287.45 267.088 288.373C265.749 291.96 264.864 295.67 264.123 299.432C262.249 308.953 261.779 318.535 262.52 328.194C262.674 330.119 262.781 332.036 262.917 333.949C262.946 334.229 262.946 334.514 262.946 334.799C262.944 334.979 262.901 335.181 262.684 335.23C262.421 335.272 262.342 335.06 262.281 334.86C262.215 334.63 262.166 334.413 262.129 334.179C261.477 331.089 261.018 327.983 260.735 324.849C259.646 313.176 260.044 301.521 261.771 289.925C262.03 288.144 262.273 286.351 262.498 284.546C262.569 283.949 262.577 283.333 262.59 282.747C262.587 282.537 262.537 282.32 262.474 282.015C262.276 282.182 262.122 282.251 262.052 282.382C261.618 283.051 261.138 283.713 260.783 284.414C259.187 287.607 258.021 290.957 256.998 294.359C254.185 303.819 252.757 313.509 252.467 323.377C252.427 324.928 252.403 326.491 252.35 328.059C252.335 328.437 252.307 328.831 252.262 329.213C252.251 329.335 252.245 329.486 252.188 329.6C252.131 329.714 252.008 329.883 251.945 329.863C251.819 329.824 251.683 329.725 251.635 329.613C251.549 329.447 251.534 329.254 251.506 329.078C251.397 327.911 251.259 326.749 251.209 325.572C251.023 321.343 251.289 317.132 251.677 312.931C252.329 305.839 253.616 298.872 255.254 291.953C255.637 290.287 256.019 288.622 256.385 286.944C256.502 286.355 256.573 285.759 256.644 285.163C256.67 284.949 256.633 284.715 256.624 284.372C256.293 284.649 256.087 284.862 255.919 285.129C255.166 286.343 254.56 287.639 254.018 288.956C252.027 293.831 250.605 298.886 249.514 304.054C248.491 308.88 247.773 313.748 247.391 318.652C247.323 319.458 247.343 320.25 247.35 321.058C247.361 321.221 247.288 321.428 247.516 321.542C247.55 321.566 247.514 321.722 247.516 321.827C247.411 321.828 247.265 321.852 247.227 321.798C247.133 321.678 247.08 321.536 247.057 321.39C247.013 320.917 246.969 320.444 246.987 319.991C247.028 317.871 247.27 315.793 247.554 313.693C248.496 306.63 249.979 299.676 252.286 292.905C253.046 290.685 253.869 288.484 254.919 286.398C255.192 285.844 255.511 285.299 255.817 284.77C255.948 284.554 256.155 284.341 256.353 284.175C256.606 283.97 256.887 284.045 256.984 284.374C257.05 284.604 257.087 284.838 257.078 285.064C257.024 285.673 256.974 286.31 256.845 286.916C256.271 289.556 255.681 292.185 255.09 294.813C253.197 302.972 252.001 311.275 251.665 319.711C251.552 322.323 251.543 324.934 251.744 327.541C251.772 327.717 251.77 327.897 251.873 328.075C251.887 327.878 251.889 327.698 251.902 327.501C252.004 324.621 252.029 321.737 252.206 318.86C252.827 309.569 254.531 300.495 257.457 291.662C258.268 289.193 259.188 286.752 260.352 284.438C260.739 283.656 261.21 282.936 261.677 282.187C261.771 282.022 261.928 281.877 262.107 281.774C262.405 281.576 262.716 281.647 262.842 281.971C262.921 282.184 262.974 282.43 262.965 282.657C262.962 283.302 262.946 283.964 262.884 284.619C262.573 287.113 262.244 289.595 261.903 292.093C260.345 303.813 260.182 315.535 261.506 327.276C261.617 328.263 261.773 329.257 261.901 330.257C261.938 330.491 261.945 330.73 261.965 330.951C262.011 330.959 262.041 330.954 262.099 330.945C262.088 330.782 262.078 330.618 262.084 330.468C261.942 327.566 261.712 324.679 261.645 321.78C261.403 312.147 262.502 302.659 265.053 293.346C265.682 291.056 266.357 288.774 267.348 286.592C267.616 286.01 267.952 285.476 268.253 284.918C268.298 284.821 268.377 284.749 268.443 284.693C268.806 284.335 269.18 284.426 269.317 284.914C269.397 285.231 269.423 285.587 269.428 285.901C269.423 286.726 269.401 287.54 269.35 288.358C269.21 291.184 269.1 294.006 269.14 296.833C269.213 300.721 269.524 304.6 270.144 308.445C271.356 315.855 272.873 323.201 274.882 330.438C275.297 331.932 275.858 333.402 276.386 334.847C276.673 335.626 277.039 336.333 277.721 336.854Z" fill="#F7D046"/>
</g>
<path fill-rule="evenodd" clip-rule="evenodd" d="M163.209 180.408V178.682C163.191 178.268 163.191 177.854 163.191 177.436V177.436C163.191 177.018 163.191 176.595 163.173 176.164C163.102 175.192 162.814 174.293 162.274 173.502C161.843 172.926 161.411 172.818 160.907 173.322C160.476 173.79 160.044 174.329 159.828 174.941C159.037 177.063 159.037 179.293 159.361 181.487C159.504 182.531 160.44 183.142 161.411 183.07C162.346 182.998 163.066 182.279 163.173 181.272C163.209 180.984 163.209 180.696 163.209 180.408ZM161.52 198.574C162.131 197.423 162.383 196.164 162.419 194.833L162.396 194.651C162.26 193.557 162.12 192.436 161.916 191.379C161.88 191.02 161.736 190.696 161.556 190.408C161.124 189.725 160.477 189.401 159.649 189.509C158.858 189.617 158.282 190.12 158.103 190.912C158.031 191.271 158.031 191.703 158.067 192.099C158.139 192.854 158.246 193.61 158.39 194.329C158.415 194.449 158.44 194.569 158.464 194.688L158.464 194.689L158.464 194.689C158.614 195.431 158.764 196.171 159.074 196.883C159.362 197.566 159.829 198.214 160.333 198.789C160.836 199.329 161.16 199.257 161.52 198.574ZM155.116 183.933C155.944 183.933 156.771 184.041 157.527 184.473C158.426 185.013 158.534 185.588 157.778 186.344C157.383 186.775 156.843 187.135 156.304 187.351C154.649 188.034 152.85 188.214 151.088 188.25C150.944 188.25 150.8 188.214 150.656 188.178C149.649 187.926 148.965 187.099 149.001 186.128C149.037 185.157 149.757 184.401 150.836 184.293C152.167 184.149 153.462 184.041 154.793 183.933H155.116ZM171.519 185.696C170.404 185.228 169.253 184.905 167.994 184.833C167.592 184.9 167.19 184.959 166.791 185.017C166.334 185.085 165.882 185.151 165.44 185.228C165.044 185.336 164.613 185.588 164.289 185.912C163.713 186.487 163.641 187.207 163.929 187.926C164.253 188.717 164.9 189.149 165.764 189.113C167.203 189.077 168.605 188.717 169.864 187.962C170.512 187.602 171.123 187.135 171.663 186.631C172.167 186.199 172.095 185.948 171.519 185.696Z" fill="black"/>
<path d="M67.9248 25.0619C63.9258 22.0959 62.2262 17.9303 61.2264 13.398C60.6599 10.8653 60.3933 8.29921 60.7265 5.69982C60.8598 4.60008 61.0598 3.53367 61.5263 2.53391C61.8263 1.93405 62.1595 1.36752 62.6261 0.867634C63.4925 -0.0654782 64.6923 -0.232105 65.8586 0.301102C66.5918 0.634356 67.1917 1.20089 67.6915 1.80075C68.558 2.86716 69.1912 4.06688 69.6911 5.33324C71.0241 8.66579 71.4573 12.165 71.3907 15.7641C71.324 18.1635 71.0574 20.563 70.5575 22.8958C70.5242 23.0624 70.5242 23.1957 70.4909 23.3956C71.424 23.8622 72.4238 23.9622 73.4568 23.9955C77.7558 24.1954 81.9548 23.5623 86.0205 22.1626C87.3536 21.696 88.6533 21.1628 89.9196 20.5296C92.3857 19.3633 94.4852 17.6637 96.1515 15.5308C96.4514 15.1643 96.7513 14.7977 97.0846 14.4311C97.1179 14.3978 97.1846 14.3978 97.3512 14.3978C97.2845 14.631 97.2512 14.7977 97.1846 14.9643C95.8849 17.7303 93.9853 19.9631 91.4526 21.696C88.2867 23.8289 84.7875 25.1619 81.0884 25.895C78.0558 26.4949 75.0231 26.7615 71.9572 26.3949C71.2907 26.3283 70.5909 26.1616 69.8577 26.0283C69.7911 26.195 69.7244 26.3949 69.6577 26.5949C68.758 29.6275 67.6915 32.5601 66.1586 35.3261C64.9255 37.559 63.4925 39.6251 61.6596 41.4247C60.6599 42.3911 59.5601 43.2576 58.3271 43.8908C55.1612 45.4904 52.2619 44.9905 49.8624 42.3911C49.7291 42.2578 49.5958 42.1245 49.3959 41.9246C49.2626 42.2912 49.1626 42.5578 49.0293 42.8577C48.1628 45.2571 47.1964 47.6232 45.9634 49.8894C44.8969 51.8222 43.6639 53.6551 42.0643 55.2214C41.2978 55.9879 40.4647 56.6211 39.4982 57.121C37.1654 58.2874 34.9326 58.1208 32.7998 56.5878C32.3999 56.3212 32.0666 55.9879 31.6334 55.6547C31.5001 56.0213 31.4001 56.2879 31.3002 56.5878C30.4004 59.2538 29.3006 61.8865 27.9343 64.3526C27.601 64.9858 27.2011 65.5857 26.7679 66.1522C26.5679 66.4521 26.2347 66.6521 25.9348 66.8853C25.6682 67.052 25.3682 67.052 25.135 66.7854C24.9017 66.5188 25.0016 66.2522 25.2016 65.9856C25.6015 65.419 25.9681 64.8192 26.3013 64.2193C27.9676 61.1867 29.234 57.9875 30.2671 54.7216C30.367 54.4216 30.4337 54.1217 30.2004 53.8218C28.0343 50.7558 26.9012 47.29 26.2014 43.6242C25.2016 38.5254 25.0016 33.3599 25.6015 28.1945C25.8015 26.4283 26.1347 24.7287 26.8679 23.0957C27.1345 22.4959 27.4677 21.896 27.8676 21.3961C28.8674 20.1631 30.2337 20.0964 31.4335 21.1628C32.1666 21.8293 32.6665 22.6292 33.0664 23.5289C33.8995 25.2619 34.3661 27.1281 34.666 29.0276C35.2659 32.6601 35.2659 36.2926 34.8993 39.9584C34.4661 44.424 33.5996 48.823 32.3999 53.1219C32.2666 53.6218 32.2666 53.9884 32.6998 54.3217C33.233 54.7549 33.7329 55.2548 34.2994 55.6213C35.5658 56.4212 36.8988 56.4878 38.2652 55.888C39.1983 55.488 39.9648 54.8882 40.6646 54.1884C41.8977 53.022 42.8641 51.6556 43.7639 50.2226C45.6301 47.1567 46.9964 43.8575 48.1295 40.4583C48.2295 40.1583 48.2628 39.9251 48.0962 39.6251C46.5965 36.5925 45.93 33.3266 45.5968 29.9941C45.2302 26.3949 45.2635 22.7958 45.8634 19.23C46.0967 17.8636 46.3966 16.4973 46.9631 15.2309C47.1964 14.6977 47.4963 14.1645 47.8629 13.7313C48.7627 12.6648 50.0291 12.6982 50.8622 13.7979C51.2621 14.3311 51.562 14.931 51.7953 15.5642C52.4285 17.3304 52.6284 19.1966 52.7617 21.0629C53.095 27.0281 52.0952 32.8601 50.429 38.5587C50.3623 38.7587 50.329 38.9586 50.229 39.1586C50.0957 39.4918 50.1624 39.7918 50.3623 40.0584C50.8289 40.6582 51.2621 41.3247 51.8286 41.8246C53.1283 43.0577 54.6946 43.3576 56.3609 42.6911C57.2274 42.3578 58.0605 41.8246 58.827 41.2581C60.16 40.2583 61.2264 38.9919 62.1929 37.6589C64.2257 34.8596 65.6587 31.727 66.7918 28.4611C67.1917 27.428 67.5249 26.2616 67.9248 25.0619ZM31.0002 52.0889C31.1002 51.8889 31.1335 51.8222 31.1669 51.7223C31.2335 51.5556 31.2668 51.3557 31.3335 51.1891C32.5665 46.8234 33.3997 42.3578 33.6663 37.8256C33.8662 34.5263 33.7996 31.2271 33.0664 27.9612C32.7332 26.4949 32.3666 25.0619 31.6334 23.7289C31.3002 23.1624 30.9003 22.6292 30.4337 22.1626C30.0005 21.7294 29.5006 21.7627 29.134 22.2959C28.8008 22.7625 28.5008 23.2957 28.3009 23.8289C27.5677 25.6618 27.3011 27.5946 27.1345 29.5608C26.8012 33.8598 27.0345 38.1255 27.7677 42.3911C28.3009 45.4238 29.0674 48.3897 30.467 51.1557C30.6337 51.389 30.767 51.6889 31.0002 52.0889ZM68.5247 22.2292C68.6247 21.8293 68.6913 21.5627 68.7246 21.3295C68.8579 20.3963 69.0246 19.4966 69.1245 18.5634C69.4911 15.1976 69.3911 11.865 68.558 8.56581C68.1248 6.86622 67.5249 5.26659 66.5585 3.80027C66.1919 3.26707 65.7587 2.80051 65.2921 2.36728C64.6589 1.83407 64.2257 1.96737 63.7925 2.66721C63.6258 2.93381 63.4925 3.23374 63.4259 3.53367C63.2593 4.30016 63.0593 5.09997 62.9927 5.89978C62.7594 8.79909 63.1593 11.6318 63.9591 14.4311C64.6589 16.8305 65.692 19.0633 67.325 20.9962C67.6582 21.3961 68.0581 21.7627 68.5247 22.2292ZM49.4959 14.831C49.4292 14.831 49.3292 14.831 49.2626 14.8643C49.096 15.1643 48.8627 15.4309 48.7294 15.7308C48.4961 16.364 48.2295 17.0305 48.0629 17.697C47.263 20.8962 47.1297 24.1621 47.2964 27.4613C47.4297 30.4606 47.8296 33.4599 48.696 36.3592C48.7627 36.5925 48.8627 36.8258 48.9626 37.0591C49.1626 36.7925 49.2959 36.5259 49.3292 36.2593C49.7291 34.2931 50.229 32.3602 50.5289 30.394C51.1288 26.8282 51.3288 23.229 50.8955 19.6632C50.7622 18.4635 50.429 17.2638 50.0957 16.0974C50.0291 15.6308 49.7291 15.2309 49.4959 14.831Z" fill="black"/>
<path d="M22.7429 257.081C30.2429 257.281 36.5429 258.981 41.9429 262.981C49.9429 268.781 53.9429 276.681 53.4429 286.681C53.2429 290.481 51.6429 293.781 49.1429 296.581C44.8429 301.481 39.2429 303.881 32.7429 304.681C32.1429 304.781 31.6429 304.781 31.0429 304.681C24.5429 303.581 18.1429 302.381 12.3429 299.081C4.84289 294.581 0.942891 287.881 1.04289 279.081C1.24289 268.981 9.14289 259.481 18.7429 257.481C20.3429 257.181 21.9429 257.181 22.7429 257.081ZM23.4429 267.981C22.0429 268.281 20.5429 268.381 19.2429 268.881C13.1429 271.381 10.3429 279.481 13.6429 285.181C14.7429 287.181 16.4429 288.681 18.4429 289.681C22.2429 291.581 26.3429 292.781 30.5429 293.181C32.5429 293.381 34.7429 292.981 36.6429 292.181C41.2429 290.381 43.1429 286.881 42.1429 282.281C41.2429 278.081 39.1429 274.481 35.5429 271.981C32.0429 269.581 27.9429 268.381 23.4429 267.981Z" fill="#EA552B"/>
<path d="M32.9473 233.081C37.0473 233.481 41.2473 233.581 45.3473 234.181C54.8473 235.681 62.5473 240.581 68.3473 248.181C75.9473 257.981 80.0473 269.181 80.4473 281.681C80.6473 286.481 79.6473 291.081 77.7473 295.481C75.9473 299.581 73.7473 303.481 70.8473 306.981C61.1473 318.581 49.3473 326.781 34.0473 328.881C23.7473 330.281 13.5473 329.681 3.84727 326.081C-2.85273 323.481 -8.95273 319.781 -14.3527 315.081C-16.1527 313.481 -17.6527 311.381 -18.9527 309.281C-22.4527 303.381 -24.5527 296.881 -26.4527 290.381C-27.0527 288.381 -26.9527 286.081 -26.9527 283.981C-26.9527 270.581 -22.1527 259.181 -12.1527 250.081C-0.752734 239.781 12.5473 233.881 28.1473 233.381C29.7473 233.381 31.3473 233.381 32.9473 233.381C32.9473 233.281 32.9473 233.181 32.9473 233.081ZM32.7473 244.281C19.6473 243.881 8.04727 247.981 -2.15273 256.081C-6.35273 259.481 -9.95273 263.381 -12.3527 268.381C-17.8527 279.881 -16.7527 290.981 -10.3527 301.781C-9.35273 303.481 -7.85273 304.881 -6.25273 306.081C-3.65273 308.081 -0.952735 309.881 1.84727 311.581C9.34727 316.181 17.3473 318.781 26.3473 318.381C43.7473 317.581 56.4473 309.281 65.5473 294.981C66.6473 293.281 67.4473 291.481 68.0473 289.581C68.7473 287.481 69.2473 285.181 69.3473 283.081C69.3473 272.181 65.7473 262.481 58.9473 254.181C54.5473 248.881 48.8473 245.681 41.8473 244.981C38.8473 244.581 35.7473 244.481 32.7473 244.281Z" fill="#EE8DB9"/>
<path d="M18.0414 352.181C9.74137 352.181 2.84136 351.081 -3.75864 348.381C-8.05864 346.581 -11.9586 344.081 -15.3586 340.781C-19.9586 336.281 -24.7586 331.781 -29.4586 327.381C-29.8586 326.981 -30.3586 326.681 -30.7586 326.281C-32.3586 324.781 -34.2586 323.381 -35.5586 321.581C-42.2586 312.481 -47.3586 302.581 -48.6586 291.081C-49.7586 281.381 -48.1586 272.081 -44.4586 263.181C-41.5586 256.081 -37.8586 249.481 -32.9586 243.681C-27.9586 237.781 -22.2586 232.981 -15.4586 229.281C-7.35864 225.081 0.841364 221.081 9.44136 217.881C21.7414 213.381 34.5414 211.581 47.6414 212.081C52.4414 212.281 57.0414 213.381 61.2414 215.681C66.2414 218.381 71.2414 221.181 75.8414 224.381C85.5414 230.981 91.4414 240.581 95.2414 251.381C100.641 266.781 101.241 282.581 96.9414 298.381C96.0414 301.681 94.8414 304.981 93.3414 307.981C86.3414 321.781 76.4414 332.881 62.4414 340.081C48.0414 347.481 32.9414 351.481 18.0414 352.181ZM17.8414 341.081C31.5414 340.281 45.2414 336.581 58.1414 329.881C68.6414 324.381 76.1414 315.981 81.9414 305.881C83.6414 302.881 85.1414 299.581 86.0414 296.181C89.9414 281.981 89.4414 267.781 84.2414 253.981C81.1414 245.781 76.6414 238.481 69.1414 233.381C65.1414 230.681 60.8414 228.281 56.5414 225.881C53.2414 224.081 49.6414 223.281 45.9414 223.181C34.4414 222.981 23.1414 224.581 12.3414 228.681C4.74136 231.581 -2.65864 235.181 -9.85864 238.981C-15.4586 241.981 -20.1586 245.881 -24.2586 250.681C-28.3586 255.481 -31.3586 260.881 -33.8586 266.681C-37.6586 275.481 -38.9586 284.481 -36.9586 293.881C-36.0586 298.081 -34.8586 301.981 -31.4586 305.081C-29.8586 306.581 -28.6586 308.581 -27.4586 310.381C-26.3586 311.981 -25.3586 313.581 -24.4586 315.281C-22.9586 317.881 -21.0586 320.081 -18.8586 322.081C-15.3586 325.281 -11.7586 328.581 -8.45864 331.981C-4.95864 335.481 -0.858636 337.781 3.74136 339.181C8.14136 340.581 12.5414 341.081 17.8414 341.081Z" fill="#F7D046"/>
<path d="M239.25 89.6271C239.272 91.3407 239.402 93.0543 239.684 94.7463C239.706 94.8114 239.706 94.8765 239.727 94.9415C239.944 96.1129 240.552 96.9589 241.593 97.5445C242.287 97.935 243.003 98.2821 243.805 98.4122C245.02 98.6291 246.257 98.8677 247.471 99.1063C247.818 99.1714 248.057 99.3883 248.1 99.692C248.144 99.974 247.97 100.256 247.667 100.408C247.493 100.473 247.298 100.516 247.124 100.581C246.105 100.842 245.085 101.145 244.131 101.623C242.591 102.382 241.463 103.553 240.812 105.137C240.053 106.959 239.532 108.846 239.272 110.798C239.207 111.362 239.12 111.926 239.055 112.49C239.011 112.859 238.816 113.076 238.513 113.098C238.209 113.141 237.97 112.989 237.818 112.664C237.753 112.512 237.71 112.36 237.667 112.208C237.189 110.625 236.517 109.128 235.671 107.696C235.476 107.393 235.281 107.067 235.042 106.807C233.957 105.657 232.786 104.594 231.441 103.748C230.335 103.054 229.12 102.664 227.862 102.382C226.842 102.165 225.823 101.97 224.803 101.774C224.413 101.709 224.196 101.492 224.174 101.189C224.153 100.863 224.37 100.603 224.76 100.516C224.868 100.495 224.999 100.473 225.129 100.473C225.736 100.538 226.3 100.364 226.864 100.278C228.014 100.082 229.12 99.7354 230.226 99.3883C230.79 99.2148 231.333 98.9979 231.897 98.8027C233.719 98.1519 234.825 96.8287 235.519 95.0934C235.693 94.6378 235.823 94.1606 236.018 93.7268C236.3 93.076 236.604 92.4253 236.886 91.7745C237.059 91.4058 237.254 91.0153 237.363 90.6249C237.623 89.6921 237.862 88.7594 238.122 87.8049C238.166 87.6531 238.231 87.5013 238.296 87.3277C238.382 87.1108 238.534 86.9807 238.773 87.0023C239.033 87.024 239.185 87.1976 239.228 87.4362C239.25 87.6314 239.25 87.8049 239.25 88.0002C239.25 88.5425 239.25 89.0848 239.25 89.6271Z" fill="black"/>
</svg>
