<svg width="58" height="58" viewBox="0 0 58 58" fill="none" xmlns="http://www.w3.org/2000/svg">
<rect x="2.5" y="2.5" width="55" height="55" rx="14.5" fill="black" stroke="black"/>
<rect x="0.5" y="0.5" width="55" height="55" rx="14.5" fill="#FBE8DE" stroke="black"/>
<path d="M20.0428 17.3909C19.9259 17.2687 19.7867 17.1712 19.6332 17.1042C19.4796 17.0371 19.3147 17.0017 19.1478 17.0001C18.9809 16.9984 18.8153 17.0305 18.6605 17.0945C18.5056 17.1584 18.3646 17.2531 18.2455 17.373C16.8979 18.747 15.829 20.381 15.1003 22.1808C14.3716 23.9806 13.9977 25.9105 14 27.8593C13.9978 29.8828 14.4012 31.8853 15.1851 33.7422C15.969 35.5992 17.1167 37.2712 18.557 38.6543C18.7994 38.8841 19.1196 39.008 19.4496 38.9996C19.7796 38.9912 20.0935 38.8513 20.3245 38.6094C20.8775 38.0423 20.8093 37.1396 20.2773 36.6173C19.1214 35.4877 18.2016 34.1287 17.5737 32.6231C16.9459 31.1176 16.6231 29.4968 16.625 27.8593C16.625 24.5463 17.9218 21.542 20.0253 19.3561C20.5328 18.8267 20.5853 17.9473 20.0428 17.3909ZM23.1245 20.555C22.894 20.3118 22.5789 20.1722 22.2483 20.1668C21.9176 20.1614 21.5984 20.2907 21.3605 20.5262C20.4137 21.4845 19.6621 22.6263 19.1496 23.8853C18.637 25.1442 18.3737 26.4951 18.375 27.8593C18.373 29.3018 18.6668 30.7286 19.2376 32.047C19.8083 33.3654 20.6431 34.5459 21.6878 35.5118C21.9279 35.7294 22.2406 35.8439 22.5608 35.8316C22.8811 35.8192 23.1845 35.6809 23.408 35.4454C23.982 34.8568 23.8753 33.9307 23.3363 33.4103C22.5974 32.698 22.0089 31.8379 21.6071 30.8831C21.2052 29.9284 20.9986 28.8992 21 27.8593C21 25.7954 21.7998 23.9218 23.1 22.5471C23.6005 22.0194 23.6828 21.1239 23.1245 20.5532V20.555ZM32.8755 20.555C33.106 20.3118 33.4211 20.1722 33.7517 20.1668C34.0824 20.1614 34.4016 20.2907 34.6395 20.5262C35.5863 21.4845 36.3379 22.6263 36.8504 23.8853C37.363 25.1442 37.6263 26.4951 37.625 27.8593C37.6271 29.3018 37.3332 30.7286 36.7624 32.047C36.1917 33.3654 35.3569 34.5459 34.3122 35.5118C34.0721 35.7294 33.7594 35.8439 33.4392 35.8316C33.1189 35.8192 32.8155 35.6809 32.592 35.4454C32.018 34.8568 32.1248 33.9307 32.6637 33.4103C33.4026 32.698 33.9911 31.8379 34.393 30.8831C34.7948 29.9284 35.0014 28.8992 35 27.8593C35 25.7954 34.2002 23.9218 32.9 22.5471C32.3995 22.0194 32.3172 21.1239 32.8755 20.5532V20.555ZM35.9572 17.3927C36.0741 17.2705 36.2133 17.173 36.3668 17.106C36.5204 17.0389 36.6853 17.0035 36.8522 17.0019C37.0191 17.0002 37.1847 17.0323 37.3396 17.0963C37.4944 17.1602 37.6354 17.2549 37.7545 17.3748C39.1019 18.7485 40.1707 20.3823 40.8994 22.1817C41.628 23.9812 42.0021 25.9108 42 27.8593C42.0022 29.8828 41.5988 31.8853 40.8149 33.7422C40.031 35.5992 38.8833 37.2712 37.443 38.6543C37.2006 38.8841 36.8804 39.008 36.5504 38.9996C36.2204 38.9912 35.9065 38.8513 35.6755 38.6094C35.1225 38.0423 35.1907 37.1396 35.7245 36.6173C36.8801 35.4875 37.7995 34.1285 38.4271 32.6229C39.0546 31.1174 39.3771 29.4967 39.375 27.8593C39.375 24.5463 38.0782 21.542 35.9747 19.3561C35.4672 18.8267 35.4147 17.9473 35.9572 17.3909V17.3927ZM28 25.1673C27.3038 25.1673 26.6361 25.4509 26.1438 25.9558C25.6516 26.4606 25.375 27.1453 25.375 27.8593C25.375 28.5733 25.6516 29.258 26.1438 29.7629C26.6361 30.2677 27.3038 30.5513 28 30.5513C28.6962 30.5513 29.3639 30.2677 29.8562 29.7629C30.3484 29.258 30.625 28.5733 30.625 27.8593C30.625 27.1453 30.3484 26.4606 29.8562 25.9558C29.3639 25.4509 28.6962 25.1673 28 25.1673Z" fill="black"/>
</svg>
