<svg width="60" height="60" viewBox="0 0 60 60" fill="none" xmlns="http://www.w3.org/2000/svg">
<rect x="2.30762" y="2.30774" width="57.6923" height="57.6923" rx="15" fill="black"/>
<rect x="0.5" y="0.5" width="56.6923" height="56.6923" rx="14.5" fill="#FBE8DE" stroke="black"/>
<g clip-path="url(#clip0_2663_16)">
<path d="M15.9228 15.923C14.8602 15.923 13.9844 16.7988 13.9844 17.8614V35.9537C13.9844 37.0164 14.8602 37.8922 15.9228 37.8922H41.769C42.8316 37.8922 43.7075 37.0164 43.7075 35.9537V17.8614C43.7075 16.7988 42.8316 15.923 41.769 15.923H15.9228ZM15.9228 17.2153H41.769C42.135 17.2153 42.4151 17.4954 42.4151 17.8614V35.9537C42.4151 36.3197 42.135 36.5999 41.769 36.5999H15.9228C15.5569 36.5999 15.2767 36.3197 15.2767 35.9537V17.8614C15.2767 17.4954 15.5569 17.2153 15.9228 17.2153V17.2153ZM18.5075 21.0922C17.7957 21.0922 17.2151 21.6727 17.2151 22.3845V30.7845C17.2151 31.4963 17.7957 32.0768 18.5075 32.0768H22.3844C23.0962 32.0768 23.6767 31.4963 23.6767 30.7845V22.3845C23.6767 21.6727 23.0962 21.0922 22.3844 21.0922H18.5075ZM27.5536 21.0922C26.8418 21.0922 26.2613 21.6727 26.2613 22.3845V30.7845C26.2613 31.4963 26.8418 32.0768 27.5536 32.0768H39.1844C39.8962 32.0768 40.4767 31.4963 40.4767 30.7845V22.3845C40.4767 21.6727 39.8962 21.0922 39.1844 21.0922H27.5536ZM20.4459 28.8461C20.8018 28.8461 21.0921 29.1363 21.0921 29.4922C21.0921 29.8481 20.8018 30.1384 20.4459 30.1384C20.09 30.1384 19.7998 29.8481 19.7998 29.4922C19.7998 29.1363 20.09 28.8461 20.4459 28.8461ZM33.369 28.8461C33.7249 28.8461 34.0151 29.1363 34.0151 29.4922C34.0151 29.8481 33.7249 30.1384 33.369 30.1384C33.0131 30.1384 32.7228 29.8481 32.7228 29.4922C32.7228 29.1363 33.0131 28.8461 33.369 28.8461ZM28.8459 34.6614C28.49 34.6614 28.1998 34.9517 28.1998 35.3076C28.1998 35.6635 28.49 35.9537 28.8459 35.9537C29.2018 35.9537 29.4921 35.6635 29.4921 35.3076C29.4921 34.9517 29.2018 34.6614 28.8459 34.6614ZM25.6151 38.5384V40.4768H24.3228C23.2552 40.4768 22.3844 41.3476 22.3844 42.4153V43.0614H35.3075V42.4153C35.3075 41.3476 34.4367 40.4768 33.369 40.4768H32.0767V38.5384H25.6151Z" fill="black"/>
</g>
<defs>
<clipPath id="clip0_2663_16">
<rect width="32.3077" height="32.3077" fill="white" transform="translate(12.6924 12.6923)"/>
</clipPath>
</defs>
</svg>
