<svg width="52" height="52" viewBox="0 0 52 52" fill="none" xmlns="http://www.w3.org/2000/svg">
<rect x="2.5" y="2.5" width="49" height="49" rx="14.5" fill="black" stroke="black"/>
<rect x="0.5" y="0.5" width="49" height="49" rx="14.5" fill="#FFFB9E" stroke="black"/>
<path d="M33.7511 25.0001C33.1281 25.0033 32.5175 25.1744 31.9836 25.4954L29.4819 22.9937L31.4883 20.9874C31.8164 20.6592 32.0007 20.2142 32.0007 19.7501C32.0007 19.2861 31.8164 18.841 31.4883 18.5129L26.2383 13.2629C25.9101 12.9348 25.4651 12.7505 25.0011 12.7505C24.537 12.7505 24.092 12.9348 23.7638 13.2629L18.5138 18.5129C18.1857 18.841 18.0014 19.2861 18.0014 19.7501C18.0014 20.2142 18.1857 20.6592 18.5138 20.9874L20.5202 22.9937L18.0186 25.4954C17.2773 25.0556 16.401 24.9015 15.5543 25.0621C14.7075 25.2227 13.9484 25.6869 13.4197 26.3675C12.8909 27.0482 12.6289 27.8984 12.6827 28.7586C12.7365 29.6188 13.1025 30.4298 13.7119 31.0392C14.3214 31.6487 15.1323 32.0147 15.9925 32.0685C16.8527 32.1223 17.703 31.8602 18.3836 31.3315C19.0643 30.8027 19.5285 30.0437 19.6891 29.1969C19.8497 28.3501 19.6956 27.4738 19.2558 26.7326L21.7574 24.231L23.7638 26.2374C23.8722 26.3433 23.994 26.4345 24.1261 26.5086V30.2501H21.5011V37.2501H28.5011V30.2501H25.8761V26.5077C26.0081 26.4338 26.1299 26.3429 26.2383 26.2374L28.2447 24.231L30.7463 26.7326C30.3588 27.3973 30.2018 28.1715 30.2997 28.9347C30.3976 29.6978 30.745 30.4073 31.2878 30.9526C31.8305 31.498 32.5383 31.8488 33.301 31.9503C34.0637 32.0519 34.8386 31.8986 35.5052 31.5142C36.1717 31.1299 36.6926 30.5361 36.9868 29.8251C37.2811 29.1141 37.3321 28.3259 37.132 27.5829C36.932 26.84 36.492 26.1839 35.8806 25.7168C35.2691 25.2497 34.5205 24.9978 33.7511 25.0001V25.0001ZM18.0011 28.5001C18.0011 28.8462 17.8984 29.1846 17.7061 29.4724C17.5138 29.7601 17.2405 29.9845 16.9208 30.1169C16.601 30.2494 16.2491 30.284 15.9097 30.2165C15.5702 30.149 15.2584 29.9823 15.0136 29.7376C14.7689 29.4928 14.6022 29.181 14.5347 28.8415C14.4672 28.5021 14.5018 28.1502 14.6343 27.8304C14.7667 27.5106 14.991 27.2373 15.2788 27.045C15.5666 26.8528 15.9049 26.7501 16.2511 26.7501C16.7151 26.7506 17.1599 26.9351 17.488 27.2632C17.8161 27.5913 18.0006 28.0361 18.0011 28.5001ZM26.7511 32.0001V35.5001H23.2511V32.0001H26.7511ZM25.0011 25.0001L19.7511 19.7501L25.0011 14.5001L30.2511 19.7501L25.0011 25.0001ZM33.7511 30.2501C33.4049 30.2501 33.0666 30.1475 32.7788 29.9552C32.491 29.7629 32.2667 29.4896 32.1343 29.1698C32.0018 28.85 31.9672 28.4982 32.0347 28.1587C32.1022 27.8192 32.2689 27.5074 32.5136 27.2627C32.7584 27.0179 33.0702 26.8513 33.4097 26.7837C33.7491 26.7162 34.101 26.7509 34.4208 26.8833C34.7405 27.0158 35.0138 27.2401 35.2061 27.5279C35.3984 27.8157 35.5011 28.154 35.5011 28.5001C35.5006 28.9641 35.3161 29.409 34.988 29.737C34.6599 30.0651 34.2151 30.2497 33.7511 30.2501Z" fill="black"/>
</svg>
