<svg width="52" height="52" viewBox="0 0 52 52" fill="none" xmlns="http://www.w3.org/2000/svg">
<rect x="2.5" y="2.5" width="49" height="49" rx="14.5" fill="black" stroke="black"/>
<rect x="0.5" y="0.5" width="49" height="49" rx="14.5" fill="#DCFFDB" stroke="black"/>
<path d="M34.625 32C34.2352 32.0018 33.8509 32.0915 33.5006 32.2625L29.7381 28.5H26.75V30.25H29.0128L32.2634 33.5006C32.0923 33.8509 32.0022 34.2352 32 34.625C32 35.1442 32.154 35.6517 32.4424 36.0834C32.7308 36.5151 33.1408 36.8515 33.6205 37.0502C34.1001 37.2489 34.6279 37.3008 35.1371 37.1996C35.6463 37.0983 36.114 36.8483 36.4812 36.4812C36.8483 36.114 37.0983 35.6463 37.1996 35.1371C37.3008 34.6279 37.2489 34.1001 37.0502 33.6205C36.8515 33.1408 36.5151 32.7308 36.0834 32.4424C35.6517 32.154 35.1442 32 34.625 32ZM34.625 35.5C34.4519 35.5 34.2828 35.4487 34.1389 35.3525C33.995 35.2564 33.8828 35.1197 33.8166 34.9598C33.7504 34.8 33.7331 34.624 33.7668 34.4543C33.8006 34.2846 33.8839 34.1287 34.0063 34.0063C34.1287 33.8839 34.2846 33.8006 34.4543 33.7668C34.624 33.7331 34.8 33.7504 34.9598 33.8166C35.1197 33.8828 35.2564 33.995 35.3525 34.1389C35.4487 34.2828 35.5 34.4519 35.5 34.625C35.5 34.8571 35.4078 35.0796 35.2437 35.2437C35.0796 35.4078 34.8571 35.5 34.625 35.5ZM34.625 22.375C34.0839 22.3766 33.5565 22.5457 33.1153 22.859C32.6741 23.1724 32.3408 23.6146 32.161 24.125H26.75V25.875H32.161C32.3222 26.3275 32.6047 26.727 32.9776 27.0299C33.3505 27.3327 33.7994 27.5272 34.2754 27.5922C34.7514 27.6571 35.236 27.59 35.6764 27.3981C36.1168 27.2062 36.496 26.897 36.7725 26.5042C37.0491 26.1114 37.2123 25.6501 37.2444 25.1708C37.2766 24.6915 37.1763 24.2126 36.9547 23.7864C36.733 23.3602 36.3985 23.0032 35.9876 22.7543C35.5768 22.5053 35.1054 22.3741 34.625 22.375V22.375ZM34.625 25.875C34.4519 25.875 34.2828 25.8237 34.1389 25.7275C33.995 25.6314 33.8828 25.4947 33.8166 25.3348C33.7504 25.175 33.7331 24.999 33.7668 24.8293C33.8006 24.6596 33.8839 24.5037 34.0063 24.3813C34.1287 24.2589 34.2846 24.1756 34.4543 24.1418C34.624 24.1081 34.8 24.1254 34.9598 24.1916C35.1197 24.2578 35.2564 24.37 35.3525 24.5139C35.4487 24.6578 35.5 24.8269 35.5 25C35.5 25.2321 35.4078 25.4546 35.2437 25.6187C35.0796 25.7828 34.8571 25.875 34.625 25.875ZM34.625 12.75C33.929 12.7507 33.2617 13.0275 32.7696 13.5196C32.2775 14.0117 32.0007 14.679 32 15.375C32.003 15.7942 32.1075 16.2064 32.3045 16.5764L29.0215 19.75H26.75V21.5H29.7285L33.5785 17.7795C33.9361 17.9355 34.3241 18.0097 34.714 17.9968C35.104 17.9839 35.4861 17.8843 35.8327 17.7051C36.1793 17.5259 36.4815 17.2716 36.7174 16.9609C36.9534 16.6501 37.117 16.2907 37.1965 15.9087C37.276 15.5267 37.2693 15.1318 37.1769 14.7527C37.0845 14.3737 36.9088 14.02 36.6624 13.7174C36.4161 13.4148 36.1054 13.171 35.7529 13.0036C35.4005 12.8363 35.0152 12.7496 34.625 12.75ZM34.625 16.25C34.4519 16.25 34.2828 16.1987 34.1389 16.1025C33.995 16.0064 33.8828 15.8697 33.8166 15.7098C33.7504 15.55 33.7331 15.374 33.7668 15.2043C33.8006 15.0346 33.8839 14.8787 34.0063 14.7563C34.1287 14.6339 34.2846 14.5506 34.4543 14.5168C34.624 14.4831 34.8 14.5004 34.9598 14.5666C35.1197 14.6328 35.2564 14.745 35.3525 14.8889C35.4487 15.0328 35.5 15.2019 35.5 15.375C35.5 15.6071 35.4078 15.8296 35.2437 15.9937C35.0796 16.1578 34.8571 16.25 34.625 16.25Z" fill="black"/>
<path d="M26.75 16.25H28.5V14.5H26.75C26.2514 14.5017 25.7589 14.6105 25.306 14.8191C24.8531 15.0278 24.4503 15.3313 24.125 15.7092C23.7997 15.3313 23.3969 15.0278 22.944 14.8191C22.4911 14.6105 21.9986 14.5017 21.5 14.5H20.625C18.5371 14.5023 16.5354 15.3327 15.0591 16.8091C13.5827 18.2854 12.7523 20.2871 12.75 22.375V27.625C12.7523 29.7129 13.5827 31.7146 15.0591 33.1909C16.5354 34.6673 18.5371 35.4977 20.625 35.5H21.5C21.9986 35.4983 22.4911 35.3895 22.944 35.1809C23.3969 34.9722 23.7997 34.6687 24.125 34.2908C24.4503 34.6687 24.8531 34.9722 25.306 35.1809C25.7589 35.3895 26.2514 35.4983 26.75 35.5H28.5V33.75H26.75C26.286 33.7495 25.8412 33.565 25.5131 33.2369C25.185 32.9088 25.0005 32.464 25 32V18C25.0005 17.536 25.185 17.0912 25.5131 16.7631C25.8412 16.435 26.286 16.2505 26.75 16.25V16.25ZM21.5 33.75H20.625C19.1536 33.7474 17.7323 33.2155 16.6206 32.2517C15.5089 31.2878 14.7811 29.9561 14.57 28.5H16.25V26.75H14.5V23.25H17.125C17.821 23.2493 18.4883 22.9725 18.9804 22.4804C19.4725 21.9883 19.7493 21.321 19.75 20.625V18.875H18V20.625C18 20.8571 17.9078 21.0796 17.7437 21.2437C17.5796 21.4078 17.3571 21.5 17.125 21.5H14.57C14.7811 20.0439 15.5089 18.7122 16.6206 17.7483C17.7323 16.7845 19.1536 16.2526 20.625 16.25H21.5C21.964 16.2505 22.4088 16.435 22.7369 16.7631C23.065 17.0912 23.2495 17.536 23.25 18V21.5H21.5V23.25H23.25V26.75H21.5C20.804 26.7507 20.1367 27.0275 19.6446 27.5196C19.1525 28.0117 18.8757 28.679 18.875 29.375V31.125H20.625V29.375C20.625 29.1429 20.7172 28.9204 20.8813 28.7563C21.0454 28.5922 21.2679 28.5 21.5 28.5H23.25V32C23.2495 32.464 23.065 32.9088 22.7369 33.2369C22.4088 33.565 21.964 33.7495 21.5 33.75V33.75Z" fill="black"/>
</svg>
