<svg width="52" height="52" viewBox="0 0 52 52" fill="none" xmlns="http://www.w3.org/2000/svg">
<rect x="2.5" y="2.5" width="49" height="49" rx="14.5" fill="black" stroke="black"/>
<rect x="0.5" y="0.5" width="49" height="49" rx="14.5" fill="#D7CDFF" stroke="black"/>
<path d="M26.0562 19.9966C26.5811 19.4722 27.2927 19.1777 28.0347 19.1779C28.7767 19.1782 29.4881 19.4732 30.0126 19.998C30.5371 20.5229 30.8316 21.2346 30.8313 21.9765C30.831 22.7185 30.5361 23.43 30.0112 23.9544C29.7513 24.2141 29.4429 24.4201 29.1034 24.5606C28.7639 24.701 28.4001 24.7733 28.0327 24.7731C27.2908 24.7729 26.5793 24.4779 26.0548 23.953C25.5303 23.4282 25.2359 22.7165 25.2361 21.9745C25.2364 21.2326 25.5314 20.5211 26.0562 19.9966ZM29.0214 20.9878C28.8929 20.853 28.7388 20.7453 28.5681 20.6709C28.3974 20.5965 28.2135 20.557 28.0273 20.5547C27.8411 20.5524 27.6563 20.5873 27.4837 20.6574C27.3112 20.7276 27.1545 20.8315 27.0227 20.9631C26.8909 21.0947 26.7868 21.2513 26.7164 21.4237C26.646 21.5961 26.6108 21.7809 26.6128 21.9671C26.6149 22.1533 26.6541 22.3372 26.7283 22.5081C26.8024 22.6789 26.91 22.8332 27.0446 22.9618C27.3084 23.214 27.6604 23.3529 28.0253 23.3489C28.3902 23.3449 28.739 23.1983 28.9972 22.9404C29.2554 22.6826 29.4025 22.3339 29.4071 21.9691C29.4116 21.6042 29.2732 21.252 29.0214 20.9878ZM27.4478 31.3058C27.0562 31.4916 26.6166 31.5517 26.1895 31.4777C25.7624 31.4038 25.3686 31.1995 25.0622 30.8928L24.2082 30.0402L23.1848 31.7482C23.1302 31.8397 23.0554 31.9175 22.9662 31.9757C22.877 32.0338 22.7756 32.0709 22.6699 32.084C22.5642 32.0971 22.4569 32.0859 22.3561 32.0512C22.2554 32.0166 22.1639 31.9594 22.0886 31.884L18.1266 27.9206C18.0515 27.8454 17.9944 27.7541 17.9598 27.6536C17.9252 27.5531 17.914 27.446 17.9269 27.3405C17.9399 27.2349 17.9767 27.1338 18.0346 27.0446C18.0925 26.9554 18.1699 26.8806 18.261 26.8258L19.969 25.801L19.115 24.947C18.8089 24.6406 18.605 24.247 18.5314 23.8202C18.4577 23.3933 18.5178 22.9542 18.7034 22.5628L17.1354 20.9948C17.0042 20.8636 16.9305 20.6856 16.9305 20.4999C16.9305 20.3143 17.0042 20.1363 17.1354 20.005L18.6194 18.521C19.2332 17.907 20.0221 17.4981 20.8777 17.3505C21.7332 17.2028 22.6135 17.3237 23.3976 17.6964L24.7094 16.3846C25.8469 15.2471 27.2741 14.4426 28.8363 14.0583C30.3985 13.6741 32.036 13.7247 33.5714 14.2048C34.0963 14.369 34.5736 14.6579 34.9625 15.0468C35.3513 15.4357 35.6402 15.913 35.8044 16.4378C36.7844 19.5668 35.9444 22.9814 33.626 25.2998L32.3128 26.613C32.6854 27.3972 32.8061 28.2774 32.6584 29.1329C32.5108 29.9884 32.102 30.7773 31.4882 31.3912L30.0042 32.8752C29.8729 33.0065 29.6949 33.0802 29.5093 33.0802C29.3237 33.0802 29.1457 33.0065 29.0144 32.8752L27.4464 31.3072L27.4478 31.3058ZM33.1542 15.5418C31.8627 15.1376 30.4851 15.0946 29.171 15.4177C27.8568 15.7408 26.6561 16.4175 25.6992 17.3744L24.5582 18.5154L24.5624 18.521L23.5726 19.5108L23.5684 19.5052L20.5976 22.476L20.6018 22.4816L20.039 23.0458C19.9392 23.1806 19.891 23.3467 19.9034 23.514C19.9157 23.6813 19.9877 23.8386 20.1062 23.9572L26.052 29.903C26.171 30.0221 26.3289 30.0943 26.4968 30.1064C26.6648 30.1185 26.8314 30.0696 26.9662 29.9688L27.5276 29.4074L27.5332 29.413L30.504 26.4422L30.4984 26.4366L31.4882 25.4468L31.4938 25.4524L32.6348 24.31C33.592 23.3533 34.269 22.1527 34.5923 20.8385C34.9156 19.5243 34.8729 18.1467 34.4688 16.855C34.3719 16.5461 34.2016 16.2652 33.9724 16.0365C33.7432 15.8078 33.462 15.6381 33.1528 15.5418H33.1542ZM28.523 30.4028L29.51 31.3898L30.4984 30.4C30.846 30.053 31.0962 29.6207 31.224 29.1464C31.3517 28.6722 31.3526 28.1727 31.2264 27.698L28.523 30.4028ZM22.3098 18.7828C21.8353 18.6569 21.3361 18.6579 20.8622 18.7857C20.3882 18.9134 19.9561 19.1635 19.6092 19.5108L18.6208 20.5006L19.6078 21.4862L22.3098 18.7842V18.7828ZM23.189 29.0196L20.991 26.8216L19.7506 27.5636L22.4456 30.26L23.1876 29.0196H23.189ZM19.122 31.8756C19.1914 31.8117 19.2471 31.7344 19.2859 31.6483C19.3246 31.5623 19.3456 31.4693 19.3475 31.3749C19.3493 31.2806 19.3321 31.1868 19.2969 31.0993C19.2616 31.0118 19.209 30.9323 19.1422 30.8656C19.0754 30.7989 18.9959 30.7464 18.9083 30.7113C18.8207 30.6761 18.7269 30.6591 18.6326 30.6611C18.5383 30.6631 18.4453 30.6842 18.3593 30.723C18.2733 30.7619 18.1961 30.8178 18.1322 30.8872L15.657 33.3624C15.5902 33.427 15.5368 33.5042 15.5001 33.5897C15.4635 33.6751 15.4441 33.7669 15.4433 33.8599C15.4425 33.9528 15.4602 34.045 15.4954 34.131C15.5306 34.217 15.5826 34.2952 15.6483 34.3609C15.7141 34.4266 15.7922 34.4786 15.8782 34.5138C15.9643 34.549 16.0565 34.5667 16.1494 34.5659C16.2423 34.5651 16.3342 34.5458 16.4196 34.5091C16.505 34.4724 16.5822 34.4191 16.6468 34.3522L19.122 31.877V31.8756ZM17.141 28.9062C17.2722 29.0375 17.346 29.2155 17.346 29.4011C17.346 29.5868 17.2722 29.7648 17.141 29.896L16.1484 30.8886C16.017 31.0199 15.8388 31.0936 15.653 31.0934C15.4673 31.0933 15.2892 31.0194 15.1579 30.8879C15.0267 30.7565 14.953 30.5783 14.9531 30.3925C14.9533 30.2068 15.0272 30.0287 15.1586 29.8974L16.1512 28.9062C16.2825 28.775 16.4605 28.7013 16.6461 28.7013C16.8317 28.7013 17.0097 28.775 17.141 28.9062ZM21.103 33.858C21.2254 33.7252 21.2918 33.5502 21.2882 33.3696C21.2845 33.189 21.2113 33.0168 21.0836 32.889C20.956 32.7612 20.7839 32.6876 20.6033 32.6838C20.4227 32.6799 20.2476 32.746 20.1146 32.8682L19.1206 33.8608C18.9894 33.9923 18.9157 34.1705 18.9158 34.3562C18.916 34.542 18.9899 34.7201 19.1213 34.8513C19.2528 34.9826 19.431 35.0563 19.6167 35.0561C19.8025 35.056 19.9806 34.9821 20.1118 34.8506L21.1044 33.858H21.103Z" fill="black"/>
</svg>
