<svg width="52" height="52" viewBox="0 0 52 52" fill="none" xmlns="http://www.w3.org/2000/svg">
<rect x="2" y="2" width="50" height="50" rx="15" fill="black"/>
<rect x="0.5" y="0.5" width="49" height="49" rx="14.5" fill="#FBE8DE" stroke="black"/>
<path d="M29.3747 13.3335C30.0398 13.3334 30.6802 13.5858 31.1664 14.0398C31.6526 14.4937 31.9483 15.1152 31.9938 15.7788L31.9997 15.9585V16.8323L34.0413 16.8335C34.7065 16.8334 35.3469 17.0858 35.8331 17.5398C36.3192 17.9937 36.615 18.6152 36.6605 19.2788L36.6663 19.4585V30.5418C36.6664 31.207 36.414 31.8474 35.9601 32.3335C35.5062 32.8197 34.8846 33.1155 34.221 33.161L34.0413 33.1668H31.9997V34.0418C31.9998 34.707 31.7473 35.3474 31.2934 35.8335C30.8395 36.3197 30.2179 36.6155 29.5543 36.661L29.3747 36.6668H20.6247C19.9595 36.6669 19.3192 36.4145 18.833 35.9606C18.3468 35.5066 18.051 34.8851 18.0055 34.2215L17.9997 34.0418V33.1668H15.958C15.2929 33.1669 14.6525 32.9145 14.1663 32.4606C13.6801 32.0066 13.3844 31.3851 13.3388 30.7215L13.333 30.5418V19.4585C13.3329 18.7933 13.5854 18.153 14.0393 17.6668C14.4932 17.1806 15.1148 16.8849 15.7783 16.8393L15.958 16.8335L17.9997 16.8323V15.9585C17.9996 15.2933 18.252 14.653 18.7059 14.1668C19.1599 13.6806 19.7814 13.3849 20.445 13.3393L20.6247 13.3335H29.3747ZM29.3747 15.0835H20.6247C20.4132 15.0835 20.2089 15.1601 20.0496 15.2991C19.8902 15.438 19.7866 15.63 19.7578 15.8395L19.7497 15.9585V34.0418C19.7497 34.4852 20.0787 34.8515 20.5057 34.9087L20.6247 34.9168H29.3747C29.5861 34.9168 29.7904 34.8402 29.9498 34.7013C30.1091 34.5623 30.2128 34.3703 30.2415 34.1608L30.2497 34.0418V15.9585C30.2497 15.7471 30.1731 15.5428 30.0341 15.3834C29.8951 15.2241 29.7032 15.1204 29.4937 15.0917L29.3747 15.0835ZM17.9997 18.5823L15.958 18.5835C15.7466 18.5835 15.5423 18.6601 15.3829 18.7991C15.2236 18.938 15.1199 19.13 15.0912 19.3395L15.083 19.4585V30.5418C15.083 30.9852 15.412 31.3515 15.839 31.4087L15.958 31.4168H17.9997V18.5823ZM34.0413 18.5835L31.9997 18.5823V31.4168H34.0413C34.2528 31.4168 34.4571 31.3402 34.6164 31.2013C34.7758 31.0623 34.8794 30.8703 34.9082 30.6608L34.9163 30.5418V19.4585C34.9163 19.2264 34.8242 19.0039 34.6601 18.8398C34.496 18.6757 34.2734 18.5835 34.0413 18.5835Z" fill="black"/>
</svg>
