<svg width="52" height="52" viewBox="0 0 52 52" fill="none" xmlns="http://www.w3.org/2000/svg">
<rect x="2.5" y="2.5" width="49" height="49" rx="14.5" fill="black" stroke="black"/>
<rect x="0.5" y="0.5" width="49" height="49" rx="14.5" fill="#FBE8DE" stroke="black"/>
<path d="M18.7105 16.8485C20.4596 15.3402 22.6904 14.5072 25 14.5C29.7075 14.5 33.6153 18 34.0405 22.5132C36.8265 22.907 39 25.2397 39 28.1027C39 31.2457 36.3785 33.75 33.2023 33.75H17.6167C13.989 33.75 11 30.8905 11 27.3065C11 24.2212 13.2155 21.6662 16.1485 21.0187C16.3987 19.5085 17.37 18.0035 18.7105 16.8485V16.8485ZM19.8533 18.1732C18.5285 19.316 17.8355 20.6933 17.8355 21.7713V22.5553L17.0567 22.641C14.612 22.9087 12.75 24.916 12.75 27.3065C12.75 29.8737 14.9025 32 17.6167 32H33.2023C35.465 32 37.25 30.229 37.25 28.1027C37.25 25.9747 35.465 24.2038 33.2023 24.2038H32.3273V23.3288C32.329 19.4438 29.074 16.25 25 16.25C23.1098 16.2576 21.2845 16.9403 19.8533 18.175V18.1732Z" fill="black"/>
</svg>
