<svg width="116" height="30" viewBox="0 0 116 30" fill="none" xmlns="http://www.w3.org/2000/svg">
<path d="M10 6L13 12L19 12.75L14.88 17.37L16 24L10 21L4 24L5.13 17.37L1 12.75L7 12L10 6Z" fill="#FFCE31"/>
<path d="M34 6L37 12L43 12.75L38.88 17.37L40 24L34 21L28 24L29.13 17.37L25 12.75L31 12L34 6Z" fill="#FFCE31"/>
<path d="M58 6L61 12L67 12.75L62.88 17.37L64 24L58 21L52 24L53.13 17.37L49 12.75L55 12L58 6Z" fill="#FFCE31"/>
<path d="M82 6L85 12L91 12.75L86.88 17.37L88 24L82 21L76 24L77.13 17.37L73 12.75L79 12L82 6Z" fill="#FFCE31"/>
<path d="M106 6L103 12L97 12.75L101.13 17.37L100 24L106 21L112 24L110.88 17.37L115 12.75L109 12L106 6ZM106 8.24L108.34 12.93L112.99 13.51L109.81 17.07L110.68 22.22L106 19.88V8.24Z" fill="#FFCE31"/>
</svg>
