<svg width="30" height="30" viewBox="0 0 30 30" fill="none" xmlns="http://www.w3.org/2000/svg">
<path d="M30 18.25C30 19 28.5 19.5 26.75 19.75C25.625 17.625 23.375 16 20.75 14.875C21 14.5 21.25 14.25 21.5 13.875H22.5C26.375 13.75 30 16.125 30 18.25V18.25ZM8.5 13.75H7.5C3.625 13.75 0 16.125 0 18.25C0 19 1.5 19.5 3.25 19.75C4.375 17.625 6.625 16 9.25 14.875L8.5 13.75V13.75ZM15 15C17.75 15 20 12.75 20 10C20 7.25 17.75 5 15 5C12.25 5 10 7.25 10 10C10 12.75 12.25 15 15 15ZM15 16.25C9.875 16.25 5 19.5 5 22.5C5 25 15 25 15 25C15 25 25 25 25 22.5C25 19.5 20.125 16.25 15 16.25ZM22.125 12.5H22.5C24.625 12.5 26.25 10.875 26.25 8.75C26.25 6.625 24.625 5 22.5 5C21.875 5 21.375 5.125 20.875 5.375C21.875 6.625 22.5 8.25 22.5 10C22.5 10.875 22.375 11.75 22.125 12.5ZM7.5 12.5H7.875C7.625 11.75 7.5 10.875 7.5 10C7.5 8.25 8.125 6.625 9.125 5.375C8.625 5.125 8.125 5 7.5 5C5.375 5 3.75 6.625 3.75 8.75C3.75 10.875 5.375 12.5 7.5 12.5Z" fill="#00AA45"/>
</svg>
