<svg width="22" height="30" viewBox="0 0 22 30" fill="none" xmlns="http://www.w3.org/2000/svg">
<g clip-path="url(#clip0_1886_504)">
<path d="M5.56428 21.2476C5.06642 20.7384 5.32595 20.882 4.12511 20.5533C3.58027 20.4038 3.10131 20.1167 2.66819 19.7728L0.0688632 26.2908C-0.182647 26.9218 0.287144 27.6074 0.952874 27.5816L3.97157 27.4638L6.04782 29.7068C6.50616 30.2013 7.31053 30.0472 7.56204 29.4161L10.5441 21.9384C9.92303 22.2923 9.23381 22.4997 8.5211 22.4997C7.40392 22.4997 6.35433 22.055 5.56428 21.2476V21.2476ZM21.9314 26.2908L19.332 19.7728C18.8989 20.1173 18.42 20.4038 17.8751 20.5533C16.668 20.8837 16.9327 20.7396 16.436 21.2476C15.6459 22.055 14.5957 22.4997 13.4786 22.4997C12.7658 22.4997 12.0766 22.2917 11.4556 21.9384L14.4376 29.4161C14.6891 30.0472 15.4941 30.2013 15.9518 29.7068L18.0287 27.4638L21.0474 27.5816C21.7131 27.6074 22.1829 26.9212 21.9314 26.2908V26.2908ZM15.0678 19.9216C15.9432 19.0105 16.0435 19.089 17.2902 18.7415C18.086 18.5195 18.7081 17.872 18.9213 17.0435C19.3498 15.3794 19.2387 15.5804 20.408 14.3628C20.9906 13.7564 21.2181 12.8722 21.005 12.0437C20.577 10.3808 20.5764 10.6128 21.005 8.94818C21.2181 8.11966 20.9906 7.23548 20.408 6.62904C19.2387 5.41146 19.3498 5.61185 18.9213 3.94837C18.7081 3.11986 18.086 2.4724 17.2902 2.25033C15.6929 1.80443 15.8854 1.92103 14.7149 0.702865C14.1323 0.0964197 13.2826 -0.140885 12.4868 0.0811853C10.8901 0.526498 11.113 0.527084 9.5134 0.0811853C8.71761 -0.140885 7.86798 0.0958338 7.28532 0.702865C6.116 1.92044 6.3085 1.80443 4.71064 2.25033C3.91485 2.4724 3.29267 3.11986 3.07954 3.94837C2.65157 5.61185 2.76215 5.41146 1.59282 6.62904C1.01017 7.23548 0.782145 8.11966 0.995843 8.94818C1.42381 10.6099 1.42438 10.3779 0.995843 12.0431C0.782717 12.8716 1.01017 13.7558 1.59282 14.3628C2.76215 15.5804 2.651 15.3794 3.07954 17.0435C3.29267 17.872 3.91485 18.5195 4.71064 18.7415C5.99282 19.099 6.0885 19.0427 6.93241 19.9216C7.69038 20.7109 8.87116 20.8521 9.78209 20.2626C10.1464 20.0261 10.5689 19.9005 11.0004 19.9005C11.4319 19.9005 11.8544 20.0261 12.2187 20.2626C13.1291 20.8521 14.3099 20.7109 15.0678 19.9216ZM5.59522 10.3099C5.59522 7.20267 8.01522 4.68372 11.0001 4.68372C13.985 4.68372 16.405 7.20267 16.405 10.3099C16.405 13.4171 13.985 15.9361 11.0001 15.9361C8.01522 15.9361 5.59522 13.4171 5.59522 10.3099V10.3099Z" fill="#F97316"/>
</g>
<defs>
<clipPath id="clip0_1886_504">
<rect width="22" height="30" fill="white"/>
</clipPath>
</defs>
</svg>
