<svg width="164" height="40" viewBox="0 0 164 40" fill="none" xmlns="http://www.w3.org/2000/svg">
<path d="M48.0859 27.3457H59.8245V23.8335H52.2581V10.6042H48.0859V27.3457Z" fill="#3C2B1F"/>
<path d="M66.7792 25.0043C65.1057 25.0043 64.2335 23.5526 64.2335 21.375C64.2335 19.1975 65.1057 17.7223 66.7792 17.7223C68.4528 17.7223 69.3485 19.1975 69.3485 21.375C69.3485 23.5526 68.4528 25.0043 66.7792 25.0043ZM66.8028 27.7204C70.6921 27.7204 73.2378 24.9809 73.2378 21.375C73.2378 17.7692 70.6921 15.0297 66.8028 15.0297C62.9371 15.0297 60.3442 17.7692 60.3442 21.375C60.3442 24.9809 62.9371 27.7204 66.8028 27.7204Z" fill="#3C2B1F"/>
<path d="M79.97 31.4901C81.7614 31.4901 83.3407 31.0921 84.4014 30.1555C85.3679 29.2892 86.0043 27.9779 86.0043 26.175V15.3574H82.3272V16.6453H82.28C81.5729 15.6384 80.4886 15.0062 78.8857 15.0062C75.8922 15.0062 73.8179 17.4882 73.8179 21.0004C73.8179 24.6765 76.34 26.6901 79.0507 26.6901C80.5122 26.6901 81.4314 26.1048 82.1386 25.3087H82.2329V26.5028C82.2329 27.9545 81.5493 28.7974 79.9229 28.7974C78.65 28.7974 78.0136 28.2589 77.8014 27.6267H74.0772C74.4543 30.1321 76.6464 31.4901 79.97 31.4901ZM79.9464 23.857C78.5086 23.857 77.5657 22.6862 77.5657 20.8833C77.5657 19.057 78.5086 17.8862 79.9464 17.8862C81.5493 17.8862 82.3979 19.2443 82.3979 20.8599C82.3979 22.5457 81.62 23.857 79.9464 23.857Z" fill="#3C2B1F"/>
<path d="M93.5654 25.0043C91.8918 25.0043 91.0197 23.5526 91.0197 21.375C91.0197 19.1975 91.8918 17.7223 93.5654 17.7223C95.2389 17.7223 96.1347 19.1975 96.1347 21.375C96.1347 23.5526 95.2389 25.0043 93.5654 25.0043ZM93.5889 27.7204C97.4782 27.7204 100.023 24.9809 100.023 21.375C100.023 17.7692 97.4782 15.0297 93.5889 15.0297C89.7232 15.0297 87.1304 17.7692 87.1304 21.375C87.1304 24.9809 89.7232 27.7204 93.5889 27.7204Z" fill="#3C2B1F"/>
<path d="M101.146 27.3457H104.988V15.3574H101.146V27.3457ZM101.146 13.695H104.988V10.6042H101.146V13.695Z" fill="#3C2B1F"/>
<path d="M106.655 31.3028H110.497V26.1048H110.544C111.298 27.1116 112.406 27.7204 113.962 27.7204C117.12 27.7204 119.218 25.2384 119.218 21.3516C119.218 17.7457 117.262 15.0062 114.056 15.0062C112.406 15.0062 111.228 15.7321 110.403 16.8092H110.332V15.3574H106.655V31.3028ZM112.972 24.7701C111.322 24.7701 110.379 23.4355 110.379 21.4921C110.379 19.5487 111.228 18.0735 112.901 18.0735C114.551 18.0735 115.329 19.4316 115.329 21.4921C115.329 23.5292 114.433 24.7701 112.972 24.7701Z" fill="#3C2B1F"/>
<path d="M125.473 27.7204C128.632 27.7204 130.965 26.3623 130.965 23.7399C130.965 20.6726 128.467 20.134 126.345 19.7828C124.813 19.5018 123.446 19.3848 123.446 18.5418C123.446 17.7926 124.177 17.4413 125.12 17.4413C126.18 17.4413 126.911 17.7692 127.053 18.8462H130.588C130.4 16.4813 128.561 15.0062 125.143 15.0062C122.291 15.0062 119.934 16.3174 119.934 18.8462C119.934 21.656 122.173 22.2179 124.271 22.5692C125.874 22.8501 127.335 22.9672 127.335 24.0443C127.335 24.817 126.605 25.2384 125.45 25.2384C124.177 25.2384 123.375 24.6531 123.234 23.4589H119.604C119.722 26.1048 121.938 27.7204 125.473 27.7204Z" fill="#3C2B1F"/>
<path d="M136.185 27.6969C137.858 27.6969 138.919 27.0413 139.791 25.8706H139.862V27.3457H143.539V15.3574H139.697V22.054C139.697 23.4823 138.895 24.4657 137.575 24.4657C136.35 24.4657 135.76 23.7399 135.76 22.4286V15.3574H131.942V23.2247C131.942 25.894 133.403 27.6969 136.185 27.6969Z" fill="#3C2B1F"/>
<path d="M145.21 27.3457H149.053V20.6257C149.053 19.1974 149.76 18.1906 150.962 18.1906C152.117 18.1906 152.659 18.9399 152.659 20.2277V27.3457H156.501V20.6257C156.501 19.1974 157.185 18.1906 158.41 18.1906C159.565 18.1906 160.108 18.9399 160.108 20.2277V27.3457H163.95V19.5487C163.95 16.856 162.583 15.0062 159.848 15.0062C158.293 15.0062 156.996 15.6618 156.053 17.1135H156.006C155.393 15.8257 154.191 15.0062 152.612 15.0062C150.868 15.0062 149.713 15.8257 148.958 17.0667H148.888V15.3574H145.21V27.3457Z" fill="#3C2B1F"/>
<path d="M24.6444 1.02816L20.7817 0L17.5265 12.0679L14.5876 1.17292L10.7247 2.20107L13.9 13.9723L5.99115 6.11608L3.16337 8.92504L11.8384 17.5424L1.03504 14.6669L0 18.504L11.804 21.6458C11.6689 21.0668 11.5974 20.4635 11.5974 19.8436C11.5974 15.4557 15.1782 11.8986 19.5955 11.8986C24.0128 11.8986 27.5937 15.4557 27.5937 19.8436C27.5937 20.4595 27.5231 21.0591 27.3896 21.6347L38.1173 24.49L39.1523 20.6529L27.3013 17.4986L38.1054 14.6229L37.0703 10.7858L25.2199 13.94L33.1287 6.08382L30.3009 3.27486L21.7462 11.7727L24.6444 1.02816Z" fill="#F97316"/>
<path d="M27.3794 21.6794C27.0482 23.0703 26.349 24.3197 25.3896 25.3208L33.1613 33.0409L35.9891 30.2319L27.3794 21.6794Z" fill="#F97316"/>
<path d="M25.3112 25.4015C24.3403 26.3866 23.1133 27.1217 21.7373 27.5005L24.5653 37.9844L28.4281 36.9562L25.3112 25.4015Z" fill="#F97316"/>
<path d="M21.5928 27.5389C20.9544 27.7019 20.2852 27.7886 19.5957 27.7886C18.8569 27.7886 18.1415 27.6891 17.4624 27.5028L14.6318 37.9963L18.4946 39.0244L21.5928 27.5389Z" fill="#F97316"/>
<path d="M17.326 27.464C15.971 27.0664 14.7659 26.3219 13.8148 25.334L6.02393 33.073L8.8517 35.882L17.326 27.464Z" fill="#F97316"/>
<path d="M13.7494 25.2656C12.8146 24.2715 12.1337 23.0387 11.8095 21.6693L1.04688 24.534L2.08191 28.3711L13.7494 25.2656Z" fill="#F97316"/>
</svg>
