<svg width="164" height="40" viewBox="0 0 164 40" fill="none" xmlns="http://www.w3.org/2000/svg">
<path d="M3 29.665L3 9.88831L12.8237 15.3819V24.2264L20.6827 28.6762L28.5417 24.2264V15.3819L38.3655 9.88831V29.665L20.6827 39.5533L3 29.665Z" fill="#192657"/>
<path fill-rule="evenodd" clip-rule="evenodd" d="M7.91187 12.6352L3 9.88836L20.6827 0L38.3655 9.88836L33.4536 12.6352V27.1929L20.6827 34.6093L7.91186 27.1929L7.91187 12.6352ZM32.9215 12.9327L28.5417 15.3819V15.3269L20.6827 10.8772L12.8237 15.3269V15.3819L8.44398 12.9327V26.8887L20.6827 33.996L32.9215 26.8887V12.9327Z" fill="url(#paint0_linear_2200_160)"/>
<path d="M47.7803 28.1022V11.4897H50.8924V25.2543H58.4371V28.1022H47.7803Z" fill="#192657"/>
<path d="M65.1564 28.4344C63.9933 28.4344 62.948 28.1971 62.0207 27.7224C61.0933 27.2477 60.3624 26.5595 59.828 25.6577C59.2936 24.7559 59.0264 23.6721 59.0264 22.4065V22.0267C59.0264 20.761 59.2936 19.6772 59.828 18.7754C60.3624 17.8736 61.0933 17.1854 62.0207 16.7108C62.948 16.236 63.9933 15.9988 65.1564 15.9988C66.3195 15.9988 67.3648 16.236 68.2921 16.7108C69.2195 17.1854 69.9504 17.8736 70.4848 18.7754C71.0191 19.6772 71.2864 20.761 71.2864 22.0267V22.4065C71.2864 23.6721 71.0191 24.7559 70.4848 25.6577C69.9504 26.5595 69.2195 27.2477 68.2921 27.7224C67.3648 28.1971 66.3195 28.4344 65.1564 28.4344ZM65.1564 25.7764C66.068 25.7764 66.8225 25.4837 67.4198 24.8983C68.0171 24.2971 68.3157 23.4427 68.3157 22.3352V22.0979C68.3157 20.9905 68.0171 20.1439 67.4198 19.5586C66.8382 18.9574 66.0837 18.6568 65.1564 18.6568C64.2448 18.6568 63.4903 18.9574 62.893 19.5586C62.2957 20.1439 61.9971 20.9905 61.9971 22.0979V22.3352C61.9971 23.4427 62.2957 24.2971 62.893 24.8983C63.4903 25.4837 64.2448 25.7764 65.1564 25.7764Z" fill="#192657"/>
<path d="M72.4019 22.264V21.8844C72.4019 20.6503 72.6454 19.5981 73.1327 18.7279C73.6199 17.8419 74.2644 17.1695 75.066 16.7108C75.8834 16.236 76.7714 15.9988 77.7302 15.9988C78.799 15.9988 79.6085 16.1887 80.1586 16.5684C80.7088 16.948 81.1096 17.3436 81.361 17.755H81.7855V16.331H84.709V30.1906C84.709 30.9974 84.4732 31.6381 84.0017 32.1129C83.5301 32.6033 82.9014 32.8486 82.1155 32.8486H74.288V30.238H81.0781C81.5182 30.238 81.7383 30.0007 81.7383 29.526V26.4646H81.3139C81.1567 26.7177 80.9367 26.9788 80.6538 27.2477C80.3708 27.5009 79.9936 27.7145 79.5221 27.8886C79.0505 28.0626 78.4532 28.1496 77.7302 28.1496C76.7714 28.1496 75.8834 27.9201 75.066 27.4613C74.2644 26.9867 73.6199 26.3143 73.1327 25.4441C72.6454 24.5581 72.4019 23.4981 72.4019 22.264ZM78.579 25.5391C79.4906 25.5391 80.2529 25.2464 80.866 24.661C81.479 24.0756 81.7855 23.2529 81.7855 22.1929V21.9555C81.7855 20.8796 81.479 20.057 80.866 19.4874C80.2686 18.902 79.5064 18.6093 78.579 18.6093C77.6673 18.6093 76.905 18.902 76.2921 19.4874C75.679 20.057 75.3725 20.8796 75.3725 21.9555V22.1929C75.3725 23.2529 75.679 24.0756 76.2921 24.661C76.905 25.2464 77.6673 25.5391 78.579 25.5391Z" fill="#192657"/>
<path d="M92.506 28.4344C91.3428 28.4344 90.2975 28.1971 89.3702 27.7224C88.4428 27.2477 87.7119 26.5595 87.1775 25.6577C86.6432 24.7559 86.376 23.6721 86.376 22.4065V22.0267C86.376 20.761 86.6432 19.6772 87.1775 18.7754C87.7119 17.8736 88.4428 17.1854 89.3702 16.7108C90.2975 16.236 91.3428 15.9988 92.506 15.9988C93.669 15.9988 94.7143 16.236 95.6416 16.7108C96.569 17.1854 97.2999 17.8736 97.8343 18.7754C98.3687 19.6772 98.6359 20.761 98.6359 22.0267V22.4065C98.6359 23.6721 98.3687 24.7559 97.8343 25.6577C97.2999 26.5595 96.569 27.2477 95.6416 27.7224C94.7143 28.1971 93.669 28.4344 92.506 28.4344ZM92.506 25.7764C93.4175 25.7764 94.172 25.4837 94.7693 24.8983C95.3666 24.2971 95.6653 23.4427 95.6653 22.3352V22.0979C95.6653 20.9905 95.3666 20.1439 94.7693 19.5586C94.1877 18.9574 93.4333 18.6568 92.506 18.6568C91.5943 18.6568 90.8399 18.9574 90.2425 19.5586C89.6453 20.1439 89.3466 20.9905 89.3466 22.0979V22.3352C89.3466 23.4427 89.6453 24.2971 90.2425 24.8983C90.8399 25.4837 91.5943 25.7764 92.506 25.7764Z" fill="#192657"/>
<path d="M100.317 28.1021V16.3309H103.288V28.1021H100.317ZM101.802 14.9545C101.268 14.9545 100.812 14.7805 100.435 14.4324C100.073 14.0843 99.8926 13.6255 99.8926 13.056C99.8926 12.4864 100.073 12.0276 100.435 11.6795C100.812 11.3315 101.268 11.1573 101.802 11.1573C102.352 11.1573 102.808 11.3315 103.17 11.6795C103.531 12.0276 103.712 12.4864 103.712 13.056C103.712 13.6255 103.531 14.0843 103.17 14.4324C102.808 14.7805 102.352 14.9545 101.802 14.9545Z" fill="#192657"/>
<path d="M105.519 32.8486V16.331H108.442V17.755H108.867C109.134 17.2961 109.55 16.8927 110.117 16.5446C110.682 16.1807 111.492 15.9988 112.545 15.9988C113.488 15.9988 114.36 16.236 115.161 16.7108C115.963 17.1695 116.608 17.8498 117.095 18.7517C117.582 19.6535 117.826 20.7452 117.826 22.0267V22.4065C117.826 23.6879 117.582 24.7796 117.095 25.6814C116.608 26.5833 115.963 27.2715 115.161 27.7461C114.36 28.205 113.488 28.4344 112.545 28.4344C111.837 28.4344 111.24 28.3473 110.752 28.1733C110.281 28.0151 109.896 27.8094 109.598 27.5563C109.314 27.2873 109.086 27.0184 108.914 26.7494H108.489V32.8486H105.519ZM111.649 25.8238C112.576 25.8238 113.338 25.5311 113.936 24.9457C114.548 24.3446 114.855 23.4744 114.855 22.3352V22.0979C114.855 20.9588 114.548 20.0965 113.936 19.5111C113.323 18.9099 112.56 18.6093 111.649 18.6093C110.737 18.6093 109.974 18.9099 109.361 19.5111C108.749 20.0965 108.442 20.9588 108.442 22.0979V22.3352C108.442 23.4744 108.749 24.3446 109.361 24.9457C109.974 25.5311 110.737 25.8238 111.649 25.8238Z" fill="#192657"/>
<path d="M124.349 28.4344C122.825 28.4344 121.575 28.1021 120.6 27.4376C119.627 26.7731 119.037 25.8238 118.832 24.5897L121.568 23.8778C121.678 24.4315 121.858 24.8667 122.109 25.1831C122.377 25.4995 122.699 25.7289 123.077 25.8713C123.469 25.9978 123.893 26.0612 124.349 26.0612C125.041 26.0612 125.552 25.9425 125.882 25.7052C126.212 25.452 126.377 25.1435 126.377 24.7796C126.377 24.4157 126.22 24.1389 125.905 23.949C125.592 23.7433 125.089 23.5772 124.396 23.4507L123.737 23.3319C122.919 23.1737 122.172 22.9601 121.497 22.6912C120.821 22.4065 120.278 22.0188 119.869 21.5284C119.462 21.0378 119.257 20.405 119.257 19.6297C119.257 18.459 119.681 17.5651 120.53 16.948C121.378 16.3152 122.495 15.9988 123.878 15.9988C125.183 15.9988 126.267 16.2915 127.131 16.8769C127.996 17.4623 128.562 18.2296 128.829 19.1789L126.071 20.0332C125.945 19.432 125.686 19.0048 125.293 18.7517C124.915 18.4986 124.444 18.3719 123.878 18.3719C123.312 18.3719 122.88 18.4748 122.581 18.6805C122.283 18.8704 122.133 19.1393 122.133 19.4874C122.133 19.8671 122.29 20.1518 122.605 20.3417C122.919 20.5157 123.343 20.6503 123.878 20.7452L124.538 20.8638C125.418 21.022 126.212 21.2356 126.92 21.5046C127.642 21.7577 128.208 22.1295 128.617 22.62C129.042 23.0947 129.254 23.7433 129.254 24.566C129.254 25.8001 128.805 26.7573 127.909 27.4376C127.03 28.1021 125.843 28.4344 124.349 28.4344Z" fill="#192657"/>
<path d="M135.251 28.2919C134.34 28.2919 133.538 28.0862 132.847 27.6749C132.171 27.2477 131.644 26.6623 131.267 25.9187C130.89 25.1751 130.701 24.3207 130.701 23.3557V16.3309H133.672V23.1183C133.672 24.0043 133.884 24.6688 134.309 25.1118C134.748 25.5548 135.369 25.7763 136.171 25.7763C137.082 25.7763 137.79 25.4757 138.293 24.8745C138.796 24.2575 139.047 23.4031 139.047 22.3115V16.3309H142.018V28.1021H139.094V26.5595H138.671C138.482 26.955 138.128 27.3426 137.609 27.7223C137.091 28.1021 136.304 28.2919 135.251 28.2919Z" fill="#192657"/>
<path d="M144.264 28.1021V16.3309H147.187V17.6125H147.611C147.815 17.2169 148.154 16.8768 148.624 16.592C149.096 16.2914 149.717 16.1411 150.488 16.1411C151.32 16.1411 151.989 16.3072 152.492 16.6394C152.995 16.9559 153.379 17.3751 153.647 17.8972H154.071C154.338 17.391 154.716 16.9717 155.203 16.6394C155.691 16.3072 156.382 16.1411 157.278 16.1411C158.001 16.1411 158.653 16.2993 159.235 16.6157C159.832 16.9163 160.303 17.383 160.65 18.016C161.01 18.6329 161.191 19.4161 161.191 20.3654V28.1021H158.22V20.579C158.22 19.9303 158.056 19.4477 157.726 19.1313C157.395 18.7991 156.932 18.6329 156.335 18.6329C155.659 18.6329 155.132 18.8545 154.755 19.2974C154.394 19.7246 154.213 20.3416 154.213 21.1486V28.1021H151.242V20.579C151.242 19.9303 151.077 19.4477 150.747 19.1313C150.417 18.7991 149.954 18.6329 149.355 18.6329C148.68 18.6329 148.154 18.8545 147.776 19.2974C147.415 19.7246 147.234 20.3416 147.234 21.1486V28.1021H144.264Z" fill="#192657"/>
<defs>
<linearGradient id="paint0_linear_2200_160" x1="7.91186" y1="7.69093" x2="34.4359" y2="7.69094" gradientUnits="userSpaceOnUse">
<stop stop-color="#64C2DB"/>
<stop offset="0.307292" stop-color="#7476ED"/>
<stop offset="0.604167" stop-color="#C994DF"/>
<stop offset="1" stop-color="#E56F8C"/>
</linearGradient>
</defs>
</svg>
