<svg width="52" height="52" viewBox="0 0 52 52" fill="none" xmlns="http://www.w3.org/2000/svg">
<rect x="2" y="2" width="50" height="50" rx="15" fill="black"/>
<rect x="0.5" y="0.5" width="49" height="49" rx="14.5" fill="#FFFB9E" stroke="black"/>
<path d="M21.0797 17.1018C20.9618 17.0035 20.8257 16.9295 20.6791 16.884C20.5326 16.8384 20.3785 16.8222 20.2257 16.8363C20.0729 16.8504 19.9244 16.8945 19.7886 16.9661C19.6529 17.0377 19.5326 17.1353 19.4347 17.2534L13.6013 24.2534C13.4297 24.4622 13.3359 24.7241 13.3359 24.9943C13.3359 25.2645 13.4297 25.5264 13.6013 25.7351L19.2363 32.7351C19.3461 32.8705 19.4849 32.9795 19.6424 33.0542C19.7998 33.1289 19.972 33.1674 20.1463 33.1668C20.3671 33.1675 20.5836 33.1056 20.7706 32.9883C20.9576 32.8709 21.1074 32.7029 21.2027 32.5037C21.298 32.3046 21.3348 32.0825 21.3089 31.8632C21.283 31.644 21.1954 31.4366 21.0563 31.2651L16.0047 25.0001L21.2313 18.7468C21.3296 18.6289 21.4036 18.4928 21.4491 18.3462C21.4947 18.1997 21.5109 18.0456 21.4968 17.8928C21.4827 17.74 21.4386 17.5915 21.367 17.4557C21.2955 17.32 21.1978 17.1997 21.0797 17.1018V17.1018ZM36.4097 24.2651L30.833 17.2651C30.7367 17.1453 30.6177 17.0456 30.4828 16.9719C30.3479 16.8982 30.1998 16.8519 30.0469 16.8356C29.894 16.8194 29.7394 16.8335 29.592 16.8772C29.4447 16.9208 29.3073 16.9932 29.188 17.0901C29.0682 17.1864 28.9685 17.3054 28.8948 17.4403C28.8211 17.5752 28.7748 17.7234 28.7585 17.8762C28.7423 18.0291 28.7564 18.1837 28.8001 18.3311C28.8437 18.4785 28.9161 18.6158 29.013 18.7351L33.9947 25.0001L28.768 31.2651C28.6698 31.383 28.5958 31.5191 28.5502 31.6657C28.5047 31.8122 28.4885 31.9663 28.5025 32.1191C28.5166 32.2719 28.5607 32.4204 28.6323 32.5562C28.7039 32.6919 28.8015 32.8122 28.9197 32.9101C29.1312 33.0798 29.3952 33.1706 29.6663 33.1668C29.8377 33.1671 30.0071 33.1296 30.1624 33.057C30.3176 32.9844 30.455 32.8785 30.5647 32.7468L36.398 25.7468C36.5713 25.5394 36.6671 25.2783 36.6693 25.008C36.6714 24.7378 36.5796 24.4752 36.4097 24.2651V24.2651Z" fill="black"/>
</svg>
