<svg width="277" height="199" viewBox="0 0 277 199" fill="none" xmlns="http://www.w3.org/2000/svg">
<path d="M164.704 29.9302C161.127 29.9302 158.605 27.6431 158.371 24.2418C158.195 22.2479 158.781 20.43 159.895 18.7879C161.068 17.1459 163.649 15.9144 165.701 17.1459C165.877 17.2632 166.112 17.3219 166.346 17.3805C169.044 17.6737 171.448 20.6645 171.39 23.7726C171.331 26.7634 168.868 29.3438 165.701 29.8129C165.349 29.8715 164.939 29.9302 164.704 29.9302Z" fill="black"/>
<path d="M193.029 12.1026C188.982 12.1026 186.343 8.81856 187.282 4.83081C187.575 3.48201 188.22 2.2505 189.217 1.3122C190.331 0.256622 191.621 -0.271169 193.205 0.139335C193.908 0.315266 194.612 0.315266 195.257 0.491196C197.603 0.960343 199.245 2.36779 199.831 4.71352C200.476 7.05926 199.597 8.93585 197.837 10.4606C196.489 11.6334 194.847 12.1026 193.029 12.1026Z" fill="black"/>
<path d="M153.855 46.6436C153.796 50.5727 150.102 53.0943 146.525 51.5696C141.599 49.5171 141.129 44.1805 143.299 40.7792C143.827 39.9582 144.589 39.4304 145.528 39.1372C146.349 38.9026 147.228 38.844 147.815 39.3718C148.753 40.2514 149.926 40.5447 150.923 41.1897C152.741 42.3626 153.855 44.4151 153.855 46.6436Z" fill="black"/>
<path d="M162.065 107.046C157.784 107.046 154.617 103.645 154.852 99.7159C155.028 96.9596 156.787 95.6108 159.485 96.2559C159.895 96.3732 160.306 96.3145 160.716 96.3732C161.479 96.4318 162.3 96.4318 163.062 96.5491C165.76 97.0183 167.695 99.1881 167.695 101.768C167.695 104.173 165.76 106.401 163.179 106.988C162.769 106.988 162.3 106.988 162.065 107.046Z" fill="black"/>
<path d="M151.333 73.1503C151.333 75.2615 150.688 77.0208 149.281 78.4282C147.346 80.3635 144.531 80.5394 142.419 78.7801C139.781 76.6689 139.194 72.2707 141.188 69.6317C142.654 67.6965 144.765 67.3446 146.994 67.8138C149.281 68.2829 150.63 69.8077 151.157 72.0948C151.275 72.5053 151.333 72.9158 151.333 73.1503Z" fill="black"/>
<path d="M213.73 116.077C213.73 113.028 216.018 110.799 219.243 110.799C222.996 110.799 225.694 113.262 225.694 116.722C225.694 119.772 223.055 122.235 219.829 122.294C216.369 122.294 213.73 119.596 213.73 116.077Z" fill="black"/>
<path d="M188.747 121.238C185.053 121.238 181.475 117.661 181.534 113.966C181.534 111.386 183.528 109.978 185.991 110.741C186.577 110.917 187.281 110.917 187.926 110.917C190.624 110.799 192.618 112.031 193.497 114.318C194.846 117.778 192.5 121.297 188.747 121.238Z" fill="black"/>
<path d="M258.827 104.818C258.827 107.398 256.657 109.685 253.96 109.978C251.614 110.213 249.151 108.806 248.271 106.636C247.685 105.228 247.744 103.88 248.623 102.648C248.682 102.531 248.799 102.413 248.858 102.296C250.852 99.5399 253.843 99.0121 256.716 100.889C258.065 101.827 258.827 103.234 258.827 104.818Z" fill="black"/>
<path d="M213.143 7.93898C213.143 6.70746 213.436 5.71053 214.081 4.77223C215.254 3.01293 217.13 2.54378 219.007 3.54072C219.769 3.95122 220.473 4.36173 221.177 4.88952C222.701 6.12103 223.347 7.7044 222.877 9.63964C222.408 11.6335 221.059 12.865 219.007 13.2755C217.072 13.6274 215.488 12.9237 214.315 11.3989C213.494 10.3434 213.143 9.17049 213.143 7.93898Z" fill="black"/>
<path d="M270.673 73.9714C273.782 73.9128 276.186 76.4931 276.127 79.2494C276.069 80.8914 275.482 82.2402 274.251 83.3544C271.67 85.7001 267.741 84.4686 266.979 81.0673C266.803 80.3049 266.744 79.4253 266.979 78.7216C267.331 77.5487 267.917 76.3758 268.504 75.2616C269.09 74.3233 270.087 73.9714 270.673 73.9714Z" fill="black"/>
<path d="M225.635 46.6435C225.635 46.4676 225.576 46.233 225.576 45.9985C225.459 44.0632 226.514 42.7731 228.332 42.3626C230.854 41.8348 233.669 43.5354 234.197 45.9398C234.783 48.4615 233.141 50.9245 230.561 51.5696C227.922 52.2147 225.048 50.2208 225.517 47.23C225.576 47.054 225.576 46.8781 225.635 46.6435Z" fill="black"/>
<path d="M178.66 36.2636C178.719 34.4457 179.188 33.0383 180.361 31.9827C182.355 30.1647 185.111 30.8098 185.991 32.9796C186.225 33.5074 186.518 33.9766 186.812 34.4457C187.633 36.0291 187.691 37.6124 186.636 39.0785C185.639 40.486 184.231 41.131 182.472 40.8378C180.595 40.5446 179.481 39.3717 178.895 37.6711C178.777 37.0847 178.719 36.5569 178.66 36.2636Z" fill="black"/>
<path d="M201.122 87.9286C202.705 88.6323 204.758 89.1015 205.872 91.0367C206.752 92.6201 206.4 94.5553 205.051 95.9627C203.644 97.3702 201.591 97.722 199.89 96.901C197.427 95.6695 196.372 92.2682 197.721 89.8638C198.366 88.6323 199.48 87.9286 201.122 87.9286Z" fill="black"/>
<path d="M226.573 92.8546C224.051 92.8546 221.999 90.7434 222.116 88.2217C222.175 87.2248 222.468 86.1692 222.937 85.2896C223.641 83.8821 224.99 83.3543 226.456 83.6475C227.453 83.8235 228.45 84.234 229.271 84.8204C231.03 85.9933 231.675 87.9285 231.089 89.6878C230.502 91.5644 228.567 92.8546 226.573 92.8546Z" fill="black"/>
<path d="M168.281 54.4432C168.281 53.153 168.633 52.0388 169.571 51.1591C171.037 49.8103 173.149 49.9276 174.38 51.4523C174.791 51.9801 175.201 52.4493 175.67 52.9184C176.374 53.6221 176.902 54.4431 177.136 55.4401C177.723 58.1963 175.436 60.5421 172.68 60.0143C170.275 59.6038 168.34 57.1407 168.281 54.4432Z" fill="black"/>
<path d="M242.347 24.4763C240.647 24.4763 239.18 23.4207 238.77 21.7201C238.594 20.9577 238.301 20.254 237.773 19.6089C236.542 18.1428 237.011 16.0903 238.711 15.2107C239.063 15.0347 239.474 14.8588 239.884 14.8002C242.64 14.4483 245.924 16.97 246.218 19.7262C246.511 22.2479 244.693 24.4763 242.347 24.4763Z" fill="black"/>
<path d="M203.114 29.8129C203.114 31.2203 202.88 32.2759 202.176 33.2728C200.71 35.384 197.837 35.5599 196.136 33.566C194.728 31.9827 194.611 29.7542 195.725 27.9949C195.96 27.5844 196.194 27.1739 196.37 26.7634C197.309 24.4177 199.948 23.8899 201.648 25.7665C202.821 26.998 203.114 28.4641 203.114 29.8129Z" fill="black"/>
<path d="M260.469 36.7328C260.469 38.9613 258.827 40.7206 256.658 40.8965C254.312 41.0724 252.259 39.3718 252.025 36.9674C251.907 36.0877 251.966 35.2081 252.025 34.3284C252.201 32.8037 253.432 31.7481 255.016 31.6308C257.655 31.3963 260.528 34.0939 260.469 36.7328Z" fill="black"/>
<path d="M272.902 53.974C272.902 56.2024 271.142 58.1963 268.855 58.4309C266.744 58.6654 264.692 57.258 264.281 55.1468C263.988 53.7394 264.34 52.3319 264.926 51.1004C265.161 50.5726 265.806 50.1035 266.334 49.8103C269.09 48.4615 272.902 50.8659 272.902 53.974Z" fill="black"/>
<path d="M245.574 68.7521C245.574 70.6873 244.343 72.3294 242.466 72.7399C240.707 73.1504 238.947 72.2121 238.126 70.4528C237.892 69.9836 237.599 69.4558 237.247 69.0453C236.015 67.3447 236.602 65.1162 238.537 64.2366C241.586 62.8878 245.574 65.4681 245.574 68.7521Z" fill="black"/>
<path d="M217.248 34.0939C217.248 34.2698 217.248 34.5044 217.19 34.7976C216.897 36.7915 215.489 38.1989 213.671 38.1989C211.912 38.1989 210.446 36.9088 210.094 35.0322C209.918 33.9766 209.683 32.921 209.507 31.8654C209.273 30.6339 209.566 29.5197 210.622 28.7573C211.736 27.9363 212.909 27.995 214.082 28.64C215.665 29.461 217.248 32.1 217.248 34.0939Z" fill="black"/>
<path d="M185.522 79.7771C185.405 81.3019 184.643 82.592 183.059 83.2957C181.476 83.9995 179.951 83.7649 178.603 82.592C177.019 81.2432 176.491 78.7216 177.371 76.7863C178.251 74.8511 180.42 74.0887 182.356 75.0857C184.35 76.0826 185.522 77.7833 185.522 79.7771Z" fill="black"/>
<path d="M199.246 54.9709C199.187 55.8505 199.187 56.437 199.129 56.9647C198.894 58.3722 198.073 59.3105 196.666 59.721C195.317 60.0728 194.144 59.6623 193.264 58.6654C191.622 56.9061 191.798 53.8566 193.44 52.2146C194.554 51.159 196.138 50.8658 197.487 51.5109C198.777 52.0973 199.363 53.3289 199.305 54.8536C199.246 55.0295 199.246 55.1468 199.246 54.9709Z" fill="black"/>
<path d="M214.023 76.3758C214.023 77.9005 212.909 79.1907 211.325 79.5425C209.801 79.8944 208.452 79.4839 207.338 78.311C206.282 77.1382 205.93 75.7894 206.341 74.2646C206.693 72.9745 207.572 72.1535 208.862 71.8603C210.094 71.567 211.15 71.9775 212.029 72.9158C212.381 73.3263 212.792 73.7368 213.143 74.1473C213.788 74.7924 214.082 75.4961 214.023 76.3758Z" fill="black"/>
<path d="M199.07 70.2769C199.011 72.1535 198.425 73.2677 197.134 73.9128C195.844 74.5579 194.554 74.3819 193.44 73.5023C191.739 72.2121 191.329 69.5732 192.443 67.7552C193.792 65.5854 196.724 65.5854 198.014 67.8139C198.542 68.6349 198.835 69.6905 199.07 70.2769Z" fill="black"/>
<path d="M220.357 59.2519C220.357 61.0112 219.36 62.4773 217.835 62.8878C216.31 63.2983 214.668 62.5945 213.847 61.0698C213.319 60.1315 213.085 59.0759 213.319 57.9617C213.613 56.5543 214.434 55.616 215.841 55.2641C217.19 54.9123 218.304 55.3814 219.242 56.3783C220.005 57.1407 220.298 58.1963 220.357 59.2519Z" fill="black"/>
<path d="M211.267 52.3907C209.332 52.3907 207.572 50.5728 207.572 48.5789C207.572 46.8196 208.921 45.4708 210.68 45.5294C212.967 45.5294 214.727 47.0542 214.727 48.9307C214.727 50.7487 213.143 52.3907 211.267 52.3907Z" fill="black"/>
<path d="M143.2 184.511C143.8 187.111 144.4 189.211 144.9 191.411C145 191.911 145.2 192.511 145.3 193.011C145.5 193.911 145.3 194.811 144.4 195.311C143.5 195.811 142.7 195.411 142.1 194.711C140.3 192.611 138.5 190.411 136.7 188.311C136.3 187.811 135.9 187.411 135.2 186.711C134.6 188.811 134 190.611 133.4 192.411C132.9 193.911 132.5 195.511 131.8 196.911C131.6 197.511 130.8 198.111 130.3 198.211C129.3 198.311 129 197.411 128.9 196.611C128.7 194.411 128.6 192.111 128.4 189.911C128.3 188.511 128.2 187.111 128 185.311C127 185.711 126.3 185.911 125.6 186.211C123.5 187.011 121.4 187.911 119.4 188.711C118.7 189.011 118 189.211 117.3 189.311C116.2 189.511 115 189.511 114.3 188.411C113.7 187.511 114 186.311 115.2 185.211C117.2 183.411 119.2 181.811 121.3 180.111C121.9 179.611 122.5 179.111 123.2 178.511C121.1 177.511 119 176.511 117.1 175.511C115.1 174.511 114.5 173.511 114.9 172.311C115.3 171.111 116.4 170.511 118.5 170.711C120.8 170.911 123.1 171.211 125.4 171.411C126.4 171.511 127.4 171.411 128.7 171.411C128.5 169.911 128.5 168.711 128.3 167.511C127.9 165.511 127.4 163.611 127 161.611C126.9 160.911 126.8 160.211 126.8 159.511C126.9 158.511 127.3 157.611 128.4 157.311C129.4 157.011 130.2 157.411 130.7 158.211C132.2 160.111 133.4 162.011 134.7 163.811C135.2 164.611 135.7 165.411 136.7 166.111C137.1 163.911 137.4 161.811 137.8 159.611C138 158.711 138.1 157.711 138.4 156.811C138.8 155.511 139.6 154.911 140.6 155.011C141.7 155.211 142.2 156.011 142.4 157.011C142.7 159.511 142.9 161.911 143.1 164.411C143.2 165.011 143.2 165.711 143.2 166.611C144 166.311 144.6 166.011 145.2 165.711C146.7 164.911 148.2 164.111 149.7 163.411C151.5 162.511 152.5 162.511 153.2 163.511C153.8 164.411 153.6 165.411 152.3 166.911C151.1 168.311 149.9 169.711 148.7 171.111C147.8 172.111 147 173.211 146 174.411C146.4 174.911 146.8 175.411 147.3 175.811C149.5 178.211 151.8 180.611 154 183.011C154.7 183.811 155.1 184.611 154.5 185.611C153.9 186.611 153 186.611 152 186.411C149.2 185.811 146.4 185.211 143.2 184.511Z" fill="black"/>
<path d="M16.3787 21.8538C16.4022 23.7154 16.5436 25.5769 16.85 27.4149C16.8735 27.4856 16.8735 27.5563 16.8971 27.627C17.1327 28.8995 17.7925 29.8185 18.9236 30.4547C19.6777 30.8789 20.4553 31.2559 21.3271 31.3973C22.6467 31.6329 23.9899 31.8921 25.3095 32.1513C25.6865 32.222 25.9457 32.4577 25.9928 32.7876C26.04 33.0939 25.8514 33.4002 25.5216 33.5652C25.333 33.6359 25.121 33.683 24.9324 33.7537C23.8249 34.0365 22.7174 34.3664 21.6806 34.8848C20.0075 35.7095 18.7822 36.982 18.0753 38.7022C17.2505 40.6815 16.685 42.7316 16.4022 44.8524C16.3315 45.4651 16.2373 46.0777 16.1666 46.6904C16.1195 47.091 15.9074 47.3266 15.5775 47.3502C15.2476 47.3973 14.9884 47.2324 14.8234 46.8789C14.7528 46.714 14.7056 46.549 14.6585 46.3841C14.1401 44.6639 13.4096 43.038 12.4906 41.4827C12.2785 41.1528 12.0664 40.7994 11.8072 40.5166C10.629 39.2677 9.35657 38.1131 7.89559 37.194C6.69382 36.44 5.37423 36.0158 4.00751 35.7095C2.9 35.4739 1.79249 35.2618 0.684973 35.0497C0.260819 34.979 0.0251775 34.7434 0.00161335 34.4135C-0.0219508 34.06 0.21369 33.7773 0.637844 33.683C0.755665 33.6594 0.89705 33.6359 1.03843 33.6359C1.69823 33.7066 2.3109 33.518 2.92356 33.4238C4.17246 33.2117 5.37423 32.8347 6.576 32.4577C7.18867 32.2691 7.77777 32.0335 8.39044 31.8214C10.3698 31.1145 11.5716 29.6771 12.3256 27.792C12.5142 27.2971 12.6555 26.7787 12.8676 26.3074C13.174 25.6005 13.5039 24.8936 13.8102 24.1867C13.9987 23.7861 14.2108 23.3619 14.3286 22.9378C14.6114 21.9245 14.8706 20.9112 15.1533 19.8744C15.2005 19.7095 15.2712 19.5445 15.3419 19.356C15.4361 19.1204 15.6011 18.979 15.8603 19.0026C16.143 19.0261 16.308 19.2146 16.3551 19.4738C16.3787 19.6859 16.3787 19.8744 16.3787 20.0865C16.3787 20.6756 16.3787 21.2647 16.3787 21.8538Z" fill="black"/>
<path d="M53 161.509C52.8834 163.141 52.5338 164.715 51.951 166.172C50.2026 170.776 44.8991 171.65 41.4606 169.027C40.295 168.153 39.4208 166.871 38.6049 165.647C37.789 164.482 37.8472 163.083 38.4883 161.742C39.5374 159.528 41.0526 157.663 42.9759 156.148C44.3163 155.157 45.7733 154.749 47.4634 155.157C47.8714 155.273 48.2793 155.332 48.6873 155.332C50.4357 155.39 51.6013 156.322 52.1841 157.896C52.592 159.003 52.7669 160.285 53 161.509ZM49.3284 163.083C49.3866 160.985 48.7456 159.295 46.7641 158.187C46.2978 157.954 45.9481 157.838 45.4819 158.013C43.9083 158.595 42.6262 159.586 41.6354 160.868C39.9453 163.083 40.0036 164.656 41.8103 166.696C41.9851 166.929 42.1599 167.104 42.3931 167.279C43.6169 168.212 44.9574 168.678 46.5309 168.095C48.1628 167.512 48.9204 166.405 49.0952 164.773C49.2118 164.248 49.2701 163.666 49.3284 163.083Z" fill="black"/>
</svg>
