<svg width="164" height="40" viewBox="0 0 164 40" fill="none" xmlns="http://www.w3.org/2000/svg">
<path d="M41.6016 7.24353H45.4964V28.5011H51.9051V32.0442H41.6016V7.24353Z" fill="#726BEA"/>
<path d="M59.2645 32.3985C57.3526 32.3985 55.8891 31.8552 54.874 30.7687C53.8591 29.6822 53.3516 28.1469 53.3516 26.1628V13.1249C53.3516 11.1408 53.8591 9.60554 54.874 8.51904C55.8891 7.43253 57.3526 6.88928 59.2645 6.88928C61.1765 6.88928 62.64 7.43253 63.6551 8.51904C64.67 9.60554 65.1775 11.1408 65.1775 13.1249V26.1628C65.1775 28.1469 64.67 29.6822 63.6551 30.7687C62.64 31.8552 61.1765 32.3985 59.2645 32.3985ZM59.2645 28.8555C60.61 28.8555 61.2828 28.0406 61.2828 26.4108V12.8769C61.2828 11.2471 60.61 10.4322 59.2645 10.4322C57.919 10.4322 57.2463 11.2471 57.2463 12.8769V26.4108C57.2463 28.0406 57.919 28.8555 59.2645 28.8555Z" fill="#726BEA"/>
<path d="M73.3346 32.3985C71.4463 32.3985 70.0064 31.867 69.0149 30.8041C68.0235 29.7177 67.5278 28.1706 67.5278 26.1628V13.1249C67.5278 11.1172 68.0235 9.58192 69.0149 8.51904C70.0064 7.43253 71.4463 6.88928 73.3346 6.88928C75.223 6.88928 76.6629 7.43253 77.6543 8.51904C78.6458 9.58192 79.1414 11.1172 79.1414 13.1249V15.2506H75.4591V12.8769C75.4591 11.2471 74.7863 10.4322 73.4408 10.4322C72.0954 10.4322 71.4227 11.2471 71.4227 12.8769V26.4464C71.4227 28.0525 72.0954 28.8555 73.4408 28.8555C74.7863 28.8555 75.4591 28.0525 75.4591 26.4464V21.5925H73.5117V18.0496H79.1414V26.1628C79.1414 28.1706 78.6458 29.7177 77.6543 30.8041C76.6629 31.867 75.223 32.3985 73.3346 32.3985Z" fill="#726BEA"/>
<path d="M87.2714 32.3985C85.3594 32.3985 83.8959 31.8552 82.881 30.7687C81.8659 29.6822 81.3584 28.1469 81.3584 26.1628V13.1249C81.3584 11.1408 81.8659 9.60554 82.881 8.51904C83.8959 7.43253 85.3594 6.88928 87.2714 6.88928C89.1835 6.88928 90.6469 7.43253 91.6619 8.51904C92.677 9.60554 93.1845 11.1408 93.1845 13.1249V26.1628C93.1845 28.1469 92.677 29.6822 91.6619 30.7687C90.6469 31.8552 89.1835 32.3985 87.2714 32.3985ZM87.2714 28.8555C88.6169 28.8555 89.2896 28.0406 89.2896 26.4108V12.8769C89.2896 11.2471 88.6169 10.4322 87.2714 10.4322C85.926 10.4322 85.2532 11.2471 85.2532 12.8769V26.4108C85.2532 28.0406 85.926 28.8555 87.2714 28.8555Z" fill="#726BEA"/>
<path d="M95.8262 7.24353H99.721V32.0442H95.8262V7.24353Z" fill="#4F46E5"/>
<path d="M102.638 7.24353H108.374C110.309 7.24353 111.761 7.76316 112.729 8.80243C113.697 9.84169 114.181 11.3652 114.181 13.3728V15.8174C114.181 17.8251 113.697 19.3486 112.729 20.3879C111.761 21.4271 110.309 21.9467 108.374 21.9467H106.533V32.0442H102.638V7.24353ZM108.374 18.4038C109.011 18.4038 109.483 18.2266 109.79 17.8724C110.121 17.518 110.286 16.9158 110.286 16.0654V13.1248C110.286 12.2745 110.121 11.6722 109.79 11.3179C109.483 10.9636 109.011 10.7865 108.374 10.7865H106.533V18.4038H108.374Z" fill="#4F46E5"/>
<path d="M121.497 32.3985C119.61 32.3985 118.181 31.867 117.213 30.8041C116.246 29.7177 115.761 28.1706 115.761 26.1628V24.7457H119.444V26.4464C119.444 28.0525 120.117 28.8555 121.462 28.8555C122.123 28.8555 122.618 28.6666 122.949 28.2887C123.303 27.8871 123.48 27.2494 123.48 26.3754C123.48 25.3362 123.244 24.4268 122.772 23.6474C122.301 22.8443 121.427 21.8877 120.152 20.7776C118.547 19.3604 117.426 18.085 116.788 16.9512C116.151 15.7939 115.832 14.4948 115.832 13.054C115.832 11.0936 116.328 9.58192 117.319 8.51904C118.311 7.43253 119.751 6.88928 121.64 6.88928C123.504 6.88928 124.909 7.43253 125.852 8.51904C126.821 9.58192 127.304 11.1172 127.304 13.1249V14.1523H123.622V12.8769C123.622 12.0266 123.457 11.4124 123.126 11.0345C122.796 10.633 122.312 10.4322 121.675 10.4322C120.376 10.4322 119.728 11.2235 119.728 12.806C119.728 13.7035 119.963 14.542 120.435 15.3215C120.931 16.1009 121.816 17.0457 123.091 18.1558C124.72 19.573 125.841 20.8603 126.455 22.0177C127.068 23.175 127.375 24.5331 127.375 26.092C127.375 28.1233 126.867 29.6822 125.852 30.7687C124.861 31.8552 123.409 32.3985 121.497 32.3985Z" fill="#4F46E5"/>
<path d="M135.274 32.3984C133.385 32.3984 131.945 31.867 130.954 30.8041C129.962 29.7176 129.467 28.1705 129.467 26.1628V7.24353H133.362V26.4463C133.362 27.2966 133.527 27.9107 133.857 28.2887C134.211 28.6665 134.707 28.8555 135.344 28.8555C135.982 28.8555 136.465 28.6665 136.796 28.2887C137.15 27.9107 137.327 27.2966 137.327 26.4463V7.24353H141.08V26.1628C141.08 28.1705 140.585 29.7176 139.593 30.8041C138.602 31.867 137.161 32.3984 135.274 32.3984Z" fill="#4F46E5"/>
<path d="M143.854 7.24353H149.413L151.892 24.9936H151.962L154.442 7.24353H160V32.0442H156.317V13.2665H156.247L153.414 32.0442H150.156L147.324 13.2665H147.254V32.0442H143.854V7.24353Z" fill="#4F46E5"/>
<path d="M4 32.0442C8.79162 32.0442 12.6759 28.1574 12.6759 23.3628C12.6759 18.5682 8.79162 14.6814 4 14.6814V20.7583C5.43747 20.7583 6.60277 21.9244 6.60277 23.3628C6.60277 24.8012 5.43747 25.9672 4 25.9672V32.0442Z" fill="#726BEA"/>
<path d="M32.9197 17.5753C31.4371 17.1054 29.8583 16.8518 28.2202 16.8518C19.6352 16.8518 12.6758 23.8157 12.6758 32.406C12.6758 33.2682 12.7459 34.114 12.8807 34.938H22.5389C22.1942 34.1646 22.0025 33.3077 22.0025 32.406C22.0025 28.9699 24.7862 26.1843 28.2202 26.1843C30.097 26.1843 31.7796 27.0164 32.9197 28.332V17.5753Z" fill="#A5B4FC"/>
<path d="M5.52539 6C6.24469 12.511 11.7613 17.5752 18.4599 17.5752C25.1585 17.5752 30.6751 12.511 31.3944 6H22.0875C21.5129 7.44127 20.1052 8.45972 18.4599 8.45972C16.8145 8.45972 15.4069 7.44127 14.8322 6H5.52539Z" fill="#4F46E5"/>
</svg>
