<svg width="52" height="52" viewBox="0 0 52 52" fill="none" xmlns="http://www.w3.org/2000/svg">
<rect x="2" y="2" width="50" height="50" rx="15" fill="black"/>
<rect x="0.5" y="0.5" width="49" height="49" rx="14.5" fill="#DCFFDB" stroke="black"/>
<path d="M32.5 16.234C32.5 15.6415 32.7371 15.0733 33.159 14.6543C33.581 14.2354 34.1533 14 34.75 14C35.3467 14 35.919 14.2354 36.341 14.6543C36.7629 15.0733 37 15.6415 37 16.234V32.617C37 33.2095 36.7629 33.7778 36.341 34.1967C35.919 34.6157 35.3467 34.8511 34.75 34.8511C34.1533 34.8511 33.581 34.6157 33.159 34.1967C32.7371 33.7778 32.5 33.2095 32.5 32.617V32.2983C29.257 30.45 25.765 29.5534 22.132 29.196L22.7395 33.2351C22.7803 33.4503 22.7728 33.6718 22.7176 33.8837C22.6623 34.0957 22.5607 34.293 22.4199 34.4615C22.2791 34.6301 22.1026 34.7657 21.903 34.8588C21.7034 34.9518 21.4855 35.0001 21.265 35H20.443C20.1514 35 19.8662 34.9156 19.6222 34.7571C19.3781 34.5987 19.1859 34.3731 19.069 34.1079L16.294 28.91C16.193 28.9084 16.092 28.9069 15.991 28.9055C15.1965 28.8977 14.4372 28.5794 13.8774 28.0197C13.3175 27.4599 13.0023 26.7037 13 25.9149V22.9362C13.0027 22.1472 13.3174 21.3909 13.8762 20.8302C14.4351 20.2694 15.1935 19.949 15.988 19.9381C17.23 19.9214 18.4717 19.8841 19.7125 19.8264C24.277 19.597 28.9345 18.5619 32.5 16.5513V16.234ZM34 16.234V32.617C34 32.8145 34.079 33.0039 34.2197 33.1436C34.3603 33.2832 34.5511 33.3617 34.75 33.3617C34.9489 33.3617 35.1397 33.2832 35.2803 33.1436C35.421 33.0039 35.5 32.8145 35.5 32.617V16.234C35.5 16.0365 35.421 15.8471 35.2803 15.7075C35.1397 15.5678 34.9489 15.4894 34.75 15.4894C34.5511 15.4894 34.3603 15.5678 34.2197 15.7075C34.079 15.8471 34 16.0365 34 16.234ZM32.5 18.2447C28.984 20.0394 24.6865 20.9881 20.5 21.2726V27.577C20.77 27.5919 21.0385 27.6098 21.3055 27.6306C25.1575 27.9121 28.945 28.7387 32.5 30.5989V18.2447ZM19 27.5011V21.35C18.0043 21.3862 17.0082 21.412 16.012 21.4274C15.6112 21.4321 15.2282 21.5928 14.9454 21.875C14.6627 22.1571 14.5027 22.5382 14.5 22.9362V25.9149C14.5 26.734 15.172 27.4072 16.009 27.4177C17.0064 27.4291 18.0035 27.4569 19 27.5011V27.5011ZM18.0145 28.9532L20.428 33.4764L20.443 33.5121H21.265L21.262 33.4913L20.5975 29.0738C19.7371 29.0223 18.876 28.9816 18.0145 28.9517V28.9532Z" fill="black"/>
</svg>
