<svg width="60" height="60" viewBox="0 0 60 60" fill="none" xmlns="http://www.w3.org/2000/svg">
<rect x="2.30762" y="2.30774" width="57.6923" height="57.6923" rx="15" fill="black"/>
<rect x="0.5" y="0.5" width="56.6923" height="56.6923" rx="14.5" fill="#FFFB9E" stroke="black"/>
<g clip-path="url(#clip0_2663_7)">
<path d="M29.9995 25.9647C28.4114 25.9647 27.1181 27.258 27.1181 28.8461C27.1181 30.4343 28.4114 31.7276 29.9995 31.7276C31.5877 31.7276 32.881 30.4343 32.881 28.8461C32.881 27.258 31.5877 25.9647 29.9995 25.9647ZM21.9327 34.5727L21.2967 34.4152C16.5636 33.2157 13.8457 31.1864 13.8457 28.8411C13.8457 26.4957 16.5646 24.4664 21.2967 23.267L21.9327 23.1095L22.1114 23.7405C22.5916 25.3933 23.2054 27.0042 23.9469 28.5574L24.0832 28.8411L23.9469 29.1298C23.2039 30.6823 22.59 32.2934 22.1114 33.9467L21.9327 34.5727ZM21.0029 24.739C17.4056 25.7486 15.1976 27.2994 15.1976 28.8411C15.1976 30.3828 17.4066 31.9275 21.0029 32.9432C21.4437 31.5425 21.9759 30.1722 22.596 28.8411C21.975 27.5104 21.4428 26.14 21.0029 24.739V24.739ZM38.0664 34.5727L37.8877 33.9417C37.4084 32.2903 36.7945 30.6809 36.0522 29.1298L35.9159 28.8411L36.0522 28.5523C36.7952 26.9998 37.4091 25.3888 37.8877 23.7355L38.0664 23.1095L38.7024 23.267C43.4355 24.4664 46.1534 26.4957 46.1534 28.8411C46.1534 31.1864 43.4345 33.2157 38.7024 34.4152L38.0664 34.5727ZM37.4031 28.8411C38.0252 30.1713 38.5575 31.5417 38.9962 32.9432C42.5985 31.9285 44.8015 30.3828 44.8015 28.8411C44.8015 27.2994 42.5925 25.7547 38.9962 24.739C38.5543 26.1394 38.0222 27.5096 37.4031 28.8411Z" fill="black"/>
<path d="M20.9919 24.734L20.8132 24.103C19.4825 19.4123 19.8874 16.0473 21.9228 14.8741C23.9208 13.7221 27.1233 15.0841 30.4833 18.5339L30.9407 19.0024L30.4833 19.4709C29.2901 20.7123 28.1998 22.0487 27.2233 23.4669L27.0395 23.7244L26.7235 23.7506C25.0056 23.8862 23.3015 24.1607 21.628 24.5714L20.9919 24.734ZM23.5472 15.811C23.1848 15.811 22.8637 15.8847 22.5952 16.0422C21.2595 16.8156 21.0232 19.4971 21.943 23.1146C23.3781 22.7935 24.8327 22.5669 26.2974 22.4361C27.1407 21.235 28.0629 20.0913 29.0577 19.0125C26.9597 16.967 24.9718 15.81 23.5472 15.81V15.811ZM36.4572 43.217C36.4522 43.217 36.4522 43.217 36.4572 43.217C34.5379 43.217 32.0714 41.7763 29.5161 39.1473L29.0587 38.6788L29.5161 38.2103C30.7093 36.9689 31.7996 35.6325 32.7761 34.2143L32.9548 33.9568L33.2709 33.9255C34.9909 33.7945 36.6971 33.5199 38.3714 33.1047L39.0075 32.9472L39.1862 33.5782C40.5169 38.2689 40.112 41.6289 38.0766 42.8011C37.5845 43.0839 37.0247 43.2273 36.4572 43.216V43.217ZM30.9407 38.6687C33.0386 40.7142 35.0266 41.8712 36.4511 41.8712H36.4562C36.8136 41.8712 37.1347 41.7925 37.4032 41.64C38.7389 40.8666 38.9812 38.1851 38.0554 34.5676C36.6206 34.889 35.1658 35.114 33.7009 35.2411C32.8577 36.4437 31.9356 37.5891 30.9407 38.6697V38.6687ZM39.0075 24.734L38.3714 24.5714C36.6959 24.1621 34.9902 23.8876 33.2709 23.7506L32.9548 23.7244L32.7761 23.4669C31.7996 22.0487 30.7093 20.7123 29.5161 19.4709L29.0587 19.0024L29.5161 18.5339C32.8761 15.0841 36.0786 13.7221 38.0766 14.8741C40.112 16.0462 40.5169 19.4123 39.1862 24.103L39.0075 24.734ZM33.702 22.4361C35.1668 22.5665 36.6214 22.7932 38.0564 23.1146C38.9822 19.4971 38.7399 16.8146 37.4042 16.0422C36.0735 15.2749 33.5707 16.4521 30.9417 19.0135C31.9339 20.0947 32.8558 21.2382 33.702 22.4371V22.4361Z" fill="black"/>
<path d="M23.5472 43.2169C22.9788 43.227 22.4165 43.0857 21.9228 42.802C19.8874 41.6298 19.4825 38.2688 20.8132 33.5792L20.9919 32.9481L21.628 33.1056C23.1848 33.5004 24.8991 33.773 26.7235 33.9265L27.0395 33.9578L27.2182 34.2152C28.1948 35.6334 29.285 36.9698 30.4783 38.2113L30.9356 38.6797L30.4783 39.1482C27.928 41.7772 25.4615 43.218 23.5472 43.218V43.2169ZM21.944 34.5676C21.0182 38.185 21.2605 40.8676 22.5962 41.6399C23.9269 42.3971 26.4247 41.23 29.0587 38.6686C28.0638 37.5881 27.1417 36.4427 26.2984 35.24C24.8335 35.1133 23.3787 34.8883 21.944 34.5666V34.5676ZM29.9997 35.4136C28.8901 35.4136 27.7543 35.3662 26.6134 35.2713L26.2974 35.245L26.1137 34.9825C25.4693 34.0566 24.864 33.104 24.2994 32.1273C23.7337 31.1506 23.2092 30.1505 22.7274 29.1298L22.5911 28.841L22.7274 28.5523C23.6927 26.5112 24.8253 24.5536 26.1137 22.6995L26.2974 22.437L26.6134 22.4108C28.867 22.221 31.1324 22.221 33.3859 22.4108L33.702 22.437L33.8857 22.6995C35.1758 24.5526 36.3085 26.5103 37.272 28.5523L37.4083 28.841L37.272 29.1298C36.3104 31.1728 35.1776 33.1307 33.8857 34.9825L33.702 35.245L33.3859 35.2713C32.2597 35.3655 31.1299 35.413 29.9997 35.4136V35.4136ZM27.0446 33.9517C29.0325 34.1042 30.9669 34.1042 32.9599 33.9517C34.0714 32.3241 35.0592 30.6154 35.915 28.84C35.0628 27.0617 34.0731 25.3526 32.9548 23.7283C30.9877 23.5759 29.0117 23.5759 27.0446 23.7283C25.9255 25.3521 24.9357 27.0612 24.0844 28.84C24.9404 30.6163 25.93 32.3251 27.0446 33.9517V33.9517Z" fill="black"/>
</g>
<defs>
<clipPath id="clip0_2663_7">
<rect width="32.3077" height="32.3077" fill="white" transform="translate(13.8457 12.6923)"/>
</clipPath>
</defs>
</svg>
