<svg width="100" height="34" viewBox="0 0 100 34" fill="none" xmlns="http://www.w3.org/2000/svg">
<path d="M44.688 25.432C43.808 25.432 42.912 25.32 42 25.096C41.088 24.888 40.328 24.608 39.72 24.256L39.84 20.992H40.08L40.824 22.552C41.048 23 41.288 23.4 41.544 23.752C41.8 24.088 42.152 24.352 42.6 24.544C42.92 24.704 43.224 24.816 43.512 24.88C43.816 24.928 44.152 24.952 44.52 24.952C45.496 24.952 46.264 24.688 46.824 24.16C47.4 23.632 47.688 22.952 47.688 22.12C47.688 21.336 47.496 20.728 47.112 20.296C46.728 19.848 46.112 19.416 45.264 19L44.28 18.568C42.904 17.96 41.824 17.264 41.04 16.48C40.272 15.68 39.888 14.624 39.888 13.312C39.888 12.368 40.128 11.552 40.608 10.864C41.104 10.176 41.784 9.648 42.648 9.28C43.528 8.912 44.552 8.728 45.72 8.728C46.568 8.728 47.368 8.84 48.12 9.064C48.888 9.288 49.552 9.592 50.112 9.976L49.968 12.856H49.728L48.744 11.056C48.472 10.496 48.2 10.104 47.928 9.88C47.656 9.64 47.344 9.472 46.992 9.376C46.784 9.312 46.592 9.272 46.416 9.256C46.24 9.224 46.016 9.208 45.744 9.208C44.928 9.208 44.24 9.448 43.68 9.928C43.12 10.392 42.84 11.024 42.84 11.824C42.84 12.64 43.056 13.296 43.488 13.792C43.92 14.272 44.552 14.704 45.384 15.088L46.488 15.568C48.024 16.24 49.128 16.96 49.8 17.728C50.472 18.48 50.808 19.456 50.808 20.656C50.808 22.064 50.272 23.216 49.2 24.112C48.144 24.992 46.64 25.432 44.688 25.432ZM56.3213 25.36C55.2973 25.36 54.4973 25.104 53.9213 24.592C53.3613 24.08 53.0813 23.264 53.0813 22.144V13.936H51.4253V13.696L52.0013 13.6C52.4973 13.488 52.9213 13.328 53.2733 13.12C53.6413 12.912 54.0013 12.632 54.3533 12.28L56.3213 10.096H56.5613L56.4893 13.456H59.1773V13.936H56.4653V22.576C56.4653 23.136 56.5853 23.56 56.8253 23.848C57.0813 24.136 57.4013 24.28 57.7853 24.28C58.1213 24.28 58.4173 24.2 58.6733 24.04C58.9293 23.864 59.1853 23.632 59.4413 23.344L59.6813 23.584C59.3613 24.128 58.9213 24.56 58.3613 24.88C57.8013 25.2 57.1213 25.36 56.3213 25.36ZM63.9371 25.36C63.0091 25.36 62.2251 25.096 61.5851 24.568C60.9611 24.04 60.6491 23.28 60.6491 22.288C60.6491 21.536 61.0331 20.848 61.8011 20.224C62.5691 19.584 63.7771 19.104 65.4251 18.784C65.6811 18.736 65.9691 18.688 66.2891 18.64C66.6091 18.576 66.9451 18.512 67.2971 18.448V16.552C67.2971 15.464 67.1611 14.704 66.8891 14.272C66.6331 13.824 66.2251 13.6 65.6651 13.6C65.2811 13.6 64.9771 13.728 64.7531 13.984C64.5291 14.224 64.3851 14.648 64.3211 15.256L64.2731 15.52C64.2411 16.208 64.0731 16.712 63.7691 17.032C63.4651 17.352 63.0891 17.512 62.6411 17.512C62.2251 17.512 61.8811 17.384 61.6091 17.128C61.3371 16.872 61.2011 16.528 61.2011 16.096C61.2011 15.44 61.4251 14.888 61.8731 14.44C62.3371 13.992 62.9451 13.656 63.6971 13.432C64.4491 13.208 65.2651 13.096 66.1451 13.096C67.5691 13.096 68.6651 13.448 69.4331 14.152C70.2171 14.84 70.6091 15.968 70.6091 17.536V22.84C70.6091 23.56 70.9451 23.92 71.6171 23.92H72.1451L72.3611 24.112C72.0571 24.496 71.7211 24.792 71.3531 25C71.0011 25.208 70.4971 25.312 69.8411 25.312C69.1371 25.312 68.5771 25.152 68.1611 24.832C67.7611 24.496 67.4971 24.056 67.3691 23.512C66.8891 24.024 66.3931 24.464 65.8811 24.832C65.3851 25.184 64.7371 25.36 63.9371 25.36ZM65.4011 23.896C65.7211 23.896 66.0171 23.824 66.2891 23.68C66.5771 23.52 66.9131 23.28 67.2971 22.96V18.928C67.1371 18.96 66.9771 18.992 66.8171 19.024C66.6571 19.056 66.4731 19.088 66.2651 19.12C65.5291 19.312 64.9371 19.64 64.4891 20.104C64.0571 20.552 63.8411 21.16 63.8411 21.928C63.8411 22.584 63.9931 23.08 64.2971 23.416C64.6011 23.736 64.9691 23.896 65.4011 23.896ZM78.807 25.36C77.719 25.36 76.727 25.128 75.831 24.664C74.951 24.184 74.247 23.496 73.719 22.6C73.207 21.688 72.951 20.576 72.951 19.264C72.951 17.968 73.231 16.864 73.791 15.952C74.367 15.024 75.127 14.32 76.071 13.84C77.031 13.344 78.079 13.096 79.215 13.096C80.143 13.096 80.927 13.248 81.567 13.552C82.207 13.856 82.695 14.256 83.031 14.752C83.367 15.232 83.535 15.736 83.535 16.264C83.535 16.712 83.399 17.064 83.127 17.32C82.855 17.56 82.503 17.68 82.071 17.68C81.607 17.68 81.231 17.512 80.943 17.176C80.655 16.84 80.487 16.4 80.439 15.856C80.423 15.504 80.431 15.208 80.463 14.968C80.495 14.712 80.495 14.456 80.463 14.2C80.399 13.928 80.295 13.752 80.151 13.672C80.023 13.576 79.839 13.528 79.599 13.528C78.623 13.528 77.863 13.952 77.319 14.8C76.791 15.648 76.527 17 76.527 18.856C76.527 20.472 76.823 21.712 77.415 22.576C78.023 23.424 78.951 23.848 80.199 23.848C80.951 23.848 81.559 23.712 82.023 23.44C82.487 23.168 82.935 22.76 83.367 22.216L83.607 22.408C83.207 23.352 82.591 24.08 81.759 24.592C80.927 25.104 79.943 25.36 78.807 25.36ZM89.1338 25.36C88.1098 25.36 87.3098 25.104 86.7338 24.592C86.1738 24.08 85.8938 23.264 85.8938 22.144V13.936H84.2378V13.696L84.8138 13.6C85.3098 13.488 85.7338 13.328 86.0858 13.12C86.4538 12.912 86.8138 12.632 87.1658 12.28L89.1338 10.096H89.3738L89.3018 13.456H91.9898V13.936H89.2778V22.576C89.2778 23.136 89.3978 23.56 89.6378 23.848C89.8938 24.136 90.2138 24.28 90.5978 24.28C90.9338 24.28 91.2298 24.2 91.4858 24.04C91.7418 23.864 91.9978 23.632 92.2538 23.344L92.4938 23.584C92.1738 24.128 91.7338 24.56 91.1738 24.88C90.6138 25.2 89.9338 25.36 89.1338 25.36ZM96.3656 25.36C95.7896 25.36 95.3016 25.16 94.9016 24.76C94.5016 24.36 94.3016 23.88 94.3016 23.32C94.3016 22.76 94.5016 22.272 94.9016 21.856C95.3016 21.44 95.7896 21.232 96.3656 21.232C96.9416 21.232 97.4296 21.44 97.8296 21.856C98.2296 22.272 98.4296 22.76 98.4296 23.32C98.4296 23.88 98.2296 24.36 97.8296 24.76C97.4296 25.16 96.9416 25.36 96.3656 25.36Z" fill="black"/>
<path d="M34 18C34 26.8366 26.8366 34 18 34C9.16344 34 2 26.8366 2 18C2 9.16344 9.16344 2 18 2C26.8366 2 34 9.16344 34 18Z" fill="black"/>
<path d="M31.5 16C31.5 24.5604 24.5604 31.5 16 31.5C7.43959 31.5 0.5 24.5604 0.5 16C0.5 7.43959 7.43959 0.5 16 0.5C24.5604 0.5 31.5 7.43959 31.5 16Z" fill="#0FA958" stroke="black"/>
<path d="M17.5934 13.5818L24.1934 4.50684L9.34336 13.5818L14.2934 18.5318L7.69336 27.6068L22.5434 18.5318L17.5934 13.5818Z" fill="black"/>
<path d="M17.2354 14.1181L22.3996 6.97168L10.7711 14.1181L14.6496 17.9967L9.48535 25.1431L21.1139 17.9967L17.2354 14.1181Z" fill="white"/>
</svg>
