<svg width="52" height="52" viewBox="0 0 52 52" fill="none" xmlns="http://www.w3.org/2000/svg">
<rect x="2.5" y="2.5" width="49" height="49" rx="14.5" fill="black" stroke="black"/>
<rect x="0.5" y="0.5" width="49" height="49" rx="14.5" fill="#FFFB9E" stroke="black"/>
<path d="M36.5749 18.7233C36.4565 18.4383 36.23 18.2117 35.9449 18.0933C35.8046 18.0336 35.654 18.0018 35.5016 18H29.6682C29.3588 18 29.0621 18.1229 28.8433 18.3417C28.6245 18.5605 28.5016 18.8572 28.5016 19.1667C28.5016 19.4761 28.6245 19.7728 28.8433 19.9916C29.0621 20.2104 29.3588 20.3333 29.6682 20.3333H32.6899L26.1682 26.855L22.3299 23.005C22.2214 22.8956 22.0924 22.8089 21.9502 22.7496C21.8081 22.6904 21.6556 22.6599 21.5016 22.6599C21.3475 22.6599 21.1951 22.6904 21.0529 22.7496C20.9107 22.8089 20.7817 22.8956 20.6732 23.005L13.6732 30.005C13.5639 30.1135 13.4771 30.2425 13.4178 30.3847C13.3586 30.5268 13.3281 30.6793 13.3281 30.8333C13.3281 30.9873 13.3586 31.1398 13.4178 31.282C13.4771 31.4242 13.5639 31.5532 13.6732 31.6617C13.7817 31.771 13.9107 31.8578 14.0529 31.917C14.1951 31.9763 14.3475 32.0068 14.5016 32.0068C14.6556 32.0068 14.8081 31.9763 14.9502 31.917C15.0924 31.8578 15.2214 31.771 15.3299 31.6617L21.5016 25.4783L25.3399 29.3283C25.4483 29.4377 25.5774 29.5245 25.7196 29.5837C25.8617 29.6429 26.0142 29.6734 26.1682 29.6734C26.3222 29.6734 26.4747 29.6429 26.6169 29.5837C26.7591 29.5245 26.8881 29.4377 26.9966 29.3283L34.3349 21.9783V25C34.3349 25.3094 34.4578 25.6062 34.6766 25.825C34.8954 26.0437 35.1921 26.1667 35.5016 26.1667C35.811 26.1667 36.1077 26.0437 36.3265 25.825C36.5453 25.6062 36.6682 25.3094 36.6682 25V19.1667C36.6664 19.0142 36.6347 18.8636 36.5749 18.7233Z" fill="black"/>
</svg>
