<svg width="52" height="52" viewBox="0 0 52 52" fill="none" xmlns="http://www.w3.org/2000/svg">
<rect x="2.5" y="2.5" width="49" height="49" rx="14.5" fill="black" stroke="black"/>
<rect x="0.5" y="0.5" width="49" height="49" rx="14.5" fill="#FBE8DE" stroke="black"/>
<path d="M37.25 35.5C37.25 35.5 39 35.5 39 33.75C39 32 37.25 26.75 30.25 26.75C23.25 26.75 21.5 32 21.5 33.75C21.5 35.5 23.25 35.5 23.25 35.5H37.25ZM23.2885 33.75C23.2756 33.7482 23.2627 33.7459 23.25 33.743C23.2517 33.281 23.5423 31.9405 24.58 30.733C25.546 29.6007 27.2435 28.5 30.25 28.5C33.2547 28.5 34.9522 29.6025 35.92 30.733C36.9578 31.9405 37.2465 33.2828 37.25 33.743L37.236 33.7465C37.2279 33.7479 37.2197 33.749 37.2115 33.75H23.2885ZM30.25 23.25C31.1783 23.25 32.0685 22.8813 32.7249 22.2249C33.3813 21.5685 33.75 20.6783 33.75 19.75C33.75 18.8217 33.3813 17.9315 32.7249 17.2751C32.0685 16.6187 31.1783 16.25 30.25 16.25C29.3217 16.25 28.4315 16.6187 27.7751 17.2751C27.1187 17.9315 26.75 18.8217 26.75 19.75C26.75 20.6783 27.1187 21.5685 27.7751 22.2249C28.4315 22.8813 29.3217 23.25 30.25 23.25ZM35.5 19.75C35.5 20.4394 35.3642 21.1221 35.1004 21.7591C34.8365 22.396 34.4498 22.9748 33.9623 23.4623C33.4748 23.9498 32.896 24.3365 32.2591 24.6004C31.6221 24.8642 30.9394 25 30.25 25C29.5606 25 28.8779 24.8642 28.2409 24.6004C27.604 24.3365 27.0252 23.9498 26.5377 23.4623C26.0502 22.9748 25.6635 22.396 25.3996 21.7591C25.1358 21.1221 25 20.4394 25 19.75C25 18.3576 25.5531 17.0223 26.5377 16.0377C27.5223 15.0531 28.8576 14.5 30.25 14.5C31.6424 14.5 32.9777 15.0531 33.9623 16.0377C34.9469 17.0223 35.5 18.3576 35.5 19.75ZM23.138 27.24C22.438 27.0196 21.7164 26.8747 20.9855 26.8077C20.5748 26.7687 20.1625 26.7494 19.75 26.75C12.75 26.75 11 32 11 33.75C11 34.9172 11.5828 35.5 12.75 35.5H20.128C19.8686 34.9537 19.7392 34.3547 19.75 33.75C19.75 31.9825 20.4097 30.1765 21.6575 28.668C22.0828 28.1535 22.578 27.6722 23.138 27.24ZM19.61 28.5C18.5743 30.0562 18.0148 31.8807 18 33.75H12.75C12.75 33.295 13.037 31.9475 14.08 30.733C15.0338 29.62 16.691 28.535 19.61 28.5018V28.5ZM13.625 20.625C13.625 19.2326 14.1781 17.8973 15.1627 16.9127C16.1473 15.9281 17.4826 15.375 18.875 15.375C20.2674 15.375 21.6027 15.9281 22.5873 16.9127C23.5719 17.8973 24.125 19.2326 24.125 20.625C24.125 22.0174 23.5719 23.3527 22.5873 24.3373C21.6027 25.3219 20.2674 25.875 18.875 25.875C17.4826 25.875 16.1473 25.3219 15.1627 24.3373C14.1781 23.3527 13.625 22.0174 13.625 20.625ZM18.875 17.125C17.9467 17.125 17.0565 17.4937 16.4001 18.1501C15.7437 18.8065 15.375 19.6967 15.375 20.625C15.375 21.5533 15.7437 22.4435 16.4001 23.0999C17.0565 23.7563 17.9467 24.125 18.875 24.125C19.8033 24.125 20.6935 23.7563 21.3499 23.0999C22.0063 22.4435 22.375 21.5533 22.375 20.625C22.375 19.6967 22.0063 18.8065 21.3499 18.1501C20.6935 17.4937 19.8033 17.125 18.875 17.125Z" fill="black"/>
</svg>
