<svg width="164" height="40" viewBox="0 0 164 40" fill="none" xmlns="http://www.w3.org/2000/svg">
<path d="M35.7674 18.4175C35.3993 18.7895 35.1173 19.2385 34.9417 19.7324C34.7661 20.2263 34.7011 20.753 34.7513 21.2751L34.7338 21.2575C34.7855 21.8721 34.7029 22.4904 34.492 23.0696C34.2811 23.6488 33.947 24.1747 33.5128 24.6108C33.0786 25.0468 32.5549 25.3825 31.9782 25.5942C31.4015 25.806 30.7857 25.889 30.1739 25.837L30.1914 25.8546C29.4595 25.7862 28.7245 25.9461 28.0863 26.3127C27.4483 26.6792 26.9383 27.2344 26.626 27.9027C26.3137 28.571 26.2141 29.3197 26.341 30.0469C26.4679 30.774 26.815 31.4442 27.335 31.9659C27.855 32.4877 28.5226 32.8357 29.2467 32.9624C29.9709 33.0892 30.7163 32.9886 31.3814 32.6743C32.0466 32.36 32.5989 31.8474 32.9633 31.2062C33.3277 30.5651 33.4863 29.8267 33.4175 29.0917L33.436 29.1092C33.3843 28.4948 33.4668 27.8764 33.6777 27.2971C33.8886 26.718 34.2228 26.1921 34.657 25.756C35.0912 25.32 35.6149 24.9843 36.1915 24.7726C36.7683 24.5608 37.384 24.4778 37.9959 24.5297L37.9774 24.5122C38.5752 24.5661 39.177 24.4677 39.727 24.2259C40.2768 23.9842 40.7571 23.6069 41.1231 23.1291C41.4891 22.6514 41.7293 22.0885 41.821 21.4928C41.9128 20.897 41.8533 20.2876 41.6482 19.721C41.443 19.1544 41.0987 18.649 40.6473 18.2517C40.1959 17.8543 39.6519 17.5778 39.0657 17.4479C38.4796 17.3179 37.8702 17.3386 37.2941 17.5081C36.7181 17.6776 36.194 17.9904 35.7703 18.4175H35.7674Z" fill="white"/>
<path d="M28.6011 23.5542L28.5826 23.5366C29.1027 23.5892 29.6278 23.5251 30.1202 23.3489C30.6125 23.1727 31.0598 22.8889 31.4295 22.5179C31.7991 22.1469 32.0822 21.6979 32.258 21.2036C32.4338 20.7092 32.498 20.1819 32.446 19.6596L32.4645 19.6771C32.4128 19.0626 32.4954 18.4443 32.7062 17.865C32.9171 17.2859 33.2513 16.76 33.6855 16.3239C34.1197 15.8879 34.6434 15.5522 35.22 15.3404C35.7968 15.1286 36.4125 15.0457 37.0244 15.0976L37.0059 15.0801C37.7379 15.1491 38.4732 14.9897 39.1116 14.6236C39.7501 14.2575 40.2605 13.7025 40.5733 13.0343C40.8861 12.3661 40.986 11.6173 40.8596 10.89C40.7331 10.1627 40.3863 9.49226 39.8664 8.97017C39.3466 8.4481 38.679 8.09976 37.9548 7.97272C37.2306 7.84567 36.485 7.94607 35.8197 8.26023C35.1544 8.57439 34.6018 9.08702 34.2372 9.7282C33.8727 10.3694 33.7139 11.1079 33.7827 11.843L33.7652 11.8244C33.817 12.439 33.7346 13.0575 33.5238 13.6367C33.313 14.2159 32.9788 14.742 32.5446 15.1781C32.1104 15.6141 31.5866 15.9498 31.0099 16.1615C30.433 16.3732 29.8172 16.456 29.2053 16.404L29.2228 16.4225C28.7028 16.3699 28.1776 16.434 27.6852 16.6102C27.1929 16.7863 26.7457 17.0702 26.376 17.4412C26.0062 17.8123 25.7232 18.2612 25.5474 18.7556C25.3717 19.2499 25.3075 19.7772 25.3594 20.2996L25.342 20.282C25.3934 20.8964 25.3108 21.5148 25.0999 22.0939C24.8889 22.6729 24.5547 23.1989 24.1206 23.6349C23.6864 24.0709 23.1628 24.4065 22.5862 24.6184C22.0096 24.8302 21.3939 24.9132 20.7821 24.8615L20.7996 24.8791C20.0676 24.81 19.3323 24.9694 18.6938 25.3356C18.0554 25.7017 17.545 26.2566 17.2322 26.9248C16.9193 27.593 16.8194 28.3418 16.9459 29.0691C17.0724 29.7964 17.4192 30.4669 17.9391 30.9889C18.4589 31.5111 19.1265 31.8594 19.8507 31.9864C20.5749 32.1134 21.3205 32.013 21.9858 31.6989C22.6511 31.3847 23.2037 30.8722 23.5682 30.231C23.9328 29.5897 24.0915 28.8513 24.0228 28.1162L24.0412 28.1337C23.9895 27.5192 24.0721 26.9008 24.283 26.3216C24.4938 25.7425 24.8281 25.2165 25.2622 24.7804C25.6964 24.3444 26.2201 24.0087 26.7968 23.797C27.3735 23.5852 27.9892 23.5023 28.6011 23.5542Z" fill="white"/>
<path d="M22.0908 21.5961C22.459 21.2242 22.7408 20.7752 22.9163 20.2812C23.0918 19.7873 23.1565 19.2605 23.1059 18.7385L23.1243 18.7561C23.0727 18.1414 23.1552 17.5228 23.3662 16.9435C23.5772 16.3642 23.9116 15.8381 24.346 15.402C24.7805 14.9659 25.3043 14.6303 25.8813 14.4187C26.4582 14.207 27.0742 14.1244 27.6862 14.1766L27.6677 14.159C28.3994 14.2278 29.1345 14.0683 29.7726 13.7023C30.4108 13.3362 30.9209 12.7813 31.2336 12.1134C31.5462 11.4454 31.646 10.6969 31.5195 9.96982C31.3931 9.24276 31.0463 8.5726 30.5266 8.0507C30.007 7.52881 29.3397 7.1806 28.6157 7.05355C27.8918 6.9265 27.1465 7.02681 26.4814 7.34078C25.8163 7.65475 25.2638 8.16711 24.8994 8.80799C24.5348 9.44887 24.3759 10.1871 24.4445 10.9219L24.427 10.9044C24.4787 11.5188 24.3962 12.1373 24.1853 12.7164C23.9744 13.2956 23.6402 13.8215 23.206 14.2576C22.7718 14.6937 22.2481 15.0293 21.6714 15.241C21.0948 15.4528 20.479 15.5358 19.8672 15.4839L19.8846 15.5014C19.2868 15.4476 18.6851 15.5462 18.1353 15.7881C17.5855 16.0299 17.1053 16.4073 16.7394 16.8851C16.3734 17.3629 16.1335 17.9258 16.0418 18.5215C15.9502 19.1173 16.0097 19.7267 16.2149 20.2931C16.4202 20.8597 16.7645 21.3649 17.2159 21.7622C17.6674 22.1596 18.2114 22.436 18.7975 22.5659C19.3837 22.6958 19.993 22.675 20.569 22.5055C21.145 22.336 21.6691 22.0232 22.0927 21.5961H22.0908Z" fill="white"/>
<path d="M52.1826 11.8654H55.0678V25.9658H52.1826V11.8654Z" fill="white"/>
<path d="M56.7016 21.1376C56.6976 20.1243 56.9931 19.1325 57.5507 18.288C58.1083 17.4435 58.9029 16.7842 59.8339 16.3936C60.7649 16.003 61.7904 15.8987 62.7805 16.0939C63.7705 16.2892 64.6807 16.775 65.3955 17.4901C66.1104 18.2052 66.5979 19.1173 66.7962 20.1108C66.9946 21.1044 66.8948 22.1347 66.5097 23.0713C66.1245 24.0078 65.4712 24.8086 64.6326 25.3719C63.7939 25.9353 62.8077 26.2361 61.7986 26.2361C61.1289 26.2438 60.4644 26.1173 59.8438 25.864C59.2233 25.6107 58.6593 25.2358 58.1847 24.7612C57.7101 24.2864 57.3345 23.7215 57.0799 23.0993C56.8252 22.4772 56.6966 21.8102 56.7016 21.1376ZM64.0106 21.1376C63.9985 20.7008 63.8586 20.2773 63.6082 19.9199C63.3578 19.5626 63.0081 19.2873 62.6028 19.1286C62.1974 18.9697 61.7545 18.9344 61.3293 19.0271C60.9041 19.1198 60.5156 19.3362 60.2122 19.6495C59.9089 19.9626 59.7041 20.3587 59.6238 20.7882C59.5434 21.2176 59.5907 21.6613 59.76 22.0638C59.9293 22.4663 60.213 22.8097 60.5755 23.0512C60.9381 23.2927 61.3636 23.4215 61.7986 23.4215C62.0966 23.4295 62.393 23.3753 62.6691 23.2625C62.9452 23.1497 63.1951 22.9808 63.4029 22.7662C63.6106 22.5516 63.772 22.2961 63.8765 22.0158C63.9811 21.7355 64.0268 21.4365 64.0106 21.1376Z" fill="white"/>
<path d="M78.3947 16.3084V25.4791C78.3947 28.724 75.8748 30.0957 73.317 30.0957C72.4165 30.1634 71.5147 29.9806 70.7107 29.5677C69.9067 29.1546 69.2315 28.5272 68.7591 27.7542L71.2207 26.3249C71.4192 26.7279 71.7356 27.0603 72.1274 27.2777C72.5193 27.4951 72.9679 27.5872 73.4132 27.5415C73.6978 27.5811 73.9877 27.556 74.2613 27.4679C74.5349 27.3798 74.7853 27.231 74.994 27.0326C75.2026 26.8342 75.3642 26.5913 75.4668 26.3216C75.5693 26.0521 75.6101 25.7628 75.5863 25.4752V24.5923C75.2484 25.0074 74.8184 25.3372 74.3307 25.5553C73.8429 25.7733 73.3112 25.8735 72.7779 25.8479C71.509 25.8077 70.3055 25.2732 69.4221 24.3575C68.5386 23.4419 68.0447 22.2169 68.0447 20.942C68.0447 19.6671 68.5386 18.4421 69.4221 17.5265C70.3055 16.6108 71.509 16.0764 72.7779 16.0362C73.3112 16.0105 73.8429 16.1107 74.3307 16.3287C74.8184 16.5468 75.2484 16.8766 75.5863 17.2918V16.3064L78.3947 16.3084ZM75.5872 20.9435C75.6067 20.4765 75.4864 20.0144 75.2421 19.6166C74.9978 19.2188 74.6405 18.9036 74.2163 18.7115C73.792 18.5193 73.3203 18.4591 72.8617 18.5385C72.4031 18.6179 71.9787 18.8333 71.6429 19.1571C71.3073 19.4808 71.0758 19.898 70.9782 20.355C70.8807 20.812 70.9215 21.2879 71.0955 21.7213C71.2695 22.1548 71.5687 22.5261 71.9546 22.7874C72.3404 23.0486 72.7953 23.188 73.2607 23.1874C73.5638 23.2086 73.868 23.1659 74.1537 23.0619C74.4394 22.9579 74.7002 22.7949 74.9194 22.5836C75.1385 22.3722 75.3113 22.117 75.4263 21.8345C75.5413 21.5521 75.5962 21.2485 75.5872 20.9435Z" fill="white"/>
<path d="M80.0287 21.1376C80.0247 20.1243 80.3201 19.1325 80.8778 18.288C81.4354 17.4435 82.2301 16.7842 83.1611 16.3936C84.0921 16.003 85.1175 15.8987 86.1076 16.0939C87.0977 16.2892 88.0078 16.775 88.7227 17.4901C89.4376 18.2052 89.925 19.1173 90.1234 20.1108C90.3218 21.1044 90.222 22.1347 89.8368 23.0713C89.4517 24.0078 88.7984 24.8086 87.9597 25.3719C87.121 25.9353 86.1348 26.2361 85.1258 26.2361C84.4561 26.2438 83.7914 26.1173 83.171 25.864C82.5504 25.6107 81.9864 25.2358 81.5119 24.7612C81.0372 24.2864 80.6617 23.7215 80.4071 23.0993C80.1524 22.4772 80.0237 21.8102 80.0287 21.1376ZM87.3377 21.1376C87.3257 20.7008 87.1857 20.2773 86.9354 19.9199C86.6849 19.5626 86.3352 19.2873 85.9299 19.1286C85.5246 18.9697 85.0816 18.9344 84.6565 19.0271C84.2313 19.1198 83.8427 19.3362 83.5393 19.6495C83.2361 19.9626 83.0313 20.3587 82.9509 20.7882C82.8704 21.2176 82.9178 21.6613 83.0871 22.0638C83.2565 22.4663 83.5401 22.8097 83.9027 23.0512C84.2653 23.2927 84.6907 23.4215 85.1258 23.4215C85.4237 23.4295 85.7201 23.3753 85.9962 23.2625C86.2724 23.1497 86.5222 22.9808 86.73 22.7662C86.9378 22.5516 87.0991 22.2961 87.2037 22.0158C87.3083 21.7355 87.3539 21.4365 87.3377 21.1376Z" fill="white"/>
<path d="M91.5684 13.7201C91.5684 13.3763 91.6699 13.0401 91.8601 12.7542C92.0503 12.4683 92.3207 12.2455 92.637 12.1139C92.9533 11.9823 93.3014 11.9479 93.6372 12.015C93.9729 12.0821 94.2815 12.2476 94.5235 12.4908C94.7656 12.7339 94.9305 13.0437 94.9973 13.3809C95.0641 13.7182 95.0298 14.0677 94.8988 14.3854C94.7678 14.7031 94.5459 14.9746 94.2612 15.1657C93.9765 15.3567 93.6419 15.4586 93.2994 15.4586C92.8418 15.4541 92.4041 15.2695 92.0804 14.9444C91.7568 14.6193 91.5729 14.1798 91.5684 13.7201ZM91.8598 16.3084H94.7459V25.9669H91.8559L91.8598 16.3084Z" fill="white"/>
<path d="M107.203 21.1376C107.237 21.7759 107.144 22.4146 106.931 23.0168C106.718 23.6191 106.388 24.173 105.961 24.6469C105.533 25.1206 105.017 25.505 104.442 25.7778C103.866 26.0505 103.242 26.2063 102.607 26.2361C102.072 26.2654 101.538 26.1749 101.042 25.9711C100.546 25.7672 100.102 25.4552 99.7418 25.0576V29.8293H96.8567V16.3083H99.7418V17.2157C100.103 16.8184 100.547 16.5066 101.042 16.303C101.538 16.0993 102.072 16.0088 102.607 16.0381C103.242 16.0678 103.866 16.2236 104.442 16.4963C105.018 16.7691 105.534 17.1535 105.961 17.6275C106.389 18.1014 106.718 18.6556 106.931 19.258C107.145 19.8603 107.237 20.4992 107.203 21.1376ZM104.318 21.1376C104.307 20.6856 104.163 20.247 103.905 19.8765C103.647 19.5062 103.285 19.2205 102.866 19.0555C102.447 18.8903 101.989 18.8529 101.549 18.9481C101.108 19.0433 100.706 19.2667 100.392 19.5904C100.077 19.9142 99.8651 20.3238 99.7815 20.7681C99.6978 21.2124 99.7465 21.6716 99.9214 22.0882C100.096 22.5049 100.39 22.8604 100.765 23.1105C101.14 23.3604 101.58 23.4938 102.031 23.4937C102.34 23.5076 102.648 23.4556 102.936 23.3412C103.224 23.227 103.484 23.0528 103.7 22.8304C103.916 22.6078 104.083 22.3421 104.189 22.0504C104.296 21.7587 104.34 21.4476 104.318 21.1376Z" fill="white"/>
<path d="M116.107 23.0682C116.107 25.2897 114.184 26.2361 112.107 26.2361C111.268 26.3123 110.425 26.1342 109.688 25.7243C108.951 25.3146 108.353 24.6921 107.972 23.9375L110.471 22.5082C110.573 22.857 110.79 23.1605 111.087 23.3679C111.384 23.5753 111.743 23.6741 112.103 23.6478C112.795 23.6478 113.142 23.4351 113.142 23.0497C113.142 21.9863 108.41 22.5473 108.41 19.2058C108.41 17.0995 110.18 16.038 112.18 16.038C112.932 16.0141 113.676 16.1932 114.336 16.5566C114.995 16.9201 115.546 17.4546 115.93 18.1043L113.468 19.437C113.36 19.1841 113.181 18.9685 112.951 18.8174C112.722 18.6663 112.454 18.5863 112.18 18.5873C111.68 18.5873 111.372 18.7824 111.372 19.1278C111.376 20.2292 116.107 19.4946 116.107 23.0682Z" fill="white"/>
<path d="M126.646 16.3083V25.9669H123.76V25.0586C123.427 25.4594 123.005 25.7752 122.527 25.9801C122.049 26.1849 121.53 26.273 121.011 26.2371C119.068 26.2371 117.417 24.8469 117.417 22.2371V16.3083H120.302V21.8127C120.278 22.0428 120.304 22.2754 120.379 22.4942C120.453 22.7131 120.574 22.9131 120.733 23.0803C120.893 23.2474 121.086 23.3776 121.301 23.462C121.514 23.5464 121.745 23.5829 121.975 23.5688C123.033 23.5688 123.763 22.9513 123.763 21.5796V16.3113L126.646 16.3083Z" fill="white"/>
<path d="M143.189 20.0361V25.9658H140.304V20.2868C140.304 19.321 139.842 18.7034 138.919 18.7034C137.958 18.7034 137.419 19.3795 137.419 20.519V25.9658H134.534V20.2868C134.534 19.321 134.073 18.7034 133.149 18.7034C132.187 18.7034 131.649 19.3795 131.649 20.519V25.9658H128.764V16.3073H131.649V17.1951C131.949 16.8013 132.341 16.4889 132.791 16.2866C133.241 16.0843 133.735 15.9985 134.227 16.0371C134.72 16.0128 135.212 16.1175 135.654 16.3408C136.095 16.564 136.471 16.8984 136.745 17.3112C137.065 16.8793 137.489 16.5359 137.976 16.3131C138.464 16.0902 139 15.9953 139.534 16.0371C141.742 16.038 143.189 17.6215 143.189 20.0361Z" fill="white"/>
<path d="M145.629 16.2487C146.812 16.2487 147.77 15.286 147.77 14.0985C147.77 12.9109 146.812 11.9482 145.629 11.9482C144.447 11.9482 143.488 12.9109 143.488 14.0985C143.488 15.286 144.447 16.2487 145.629 16.2487Z" fill="white"/>
</svg>
