<svg width="164" height="40" viewBox="0 0 164 40" fill="none" xmlns="http://www.w3.org/2000/svg">
<path d="M56.5821 10.2839H53V26.4472H62.9164V23.2801H56.5821V10.2839Z" fill="#243A5A"/>
<path d="M63.2588 20.9648C63.2588 24.4159 65.5741 26.7093 69.0688 26.7093C72.5417 26.7093 74.857 24.4159 74.857 20.9648C74.857 17.5137 72.5417 15.1984 69.0688 15.1984C65.5741 15.1984 63.2588 17.5137 63.2588 20.9648ZM66.6443 20.9429C66.6443 19.3048 67.6054 18.2127 69.0688 18.2127C70.5104 18.2127 71.4715 19.3048 71.4715 20.9429C71.4715 22.603 70.5104 23.6951 69.0688 23.6951C67.6054 23.6951 66.6443 22.603 66.6443 20.9429Z" fill="#243A5A"/>
<path d="M75.3977 20.7901C75.3977 24.0882 77.5383 26.3161 80.5743 26.3161C82.0378 26.3161 83.3046 25.7919 83.938 24.9401V26.4472C83.938 27.9543 82.9988 28.959 81.3388 28.959C79.8535 28.959 78.8269 28.2601 78.7614 27.0151H75.354C75.6598 30.0075 77.9751 32.0169 81.1422 32.0169C84.8772 32.0169 87.2362 29.5925 87.2362 25.7482V15.5261H84.2001L84.0254 16.64C83.4138 15.7445 82.1251 15.1548 80.6399 15.1548C77.5819 15.1548 75.3977 17.4482 75.3977 20.7901ZM78.8051 20.7027C78.8051 19.13 79.8535 18.0816 81.1859 18.0816C82.7367 18.0816 83.8725 19.1082 83.8725 20.7027C83.8725 22.2972 82.7585 23.3893 81.2077 23.3893C79.8754 23.3893 78.8051 22.2972 78.8051 20.7027Z" fill="#243A5A"/>
<path d="M88.2168 20.9648C88.2168 24.4159 90.5321 26.7093 94.0269 26.7093C97.4998 26.7093 99.815 24.4159 99.815 20.9648C99.815 17.5137 97.4998 15.1984 94.0269 15.1984C90.5321 15.1984 88.2168 17.5137 88.2168 20.9648ZM91.6024 20.9429C91.6024 19.3048 92.5634 18.2127 94.0269 18.2127C95.4684 18.2127 96.4295 19.3048 96.4295 20.9429C96.4295 22.603 95.4684 23.6951 94.0269 23.6951C92.5634 23.6951 91.6024 22.603 91.6024 20.9429Z" fill="#243A5A"/>
<path d="M102.715 13.8224C103.763 13.8224 104.615 12.9705 104.615 11.9003C104.615 10.83 103.763 10 102.715 10C101.645 10 100.793 10.83 100.793 11.9003C100.793 12.9705 101.645 13.8224 102.715 13.8224ZM101.011 26.4472H104.397V15.5261H101.011V26.4472Z" fill="#243A5A"/>
<path d="M106.368 31.6893H109.688V25.3551C110.321 26.1851 111.763 26.753 113.27 26.753C116.524 26.753 118.49 24.263 118.403 20.8119C118.315 17.2953 116.284 15.1766 113.248 15.1766C111.697 15.1766 110.234 15.8537 109.622 16.8585L109.447 15.5261H106.368V31.6893ZM109.753 20.9866C109.753 19.3485 110.845 18.2564 112.418 18.2564C114.012 18.2564 115.017 19.3703 115.017 20.9866C115.017 22.603 114.012 23.7169 112.418 23.7169C110.845 23.7169 109.753 22.6248 109.753 20.9866Z" fill="#243A5A"/>
<path d="M118.761 22.9961C118.848 25.2022 120.596 26.7311 123.348 26.7311C125.991 26.7311 127.826 25.3332 127.826 23.0835C127.826 21.4672 126.865 20.3969 125.073 19.96L123.13 19.4795C122.431 19.3048 121.994 19.13 121.994 18.5621C121.994 17.9942 122.452 17.6229 123.13 17.6229C123.894 17.6229 124.396 18.1253 124.375 18.8679H127.411C127.323 16.5963 125.598 15.1766 123.195 15.1766C120.771 15.1766 118.958 16.6182 118.958 18.8024C118.958 20.2658 119.766 21.4672 121.928 22.0351L123.85 22.5374C124.418 22.6903 124.658 22.9524 124.658 23.3237C124.658 23.8698 124.156 24.2193 123.304 24.2193C122.321 24.2193 121.797 23.7606 121.797 22.9961H118.761Z" fill="#243A5A"/>
<path d="M132.974 26.7311C134.307 26.7311 135.639 26.1195 136.316 25.224L136.535 26.4472H139.702V15.5261H136.338V21.2051C136.338 22.8432 135.858 23.7387 134.307 23.7387C133.105 23.7387 132.319 23.1927 132.319 21.1614V15.5261H128.955V22.3845C128.955 24.9838 130.397 26.7311 132.974 26.7311Z" fill="#243A5A"/>
<path d="M145.036 26.4472V20.4843C145.036 18.6495 146.019 18.1253 146.98 18.1253C148.05 18.1253 148.749 18.7806 148.749 20.1348V26.4472H152.069V20.4843C152.069 18.6277 153.03 18.1035 153.991 18.1035C155.061 18.1035 155.782 18.7587 155.782 20.1348V26.4472H159.059V19.3048C159.059 16.8148 157.748 15.1548 154.93 15.1548C153.358 15.1548 152.069 15.9192 151.501 17.0987C150.846 15.9192 149.71 15.1548 147.897 15.1548C146.696 15.1548 145.582 15.7008 144.927 16.5745L144.796 15.5261H141.65V26.4472H145.036Z" fill="#243A5A"/>
<path d="M5 20C5 10.5719 5 5.85786 7.92893 2.92893C10.8579 0 15.5719 0 25 0C34.4281 0 39.1421 0 42.0711 2.92893C45 5.85786 45 10.5719 45 20C45 29.4281 45 34.1421 42.0711 37.0711C39.1421 40 34.4281 40 25 40C15.5719 40 10.8579 40 7.92893 37.0711C5 34.1421 5 29.4281 5 20Z" fill="#243A5A"/>
<path d="M28.9997 26C29.552 26 30.0098 26.4521 29.9001 26.9934C29.7062 27.9494 29.2352 28.8355 28.5352 29.5355C27.5976 30.4732 26.3258 31 24.9997 31C23.6736 31 22.4019 30.4732 21.4642 29.5355C20.7642 28.8355 20.2932 27.9494 20.0994 26.9934C19.9896 26.4521 20.4474 26 20.9997 26H28.9997Z" fill="#2DF8BB"/>
<path d="M31.1022 17.7765C30.5687 17.9194 30.242 18.4775 30.5125 18.959C30.7972 19.4658 31.191 19.9081 31.6701 20.2514C32.4223 20.7904 33.3381 21.052 34.2616 20.9914C35.185 20.9309 36.0589 20.5521 36.7343 19.9195C37.4098 19.2869 37.8449 18.4396 37.9657 17.5221C38.0865 16.6046 37.8855 15.6736 37.3968 14.8877C36.9081 14.1019 36.162 13.5098 35.2857 13.2123C34.4094 12.9148 33.4571 12.9304 32.591 13.2564C32.0394 13.464 31.5446 13.7893 31.1384 14.2051C30.7525 14.6002 30.9236 15.2239 31.4019 15.5L31.9092 15.7929C32.6807 16.2384 32.5286 17.3943 31.668 17.6249L31.1022 17.7765Z" fill="#2DF8BB"/>
<path d="M18.8977 17.7765C19.4312 17.9194 19.7579 18.4775 19.4874 18.959C19.2027 19.4658 18.8089 19.9081 18.3299 20.2514C17.5777 20.7904 16.6618 21.052 15.7384 20.9914C14.815 20.9309 13.9411 20.5521 13.2656 19.9195C12.5902 19.2869 12.155 18.4396 12.0342 17.5221C11.9134 16.6046 12.1145 15.6736 12.6032 14.8877C13.0919 14.1019 13.8379 13.5098 14.7142 13.2123C15.5905 12.9148 16.5429 12.9304 17.409 13.2564C17.9605 13.464 18.4554 13.7893 18.8616 14.2051C19.2475 14.6002 19.0763 15.2239 18.598 15.5L18.0907 15.7929C17.3192 16.2384 17.4714 17.3943 18.3319 17.6249L18.8977 17.7765Z" fill="#2DF8BB"/>
</svg>
