<svg width="52" height="52" viewBox="0 0 52 52" fill="none" xmlns="http://www.w3.org/2000/svg">
<rect x="2" y="2" width="50" height="50" rx="15" fill="black"/>
<rect x="0.5" y="0.5" width="49" height="49" rx="14.5" fill="#C7B9FF" stroke="black"/>
<path d="M25.0001 36.4916C24.5924 36.498 24.1902 36.3974 23.8334 36.1999L23.4834 36.0016C20.7572 34.4592 18.4892 32.2209 16.911 29.5154C15.3327 26.8098 14.5008 23.7338 14.5001 20.6016V20.4382C14.4964 20.0251 14.6025 19.6184 14.8074 19.2597C15.0124 18.901 15.309 18.6031 15.6668 18.3966L23.8334 13.7999C24.1881 13.5951 24.5905 13.4873 25.0001 13.4873C25.4097 13.4873 25.812 13.5951 26.1668 13.7999L34.3334 18.3966C34.6912 18.6031 34.9878 18.901 35.1928 19.2597C35.3977 19.6184 35.5038 20.0251 35.5001 20.4382V20.6016C35.4971 23.7361 34.6616 26.8137 33.0791 29.5195C31.4967 32.2252 29.224 34.4622 26.4934 36.0016L26.1434 36.1999C25.7936 36.3935 25.3999 36.4939 25.0001 36.4916ZM25.0001 15.8416L16.8334 20.4382V20.6016C16.8354 23.3212 17.5603 25.9914 18.9338 28.3387C20.3073 30.686 22.2801 32.626 24.6501 33.9599L25.0001 34.1582L25.3501 33.9599C27.7201 32.626 29.6929 30.686 31.0664 28.3387C32.4399 25.9914 33.1648 23.3212 33.1668 20.6016V20.4382L25.0001 15.8416Z" fill="black"/>
</svg>
